<svg width="334" height="63" viewBox="0 0 334 63" fill="none" xmlns="http://www.w3.org/2000/svg">
<g clip-path="url(#clip0_16_33)">
<path d="M0 0.947876H24.4795C29.1423 0.947876 32.6394 2.11357 35.2298 4.05639C38.0792 6.38777 39.6335 9.75532 39.6335 13.9C39.6335 18.6923 37.6907 21.6713 33.8051 23.4846V23.7436C38.9859 25.4274 41.9649 30.0902 41.9649 35.6596C41.9649 40.9699 39.8925 45.1146 36.525 47.705C33.6755 49.7774 30.0489 50.684 25.1271 50.684H0V0.947876ZM22.0186 20.3761C24.609 20.3761 26.5519 18.9513 26.5519 15.9723C26.5519 13.1229 24.609 11.6981 21.8891 11.6981H13.4702V20.2465H22.0186V20.3761ZM23.1843 39.6747C26.1633 39.6747 28.3651 37.8614 28.3651 34.6234C28.3651 31.1263 26.0338 29.5721 23.1843 29.5721H13.5997V39.8043H23.1843V39.6747Z" fill="url(#paint0_linear_16_33)"/>
<path d="M44.1667 0.947876H56.9893V50.8136H44.1667V0.947876Z" fill="url(#paint1_linear_16_33)"/>
<path d="M59.5798 33.0692C59.5798 21.8008 66.833 14.2886 78.1014 14.2886C89.3697 14.2886 96.4934 21.9303 96.4934 33.0692C96.4934 44.3375 89.3697 51.8497 78.1014 51.8497C66.833 51.8497 59.5798 44.3375 59.5798 33.0692ZM83.6708 33.0692C83.6708 26.8521 81.728 22.9665 77.8423 22.9665C73.9567 22.9665 72.1434 26.8521 72.1434 33.0692C72.1434 39.2862 73.9567 43.3013 77.8423 43.3013C81.728 43.1718 83.6708 39.2862 83.6708 33.0692Z" fill="url(#paint2_linear_16_33)"/>
<path d="M97.9181 33.0692C97.9181 21.8008 105.171 14.2886 116.44 14.2886C127.708 14.2886 134.702 21.8008 134.702 33.0692C134.702 44.3375 127.578 51.8497 116.31 51.8497C105.171 51.8497 97.9181 44.3375 97.9181 33.0692ZM122.009 33.0692C122.009 26.8521 120.066 22.9665 116.181 22.9665C112.295 22.9665 110.482 26.8521 110.482 33.0692C110.482 39.2862 112.295 43.3013 116.181 43.3013C120.066 43.1718 122.009 39.2862 122.009 33.0692Z" fill="url(#paint3_linear_16_33)"/>
<path d="M137.292 15.1952H149.208V20.5056H149.467C151.799 16.3609 155.037 14.1591 160.218 14.1591C164.751 14.1591 168.119 16.3609 169.802 20.2466H170.061C172.911 15.5838 176.667 14.1591 181.071 14.1591C189.36 14.1591 192.857 20.2466 192.857 28.4064V50.6841H180.423V30.6083C180.423 26.9817 179.257 24.6503 176.149 24.6503C173.04 24.6503 171.486 27.4997 171.486 31.3854V50.6841H159.052V30.6083C159.052 26.9817 157.886 24.6503 154.778 24.6503C151.669 24.6503 150.115 27.4997 150.115 31.3854V50.6841H137.292V15.1952Z" fill="url(#paint4_linear_16_33)"/>
<path d="M208.529 46.0213H208.4V50.684H196.484V0.947876H208.918V18.8218H209.177C211.508 15.7133 214.746 14.0295 219.279 14.0295C228.216 14.0295 233.397 22.0598 233.397 32.8101C233.397 44.8556 227.828 51.8497 218.502 51.8497C214.617 51.8497 210.601 50.0364 208.529 46.0213ZM220.575 32.6806C220.575 26.9817 218.502 23.2255 214.746 23.2255C210.86 23.2255 208.529 26.9817 208.529 32.6806C208.529 38.3795 210.99 42.1356 214.746 42.1356C218.502 42.1356 220.575 38.509 220.575 32.6806Z" fill="url(#paint5_linear_16_33)"/>
<path d="M234.822 32.9396C234.822 21.8008 242.205 14.1591 252.826 14.1591C258.136 14.1591 262.151 15.8428 265.26 18.8218C269.404 22.837 271.218 29.054 271.088 36.3072H247.256C247.774 40.7109 249.847 43.0423 253.603 43.0423C255.805 43.0423 257.747 42.0061 258.525 39.6747H270.57C268.498 47.8346 262.151 51.8497 253.214 51.8497C242.205 51.7202 234.822 44.208 234.822 32.9396ZM247.256 29.1835H258.654C258.395 24.9093 256.064 22.7075 253.085 22.7075C249.588 22.5779 247.645 25.0388 247.256 29.1835Z" fill="url(#paint6_linear_16_33)"/>
<path d="M285.206 21.2827H285.465C288.055 16.3609 291.423 14.4181 295.697 14.4181C296.733 14.4181 297.381 14.5476 297.769 14.8067V25.6864H297.51C290.128 24.3912 285.853 27.8883 285.853 35.9186V50.8136H273.29V15.1952H285.206V21.2827Z" fill="url(#paint7_linear_16_33)"/>
<path d="M299.065 50.8135H311.11C311.628 52.3678 313.182 53.7925 316.161 53.7925C320.177 53.7925 321.601 51.3316 321.601 47.5755V44.9851H321.342C319.399 47.3164 316.679 49.0002 312.794 49.0002C305.152 49.0002 298.417 43.3013 298.417 32.1625C298.417 21.9303 303.857 14.0295 312.146 14.0295C316.939 14.0295 319.788 15.9723 321.731 18.9513H321.99V15.0657H333.906V45.8917C333.906 51.5906 331.963 55.9944 328.984 58.5848C325.876 61.3047 321.472 62.4704 316.42 62.4704C306.836 62.6 300.23 58.7143 299.065 50.8135ZM322.119 31.6444C322.119 27.2406 320.047 23.6141 316.42 23.6141C312.923 23.6141 310.722 26.7226 310.722 31.6444C310.722 36.4367 312.923 39.8042 316.42 39.8042C319.918 39.8042 322.119 36.3071 322.119 31.6444Z" fill="url(#paint8_linear_16_33)"/>
</g>
<defs>
<linearGradient id="paint0_linear_16_33" x1="20.9824" y1="0.947876" x2="20.9824" y2="50.684" gradientUnits="userSpaceOnUse">
<stop stop-color="#A8A8A8"/>
<stop offset="1" stop-color="#EFEFEF"/>
</linearGradient>
<linearGradient id="paint1_linear_16_33" x1="50.578" y1="0.947876" x2="50.578" y2="50.8136" gradientUnits="userSpaceOnUse">
<stop stop-color="#A8A8A8"/>
<stop offset="1" stop-color="#EFEFEF"/>
</linearGradient>
<linearGradient id="paint2_linear_16_33" x1="78.0366" y1="14.2886" x2="78.0366" y2="51.8497" gradientUnits="userSpaceOnUse">
<stop stop-color="#A8A8A8"/>
<stop offset="1" stop-color="#EFEFEF"/>
</linearGradient>
<linearGradient id="paint3_linear_16_33" x1="116.31" y1="14.2886" x2="116.31" y2="51.8497" gradientUnits="userSpaceOnUse">
<stop stop-color="#A8A8A8"/>
<stop offset="1" stop-color="#EFEFEF"/>
</linearGradient>
<linearGradient id="paint4_linear_16_33" x1="165.075" y1="14.1591" x2="165.075" y2="50.6841" gradientUnits="userSpaceOnUse">
<stop stop-color="#A8A8A8"/>
<stop offset="1" stop-color="#EFEFEF"/>
</linearGradient>
<linearGradient id="paint5_linear_16_33" x1="214.94" y1="0.947876" x2="214.94" y2="51.8497" gradientUnits="userSpaceOnUse">
<stop stop-color="#A8A8A8"/>
<stop offset="1" stop-color="#EFEFEF"/>
</linearGradient>
<linearGradient id="paint6_linear_16_33" x1="252.958" y1="14.1591" x2="252.958" y2="51.8497" gradientUnits="userSpaceOnUse">
<stop stop-color="#A8A8A8"/>
<stop offset="1" stop-color="#EFEFEF"/>
</linearGradient>
<linearGradient id="paint7_linear_16_33" x1="285.53" y1="14.4181" x2="285.53" y2="50.8136" gradientUnits="userSpaceOnUse">
<stop stop-color="#A8A8A8"/>
<stop offset="1" stop-color="#EFEFEF"/>
</linearGradient>
<linearGradient id="paint8_linear_16_33" x1="316.161" y1="14.0295" x2="316.161" y2="62.4736" gradientUnits="userSpaceOnUse">
<stop stop-color="#A8A8A8"/>
<stop offset="1" stop-color="#EFEFEF"/>
</linearGradient>
<clipPath id="clip0_16_33">
<rect width="333.906" height="61.6521" fill="white" transform="translate(0 0.947876)"/>
</clipPath>
</defs>
</svg>
