<svg width="238" height="65" viewBox="0 0 238 65" fill="none" xmlns="http://www.w3.org/2000/svg">
<path d="M134.476 22.2829C134.476 15.3988 134.595 8.98956 134.951 3.05505L116.791 6.49707V8.15873L118.571 8.39611C119.877 8.5148 120.708 8.98956 121.183 9.7017C121.657 10.5325 122.013 11.7194 122.251 13.4998C122.488 16.9418 122.726 24.7753 122.607 37.1191C122.607 49.3442 122.488 57.059 122.251 60.0263C128.779 61.4506 133.882 62.044 137.681 62.044C144.802 62.044 150.38 60.0263 154.416 55.8721C158.451 51.8367 160.588 46.1396 160.588 39.1368C160.588 33.5584 159.045 28.9295 155.959 25.2501C152.873 21.5707 148.956 19.7904 144.327 19.7904C141.241 19.7904 138.037 20.6212 134.476 22.2829ZM134.832 58.8394C134.595 55.0413 134.357 43.6471 134.357 25.0127C135.425 24.6567 136.85 24.4193 138.63 24.4193C141.479 24.4193 143.734 25.8436 145.395 28.8108C147.057 31.7781 147.888 35.3388 147.888 39.849C147.888 45.4274 146.938 49.9376 145.039 53.7357C143.14 57.4151 140.766 59.3142 137.799 59.3142C136.85 59.0768 135.9 58.9581 134.832 58.8394ZM48.6629 4.24195H1.18689V6.61576L3.67938 6.85314C5.57842 7.20921 6.88401 7.92135 7.71485 8.98956C8.54568 10.1765 9.02044 12.0755 9.13913 14.6867C10.0886 27.5052 10.0886 39.4929 9.13913 50.5311C8.90175 53.1423 8.42699 55.0413 7.71485 56.2282C6.88401 57.4151 5.57842 58.1273 3.67938 58.3646L1.18689 58.7207V61.0945H31.8089V58.7207L28.6043 58.4833C27.8223 58.4179 27.0617 58.1949 26.3681 57.8277C25.6746 57.4606 25.0626 56.9568 24.5688 56.3469C23.738 55.16 23.2632 53.261 23.1446 50.6498C22.7885 45.9022 22.5511 40.4424 22.5511 34.3892L28.9604 34.5079C32.4024 34.6266 34.7762 37.2378 35.9631 42.4602H38.3369V23.1137H35.9631C34.7762 28.2174 32.5211 30.8285 28.9604 30.9472L22.5511 31.0659C22.5511 20.3838 22.7885 12.7876 23.1446 8.15873H32.5211C39.1677 8.15873 43.6779 12.4316 46.2891 20.9773L49.1377 20.1464L48.6629 4.24195ZM43.0845 40.7985C43.0845 46.9704 44.8648 52.0741 48.3069 56.1095C51.7489 60.145 56.8525 62.044 63.2618 62.044C69.6711 62.044 74.8934 60.0263 78.6915 55.8721C82.4896 51.8367 84.27 46.733 84.27 40.5611C84.27 34.3892 82.4896 29.2856 79.0476 25.2501C75.6056 21.2146 70.5019 19.3156 64.0926 19.3156C57.6834 19.3156 52.461 21.3333 48.6629 25.4875C44.8648 29.5229 43.0845 34.6266 43.0845 40.7985ZM69.5524 27.2678C70.9767 30.7098 71.5701 35.2201 71.5701 40.6798C71.5701 53.261 68.9589 59.4328 63.8553 59.4328C61.2441 59.4328 59.2263 57.6525 57.8021 54.0918C56.3778 50.5311 55.7843 46.0209 55.7843 40.6798C55.7843 28.2174 58.3955 22.0455 63.4992 22.0455C66.1104 21.9268 68.1281 23.7071 69.5524 27.2678ZM169.846 56.1095C173.762 60.0263 178.747 62.044 184.682 62.044C188.361 62.044 191.566 61.3319 194.414 59.7889C197.263 58.3646 199.518 56.5843 201.061 54.4479L199.874 53.0236C197.263 55.0413 194.296 55.9908 190.854 55.9908C186.106 55.9908 182.427 54.4479 179.934 51.2432C177.323 48.0386 176.136 44.0031 176.373 38.7808H201.773C201.773 33.0836 200.349 28.4547 197.382 24.7753C194.414 21.2146 190.26 19.4343 184.919 19.4343C178.273 19.4343 173.169 21.5707 169.489 25.7249C165.81 29.879 164.03 34.9827 164.03 41.0359C164.03 47.2078 165.929 52.1928 169.846 56.1095ZM178.629 26.3183C179.934 23.4698 181.596 22.0455 183.851 22.0455C187.412 22.0455 189.192 26.5557 189.192 35.6948L176.611 35.9322C176.73 32.3715 177.323 29.1669 178.629 26.3183ZM233.701 21.5707C230.496 20.1464 226.461 19.3156 221.594 19.3156C216.609 19.3156 212.693 20.6212 209.725 23.1137C206.758 25.6062 205.215 28.6921 205.215 32.3715C205.215 35.5761 206.165 38.0686 207.945 39.849C209.725 41.6293 212.574 43.1723 216.253 44.4779C219.577 45.6648 221.95 46.8517 223.137 47.9199C224.324 49.1068 225.036 50.4124 225.036 52.1928C225.036 53.8544 224.443 55.3974 223.137 56.5843C221.95 57.8899 220.289 58.4833 218.152 58.4833C212.93 58.4833 209.013 54.6852 206.283 47.0891L204.266 47.6825L204.74 59.5515C209.013 61.2132 213.761 62.044 218.983 62.044C224.443 62.044 228.597 60.8571 231.683 58.3646C234.769 55.9908 236.312 52.5488 236.312 48.276C236.312 45.4274 235.6 43.0536 234.057 41.2733C232.514 39.4929 230.021 37.9499 226.461 36.5257C222.544 35.1014 219.814 33.7958 218.39 32.6089C216.965 31.422 216.253 29.9977 216.253 28.2174C216.253 26.437 216.728 25.0127 217.796 23.8258C218.865 22.6389 220.17 22.1642 221.832 22.1642C226.579 22.1642 230.021 25.6062 232.158 32.3715L234.176 31.7781L233.701 21.5707ZM119.521 20.5025C117.859 19.6717 116.079 19.3156 114.061 19.3156C112.043 19.3156 110.026 20.1464 107.771 21.8081C105.515 23.4697 103.854 25.7249 102.548 28.8108L102.667 19.3156L84.626 22.8763V24.538L86.4064 24.6567C88.6615 24.894 89.9671 26.6744 90.2045 29.879C90.9166 37.2378 90.9166 45.0713 90.2045 53.3797C89.9671 56.5843 88.6615 58.2459 86.4064 58.602L84.626 58.8394V61.0945H109.788V58.8394L106.584 58.602C104.329 58.3646 103.023 56.5843 102.786 53.3797C102.073 46.4956 101.955 39.1368 102.548 31.5407C103.26 30.3538 104.803 29.6416 107.177 29.4043C109.551 29.1669 112.281 29.879 115.129 31.5407L119.521 20.5025Z" fill="url(#paint0_linear_16_44)"/>
<defs>
<linearGradient id="paint0_linear_16_44" x1="118.749" y1="3.05505" x2="118.749" y2="62.044" gradientUnits="userSpaceOnUse">
<stop stop-color="#A8A8A8"/>
<stop offset="1" stop-color="#EFEFEF"/>
</linearGradient>
</defs>
</svg>
