<svg width="291" height="90" viewBox="0 0 291 90" fill="none" xmlns="http://www.w3.org/2000/svg">
<path d="M11.0934 29.6586C11.0934 33.1553 12.0355 33.5438 16.0195 33.7057V34.9522H0.159705V33.7057C3.45405 33.5438 4.39621 33.1553 4.39621 29.6586V6.80055C4.39621 3.28766 3.45405 2.89914 0.247124 2.75344V1.47454H28.2482L28.4376 8.85646H27.06C25.8766 5.11693 24.5994 3.93516 18.0431 3.93516H12.9647C11.4398 3.93516 11.0934 4.27513 11.0934 5.66734V16.2546H16.816C22.0384 16.2546 23.1699 15.3156 23.8094 11.8189H25.0931V23.6527H23.8094C23.1198 19.7027 21.1464 18.7152 16.816 18.7152H11.0934V29.6586ZM44.1145 29.6586C44.1145 33.1553 45.0437 33.5438 49.0407 33.7057V34.9522H32.4783V33.7057C36.4817 33.5438 37.4044 33.1553 37.4044 29.6586V6.80055C37.4044 3.28766 36.4817 2.89914 32.4783 2.75344V1.47454H49.0407V2.75344C45.0437 2.89914 44.1145 3.28766 44.1145 6.80055V29.6586ZM83.5868 7.73946C83.5868 4.48558 82.6948 3.15815 79.0459 2.75344V1.47454H90.8716V2.75344C87.2292 3.15815 86.3437 4.48558 86.3437 7.73946V35.7778H84.6682L61.8085 9.3583V28.7196C61.8085 31.9735 62.6875 33.301 66.3364 33.7057V34.9522H54.5043V33.7057C58.1531 33.301 59.0386 31.9735 59.0386 28.7196V6.16918C57.9071 4.178 56.5715 3.23909 54.5043 2.75344V1.47454H63.6232L83.5868 24.5431V7.73946ZM101.47 22.9566L106.497 9.69824L111.479 22.9566H101.47ZM125.468 34.9522V33.7057C122.957 33.7543 122.319 32.6697 121.036 29.5129L109.254 0.681274H107.635L95.3614 30.5489C94.5213 32.6211 93.3881 33.2524 91.2706 33.7057V34.9522H101.913V33.7057C99.5979 33.7057 98.4664 33.2039 98.4664 31.585C98.4664 30.209 99.9978 26.5019 100.383 25.4172H112.511C112.903 26.5019 114.529 30.209 114.529 31.585C114.529 33.2039 113.301 33.7057 110.982 33.7057V34.9522H125.468ZM157.945 7.73946C157.945 4.48558 157.061 3.15815 153.418 2.75344V1.47454H165.243V2.75344C161.594 3.15815 160.704 4.48558 160.704 7.73946V35.7778H159.033L136.165 9.3583L136.166 28.7196C136.166 31.9735 137.052 33.301 140.7 33.7057V34.9522H128.868V33.7057C132.517 33.301 133.409 31.9735 133.409 28.7196V6.16918C132.271 4.178 130.937 3.23909 128.868 2.75344V1.47454H137.987L157.944 24.5431L157.945 7.73946ZM200.257 27.0847C196.754 33.0582 192.169 35.7778 185.219 35.7778C174.329 35.7778 167.873 28.6225 167.873 17.922C167.873 10.2972 173.887 0.681274 185.567 0.681274C189.064 0.681274 194.034 2.65626 194.78 2.65626C195.761 2.65626 196.058 2.12204 196.856 0.681274H198.525L199.219 11.8675H197.74C195.761 6.68719 192.271 2.94769 186.403 2.94769C178.516 2.94769 175.071 11.479 175.071 17.922C175.071 26.9551 178.959 33.0096 187.293 33.0096C193.794 33.0096 197.393 28.1855 198.923 26.0648L200.257 27.0847ZM216.484 29.6586C216.484 33.1553 217.426 33.5438 221.415 33.7057V34.9522H204.854V33.7057C208.851 33.5438 209.787 33.1553 209.787 29.6586V6.80055C209.787 3.28766 208.851 2.89914 204.854 2.75344V1.47454H221.415V2.75344C217.426 2.89914 216.484 3.28766 216.484 6.80055V29.6586ZM235.138 22.9566L240.165 9.69824L245.142 22.9566H235.138ZM259.142 34.9522V33.7057C256.625 33.7543 255.987 32.6697 254.71 29.5129L242.928 0.681274H241.304L229.03 30.5489C228.188 32.6211 227.057 33.2524 224.938 33.7057V34.9522H235.58V33.7057C233.267 33.7057 232.135 33.2039 232.135 31.585C232.135 30.209 233.665 26.5019 234.057 25.4172H246.179C246.57 26.5019 248.196 30.209 248.196 31.585C248.196 33.2039 246.964 33.7057 244.649 33.7057V34.9522H259.142ZM262.071 34.9522V33.7057C265.276 33.56 266.212 33.1553 266.212 29.6586V6.80055C266.212 3.28766 265.276 2.89914 262.071 2.75344V1.47454H277.544V2.75344C273.851 2.89914 272.909 3.28766 272.909 6.80055V30.3061C272.909 32.3297 273.503 33.0096 277.247 33.0096C283.261 33.0096 286.808 31.925 289.667 26.0162H290.951L288.686 34.9522H262.071ZM7.50764 87.7589C11.3135 87.597 12.2427 87.2085 12.2427 83.7117V57.9884H8.10822C4.21328 57.9884 2.68186 59.5586 1.60047 64.0914H0.12085L0.910843 55.5277H30.2783L31.0683 64.0914H29.5822C28.5073 59.5586 26.9775 57.9884 23.089 57.9884H18.9464V83.7117C18.9464 87.2085 19.8821 87.597 23.6702 87.7589V89.0054H7.50764V87.7589ZM46.1446 83.7117C46.1446 87.2085 47.0867 87.597 51.0772 87.7427V89.0054H34.5148V87.7427C38.5182 87.597 39.4474 87.2085 39.4474 83.7117V60.8375C39.4474 57.3408 38.5182 56.9523 34.5148 56.8066V55.5115H51.0772V56.8066C47.0867 56.9523 46.1446 57.3408 46.1446 60.8375V83.7117ZM86.2546 55.5277H97.7889V56.8066C94.5836 56.9523 93.6544 57.3408 93.6544 60.8375V83.7117C93.6544 87.2085 94.5836 87.597 97.7889 87.7589V89.0054H82.7077V87.7589C86.0086 87.597 86.9507 87.2085 86.9507 83.7117V60.1576H86.8487L75.6625 89.4263H74.1327L63.1991 60.1576H63.0987V82.7728C63.0987 86.0267 63.9826 87.3541 67.6315 87.7589V89.0054H55.8074V87.7589C59.4498 87.3541 60.3353 86.0267 60.3353 82.7728V60.0119C60.3353 57.697 59.3543 56.8066 55.8074 56.8066V55.5277H67.9795L76.8961 78.7743L86.2546 55.5277ZM102.545 89.0054V87.7589C105.744 87.597 106.68 87.2085 106.68 83.7117V60.8375C106.68 57.3408 105.744 56.9523 102.545 56.8066V55.5277H130.532L130.728 62.9096H129.356C128.167 59.1701 126.884 57.9884 120.333 57.9884H115.261C113.725 57.9884 113.39 58.3283 113.39 59.7043V70.3077H119.099C124.323 70.3077 125.454 69.3688 126.1 65.8721H127.382V77.6897H126.1C125.404 73.7559 123.437 72.7684 119.099 72.7684H113.39V84.3593C113.39 86.3666 113.977 87.0628 119.891 87.0628C125.898 87.0628 129.451 85.9782 132.308 80.0532H133.587L131.322 89.0054H102.545ZM137.944 78.4829H139.235C140.657 82.9185 144.9 87.5484 149.833 87.5484C154.063 87.5484 155.594 84.6021 155.594 81.9796C155.594 74.2901 138.248 72.8655 138.248 63.3143C138.247 58.6844 142.731 54.7345 147.853 54.7345C152.88 54.7345 154.652 56.499 156.877 56.499C157.813 56.499 158.402 55.7705 158.648 54.7345H159.932V65.3703H158.648C157.269 60.5461 153.824 57.0008 149.283 57.0008C145.545 57.0008 144.154 59.4129 144.154 61.6955C144.154 68.527 161.508 68.7375 161.508 80.5065C161.507 85.7677 157.175 89.8148 151.153 89.8148C145.241 89.8148 143.716 87.7589 141.396 87.7589C140.517 87.7589 139.917 88.3416 139.726 89.4263H137.943L137.944 78.4829Z" fill="url(#paint0_linear_16_145)"/>
<defs>
<linearGradient id="paint0_linear_16_145" x1="145.536" y1="89.8148" x2="145.536" y2="0.681274" gradientUnits="userSpaceOnUse">
<stop stop-color="#A8A8A8"/>
<stop offset="1" stop-color="#EFEFEF"/>
</linearGradient>
</defs>
</svg>
