<svg width="528" height="130" viewBox="0 0 528 130" fill="none" xmlns="http://www.w3.org/2000/svg">
<g clip-path="url(#clip0_16_55)">
<path d="M142.068 78.696C139.668 78.696 137.468 79.896 136.268 81.896C135.068 83.896 135.068 86.496 136.268 88.496C137.468 90.496 139.668 91.796 142.068 91.696C145.668 91.596 148.468 88.696 148.468 85.196C148.568 81.696 145.668 78.796 142.068 78.696Z" fill="url(#paint0_linear_16_55)"/>
<path d="M133.769 95.696C130.669 95.696 128.169 98.196 128.169 101.196C128.169 104.296 130.669 106.796 133.769 106.796C136.869 106.796 139.369 104.296 139.369 101.196C139.369 98.196 136.869 95.696 133.769 95.696Z" fill="url(#paint1_linear_16_55)"/>
<path d="M121.623 118.587C124.273 118.499 126.349 116.28 126.261 113.63C126.172 110.981 123.953 108.905 121.304 108.993C118.654 109.081 116.578 111.3 116.666 113.95C116.755 116.599 118.974 118.675 121.623 118.587Z" fill="url(#paint2_linear_16_55)"/>
<path d="M107.569 117.996C105.369 117.996 103.669 119.696 103.669 121.896C103.669 124.096 105.369 125.796 107.569 125.796C109.769 125.796 111.469 124.096 111.469 121.896C111.469 119.696 109.769 117.996 107.569 117.996Z" fill="url(#paint3_linear_16_55)"/>
<path d="M93.9685 122.696C92.1685 122.696 90.6685 124.196 90.6685 125.996C90.6685 127.796 92.1685 129.296 93.9685 129.296C95.7685 129.296 97.2685 127.796 97.2685 125.996C97.3685 124.196 95.8685 122.696 93.9685 122.696Z" fill="url(#paint4_linear_16_55)"/>
<path d="M81.2685 124.596C79.6685 124.596 78.3685 125.896 78.3685 127.496C78.3685 129.096 79.6685 130.396 81.2685 130.396C82.8685 130.396 84.1685 129.096 84.1685 127.496C84.0685 125.896 82.7685 124.596 81.2685 124.596Z" fill="url(#paint5_linear_16_55)"/>
<path d="M68.4685 122.696C66.6685 122.696 65.1685 124.196 65.1685 125.996C65.1685 127.796 66.6685 129.296 68.4685 129.296C70.2685 129.296 71.7685 127.796 71.7685 125.996C71.7685 124.196 70.2685 122.696 68.4685 122.696Z" fill="url(#paint6_linear_16_55)"/>
<path d="M54.8685 117.896C53.4685 117.896 52.1685 118.596 51.4685 119.796C50.7685 120.996 50.7685 122.496 51.4685 123.696C52.1685 124.896 53.4685 125.596 54.8685 125.596C56.9685 125.596 58.7685 123.896 58.7685 121.696C58.6685 119.696 56.9685 117.996 54.8685 117.896Z" fill="url(#paint7_linear_16_55)"/>
<path d="M40.9684 108.996C39.2684 108.996 37.6684 109.896 36.7684 111.396C35.8684 112.896 35.8684 114.696 36.7684 116.196C37.6684 117.696 39.1684 118.596 40.9684 118.596C43.5684 118.596 45.7684 116.496 45.7684 113.796C45.7684 111.196 43.6684 108.996 40.9684 108.996Z" fill="url(#paint8_linear_16_55)"/>
<path d="M28.6685 95.696C25.5685 95.696 23.0685 98.196 23.0685 101.296C23.0685 104.396 25.5685 106.896 28.6685 106.896C31.7685 106.896 34.2685 104.396 34.2685 101.296C34.1685 98.196 31.7685 95.696 28.6685 95.696Z" fill="url(#paint9_linear_16_55)"/>
<path d="M20.3685 78.6961C17.9685 78.5961 15.7685 79.8961 14.5685 81.8961C13.3685 83.8961 13.3685 86.4961 14.5685 88.4961C15.7685 90.4961 17.9685 91.7961 20.3685 91.6961C23.9685 91.5961 26.7685 88.6961 26.7685 85.1961C26.7685 81.6961 23.8685 78.7961 20.3685 78.6961Z" fill="url(#paint10_linear_16_55)"/>
<path d="M17.3685 57.4961C13.1685 57.4961 9.76849 60.8961 9.76849 65.0961C9.76849 69.2961 13.1685 72.6961 17.3685 72.6961C21.5685 72.6961 24.9685 69.2961 24.9685 65.0961C24.8685 60.8961 21.5685 57.4961 17.3685 57.4961Z" fill="url(#paint11_linear_16_55)"/>
<path d="M20.3685 38.296C17.9685 38.296 15.7685 39.496 14.5685 41.496C13.3685 43.496 13.3685 46.096 14.5685 48.096C15.7685 50.096 17.9685 51.396 20.3685 51.296C23.9685 51.196 26.7685 48.296 26.7685 44.796C26.7685 41.296 23.8685 38.396 20.3685 38.296Z" fill="url(#paint12_linear_16_55)"/>
<path d="M28.6685 23.196C26.6685 23.196 24.7685 24.196 23.7685 25.996C22.7685 27.696 22.7685 29.896 23.7685 31.596C24.7685 33.296 26.6685 34.396 28.6685 34.396C31.6685 34.296 34.1685 31.896 34.1685 28.796C34.0685 25.796 31.6685 23.296 28.6685 23.196Z" fill="url(#paint13_linear_16_55)"/>
<path d="M40.9685 11.396C38.3685 11.396 36.1685 13.496 36.1685 16.196C36.1685 18.796 38.2685 20.996 40.9685 20.996C43.5685 20.996 45.7685 18.896 45.7685 16.196C45.7685 13.596 43.6685 11.396 40.9685 11.396Z" fill="url(#paint14_linear_16_55)"/>
<path d="M54.8684 4.29602C52.7684 4.29602 50.9684 5.99602 50.9684 8.19602C50.9684 10.296 52.6684 12.096 54.8684 12.096C56.9684 12.096 58.7684 10.396 58.7684 8.19602C58.6684 6.09602 56.9684 4.29602 54.8684 4.29602Z" fill="url(#paint15_linear_16_55)"/>
<path d="M68.4685 0.696045C66.5685 0.696045 65.0685 2.19605 65.0685 4.09605C65.0685 5.99604 66.5685 7.49605 68.4685 7.49605C70.2685 7.49605 71.7685 5.99604 71.7685 4.19604C71.6685 2.19604 70.2685 0.696045 68.4685 0.696045Z" fill="url(#paint16_linear_16_55)"/>
<path d="M81.1685 -0.303955C79.5685 -0.303955 78.2685 0.996045 78.2685 2.59605C78.2685 4.19605 79.5685 5.49605 81.1685 5.49605C82.7685 5.49605 84.0685 4.19605 84.0685 2.59605C84.0685 0.996045 82.7685 -0.303955 81.1685 -0.303955Z" fill="url(#paint17_linear_16_55)"/>
<path d="M93.9685 0.696045C92.1685 0.696045 90.6685 2.19605 90.6685 3.99605C90.6685 5.79605 92.1685 7.29604 93.9685 7.29604C95.7685 7.29604 97.2685 5.79605 97.2685 3.99605C97.3685 2.19605 95.8685 0.696045 93.9685 0.696045Z" fill="url(#paint18_linear_16_55)"/>
<path d="M107.568 4.29602C106.168 4.29602 104.868 4.99602 104.168 6.19602C103.468 7.39602 103.468 8.89602 104.168 10.096C104.868 11.296 106.168 11.996 107.568 11.996C109.668 11.996 111.468 10.296 111.468 8.09602C111.468 5.89602 109.768 4.29602 107.568 4.29602Z" fill="url(#paint19_linear_16_55)"/>
<path d="M121.469 11.4961C118.869 11.4961 116.669 13.5961 116.669 16.2961C116.669 18.8961 118.769 21.0961 121.469 21.0961C124.069 21.0961 126.269 18.9961 126.269 16.2961C126.269 13.5961 124.069 11.4961 121.469 11.4961Z" fill="url(#paint20_linear_16_55)"/>
<path d="M133.769 23.196C130.669 23.196 128.169 25.696 128.169 28.796C128.169 31.896 130.669 34.396 133.769 34.396C136.869 34.396 139.369 31.896 139.369 28.796C139.369 25.696 136.869 23.196 133.769 23.196Z" fill="url(#paint21_linear_16_55)"/>
<path d="M142.068 38.296C139.668 38.296 137.468 39.496 136.268 41.496C135.068 43.496 135.068 46.096 136.268 48.096C137.468 50.096 139.668 51.396 142.068 51.296C145.668 51.196 148.468 48.296 148.468 44.796C148.468 41.196 145.668 38.296 142.068 38.296Z" fill="url(#paint22_linear_16_55)"/>
<path d="M112.068 74.9961C110.968 74.9961 109.968 75.4961 109.468 76.3961C108.968 77.2961 108.968 78.4961 109.468 79.3961C109.968 80.2961 110.968 80.8961 112.068 80.7961C113.668 80.6961 114.868 79.3961 114.868 77.8961C114.968 76.3961 113.668 75.0961 112.068 74.9961Z" fill="url(#paint23_linear_16_55)"/>
<path d="M104.769 85.896C103.669 85.896 102.669 86.396 102.169 87.296C101.669 88.196 101.669 89.396 102.169 90.296C102.669 91.196 103.769 91.796 104.769 91.696C106.369 91.596 107.569 90.296 107.569 88.796C107.569 87.296 106.369 85.996 104.769 85.896Z" fill="url(#paint24_linear_16_55)"/>
<path d="M93.8685 92.896C92.7685 92.896 91.6685 93.496 91.0685 94.496C90.4685 95.496 90.4685 96.696 91.0685 97.696C91.6685 98.696 92.6685 99.296 93.8685 99.296C95.6685 99.296 97.0685 97.896 97.0685 96.096C97.0685 94.296 95.6685 92.896 93.8685 92.896Z" fill="url(#paint25_linear_16_55)"/>
<path d="M81.0685 94.796C78.6685 94.796 76.7685 96.696 76.7685 99.096C76.7685 101.496 78.6685 103.396 81.0685 103.396C83.4685 103.396 85.3685 101.496 85.3685 99.096C85.2685 96.696 83.3685 94.796 81.0685 94.796Z" fill="url(#paint26_linear_16_55)"/>
<path d="M68.1685 92.196C65.4685 92.196 63.2685 94.396 63.2685 97.096C63.2685 99.796 65.4685 101.996 68.1685 101.996C70.8685 101.996 73.0685 99.796 73.0685 97.096C73.0685 94.396 70.8685 92.196 68.1685 92.196Z" fill="url(#paint27_linear_16_55)"/>
<path d="M56.5685 83.9961C53.5685 83.9961 51.1685 86.3961 51.1685 89.3961C51.1685 92.3961 53.5685 94.7961 56.5685 94.7961C59.5685 94.7961 61.9685 92.3961 61.9685 89.3961C61.9685 86.3961 59.5685 83.9961 56.5685 83.9961Z" fill="url(#paint28_linear_16_55)"/>
<path d="M48.8685 72.9961C46.3685 72.9961 44.3685 74.9961 44.3685 77.4961C44.3685 79.9961 46.3685 81.9961 48.8685 81.9961C51.3685 81.9961 53.3685 79.9961 53.3685 77.4961C53.4685 75.0961 51.3685 72.9961 48.8685 72.9961Z" fill="url(#paint29_linear_16_55)"/>
<path d="M47.0685 60.9961C45.1685 60.9961 43.5685 62.5961 43.5685 64.4961C43.5685 66.3961 45.1685 67.9961 47.0685 67.9961C48.9685 67.9961 50.5685 66.3961 50.5685 64.4961C50.5685 62.4961 49.0685 60.9961 47.0685 60.9961Z" fill="url(#paint30_linear_16_55)"/>
<path d="M50.1685 49.196C48.5685 49.196 47.2685 50.496 47.2685 52.096C47.2685 53.696 48.5685 54.996 50.1685 54.996C51.7685 54.996 53.0685 53.696 53.0685 52.096C53.1685 50.496 51.7685 49.196 50.1685 49.196Z" fill="url(#paint31_linear_16_55)"/>
<path d="M57.5684 38.396C56.4684 38.396 55.4684 38.896 54.9684 39.796C54.4684 40.696 54.4684 41.896 54.9684 42.796C55.4684 43.696 56.5684 44.296 57.5684 44.196C59.1684 44.196 60.4684 42.896 60.4684 41.296C60.3684 39.696 59.0684 38.396 57.5684 38.396Z" fill="url(#paint32_linear_16_55)"/>
<path d="M68.3685 30.796C66.5685 30.796 65.1685 32.196 65.1685 33.996C65.1685 35.796 66.5685 37.196 68.3685 37.196C70.1685 37.196 71.5685 35.796 71.5685 33.996C71.5685 32.296 70.1685 30.796 68.3685 30.796Z" fill="url(#paint33_linear_16_55)"/>
<path d="M85.546 31.1085C85.6372 28.7353 83.7872 26.7376 81.4141 26.6465C79.0409 26.5553 77.0432 28.4053 76.9521 30.7784C76.8609 33.1516 78.7109 35.1493 81.084 35.2405C83.4572 35.3316 85.4549 33.4816 85.546 31.1085Z" fill="url(#paint34_linear_16_55)"/>
<path d="M94.0685 28.0961C91.3685 28.0961 89.1685 30.2961 89.1685 32.9961C89.1685 35.6961 91.3685 37.8961 94.0685 37.8961C96.7685 37.8961 98.9685 35.6961 98.9685 32.9961C98.9685 30.2961 96.7685 28.0961 94.0685 28.0961Z" fill="url(#paint35_linear_16_55)"/>
<path d="M105.668 35.296C102.668 35.296 100.268 37.696 100.268 40.696C100.268 43.696 102.668 46.096 105.668 46.096C108.668 46.096 111.068 43.696 111.068 40.696C111.068 37.696 108.668 35.296 105.668 35.296Z" fill="url(#paint36_linear_16_55)"/>
<path d="M113.368 47.9961C110.868 47.9961 108.868 49.9961 108.868 52.4961C108.868 54.9961 110.868 56.9961 113.368 56.9961C115.868 56.9961 117.868 54.9961 117.868 52.4961C117.868 49.9961 115.868 47.9961 113.368 47.9961Z" fill="url(#paint37_linear_16_55)"/>
<path d="M101.568 73.296C103.06 73.296 104.268 72.0872 104.268 70.596C104.268 69.1048 103.06 67.896 101.568 67.896C100.077 67.896 98.8685 69.1048 98.8685 70.596C98.8685 72.0872 100.077 73.296 101.568 73.296Z" fill="url(#paint38_linear_16_55)"/>
<path d="M96.2685 76.296C94.0685 76.296 92.2685 78.096 92.2685 80.296C92.2685 82.496 94.0685 84.296 96.2685 84.296C98.4685 84.296 100.268 82.496 100.268 80.296C100.368 78.096 98.5685 76.296 96.2685 76.296Z" fill="url(#paint39_linear_16_55)"/>
<path d="M85.9685 81.696C83.6685 81.696 81.7685 83.596 81.7685 85.896C81.7685 88.196 83.6685 90.096 85.9685 90.096C88.2685 90.096 90.1685 88.196 90.1685 85.896C90.1685 83.596 88.2685 81.696 85.9685 81.696Z" fill="url(#paint40_linear_16_55)"/>
<path d="M73.7685 81.396C72.4685 81.396 71.1685 82.096 70.5685 83.296C69.8685 84.496 69.8685 85.896 70.5685 86.996C71.2685 88.196 72.4685 88.896 73.7685 88.896C75.8685 88.896 77.4685 87.196 77.4685 85.196C77.5685 83.096 75.8685 81.396 73.7685 81.396Z" fill="url(#paint41_linear_16_55)"/>
<path d="M64.7685 75.296C63.2685 75.296 62.0685 76.496 62.0685 77.996C62.0685 79.496 63.2685 80.696 64.7685 80.696C66.2685 80.696 67.4685 79.496 67.4685 77.996C67.5685 76.596 66.2685 75.296 64.7685 75.296Z" fill="url(#paint42_linear_16_55)"/>
<path d="M61.1685 67.396C60.0685 67.396 59.1685 68.296 59.1685 69.396C59.1685 70.496 60.0685 71.396 61.1685 71.396C62.2685 71.396 63.1685 70.496 63.1685 69.396C63.1685 68.296 62.2685 67.396 61.1685 67.396Z" fill="url(#paint43_linear_16_55)"/>
<path d="M60.9685 57.0961C59.4685 57.0961 58.2685 58.2961 58.2685 59.7961C58.2685 61.2961 59.4685 62.4961 60.9685 62.4961C62.4685 62.4961 63.6685 61.2961 63.6685 59.7961C63.6685 58.2961 62.4685 57.0961 60.9685 57.0961Z" fill="url(#paint44_linear_16_55)"/>
<path d="M66.2685 45.9961C64.0685 45.9961 62.2685 47.7961 62.2685 49.9961C62.2685 52.1961 64.0685 53.9961 66.2685 53.9961C68.4685 53.9961 70.2685 52.1961 70.2685 49.9961C70.2685 47.7961 68.4685 45.9961 66.2685 45.9961Z" fill="url(#paint45_linear_16_55)"/>
<path d="M76.5685 40.196C74.2685 40.196 72.3685 42.096 72.3685 44.396C72.3685 46.696 74.2685 48.596 76.5685 48.596C78.8685 48.596 80.7685 46.696 80.7685 44.396C80.7685 42.096 78.8685 40.196 76.5685 40.196Z" fill="url(#paint46_linear_16_55)"/>
<path d="M88.7685 41.4961C87.3685 41.4961 86.1685 42.1961 85.4685 43.2961C84.7685 44.4961 84.7685 45.8961 85.4685 47.0961C86.1685 48.2961 87.4685 48.9961 88.7685 48.8961C90.7685 48.7961 92.3685 47.1961 92.3685 45.1961C92.3685 43.1961 90.7685 41.5961 88.7685 41.4961Z" fill="url(#paint47_linear_16_55)"/>
<path d="M97.6684 49.4961C96.1684 49.4961 94.9684 50.6961 94.9684 52.1961C94.9684 53.6961 96.1684 54.8961 97.6684 54.8961C99.1684 54.8961 100.368 53.6961 100.368 52.1961C100.468 50.6961 99.2684 49.4961 97.6684 49.4961Z" fill="url(#paint48_linear_16_55)"/>
<path d="M101.468 58.9961C100.368 58.9961 99.4684 59.8961 99.4684 60.9961C99.4684 62.0961 100.368 62.9961 101.468 62.9961C102.568 62.9961 103.468 62.0961 103.468 60.9961C103.468 59.8961 102.568 58.9961 101.468 58.9961Z" fill="url(#paint49_linear_16_55)"/>
<path d="M115.169 62.0961C113.269 62.0961 111.669 63.6961 111.669 65.5961C111.669 67.4961 113.269 69.0961 115.169 69.0961C117.069 69.0961 118.669 67.4961 118.669 65.5961C118.669 63.6961 117.069 62.0961 115.169 62.0961Z" fill="url(#paint50_linear_16_55)"/>
<path d="M129.668 66.396C127.568 66.396 125.968 68.096 125.968 70.096C125.968 72.196 127.668 73.796 129.668 73.796C131.768 73.796 133.368 72.096 133.368 70.096C133.368 68.096 131.768 66.396 129.668 66.396Z" fill="url(#paint51_linear_16_55)"/>
<path d="M125.968 79.4961C124.068 79.4961 122.468 81.0961 122.468 82.9961C122.468 84.8961 124.068 86.4961 125.968 86.4961C127.868 86.4961 129.468 84.8961 129.468 82.9961C129.468 81.0961 127.968 79.4961 125.968 79.4961Z" fill="url(#paint52_linear_16_55)"/>
<path d="M119.669 90.4961C118.069 90.4961 116.669 91.7961 116.669 93.4961C116.669 95.0961 117.969 96.4961 119.669 96.4961C121.269 96.4961 122.569 95.0961 122.569 93.4961C122.569 91.8961 121.269 90.5961 119.669 90.4961Z" fill="url(#paint53_linear_16_55)"/>
<path d="M112.068 98.696C111.168 98.696 110.268 99.196 109.768 99.996C109.268 100.796 109.268 101.796 109.768 102.596C110.268 103.396 111.068 103.896 112.068 103.896C113.468 103.896 114.668 102.796 114.668 101.296C114.668 99.896 113.468 98.696 112.068 98.696Z" fill="url(#paint54_linear_16_55)"/>
<path d="M104.068 104.696C102.868 104.696 101.868 105.696 101.868 106.896C101.868 108.096 102.868 109.096 104.068 109.096C105.268 109.096 106.268 108.096 106.268 106.896C106.268 105.696 105.268 104.696 104.068 104.696Z" fill="url(#paint55_linear_16_55)"/>
<path d="M94.9685 108.096C93.5685 108.096 92.3685 109.196 92.3685 110.696C92.3685 112.096 93.4685 113.296 94.9685 113.296C96.3685 113.296 97.5685 112.196 97.5685 110.696C97.4685 109.196 96.3685 108.096 94.9685 108.096Z" fill="url(#paint56_linear_16_55)"/>
<path d="M84.2685 109.796C82.6685 109.796 81.2685 111.096 81.2685 112.796C81.2685 114.396 82.5685 115.796 84.2685 115.796C85.8685 115.796 87.2685 114.496 87.2685 112.796C87.1685 111.096 85.8685 109.796 84.2685 109.796Z" fill="url(#paint57_linear_16_55)"/>
<path d="M72.0685 108.596C69.9685 108.596 68.2685 110.296 68.2685 112.396C68.2685 114.496 69.9685 116.196 72.0685 116.196C74.1685 116.196 75.8685 114.496 75.8685 112.396C75.8685 110.296 74.1685 108.596 72.0685 108.596Z" fill="url(#paint58_linear_16_55)"/>
<path d="M59.1685 103.996C56.6685 103.996 54.6685 105.996 54.6685 108.496C54.6685 110.996 56.6685 112.996 59.1685 112.996C61.6685 112.996 63.6685 110.996 63.6685 108.496C63.7685 105.996 61.6685 103.996 59.1685 103.996Z" fill="url(#paint59_linear_16_55)"/>
<path d="M47.8685 95.396C45.9685 95.396 44.1685 96.396 43.1685 97.996C42.1685 99.696 42.1685 101.696 43.1685 103.396C44.1685 105.096 45.9685 106.096 47.8685 105.996C50.7685 105.896 53.0685 103.596 53.0685 100.696C53.0685 97.896 50.7685 95.496 47.8685 95.396Z" fill="url(#paint60_linear_16_55)"/>
<path d="M38.3685 82.5961C35.1685 82.5961 32.5685 85.1961 32.5685 88.3961C32.5685 91.5961 35.1685 94.1961 38.3685 94.1961C41.5685 94.1961 44.1685 91.5961 44.1685 88.3961C44.1685 85.0961 41.5685 82.5961 38.3685 82.5961Z" fill="url(#paint61_linear_16_55)"/>
<path d="M37.5982 74.0734C37.7783 71.5393 35.87 69.3389 33.3358 69.1589C30.8017 68.9788 28.6013 70.8871 28.4212 73.4213C28.2411 75.9554 30.1495 78.1558 32.6837 78.3359C35.2178 78.5159 37.4181 76.6076 37.5982 74.0734Z" fill="url(#paint62_linear_16_55)"/>
<path d="M36.4193 60.1209C36.5323 58.0805 34.9698 56.3348 32.9294 56.2218C30.889 56.1088 29.1434 57.6713 29.0304 59.7117C28.9174 61.7521 30.4798 63.4977 32.5202 63.6107C34.5606 63.7237 36.3063 62.1613 36.4193 60.1209Z" fill="url(#paint63_linear_16_55)"/>
<path d="M36.4684 43.4961C34.5684 43.4961 32.9684 45.0961 32.9684 46.9961C32.9684 48.8961 34.5684 50.4961 36.4684 50.4961C38.3684 50.4961 39.9684 48.8961 39.9684 46.9961C39.9684 45.0961 38.3684 43.4961 36.4684 43.4961Z" fill="url(#paint64_linear_16_55)"/>
<path d="M42.7685 33.5961C41.6685 33.5961 40.6685 34.0961 40.1685 35.0961C39.6685 35.9961 39.6685 37.1961 40.1685 38.0961C40.6685 38.9961 41.7685 39.5961 42.7685 39.5961C44.3685 39.5961 45.6685 38.1961 45.6685 36.5961C45.6685 34.8961 44.3685 33.5961 42.7685 33.5961Z" fill="url(#paint65_linear_16_55)"/>
<path d="M50.3685 26.196C48.9685 26.196 47.7685 27.296 47.7685 28.796C47.7685 30.196 48.8685 31.396 50.3685 31.396C51.8685 31.396 52.9685 30.296 52.9685 28.796C52.9685 27.396 51.7685 26.196 50.3685 26.196Z" fill="url(#paint66_linear_16_55)"/>
<path d="M58.3685 20.9961C57.1685 20.9961 56.1685 21.9961 56.1685 23.1961C56.1685 24.3961 57.1685 25.3961 58.3685 25.3961C59.5685 25.3961 60.5685 24.3961 60.5685 23.1961C60.5685 21.8961 59.5685 20.9961 58.3685 20.9961Z" fill="url(#paint67_linear_16_55)"/>
<path d="M67.4685 16.896C66.0685 16.896 64.8685 17.996 64.8685 19.496C64.8685 20.896 65.9685 22.096 67.4685 22.096C68.8685 22.096 70.0685 20.996 70.0685 19.496C70.0685 17.996 68.8685 16.896 67.4685 16.896Z" fill="url(#paint68_linear_16_55)"/>
<path d="M78.1685 14.296C77.0685 14.296 76.0685 14.796 75.5685 15.796C75.0685 16.696 75.0685 17.896 75.5685 18.796C76.0685 19.696 77.1685 20.296 78.1685 20.296C79.7685 20.296 81.0685 18.896 81.0685 17.296C81.0685 15.696 79.7685 14.396 78.1685 14.296Z" fill="url(#paint69_linear_16_55)"/>
<path d="M90.3685 13.796C88.9685 13.796 87.6685 14.496 86.9685 15.696C86.2685 16.896 86.2685 18.396 86.9685 19.596C87.6685 20.796 88.9685 21.496 90.3685 21.496C92.4685 21.496 94.1685 19.696 94.1685 17.596C94.1685 15.496 92.4685 13.796 90.3685 13.796Z" fill="url(#paint70_linear_16_55)"/>
<path d="M102.868 16.696C100.368 16.696 98.2685 18.696 98.2685 21.296C98.2685 23.796 100.268 25.896 102.868 25.896C105.368 25.896 107.468 23.896 107.468 21.296C107.468 18.796 105.368 16.696 102.868 16.696Z" fill="url(#paint71_linear_16_55)"/>
<path d="M114.668 23.896C111.668 23.896 109.368 26.296 109.368 29.196C109.368 32.096 111.768 34.496 114.668 34.496C117.668 34.496 119.968 32.096 119.968 29.196C119.968 26.296 117.568 23.896 114.668 23.896Z" fill="url(#paint72_linear_16_55)"/>
<path d="M124.068 35.896C121.968 35.896 120.068 36.996 118.968 38.796C117.868 40.596 117.868 42.796 118.968 44.596C120.068 46.396 121.968 47.496 124.068 47.496C127.268 47.396 129.768 44.896 129.768 41.696C129.668 38.596 127.168 35.996 124.068 35.896Z" fill="url(#paint73_linear_16_55)"/>
<path d="M129.368 51.796C127.768 51.796 126.168 52.596 125.368 53.996C124.568 55.396 124.568 57.196 125.368 58.596C126.168 59.996 127.768 60.896 129.368 60.796C131.868 60.696 133.768 58.696 133.768 56.296C133.768 53.896 131.868 51.896 129.368 51.796Z" fill="url(#paint74_linear_16_55)"/>
<path d="M152.668 64.996C152.668 69.196 149.268 72.596 145.068 72.596C140.868 72.596 137.468 69.196 137.468 64.996C137.468 60.796 140.868 57.396 145.068 57.396C149.268 57.496 152.668 60.896 152.668 64.996Z" fill="url(#paint75_linear_16_55)"/>
<path d="M526.868 76.6961C526.868 69.4961 522.768 65.6961 516.368 63.0961C511.368 61.0961 506.968 59.3961 503.568 57.9961C500.268 56.6961 497.368 54.3961 497.368 51.8961C497.368 48.4961 501.568 46.4961 507.168 46.4961C513.768 46.4961 518.968 47.3961 523.868 47.8961H524.068C524.868 47.8961 525.368 47.2961 525.368 46.4961V40.8961C525.368 40.1961 524.768 39.5961 523.968 39.4961C521.368 38.8961 514.768 37.4961 507.568 37.4961C493.568 37.4961 486.868 43.4961 486.868 51.8961C486.868 57.1961 489.168 62.3961 495.768 65.0961C502.368 67.7961 515.868 70.9961 515.868 76.5961C515.868 80.9961 513.868 83.3961 507.068 83.3961C500.068 83.3961 492.968 82.3961 489.968 81.9961H489.768C488.968 81.9961 488.368 82.5961 488.368 83.3961V88.7961C488.368 89.5961 489.068 90.1961 489.768 90.2961C493.368 91.0961 500.168 92.2961 506.868 92.2961C522.168 92.4961 526.868 84.2961 526.868 76.6961Z" fill="url(#paint76_linear_16_55)"/>
<path d="M378.869 46.8961H363.769V90.2961C363.769 91.0961 363.069 91.7961 362.269 91.7961H354.769C353.969 91.7961 353.269 91.0961 353.269 90.2961V46.8961H338.169C337.369 46.8961 336.669 46.3961 336.669 45.4961V39.4961C336.669 38.6961 337.369 38.0961 338.169 38.0961H378.869C379.669 38.0961 380.369 38.6961 380.369 39.4961V45.4961C380.369 46.3961 379.669 46.8961 378.869 46.8961Z" fill="url(#paint77_linear_16_55)"/>
<path d="M330.068 71.096V39.596C330.068 38.796 329.368 38.196 328.568 38.196H321.068C320.268 38.196 319.568 38.796 319.568 39.596V70.996C319.568 79.596 315.568 83.696 307.468 83.696C299.368 83.696 295.368 79.596 295.368 70.996V39.596C295.368 38.796 294.668 38.196 293.868 38.196H286.368C285.568 38.196 284.868 38.796 284.868 39.596V70.996C284.868 87.096 295.368 92.396 307.468 92.396C319.568 92.396 330.068 87.196 330.068 71.096Z" fill="url(#paint78_linear_16_55)"/>
<path d="M397.768 68.4961H421.968C422.768 68.4961 423.468 67.7961 423.468 66.9961V61.4961C423.468 60.6961 422.768 59.9961 421.968 59.9961H397.768V53.0961C397.768 46.7961 397.968 46.5961 403.768 46.5961H422.868C423.668 46.5961 424.368 45.8961 424.368 45.0961V40.2961C424.368 39.1961 423.968 38.8961 422.868 38.6961C420.468 38.2961 415.568 37.5961 406.568 37.5961C394.068 37.5961 387.368 37.4961 387.368 53.0961V76.9961C387.368 92.5961 394.068 92.4961 406.568 92.4961C415.568 92.4961 420.468 91.7961 422.868 91.3961C423.968 91.2961 424.368 90.8961 424.368 89.7961V84.9961C424.368 84.1961 423.668 83.4961 422.868 83.4961H403.768C398.068 83.4961 397.768 83.2961 397.768 76.9961V68.4961Z" fill="url(#paint79_linear_16_55)"/>
<path d="M248.469 68.4961H272.669C273.469 68.4961 274.169 67.7961 274.169 66.9961V61.4961C274.169 60.6961 273.469 59.9961 272.669 59.9961H248.469V53.0961C248.469 46.7961 248.669 46.5961 254.469 46.5961H273.569C274.369 46.5961 275.069 45.8961 275.069 45.0961V40.2961C275.069 39.1961 274.669 38.8961 273.569 38.6961C271.169 38.2961 266.269 37.5961 257.269 37.5961C244.769 37.5961 238.069 37.4961 238.069 53.0961V76.9961C238.069 92.5961 244.769 92.4961 257.269 92.4961C266.269 92.4961 271.169 91.7961 273.569 91.3961C274.669 91.2961 275.069 90.8961 275.069 89.7961V84.9961C275.069 84.1961 274.369 83.4961 273.569 83.4961H254.469C248.769 83.4961 248.469 83.2961 248.469 76.9961V68.4961Z" fill="url(#paint80_linear_16_55)"/>
<path d="M480.568 90.2961L468.768 70.0961C474.968 67.6961 478.969 63.2961 478.969 55.2961V54.6961C478.969 41.7961 468.268 37.5961 456.568 37.5961C451.068 37.5961 442.568 37.9961 438.668 38.5961C437.168 38.7961 436.268 39.3961 436.268 40.8961V90.3961C436.268 91.1961 436.968 91.8961 437.768 91.8961H445.368C446.168 91.8961 446.768 91.1961 446.768 90.3961V71.6961C448.468 71.7961 454.568 71.9961 456.568 71.9961H458.268L469.168 90.2961C469.568 90.9961 469.868 91.7961 470.668 91.7961H479.868C480.468 91.7961 480.768 91.3961 480.768 90.8961C480.768 90.6961 480.668 90.4961 480.568 90.2961ZM468.469 55.2961C468.469 61.8961 464.269 63.3961 456.469 63.3961C455.169 63.3961 447.868 63.1961 446.668 63.1961V46.8961C447.968 46.6961 454.869 46.5961 456.469 46.5961C464.069 46.5961 468.469 48.9961 468.469 54.6961V55.2961Z" fill="url(#paint81_linear_16_55)"/>
<path d="M229.868 90.2961L217.968 70.0961C224.168 67.6961 228.168 63.2961 228.168 55.2961V54.6961C228.168 41.7961 217.468 37.5961 205.768 37.5961C200.268 37.5961 191.768 37.9961 187.868 38.5961C186.368 38.7961 185.468 39.3961 185.468 40.8961V90.3961C185.468 91.1961 186.168 91.8961 186.968 91.8961H194.568C195.368 91.8961 195.968 91.1961 195.968 90.3961V71.6961C197.668 71.7961 203.768 71.9961 205.768 71.9961H207.468L218.368 90.2961C218.768 90.9961 219.068 91.7961 219.868 91.7961H229.068C229.668 91.7961 229.968 91.3961 229.968 90.8961C229.968 90.6961 229.968 90.4961 229.868 90.2961ZM217.768 55.2961C217.768 61.8961 213.568 63.3961 205.868 63.3961C204.568 63.3961 197.268 63.1961 196.068 63.1961V46.8961C197.368 46.6961 204.268 46.5961 205.868 46.5961C213.468 46.5961 217.768 48.9961 217.768 54.6961V55.2961Z" fill="url(#paint82_linear_16_55)"/>
</g>
<defs>
<linearGradient id="paint0_linear_16_55" x1="141.92" y1="78.696" x2="141.92" y2="91.7014" gradientUnits="userSpaceOnUse">
<stop stop-color="#A8A8A8"/>
<stop offset="1" stop-color="#EFEFEF"/>
</linearGradient>
<linearGradient id="paint1_linear_16_55" x1="133.769" y1="95.696" x2="133.769" y2="106.796" gradientUnits="userSpaceOnUse">
<stop stop-color="#A8A8A8"/>
<stop offset="1" stop-color="#EFEFEF"/>
</linearGradient>
<linearGradient id="paint2_linear_16_55" x1="121.304" y1="108.993" x2="121.623" y2="118.587" gradientUnits="userSpaceOnUse">
<stop stop-color="#A8A8A8"/>
<stop offset="1" stop-color="#EFEFEF"/>
</linearGradient>
<linearGradient id="paint3_linear_16_55" x1="107.569" y1="117.996" x2="107.569" y2="125.796" gradientUnits="userSpaceOnUse">
<stop stop-color="#A8A8A8"/>
<stop offset="1" stop-color="#EFEFEF"/>
</linearGradient>
<linearGradient id="paint4_linear_16_55" x1="93.9709" y1="122.696" x2="93.9709" y2="129.296" gradientUnits="userSpaceOnUse">
<stop stop-color="#A8A8A8"/>
<stop offset="1" stop-color="#EFEFEF"/>
</linearGradient>
<linearGradient id="paint5_linear_16_55" x1="81.2685" y1="124.596" x2="81.2685" y2="130.396" gradientUnits="userSpaceOnUse">
<stop stop-color="#A8A8A8"/>
<stop offset="1" stop-color="#EFEFEF"/>
</linearGradient>
<linearGradient id="paint6_linear_16_55" x1="68.4685" y1="122.696" x2="68.4685" y2="129.296" gradientUnits="userSpaceOnUse">
<stop stop-color="#A8A8A8"/>
<stop offset="1" stop-color="#EFEFEF"/>
</linearGradient>
<linearGradient id="paint7_linear_16_55" x1="54.856" y1="117.896" x2="54.856" y2="125.596" gradientUnits="userSpaceOnUse">
<stop stop-color="#A8A8A8"/>
<stop offset="1" stop-color="#EFEFEF"/>
</linearGradient>
<linearGradient id="paint8_linear_16_55" x1="40.9309" y1="108.996" x2="40.9309" y2="118.596" gradientUnits="userSpaceOnUse">
<stop stop-color="#A8A8A8"/>
<stop offset="1" stop-color="#EFEFEF"/>
</linearGradient>
<linearGradient id="paint9_linear_16_55" x1="28.6685" y1="95.696" x2="28.6685" y2="106.896" gradientUnits="userSpaceOnUse">
<stop stop-color="#A8A8A8"/>
<stop offset="1" stop-color="#EFEFEF"/>
</linearGradient>
<linearGradient id="paint10_linear_16_55" x1="20.2185" y1="78.6907" x2="20.2185" y2="91.7015" gradientUnits="userSpaceOnUse">
<stop stop-color="#A8A8A8"/>
<stop offset="1" stop-color="#EFEFEF"/>
</linearGradient>
<linearGradient id="paint11_linear_16_55" x1="17.3685" y1="57.4961" x2="17.3685" y2="72.6961" gradientUnits="userSpaceOnUse">
<stop stop-color="#A8A8A8"/>
<stop offset="1" stop-color="#EFEFEF"/>
</linearGradient>
<linearGradient id="paint12_linear_16_55" x1="20.2185" y1="38.296" x2="20.2185" y2="51.3014" gradientUnits="userSpaceOnUse">
<stop stop-color="#A8A8A8"/>
<stop offset="1" stop-color="#EFEFEF"/>
</linearGradient>
<linearGradient id="paint13_linear_16_55" x1="28.5935" y1="23.196" x2="28.5935" y2="34.396" gradientUnits="userSpaceOnUse">
<stop stop-color="#A8A8A8"/>
<stop offset="1" stop-color="#EFEFEF"/>
</linearGradient>
<linearGradient id="paint14_linear_16_55" x1="40.9685" y1="11.396" x2="40.9685" y2="20.996" gradientUnits="userSpaceOnUse">
<stop stop-color="#A8A8A8"/>
<stop offset="1" stop-color="#EFEFEF"/>
</linearGradient>
<linearGradient id="paint15_linear_16_55" x1="54.8684" y1="4.29602" x2="54.8684" y2="12.096" gradientUnits="userSpaceOnUse">
<stop stop-color="#A8A8A8"/>
<stop offset="1" stop-color="#EFEFEF"/>
</linearGradient>
<linearGradient id="paint16_linear_16_55" x1="68.4185" y1="0.696045" x2="68.4185" y2="7.49605" gradientUnits="userSpaceOnUse">
<stop stop-color="#A8A8A8"/>
<stop offset="1" stop-color="#EFEFEF"/>
</linearGradient>
<linearGradient id="paint17_linear_16_55" x1="81.1685" y1="-0.303955" x2="81.1685" y2="5.49605" gradientUnits="userSpaceOnUse">
<stop stop-color="#A8A8A8"/>
<stop offset="1" stop-color="#EFEFEF"/>
</linearGradient>
<linearGradient id="paint18_linear_16_55" x1="93.9709" y1="0.696045" x2="93.9709" y2="7.29604" gradientUnits="userSpaceOnUse">
<stop stop-color="#A8A8A8"/>
<stop offset="1" stop-color="#EFEFEF"/>
</linearGradient>
<linearGradient id="paint19_linear_16_55" x1="107.556" y1="4.29602" x2="107.556" y2="11.996" gradientUnits="userSpaceOnUse">
<stop stop-color="#A8A8A8"/>
<stop offset="1" stop-color="#EFEFEF"/>
</linearGradient>
<linearGradient id="paint20_linear_16_55" x1="121.469" y1="11.4961" x2="121.469" y2="21.0961" gradientUnits="userSpaceOnUse">
<stop stop-color="#A8A8A8"/>
<stop offset="1" stop-color="#EFEFEF"/>
</linearGradient>
<linearGradient id="paint21_linear_16_55" x1="133.769" y1="23.196" x2="133.769" y2="34.396" gradientUnits="userSpaceOnUse">
<stop stop-color="#A8A8A8"/>
<stop offset="1" stop-color="#EFEFEF"/>
</linearGradient>
<linearGradient id="paint22_linear_16_55" x1="141.918" y1="38.296" x2="141.918" y2="51.3014" gradientUnits="userSpaceOnUse">
<stop stop-color="#A8A8A8"/>
<stop offset="1" stop-color="#EFEFEF"/>
</linearGradient>
<linearGradient id="paint23_linear_16_55" x1="111.984" y1="74.9961" x2="111.984" y2="80.807" gradientUnits="userSpaceOnUse">
<stop stop-color="#A8A8A8"/>
<stop offset="1" stop-color="#EFEFEF"/>
</linearGradient>
<linearGradient id="paint24_linear_16_55" x1="104.681" y1="85.896" x2="104.681" y2="91.7069" gradientUnits="userSpaceOnUse">
<stop stop-color="#A8A8A8"/>
<stop offset="1" stop-color="#EFEFEF"/>
</linearGradient>
<linearGradient id="paint25_linear_16_55" x1="93.8435" y1="92.896" x2="93.8435" y2="99.296" gradientUnits="userSpaceOnUse">
<stop stop-color="#A8A8A8"/>
<stop offset="1" stop-color="#EFEFEF"/>
</linearGradient>
<linearGradient id="paint26_linear_16_55" x1="81.0685" y1="94.796" x2="81.0685" y2="103.396" gradientUnits="userSpaceOnUse">
<stop stop-color="#A8A8A8"/>
<stop offset="1" stop-color="#EFEFEF"/>
</linearGradient>
<linearGradient id="paint27_linear_16_55" x1="68.1685" y1="92.196" x2="68.1685" y2="101.996" gradientUnits="userSpaceOnUse">
<stop stop-color="#A8A8A8"/>
<stop offset="1" stop-color="#EFEFEF"/>
</linearGradient>
<linearGradient id="paint28_linear_16_55" x1="56.5685" y1="83.9961" x2="56.5685" y2="94.7961" gradientUnits="userSpaceOnUse">
<stop stop-color="#A8A8A8"/>
<stop offset="1" stop-color="#EFEFEF"/>
</linearGradient>
<linearGradient id="paint29_linear_16_55" x1="48.8702" y1="72.9961" x2="48.8702" y2="81.9961" gradientUnits="userSpaceOnUse">
<stop stop-color="#A8A8A8"/>
<stop offset="1" stop-color="#EFEFEF"/>
</linearGradient>
<linearGradient id="paint30_linear_16_55" x1="47.0685" y1="60.9961" x2="47.0685" y2="67.9961" gradientUnits="userSpaceOnUse">
<stop stop-color="#A8A8A8"/>
<stop offset="1" stop-color="#EFEFEF"/>
</linearGradient>
<linearGradient id="paint31_linear_16_55" x1="50.171" y1="49.196" x2="50.171" y2="54.996" gradientUnits="userSpaceOnUse">
<stop stop-color="#A8A8A8"/>
<stop offset="1" stop-color="#EFEFEF"/>
</linearGradient>
<linearGradient id="paint32_linear_16_55" x1="57.5309" y1="38.396" x2="57.5309" y2="44.2069" gradientUnits="userSpaceOnUse">
<stop stop-color="#A8A8A8"/>
<stop offset="1" stop-color="#EFEFEF"/>
</linearGradient>
<linearGradient id="paint33_linear_16_55" x1="68.3685" y1="30.796" x2="68.3685" y2="37.196" gradientUnits="userSpaceOnUse">
<stop stop-color="#A8A8A8"/>
<stop offset="1" stop-color="#EFEFEF"/>
</linearGradient>
<linearGradient id="paint34_linear_16_55" x1="76.9521" y1="30.7784" x2="85.546" y2="31.1085" gradientUnits="userSpaceOnUse">
<stop stop-color="#A8A8A8"/>
<stop offset="1" stop-color="#EFEFEF"/>
</linearGradient>
<linearGradient id="paint35_linear_16_55" x1="94.0685" y1="28.0961" x2="94.0685" y2="37.8961" gradientUnits="userSpaceOnUse">
<stop stop-color="#A8A8A8"/>
<stop offset="1" stop-color="#EFEFEF"/>
</linearGradient>
<linearGradient id="paint36_linear_16_55" x1="105.668" y1="35.296" x2="105.668" y2="46.096" gradientUnits="userSpaceOnUse">
<stop stop-color="#A8A8A8"/>
<stop offset="1" stop-color="#EFEFEF"/>
</linearGradient>
<linearGradient id="paint37_linear_16_55" x1="113.368" y1="47.9961" x2="113.368" y2="56.9961" gradientUnits="userSpaceOnUse">
<stop stop-color="#A8A8A8"/>
<stop offset="1" stop-color="#EFEFEF"/>
</linearGradient>
<linearGradient id="paint38_linear_16_55" x1="101.568" y1="67.896" x2="101.568" y2="73.296" gradientUnits="userSpaceOnUse">
<stop stop-color="#A8A8A8"/>
<stop offset="1" stop-color="#EFEFEF"/>
</linearGradient>
<linearGradient id="paint39_linear_16_55" x1="96.2705" y1="76.296" x2="96.2705" y2="84.296" gradientUnits="userSpaceOnUse">
<stop stop-color="#A8A8A8"/>
<stop offset="1" stop-color="#EFEFEF"/>
</linearGradient>
<linearGradient id="paint40_linear_16_55" x1="85.9685" y1="81.696" x2="85.9685" y2="90.096" gradientUnits="userSpaceOnUse">
<stop stop-color="#A8A8A8"/>
<stop offset="1" stop-color="#EFEFEF"/>
</linearGradient>
<linearGradient id="paint41_linear_16_55" x1="73.7581" y1="81.396" x2="73.7581" y2="88.896" gradientUnits="userSpaceOnUse">
<stop stop-color="#A8A8A8"/>
<stop offset="1" stop-color="#EFEFEF"/>
</linearGradient>
<linearGradient id="paint42_linear_16_55" x1="64.7712" y1="75.296" x2="64.7712" y2="80.696" gradientUnits="userSpaceOnUse">
<stop stop-color="#A8A8A8"/>
<stop offset="1" stop-color="#EFEFEF"/>
</linearGradient>
<linearGradient id="paint43_linear_16_55" x1="61.1685" y1="67.396" x2="61.1685" y2="71.396" gradientUnits="userSpaceOnUse">
<stop stop-color="#A8A8A8"/>
<stop offset="1" stop-color="#EFEFEF"/>
</linearGradient>
<linearGradient id="paint44_linear_16_55" x1="60.9685" y1="57.0961" x2="60.9685" y2="62.4961" gradientUnits="userSpaceOnUse">
<stop stop-color="#A8A8A8"/>
<stop offset="1" stop-color="#EFEFEF"/>
</linearGradient>
<linearGradient id="paint45_linear_16_55" x1="66.2685" y1="45.9961" x2="66.2685" y2="53.9961" gradientUnits="userSpaceOnUse">
<stop stop-color="#A8A8A8"/>
<stop offset="1" stop-color="#EFEFEF"/>
</linearGradient>
<linearGradient id="paint46_linear_16_55" x1="76.5685" y1="40.196" x2="76.5685" y2="48.596" gradientUnits="userSpaceOnUse">
<stop stop-color="#A8A8A8"/>
<stop offset="1" stop-color="#EFEFEF"/>
</linearGradient>
<linearGradient id="paint47_linear_16_55" x1="88.656" y1="41.4961" x2="88.656" y2="48.9055" gradientUnits="userSpaceOnUse">
<stop stop-color="#A8A8A8"/>
<stop offset="1" stop-color="#EFEFEF"/>
</linearGradient>
<linearGradient id="paint48_linear_16_55" x1="97.6714" y1="49.4961" x2="97.6714" y2="54.8961" gradientUnits="userSpaceOnUse">
<stop stop-color="#A8A8A8"/>
<stop offset="1" stop-color="#EFEFEF"/>
</linearGradient>
<linearGradient id="paint49_linear_16_55" x1="101.468" y1="58.9961" x2="101.468" y2="62.9961" gradientUnits="userSpaceOnUse">
<stop stop-color="#A8A8A8"/>
<stop offset="1" stop-color="#EFEFEF"/>
</linearGradient>
<linearGradient id="paint50_linear_16_55" x1="115.169" y1="62.0961" x2="115.169" y2="69.0961" gradientUnits="userSpaceOnUse">
<stop stop-color="#A8A8A8"/>
<stop offset="1" stop-color="#EFEFEF"/>
</linearGradient>
<linearGradient id="paint51_linear_16_55" x1="129.668" y1="66.396" x2="129.668" y2="73.796" gradientUnits="userSpaceOnUse">
<stop stop-color="#A8A8A8"/>
<stop offset="1" stop-color="#EFEFEF"/>
</linearGradient>
<linearGradient id="paint52_linear_16_55" x1="125.968" y1="79.4961" x2="125.968" y2="86.4961" gradientUnits="userSpaceOnUse">
<stop stop-color="#A8A8A8"/>
<stop offset="1" stop-color="#EFEFEF"/>
</linearGradient>
<linearGradient id="paint53_linear_16_55" x1="119.619" y1="90.4961" x2="119.619" y2="96.4961" gradientUnits="userSpaceOnUse">
<stop stop-color="#A8A8A8"/>
<stop offset="1" stop-color="#EFEFEF"/>
</linearGradient>
<linearGradient id="paint54_linear_16_55" x1="112.031" y1="98.696" x2="112.031" y2="103.896" gradientUnits="userSpaceOnUse">
<stop stop-color="#A8A8A8"/>
<stop offset="1" stop-color="#EFEFEF"/>
</linearGradient>
<linearGradient id="paint55_linear_16_55" x1="104.068" y1="104.696" x2="104.068" y2="109.096" gradientUnits="userSpaceOnUse">
<stop stop-color="#A8A8A8"/>
<stop offset="1" stop-color="#EFEFEF"/>
</linearGradient>
<linearGradient id="paint56_linear_16_55" x1="94.9685" y1="108.096" x2="94.9685" y2="113.296" gradientUnits="userSpaceOnUse">
<stop stop-color="#A8A8A8"/>
<stop offset="1" stop-color="#EFEFEF"/>
</linearGradient>
<linearGradient id="paint57_linear_16_55" x1="84.2685" y1="109.796" x2="84.2685" y2="115.796" gradientUnits="userSpaceOnUse">
<stop stop-color="#A8A8A8"/>
<stop offset="1" stop-color="#EFEFEF"/>
</linearGradient>
<linearGradient id="paint58_linear_16_55" x1="72.0685" y1="108.596" x2="72.0685" y2="116.196" gradientUnits="userSpaceOnUse">
<stop stop-color="#A8A8A8"/>
<stop offset="1" stop-color="#EFEFEF"/>
</linearGradient>
<linearGradient id="paint59_linear_16_55" x1="59.1702" y1="103.996" x2="59.1702" y2="112.996" gradientUnits="userSpaceOnUse">
<stop stop-color="#A8A8A8"/>
<stop offset="1" stop-color="#EFEFEF"/>
</linearGradient>
<linearGradient id="paint60_linear_16_55" x1="47.7435" y1="95.396" x2="47.7435" y2="106.003" gradientUnits="userSpaceOnUse">
<stop stop-color="#A8A8A8"/>
<stop offset="1" stop-color="#EFEFEF"/>
</linearGradient>
<linearGradient id="paint61_linear_16_55" x1="38.3685" y1="82.5961" x2="38.3685" y2="94.1961" gradientUnits="userSpaceOnUse">
<stop stop-color="#A8A8A8"/>
<stop offset="1" stop-color="#EFEFEF"/>
</linearGradient>
<linearGradient id="paint62_linear_16_55" x1="28.4212" y1="73.4213" x2="37.5982" y2="74.0734" gradientUnits="userSpaceOnUse">
<stop stop-color="#A8A8A8"/>
<stop offset="1" stop-color="#EFEFEF"/>
</linearGradient>
<linearGradient id="paint63_linear_16_55" x1="29.0304" y1="59.7117" x2="36.4193" y2="60.1209" gradientUnits="userSpaceOnUse">
<stop stop-color="#A8A8A8"/>
<stop offset="1" stop-color="#EFEFEF"/>
</linearGradient>
<linearGradient id="paint64_linear_16_55" x1="36.4684" y1="43.4961" x2="36.4684" y2="50.4961" gradientUnits="userSpaceOnUse">
<stop stop-color="#A8A8A8"/>
<stop offset="1" stop-color="#EFEFEF"/>
</linearGradient>
<linearGradient id="paint65_linear_16_55" x1="42.731" y1="33.5961" x2="42.731" y2="39.5961" gradientUnits="userSpaceOnUse">
<stop stop-color="#A8A8A8"/>
<stop offset="1" stop-color="#EFEFEF"/>
</linearGradient>
<linearGradient id="paint66_linear_16_55" x1="50.3685" y1="26.196" x2="50.3685" y2="31.396" gradientUnits="userSpaceOnUse">
<stop stop-color="#A8A8A8"/>
<stop offset="1" stop-color="#EFEFEF"/>
</linearGradient>
<linearGradient id="paint67_linear_16_55" x1="58.3685" y1="20.9961" x2="58.3685" y2="25.3961" gradientUnits="userSpaceOnUse">
<stop stop-color="#A8A8A8"/>
<stop offset="1" stop-color="#EFEFEF"/>
</linearGradient>
<linearGradient id="paint68_linear_16_55" x1="67.4685" y1="16.896" x2="67.4685" y2="22.096" gradientUnits="userSpaceOnUse">
<stop stop-color="#A8A8A8"/>
<stop offset="1" stop-color="#EFEFEF"/>
</linearGradient>
<linearGradient id="paint69_linear_16_55" x1="78.131" y1="14.296" x2="78.131" y2="20.296" gradientUnits="userSpaceOnUse">
<stop stop-color="#A8A8A8"/>
<stop offset="1" stop-color="#EFEFEF"/>
</linearGradient>
<linearGradient id="paint70_linear_16_55" x1="90.306" y1="13.796" x2="90.306" y2="21.496" gradientUnits="userSpaceOnUse">
<stop stop-color="#A8A8A8"/>
<stop offset="1" stop-color="#EFEFEF"/>
</linearGradient>
<linearGradient id="paint71_linear_16_55" x1="102.868" y1="16.696" x2="102.868" y2="25.896" gradientUnits="userSpaceOnUse">
<stop stop-color="#A8A8A8"/>
<stop offset="1" stop-color="#EFEFEF"/>
</linearGradient>
<linearGradient id="paint72_linear_16_55" x1="114.668" y1="23.896" x2="114.668" y2="34.496" gradientUnits="userSpaceOnUse">
<stop stop-color="#A8A8A8"/>
<stop offset="1" stop-color="#EFEFEF"/>
</linearGradient>
<linearGradient id="paint73_linear_16_55" x1="123.956" y1="35.896" x2="123.956" y2="47.496" gradientUnits="userSpaceOnUse">
<stop stop-color="#A8A8A8"/>
<stop offset="1" stop-color="#EFEFEF"/>
</linearGradient>
<linearGradient id="paint74_linear_16_55" x1="129.268" y1="51.796" x2="129.268" y2="60.8036" gradientUnits="userSpaceOnUse">
<stop stop-color="#A8A8A8"/>
<stop offset="1" stop-color="#EFEFEF"/>
</linearGradient>
<linearGradient id="paint75_linear_16_55" x1="145.068" y1="57.396" x2="145.068" y2="72.596" gradientUnits="userSpaceOnUse">
<stop stop-color="#A8A8A8"/>
<stop offset="1" stop-color="#EFEFEF"/>
</linearGradient>
<linearGradient id="paint76_linear_16_55" x1="506.868" y1="37.4961" x2="506.868" y2="92.2997" gradientUnits="userSpaceOnUse">
<stop stop-color="#A8A8A8"/>
<stop offset="1" stop-color="#EFEFEF"/>
</linearGradient>
<linearGradient id="paint77_linear_16_55" x1="358.519" y1="38.0961" x2="358.519" y2="91.7961" gradientUnits="userSpaceOnUse">
<stop stop-color="#A8A8A8"/>
<stop offset="1" stop-color="#EFEFEF"/>
</linearGradient>
<linearGradient id="paint78_linear_16_55" x1="307.468" y1="38.196" x2="307.468" y2="92.396" gradientUnits="userSpaceOnUse">
<stop stop-color="#A8A8A8"/>
<stop offset="1" stop-color="#EFEFEF"/>
</linearGradient>
<linearGradient id="paint79_linear_16_55" x1="405.868" y1="37.5961" x2="405.868" y2="92.4961" gradientUnits="userSpaceOnUse">
<stop stop-color="#A8A8A8"/>
<stop offset="1" stop-color="#EFEFEF"/>
</linearGradient>
<linearGradient id="paint80_linear_16_55" x1="256.569" y1="37.5961" x2="256.569" y2="92.4961" gradientUnits="userSpaceOnUse">
<stop stop-color="#A8A8A8"/>
<stop offset="1" stop-color="#EFEFEF"/>
</linearGradient>
<linearGradient id="paint81_linear_16_55" x1="458.518" y1="37.5961" x2="458.518" y2="91.8961" gradientUnits="userSpaceOnUse">
<stop stop-color="#A8A8A8"/>
<stop offset="1" stop-color="#EFEFEF"/>
</linearGradient>
<linearGradient id="paint82_linear_16_55" x1="207.718" y1="37.5961" x2="207.718" y2="91.8961" gradientUnits="userSpaceOnUse">
<stop stop-color="#A8A8A8"/>
<stop offset="1" stop-color="#EFEFEF"/>
</linearGradient>
<clipPath id="clip0_16_55">
<rect width="527" height="130" fill="white" transform="translate(0.0448608)"/>
</clipPath>
</defs>
</svg>
