<svg width="102" height="59" viewBox="0 0 102 59" fill="none" xmlns="http://www.w3.org/2000/svg">
<g clip-path="url(#clip0_16_152)">
<path fill-rule="evenodd" clip-rule="evenodd" d="M24.7 10.5C23.1 2.90002 22.6 2.60002 19 2.40002V1.10002H35.1V2.40002C30.7 2.80002 30.6 2.80002 32.2 11.7L37.5 39.8L43.8 9.60003C45.1 3.40003 44.6 2.80002 40.5 2.50002L39.2 2.40002V1.10002H50.7V2.40002C47.2 2.70002 47.2 3.60002 45.8 10.2L35.5 59H34.5L25.7 15.3L16.4 59H15.4L4.9 7.80002C4 3.30002 3.8 2.60002 0 2.40002V1.10002H15.7V2.40002C11.7 2.80002 11.6 3.20002 13.2 11.7L18.6 39.6L24.7 10.5ZM66.6 58.7C60.9 58.7 57.5 53.4 56.2 53.4C54.8 53.4 53.2 56.4 52.7 57.7H51.5V38.9H52.7C56.2 49.2 61.8 57.3 66.4 57.3C69.1 57.3 70.8 54.8 70.8 51.1C70.8 37.5 51.8 28.7 51.8 12C51.8 5.20002 56.6 -0.0999756 61.8 -0.0999756C66.5 -0.0999756 69.1 3.70002 70.6 3.70002C71.4 3.70002 72 3.10002 73 0.700024H73.9V17.5H72.7C70.5 9.40002 66 1.20002 61.6 1.20002C58.9 1.20002 56.9 3.70002 56.9 7.40002C56.9 20.5 75.9 28.8 75.9 46.1C76 53.3 71.6 58.7 66.6 58.7ZM86.3 58.7C80.5 58.7 78.2 55.1 78.2 51.6C78.2 48.1 80.3 44.5 83.5 44.5C86.9 44.5 88.3 47.9 86.7 50.3C85.4 52.4 81.9 52.6 81.9 54.2C81.9 56.7 84 57.3 85.7 57.3C90.7 57.3 90.4 54.2 90.4 43.6V6.10002C90.4 3.10002 89.7 2.40002 86.5 2.40002H85.3V1.10002H102V2.40002H100.6C98.9 2.40002 98.2 3.10002 98.2 6.20002V42.9C98.2 53.2 90.8 58.7 86.3 58.7Z" fill="url(#paint0_linear_16_152)"/>
</g>
<defs>
<linearGradient id="paint0_linear_16_152" x1="51" y1="-0.0999756" x2="51" y2="59" gradientUnits="userSpaceOnUse">
<stop stop-color="#A8A8A8"/>
<stop offset="1" stop-color="#EFEFEF"/>
</linearGradient>
<clipPath id="clip0_16_152">
<rect width="102" height="59" fill="white"/>
</clipPath>
</defs>
</svg>
