<svg width="496" height="173" viewBox="0 0 496 173" fill="none" xmlns="http://www.w3.org/2000/svg">
<rect x="1.5" y="1.75" width="493.009" height="169" rx="26.5" stroke="white" stroke-width="3"/>
<path d="M107.614 71.7765C107.079 72.186 97.6443 77.4367 97.6443 89.112C97.6443 102.616 109.65 107.394 110.009 107.512C109.954 107.803 108.102 114.055 103.679 120.425C99.7359 126.031 95.6173 131.627 89.352 131.627C83.0866 131.627 81.4742 128.033 74.2414 128.033C67.1929 128.033 64.6867 131.745 58.9558 131.745C53.2248 131.745 49.226 126.558 44.6284 120.188C39.3028 112.708 35 101.088 35 90.0584C35 72.368 46.6462 62.9859 58.1081 62.9859C64.1984 62.9859 69.2752 66.9353 73.0989 66.9353C76.7383 66.9353 82.414 62.7493 89.3428 62.7493C91.9687 62.7493 101.404 62.9859 107.614 71.7765ZM86.0534 55.26C88.9189 51.9021 90.9459 47.2429 90.9459 42.5837C90.9459 41.9376 90.8907 41.2824 90.7709 40.7546C86.1087 40.9275 80.562 43.8213 77.2174 47.6524C74.5915 50.6008 72.1407 55.26 72.1407 59.9829C72.1407 60.6927 72.2604 61.4025 72.3157 61.63C72.6106 61.6846 73.0897 61.7483 73.5688 61.7483C77.7518 61.7483 83.0129 58.9819 86.0534 55.26Z" fill="white"/>
<path d="M138.709 59.25C138.467 59.25 138.262 59.1654 138.092 58.9961C137.923 58.8268 137.838 58.6213 137.838 58.3795V34.767C137.838 34.501 137.923 34.2833 138.092 34.1141C138.262 33.9448 138.467 33.8602 138.709 33.8602H147.559C150.001 33.8602 152.008 34.235 153.58 34.9846C155.176 35.7342 156.373 36.8465 157.171 38.3215C157.993 39.7966 158.416 41.598 158.44 43.7259C158.489 44.7899 158.513 45.7329 158.513 46.5551C158.513 47.3772 158.489 48.3082 158.44 49.348C158.392 51.5968 157.981 53.4587 157.207 54.9337C156.433 56.3846 155.261 57.4727 153.689 58.1981C152.141 58.8994 150.158 59.25 147.74 59.25H138.709ZM142.88 55.0788H147.559C148.913 55.0788 150.013 54.8854 150.86 54.4985C151.706 54.1116 152.323 53.495 152.71 52.6486C153.121 51.7781 153.338 50.6416 153.362 49.2392C153.387 48.5137 153.399 47.885 153.399 47.3531C153.423 46.7969 153.423 46.2528 153.399 45.7209C153.399 45.1647 153.387 44.536 153.362 43.8348C153.314 41.8519 152.818 40.389 151.875 39.4459C150.932 38.5029 149.433 38.0314 147.378 38.0314H142.88V55.0788ZM171.249 59.6127C169.314 59.6127 167.682 59.2742 166.352 58.5971C165.046 57.9201 164.043 56.9649 163.342 55.7317C162.664 54.4985 162.278 53.0597 162.181 51.4154C162.157 50.9802 162.145 50.4482 162.145 49.8195C162.145 49.1908 162.157 48.6588 162.181 48.2236C162.278 46.5551 162.677 45.1163 163.378 43.9073C164.103 42.6741 165.119 41.7189 166.425 41.0419C167.755 40.3648 169.363 40.0263 171.249 40.0263C173.135 40.0263 174.731 40.3648 176.036 41.0419C177.366 41.7189 178.382 42.6741 179.083 43.9073C179.809 45.1163 180.22 46.5551 180.316 48.2236C180.341 48.6588 180.353 49.1908 180.353 49.8195C180.353 50.4482 180.341 50.9802 180.316 51.4154C180.22 53.0597 179.821 54.4985 179.119 55.7317C178.442 56.9649 177.439 57.9201 176.109 58.5971C174.803 59.2742 173.183 59.6127 171.249 59.6127ZM171.249 56.0219C172.53 56.0219 173.522 55.6229 174.223 54.8249C174.924 54.0028 175.311 52.8058 175.384 51.2341C175.408 50.8714 175.42 50.3998 175.42 49.8195C175.42 49.2392 175.408 48.7676 175.384 48.4049C175.311 46.8573 174.924 45.6725 174.223 44.8503C173.522 44.0282 172.53 43.6171 171.249 43.6171C169.967 43.6171 168.976 44.0282 168.274 44.8503C167.573 45.6725 167.186 46.8573 167.114 48.4049C167.09 48.7676 167.077 49.2392 167.077 49.8195C167.077 50.3998 167.09 50.8714 167.114 51.2341C167.186 52.8058 167.573 54.0028 168.274 54.8249C168.976 55.6229 169.967 56.0219 171.249 56.0219ZM188.991 59.25C188.652 59.25 188.398 59.1654 188.229 58.9961C188.06 58.8268 187.915 58.6092 187.794 58.3432L182.607 41.5134C182.583 41.3925 182.571 41.2837 182.571 41.187C182.571 40.9693 182.643 40.788 182.788 40.6429C182.958 40.4736 183.139 40.389 183.332 40.389H186.016C186.307 40.389 186.536 40.4736 186.706 40.6429C186.875 40.788 186.972 40.9331 186.996 41.0781L190.55 53.0839L194.323 41.187C194.371 41.0177 194.48 40.8484 194.649 40.6792C194.818 40.4857 195.072 40.389 195.411 40.389H197.224C197.563 40.389 197.817 40.4857 197.986 40.6792C198.155 40.8484 198.264 41.0177 198.312 41.187L202.085 53.0839L205.639 41.0781C205.663 40.9331 205.748 40.788 205.893 40.6429C206.062 40.4736 206.292 40.389 206.582 40.389H209.266C209.484 40.389 209.665 40.4736 209.81 40.6429C209.98 40.788 210.064 40.9693 210.064 41.187C210.064 41.2837 210.04 41.3925 209.992 41.5134L204.805 58.3432C204.732 58.6092 204.599 58.8268 204.406 58.9961C204.237 59.1654 203.983 59.25 203.644 59.25H201.287C200.948 59.25 200.682 59.1654 200.489 58.9961C200.295 58.8268 200.162 58.6092 200.09 58.3432L196.317 46.8815L192.545 58.3432C192.448 58.6092 192.303 58.8268 192.11 58.9961C191.941 59.1654 191.675 59.25 191.312 59.25H188.991ZM214.464 59.25C214.223 59.25 214.017 59.1654 213.848 58.9961C213.678 58.8268 213.594 58.6213 213.594 58.3795V41.2595C213.594 41.0177 213.678 40.8122 213.848 40.6429C214.017 40.4736 214.223 40.389 214.464 40.389H217.439C217.68 40.389 217.886 40.4736 218.055 40.6429C218.224 40.8122 218.309 41.0177 218.309 41.2595V42.7466C218.938 41.9728 219.736 41.332 220.703 40.8242C221.694 40.2923 222.916 40.0263 224.366 40.0263C225.841 40.0263 227.123 40.3648 228.211 41.0419C229.299 41.6948 230.133 42.6257 230.714 43.8348C231.318 45.0438 231.621 46.4946 231.621 48.1873V58.3795C231.621 58.6213 231.536 58.8268 231.367 58.9961C231.197 59.1654 230.992 59.25 230.75 59.25H227.558C227.316 59.25 227.111 59.1654 226.942 58.9961C226.772 58.8268 226.688 58.6213 226.688 58.3795V48.4049C226.688 47.0024 226.337 45.9022 225.636 45.1042C224.959 44.3063 223.967 43.9073 222.662 43.9073C221.404 43.9073 220.401 44.3063 219.651 45.1042C218.902 45.9022 218.527 47.0024 218.527 48.4049V58.3795C218.527 58.6213 218.442 58.8268 218.273 58.9961C218.104 59.1654 217.898 59.25 217.656 59.25H214.464ZM237.135 59.25C236.893 59.25 236.687 59.1654 236.518 58.9961C236.349 58.8268 236.264 58.6213 236.264 58.3795V34.368C236.264 34.1262 236.349 33.9206 236.518 33.7514C236.687 33.5821 236.893 33.4975 237.135 33.4975H240.145C240.387 33.4975 240.593 33.5821 240.762 33.7514C240.931 33.9206 241.016 34.1262 241.016 34.368V58.3795C241.016 58.6213 240.931 58.8268 240.762 58.9961C240.593 59.1654 240.387 59.25 240.145 59.25H237.135ZM254.169 59.6127C252.235 59.6127 250.603 59.2742 249.273 58.5971C247.967 57.9201 246.963 56.9649 246.262 55.7317C245.585 54.4985 245.198 53.0597 245.102 51.4154C245.077 50.9802 245.065 50.4482 245.065 49.8195C245.065 49.1908 245.077 48.6588 245.102 48.2236C245.198 46.5551 245.597 45.1163 246.299 43.9073C247.024 42.6741 248.04 41.7189 249.345 41.0419C250.675 40.3648 252.283 40.0263 254.169 40.0263C256.055 40.0263 257.651 40.3648 258.957 41.0419C260.287 41.7189 261.303 42.6741 262.004 43.9073C262.729 45.1163 263.14 46.5551 263.237 48.2236C263.261 48.6588 263.273 49.1908 263.273 49.8195C263.273 50.4482 263.261 50.9802 263.237 51.4154C263.14 53.0597 262.741 54.4985 262.04 55.7317C261.363 56.9649 260.36 57.9201 259.03 58.5971C257.724 59.2742 256.104 59.6127 254.169 59.6127ZM254.169 56.0219C255.451 56.0219 256.442 55.6229 257.144 54.8249C257.845 54.0028 258.232 52.8058 258.304 51.2341C258.328 50.8714 258.341 50.3998 258.341 49.8195C258.341 49.2392 258.328 48.7676 258.304 48.4049C258.232 46.8573 257.845 45.6725 257.144 44.8503C256.442 44.0282 255.451 43.6171 254.169 43.6171C252.888 43.6171 251.896 44.0282 251.195 44.8503C250.494 45.6725 250.107 46.8573 250.034 48.4049C250.01 48.7676 249.998 49.2392 249.998 49.8195C249.998 50.3998 250.01 50.8714 250.034 51.2341C250.107 52.8058 250.494 54.0028 251.195 54.8249C251.896 55.6229 252.888 56.0219 254.169 56.0219ZM272.769 59.6127C271.512 59.6127 270.375 59.3709 269.36 58.8873C268.344 58.3795 267.534 57.7145 266.929 56.8924C266.349 56.046 266.059 55.103 266.059 54.0632C266.059 52.3706 266.736 51.0285 268.09 50.0371C269.468 49.0215 271.282 48.3445 273.531 48.0059L278.5 47.2805V46.5188C278.5 45.5032 278.246 44.7174 277.738 44.1612C277.23 43.605 276.36 43.327 275.127 43.327C274.256 43.327 273.543 43.5083 272.987 43.871C272.455 44.2096 272.056 44.669 271.79 45.2493C271.596 45.5637 271.318 45.7209 270.956 45.7209H268.09C267.824 45.7209 267.619 45.6483 267.474 45.5032C267.353 45.3581 267.292 45.1647 267.292 44.9229C267.316 44.536 267.474 44.0645 267.764 43.5083C268.054 42.9522 268.513 42.4202 269.142 41.9124C269.771 41.3804 270.581 40.9331 271.572 40.5703C272.564 40.2076 273.761 40.0263 275.163 40.0263C276.686 40.0263 277.968 40.2197 279.008 40.6066C280.072 40.9693 280.918 41.465 281.547 42.0937C282.175 42.7224 282.635 43.4599 282.925 44.3063C283.215 45.1526 283.36 46.0473 283.36 46.9903V58.3795C283.36 58.6213 283.276 58.8268 283.106 58.9961C282.937 59.1654 282.732 59.25 282.49 59.25H279.552C279.286 59.25 279.068 59.1654 278.899 58.9961C278.754 58.8268 278.681 58.6213 278.681 58.3795V56.9649C278.367 57.4244 277.944 57.8596 277.412 58.2707C276.88 58.6576 276.227 58.984 275.453 59.25C274.704 59.4918 273.809 59.6127 272.769 59.6127ZM274.002 56.167C274.849 56.167 275.61 55.9856 276.287 55.6229C276.989 55.2602 277.533 54.704 277.92 53.9544C278.331 53.1806 278.536 52.2134 278.536 51.0527V50.291L274.909 50.8714C273.482 51.089 272.418 51.4396 271.717 51.9232C271.016 52.4068 270.665 52.9993 270.665 53.7005C270.665 54.2325 270.823 54.6919 271.137 55.0788C271.475 55.4415 271.899 55.7196 272.406 55.9131C272.914 56.0823 273.446 56.167 274.002 56.167ZM295.014 59.6127C293.756 59.6127 292.644 59.4072 291.677 58.9961C290.734 58.5608 289.948 57.9563 289.319 57.1825C288.691 56.4088 288.207 55.502 287.868 54.4622C287.53 53.3983 287.336 52.2376 287.288 50.9802C287.264 50.5449 287.252 50.158 287.252 49.8195C287.252 49.4568 287.264 49.0578 287.288 48.6225C287.336 47.4135 287.518 46.2891 287.832 45.2493C288.171 44.2096 288.654 43.3028 289.283 42.529C289.936 41.731 290.734 41.1144 291.677 40.6792C292.644 40.2439 293.756 40.0263 295.014 40.0263C296.32 40.0263 297.42 40.256 298.314 40.7154C299.233 41.1507 299.995 41.7189 300.6 42.4202V34.368C300.6 34.1262 300.672 33.9206 300.817 33.7514C300.986 33.5821 301.204 33.4975 301.47 33.4975H304.553C304.795 33.4975 305 33.5821 305.17 33.7514C305.339 33.9206 305.424 34.1262 305.424 34.368V58.3795C305.424 58.6213 305.339 58.8268 305.17 58.9961C305 59.1654 304.795 59.25 304.553 59.25H301.688C301.422 59.25 301.204 59.1654 301.035 58.9961C300.89 58.8268 300.817 58.6213 300.817 58.3795V57.0375C300.213 57.7871 299.439 58.4037 298.496 58.8873C297.577 59.3709 296.416 59.6127 295.014 59.6127ZM296.356 55.7317C297.371 55.7317 298.181 55.502 298.786 55.0425C299.391 54.5831 299.838 54.0028 300.128 53.3015C300.418 52.5761 300.575 51.8386 300.6 51.089C300.624 50.6537 300.636 50.1943 300.636 49.7107C300.636 49.2029 300.624 48.7314 300.6 48.2961C300.575 47.5707 300.406 46.8815 300.092 46.2286C299.777 45.5516 299.318 44.9954 298.713 44.5602C298.109 44.1249 297.323 43.9073 296.356 43.9073C295.34 43.9073 294.53 44.137 293.926 44.5964C293.345 45.0317 292.922 45.612 292.656 46.3375C292.39 47.0629 292.233 47.8609 292.185 48.7314C292.16 49.4568 292.16 50.1822 292.185 50.9076C292.233 51.7781 292.39 52.5761 292.656 53.3015C292.922 54.027 293.345 54.6194 293.926 55.0788C294.53 55.5141 295.34 55.7317 296.356 55.7317ZM326.889 59.6127C324.954 59.6127 323.322 59.2742 321.992 58.5971C320.686 57.9201 319.683 56.9649 318.982 55.7317C318.305 54.4985 317.918 53.0597 317.821 51.4154C317.797 50.9802 317.785 50.4482 317.785 49.8195C317.785 49.1908 317.797 48.6588 317.821 48.2236C317.918 46.5551 318.317 45.1163 319.018 43.9073C319.743 42.6741 320.759 41.7189 322.065 41.0419C323.395 40.3648 325.003 40.0263 326.889 40.0263C328.775 40.0263 330.371 40.3648 331.677 41.0419C333.007 41.7189 334.022 42.6741 334.723 43.9073C335.449 45.1163 335.86 46.5551 335.957 48.2236C335.981 48.6588 335.993 49.1908 335.993 49.8195C335.993 50.4482 335.981 50.9802 335.957 51.4154C335.86 53.0597 335.461 54.4985 334.76 55.7317C334.083 56.9649 333.079 57.9201 331.749 58.5971C330.443 59.2742 328.823 59.6127 326.889 59.6127ZM326.889 56.0219C328.17 56.0219 329.162 55.6229 329.863 54.8249C330.564 54.0028 330.951 52.8058 331.024 51.2341C331.048 50.8714 331.06 50.3998 331.06 49.8195C331.06 49.2392 331.048 48.7676 331.024 48.4049C330.951 46.8573 330.564 45.6725 329.863 44.8503C329.162 44.0282 328.17 43.6171 326.889 43.6171C325.607 43.6171 324.616 44.0282 323.915 44.8503C323.213 45.6725 322.826 46.8573 322.754 48.4049C322.73 48.7676 322.718 49.2392 322.718 49.8195C322.718 50.3998 322.73 50.8714 322.754 51.2341C322.826 52.8058 323.213 54.0028 323.915 54.8249C324.616 55.6229 325.607 56.0219 326.889 56.0219ZM340.882 59.25C340.64 59.25 340.435 59.1654 340.266 58.9961C340.096 58.8268 340.012 58.6213 340.012 58.3795V41.2595C340.012 41.0177 340.096 40.8122 340.266 40.6429C340.435 40.4736 340.64 40.389 340.882 40.389H343.856C344.098 40.389 344.304 40.4736 344.473 40.6429C344.642 40.8122 344.727 41.0177 344.727 41.2595V42.7466C345.356 41.9728 346.154 41.332 347.121 40.8242C348.112 40.2923 349.333 40.0263 350.784 40.0263C352.259 40.0263 353.541 40.3648 354.629 41.0419C355.717 41.6948 356.551 42.6257 357.132 43.8348C357.736 45.0438 358.038 46.4946 358.038 48.1873V58.3795C358.038 58.6213 357.954 58.8268 357.784 58.9961C357.615 59.1654 357.41 59.25 357.168 59.25H353.976C353.734 59.25 353.529 59.1654 353.359 58.9961C353.19 58.8268 353.105 58.6213 353.105 58.3795V48.4049C353.105 47.0024 352.755 45.9022 352.054 45.1042C351.377 44.3063 350.385 43.9073 349.079 43.9073C347.822 43.9073 346.818 44.3063 346.069 45.1042C345.319 45.9022 344.944 47.0024 344.944 48.4049V58.3795C344.944 58.6213 344.86 58.8268 344.691 58.9961C344.521 59.1654 344.316 59.25 344.074 59.25H340.882ZM378.714 59.25C377.263 59.25 376.042 58.9961 375.051 58.4883C374.059 57.9805 373.322 57.2309 372.838 56.2395C372.355 55.2239 372.113 53.9665 372.113 52.4673V44.2337H369.247C369.006 44.2337 368.8 44.1491 368.631 43.9798C368.461 43.8106 368.377 43.605 368.377 43.3632V41.2595C368.377 41.0177 368.461 40.8122 368.631 40.6429C368.8 40.4736 369.006 40.389 369.247 40.389H372.113V34.368C372.113 34.1262 372.185 33.9206 372.33 33.7514C372.5 33.5821 372.717 33.4975 372.983 33.4975H375.921C376.163 33.4975 376.369 33.5821 376.538 33.7514C376.707 33.9206 376.792 34.1262 376.792 34.368V40.389H381.326C381.567 40.389 381.773 40.4736 381.942 40.6429C382.111 40.8122 382.196 41.0177 382.196 41.2595V43.3632C382.196 43.605 382.111 43.8106 381.942 43.9798C381.773 44.1491 381.567 44.2337 381.326 44.2337H376.792V52.1046C376.792 53.096 376.961 53.8698 377.3 54.4259C377.662 54.9821 378.279 55.2602 379.149 55.2602H381.652C381.894 55.2602 382.099 55.3448 382.269 55.5141C382.438 55.6833 382.523 55.8889 382.523 56.1307V58.3795C382.523 58.6213 382.438 58.8268 382.269 58.9961C382.099 59.1654 381.894 59.25 381.652 59.25H378.714ZM386.647 59.25C386.405 59.25 386.2 59.1654 386.03 58.9961C385.861 58.8268 385.776 58.6213 385.776 58.3795V34.368C385.776 34.1262 385.861 33.9206 386.03 33.7514C386.2 33.5821 386.405 33.4975 386.647 33.4975H389.875C390.141 33.4975 390.347 33.5821 390.492 33.7514C390.661 33.9206 390.746 34.1262 390.746 34.368V42.6378C391.399 41.864 392.196 41.2353 393.14 40.7517C394.083 40.2681 395.243 40.0263 396.622 40.0263C398.097 40.0263 399.378 40.3648 400.466 41.0419C401.579 41.6948 402.437 42.6257 403.042 43.8348C403.646 45.0438 403.948 46.4946 403.948 48.1873V58.3795C403.948 58.6213 403.864 58.8268 403.694 58.9961C403.525 59.1654 403.32 59.25 403.078 59.25H399.813C399.572 59.25 399.366 59.1654 399.197 58.9961C399.028 58.8268 398.943 58.6213 398.943 58.3795V48.4049C398.943 47.0024 398.592 45.9022 397.891 45.1042C397.214 44.3063 396.223 43.9073 394.917 43.9073C393.659 43.9073 392.644 44.3063 391.87 45.1042C391.12 45.9022 390.746 47.0024 390.746 48.4049V58.3795C390.746 58.6213 390.661 58.8268 390.492 58.9961C390.347 59.1654 390.141 59.25 389.875 59.25H386.647ZM416.676 59.6127C413.992 59.6127 411.864 58.8389 410.292 57.2914C408.721 55.7438 407.874 53.5433 407.753 50.69C407.729 50.4482 407.717 50.1459 407.717 49.7832C407.717 49.3963 407.729 49.0941 407.753 48.8764C407.85 47.0629 408.261 45.4911 408.987 44.1612C409.736 42.8312 410.764 41.8157 412.07 41.1144C413.375 40.389 414.911 40.0263 416.676 40.0263C418.635 40.0263 420.279 40.4374 421.609 41.2595C422.939 42.0575 423.942 43.1819 424.619 44.6327C425.297 46.0594 425.635 47.7158 425.635 49.6019V50.3636C425.635 50.6054 425.55 50.8109 425.381 50.9802C425.212 51.1494 424.994 51.2341 424.728 51.2341H412.686C412.686 51.2341 412.686 51.2703 412.686 51.3429C412.686 51.4154 412.686 51.4759 412.686 51.5242C412.71 52.3706 412.868 53.1564 413.158 53.8819C413.472 54.5831 413.92 55.1514 414.5 55.5866C415.104 56.0219 415.818 56.2395 416.64 56.2395C417.317 56.2395 417.885 56.1428 418.345 55.9493C418.804 55.7317 419.179 55.4899 419.469 55.2239C419.759 54.9579 419.965 54.7403 420.086 54.571C420.303 54.2808 420.472 54.1116 420.593 54.0632C420.738 53.9907 420.944 53.9544 421.21 53.9544H424.329C424.571 53.9544 424.765 54.027 424.91 54.172C425.079 54.3171 425.151 54.4985 425.127 54.7161C425.103 55.103 424.898 55.5745 424.511 56.1307C424.148 56.6868 423.616 57.2309 422.915 57.7629C422.214 58.2949 421.331 58.7422 420.267 59.1049C419.227 59.4434 418.03 59.6127 416.676 59.6127ZM412.686 48.1873H420.702V48.0785C420.702 47.1354 420.545 46.3133 420.231 45.612C419.916 44.9108 419.457 44.3546 418.852 43.9436C418.248 43.5325 417.522 43.327 416.676 43.327C415.83 43.327 415.104 43.5325 414.5 43.9436C413.895 44.3546 413.436 44.9108 413.122 45.612C412.831 46.3133 412.686 47.1354 412.686 48.0785V48.1873Z" fill="white"/>
<path d="M137.7 128.25C137.29 128.25 136.905 128.096 136.547 127.789C136.239 127.481 136.085 127.097 136.085 126.636C136.085 126.431 136.137 126.2 136.239 125.944L154.766 76.3599C154.92 75.8474 155.202 75.4118 155.611 75.0531C156.073 74.6431 156.688 74.4381 157.456 74.4381H165.836C166.605 74.4381 167.194 74.6431 167.604 75.0531C168.014 75.4118 168.321 75.8474 168.526 76.3599L187.053 125.944C187.104 126.2 187.13 126.431 187.13 126.636C187.13 127.097 186.976 127.481 186.669 127.789C186.361 128.096 186.002 128.25 185.592 128.25H178.904C178.187 128.25 177.649 128.096 177.29 127.789C176.983 127.43 176.778 127.097 176.675 126.789L173.062 117.411H150.23L146.617 126.789C146.515 127.097 146.284 127.43 145.925 127.789C145.618 128.096 145.105 128.25 144.388 128.25H137.7ZM152.921 108.57H170.371L161.608 84.8161L152.921 108.57ZM189.925 142.856C189.413 142.856 188.977 142.677 188.618 142.318C188.259 141.959 188.08 141.524 188.08 141.011V90.1204C188.08 89.6079 188.259 89.1723 188.618 88.8135C188.977 88.4548 189.413 88.2754 189.925 88.2754H195.998C196.562 88.2754 196.997 88.4548 197.305 88.8135C197.664 89.1723 197.843 89.6079 197.843 90.1204V93.1954C199.073 91.5554 200.687 90.1973 202.686 89.121C204.685 88.0448 207.17 87.5067 210.143 87.5067C212.859 87.5067 215.217 87.9423 217.215 88.8135C219.214 89.6848 220.88 90.9404 222.212 92.5804C223.545 94.1691 224.57 96.0653 225.287 98.2691C226.005 100.473 226.415 102.907 226.517 105.572C226.568 106.443 226.594 107.34 226.594 108.263C226.594 109.185 226.568 110.108 226.517 111.03C226.466 113.593 226.082 115.976 225.364 118.179C224.647 120.332 223.596 122.228 222.212 123.868C220.88 125.457 219.214 126.713 217.215 127.635C215.217 128.557 212.859 129.019 210.143 129.019C207.375 129.019 205.018 128.532 203.071 127.558C201.123 126.533 199.534 125.201 198.304 123.561V141.011C198.304 141.524 198.125 141.959 197.766 142.318C197.459 142.677 197.023 142.856 196.459 142.856H189.925ZM207.299 120.793C209.502 120.793 211.219 120.332 212.449 119.409C213.679 118.436 214.55 117.18 215.063 115.643C215.627 114.105 215.96 112.414 216.062 110.569C216.165 109.031 216.165 107.494 216.062 105.956C215.96 104.112 215.627 102.42 215.063 100.883C214.55 99.3453 213.679 98.1153 212.449 97.1928C211.219 96.2191 209.502 95.7322 207.299 95.7322C205.197 95.7322 203.48 96.2191 202.148 97.1928C200.867 98.1666 199.919 99.4222 199.304 100.96C198.74 102.446 198.407 103.983 198.304 105.572C198.253 106.495 198.227 107.468 198.227 108.493C198.227 109.518 198.253 110.518 198.304 111.491C198.356 113.029 198.714 114.515 199.381 115.95C200.047 117.334 201.021 118.487 202.302 119.409C203.583 120.332 205.249 120.793 207.299 120.793ZM231.764 142.856C231.252 142.856 230.816 142.677 230.458 142.318C230.099 141.959 229.919 141.524 229.919 141.011V90.1204C229.919 89.6079 230.099 89.1723 230.458 88.8135C230.816 88.4548 231.252 88.2754 231.764 88.2754H237.837C238.401 88.2754 238.837 88.4548 239.144 88.8135C239.503 89.1723 239.682 89.6079 239.682 90.1204V93.1954C240.912 91.5554 242.527 90.1973 244.526 89.121C246.524 88.0448 249.01 87.5067 251.982 87.5067C254.699 87.5067 257.056 87.9423 259.055 88.8135C261.053 89.6848 262.719 90.9404 264.052 92.5804C265.384 94.1691 266.409 96.0653 267.127 98.2691C267.844 100.473 268.254 102.907 268.357 105.572C268.408 106.443 268.433 107.34 268.433 108.263C268.433 109.185 268.408 110.108 268.357 111.03C268.305 113.593 267.921 115.976 267.203 118.179C266.486 120.332 265.435 122.228 264.052 123.868C262.719 125.457 261.053 126.713 259.055 127.635C257.056 128.557 254.699 129.019 251.982 129.019C249.215 129.019 246.857 128.532 244.91 127.558C242.962 126.533 241.374 125.201 240.144 123.561V141.011C240.144 141.524 239.964 141.959 239.606 142.318C239.298 142.677 238.862 142.856 238.299 142.856H231.764ZM249.138 120.793C251.342 120.793 253.059 120.332 254.289 119.409C255.519 118.436 256.39 117.18 256.902 115.643C257.466 114.105 257.799 112.414 257.902 110.569C258.004 109.031 258.004 107.494 257.902 105.956C257.799 104.112 257.466 102.42 256.902 100.883C256.39 99.3453 255.519 98.1153 254.289 97.1928C253.059 96.2191 251.342 95.7322 249.138 95.7322C247.037 95.7322 245.32 96.2191 243.987 97.1928C242.706 98.1666 241.758 99.4222 241.143 100.96C240.579 102.446 240.246 103.983 240.144 105.572C240.092 106.495 240.067 107.468 240.067 108.493C240.067 109.518 240.092 110.518 240.144 111.491C240.195 113.029 240.554 114.515 241.22 115.95C241.886 117.334 242.86 118.487 244.141 119.409C245.422 120.332 247.088 120.793 249.138 120.793ZM303.471 129.019C298.704 129.019 294.707 128.327 291.478 126.943C288.301 125.508 285.866 123.663 284.175 121.408C282.535 119.102 281.664 116.693 281.561 114.182C281.561 113.721 281.715 113.336 282.023 113.029C282.33 112.721 282.715 112.568 283.176 112.568H290.018C290.684 112.568 291.171 112.721 291.478 113.029C291.837 113.285 292.144 113.618 292.401 114.028C292.708 115.002 293.298 115.976 294.169 116.949C295.04 117.872 296.219 118.641 297.705 119.256C299.243 119.871 301.164 120.178 303.471 120.178C307.161 120.178 309.902 119.563 311.696 118.333C313.541 117.103 314.464 115.438 314.464 113.336C314.464 111.85 313.977 110.671 313.003 109.8C312.029 108.878 310.517 108.058 308.467 107.34C306.469 106.571 303.804 105.777 300.472 104.957C296.629 104.035 293.4 102.933 290.786 101.652C288.224 100.319 286.276 98.6534 284.944 96.6547C283.663 94.656 283.022 92.1191 283.022 89.0442C283.022 86.0717 283.816 83.4323 285.405 81.1261C287.045 78.8199 289.351 77.0005 292.324 75.6681C295.348 74.3356 298.935 73.6693 303.086 73.6693C306.417 73.6693 309.364 74.1306 311.927 75.0531C314.489 75.9243 316.616 77.103 318.307 78.5893C319.999 80.0243 321.28 81.5874 322.151 83.2786C323.074 84.9186 323.56 86.5329 323.612 88.1217C323.612 88.5317 323.458 88.916 323.15 89.2748C322.894 89.5823 322.51 89.736 321.997 89.736H314.848C314.438 89.736 314.028 89.6335 313.618 89.4285C313.208 89.2235 312.875 88.8392 312.619 88.2754C312.311 86.6867 311.312 85.3286 309.621 84.2011C307.929 83.0736 305.751 82.5099 303.086 82.5099C300.319 82.5099 298.089 83.0224 296.398 84.0473C294.707 85.0723 293.861 86.6611 293.861 88.8135C293.861 90.2485 294.271 91.4529 295.091 92.4266C295.963 93.3491 297.321 94.1691 299.166 94.8866C301.062 95.6041 303.547 96.3728 306.622 97.1928C310.979 98.1666 314.54 99.2941 317.308 100.575C320.075 101.857 322.1 103.497 323.381 105.495C324.662 107.443 325.303 109.928 325.303 112.952C325.303 116.335 324.38 119.23 322.535 121.639C320.742 123.996 318.205 125.816 314.925 127.097C311.645 128.378 307.827 129.019 303.471 129.019ZM345.875 128.25C342.8 128.25 340.211 127.712 338.11 126.636C336.009 125.559 334.446 123.971 333.421 121.869C332.396 119.717 331.883 117.052 331.883 113.875V96.4241H325.81C325.298 96.4241 324.862 96.2447 324.503 95.886C324.145 95.5272 323.965 95.0916 323.965 94.5791V90.1204C323.965 89.6079 324.145 89.1723 324.503 88.8135C324.862 88.4548 325.298 88.2754 325.81 88.2754H331.883V75.5143C331.883 75.0018 332.037 74.5662 332.345 74.2074C332.703 73.8487 333.165 73.6693 333.728 73.6693H339.955C340.468 73.6693 340.903 73.8487 341.262 74.2074C341.621 74.5662 341.8 75.0018 341.8 75.5143V88.2754H351.409C351.922 88.2754 352.358 88.4548 352.716 88.8135C353.075 89.1723 353.254 89.6079 353.254 90.1204V94.5791C353.254 95.0916 353.075 95.5272 352.716 95.886C352.358 96.2447 351.922 96.4241 351.409 96.4241H341.8V113.106C341.8 115.207 342.159 116.847 342.876 118.026C343.645 119.204 344.952 119.794 346.797 119.794H352.101C352.614 119.794 353.049 119.973 353.408 120.332C353.767 120.691 353.946 121.126 353.946 121.639V126.405C353.946 126.918 353.767 127.353 353.408 127.712C353.049 128.071 352.614 128.25 352.101 128.25H345.875ZM373.066 129.019C368.966 129.019 365.506 128.301 362.688 126.866C359.92 125.431 357.793 123.407 356.307 120.793C354.872 118.179 354.052 115.13 353.847 111.645C353.796 110.723 353.77 109.595 353.77 108.263C353.77 106.93 353.796 105.803 353.847 104.88C354.052 101.344 354.898 98.2947 356.384 95.7322C357.922 93.1185 360.074 91.0941 362.841 89.6592C365.66 88.2242 369.068 87.5067 373.066 87.5067C377.063 87.5067 380.446 88.2242 383.213 89.6592C386.032 91.0941 388.184 93.1185 389.671 95.7322C391.208 98.2947 392.079 101.344 392.284 104.88C392.336 105.803 392.361 106.93 392.361 108.263C392.361 109.595 392.336 110.723 392.284 111.645C392.079 115.13 391.234 118.179 389.747 120.793C388.312 123.407 386.186 125.431 383.367 126.866C380.599 128.301 377.166 129.019 373.066 129.019ZM373.066 121.408C375.782 121.408 377.883 120.563 379.369 118.871C380.856 117.129 381.676 114.592 381.829 111.261C381.881 110.492 381.906 109.493 381.906 108.263C381.906 107.033 381.881 106.033 381.829 105.265C381.676 101.985 380.856 99.4734 379.369 97.7309C377.883 95.9885 375.782 95.1172 373.066 95.1172C370.35 95.1172 368.248 95.9885 366.762 97.7309C365.276 99.4734 364.456 101.985 364.302 105.265C364.251 106.033 364.225 107.033 364.225 108.263C364.225 109.493 364.251 110.492 364.302 111.261C364.456 114.592 365.276 117.129 366.762 118.871C368.248 120.563 370.35 121.408 373.066 121.408ZM397.342 128.25C396.83 128.25 396.394 128.071 396.036 127.712C395.677 127.353 395.497 126.918 395.497 126.405V90.1973C395.497 89.6335 395.677 89.1723 396.036 88.8135C396.394 88.4548 396.83 88.2754 397.342 88.2754H403.569C404.082 88.2754 404.517 88.4548 404.876 88.8135C405.286 89.1723 405.491 89.6335 405.491 90.1973V93.3491C406.67 91.7091 408.182 90.4535 410.027 89.5823C411.923 88.711 414.101 88.2754 416.561 88.2754H419.713C420.277 88.2754 420.712 88.4548 421.02 88.8135C421.378 89.1723 421.558 89.6079 421.558 90.1204V95.6553C421.558 96.1678 421.378 96.6035 421.02 96.9622C420.712 97.321 420.277 97.5003 419.713 97.5003H413.717C411.257 97.5003 409.335 98.1922 407.951 99.5759C406.619 100.96 405.952 102.856 405.952 105.265V126.405C405.952 126.918 405.773 127.353 405.414 127.712C405.055 128.071 404.594 128.25 404.03 128.25H397.342ZM438.866 129.019C433.178 129.019 428.668 127.379 425.337 124.099C422.005 120.819 420.212 116.155 419.955 110.108C419.904 109.595 419.879 108.955 419.879 108.186C419.879 107.366 419.904 106.725 419.955 106.264C420.16 102.42 421.032 99.0891 422.569 96.2703C424.158 93.4516 426.336 91.2991 429.103 89.8129C431.871 88.2754 435.125 87.5067 438.866 87.5067C443.018 87.5067 446.503 88.3779 449.321 90.1204C452.14 91.8116 454.267 94.1947 455.702 97.2697C457.137 100.293 457.854 103.804 457.854 107.801V109.416C457.854 109.928 457.675 110.364 457.316 110.723C456.958 111.081 456.496 111.261 455.933 111.261H430.41C430.41 111.261 430.41 111.338 430.41 111.491C430.41 111.645 430.41 111.773 430.41 111.876C430.462 113.67 430.795 115.335 431.41 116.873C432.076 118.359 433.024 119.563 434.254 120.486C435.535 121.408 437.047 121.869 438.79 121.869C440.225 121.869 441.429 121.664 442.403 121.254C443.376 120.793 444.171 120.281 444.786 119.717C445.401 119.153 445.836 118.692 446.093 118.333C446.554 117.718 446.913 117.359 447.169 117.257C447.476 117.103 447.912 117.026 448.476 117.026H455.087C455.599 117.026 456.009 117.18 456.317 117.488C456.676 117.795 456.829 118.179 456.778 118.641C456.727 119.461 456.291 120.46 455.471 121.639C454.703 122.818 453.575 123.971 452.089 125.098C450.603 126.226 448.732 127.174 446.477 127.943C444.273 128.66 441.736 129.019 438.866 129.019ZM430.41 104.803H447.399V104.573C447.399 102.574 447.066 100.832 446.4 99.3453C445.734 97.8591 444.76 96.6803 443.479 95.8091C442.198 94.9379 440.66 94.5022 438.866 94.5022C437.073 94.5022 435.535 94.9379 434.254 95.8091C432.973 96.6803 431.999 97.8591 431.333 99.3453C430.718 100.832 430.41 102.574 430.41 104.573V104.803Z" fill="white"/>
</svg>
