<svg width="854" height="541" viewBox="0 0 854 541" fill="none" xmlns="http://www.w3.org/2000/svg">
<g clip-path="url(#clip0_72_3864)">
<rect x="0.390625" y="0.740234" width="852.709" height="539.593" rx="18.2398" transform="rotate(-0.018695 0.390625 0.740234)" fill="white"/>
<path d="M-443.453 -198.366L79.2634 -406.185L597.596 897.554L74.8794 1105.37L-443.453 -198.366Z" fill="url(#paint0_linear_72_3864)"/>
<path d="M73.7196 76.1698L73.7206 79.085L62.7516 79.0885L62.7619 110.414L59.402 110.415L59.3918 79.0896L48.4228 79.0932L48.4219 76.178L73.7196 76.1698Z" fill="black"/>
<path d="M85.2263 108.085C86.478 108.084 87.565 108.051 88.4873 107.985C89.4425 107.886 90.2495 107.77 90.9083 107.638L90.9053 98.6456C90.5429 98.481 89.9664 98.3165 89.1758 98.1521C88.3852 97.9547 87.2982 97.8562 85.9147 97.8567C85.1241 97.8569 84.3007 97.9231 83.4443 98.0551C82.5879 98.1542 81.7974 98.4015 81.0728 98.797C80.3483 99.1596 79.7555 99.6704 79.2946 100.329C78.8337 100.988 78.6034 101.861 78.6037 102.948C78.604 103.903 78.7525 104.71 79.0492 105.369C79.3788 106.028 79.8237 106.555 80.3838 106.95C80.9768 107.345 81.6687 107.641 82.4593 107.839C83.2828 108.003 84.2052 108.085 85.2263 108.085ZM84.9221 84.2693C86.602 84.2688 88.0185 84.5154 89.1715 85.0091C90.3575 85.4698 91.313 86.1283 92.0379 86.9845C92.7629 87.8078 93.2903 88.7958 93.62 89.9486C93.9498 91.1014 94.1149 92.353 94.1153 93.7036L94.1206 109.811C93.7912 109.91 93.3136 110.025 92.6878 110.157C92.062 110.256 91.3374 110.372 90.5139 110.504C89.6905 110.636 88.7682 110.735 87.7471 110.801C86.7589 110.901 85.7378 110.95 84.6837 110.951C83.3332 110.951 82.0814 110.803 80.9284 110.507C79.8084 110.211 78.82 109.75 77.9634 109.125C77.1397 108.466 76.4806 107.643 75.9862 106.655C75.5247 105.634 75.2937 104.399 75.2933 102.949C75.2928 101.566 75.556 100.38 76.0827 99.3916C76.6094 98.4032 77.3503 97.5959 78.3053 96.9698C79.2604 96.3107 80.3966 95.8327 81.7141 95.5358C83.0316 95.2389 84.4644 95.0902 86.0126 95.0897C86.4738 95.0895 86.9514 95.1223 87.4455 95.188C87.9726 95.2208 88.4667 95.2865 88.9279 95.3852C89.422 95.4509 89.8338 95.5331 90.1632 95.6318C90.5256 95.6976 90.7726 95.7634 90.9044 95.8292L90.9039 94.2481C90.9036 93.3587 90.8374 92.5023 90.7054 91.6789C90.5734 90.8225 90.2767 90.065 89.8153 89.4063C89.3869 88.7147 88.7608 88.1714 87.9372 87.7764C87.1465 87.3485 86.0924 87.1347 84.7748 87.1351C82.8972 87.1357 81.4973 87.268 80.5751 87.5318C79.6528 87.7956 78.9777 88.0099 78.5495 88.1748L78.1039 85.3586C78.6638 85.0949 79.5201 84.8475 80.6729 84.6166C81.8587 84.3856 83.2751 84.2699 84.9221 84.2693Z" fill="black"/>
<path d="M105.523 105.805C105.819 106.036 106.181 106.283 106.61 106.546C107.071 106.809 107.598 107.056 108.191 107.287C108.784 107.517 109.427 107.714 110.118 107.879C110.81 108.01 111.535 108.076 112.292 108.076C113.873 108.075 115.191 107.811 116.245 107.284C117.332 106.724 118.204 105.982 118.863 105.06C119.521 104.104 119.999 103.001 120.295 101.749C120.591 100.464 120.739 99.1135 120.738 97.6971C120.737 94.3372 119.896 91.7682 118.216 89.99C116.535 88.1788 114.311 87.2737 111.544 87.2746C109.963 87.2751 108.679 87.3579 107.691 87.5229C106.735 87.655 106.011 87.8035 105.517 87.9683L105.523 105.805ZM105.527 119.541L102.315 119.542L102.304 85.7459C103.259 85.4162 104.478 85.1029 105.96 84.806C107.443 84.509 109.32 84.3602 111.593 84.3594C113.47 84.3588 115.167 84.6712 116.682 85.2966C118.231 85.889 119.549 86.7614 120.636 87.914C121.756 89.0665 122.613 90.4662 123.207 92.113C123.833 93.7598 124.147 95.6207 124.147 97.696C124.148 99.6394 123.885 101.435 123.359 103.082C122.865 104.696 122.124 106.096 121.136 107.282C120.149 108.436 118.93 109.342 117.481 110.001C116.065 110.66 114.434 110.99 112.59 110.991C110.91 110.991 109.444 110.761 108.192 110.301C106.973 109.807 106.084 109.346 105.524 108.918L105.527 119.541Z" fill="black"/>
<path d="M150.487 110.386C149.531 108.475 148.477 106.549 147.323 104.606C146.203 102.63 144.901 100.621 143.418 98.579C142.957 99.1721 142.364 99.9958 141.64 101.05C140.948 102.104 140.241 103.225 139.516 104.411C138.825 105.597 138.167 106.733 137.541 107.821C136.916 108.908 136.455 109.764 136.158 110.39L127.363 110.393C128.812 107.725 130.491 104.924 132.401 101.992C134.343 99.0596 136.5 95.9461 138.87 92.6514L127.846 76.1521L137.185 76.1491L143.859 86.8194L150.377 76.1448L159.172 76.1419L148.307 92.7471C151.076 96.3366 153.399 99.6628 155.277 102.726C157.156 105.755 158.639 108.308 159.727 110.383L150.487 110.386Z" fill="black"/>
<path d="M172.911 109.281C171.567 109.281 170.314 109.041 169.151 108.56C168.008 108.079 167.005 107.378 166.143 106.456C165.3 105.534 164.628 104.401 164.126 103.058C163.645 101.695 163.404 100.141 163.403 98.3965C163.403 96.6521 163.663 95.1082 164.184 93.7646C164.724 92.401 165.436 91.2579 166.318 90.3353C167.2 89.4127 168.222 88.7207 169.385 88.2591C170.548 87.7775 171.761 87.5365 173.024 87.5361C173.806 87.5359 174.518 87.5858 175.159 87.6858C175.801 87.7859 176.362 87.916 176.844 88.0762C177.325 88.2164 177.736 88.3667 178.077 88.527C178.418 88.6672 178.678 88.7975 178.859 88.9177L178.198 90.6924C177.696 90.3918 177.055 90.1013 176.273 89.8208C175.511 89.5203 174.558 89.3702 173.415 89.3706C172.112 89.371 170.969 89.592 169.987 90.0334C169.025 90.4748 168.213 91.0966 167.551 91.8989C166.89 92.7011 166.389 93.6536 166.049 94.7565C165.728 95.8594 165.568 97.0825 165.569 98.4259C165.569 99.8094 165.73 101.062 166.051 102.185C166.392 103.288 166.884 104.23 167.526 105.012C168.167 105.794 168.95 106.395 169.872 106.816C170.815 107.236 171.887 107.446 173.09 107.446C174.414 107.446 175.516 107.325 176.399 107.084C177.301 106.823 177.982 106.562 178.443 106.301L179.015 108.046C178.875 108.146 178.635 108.266 178.294 108.407C177.953 108.527 177.522 108.658 177.001 108.798C176.479 108.939 175.878 109.049 175.196 109.13C174.515 109.23 173.753 109.28 172.911 109.281Z" fill="black"/>
<path d="M187.357 107.411C188.119 107.411 188.781 107.391 189.342 107.351C189.924 107.29 190.415 107.22 190.816 107.14L190.814 101.666C190.594 101.566 190.243 101.465 189.761 101.365C189.28 101.245 188.619 101.185 187.776 101.186C187.295 101.186 186.794 101.226 186.273 101.306C185.751 101.367 185.27 101.517 184.829 101.758C184.388 101.979 184.027 102.29 183.747 102.691C183.466 103.092 183.326 103.623 183.326 104.285C183.326 104.866 183.417 105.357 183.597 105.758C183.798 106.159 184.069 106.48 184.41 106.721C184.771 106.961 185.192 107.141 185.673 107.262C186.174 107.362 186.736 107.412 187.357 107.411ZM187.172 92.915C188.195 92.9147 189.057 93.0648 189.759 93.3653C190.481 93.6458 191.062 94.0466 191.504 94.5678C191.945 95.0689 192.266 95.6703 192.467 96.372C192.667 97.0737 192.768 97.8355 192.768 98.6576L192.771 108.462C192.571 108.522 192.28 108.593 191.899 108.673C191.518 108.733 191.077 108.804 190.576 108.884C190.075 108.964 189.513 109.025 188.892 109.065C188.29 109.125 187.669 109.156 187.027 109.156C186.205 109.156 185.443 109.066 184.741 108.886C184.06 108.706 183.458 108.425 182.937 108.044C182.435 107.644 182.034 107.142 181.733 106.541C181.452 105.92 181.312 105.168 181.311 104.285C181.311 103.443 181.471 102.721 181.792 102.12C182.112 101.518 182.563 101.027 183.145 100.646C183.726 100.245 184.418 99.9536 185.22 99.7729C186.022 99.5922 186.894 99.5016 187.836 99.5013C188.117 99.5012 188.407 99.5212 188.708 99.5612C189.029 99.5811 189.33 99.6211 189.611 99.6812C189.911 99.7212 190.162 99.7713 190.363 99.8313C190.583 99.8714 190.733 99.9114 190.814 99.9515L190.813 98.9891C190.813 98.4477 190.773 97.9264 190.693 97.4252C190.612 96.9039 190.432 96.4428 190.151 96.0419C189.89 95.6209 189.509 95.2902 189.008 95.0498C188.526 94.7893 187.885 94.6592 187.083 94.6594C185.94 94.6598 185.088 94.7403 184.526 94.9009C183.965 95.0615 183.554 95.1919 183.293 95.2922L183.022 93.578C183.363 93.4175 183.884 93.267 184.586 93.1264C185.308 92.9858 186.17 92.9153 187.172 92.915Z" fill="black"/>
<path d="M203.046 92.97C203.687 92.9698 204.289 93.0197 204.85 93.1198C205.432 93.2198 205.833 93.32 206.053 93.4201L205.663 95.1045C205.503 95.0243 205.172 94.9443 204.67 94.8642C204.189 94.7641 203.548 94.7142 202.746 94.7145C201.903 94.7147 201.222 94.7751 200.701 94.8956C200.199 95.0161 199.868 95.1164 199.708 95.1967L199.713 108.821L197.758 108.821L197.753 93.9943C198.254 93.7736 198.946 93.5528 199.828 93.3319C200.71 93.0911 201.783 92.9704 203.046 92.97Z" fill="black"/>
<path d="M221.367 108.333C220.786 108.533 220.044 108.724 219.142 108.905C218.24 109.085 217.097 109.176 215.714 109.177C214.571 109.177 213.528 108.997 212.585 108.636C211.663 108.256 210.861 107.714 210.179 107.013C209.517 106.311 208.995 105.459 208.614 104.457C208.253 103.455 208.072 102.322 208.072 101.059C208.071 99.8757 208.221 98.7929 208.522 97.8104C208.842 96.8077 209.303 95.9454 209.904 95.2234C210.506 94.5014 211.237 93.9398 212.099 93.5385C212.981 93.1372 213.984 92.9363 215.107 92.936C216.129 92.9356 217.012 93.0857 217.753 93.3862C218.515 93.6667 219.067 93.9372 219.408 94.1978L219.405 85.8368L221.36 85.4752L221.367 108.333ZM219.409 96.0925C219.228 95.9522 218.997 95.8019 218.717 95.6416C218.456 95.4813 218.145 95.331 217.784 95.1908C217.423 95.0505 217.032 94.9404 216.611 94.8603C216.19 94.7602 215.749 94.7102 215.288 94.7104C214.325 94.7107 213.513 94.8814 212.852 95.2225C212.21 95.5635 211.689 96.0248 211.288 96.6064C210.888 97.168 210.597 97.8398 210.417 98.6218C210.237 99.3837 210.147 100.196 210.147 101.058C210.148 103.103 210.659 104.677 211.682 105.779C212.705 106.862 214.059 107.403 215.743 107.402C216.705 107.402 217.477 107.361 218.059 107.281C218.66 107.181 219.111 107.08 219.412 106.98L219.409 96.0925Z" fill="black"/>
<path d="M158.782 61.3575C157.825 61.3831 157.019 60.6597 156.908 59.7036C156.777 58.5787 157.642 57.5948 158.752 57.5892C168.606 57.4423 177.249 64.2859 179.354 73.9029C179.595 74.996 178.824 76.0545 177.718 76.183C176.762 76.294 175.871 75.6565 175.666 74.7112C173.943 66.8265 166.849 61.2091 158.782 61.3575Z" fill="black"/>
<path d="M159.592 68.9112C158.656 68.8679 157.892 68.1777 157.785 67.259C157.653 66.1154 158.531 65.0918 159.667 65.1403C165.34 65.3935 170.247 69.2793 171.783 74.7347C172.099 75.819 171.296 76.9194 170.171 77.05L170.152 77.0522C169.234 77.1589 168.395 76.5628 168.13 75.672C167.01 71.8403 163.579 69.1228 159.592 68.9112Z" fill="black"/>
<path d="M796.957 56.9526C797.463 57.2048 797.892 57.6063 798.172 58.1586C802.837 66.2163 805.584 75.4395 805.641 85.4479C805.697 95.4563 803.055 104.71 798.481 112.82C797.716 114.06 796.451 114.557 795.184 114.313C796.451 114.557 797.715 114.059 798.48 112.82C799.052 111.806 799.593 110.774 800.103 109.726C800.231 109.464 800.356 109.201 800.48 108.936C803.814 101.8 805.688 93.8926 805.64 85.4479C805.592 77.0032 803.629 69.1174 800.214 62.0192C800.088 61.7562 799.96 61.4941 799.829 61.2333C799.308 60.1905 798.754 59.1648 798.171 58.1577C797.891 57.6058 797.462 57.2047 796.957 56.9526ZM794.517 58.1842C795.587 57.6416 796.641 58.01 797.014 58.7453L797.03 58.7774L797.048 58.8085C801.607 66.6827 804.287 75.6859 804.342 85.4552C804.397 95.2144 801.825 104.239 797.364 112.158C796.797 113.058 795.847 113.31 794.883 112.862C794.004 112.289 793.765 111.342 794.219 110.383C798.517 103.043 800.83 94.5395 800.779 85.4754C800.727 76.3879 798.114 67.9193 793.943 60.6542C793.42 59.5937 793.788 58.5539 794.517 58.1842ZM792.858 90.612C792.183 96.5694 790.265 102.13 787.285 107.11C786.63 108.172 785.607 108.69 784.53 108.663C785.606 108.69 786.629 108.171 787.285 107.109C790.145 102.329 792.027 97.0128 792.771 91.3244L792.858 90.612ZM783.442 63.9949C784.493 63.4925 785.517 63.8602 785.883 64.5827L785.907 64.6294L785.934 64.6742C789.696 70.8028 791.788 77.8728 791.832 85.5259C791.875 93.1755 789.865 100.266 786.176 106.434C785.611 107.344 784.655 107.601 783.686 107.15C782.805 106.576 782.567 105.625 783.027 104.663C786.165 99.0871 788.114 92.517 788.075 85.5472C788.036 78.6084 786.219 72.0502 782.805 66.4761C782.343 65.5243 782.572 64.5762 783.442 63.9949ZM777.23 72.328C779.23 76.3412 780.4 80.8989 780.426 85.5904C780.46 91.557 778.759 96.9562 775.898 101.592C775.241 102.522 774.218 103.089 773.141 103.043C774.218 103.089 775.24 102.522 775.897 101.592C778.758 96.9562 780.459 91.557 780.426 85.5904C780.4 81.0792 779.318 76.6913 777.457 72.7925L777.23 72.328ZM772.445 102.927C772.518 102.948 772.591 102.967 772.664 102.982C772.591 102.967 772.518 102.948 772.445 102.927ZM772.016 102.764C772.075 102.792 772.136 102.817 772.196 102.84C772.136 102.817 772.075 102.792 772.016 102.764ZM772.236 69.7546C772.839 69.3189 773.971 69.4724 774.643 70.3719C777.419 74.7733 779.098 80.0952 779.129 85.5977C779.161 91.2881 777.544 96.438 774.815 100.873C774.184 101.743 773.217 101.986 772.383 101.494C771.479 100.832 771.314 99.7035 771.742 99.0967L771.763 99.0673L771.783 99.0359C774.199 95.1618 775.592 90.487 775.564 85.6179C775.537 80.7499 774.092 76.0924 771.633 72.2463C771.1 71.402 771.339 70.4034 772.236 69.7546ZM768.487 86.3796C768.45 88.064 768.228 89.7496 767.564 91.4376C766.805 93.3665 766.044 94.9105 764.898 96.4567C764.361 97.2178 763.516 97.6144 762.64 97.6462C763.516 97.6142 764.36 97.2176 764.897 96.4567C766.043 94.9105 766.804 93.3665 767.563 91.4376C767.61 91.3171 767.655 91.196 767.698 91.0755C768.172 89.7496 768.383 88.4251 768.458 87.1014L768.487 86.3796ZM760.666 97.0577C760.695 97.0786 760.727 97.0961 760.757 97.1158C760.727 97.0963 760.696 97.0793 760.667 97.0587C760.653 97.0489 760.639 97.0377 760.626 97.0277C760.639 97.0375 760.652 97.0481 760.666 97.0577ZM761.297 75.3985C762.141 74.7888 763.23 74.9785 763.723 75.6602L763.731 75.6719L763.741 75.6845C764.832 77.1224 765.727 78.72 766.262 80.2875C766.826 82.1318 767.185 83.9164 767.195 85.6652C767.206 87.5054 767.03 89.2471 766.355 90.962C765.62 92.8297 764.909 94.2613 763.854 95.6842L763.845 95.696L763.836 95.7087C763.351 96.3958 762.264 96.5979 761.414 95.9978C760.733 95.5174 760.528 94.4467 761.107 93.6001C761.972 92.4976 762.599 91.2085 763.011 89.9487C763.44 88.6371 763.639 87.1468 763.631 85.6853C763.623 84.2238 763.407 82.7358 762.963 81.4293C762.537 80.1742 761.895 78.8922 761.018 77.7996C760.429 76.9596 760.622 75.8867 761.297 75.3985ZM792.884 81.144C793.038 82.5798 793.122 84.0388 793.13 85.5186C793.137 86.7516 793.092 87.9708 792.997 89.1747L792.933 89.8948C793.072 88.4577 793.138 86.9981 793.129 85.5186C793.122 84.2857 793.063 83.067 792.954 81.8643L792.884 81.144ZM762.505 73.7354C763.381 73.7573 764.23 74.1453 764.776 74.9004C765.939 76.4335 766.911 78.1601 767.499 79.889C768.05 81.6902 768.432 83.4925 768.487 85.2965L768.493 85.6578C768.482 83.7331 768.086 81.8104 767.498 79.889C766.91 78.1601 765.938 76.4335 764.775 74.9004C764.229 74.1456 763.381 73.7576 762.505 73.7354ZM786.228 63.0338C786.558 63.2761 786.839 63.5959 787.042 63.9951C789.956 68.7423 791.898 74.0368 792.706 79.7162L792.801 80.4286C792.207 75.6691 790.819 71.1726 788.734 67.0324C788.63 66.8254 788.524 66.6193 788.416 66.4141C787.985 65.5931 787.527 64.7864 787.041 63.9951C786.839 63.5961 786.558 63.2761 786.228 63.0338ZM773.678 68.2933C774.471 68.4712 775.22 68.9535 775.717 69.6412C776.178 70.369 776.609 71.1214 777.01 71.8946C776.609 71.1212 776.177 70.3692 775.716 69.6412C775.219 68.9537 774.47 68.4714 773.678 68.2933ZM784.307 62.4724C784.816 62.4543 785.317 62.5493 785.761 62.7572C785.317 62.5492 784.816 62.4545 784.307 62.4724ZM795.742 56.6382C796.086 56.6566 796.42 56.7305 796.732 56.8542C796.42 56.7304 796.086 56.6567 795.742 56.6382Z" fill="black"/>
<path d="M141.535 461.623L141.537 467.942" stroke="black" stroke-width="1.20355" stroke-linecap="round"/>
<path d="M245.043 461.59L245.045 467.909" stroke="black" stroke-width="1.20355" stroke-linecap="round"/>
<g filter="url(#filter0_di_72_3864)">
<path d="M48.9904 462.128C48.9901 461.309 49.1945 460.6 49.6035 460C50.0125 459.386 50.5852 458.908 51.3217 458.567C52.0582 458.226 52.9175 458.055 53.8996 458.055C54.7862 458.054 55.5569 458.211 56.2117 458.524C56.8802 458.838 57.4123 459.288 57.8081 459.874C58.2038 460.461 58.436 461.163 58.5044 461.982L57.0108 461.982C56.9287 461.164 56.6148 460.529 56.069 460.079C55.5233 459.616 54.7934 459.384 53.8795 459.385C52.8565 459.385 52.0313 459.631 51.4041 460.122C50.7768 460.613 50.4633 461.275 50.4635 462.107C50.4637 462.748 50.6549 463.28 51.0369 463.703C51.419 464.112 51.992 464.412 52.7559 464.602L55.2727 465.215C56.4186 465.488 57.2849 465.951 57.8717 466.606C58.4584 467.247 58.7519 468.065 58.7523 469.061C58.7525 469.893 58.5482 470.623 58.1392 471.25C57.7302 471.878 57.1506 472.362 56.4005 472.703C55.6504 473.045 54.7707 473.215 53.7613 473.216C52.8201 473.216 51.9812 473.06 51.2445 472.746C50.5215 472.433 49.9484 471.983 49.5254 471.396C49.116 470.81 48.8771 470.121 48.8086 469.33L50.3227 469.329C50.3638 470.107 50.6982 470.727 51.3258 471.191C51.9534 471.641 52.7651 471.866 53.7608 471.865C54.8384 471.865 55.6909 471.619 56.3181 471.128C56.9591 470.637 57.2794 469.975 57.2791 469.143C57.2789 468.475 57.0878 467.936 56.7057 467.527C56.3373 467.104 55.7575 466.797 54.9663 466.607L52.4904 465.994C51.3445 465.721 50.4714 465.265 49.871 464.624C49.2843 463.969 48.9907 463.137 48.9904 462.128Z" fill="black"/>
<path d="M71.4078 472.965L62.6303 472.967L62.6255 458.318L71.3826 458.315L71.383 459.665L63.1784 459.668L64.0988 458.87L64.1008 464.946L70.7095 464.944L70.71 466.274L64.1013 466.276L64.1033 472.414L63.1823 471.617L71.4074 471.614L71.4078 472.965Z" fill="black"/>
<path d="M81.6011 473.186C80.2371 473.187 79.0367 472.873 77.9998 472.246C76.9766 471.605 76.1715 470.719 75.5846 469.587C75.0113 468.455 74.7245 467.139 74.724 465.639C74.7235 464.138 75.0163 462.822 75.6025 461.689C76.1886 460.544 77.0068 459.657 78.0569 459.029C79.107 458.387 80.314 458.066 81.678 458.066C82.742 458.066 83.7037 458.263 84.5632 458.658C85.4226 459.054 86.1457 459.613 86.7325 460.335C87.3193 461.045 87.7083 461.89 87.8996 462.872L86.3241 462.873C86.01 461.809 85.4369 460.977 84.6046 460.377C83.7724 459.777 82.7765 459.477 81.6171 459.478C80.5532 459.478 79.6121 459.738 78.7938 460.256C77.9892 460.761 77.362 461.477 76.9122 462.405C76.476 463.319 76.2581 464.397 76.2585 465.638C76.2589 466.852 76.4843 467.923 76.9348 468.85C77.3852 469.778 78.0129 470.5 78.8178 471.018C79.6228 471.523 80.5572 471.775 81.6211 471.774C82.7806 471.774 83.7898 471.481 84.649 470.894C85.5081 470.307 86.0944 469.529 86.4078 468.561L87.9833 468.56C87.7653 469.474 87.3496 470.279 86.736 470.975C86.136 471.671 85.3928 472.217 84.5063 472.612C83.6198 472.995 82.6514 473.186 81.6011 473.186Z" fill="black"/>
<path d="M91.656 467.863L91.6529 458.308L93.126 458.308L93.1291 467.801C93.1295 469.084 93.4709 470.066 94.1531 470.747C94.8353 471.429 95.8176 471.77 97.0997 471.769C98.341 471.769 99.3025 471.428 99.9843 470.745C100.666 470.05 101.007 469.067 101.006 467.799L101.003 458.305L102.476 458.305L102.48 467.86C102.48 468.965 102.262 469.919 101.826 470.724C101.403 471.516 100.79 472.13 99.9849 472.566C99.1803 472.99 98.2187 473.201 97.1002 473.202C95.9681 473.202 94.9927 472.991 94.1742 472.568C93.3692 472.146 92.7484 471.532 92.3117 470.728C91.8749 469.923 91.6564 468.968 91.656 467.863Z" fill="black"/>
<path d="M108.647 472.952L107.174 472.953L107.169 458.303L112.632 458.301C114.105 458.301 115.265 458.683 116.111 459.446C116.97 460.196 117.4 461.226 117.401 462.535C117.401 463.585 117.135 464.465 116.604 465.175C116.086 465.884 115.356 466.369 114.415 466.628L117.547 472.949L115.911 472.95L112.921 466.874L108.645 466.876L108.647 472.952ZM108.643 459.633L108.645 465.546L112.675 465.544C113.685 465.544 114.469 465.278 115.028 464.746C115.601 464.214 115.887 463.49 115.887 462.577C115.886 461.622 115.593 460.892 115.006 460.388C114.42 459.883 113.628 459.631 112.633 459.631L108.643 459.633Z" fill="black"/>
<path d="M130.267 472.945L121.489 472.948L121.484 458.299L130.241 458.296L130.242 459.646L122.037 459.649L122.958 458.85L122.96 464.927L129.568 464.925L129.569 466.255L122.96 466.257L122.962 472.395L122.041 471.598L130.266 471.595L130.267 472.945Z" fill="black"/>
<path d="M154.593 458.288L154.598 472.937L153.125 472.938L153.12 458.288L154.593 458.288ZM158.709 467.555L154.29 467.556L154.289 466.226L158.422 466.225C159.486 466.225 160.311 465.918 160.897 465.304C161.484 464.676 161.777 463.864 161.776 462.869C161.776 461.859 161.483 461.068 160.896 460.495C160.309 459.909 159.511 459.616 158.502 459.616L153.653 459.618L153.652 458.288L158.706 458.286C159.647 458.286 160.459 458.477 161.141 458.858C161.837 459.24 162.369 459.779 162.737 460.474C163.12 461.17 163.311 461.975 163.311 462.888C163.311 463.775 163.121 464.573 162.739 465.283C162.371 465.992 161.839 466.551 161.144 466.961C160.462 467.357 159.65 467.555 158.709 467.555Z" fill="black"/>
<path d="M168.394 472.933L166.921 472.933L166.916 458.284L172.379 458.282C173.852 458.281 175.011 458.663 175.857 459.427C176.717 460.177 177.147 461.206 177.147 462.516C177.148 463.566 176.882 464.446 176.35 465.155C175.832 465.865 175.103 466.349 174.162 466.609L177.294 472.93L175.657 472.931L172.668 466.855L168.392 466.856L168.394 472.933ZM168.389 459.613L168.391 465.526L172.422 465.525C173.431 465.525 174.216 465.258 174.775 464.726C175.347 464.194 175.634 463.471 175.633 462.557C175.633 461.602 175.34 460.873 174.753 460.368C174.166 459.864 173.375 459.612 172.379 459.612L168.389 459.613Z" fill="black"/>
<path d="M182.704 458.279L182.709 472.928L181.236 472.929L181.231 458.279L182.704 458.279Z" fill="black"/>
<path d="M191.529 472.925L185.918 458.278L187.494 458.277L191.405 468.465C191.555 468.861 191.705 469.27 191.855 469.692C192.006 470.102 192.163 470.565 192.327 471.084C192.476 470.552 192.633 470.047 192.797 469.569C192.974 469.092 193.117 468.717 193.226 468.444L197.11 458.274L198.624 458.273L193.064 472.925L191.529 472.925Z" fill="black"/>
<path d="M199.955 472.923L198.462 472.923L203.838 458.272L205.659 458.271L211.106 472.919L209.572 472.919L208.138 469.032L201.386 469.035L199.955 472.923ZM204.555 460.338L201.836 467.745L207.667 467.744L204.923 460.338C204.896 460.229 204.862 460.12 204.821 460.01C204.78 459.901 204.752 459.813 204.739 459.745C204.725 459.813 204.698 459.908 204.657 460.031C204.63 460.14 204.596 460.242 204.555 460.338Z" fill="black"/>
<path d="M217.467 458.922L217.471 472.917L215.998 472.917L215.994 458.922L217.467 458.922ZM211.493 459.62L211.492 458.269L221.988 458.266L221.989 459.616L211.493 459.62Z" fill="black"/>
<path d="M234.026 472.911L225.249 472.914L225.244 458.265L234.001 458.262L234.001 459.612L225.797 459.615L226.717 458.817L226.719 464.893L233.328 464.891L233.328 466.221L226.72 466.223L226.722 472.361L225.801 471.564L234.026 471.561L234.026 472.911Z" fill="black"/>
<path d="M257.921 458.254L257.926 472.904L256.452 472.904L256.448 458.254L257.921 458.254ZM256.698 472.904L256.697 471.554L264.657 471.551L264.657 472.901L256.698 472.904Z" fill="black"/>
<path d="M269.558 458.25L269.563 472.9L268.09 472.9L268.085 458.251L269.558 458.25Z" fill="black"/>
<path d="M275.805 472.898L274.353 472.898L274.348 458.249L275.801 458.248L281.145 471.157L286.481 458.245L287.954 458.244L287.959 472.894L286.506 472.894L286.504 465.938C286.504 465.297 286.504 464.737 286.503 464.26C286.517 463.783 286.524 463.367 286.523 463.012C286.537 462.657 286.551 462.343 286.564 462.071C286.578 461.784 286.598 461.511 286.625 461.252L281.862 472.896L280.45 472.896L275.679 461.317C275.72 461.59 275.747 462.115 275.761 462.893C275.789 463.656 275.803 464.598 275.803 465.716L275.805 472.898Z" fill="black"/>
<path d="M294.212 458.242L294.217 472.892L292.744 472.892L292.739 458.243L294.212 458.242Z" fill="black"/>
<path d="M303.442 458.894L303.447 472.889L301.974 472.889L301.969 458.894L303.442 458.894ZM297.468 459.591L297.467 458.241L307.964 458.238L307.964 459.588L297.468 459.591Z" fill="black"/>
<path d="M312.692 458.236L312.697 472.886L311.224 472.886L311.219 458.237L312.692 458.236ZM311.469 472.886L311.469 471.536L319.428 471.533L319.428 472.884L311.469 472.886Z" fill="black"/>
<path d="M331.639 472.88L322.861 472.882L322.857 458.233L331.614 458.23L331.614 459.58L323.41 459.583L324.33 458.785L324.332 464.861L330.941 464.859L330.941 466.189L324.332 466.191L324.334 472.329L323.413 471.532L331.639 471.529L331.639 472.88Z" fill="black"/>
<path d="M334.974 462.034C334.974 461.216 335.179 460.507 335.588 459.906C335.997 459.292 336.569 458.815 337.306 458.474C338.042 458.132 338.902 457.962 339.884 457.961C340.77 457.961 341.541 458.118 342.196 458.431C342.864 458.745 343.396 459.195 343.792 459.781C344.188 460.367 344.42 461.07 344.489 461.888L342.995 461.889C342.913 461.07 342.599 460.436 342.053 459.986C341.507 459.522 340.778 459.291 339.864 459.291C338.841 459.291 338.015 459.537 337.388 460.029C336.761 460.52 336.447 461.181 336.448 462.013C336.448 462.655 336.639 463.186 337.021 463.609C337.403 464.018 337.976 464.318 338.74 464.509L341.257 465.122C342.403 465.394 343.269 465.858 343.856 466.512C344.442 467.153 344.736 467.972 344.736 468.967C344.737 469.799 344.532 470.529 344.123 471.157C343.714 471.784 343.135 472.269 342.385 472.61C341.635 472.951 340.755 473.122 339.745 473.122C338.804 473.123 337.965 472.966 337.229 472.653C336.506 472.339 335.933 471.889 335.509 471.303C335.1 470.716 334.861 470.028 334.793 469.237L336.307 469.236C336.348 470.014 336.682 470.634 337.31 471.098C337.938 471.548 338.749 471.772 339.745 471.772C340.823 471.772 341.675 471.526 342.302 471.035C342.943 470.543 343.264 469.882 343.263 469.05C343.263 468.381 343.072 467.843 342.69 467.433C342.321 467.011 341.742 466.704 340.95 466.513L338.474 465.9C337.329 465.628 336.455 465.171 335.855 464.53C335.268 463.876 334.975 463.044 334.974 462.034Z" fill="black"/>
<path d="M347.771 462.03C347.771 461.212 347.975 460.502 348.384 459.902C348.793 459.288 349.366 458.811 350.102 458.469C350.839 458.128 351.698 457.957 352.68 457.957C353.567 457.957 354.338 458.113 354.992 458.427C355.661 458.74 356.193 459.19 356.589 459.777C356.984 460.363 357.217 461.066 357.285 461.884L355.791 461.884C355.709 461.066 355.395 460.432 354.85 459.982C354.304 459.518 353.574 459.287 352.66 459.287C351.637 459.287 350.812 459.533 350.185 460.024C349.557 460.516 349.244 461.177 349.244 462.009C349.244 462.65 349.436 463.182 349.818 463.605C350.2 464.014 350.773 464.314 351.537 464.505L354.053 465.118C355.199 465.39 356.066 465.854 356.652 466.508C357.239 467.149 357.533 467.967 357.533 468.963C357.533 469.795 357.329 470.525 356.92 471.153C356.511 471.78 355.931 472.265 355.181 472.606C354.431 472.947 353.551 473.118 352.542 473.118C351.601 473.119 350.762 472.962 350.025 472.648C349.302 472.335 348.729 471.885 348.306 471.299C347.897 470.712 347.658 470.023 347.589 469.232L349.103 469.232C349.144 470.009 349.479 470.63 350.106 471.093C350.734 471.543 351.546 471.768 352.541 471.768C353.619 471.767 354.471 471.522 355.099 471.03C355.74 470.539 356.06 469.878 356.06 469.045C356.06 468.377 355.868 467.838 355.486 467.429C355.118 467.007 354.538 466.7 353.747 466.509L351.271 465.896C350.125 465.624 349.252 465.167 348.652 464.526C348.065 463.872 347.771 463.04 347.771 462.03Z" fill="black"/>
</g>
</g>
<rect x="1.15086" y="1.49998" width="851.189" height="538.073" rx="17.4798" transform="rotate(-0.018695 1.15086 1.49998)" stroke="url(#paint1_linear_72_3864)" stroke-width="1.51998"/>
<defs>
<filter id="filter0_di_72_3864" x="43.9944" y="454.346" width="318.351" height="24.8872" filterUnits="userSpaceOnUse" color-interpolation-filters="sRGB">
<feFlood flood-opacity="0" result="BackgroundImageFix"/>
<feColorMatrix in="SourceAlpha" type="matrix" values="0 0 0 0 0 0 0 0 0 0 0 0 0 0 0 0 0 0 127 0" result="hardAlpha"/>
<feOffset dy="1.20355"/>
<feGaussianBlur stdDeviation="2.4071"/>
<feComposite in2="hardAlpha" operator="out"/>
<feColorMatrix type="matrix" values="0 0 0 0 0.154167 0 0 0 0 0.154167 0 0 0 0 0.154167 0 0 0 0.58 0"/>
<feBlend mode="normal" in2="BackgroundImageFix" result="effect1_dropShadow_72_3864"/>
<feBlend mode="normal" in="SourceGraphic" in2="effect1_dropShadow_72_3864" result="shape"/>
<feColorMatrix in="SourceAlpha" type="matrix" values="0 0 0 0 0 0 0 0 0 0 0 0 0 0 0 0 0 0 127 0" result="hardAlpha"/>
<feOffset dy="-1.20355"/>
<feGaussianBlur stdDeviation="0.601776"/>
<feComposite in2="hardAlpha" operator="arithmetic" k2="-1" k3="1"/>
<feColorMatrix type="matrix" values="0 0 0 0 0.208333 0 0 0 0 0.208333 0 0 0 0 0.208333 0 0 0 0.22 0"/>
<feBlend mode="normal" in2="shape" result="effect2_innerShadow_72_3864"/>
</filter>
<linearGradient id="paint0_linear_72_3864" x1="191.732" y1="-23.5129" x2="-498.083" y2="410.925" gradientUnits="userSpaceOnUse">
<stop stop-color="#E4E4E4"/>
<stop offset="0.742198" stop-color="white"/>
</linearGradient>
<linearGradient id="paint1_linear_72_3864" x1="0.39061" y1="-46.3337" x2="702.15" y2="398.452" gradientUnits="userSpaceOnUse">
<stop stop-color="#E6E6E6"/>
<stop offset="1" stop-color="white"/>
</linearGradient>
<clipPath id="clip0_72_3864">
<rect x="0.390625" y="0.740234" width="852.709" height="539.593" rx="18.2398" transform="rotate(-0.018695 0.390625 0.740234)" fill="white"/>
</clipPath>
</defs>
</svg>
