<svg width="55" height="55" viewBox="0 0 55 55" fill="none" xmlns="http://www.w3.org/2000/svg">
<path d="M27.1627 53.2313C41.5456 53.2313 53.4172 41.3597 53.4172 27.0022C53.4172 12.6447 41.5202 0.773071 27.1373 0.773071C12.7798 0.773071 0.933594 12.6447 0.933594 27.0022C0.933594 41.3597 12.8052 53.2313 27.1627 53.2313ZM27.1627 48.0058C15.5194 48.0058 6.20986 38.6455 6.20986 27.0022C6.20986 15.3589 15.5194 6.02397 27.1373 6.02397C38.7806 6.02397 48.1409 15.3589 48.1663 27.0022C48.1917 38.6455 38.806 48.0058 27.1627 48.0058ZM14.3779 30.1984H27.1373C28.3042 30.1984 29.192 29.3105 29.192 28.169V11.5793C29.192 10.4378 28.3042 9.54993 27.1373 9.54993C26.0212 9.54993 25.1334 10.4378 25.1334 11.5793V26.1397H14.3779C13.2364 26.1397 12.3486 27.0275 12.3486 28.169C12.3486 29.3105 13.2364 30.1984 14.3779 30.1984Z" fill="url(#paint0_linear_125_243)"/>
<defs>
<linearGradient id="paint0_linear_125_243" x1="0.933594" y1="27.0022" x2="53.4172" y2="27.0022" gradientUnits="userSpaceOnUse">
<stop stop-color="#EDF5FF"/>
<stop offset="1" stop-color="#6FA3FF"/>
</linearGradient>
</defs>
</svg>
