<svg width="513" height="173" viewBox="0 0 513 173" fill="none" xmlns="http://www.w3.org/2000/svg">
<rect x="1.5" y="1.75" width="509.028" height="169" rx="26.5" stroke="white" stroke-width="3"/>
<path d="M102.14 101.503C113.656 95.0661 122.462 90.1621 123.215 89.779C125.624 88.4763 128.108 85.0282 123.215 82.3463C121.634 81.5034 113.129 76.7527 102.14 70.6226L87.0107 86.101L102.14 101.503Z" fill="#FFDD33"/>
<path d="M87.0108 86.101L38.6882 135.678C39.8173 135.831 41.0968 135.524 42.6022 134.681C45.7635 132.919 79.3334 114.222 102.14 101.503L87.0108 86.101Z" fill="#FF6666"/>
<path d="M87.0108 86.101L102.14 70.6226C102.14 70.6226 45.9893 39.4361 42.6022 37.5971C41.3226 36.8308 39.8925 36.601 38.6129 36.8308L87.0108 86.101Z" fill="#7BFF7B"/>
<path d="M87.0108 86.101L38.6129 36.8308C36.6559 37.2906 35 39.053 35 42.6543C35 48.4012 35 125.027 35 129.854C35 133.149 36.2796 135.524 38.6882 135.754L87.0108 86.101Z" fill="#6ED8FF"/>
<path d="M163.723 59.6127C161.498 59.6127 159.6 59.2258 158.028 58.452C156.481 57.6782 155.272 56.5659 154.401 55.1151C153.555 53.6401 153.096 51.887 153.023 49.8558C152.999 48.816 152.987 47.7037 152.987 46.5188C152.987 45.3098 152.999 44.1733 153.023 43.1093C153.096 41.1023 153.555 39.3855 154.401 37.9588C155.272 36.5322 156.493 35.4319 158.065 34.6581C159.661 33.8844 161.547 33.4975 163.723 33.4975C165.488 33.4975 167.036 33.7393 168.366 34.2229C169.696 34.6823 170.796 35.2868 171.666 36.0364C172.561 36.7619 173.226 37.5477 173.661 38.3941C174.121 39.2404 174.363 40.0263 174.387 40.7517C174.411 40.9693 174.35 41.1507 174.205 41.2958C174.06 41.4409 173.867 41.5134 173.625 41.5134H169.889C169.647 41.5134 169.466 41.465 169.345 41.3683C169.224 41.2716 169.115 41.1265 169.019 40.9331C168.825 40.4253 168.523 39.9296 168.112 39.4459C167.701 38.9381 167.145 38.515 166.443 38.1764C165.742 37.8379 164.835 37.6687 163.723 37.6687C162.079 37.6687 160.761 38.1039 159.769 38.9744C158.802 39.8449 158.282 41.2837 158.21 43.2907C158.137 45.3944 158.137 47.5223 158.21 49.6744C158.282 51.7298 158.814 53.2048 159.806 54.0995C160.821 54.9942 162.151 55.4415 163.796 55.4415C164.884 55.4415 165.851 55.2481 166.697 54.8612C167.568 54.4743 168.245 53.8698 168.728 53.0476C169.236 52.2255 169.49 51.1736 169.49 49.892V48.7676H165.065C164.823 48.7676 164.618 48.683 164.448 48.5137C164.279 48.3445 164.195 48.1268 164.195 47.8609V45.9385C164.195 45.6725 164.279 45.4549 164.448 45.2856C164.618 45.1163 164.823 45.0317 165.065 45.0317H173.734C174 45.0317 174.205 45.1163 174.35 45.2856C174.52 45.4549 174.604 45.6725 174.604 45.9385V49.747C174.604 51.7781 174.157 53.5312 173.262 55.0063C172.392 56.4813 171.134 57.6178 169.49 58.4158C167.87 59.2137 165.948 59.6127 163.723 59.6127ZM186.944 59.6127C184.26 59.6127 182.132 58.8389 180.56 57.2914C178.988 55.7438 178.142 53.5433 178.021 50.69C177.997 50.4482 177.985 50.1459 177.985 49.7832C177.985 49.3963 177.997 49.0941 178.021 48.8764C178.118 47.0629 178.529 45.4911 179.254 44.1612C180.004 42.8312 181.031 41.8157 182.337 41.1144C183.643 40.389 185.178 40.0263 186.944 40.0263C188.902 40.0263 190.547 40.4374 191.877 41.2595C193.206 42.0575 194.21 43.1819 194.887 44.6327C195.564 46.0594 195.903 47.7158 195.903 49.6019V50.3636C195.903 50.6054 195.818 50.8109 195.649 50.9802C195.479 51.1494 195.262 51.2341 194.996 51.2341H182.954C182.954 51.2341 182.954 51.2703 182.954 51.3429C182.954 51.4154 182.954 51.4759 182.954 51.5242C182.978 52.3706 183.135 53.1564 183.425 53.8819C183.74 54.5831 184.187 55.1514 184.767 55.5866C185.372 56.0219 186.085 56.2395 186.907 56.2395C187.584 56.2395 188.153 56.1428 188.612 55.9493C189.072 55.7317 189.446 55.4899 189.737 55.2239C190.027 54.9579 190.232 54.7403 190.353 54.571C190.571 54.2808 190.74 54.1116 190.861 54.0632C191.006 53.9907 191.212 53.9544 191.478 53.9544H194.597C194.839 53.9544 195.032 54.027 195.177 54.172C195.346 54.3171 195.419 54.4985 195.395 54.7161C195.371 55.103 195.165 55.5745 194.778 56.1307C194.415 56.6868 193.884 57.2309 193.182 57.7629C192.481 58.2949 191.598 58.7422 190.534 59.1049C189.495 59.4434 188.298 59.6127 186.944 59.6127ZM182.954 48.1873H190.97V48.0785C190.97 47.1354 190.813 46.3133 190.498 45.612C190.184 44.9108 189.724 44.3546 189.12 43.9436C188.515 43.5325 187.79 43.327 186.944 43.327C186.097 43.327 185.372 43.5325 184.767 43.9436C184.163 44.3546 183.703 44.9108 183.389 45.612C183.099 46.3133 182.954 47.1354 182.954 48.0785V48.1873ZM208.206 59.25C206.755 59.25 205.534 58.9961 204.542 58.4883C203.551 57.9805 202.813 57.2309 202.33 56.2395C201.846 55.2239 201.604 53.9665 201.604 52.4673V44.2337H198.739C198.497 44.2337 198.291 44.1491 198.122 43.9798C197.953 43.8106 197.868 43.605 197.868 43.3632V41.2595C197.868 41.0177 197.953 40.8122 198.122 40.6429C198.291 40.4736 198.497 40.389 198.739 40.389H201.604V34.368C201.604 34.1262 201.677 33.9206 201.822 33.7514C201.991 33.5821 202.209 33.4975 202.475 33.4975H205.413C205.655 33.4975 205.86 33.5821 206.029 33.7514C206.199 33.9206 206.283 34.1262 206.283 34.368V40.389H210.817C211.059 40.389 211.264 40.4736 211.434 40.6429C211.603 40.8122 211.688 41.0177 211.688 41.2595V43.3632C211.688 43.605 211.603 43.8106 211.434 43.9798C211.264 44.1491 211.059 44.2337 210.817 44.2337H206.283V52.1046C206.283 53.096 206.453 53.8698 206.791 54.4259C207.154 54.9821 207.77 55.2602 208.641 55.2602H211.144C211.385 55.2602 211.591 55.3448 211.76 55.5141C211.929 55.6833 212.014 55.8889 212.014 56.1307V58.3795C212.014 58.6213 211.929 58.8268 211.76 58.9961C211.591 59.1654 211.385 59.25 211.144 59.25H208.206ZM224.391 59.25C224.149 59.25 223.943 59.1654 223.774 58.9961C223.605 58.8268 223.52 58.6213 223.52 58.3795V41.2595C223.52 41.0177 223.605 40.8122 223.774 40.6429C223.943 40.4736 224.149 40.389 224.391 40.389H227.401C227.667 40.389 227.873 40.4736 228.018 40.6429C228.187 40.8122 228.272 41.0177 228.272 41.2595V58.3795C228.272 58.6213 228.187 58.8268 228.018 58.9961C227.873 59.1654 227.667 59.25 227.401 59.25H224.391ZM224.246 37.2697C223.98 37.2697 223.762 37.1971 223.593 37.052C223.448 36.8828 223.375 36.6651 223.375 36.3992V33.7876C223.375 33.5458 223.448 33.3403 223.593 33.171C223.762 33.0018 223.98 32.9171 224.246 32.9171H227.546C227.812 32.9171 228.03 33.0018 228.199 33.171C228.369 33.3403 228.453 33.5458 228.453 33.7876V36.3992C228.453 36.6651 228.369 36.8828 228.199 37.052C228.03 37.1971 227.812 37.2697 227.546 37.2697H224.246ZM241.608 59.25C240.157 59.25 238.936 58.9961 237.944 58.4883C236.953 57.9805 236.215 57.2309 235.732 56.2395C235.248 55.2239 235.006 53.9665 235.006 52.4673V44.2337H232.141C231.899 44.2337 231.694 44.1491 231.524 43.9798C231.355 43.8106 231.27 43.605 231.27 43.3632V41.2595C231.27 41.0177 231.355 40.8122 231.524 40.6429C231.694 40.4736 231.899 40.389 232.141 40.389H235.006V34.368C235.006 34.1262 235.079 33.9206 235.224 33.7514C235.393 33.5821 235.611 33.4975 235.877 33.4975H238.815C239.057 33.4975 239.262 33.5821 239.431 33.7514C239.601 33.9206 239.685 34.1262 239.685 34.368V40.389H244.219C244.461 40.389 244.667 40.4736 244.836 40.6429C245.005 40.8122 245.09 41.0177 245.09 41.2595V43.3632C245.09 43.605 245.005 43.8106 244.836 43.9798C244.667 44.1491 244.461 44.2337 244.219 44.2337H239.685V52.1046C239.685 53.096 239.855 53.8698 240.193 54.4259C240.556 54.9821 241.172 55.2602 242.043 55.2602H244.546C244.787 55.2602 244.993 55.3448 245.162 55.5141C245.332 55.6833 245.416 55.8889 245.416 56.1307V58.3795C245.416 58.6213 245.332 58.8268 245.162 58.9961C244.993 59.1654 244.787 59.25 244.546 59.25H241.608ZM265.265 59.6127C263.33 59.6127 261.698 59.2742 260.368 58.5971C259.062 57.9201 258.059 56.9649 257.358 55.7317C256.681 54.4985 256.294 53.0597 256.197 51.4154C256.173 50.9802 256.161 50.4482 256.161 49.8195C256.161 49.1908 256.173 48.6588 256.197 48.2236C256.294 46.5551 256.693 45.1163 257.394 43.9073C258.119 42.6741 259.135 41.7189 260.441 41.0419C261.771 40.3648 263.379 40.0263 265.265 40.0263C267.151 40.0263 268.747 40.3648 270.052 41.0419C271.382 41.7189 272.398 42.6741 273.099 43.9073C273.825 45.1163 274.236 46.5551 274.332 48.2236C274.357 48.6588 274.369 49.1908 274.369 49.8195C274.369 50.4482 274.357 50.9802 274.332 51.4154C274.236 53.0597 273.837 54.4985 273.136 55.7317C272.458 56.9649 271.455 57.9201 270.125 58.5971C268.819 59.2742 267.199 59.6127 265.265 59.6127ZM265.265 56.0219C266.546 56.0219 267.538 55.6229 268.239 54.8249C268.94 54.0028 269.327 52.8058 269.4 51.2341C269.424 50.8714 269.436 50.3998 269.436 49.8195C269.436 49.2392 269.424 48.7676 269.4 48.4049C269.327 46.8573 268.94 45.6725 268.239 44.8503C267.538 44.0282 266.546 43.6171 265.265 43.6171C263.983 43.6171 262.992 44.0282 262.29 44.8503C261.589 45.6725 261.202 46.8573 261.13 48.4049C261.106 48.7676 261.094 49.2392 261.094 49.8195C261.094 50.3998 261.106 50.8714 261.13 51.2341C261.202 52.8058 261.589 54.0028 262.29 54.8249C262.992 55.6229 263.983 56.0219 265.265 56.0219ZM279.258 59.25C279.016 59.25 278.811 59.1654 278.641 58.9961C278.472 58.8268 278.387 58.6213 278.387 58.3795V41.2595C278.387 41.0177 278.472 40.8122 278.641 40.6429C278.811 40.4736 279.016 40.389 279.258 40.389H282.232C282.474 40.389 282.68 40.4736 282.849 40.6429C283.018 40.8122 283.103 41.0177 283.103 41.2595V42.7466C283.731 41.9728 284.529 41.332 285.497 40.8242C286.488 40.2923 287.709 40.0263 289.16 40.0263C290.635 40.0263 291.917 40.3648 293.005 41.0419C294.093 41.6948 294.927 42.6257 295.507 43.8348C296.112 45.0438 296.414 46.4946 296.414 48.1873V58.3795C296.414 58.6213 296.33 58.8268 296.16 58.9961C295.991 59.1654 295.786 59.25 295.544 59.25H292.352C292.11 59.25 291.905 59.1654 291.735 58.9961C291.566 58.8268 291.481 58.6213 291.481 58.3795V48.4049C291.481 47.0024 291.131 45.9022 290.43 45.1042C289.752 44.3063 288.761 43.9073 287.455 43.9073C286.198 43.9073 285.194 44.3063 284.445 45.1042C283.695 45.9022 283.32 47.0024 283.32 48.4049V58.3795C283.32 58.6213 283.236 58.8268 283.066 58.9961C282.897 59.1654 282.692 59.25 282.45 59.25H279.258Z" fill="white"/>
<path d="M158.869 128.25C158.357 128.25 157.921 128.071 157.562 127.712C157.204 127.353 157.024 126.918 157.024 126.405V76.3599C157.024 75.7962 157.204 75.3349 157.562 74.9762C157.921 74.6174 158.357 74.4381 158.869 74.4381H179.472C183.469 74.4381 186.954 75.0787 189.926 76.3599C192.899 77.5899 195.205 79.4861 196.845 82.0486C198.485 84.5598 199.305 87.7117 199.305 91.5041C199.305 95.3478 198.485 98.5253 196.845 101.037C195.205 103.497 192.899 105.341 189.926 106.571C186.954 107.801 183.469 108.416 179.472 108.416H168.017V126.405C168.017 126.918 167.838 127.353 167.479 127.712C167.172 128.071 166.736 128.25 166.172 128.25H158.869ZM167.864 99.8834H179.087C182.06 99.8834 184.34 99.1916 185.929 97.8078C187.518 96.3728 188.312 94.2716 188.312 91.5041C188.312 88.9417 187.569 86.8917 186.083 85.3542C184.596 83.7655 182.265 82.9711 179.087 82.9711H167.864V99.8834ZM203.316 128.25C202.804 128.25 202.368 128.071 202.009 127.712C201.651 127.353 201.471 126.918 201.471 126.405V75.5143C201.471 75.0018 201.651 74.5662 202.009 74.2074C202.368 73.8487 202.804 73.6693 203.316 73.6693H209.697C210.209 73.6693 210.645 73.8487 211.004 74.2074C211.363 74.5662 211.542 75.0018 211.542 75.5143V126.405C211.542 126.918 211.363 127.353 211.004 127.712C210.645 128.071 210.209 128.25 209.697 128.25H203.316ZM227.966 129.019C225.301 129.019 222.892 128.506 220.74 127.481C218.587 126.405 216.87 124.996 215.589 123.253C214.359 121.459 213.744 119.461 213.744 117.257C213.744 113.67 215.179 110.825 218.049 108.724C220.97 106.571 224.814 105.136 229.58 104.419L240.112 102.882V101.267C240.112 99.1147 239.574 97.4491 238.498 96.2703C237.421 95.0916 235.576 94.5022 232.963 94.5022C231.118 94.5022 229.606 94.8866 228.427 95.6553C227.3 96.3728 226.454 97.3466 225.89 98.5766C225.48 99.2428 224.891 99.5759 224.122 99.5759H218.049C217.485 99.5759 217.05 99.4222 216.742 99.1147C216.486 98.8072 216.358 98.3972 216.358 97.8847C216.409 97.0647 216.742 96.0653 217.357 94.8866C217.972 93.7079 218.946 92.5804 220.279 91.5041C221.611 90.3767 223.328 89.4285 225.429 88.6598C227.53 87.8911 230.067 87.5067 233.04 87.5067C236.268 87.5067 238.985 87.9167 241.188 88.7367C243.443 89.5054 245.237 90.556 246.569 91.8885C247.902 93.221 248.876 94.7841 249.491 96.5778C250.106 98.3716 250.413 100.268 250.413 102.267V126.405C250.413 126.918 250.234 127.353 249.875 127.712C249.516 128.071 249.081 128.25 248.568 128.25H242.341C241.778 128.25 241.316 128.071 240.958 127.712C240.65 127.353 240.496 126.918 240.496 126.405V123.407C239.83 124.381 238.933 125.303 237.806 126.174C236.678 126.994 235.295 127.686 233.655 128.25C232.066 128.762 230.17 129.019 227.966 129.019ZM230.58 121.716C232.373 121.716 233.988 121.331 235.423 120.563C236.909 119.794 238.062 118.615 238.882 117.026C239.753 115.386 240.189 113.336 240.189 110.876V109.262L232.502 110.492C229.478 110.953 227.223 111.696 225.737 112.721C224.25 113.746 223.507 115.002 223.507 116.488C223.507 117.616 223.84 118.589 224.507 119.409C225.224 120.178 226.121 120.768 227.197 121.178C228.273 121.536 229.401 121.716 230.58 121.716ZM261.069 142.856C260.659 142.856 260.301 142.702 259.993 142.395C259.686 142.087 259.532 141.729 259.532 141.319C259.532 141.114 259.532 140.909 259.532 140.704C259.583 140.55 259.686 140.345 259.839 140.089L265.835 125.867L251.076 91.0429C250.871 90.5304 250.768 90.1717 250.768 89.9667C250.819 89.5054 250.999 89.121 251.306 88.8135C251.614 88.4548 251.998 88.2754 252.459 88.2754H258.686C259.301 88.2754 259.762 88.4292 260.07 88.7367C260.377 89.0442 260.608 89.3773 260.762 89.736L270.986 114.874L281.518 89.736C281.672 89.326 281.902 88.9929 282.21 88.7367C282.517 88.4292 282.978 88.2754 283.593 88.2754H289.743C290.153 88.2754 290.512 88.4292 290.82 88.7367C291.178 89.0442 291.358 89.4029 291.358 89.8129C291.358 90.1204 291.255 90.5304 291.05 91.0429L269.295 141.395C269.09 141.805 268.834 142.139 268.526 142.395C268.219 142.702 267.757 142.856 267.142 142.856H261.069ZM322.366 129.019C317.6 129.019 313.603 128.327 310.374 126.943C307.196 125.508 304.762 123.663 303.071 121.408C301.431 119.102 300.56 116.693 300.457 114.182C300.457 113.721 300.611 113.336 300.918 113.029C301.226 112.721 301.61 112.568 302.071 112.568H308.913C309.579 112.568 310.066 112.721 310.374 113.029C310.733 113.285 311.04 113.618 311.296 114.028C311.604 115.002 312.193 115.976 313.064 116.949C313.936 117.872 315.114 118.641 316.601 119.256C318.138 119.871 320.06 120.178 322.366 120.178C326.056 120.178 328.798 119.563 330.592 118.333C332.437 117.103 333.359 115.438 333.359 113.336C333.359 111.85 332.872 110.671 331.899 109.8C330.925 108.878 329.413 108.058 327.363 107.34C325.364 106.571 322.699 105.777 319.368 104.957C315.524 104.035 312.296 102.933 309.682 101.652C307.12 100.319 305.172 98.6534 303.84 96.6547C302.558 94.656 301.918 92.1191 301.918 89.0442C301.918 86.0717 302.712 83.4323 304.301 81.1261C305.941 78.8199 308.247 77.0005 311.219 75.6681C314.243 74.3356 317.831 73.6693 321.982 73.6693C325.313 73.6693 328.26 74.1306 330.822 75.0531C333.385 75.9243 335.512 77.103 337.203 78.5893C338.894 80.0243 340.175 81.5874 341.047 83.2786C341.969 84.9186 342.456 86.5329 342.507 88.1217C342.507 88.5317 342.354 88.916 342.046 89.2748C341.79 89.5823 341.405 89.736 340.893 89.736H333.744C333.334 89.736 332.924 89.6335 332.514 89.4285C332.104 89.2235 331.77 88.8392 331.514 88.2754C331.207 86.6867 330.207 85.3286 328.516 84.2011C326.825 83.0736 324.647 82.5099 321.982 82.5099C319.214 82.5099 316.985 83.0224 315.294 84.0473C313.603 85.0723 312.757 86.6611 312.757 88.8135C312.757 90.2485 313.167 91.4529 313.987 92.4266C314.858 93.3491 316.216 94.1691 318.061 94.8866C319.957 95.6041 322.443 96.3728 325.518 97.1928C329.874 98.1666 333.436 99.2941 336.204 100.575C338.971 101.857 340.995 103.497 342.277 105.495C343.558 107.443 344.198 109.928 344.198 112.952C344.198 116.335 343.276 119.23 341.431 121.639C339.637 123.996 337.1 125.816 333.82 127.097C330.541 128.378 326.722 129.019 322.366 129.019ZM364.77 128.25C361.695 128.25 359.107 127.712 357.006 126.636C354.905 125.559 353.342 123.971 352.317 121.869C351.292 119.717 350.779 117.052 350.779 113.875V96.4241H344.706C344.193 96.4241 343.758 96.2447 343.399 95.886C343.04 95.5272 342.861 95.0916 342.861 94.5791V90.1204C342.861 89.6079 343.04 89.1723 343.399 88.8135C343.758 88.4548 344.193 88.2754 344.706 88.2754H350.779V75.5143C350.779 75.0018 350.933 74.5662 351.24 74.2074C351.599 73.8487 352.06 73.6693 352.624 73.6693H358.851C359.363 73.6693 359.799 73.8487 360.158 74.2074C360.516 74.5662 360.696 75.0018 360.696 75.5143V88.2754H370.305C370.818 88.2754 371.253 88.4548 371.612 88.8135C371.971 89.1723 372.15 89.6079 372.15 90.1204V94.5791C372.15 95.0916 371.971 95.5272 371.612 95.886C371.253 96.2447 370.818 96.4241 370.305 96.4241H360.696V113.106C360.696 115.207 361.055 116.847 361.772 118.026C362.541 119.204 363.848 119.794 365.693 119.794H370.997C371.509 119.794 371.945 119.973 372.304 120.332C372.663 120.691 372.842 121.126 372.842 121.639V126.405C372.842 126.918 372.663 127.353 372.304 127.712C371.945 128.071 371.509 128.25 370.997 128.25H364.77ZM391.961 129.019C387.861 129.019 384.402 128.301 381.583 126.866C378.816 125.431 376.689 123.407 375.203 120.793C373.768 118.179 372.948 115.13 372.743 111.645C372.692 110.723 372.666 109.595 372.666 108.263C372.666 106.93 372.692 105.803 372.743 104.88C372.948 101.344 373.793 98.2947 375.28 95.7322C376.817 93.1185 378.97 91.0941 381.737 89.6592C384.556 88.2242 387.964 87.5067 391.961 87.5067C395.959 87.5067 399.341 88.2242 402.109 89.6592C404.927 91.0941 407.08 93.1185 408.566 95.7322C410.104 98.2947 410.975 101.344 411.18 104.88C411.231 105.803 411.257 106.93 411.257 108.263C411.257 109.595 411.231 110.723 411.18 111.645C410.975 115.13 410.129 118.179 408.643 120.793C407.208 123.407 405.081 125.431 402.263 126.866C399.495 128.301 396.061 129.019 391.961 129.019ZM391.961 121.408C394.678 121.408 396.779 120.563 398.265 118.871C399.751 117.129 400.571 114.592 400.725 111.261C400.776 110.492 400.802 109.493 400.802 108.263C400.802 107.033 400.776 106.033 400.725 105.265C400.571 101.985 399.751 99.4734 398.265 97.7309C396.779 95.9885 394.678 95.1172 391.961 95.1172C389.245 95.1172 387.144 95.9885 385.658 97.7309C384.171 99.4734 383.351 101.985 383.198 105.265C383.146 106.033 383.121 107.033 383.121 108.263C383.121 109.493 383.146 110.492 383.198 111.261C383.351 114.592 384.171 117.129 385.658 118.871C387.144 120.563 389.245 121.408 391.961 121.408ZM416.238 128.25C415.726 128.25 415.29 128.071 414.931 127.712C414.572 127.353 414.393 126.918 414.393 126.405V90.1973C414.393 89.6335 414.572 89.1723 414.931 88.8135C415.29 88.4548 415.726 88.2754 416.238 88.2754H422.465C422.977 88.2754 423.413 88.4548 423.772 88.8135C424.182 89.1723 424.387 89.6335 424.387 90.1973V93.3491C425.565 91.7091 427.077 90.4535 428.922 89.5823C430.818 88.711 432.997 88.2754 435.457 88.2754H438.608C439.172 88.2754 439.608 88.4548 439.915 88.8135C440.274 89.1723 440.453 89.6079 440.453 90.1204V95.6553C440.453 96.1678 440.274 96.6035 439.915 96.9622C439.608 97.321 439.172 97.5003 438.608 97.5003H432.612C430.152 97.5003 428.23 98.1922 426.847 99.5759C425.514 100.96 424.848 102.856 424.848 105.265V126.405C424.848 126.918 424.669 127.353 424.31 127.712C423.951 128.071 423.49 128.25 422.926 128.25H416.238ZM457.762 129.019C452.073 129.019 447.563 127.379 444.232 124.099C440.901 120.819 439.107 116.155 438.851 110.108C438.8 109.595 438.774 108.955 438.774 108.186C438.774 107.366 438.8 106.725 438.851 106.264C439.056 102.42 439.927 99.0891 441.465 96.2703C443.053 93.4516 445.232 91.2991 447.999 89.8129C450.767 88.2754 454.021 87.5067 457.762 87.5067C461.913 87.5067 465.398 88.3779 468.217 90.1204C471.036 91.8116 473.163 94.1947 474.598 97.2697C476.033 100.293 476.75 103.804 476.75 107.801V109.416C476.75 109.928 476.571 110.364 476.212 110.723C475.853 111.081 475.392 111.261 474.828 111.261H449.306C449.306 111.261 449.306 111.338 449.306 111.491C449.306 111.645 449.306 111.773 449.306 111.876C449.357 113.67 449.69 115.335 450.305 116.873C450.972 118.359 451.92 119.563 453.15 120.486C454.431 121.408 455.943 121.869 457.685 121.869C459.12 121.869 460.325 121.664 461.298 121.254C462.272 120.793 463.066 120.281 463.681 119.717C464.296 119.153 464.732 118.692 464.988 118.333C465.449 117.718 465.808 117.359 466.064 117.257C466.372 117.103 466.808 117.026 467.371 117.026H473.983C474.495 117.026 474.905 117.18 475.213 117.488C475.571 117.795 475.725 118.179 475.674 118.641C475.623 119.461 475.187 120.46 474.367 121.639C473.598 122.818 472.471 123.971 470.984 125.098C469.498 126.226 467.628 127.174 465.373 127.943C463.169 128.66 460.632 129.019 457.762 129.019ZM449.306 104.803H466.295V104.573C466.295 102.574 465.962 100.832 465.296 99.3453C464.63 97.8591 463.656 96.6803 462.375 95.8091C461.093 94.9379 459.556 94.5022 457.762 94.5022C455.968 94.5022 454.431 94.9379 453.15 95.8091C451.868 96.6803 450.895 97.8591 450.228 99.3453C449.613 100.832 449.306 102.574 449.306 104.573V104.803Z" fill="white"/>
</svg>
