<svg width="834" height="528" viewBox="0 0 834 528" fill="none" xmlns="http://www.w3.org/2000/svg">
<g clip-path="url(#clip0_14_5414)">
<rect x="0.679688" y="0.615509" width="832.638" height="526.892" rx="17.8104" fill="#111111"/>
<g filter="url(#filter0_n_14_5414)">
<path d="M420.721 251.173L422.427 300.313C430.569 299.866 438.764 299.423 446.779 299.145L445.078 250.327L475.605 249.259L477.352 299.398C516.866 301.478 548.49 312.509 553.231 348.532L553.224 348.534C556.732 374.893 546.222 391.154 528.846 400.796C558.217 406.785 577.061 423.463 574.812 462.385C572.043 510.709 536.574 524.887 485.369 529.617L487.121 580.237L456.603 581.303L454.878 531.361C446.97 531.643 438.867 531.859 430.498 531.975L432.238 582.15L401.751 583.206L399.971 532.489C392.838 532.69 385.562 532.818 378.171 533.067L338.447 534.452L343.24 497.787C343.29 497.786 365.824 497.352 365.424 497.02C374.061 496.705 376.131 490.422 376.538 486.512L373.769 406.493L376.984 406.379C375.719 406.251 374.605 406.254 373.752 406.279L371.76 349.162C370.382 343.007 366.101 335.973 353.74 336.4C354.1 335.972 331.578 337.186 331.578 337.186L330.435 304.59L372.528 303.14L372.538 303.295C378.865 303.071 385.35 302.722 391.952 302.357L390.219 252.233L420.721 251.173ZM429.908 495.034C450.602 494.3 515.626 496.345 514.299 458.448L514.307 458.446C512.909 418.928 448.266 427.132 427.576 427.847L429.908 495.034ZM426.498 397.094C443.734 396.491 497.988 398.63 496.798 364.153C495.551 328.191 441.615 335.556 424.378 336.16L426.498 397.094Z" fill="url(#paint0_linear_14_5414)" fill-opacity="0.06"/>
</g>
<g filter="url(#filter1_n_14_5414)">
<rect x="-432.656" y="-193.945" width="549.273" height="1369.98" transform="rotate(-21.6628 -432.656 -193.945)" fill="url(#paint1_linear_14_5414)"/>
</g>
<path opacity="0.9" d="M73.6255 254.681V257.528H62.9147V288.116H59.6339V257.528H48.9231V254.681H73.6255ZM84.8511 285.849C86.0734 285.849 87.1348 285.817 88.0354 285.752C88.9682 285.656 89.7562 285.543 90.3995 285.415V276.634C90.0457 276.473 89.4828 276.312 88.7108 276.151C87.9389 275.958 86.8775 275.862 85.5266 275.862C84.7546 275.862 83.9505 275.926 83.1142 276.055C82.278 276.151 81.506 276.392 80.7984 276.778C80.0908 277.132 79.5118 277.631 79.0615 278.274C78.6112 278.917 78.386 279.77 78.386 280.831C78.386 281.764 78.5308 282.552 78.8203 283.195C79.1419 283.839 79.5761 284.353 80.1229 284.739C80.7019 285.125 81.3773 285.415 82.1493 285.608C82.9534 285.768 83.854 285.849 84.8511 285.849ZM84.5616 262.594C86.202 262.594 87.5851 262.835 88.7108 263.318C89.8688 263.768 90.8015 264.411 91.5092 265.248C92.2168 266.052 92.7314 267.017 93.0531 268.142C93.3747 269.268 93.5355 270.49 93.5355 271.809V287.537C93.2139 287.634 92.7475 287.747 92.1364 287.875C91.5252 287.972 90.8176 288.084 90.0135 288.213C89.2094 288.342 88.3088 288.438 87.3117 288.502C86.3468 288.599 85.3497 288.647 84.3204 288.647C83.0017 288.647 81.7794 288.502 80.6536 288.213C79.5601 287.923 78.5951 287.473 77.7588 286.862C76.9547 286.219 76.3114 285.415 75.829 284.45C75.3787 283.453 75.1535 282.246 75.1535 280.831C75.1535 279.48 75.4108 278.322 75.9255 277.357C76.4401 276.392 77.1638 275.604 78.0966 274.993C79.0293 274.35 80.139 273.884 81.4256 273.594C82.7122 273.305 84.1113 273.16 85.6231 273.16C86.0734 273.16 86.5397 273.192 87.0222 273.256C87.5368 273.289 88.0193 273.353 88.4696 273.449C88.9521 273.514 89.3541 273.594 89.6758 273.691C90.0296 273.755 90.2708 273.819 90.3995 273.884V272.34C90.3995 271.471 90.3352 270.635 90.2065 269.831C90.0778 268.995 89.7884 268.255 89.3381 267.612C88.9199 266.936 88.3088 266.405 87.5047 266.019C86.7327 265.601 85.7035 265.392 84.4169 265.392C82.5835 265.392 81.2165 265.521 80.3159 265.778C79.4153 266.036 78.7559 266.245 78.3378 266.405L77.9036 263.655C78.4504 263.398 79.2867 263.157 80.4124 262.932C81.5703 262.707 82.9534 262.594 84.5616 262.594ZM104.67 283.63C104.96 283.855 105.314 284.096 105.732 284.353C106.182 284.611 106.697 284.852 107.276 285.077C107.855 285.302 108.482 285.495 109.157 285.656C109.833 285.785 110.54 285.849 111.28 285.849C112.824 285.849 114.111 285.592 115.14 285.077C116.201 284.53 117.054 283.806 117.697 282.906C118.34 281.973 118.807 280.896 119.096 279.673C119.386 278.419 119.53 277.1 119.53 275.717C119.53 272.436 118.71 269.927 117.07 268.191C115.429 266.422 113.258 265.537 110.556 265.537C109.013 265.537 107.758 265.617 106.793 265.778C105.86 265.907 105.153 266.052 104.67 266.212V283.63ZM104.67 297.042H101.534V264.041C102.467 263.72 103.657 263.414 105.105 263.125C106.552 262.835 108.385 262.69 110.605 262.69C112.438 262.69 114.095 262.996 115.574 263.607C117.086 264.186 118.372 265.038 119.434 266.164C120.527 267.29 121.364 268.657 121.943 270.265C122.554 271.873 122.859 273.691 122.859 275.717C122.859 277.615 122.602 279.368 122.087 280.976C121.605 282.552 120.881 283.919 119.916 285.077C118.951 286.203 117.761 287.087 116.346 287.73C114.963 288.374 113.371 288.695 111.57 288.695C109.929 288.695 108.498 288.47 107.276 288.02C106.086 287.537 105.217 287.087 104.67 286.669V297.042ZM148.575 288.116C147.642 286.251 146.613 284.369 145.487 282.472C144.394 280.542 143.123 278.58 141.676 276.585C141.226 277.164 140.647 277.969 139.939 278.998C139.264 280.027 138.572 281.121 137.864 282.279C137.189 283.437 136.546 284.546 135.935 285.608C135.323 286.669 134.873 287.505 134.584 288.116H125.996C127.411 285.511 129.051 282.777 130.917 279.915C132.815 277.052 134.921 274.012 137.237 270.796L126.478 254.681H135.597L142.11 265.103L148.479 254.681H157.067L146.452 270.892C149.154 274.398 151.422 277.647 153.255 280.638C155.089 283.597 156.536 286.09 157.597 288.116H148.575Z" fill="white"/>
<path d="M170.472 287.524C169.16 287.524 167.937 287.289 166.801 286.819C165.685 286.349 164.706 285.664 163.864 284.764C163.042 283.863 162.386 282.757 161.897 281.445C161.427 280.114 161.192 278.596 161.192 276.893C161.192 275.19 161.446 273.682 161.955 272.37C162.484 271.039 163.179 269.923 164.041 269.023C164.902 268.122 165.9 267.447 167.036 266.996C168.172 266.526 169.356 266.291 170.59 266.291C171.353 266.291 172.048 266.34 172.675 266.438C173.301 266.536 173.849 266.663 174.319 266.82C174.789 266.957 175.19 267.104 175.523 267.261C175.856 267.398 176.111 267.525 176.287 267.642L175.641 269.375C175.151 269.081 174.525 268.797 173.761 268.523C173.017 268.23 172.087 268.083 170.971 268.083C169.699 268.083 168.583 268.298 167.623 268.729C166.684 269.16 165.891 269.767 165.245 270.55C164.599 271.333 164.109 272.263 163.776 273.34C163.463 274.416 163.306 275.611 163.306 276.922C163.306 278.273 163.463 279.497 163.776 280.593C164.109 281.67 164.589 282.59 165.215 283.354C165.842 284.117 166.605 284.705 167.506 285.116C168.426 285.527 169.474 285.733 170.648 285.733C171.94 285.733 173.017 285.615 173.879 285.38C174.76 285.126 175.425 284.871 175.876 284.617L176.434 286.32C176.297 286.418 176.062 286.535 175.729 286.672C175.396 286.79 174.975 286.917 174.466 287.054C173.957 287.191 173.37 287.299 172.704 287.377C172.038 287.475 171.294 287.524 170.472 287.524ZM184.579 285.703C185.323 285.703 185.97 285.684 186.518 285.645C187.086 285.586 187.565 285.517 187.957 285.439V280.094C187.741 279.996 187.399 279.898 186.929 279.8C186.459 279.683 185.813 279.624 184.991 279.624C184.521 279.624 184.031 279.663 183.522 279.742C183.013 279.8 182.543 279.947 182.113 280.182C181.682 280.398 181.329 280.701 181.055 281.093C180.781 281.484 180.644 282.003 180.644 282.649C180.644 283.217 180.732 283.697 180.909 284.088C181.104 284.48 181.369 284.793 181.701 285.028C182.054 285.263 182.465 285.439 182.935 285.557C183.424 285.654 183.973 285.703 184.579 285.703ZM184.403 271.548C185.402 271.548 186.244 271.695 186.929 271.989C187.634 272.263 188.201 272.654 188.632 273.163C189.063 273.653 189.376 274.24 189.572 274.925C189.768 275.611 189.866 276.355 189.866 277.157V286.731C189.67 286.79 189.386 286.858 189.014 286.937C188.642 286.996 188.211 287.064 187.722 287.142C187.232 287.221 186.684 287.279 186.077 287.319C185.49 287.377 184.883 287.407 184.256 287.407C183.454 287.407 182.71 287.319 182.025 287.142C181.359 286.966 180.771 286.692 180.262 286.32C179.773 285.928 179.381 285.439 179.088 284.852C178.814 284.245 178.677 283.511 178.677 282.649C178.677 281.827 178.833 281.122 179.146 280.535C179.46 279.947 179.9 279.468 180.468 279.096C181.036 278.704 181.711 278.42 182.494 278.244C183.278 278.068 184.129 277.98 185.049 277.98C185.323 277.98 185.607 277.999 185.901 278.038C186.214 278.058 186.508 278.097 186.782 278.156C187.076 278.195 187.32 278.244 187.516 278.303C187.732 278.342 187.878 278.381 187.957 278.42V277.48C187.957 276.952 187.918 276.443 187.839 275.953C187.761 275.444 187.585 274.994 187.311 274.602C187.056 274.191 186.684 273.868 186.195 273.633C185.725 273.379 185.098 273.251 184.315 273.251C183.199 273.251 182.367 273.33 181.819 273.486C181.271 273.643 180.869 273.77 180.615 273.868L180.351 272.194C180.683 272.038 181.192 271.891 181.878 271.754C182.582 271.617 183.424 271.548 184.403 271.548ZM199.903 271.607C200.53 271.607 201.117 271.656 201.665 271.754C202.233 271.852 202.625 271.95 202.84 272.047L202.458 273.692C202.302 273.614 201.978 273.535 201.489 273.457C201.019 273.359 200.393 273.31 199.609 273.31C198.787 273.31 198.122 273.369 197.612 273.486C197.123 273.604 196.8 273.702 196.643 273.78V287.084H194.734V272.605C195.224 272.39 195.899 272.175 196.761 271.959C197.622 271.724 198.67 271.607 199.903 271.607ZM217.789 286.614C217.221 286.81 216.497 286.996 215.615 287.172C214.734 287.348 213.619 287.436 212.268 287.436C211.152 287.436 210.134 287.26 209.213 286.907C208.313 286.535 207.53 286.007 206.864 285.322C206.218 284.636 205.709 283.804 205.337 282.825C204.984 281.846 204.808 280.74 204.808 279.507C204.808 278.352 204.955 277.294 205.249 276.335C205.562 275.356 206.012 274.514 206.6 273.809C207.187 273.105 207.902 272.556 208.743 272.165C209.605 271.773 210.584 271.578 211.68 271.578C212.679 271.578 213.54 271.724 214.265 272.018C215.009 272.292 215.547 272.556 215.88 272.811V264.647L217.789 264.294V286.614ZM215.88 274.661C215.704 274.524 215.478 274.377 215.204 274.221C214.95 274.064 214.646 273.917 214.294 273.78C213.942 273.643 213.56 273.535 213.149 273.457C212.737 273.359 212.307 273.31 211.856 273.31C210.917 273.31 210.124 273.477 209.478 273.809C208.851 274.142 208.342 274.593 207.951 275.16C207.559 275.709 207.275 276.364 207.099 277.128C206.923 277.872 206.835 278.665 206.835 279.507C206.835 281.504 207.334 283.041 208.332 284.117C209.331 285.175 210.652 285.703 212.297 285.703C213.237 285.703 213.99 285.664 214.558 285.586C215.146 285.488 215.586 285.39 215.88 285.292V274.661Z" fill="white"/>
<path d="M156.685 240.209C155.751 240.234 154.964 239.527 154.856 238.594C154.729 237.495 155.573 236.535 156.658 236.53C166.28 236.389 174.716 243.075 176.768 252.466C177.003 253.533 176.251 254.566 175.171 254.692C174.237 254.8 173.367 254.177 173.168 253.254C171.488 245.554 164.563 240.067 156.685 240.209Z" fill="white"/>
<path d="M157.474 247.585C156.56 247.543 155.814 246.868 155.71 245.971C155.581 244.855 156.439 243.855 157.549 243.903C163.088 244.152 167.878 247.948 169.376 253.275C169.684 254.334 168.9 255.409 167.801 255.536L167.783 255.538C166.886 255.642 166.067 255.059 165.809 254.19C164.717 250.448 161.367 247.793 157.474 247.585Z" fill="white"/>
<path d="M776.098 56.9628C777.143 56.4335 778.172 56.7924 778.535 57.5104L778.551 57.5416L778.569 57.5727C783.018 65.2629 785.631 74.0555 785.682 83.5948C785.733 93.1241 783.218 101.935 778.86 109.667C778.306 110.545 777.377 110.79 776.436 110.352C775.578 109.793 775.345 108.868 775.789 107.932C779.988 100.766 782.25 92.464 782.203 83.6133C782.155 74.7396 779.607 66.4685 775.536 59.3731C775.027 58.3374 775.386 57.3235 776.098 56.9628ZM765.281 62.6318C766.307 62.1418 767.307 62.5015 767.664 63.207L767.688 63.2528L767.714 63.2966C771.386 69.2822 773.426 76.1868 773.466 83.6598C773.505 91.1293 771.541 98.0521 767.936 104.074C767.384 104.962 766.451 105.213 765.506 104.773C764.645 104.212 764.414 103.282 764.863 102.344C767.928 96.9001 769.835 90.4851 769.799 83.6794C769.763 76.904 767.99 70.4991 764.658 65.0551C764.208 64.1256 764.431 63.1992 765.281 62.6318ZM754.337 68.2527C754.926 67.8274 756.032 67.9786 756.687 68.8574C759.397 73.1561 761.033 78.3529 761.061 83.7259C761.091 89.2822 759.512 94.3102 756.846 98.6402C756.229 99.489 755.284 99.7267 754.47 99.2456C753.588 98.5989 753.427 97.4975 753.845 96.9051L753.866 96.8757L753.885 96.8454C756.246 93.0632 757.607 88.4989 757.582 83.7444C757.557 78.991 756.148 74.4419 753.748 70.6856C753.228 69.8609 753.461 68.8858 754.337 68.2527ZM743.654 73.7608C744.477 73.1658 745.541 73.3511 746.022 74.0168L746.031 74.0294L746.04 74.0411C747.105 75.4455 747.978 77.0059 748.5 78.5369C749.05 80.3378 749.4 82.0803 749.409 83.7879C749.419 85.5847 749.247 87.2853 748.588 88.9594C747.87 90.7829 747.174 92.181 746.144 93.5701L746.126 93.5937C745.653 94.2645 744.591 94.462 743.761 93.8758C743.096 93.4065 742.896 92.3601 743.462 91.5336C744.306 90.4573 744.92 89.199 745.323 87.9689C745.742 86.6885 745.937 85.2335 745.93 83.8065C745.922 82.3793 745.712 80.9258 745.279 79.6497C744.863 78.424 744.236 77.1723 743.38 76.1051C742.806 75.2848 742.994 74.2373 743.654 73.7608Z" fill="white"/>
<g filter="url(#filter2_di_14_5414)">
<path d="M38.2203 483.786C38.2201 482.987 38.4196 482.295 38.8189 481.709C39.2182 481.109 39.7773 480.643 40.4963 480.31C41.2153 479.977 42.0542 479.81 43.0129 479.81C43.8785 479.809 44.6309 479.962 45.2702 480.268C45.9228 480.574 46.4423 481.014 46.8287 481.586C47.215 482.159 47.4416 482.844 47.5085 483.643L46.0503 483.644C45.9702 482.845 45.6637 482.226 45.1309 481.786C44.5981 481.334 43.8856 481.108 42.9934 481.108C41.9947 481.108 41.1891 481.348 40.5767 481.828C39.9643 482.307 39.6582 482.953 39.6585 483.766C39.6587 484.392 39.8453 484.911 40.2183 485.324C40.5913 485.723 41.1507 486.016 41.8964 486.202L44.3535 486.8C45.4722 487.066 46.3179 487.519 46.8907 488.158C47.4636 488.783 47.7501 489.582 47.7504 490.554C47.7507 491.367 47.5512 492.079 47.1519 492.692C46.7526 493.305 46.1868 493.778 45.4545 494.111C44.7222 494.444 43.8634 494.611 42.8779 494.611C41.9591 494.611 41.1401 494.458 40.4209 494.152C39.715 493.846 39.1556 493.407 38.7426 492.835C38.3429 492.262 38.1097 491.59 38.0428 490.817L39.521 490.817C39.5612 491.576 39.8876 492.182 40.5003 492.634C41.113 493.073 41.9054 493.293 42.8775 493.293C43.9295 493.292 44.7617 493.052 45.3741 492.573C45.9998 492.093 46.3126 491.447 46.3123 490.635C46.3121 489.982 46.1255 489.456 45.7525 489.057C45.3928 488.644 44.8268 488.345 44.0543 488.159L41.6372 487.56C40.5186 487.294 39.6662 486.848 39.08 486.223C38.5072 485.584 38.2206 484.772 38.2203 483.786ZM60.1055 494.366L51.5364 494.368L51.5317 480.067L60.0809 480.064L60.0813 481.382L52.0715 481.385L52.9701 480.605L52.972 486.538L59.4238 486.536L59.4243 487.834L52.9724 487.836L52.9744 493.829L52.0753 493.05L60.1051 493.047L60.1055 494.366ZM70.0569 494.582C68.7252 494.583 67.5533 494.277 66.541 493.664C65.5421 493.039 64.7561 492.174 64.1832 491.068C63.6235 489.963 63.3435 488.678 63.343 487.214C63.3425 485.749 63.6284 484.464 64.2006 483.358C64.7729 482.239 65.5716 481.374 66.5967 480.761C67.6219 480.135 68.8003 479.821 70.1319 479.821C71.1706 479.82 72.1095 480.013 72.9486 480.399C73.7876 480.785 74.4936 481.331 75.0664 482.036C75.6392 482.729 76.019 483.554 76.2058 484.513L74.6677 484.513C74.3611 483.475 73.8016 482.663 72.9891 482.077C72.1766 481.491 71.2044 481.199 70.0725 481.199C69.0338 481.199 68.115 481.453 67.3162 481.959C66.5307 482.452 65.9184 483.151 65.4792 484.057C65.0534 484.949 64.8407 486.001 64.8411 487.213C64.8415 488.398 65.0615 489.444 65.5013 490.349C65.941 491.254 66.5538 491.96 67.3396 492.466C68.1255 492.958 69.0377 493.204 70.0764 493.204C71.2083 493.203 72.1936 492.917 73.0324 492.344C73.8711 491.771 74.4435 491.012 74.7494 490.066L76.2875 490.066C76.0747 490.958 75.6688 491.744 75.0698 492.423C74.4841 493.103 73.7585 493.635 72.8931 494.022C72.0276 494.395 71.0822 494.582 70.0569 494.582ZM79.873 489.385L79.87 480.057L81.3081 480.057L81.3112 489.325C81.3116 490.577 81.6448 491.535 82.3108 492.201C82.9769 492.867 83.9358 493.199 85.1875 493.199C86.3993 493.198 87.338 492.865 88.0036 492.199C88.6692 491.52 89.0018 490.561 89.0014 489.323L88.9984 480.054L90.4366 480.054L90.4396 489.382C90.44 490.461 90.2272 491.393 89.8013 492.179C89.3888 492.951 88.7897 493.551 88.0042 493.977C87.2187 494.39 86.2799 494.597 85.188 494.597C84.0827 494.597 83.1305 494.391 82.3314 493.979C81.5456 493.566 80.9395 492.967 80.5131 492.182C80.0867 491.396 79.8734 490.464 79.873 489.385ZM96.4608 494.354L95.0226 494.354L95.0179 480.052L100.351 480.051C101.789 480.05 102.921 480.423 103.747 481.168C104.586 481.9 105.006 482.905 105.007 484.184C105.007 485.209 104.748 486.068 104.228 486.761C103.723 487.453 103.01 487.926 102.092 488.18L105.15 494.351L103.552 494.351L100.634 488.42L96.4588 488.421L96.4608 494.354ZM96.4565 481.35L96.4584 487.123L100.393 487.122C101.379 487.121 102.144 486.861 102.69 486.342C103.249 485.822 103.529 485.116 103.528 484.224C103.528 483.292 103.242 482.58 102.669 482.087C102.096 481.595 101.324 481.349 100.352 481.349L96.4565 481.35ZM117.567 494.347L108.998 494.35L108.993 480.048L117.542 480.045L117.543 481.363L109.533 481.366L110.431 480.587L110.433 486.519L116.885 486.517L116.886 487.815L110.434 487.817L110.436 493.81L109.537 493.031L117.567 493.029L117.567 494.347Z" fill="#F3F3F3"/>
</g>
<path d="M128.568 483.771L128.57 489.94" stroke="white" stroke-width="1.17498" stroke-linecap="round"/>
<g filter="url(#filter3_di_14_5414)">
<path d="M141.317 480.037L141.322 494.339L139.883 494.34L139.879 480.038L141.317 480.037ZM145.335 489.084L141.02 489.086L141.02 487.788L145.055 487.786C146.093 487.786 146.899 487.486 147.471 486.887C148.044 486.274 148.33 485.481 148.329 484.509C148.329 483.524 148.043 482.752 147.47 482.193C146.897 481.62 146.118 481.334 145.132 481.334L140.398 481.336L140.398 480.038L145.332 480.036C146.251 480.036 147.043 480.222 147.709 480.594C148.388 480.967 148.908 481.493 149.268 482.172C149.641 482.851 149.827 483.637 149.828 484.529C149.828 485.394 149.642 486.173 149.269 486.866C148.91 487.559 148.391 488.105 147.712 488.504C147.046 488.891 146.254 489.084 145.335 489.084ZM154.79 494.335L153.351 494.335L153.347 480.033L158.68 480.032C160.118 480.031 161.25 480.404 162.076 481.149C162.915 481.881 163.335 482.886 163.335 484.165C163.336 485.19 163.076 486.049 162.557 486.742C162.051 487.434 161.339 487.907 160.42 488.161L163.479 494.332L161.881 494.332L158.962 488.401L154.788 488.402L154.79 494.335ZM154.785 481.331L154.787 487.104L158.722 487.103C159.708 487.102 160.473 486.842 161.019 486.323C161.578 485.803 161.858 485.097 161.857 484.205C161.857 483.273 161.57 482.561 160.998 482.068C160.425 481.576 159.653 481.33 158.68 481.33L154.785 481.331ZM168.76 480.028L168.765 494.33L167.327 494.331L167.322 480.029L168.76 480.028ZM177.376 494.327L171.898 480.027L173.436 480.027L177.255 489.973C177.401 490.359 177.548 490.758 177.694 491.171C177.841 491.571 177.994 492.023 178.154 492.529C178.301 492.01 178.453 491.517 178.613 491.051C178.786 490.585 178.926 490.219 179.032 489.952L182.824 480.024L184.302 480.023L178.874 494.327L177.376 494.327ZM185.602 494.325L184.144 494.325L189.392 480.022L191.17 480.021L196.488 494.321L194.99 494.322L193.591 490.527L186.999 490.529L185.602 494.325ZM190.092 482.039L187.438 489.27L193.131 489.269L190.452 482.039C190.425 481.932 190.392 481.826 190.352 481.719C190.312 481.613 190.285 481.526 190.272 481.459C190.258 481.526 190.232 481.619 190.192 481.739C190.165 481.846 190.132 481.946 190.092 482.039ZM202.698 480.656L202.702 494.319L201.264 494.32L201.26 480.657L202.698 480.656ZM196.865 481.337L196.865 480.019L207.112 480.016L207.112 481.334L196.865 481.337ZM218.864 494.314L210.295 494.317L210.29 480.015L218.839 480.012L218.84 481.33L210.83 481.333L211.728 480.554L211.73 486.486L218.182 486.484L218.183 487.782L211.731 487.784L211.733 493.777L210.834 492.998L218.863 492.995L218.864 494.314Z" fill="#F3F3F3"/>
</g>
<path d="M229.617 483.738L229.619 489.907" stroke="white" stroke-width="1.17498" stroke-linecap="round"/>
<g filter="url(#filter4_di_14_5414)">
<path d="M242.192 480.004L242.196 494.306L240.758 494.307L240.754 480.005L242.192 480.004ZM240.998 494.306L240.998 492.988L248.768 492.986L248.768 494.304L240.998 494.306ZM253.553 480.001L253.558 494.302L252.12 494.303L252.115 480.001L253.553 480.001ZM259.652 494.3L258.234 494.301L258.229 479.999L259.647 479.999L264.865 492.601L270.074 479.995L271.512 479.995L271.517 494.297L270.099 494.297L270.097 487.506C270.096 486.88 270.096 486.334 270.096 485.868C270.109 485.402 270.116 484.995 270.116 484.649C270.129 484.303 270.142 483.997 270.155 483.73C270.168 483.451 270.188 483.184 270.215 482.931L265.564 494.298L264.186 494.299L259.528 482.995C259.568 483.261 259.595 483.774 259.609 484.533C259.636 485.279 259.649 486.197 259.65 487.289L259.652 494.3ZM277.622 479.993L277.627 494.295L276.188 494.295L276.184 479.993L277.622 479.993ZM286.632 480.629L286.637 494.292L285.199 494.292L285.194 480.629L286.632 480.629ZM280.8 481.31L280.8 479.992L291.047 479.988L291.047 481.307L280.8 481.31ZM295.663 479.987L295.668 494.289L294.229 494.289L294.225 479.987L295.663 479.987ZM294.469 494.289L294.469 492.971L302.239 492.968L302.239 494.287L294.469 494.289ZM314.16 494.283L305.591 494.285L305.586 479.984L314.135 479.981L314.136 481.299L306.126 481.302L307.025 480.522L307.026 486.455L313.478 486.453L313.479 487.751L307.027 487.753L307.029 493.746L306.13 492.967L314.16 492.964L314.16 494.283ZM317.416 483.695C317.416 482.896 317.616 482.203 318.015 481.617C318.414 481.018 318.973 480.552 319.692 480.219C320.411 479.886 321.25 479.719 322.209 479.718C323.074 479.718 323.827 479.871 324.466 480.177C325.119 480.483 325.638 480.922 326.025 481.495C326.411 482.067 326.638 482.753 326.704 483.552L325.246 483.553C325.166 482.754 324.86 482.135 324.327 481.695C323.794 481.243 323.082 481.017 322.189 481.017C321.191 481.017 320.385 481.257 319.773 481.737C319.16 482.216 318.854 482.862 318.854 483.675C318.855 484.3 319.041 484.82 319.414 485.232C319.787 485.632 320.347 485.925 321.092 486.111L323.549 486.709C324.668 486.975 325.514 487.428 326.087 488.067C326.659 488.692 326.946 489.491 326.946 490.463C326.947 491.276 326.747 491.988 326.348 492.601C325.949 493.213 325.383 493.686 324.65 494.02C323.918 494.353 323.059 494.519 322.074 494.52C321.155 494.52 320.336 494.367 319.617 494.061C318.911 493.755 318.352 493.316 317.939 492.743C317.539 492.171 317.306 491.498 317.239 490.726L318.717 490.726C318.757 491.485 319.084 492.09 319.696 492.543C320.309 492.982 321.101 493.202 322.073 493.201C323.125 493.201 323.958 492.961 324.57 492.481C325.196 492.002 325.508 491.356 325.508 490.544C325.508 489.891 325.321 489.365 324.948 488.966C324.589 488.553 324.023 488.254 323.25 488.068L320.833 487.469C319.714 487.203 318.862 486.757 318.276 486.132C317.703 485.493 317.417 484.68 317.416 483.695ZM329.909 483.691C329.909 482.892 330.108 482.199 330.508 481.613C330.907 481.014 331.466 480.548 332.185 480.215C332.904 479.881 333.743 479.715 334.702 479.714C335.567 479.714 336.32 479.867 336.959 480.173C337.611 480.479 338.131 480.918 338.517 481.491C338.904 482.063 339.13 482.749 339.197 483.548L337.739 483.549C337.659 482.75 337.352 482.13 336.82 481.691C336.287 481.239 335.574 481.012 334.682 481.013C333.683 481.013 332.878 481.253 332.265 481.733C331.653 482.212 331.347 482.858 331.347 483.67C331.347 484.296 331.534 484.816 331.907 485.228C332.28 485.628 332.839 485.92 333.585 486.107L336.042 486.705C337.161 486.971 338.007 487.424 338.579 488.063C339.152 488.688 339.439 489.487 339.439 490.459C339.439 491.272 339.24 491.984 338.841 492.597C338.441 493.209 337.875 493.682 337.143 494.015C336.411 494.349 335.552 494.515 334.567 494.516C333.648 494.516 332.829 494.363 332.11 494.057C331.404 493.751 330.844 493.312 330.431 492.739C330.032 492.167 329.798 491.494 329.732 490.722L331.21 490.722C331.25 491.481 331.576 492.086 332.189 492.539C332.802 492.978 333.594 493.198 334.566 493.197C335.618 493.197 336.45 492.957 337.063 492.477C337.688 491.998 338.001 491.352 338.001 490.54C338.001 489.887 337.814 489.361 337.441 488.962C337.081 488.549 336.515 488.25 335.743 488.063L333.326 487.465C332.207 487.199 331.355 486.753 330.769 486.128C330.196 485.489 329.909 484.676 329.909 483.691Z" fill="#F3F3F3"/>
</g>
<g filter="url(#filter5_n_14_5414)">
<path d="M633.234 117.656V55.2856H548.641V0.615448H785.027V56.0556H700.434V117.656H633.234Z" fill="url(#paint2_linear_14_5414)" fill-opacity="0.06"/>
<path d="M664.854 86.8558C749.447 86.8558 817.437 103.795 817.438 124.585C817.438 145.375 749.447 162.316 664.854 162.316C580.26 162.316 512.27 145.375 512.27 124.585C512.27 103.795 580.261 86.8558 664.854 86.8558ZM664.854 93.014C576.308 93.014 530.454 116.114 524.92 124.584C530.455 132.284 576.309 143.834 664.854 143.834C754.19 143.834 799.254 132.284 804.789 124.584C799.255 116.884 753.401 93.014 664.854 93.014Z" fill="url(#paint3_linear_14_5414)" fill-opacity="0.06"/>
<path d="M700.435 136.905V93.7848C689.367 93.0148 677.508 92.2448 665.649 92.2448C654.581 92.2448 644.303 92.2448 634.025 93.0148V136.135C643.512 136.135 654.581 136.905 665.649 136.905C677.508 137.675 689.367 137.675 700.435 136.905Z" fill="url(#paint4_linear_14_5414)" fill-opacity="0.06"/>
<path d="M664.86 162.315C653.792 162.315 643.514 162.315 633.236 161.545V276.275H699.646V160.775C688.578 161.545 676.719 162.315 664.86 162.315Z" fill="url(#paint5_linear_14_5414)" fill-opacity="0.06"/>
</g>
</g>
<rect x="1.2723" y="1.20812" width="831.453" height="525.707" rx="17.2178" stroke="url(#paint6_linear_14_5414)" stroke-width="1.18522"/>
<defs>
<filter id="filter0_n_14_5414" x="330.436" y="249.259" width="244.559" height="333.946" filterUnits="userSpaceOnUse" color-interpolation-filters="sRGB">
<feFlood flood-opacity="0" result="BackgroundImageFix"/>
<feBlend mode="normal" in="SourceGraphic" in2="BackgroundImageFix" result="shape"/>
<feTurbulence type="fractalNoise" baseFrequency="1.1381313800811768 1.1381313800811768" stitchTiles="stitch" numOctaves="3" result="noise" seed="5610" />
<feColorMatrix in="noise" type="luminanceToAlpha" result="alphaNoise" />
<feComponentTransfer in="alphaNoise" result="coloredNoise1">
<feFuncA type="discrete" tableValues="1 1 1 1 1 1 1 1 1 1 1 1 1 1 1 1 1 1 1 1 1 1 1 1 1 1 1 1 1 1 1 1 1 1 1 1 1 1 1 1 1 1 1 1 1 1 1 1 1 1 1 0 0 0 0 0 0 0 0 0 0 0 0 0 0 0 0 0 0 0 0 0 0 0 0 0 0 0 0 0 0 0 0 0 0 0 0 0 0 0 0 0 0 0 0 0 0 0 0 0 "/>
</feComponentTransfer>
<feComposite operator="in" in2="shape" in="coloredNoise1" result="noise1Clipped" />
<feComponentTransfer in="alphaNoise" result="coloredNoise2">
<feFuncA type="discrete" tableValues="0 0 0 0 0 0 0 0 0 0 0 0 0 0 0 0 0 0 0 0 0 0 0 0 0 0 0 0 0 0 0 0 0 0 0 0 0 0 0 0 0 0 0 0 0 0 0 0 0 1 1 1 1 1 1 1 1 1 1 1 1 1 1 1 1 1 1 1 1 1 1 1 1 1 1 1 1 1 1 1 1 1 1 1 1 1 1 1 1 1 1 1 1 1 1 1 1 1 1 1 "/>
</feComponentTransfer>
<feComposite operator="in" in2="shape" in="coloredNoise2" result="noise2Clipped" />
<feFlood flood-color="rgba(0, 0, 0, 0.25)" result="color1Flood" />
<feComposite operator="in" in2="noise1Clipped" in="color1Flood" result="color1" />
<feFlood flood-color="rgba(255, 255, 255, 0.25)" result="color2Flood" />
<feComposite operator="in" in2="noise2Clipped" in="color2Flood" result="color2" />
<feMerge result="effect1_noise_14_5414">
<feMergeNode in="shape" />
<feMergeNode in="color1" />
<feMergeNode in="color2" />
</feMerge>
</filter>
<filter id="filter1_n_14_5414" x="-432.656" y="-396.705" width="1016.2" height="1475.98" filterUnits="userSpaceOnUse" color-interpolation-filters="sRGB">
<feFlood flood-opacity="0" result="BackgroundImageFix"/>
<feBlend mode="normal" in="SourceGraphic" in2="BackgroundImageFix" result="shape"/>
<feTurbulence type="fractalNoise" baseFrequency="2.5607955455780029 2.5607955455780029" stitchTiles="stitch" numOctaves="3" result="noise" seed="5382" />
<feColorMatrix in="noise" type="luminanceToAlpha" result="alphaNoise" />
<feComponentTransfer in="alphaNoise" result="coloredNoise1">
<feFuncA type="discrete" tableValues="1 1 1 1 1 1 1 1 1 1 1 1 1 1 1 1 1 1 1 1 1 1 1 1 1 1 1 1 1 1 1 1 1 1 1 1 1 1 1 1 1 1 1 1 1 1 1 1 1 1 1 0 0 0 0 0 0 0 0 0 0 0 0 0 0 0 0 0 0 0 0 0 0 0 0 0 0 0 0 0 0 0 0 0 0 0 0 0 0 0 0 0 0 0 0 0 0 0 0 0 "/>
</feComponentTransfer>
<feComposite operator="in" in2="shape" in="coloredNoise1" result="noise1Clipped" />
<feComponentTransfer in="alphaNoise" result="coloredNoise2">
<feFuncA type="discrete" tableValues="0 0 0 0 0 0 0 0 0 0 0 0 0 0 0 0 0 0 0 0 0 0 0 0 0 0 0 0 0 0 0 0 0 0 0 0 0 0 0 0 0 0 0 0 0 0 0 0 0 1 1 1 1 1 1 1 1 1 1 1 1 1 1 1 1 1 1 1 1 1 1 1 1 1 1 1 1 1 1 1 1 1 1 1 1 1 1 1 1 1 1 1 1 1 1 1 1 1 1 1 "/>
</feComponentTransfer>
<feComposite operator="in" in2="shape" in="coloredNoise2" result="noise2Clipped" />
<feFlood flood-color="rgba(0, 0, 0, 0.41)" result="color1Flood" />
<feComposite operator="in" in2="noise1Clipped" in="color1Flood" result="color1" />
<feFlood flood-color="rgba(255, 255, 255, 0.06)" result="color2Flood" />
<feComposite operator="in" in2="noise2Clipped" in="color2Flood" result="color2" />
<feMerge result="effect1_noise_14_5414">
<feMergeNode in="shape" />
<feMergeNode in="color1" />
<feMergeNode in="color2" />
</feMerge>
</filter>
<filter id="filter2_di_14_5414" x="33.3391" y="476.26" width="88.9272" height="24.227" filterUnits="userSpaceOnUse" color-interpolation-filters="sRGB">
<feFlood flood-opacity="0" result="BackgroundImageFix"/>
<feColorMatrix in="SourceAlpha" type="matrix" values="0 0 0 0 0 0 0 0 0 0 0 0 0 0 0 0 0 0 127 0" result="hardAlpha"/>
<feOffset dy="1.17498"/>
<feGaussianBlur stdDeviation="2.34996"/>
<feComposite in2="hardAlpha" operator="out"/>
<feColorMatrix type="matrix" values="0 0 0 0 0.154167 0 0 0 0 0.154167 0 0 0 0 0.154167 0 0 0 0.58 0"/>
<feBlend mode="normal" in2="BackgroundImageFix" result="effect1_dropShadow_14_5414"/>
<feBlend mode="normal" in="SourceGraphic" in2="effect1_dropShadow_14_5414" result="shape"/>
<feColorMatrix in="SourceAlpha" type="matrix" values="0 0 0 0 0 0 0 0 0 0 0 0 0 0 0 0 0 0 127 0" result="hardAlpha"/>
<feOffset dy="-1.17498"/>
<feGaussianBlur stdDeviation="0.587489"/>
<feComposite in2="hardAlpha" operator="arithmetic" k2="-1" k3="1"/>
<feColorMatrix type="matrix" values="0 0 0 0 0.208333 0 0 0 0 0.208333 0 0 0 0 0.208333 0 0 0 0.22 0"/>
<feBlend mode="normal" in2="shape" result="effect2_innerShadow_14_5414"/>
</filter>
<filter id="filter3_di_14_5414" x="135.179" y="476.487" width="88.3842" height="23.7275" filterUnits="userSpaceOnUse" color-interpolation-filters="sRGB">
<feFlood flood-opacity="0" result="BackgroundImageFix"/>
<feColorMatrix in="SourceAlpha" type="matrix" values="0 0 0 0 0 0 0 0 0 0 0 0 0 0 0 0 0 0 127 0" result="hardAlpha"/>
<feOffset dy="1.17498"/>
<feGaussianBlur stdDeviation="2.34996"/>
<feComposite in2="hardAlpha" operator="out"/>
<feColorMatrix type="matrix" values="0 0 0 0 0.154167 0 0 0 0 0.154167 0 0 0 0 0.154167 0 0 0 0.58 0"/>
<feBlend mode="normal" in2="BackgroundImageFix" result="effect1_dropShadow_14_5414"/>
<feBlend mode="normal" in="SourceGraphic" in2="effect1_dropShadow_14_5414" result="shape"/>
<feColorMatrix in="SourceAlpha" type="matrix" values="0 0 0 0 0 0 0 0 0 0 0 0 0 0 0 0 0 0 127 0" result="hardAlpha"/>
<feOffset dy="-1.17498"/>
<feGaussianBlur stdDeviation="0.587489"/>
<feComposite in2="hardAlpha" operator="arithmetic" k2="-1" k3="1"/>
<feColorMatrix type="matrix" values="0 0 0 0 0.208333 0 0 0 0 0.208333 0 0 0 0 0.208333 0 0 0 0.22 0"/>
<feBlend mode="normal" in2="shape" result="effect2_innerShadow_14_5414"/>
</filter>
<filter id="filter4_di_14_5414" x="236.054" y="476.188" width="108.085" height="24.2333" filterUnits="userSpaceOnUse" color-interpolation-filters="sRGB">
<feFlood flood-opacity="0" result="BackgroundImageFix"/>
<feColorMatrix in="SourceAlpha" type="matrix" values="0 0 0 0 0 0 0 0 0 0 0 0 0 0 0 0 0 0 127 0" result="hardAlpha"/>
<feOffset dy="1.17498"/>
<feGaussianBlur stdDeviation="2.34996"/>
<feComposite in2="hardAlpha" operator="out"/>
<feColorMatrix type="matrix" values="0 0 0 0 0.154167 0 0 0 0 0.154167 0 0 0 0 0.154167 0 0 0 0.58 0"/>
<feBlend mode="normal" in2="BackgroundImageFix" result="effect1_dropShadow_14_5414"/>
<feBlend mode="normal" in="SourceGraphic" in2="effect1_dropShadow_14_5414" result="shape"/>
<feColorMatrix in="SourceAlpha" type="matrix" values="0 0 0 0 0 0 0 0 0 0 0 0 0 0 0 0 0 0 127 0" result="hardAlpha"/>
<feOffset dy="-1.17498"/>
<feGaussianBlur stdDeviation="0.587489"/>
<feComposite in2="hardAlpha" operator="arithmetic" k2="-1" k3="1"/>
<feColorMatrix type="matrix" values="0 0 0 0 0.208333 0 0 0 0 0.208333 0 0 0 0 0.208333 0 0 0 0.22 0"/>
<feBlend mode="normal" in2="shape" result="effect2_innerShadow_14_5414"/>
</filter>
<filter id="filter5_n_14_5414" x="512.27" y="0.615448" width="305.168" height="275.66" filterUnits="userSpaceOnUse" color-interpolation-filters="sRGB">
<feFlood flood-opacity="0" result="BackgroundImageFix"/>
<feBlend mode="normal" in="SourceGraphic" in2="BackgroundImageFix" result="shape"/>
<feTurbulence type="fractalNoise" baseFrequency="1.1381313800811768 1.1381313800811768" stitchTiles="stitch" numOctaves="3" result="noise" seed="5610" />
<feColorMatrix in="noise" type="luminanceToAlpha" result="alphaNoise" />
<feComponentTransfer in="alphaNoise" result="coloredNoise1">
<feFuncA type="discrete" tableValues="1 1 1 1 1 1 1 1 1 1 1 1 1 1 1 1 1 1 1 1 1 1 1 1 1 1 1 1 1 1 1 1 1 1 1 1 1 1 1 1 1 1 1 1 1 1 1 1 1 1 1 0 0 0 0 0 0 0 0 0 0 0 0 0 0 0 0 0 0 0 0 0 0 0 0 0 0 0 0 0 0 0 0 0 0 0 0 0 0 0 0 0 0 0 0 0 0 0 0 0 "/>
</feComponentTransfer>
<feComposite operator="in" in2="shape" in="coloredNoise1" result="noise1Clipped" />
<feComponentTransfer in="alphaNoise" result="coloredNoise2">
<feFuncA type="discrete" tableValues="0 0 0 0 0 0 0 0 0 0 0 0 0 0 0 0 0 0 0 0 0 0 0 0 0 0 0 0 0 0 0 0 0 0 0 0 0 0 0 0 0 0 0 0 0 0 0 0 0 1 1 1 1 1 1 1 1 1 1 1 1 1 1 1 1 1 1 1 1 1 1 1 1 1 1 1 1 1 1 1 1 1 1 1 1 1 1 1 1 1 1 1 1 1 1 1 1 1 1 1 "/>
</feComponentTransfer>
<feComposite operator="in" in2="shape" in="coloredNoise2" result="noise2Clipped" />
<feFlood flood-color="rgba(0, 0, 0, 0.25)" result="color1Flood" />
<feComposite operator="in" in2="noise1Clipped" in="color1Flood" result="color1" />
<feFlood flood-color="rgba(255, 255, 255, 0.25)" result="color2Flood" />
<feComposite operator="in" in2="noise2Clipped" in="color2Flood" result="color2" />
<feMerge result="effect1_noise_14_5414">
<feMergeNode in="shape" />
<feMergeNode in="color1" />
<feMergeNode in="color2" />
</feMerge>
</filter>
<linearGradient id="paint0_linear_14_5414" x1="391.812" y1="251.777" x2="486.045" y2="580.545" gradientUnits="userSpaceOnUse">
<stop stop-color="#171717"/>
<stop offset="1" stop-color="#B9B9B9"/>
</linearGradient>
<linearGradient id="paint1_linear_14_5414" x1="80.6202" y1="193.856" x2="-702.028" y2="339.206" gradientUnits="userSpaceOnUse">
<stop stop-color="#1C1C1C"/>
<stop offset="0.742198"/>
</linearGradient>
<linearGradient id="paint2_linear_14_5414" x1="666.834" y1="0.615448" x2="666.834" y2="117.656" gradientUnits="userSpaceOnUse">
<stop stop-color="#171717"/>
<stop offset="1" stop-color="#B9B9B9"/>
</linearGradient>
<linearGradient id="paint3_linear_14_5414" x1="664.854" y1="86.8558" x2="664.854" y2="162.316" gradientUnits="userSpaceOnUse">
<stop stop-color="#171717"/>
<stop offset="1" stop-color="#B9B9B9"/>
</linearGradient>
<linearGradient id="paint4_linear_14_5414" x1="667.23" y1="92.2448" x2="667.23" y2="137.482" gradientUnits="userSpaceOnUse">
<stop stop-color="#171717"/>
<stop offset="1" stop-color="#B9B9B9"/>
</linearGradient>
<linearGradient id="paint5_linear_14_5414" x1="666.441" y1="160.775" x2="666.441" y2="276.275" gradientUnits="userSpaceOnUse">
<stop stop-color="#171717"/>
<stop offset="1" stop-color="#B9B9B9"/>
</linearGradient>
<linearGradient id="paint6_linear_14_5414" x1="102.888" y1="-9.9175" x2="763.658" y2="487.738" gradientUnits="userSpaceOnUse">
<stop stop-color="white"/>
<stop offset="1" stop-color="#626060"/>
</linearGradient>
<clipPath id="clip0_14_5414">
<rect x="0.679688" y="0.615509" width="832.638" height="526.892" rx="17.8104" fill="white"/>
</clipPath>
</defs>
</svg>
