<svg width="833" height="527" viewBox="0 0 833 527" fill="none" xmlns="http://www.w3.org/2000/svg">
<g clip-path="url(#clip0_126_282)">
<rect x="0.361328" width="832.638" height="526.892" rx="17.8104" fill="#111111"/>
<g filter="url(#filter0_n_126_282)">
<path d="M420.403 250.557L422.11 299.697C430.252 299.251 438.447 298.807 446.462 298.529L444.761 249.712L475.288 248.644L477.034 298.782C516.549 300.862 548.172 311.894 552.914 347.917L552.906 347.919C556.414 374.278 545.904 390.539 528.528 400.181C557.899 406.169 576.744 422.848 574.494 461.77C571.726 510.094 536.257 524.272 485.052 529.002L486.804 579.621L456.286 580.687L454.561 530.745C446.653 531.028 438.549 531.243 430.181 531.359L431.921 581.534L401.434 582.59L399.654 531.873C392.521 532.074 385.245 532.203 377.854 532.451L338.129 533.837L342.922 497.171C342.973 497.17 365.507 496.737 365.107 496.405C373.743 496.089 375.814 489.806 376.221 485.897L373.452 405.878L376.667 405.764C375.401 405.635 374.287 405.638 373.434 405.664L371.443 348.546C370.065 342.392 365.784 335.358 353.422 335.784C353.782 335.356 331.26 336.57 331.26 336.57L330.118 303.975L372.211 302.525L372.221 302.68C378.548 302.455 385.032 302.106 391.635 301.741L389.902 251.618L420.403 250.557ZM429.591 494.418C450.284 493.684 515.309 495.73 513.981 457.833L513.99 457.83C512.591 418.312 447.949 426.516 427.259 427.231L429.591 494.418ZM426.181 396.479C443.417 395.875 497.671 398.015 496.481 363.538C495.233 327.576 441.297 334.941 424.061 335.544L426.181 396.479Z" fill="url(#paint0_linear_126_282)" fill-opacity="0.06"/>
</g>
<g filter="url(#filter1_n_126_282)">
<rect x="-432.975" y="-194.56" width="549.273" height="1369.98" transform="rotate(-21.6628 -432.975 -194.56)" fill="url(#paint1_linear_126_282)"/>
</g>
<path opacity="0.9" d="M73.3061 254.066V256.913H62.5953V287.501H59.3146V256.913H48.6038V254.066H73.3061ZM84.5318 285.233C85.754 285.233 86.8155 285.201 87.7161 285.137C88.6488 285.04 89.4369 284.928 90.0801 284.799V276.018C89.7263 275.857 89.1635 275.697 88.3915 275.536C87.6196 275.343 86.5581 275.246 85.2072 275.246C84.4353 275.246 83.6312 275.311 82.7949 275.439C81.9586 275.536 81.1867 275.777 80.479 276.163C79.7714 276.517 79.1925 277.015 78.7422 277.659C78.2919 278.302 78.0667 279.154 78.0667 280.216C78.0667 281.148 78.2115 281.937 78.5009 282.58C78.8226 283.223 79.2568 283.738 79.8036 284.124C80.3826 284.51 81.058 284.799 81.83 284.992C82.6341 285.153 83.5347 285.233 84.5318 285.233ZM84.2423 261.978C85.8827 261.978 87.2658 262.22 88.3915 262.702C89.5494 263.152 90.4822 263.796 91.1898 264.632C91.8974 265.436 92.4121 266.401 92.7337 267.527C93.0554 268.653 93.2162 269.875 93.2162 271.194V286.922C92.8945 287.019 92.4282 287.131 91.817 287.26C91.2059 287.356 90.4983 287.469 89.6942 287.597C88.8901 287.726 87.9895 287.823 86.9924 287.887C86.0274 287.983 85.0303 288.032 84.0011 288.032C82.6823 288.032 81.4601 287.887 80.3343 287.597C79.2407 287.308 78.2758 286.858 77.4395 286.247C76.6354 285.603 75.9921 284.799 75.5096 283.834C75.0593 282.837 74.8342 281.631 74.8342 280.216C74.8342 278.865 75.0915 277.707 75.6061 276.742C76.1208 275.777 76.8445 274.989 77.7772 274.378C78.71 273.735 79.8197 273.268 81.1063 272.979C82.3928 272.689 83.792 272.544 85.3037 272.544C85.754 272.544 86.2204 272.577 86.7029 272.641C87.2175 272.673 87.7 272.737 88.1503 272.834C88.6327 272.898 89.0348 272.979 89.3564 273.075C89.7103 273.14 89.9515 273.204 90.0801 273.268V271.724C90.0801 270.856 90.0158 270.02 89.8872 269.215C89.7585 268.379 89.469 267.639 89.0187 266.996C88.6006 266.321 87.9895 265.79 87.1853 265.404C86.4134 264.986 85.3841 264.777 84.0976 264.777C82.2642 264.777 80.8972 264.905 79.9966 265.163C79.096 265.42 78.4366 265.629 78.0185 265.79L77.5842 263.04C78.131 262.783 78.9673 262.541 80.0931 262.316C81.251 262.091 82.6341 261.978 84.2423 261.978ZM104.351 283.014C104.64 283.239 104.994 283.48 105.412 283.738C105.863 283.995 106.377 284.236 106.956 284.461C107.535 284.687 108.162 284.88 108.838 285.04C109.513 285.169 110.221 285.233 110.961 285.233C112.505 285.233 113.791 284.976 114.821 284.461C115.882 283.915 116.734 283.191 117.378 282.29C118.021 281.358 118.487 280.28 118.777 279.058C119.066 277.803 119.211 276.485 119.211 275.102C119.211 271.821 118.391 269.312 116.75 267.575C115.11 265.806 112.939 264.922 110.237 264.922C108.693 264.922 107.439 265.002 106.474 265.163C105.541 265.291 104.833 265.436 104.351 265.597V283.014ZM104.351 296.427H101.215V263.426C102.148 263.104 103.338 262.799 104.785 262.509C106.233 262.22 108.066 262.075 110.285 262.075C112.119 262.075 113.775 262.381 115.255 262.992C116.766 263.571 118.053 264.423 119.115 265.549C120.208 266.674 121.044 268.041 121.623 269.65C122.234 271.258 122.54 273.075 122.54 275.102C122.54 276.999 122.283 278.752 121.768 280.36C121.286 281.937 120.562 283.304 119.597 284.461C118.632 285.587 117.442 286.472 116.027 287.115C114.644 287.758 113.051 288.08 111.25 288.08C109.61 288.08 108.179 287.855 106.956 287.404C105.766 286.922 104.898 286.472 104.351 286.054V296.427ZM148.256 287.501C147.323 285.635 146.294 283.754 145.168 281.856C144.075 279.926 142.804 277.964 141.357 275.97C140.906 276.549 140.327 277.353 139.62 278.382C138.944 279.412 138.253 280.505 137.545 281.663C136.87 282.821 136.226 283.931 135.615 284.992C135.004 286.054 134.554 286.89 134.264 287.501H125.676C127.092 284.896 128.732 282.162 130.598 279.299C132.495 276.436 134.602 273.397 136.918 270.18L126.159 254.066H135.278L141.791 264.487L148.159 254.066H156.747L146.133 270.277C148.835 273.783 151.102 277.031 152.936 280.023C154.769 282.982 156.217 285.475 157.278 287.501H148.256Z" fill="white"/>
<path d="M170.153 286.909C168.841 286.909 167.617 286.674 166.482 286.204C165.366 285.734 164.387 285.049 163.545 284.148C162.723 283.247 162.067 282.141 161.577 280.83C161.107 279.498 160.873 277.981 160.873 276.278C160.873 274.574 161.127 273.067 161.636 271.755C162.165 270.424 162.86 269.308 163.721 268.407C164.583 267.506 165.581 266.831 166.717 266.381C167.852 265.911 169.037 265.676 170.27 265.676C171.034 265.676 171.729 265.725 172.355 265.823C172.982 265.921 173.53 266.048 174 266.205C174.47 266.342 174.871 266.488 175.204 266.645C175.537 266.782 175.791 266.909 175.967 267.027L175.321 268.759C174.832 268.466 174.205 268.182 173.442 267.908C172.698 267.614 171.768 267.467 170.652 267.467C169.379 267.467 168.263 267.683 167.304 268.113C166.364 268.544 165.571 269.151 164.925 269.934C164.279 270.717 163.79 271.647 163.457 272.724C163.144 273.801 162.987 274.995 162.987 276.307C162.987 277.658 163.144 278.882 163.457 279.978C163.79 281.055 164.269 281.975 164.896 282.738C165.522 283.502 166.286 284.089 167.187 284.501C168.107 284.912 169.154 285.117 170.329 285.117C171.621 285.117 172.698 285 173.559 284.765C174.44 284.51 175.106 284.256 175.556 284.001L176.114 285.705C175.977 285.802 175.742 285.92 175.409 286.057C175.077 286.174 174.656 286.302 174.147 286.439C173.638 286.576 173.05 286.684 172.385 286.762C171.719 286.86 170.975 286.909 170.153 286.909ZM184.26 285.088C185.004 285.088 185.65 285.068 186.198 285.029C186.766 284.97 187.246 284.902 187.637 284.824V279.479C187.422 279.381 187.079 279.283 186.61 279.185C186.14 279.068 185.494 279.009 184.671 279.009C184.201 279.009 183.712 279.048 183.203 279.126C182.694 279.185 182.224 279.332 181.793 279.567C181.363 279.782 181.01 280.086 180.736 280.477C180.462 280.869 180.325 281.388 180.325 282.034C180.325 282.601 180.413 283.081 180.589 283.473C180.785 283.864 181.049 284.177 181.382 284.412C181.735 284.647 182.146 284.824 182.616 284.941C183.105 285.039 183.653 285.088 184.26 285.088ZM184.084 270.933C185.082 270.933 185.924 271.08 186.61 271.373C187.314 271.647 187.882 272.039 188.313 272.548C188.744 273.037 189.057 273.625 189.253 274.31C189.448 274.995 189.546 275.739 189.546 276.542V286.116C189.351 286.174 189.067 286.243 188.695 286.321C188.323 286.38 187.892 286.449 187.402 286.527C186.913 286.605 186.365 286.664 185.758 286.703C185.171 286.762 184.564 286.791 183.937 286.791C183.134 286.791 182.39 286.703 181.705 286.527C181.04 286.351 180.452 286.077 179.943 285.705C179.454 285.313 179.062 284.824 178.768 284.236C178.494 283.629 178.357 282.895 178.357 282.034C178.357 281.211 178.514 280.507 178.827 279.919C179.14 279.332 179.581 278.852 180.149 278.48C180.716 278.089 181.392 277.805 182.175 277.628C182.958 277.452 183.81 277.364 184.73 277.364C185.004 277.364 185.288 277.384 185.582 277.423C185.895 277.443 186.189 277.482 186.463 277.54C186.756 277.58 187.001 277.629 187.197 277.687C187.412 277.726 187.559 277.766 187.637 277.805V276.865C187.637 276.336 187.598 275.827 187.52 275.338C187.442 274.829 187.265 274.378 186.991 273.987C186.737 273.576 186.365 273.253 185.875 273.018C185.405 272.763 184.779 272.636 183.996 272.636C182.88 272.636 182.048 272.714 181.5 272.871C180.951 273.028 180.55 273.155 180.296 273.253L180.031 271.579C180.364 271.422 180.873 271.275 181.558 271.138C182.263 271.001 183.105 270.933 184.084 270.933ZM199.584 270.991C200.21 270.991 200.798 271.04 201.346 271.138C201.914 271.236 202.305 271.334 202.521 271.432L202.139 273.077C201.982 272.998 201.659 272.92 201.17 272.842C200.7 272.744 200.073 272.695 199.29 272.695C198.468 272.695 197.802 272.753 197.293 272.871C196.804 272.988 196.481 273.086 196.324 273.165V286.468H194.415V271.99C194.905 271.775 195.58 271.559 196.441 271.344C197.303 271.109 198.35 270.991 199.584 270.991ZM217.469 285.998C216.902 286.194 216.177 286.38 215.296 286.556C214.415 286.732 213.299 286.821 211.948 286.821C210.832 286.821 209.814 286.644 208.894 286.292C207.993 285.92 207.21 285.391 206.545 284.706C205.899 284.021 205.39 283.189 205.018 282.21C204.665 281.231 204.489 280.125 204.489 278.891C204.489 277.736 204.636 276.679 204.929 275.72C205.243 274.741 205.693 273.899 206.28 273.194C206.868 272.489 207.582 271.941 208.424 271.549C209.286 271.158 210.265 270.962 211.361 270.962C212.359 270.962 213.221 271.109 213.945 271.403C214.689 271.677 215.228 271.941 215.56 272.195V264.031L217.469 263.679V285.998ZM215.56 274.046C215.384 273.909 215.159 273.762 214.885 273.605C214.63 273.449 214.327 273.302 213.975 273.165C213.622 273.028 213.24 272.92 212.829 272.842C212.418 272.744 211.987 272.695 211.537 272.695C210.597 272.695 209.804 272.861 209.158 273.194C208.532 273.527 208.023 273.977 207.631 274.545C207.24 275.093 206.956 275.749 206.78 276.513C206.603 277.257 206.515 278.049 206.515 278.891C206.515 280.888 207.015 282.425 208.013 283.502C209.012 284.559 210.333 285.088 211.978 285.088C212.917 285.088 213.671 285.049 214.239 284.97C214.826 284.873 215.267 284.775 215.56 284.677V274.046Z" fill="white"/>
<path d="M156.368 239.594C155.434 239.618 154.647 238.912 154.539 237.978C154.411 236.88 155.256 235.919 156.34 235.914C165.962 235.774 174.399 242.459 176.451 251.85C176.686 252.918 175.934 253.951 174.854 254.076C173.92 254.184 173.05 253.561 172.85 252.638C171.17 244.939 164.245 239.451 156.368 239.594Z" fill="white"/>
<path d="M157.157 246.97C156.243 246.927 155.497 246.253 155.393 245.356C155.264 244.239 156.122 243.24 157.231 243.288C162.77 243.537 167.561 247.333 169.059 252.66C169.367 253.719 168.582 254.793 167.484 254.92L167.466 254.922C166.569 255.026 165.75 254.444 165.491 253.574C164.399 249.832 161.049 247.178 157.157 246.97Z" fill="white"/>
<path d="M775.781 56.3467C776.826 55.8172 777.854 56.1772 778.218 56.8952L778.235 56.9264L778.252 56.9566C782.701 64.6468 785.315 73.4393 785.366 82.9786C785.417 92.5083 782.901 101.32 778.543 109.051C777.989 109.929 777.061 110.175 776.12 109.737C775.262 109.178 775.029 108.253 775.473 107.317C779.672 100.151 781.933 91.848 781.885 82.9972C781.838 74.1236 779.29 65.8533 775.219 58.7579C774.709 57.7222 775.069 56.7074 775.781 56.3467ZM764.965 62.0167C765.991 61.5266 766.99 61.8863 767.348 62.5919L767.372 62.6376L767.398 62.6814C771.069 68.6669 773.109 75.5708 773.149 83.0437C773.189 90.5132 771.224 97.4359 767.62 103.458C767.068 104.347 766.135 104.598 765.189 104.158C764.329 103.597 764.097 102.666 764.546 101.727C767.612 96.2839 769.518 89.8691 769.481 83.0632C769.445 76.2878 767.674 69.8829 764.342 64.439C763.891 63.5095 764.114 62.584 764.965 62.0167ZM754.021 67.6375C754.61 67.2123 755.715 67.3626 756.371 68.2412C759.08 72.5399 760.716 77.7367 760.745 83.1097C760.775 88.6662 759.194 93.6939 756.529 98.024C755.912 98.8728 754.968 99.1115 754.154 98.6304C753.271 97.9839 753.11 96.8825 753.528 96.29L753.549 96.2596L753.569 96.2292C755.929 92.447 757.291 87.8828 757.266 83.1283C757.24 78.3749 755.83 73.8267 753.43 70.0704C752.911 69.2457 753.145 68.2706 754.021 67.6375ZM743.337 73.1447C744.161 72.5496 745.225 72.7357 745.706 73.4016L745.724 73.4249C746.789 74.8295 747.662 76.3907 748.184 77.9217C748.734 79.7225 749.084 81.4644 749.093 83.1718C749.103 84.9688 748.93 86.6699 748.271 88.3442C747.553 90.1675 746.858 91.565 745.828 92.954L745.819 92.9657L745.81 92.9785C745.336 93.6492 744.274 93.8459 743.444 93.2596C742.78 92.7903 742.58 91.7448 743.146 90.9184C743.99 89.8422 744.604 88.5838 745.007 87.3538C745.426 86.0732 745.621 84.6175 745.614 83.1903C745.606 81.7633 745.395 80.3104 744.962 79.0345C744.547 77.8089 743.919 76.5571 743.064 75.4899C742.489 74.6694 742.678 73.6211 743.337 73.1447Z" fill="white"/>
<g filter="url(#filter2_di_126_282)">
<path d="M37.902 483.171C37.9017 482.372 38.1012 481.679 38.5005 481.093C38.8998 480.494 39.459 480.028 40.1779 479.694C40.8969 479.361 41.7358 479.195 42.6946 479.194C43.5601 479.194 44.3126 479.347 44.9519 479.653C45.6045 479.959 46.124 480.398 46.5103 480.971C46.8967 481.543 47.1233 482.229 47.1901 483.028L45.732 483.028C45.6518 482.229 45.3453 481.61 44.8125 481.171C44.2797 480.718 43.5672 480.492 42.675 480.493C41.6763 480.493 40.8707 480.733 40.2583 481.212C39.6459 481.692 39.3399 482.338 39.3401 483.15C39.3403 483.776 39.5269 484.295 39.8999 484.708C40.2729 485.107 40.8323 485.4 41.5781 485.586L44.0352 486.185C45.1538 486.451 45.9996 486.903 46.5724 487.542C47.1452 488.168 47.4318 488.967 47.4321 489.939C47.4323 490.751 47.2328 491.464 46.8335 492.076C46.4342 492.689 45.8684 493.162 45.1362 493.495C44.4039 493.828 43.545 493.995 42.5596 493.995C41.6408 493.996 40.8217 493.843 40.1026 493.537C39.3967 493.231 38.8373 492.792 38.4243 492.219C38.0246 491.647 37.7913 490.974 37.7245 490.202L39.2026 490.201C39.2428 490.96 39.5693 491.566 40.182 492.019C40.7947 492.458 41.5871 492.677 42.5592 492.677C43.6112 492.677 44.4434 492.437 45.0558 491.957C45.6815 491.478 45.9942 490.832 45.9939 490.019C45.9937 489.367 45.8071 488.841 45.4341 488.442C45.0744 488.029 44.5084 487.729 43.736 487.543L41.3189 486.945C40.2002 486.679 39.3478 486.233 38.7617 485.607C38.1889 484.968 37.9023 484.156 37.902 483.171ZM59.7872 493.75L51.218 493.753L51.2134 479.451L59.7625 479.448L59.763 480.767L51.7531 480.769L52.6517 479.99L52.6537 485.922L59.1055 485.92L59.1059 487.219L52.6541 487.221L52.656 493.213L51.7569 492.434L59.7867 492.432L59.7872 493.75ZM69.7385 493.967C68.4069 493.967 67.2349 493.661 66.2227 493.049C65.2237 492.423 64.4378 491.558 63.8648 490.453C63.3052 489.348 63.0251 488.063 63.0246 486.598C63.0241 485.133 63.31 483.848 63.8823 482.743C64.4545 481.624 65.2532 480.758 66.2784 480.145C67.3035 479.519 68.4819 479.206 69.8136 479.205C70.8523 479.205 71.7911 479.398 72.6302 479.784C73.4693 480.17 74.1752 480.715 74.748 481.421C75.3209 482.113 75.7007 482.939 75.8874 483.897L74.3494 483.898C74.0427 482.859 73.4832 482.047 72.6707 481.462C71.8582 480.876 70.886 480.583 69.7541 480.584C68.7154 480.584 67.7967 480.837 66.9979 481.344C66.2124 481.836 65.6 482.536 65.1609 483.441C64.735 484.334 64.5223 485.386 64.5227 486.598C64.5231 487.783 64.7432 488.828 65.1829 489.733C65.6226 490.639 66.2354 491.344 67.0213 491.85C67.8071 492.343 68.7194 492.589 69.758 492.588C70.8899 492.588 71.8752 492.301 72.714 491.728C73.5527 491.156 74.1251 490.396 74.4311 489.451L75.9691 489.45C75.7563 490.343 75.3505 491.128 74.7514 491.808C74.1657 492.487 73.4402 493.02 72.5747 493.406C71.7093 493.78 70.7639 493.966 69.7385 493.967ZM79.5547 488.77L79.5516 479.442L80.9898 479.441L80.9928 488.71C80.9932 489.961 81.3264 490.92 81.9925 491.586C82.6585 492.251 83.6174 492.584 84.8692 492.583C86.0809 492.583 87.0196 492.25 87.6853 491.584C88.3509 490.904 88.6835 489.946 88.683 488.707L88.68 479.439L90.1182 479.438L90.1212 488.767C90.1216 489.845 89.9088 490.777 89.483 491.563C89.0704 492.336 88.4714 492.935 87.6858 493.362C86.9003 493.775 85.9616 493.981 84.8696 493.982C83.7643 493.982 82.8122 493.776 82.013 493.363C81.2272 492.951 80.6211 492.352 80.1948 491.566C79.7684 490.781 79.555 489.849 79.5547 488.77ZM96.1424 493.738L94.7042 493.739L94.6996 479.437L100.033 479.435C101.471 479.435 102.603 479.807 103.429 480.553C104.268 481.285 104.688 482.29 104.688 483.568C104.689 484.594 104.429 485.453 103.91 486.145C103.404 486.838 102.692 487.311 101.773 487.564L104.831 493.735L103.233 493.736L100.315 487.804L96.1405 487.806L96.1424 493.738ZM96.1382 480.735L96.14 486.507L100.075 486.506C101.06 486.506 101.826 486.246 102.372 485.726C102.931 485.207 103.21 484.501 103.21 483.609C103.21 482.677 102.923 481.964 102.351 481.472C101.778 480.979 101.005 480.733 100.033 480.734L96.1382 480.735ZM117.249 493.731L108.679 493.734L108.675 479.432L117.224 479.43L117.224 480.748L109.215 480.75L110.113 479.971L110.115 485.904L116.567 485.902L116.567 487.2L110.115 487.202L110.117 493.194L109.218 492.416L117.248 492.413L117.249 493.731Z" fill="#F3F3F3"/>
</g>
<path d="M128.249 483.156L128.251 489.324" stroke="white" stroke-width="1.17498" stroke-linecap="round"/>
<g filter="url(#filter3_di_126_282)">
<path d="M140.998 479.422L141.002 493.724L139.564 493.724L139.559 479.422L140.998 479.422ZM145.015 488.469L140.701 488.47L140.7 487.172L144.735 487.171C145.774 487.17 146.58 486.871 147.152 486.271C147.724 485.658 148.01 484.866 148.01 483.894C148.01 482.908 147.723 482.136 147.15 481.577C146.578 481.005 145.799 480.719 144.813 480.719L140.079 480.72L140.079 479.422L145.012 479.42C145.931 479.42 146.724 479.606 147.39 479.979C148.069 480.352 148.588 480.877 148.948 481.556C149.321 482.236 149.508 483.021 149.508 483.913C149.509 484.779 149.322 485.558 148.95 486.251C148.59 486.943 148.071 487.489 147.392 487.889C146.727 488.275 145.934 488.469 145.015 488.469ZM154.47 493.719L153.032 493.72L153.027 479.418L158.361 479.416C159.799 479.416 160.931 479.788 161.757 480.534C162.596 481.266 163.016 482.271 163.016 483.549C163.016 484.575 162.757 485.434 162.238 486.126C161.732 486.819 161.02 487.292 160.101 487.545L163.159 493.716L161.561 493.717L158.643 487.785L154.468 487.787L154.47 493.719ZM154.466 480.716L154.468 486.488L158.403 486.487C159.388 486.487 160.154 486.227 160.7 485.707C161.259 485.188 161.538 484.482 161.538 483.59C161.538 482.658 161.251 481.945 160.678 481.453C160.106 480.96 159.333 480.714 158.361 480.714L154.466 480.716ZM168.441 479.413L168.446 493.715L167.007 493.715L167.003 479.413L168.441 479.413ZM177.056 493.712L171.579 479.412L173.117 479.411L176.935 489.357C177.082 489.744 177.228 490.143 177.375 490.556C177.522 490.955 177.675 491.408 177.835 491.914C177.981 491.395 178.134 490.902 178.294 490.436C178.467 489.969 178.606 489.603 178.713 489.337L182.505 479.408L183.983 479.408L178.555 493.711L177.056 493.712ZM185.283 493.709L183.824 493.71L189.073 479.406L190.851 479.406L196.169 493.706L194.671 493.706L193.271 489.911L186.68 489.914L185.283 493.709ZM189.773 481.423L187.119 488.655L192.811 488.653L190.132 481.423C190.106 481.317 190.072 481.21 190.032 481.104C189.992 480.997 189.966 480.911 189.952 480.844C189.939 480.911 189.913 481.004 189.873 481.124C189.846 481.23 189.813 481.33 189.773 481.423ZM202.378 480.041L202.383 493.704L200.945 493.704L200.94 480.041L202.378 480.041ZM196.546 480.722L196.546 479.404L206.793 479.4L206.793 480.719L196.546 480.722ZM218.545 493.698L209.975 493.701L209.971 479.399L218.52 479.397L218.52 480.715L210.511 480.717L211.409 479.938L211.411 485.871L217.863 485.869L217.863 487.167L211.411 487.169L211.413 493.161L210.514 492.383L218.544 492.38L218.545 493.698Z" fill="#F3F3F3"/>
</g>
<path d="M229.298 483.123L229.3 489.291" stroke="white" stroke-width="1.17498" stroke-linecap="round"/>
<g filter="url(#filter4_di_126_282)">
<path d="M241.872 479.389L241.877 493.691L240.439 493.691L240.434 479.389L241.872 479.389ZM240.679 493.691L240.678 492.373L248.448 492.37L248.449 493.688L240.679 493.691ZM253.234 479.385L253.239 493.687L251.8 493.687L251.796 479.386L253.234 479.385ZM259.333 493.685L257.914 493.685L257.91 479.384L259.328 479.383L264.545 491.985L269.755 479.38L271.193 479.379L271.198 493.681L269.779 493.682L269.777 486.89C269.777 486.264 269.777 485.718 269.777 485.252C269.79 484.786 269.796 484.38 269.796 484.034C269.809 483.688 269.823 483.381 269.836 483.115C269.849 482.835 269.869 482.569 269.896 482.316L265.245 493.683L263.867 493.683L259.209 482.379C259.249 482.646 259.276 483.158 259.29 483.917C259.316 484.663 259.33 485.582 259.33 486.674L259.333 493.685ZM277.302 479.377L277.307 493.679L275.869 493.68L275.864 479.378L277.302 479.377ZM286.313 480.013L286.318 493.676L284.879 493.677L284.875 480.014L286.313 480.013ZM280.481 480.695L280.48 479.376L290.727 479.373L290.728 480.691L280.481 480.695ZM295.344 479.371L295.348 493.673L293.91 493.674L293.905 479.372L295.344 479.371ZM294.15 493.674L294.149 492.355L301.92 492.353L301.92 493.671L294.15 493.674ZM313.841 493.667L305.271 493.67L305.267 479.368L313.816 479.365L313.816 480.684L305.807 480.686L306.705 479.907L306.707 485.839L313.159 485.837L313.159 487.136L306.708 487.138L306.709 493.13L305.81 492.351L313.84 492.349L313.841 493.667ZM317.097 483.08C317.097 482.281 317.296 481.588 317.695 481.002C318.095 480.403 318.654 479.936 319.373 479.603C320.092 479.27 320.931 479.103 321.89 479.103C322.755 479.103 323.508 479.256 324.147 479.562C324.799 479.868 325.319 480.307 325.705 480.879C326.092 481.452 326.318 482.138 326.385 482.937L324.927 482.937C324.847 482.138 324.54 481.519 324.008 481.08C323.475 480.627 322.762 480.401 321.87 480.401C320.871 480.402 320.066 480.642 319.453 481.121C318.841 481.601 318.535 482.247 318.535 483.059C318.535 483.685 318.722 484.204 319.095 484.617C319.468 485.016 320.027 485.309 320.773 485.495L323.23 486.094C324.349 486.36 325.195 486.812 325.767 487.451C326.34 488.077 326.627 488.876 326.627 489.848C326.627 490.66 326.428 491.373 326.028 491.985C325.629 492.598 325.063 493.071 324.331 493.404C323.599 493.737 322.74 493.904 321.755 493.904C320.836 493.905 320.017 493.752 319.298 493.446C318.592 493.14 318.032 492.7 317.619 492.128C317.22 491.555 316.986 490.883 316.919 490.111L318.398 490.11C318.438 490.869 318.764 491.475 319.377 491.928C319.99 492.367 320.782 492.586 321.754 492.586C322.806 492.586 323.638 492.346 324.251 491.866C324.876 491.386 325.189 490.74 325.189 489.928C325.189 489.276 325.002 488.75 324.629 488.35C324.269 487.938 323.703 487.638 322.931 487.452L320.514 486.854C319.395 486.588 318.543 486.142 317.957 485.516C317.384 484.877 317.097 484.065 317.097 483.08ZM329.59 483.075C329.589 482.276 329.789 481.584 330.188 480.998C330.588 480.399 331.147 479.932 331.866 479.599C332.585 479.266 333.423 479.099 334.382 479.099C335.248 479.099 336 479.252 336.64 479.558C337.292 479.864 337.812 480.303 338.198 480.875C338.584 481.448 338.811 482.134 338.878 482.933L337.42 482.933C337.34 482.134 337.033 481.515 336.5 481.076C335.967 480.623 335.255 480.397 334.363 480.397C333.364 480.398 332.558 480.638 331.946 481.117C331.334 481.597 331.028 482.243 331.028 483.055C331.028 483.681 331.215 484.2 331.588 484.613C331.961 485.012 332.52 485.305 333.266 485.491L335.723 486.09C336.842 486.356 337.687 486.808 338.26 487.447C338.833 488.073 339.119 488.872 339.12 489.844C339.12 490.656 338.921 491.369 338.521 491.981C338.122 492.594 337.556 493.067 336.824 493.4C336.092 493.733 335.233 493.9 334.247 493.9C333.328 493.9 332.509 493.748 331.79 493.442C331.084 493.136 330.525 492.696 330.112 492.124C329.712 491.551 329.479 490.879 329.412 490.107L330.89 490.106C330.931 490.865 331.257 491.471 331.87 491.923C332.482 492.363 333.275 492.582 334.247 492.582C335.299 492.582 336.131 492.342 336.743 491.862C337.369 491.382 337.682 490.736 337.682 489.924C337.681 489.272 337.495 488.746 337.122 488.346C336.762 487.934 336.196 487.634 335.424 487.448L333.007 486.85C331.888 486.584 331.035 486.138 330.449 485.512C329.877 484.873 329.59 484.061 329.59 483.075Z" fill="#F3F3F3"/>
</g>
<g filter="url(#filter5_n_126_282)">
<path d="M632.917 117.04V54.6702H548.324V0H784.711V55.4402H700.118V117.04H632.917Z" fill="url(#paint2_linear_126_282)" fill-opacity="0.06"/>
<path d="M664.537 86.2404C749.13 86.2404 817.121 103.18 817.121 123.97C817.121 144.76 749.13 161.7 664.537 161.7C579.944 161.7 511.953 144.76 511.953 123.97C511.954 103.18 579.944 86.2404 664.537 86.2404ZM664.538 92.3986C575.992 92.3986 530.138 115.499 524.604 123.969C530.138 131.669 575.992 143.219 664.538 143.219C753.874 143.219 798.938 131.669 804.473 123.969C798.939 116.269 753.084 92.3986 664.538 92.3986Z" fill="url(#paint3_linear_126_282)" fill-opacity="0.06"/>
<path d="M700.119 136.289V93.1693C689.05 92.3993 677.191 91.6293 665.333 91.6293C654.264 91.6293 643.987 91.6293 633.709 92.3993V135.519C643.196 135.519 654.264 136.289 665.333 136.289C677.191 137.059 689.05 137.059 700.119 136.289Z" fill="url(#paint4_linear_126_282)" fill-opacity="0.06"/>
<path d="M664.544 161.699C653.475 161.699 643.198 161.699 632.92 160.929V275.66H699.33V160.159C688.261 160.929 676.402 161.699 664.544 161.699Z" fill="url(#paint5_linear_126_282)" fill-opacity="0.06"/>
</g>
</g>
<rect x="0.953937" y="0.592609" width="831.453" height="525.707" rx="17.2178" stroke="url(#paint6_linear_126_282)" stroke-width="1.18522"/>
<defs>
<filter id="filter0_n_126_282" x="330.117" y="248.644" width="244.559" height="333.946" filterUnits="userSpaceOnUse" color-interpolation-filters="sRGB">
<feFlood flood-opacity="0" result="BackgroundImageFix"/>
<feBlend mode="normal" in="SourceGraphic" in2="BackgroundImageFix" result="shape"/>
<feTurbulence type="fractalNoise" baseFrequency="1.1381313800811768 1.1381313800811768" stitchTiles="stitch" numOctaves="3" result="noise" seed="5610" />
<feColorMatrix in="noise" type="luminanceToAlpha" result="alphaNoise" />
<feComponentTransfer in="alphaNoise" result="coloredNoise1">
<feFuncA type="discrete" tableValues="1 1 1 1 1 1 1 1 1 1 1 1 1 1 1 1 1 1 1 1 1 1 1 1 1 1 1 1 1 1 1 1 1 1 1 1 1 1 1 1 1 1 1 1 1 1 1 1 1 1 1 0 0 0 0 0 0 0 0 0 0 0 0 0 0 0 0 0 0 0 0 0 0 0 0 0 0 0 0 0 0 0 0 0 0 0 0 0 0 0 0 0 0 0 0 0 0 0 0 0 "/>
</feComponentTransfer>
<feComposite operator="in" in2="shape" in="coloredNoise1" result="noise1Clipped" />
<feComponentTransfer in="alphaNoise" result="coloredNoise2">
<feFuncA type="discrete" tableValues="0 0 0 0 0 0 0 0 0 0 0 0 0 0 0 0 0 0 0 0 0 0 0 0 0 0 0 0 0 0 0 0 0 0 0 0 0 0 0 0 0 0 0 0 0 0 0 0 0 1 1 1 1 1 1 1 1 1 1 1 1 1 1 1 1 1 1 1 1 1 1 1 1 1 1 1 1 1 1 1 1 1 1 1 1 1 1 1 1 1 1 1 1 1 1 1 1 1 1 1 "/>
</feComponentTransfer>
<feComposite operator="in" in2="shape" in="coloredNoise2" result="noise2Clipped" />
<feFlood flood-color="rgba(0, 0, 0, 0.25)" result="color1Flood" />
<feComposite operator="in" in2="noise1Clipped" in="color1Flood" result="color1" />
<feFlood flood-color="rgba(255, 255, 255, 0.25)" result="color2Flood" />
<feComposite operator="in" in2="noise2Clipped" in="color2Flood" result="color2" />
<feMerge result="effect1_noise_126_282">
<feMergeNode in="shape" />
<feMergeNode in="color1" />
<feMergeNode in="color2" />
</feMerge>
</filter>
<filter id="filter1_n_126_282" x="-432.975" y="-397.321" width="1016.2" height="1475.98" filterUnits="userSpaceOnUse" color-interpolation-filters="sRGB">
<feFlood flood-opacity="0" result="BackgroundImageFix"/>
<feBlend mode="normal" in="SourceGraphic" in2="BackgroundImageFix" result="shape"/>
<feTurbulence type="fractalNoise" baseFrequency="2.5607955455780029 2.5607955455780029" stitchTiles="stitch" numOctaves="3" result="noise" seed="5382" />
<feColorMatrix in="noise" type="luminanceToAlpha" result="alphaNoise" />
<feComponentTransfer in="alphaNoise" result="coloredNoise1">
<feFuncA type="discrete" tableValues="1 1 1 1 1 1 1 1 1 1 1 1 1 1 1 1 1 1 1 1 1 1 1 1 1 1 1 1 1 1 1 1 1 1 1 1 1 1 1 1 1 1 1 1 1 1 1 1 1 1 1 0 0 0 0 0 0 0 0 0 0 0 0 0 0 0 0 0 0 0 0 0 0 0 0 0 0 0 0 0 0 0 0 0 0 0 0 0 0 0 0 0 0 0 0 0 0 0 0 0 "/>
</feComponentTransfer>
<feComposite operator="in" in2="shape" in="coloredNoise1" result="noise1Clipped" />
<feComponentTransfer in="alphaNoise" result="coloredNoise2">
<feFuncA type="discrete" tableValues="0 0 0 0 0 0 0 0 0 0 0 0 0 0 0 0 0 0 0 0 0 0 0 0 0 0 0 0 0 0 0 0 0 0 0 0 0 0 0 0 0 0 0 0 0 0 0 0 0 1 1 1 1 1 1 1 1 1 1 1 1 1 1 1 1 1 1 1 1 1 1 1 1 1 1 1 1 1 1 1 1 1 1 1 1 1 1 1 1 1 1 1 1 1 1 1 1 1 1 1 "/>
</feComponentTransfer>
<feComposite operator="in" in2="shape" in="coloredNoise2" result="noise2Clipped" />
<feFlood flood-color="rgba(0, 0, 0, 0.41)" result="color1Flood" />
<feComposite operator="in" in2="noise1Clipped" in="color1Flood" result="color1" />
<feFlood flood-color="rgba(255, 255, 255, 0.06)" result="color2Flood" />
<feComposite operator="in" in2="noise2Clipped" in="color2Flood" result="color2" />
<feMerge result="effect1_noise_126_282">
<feMergeNode in="shape" />
<feMergeNode in="color1" />
<feMergeNode in="color2" />
</feMerge>
</filter>
<filter id="filter2_di_126_282" x="33.0208" y="475.645" width="88.9281" height="24.227" filterUnits="userSpaceOnUse" color-interpolation-filters="sRGB">
<feFlood flood-opacity="0" result="BackgroundImageFix"/>
<feColorMatrix in="SourceAlpha" type="matrix" values="0 0 0 0 0 0 0 0 0 0 0 0 0 0 0 0 0 0 127 0" result="hardAlpha"/>
<feOffset dy="1.17498"/>
<feGaussianBlur stdDeviation="2.34996"/>
<feComposite in2="hardAlpha" operator="out"/>
<feColorMatrix type="matrix" values="0 0 0 0 0.154167 0 0 0 0 0.154167 0 0 0 0 0.154167 0 0 0 0.58 0"/>
<feBlend mode="normal" in2="BackgroundImageFix" result="effect1_dropShadow_126_282"/>
<feBlend mode="normal" in="SourceGraphic" in2="effect1_dropShadow_126_282" result="shape"/>
<feColorMatrix in="SourceAlpha" type="matrix" values="0 0 0 0 0 0 0 0 0 0 0 0 0 0 0 0 0 0 127 0" result="hardAlpha"/>
<feOffset dy="-1.17498"/>
<feGaussianBlur stdDeviation="0.587489"/>
<feComposite in2="hardAlpha" operator="arithmetic" k2="-1" k3="1"/>
<feColorMatrix type="matrix" values="0 0 0 0 0.208333 0 0 0 0 0.208333 0 0 0 0 0.208333 0 0 0 0.22 0"/>
<feBlend mode="normal" in2="shape" result="effect2_innerShadow_126_282"/>
</filter>
<filter id="filter3_di_126_282" x="134.86" y="475.872" width="88.3852" height="23.7275" filterUnits="userSpaceOnUse" color-interpolation-filters="sRGB">
<feFlood flood-opacity="0" result="BackgroundImageFix"/>
<feColorMatrix in="SourceAlpha" type="matrix" values="0 0 0 0 0 0 0 0 0 0 0 0 0 0 0 0 0 0 127 0" result="hardAlpha"/>
<feOffset dy="1.17498"/>
<feGaussianBlur stdDeviation="2.34996"/>
<feComposite in2="hardAlpha" operator="out"/>
<feColorMatrix type="matrix" values="0 0 0 0 0.154167 0 0 0 0 0.154167 0 0 0 0 0.154167 0 0 0 0.58 0"/>
<feBlend mode="normal" in2="BackgroundImageFix" result="effect1_dropShadow_126_282"/>
<feBlend mode="normal" in="SourceGraphic" in2="effect1_dropShadow_126_282" result="shape"/>
<feColorMatrix in="SourceAlpha" type="matrix" values="0 0 0 0 0 0 0 0 0 0 0 0 0 0 0 0 0 0 127 0" result="hardAlpha"/>
<feOffset dy="-1.17498"/>
<feGaussianBlur stdDeviation="0.587489"/>
<feComposite in2="hardAlpha" operator="arithmetic" k2="-1" k3="1"/>
<feColorMatrix type="matrix" values="0 0 0 0 0.208333 0 0 0 0 0.208333 0 0 0 0 0.208333 0 0 0 0.22 0"/>
<feBlend mode="normal" in2="shape" result="effect2_innerShadow_126_282"/>
</filter>
<filter id="filter4_di_126_282" x="235.735" y="475.572" width="108.086" height="24.2332" filterUnits="userSpaceOnUse" color-interpolation-filters="sRGB">
<feFlood flood-opacity="0" result="BackgroundImageFix"/>
<feColorMatrix in="SourceAlpha" type="matrix" values="0 0 0 0 0 0 0 0 0 0 0 0 0 0 0 0 0 0 127 0" result="hardAlpha"/>
<feOffset dy="1.17498"/>
<feGaussianBlur stdDeviation="2.34996"/>
<feComposite in2="hardAlpha" operator="out"/>
<feColorMatrix type="matrix" values="0 0 0 0 0.154167 0 0 0 0 0.154167 0 0 0 0 0.154167 0 0 0 0.58 0"/>
<feBlend mode="normal" in2="BackgroundImageFix" result="effect1_dropShadow_126_282"/>
<feBlend mode="normal" in="SourceGraphic" in2="effect1_dropShadow_126_282" result="shape"/>
<feColorMatrix in="SourceAlpha" type="matrix" values="0 0 0 0 0 0 0 0 0 0 0 0 0 0 0 0 0 0 127 0" result="hardAlpha"/>
<feOffset dy="-1.17498"/>
<feGaussianBlur stdDeviation="0.587489"/>
<feComposite in2="hardAlpha" operator="arithmetic" k2="-1" k3="1"/>
<feColorMatrix type="matrix" values="0 0 0 0 0.208333 0 0 0 0 0.208333 0 0 0 0 0.208333 0 0 0 0.22 0"/>
<feBlend mode="normal" in2="shape" result="effect2_innerShadow_126_282"/>
</filter>
<filter id="filter5_n_126_282" x="511.953" y="0" width="305.168" height="275.66" filterUnits="userSpaceOnUse" color-interpolation-filters="sRGB">
<feFlood flood-opacity="0" result="BackgroundImageFix"/>
<feBlend mode="normal" in="SourceGraphic" in2="BackgroundImageFix" result="shape"/>
<feTurbulence type="fractalNoise" baseFrequency="1.1381313800811768 1.1381313800811768" stitchTiles="stitch" numOctaves="3" result="noise" seed="5610" />
<feColorMatrix in="noise" type="luminanceToAlpha" result="alphaNoise" />
<feComponentTransfer in="alphaNoise" result="coloredNoise1">
<feFuncA type="discrete" tableValues="1 1 1 1 1 1 1 1 1 1 1 1 1 1 1 1 1 1 1 1 1 1 1 1 1 1 1 1 1 1 1 1 1 1 1 1 1 1 1 1 1 1 1 1 1 1 1 1 1 1 1 0 0 0 0 0 0 0 0 0 0 0 0 0 0 0 0 0 0 0 0 0 0 0 0 0 0 0 0 0 0 0 0 0 0 0 0 0 0 0 0 0 0 0 0 0 0 0 0 0 "/>
</feComponentTransfer>
<feComposite operator="in" in2="shape" in="coloredNoise1" result="noise1Clipped" />
<feComponentTransfer in="alphaNoise" result="coloredNoise2">
<feFuncA type="discrete" tableValues="0 0 0 0 0 0 0 0 0 0 0 0 0 0 0 0 0 0 0 0 0 0 0 0 0 0 0 0 0 0 0 0 0 0 0 0 0 0 0 0 0 0 0 0 0 0 0 0 0 1 1 1 1 1 1 1 1 1 1 1 1 1 1 1 1 1 1 1 1 1 1 1 1 1 1 1 1 1 1 1 1 1 1 1 1 1 1 1 1 1 1 1 1 1 1 1 1 1 1 1 "/>
</feComponentTransfer>
<feComposite operator="in" in2="shape" in="coloredNoise2" result="noise2Clipped" />
<feFlood flood-color="rgba(0, 0, 0, 0.25)" result="color1Flood" />
<feComposite operator="in" in2="noise1Clipped" in="color1Flood" result="color1" />
<feFlood flood-color="rgba(255, 255, 255, 0.25)" result="color2Flood" />
<feComposite operator="in" in2="noise2Clipped" in="color2Flood" result="color2" />
<feMerge result="effect1_noise_126_282">
<feMergeNode in="shape" />
<feMergeNode in="color1" />
<feMergeNode in="color2" />
</feMerge>
</filter>
<linearGradient id="paint0_linear_126_282" x1="391.494" y1="251.161" x2="485.728" y2="579.93" gradientUnits="userSpaceOnUse">
<stop stop-color="#171717"/>
<stop offset="1" stop-color="#B9B9B9"/>
</linearGradient>
<linearGradient id="paint1_linear_126_282" x1="80.3019" y1="193.241" x2="-702.346" y2="338.59" gradientUnits="userSpaceOnUse">
<stop stop-color="#1C1C1C"/>
<stop offset="0.742198"/>
</linearGradient>
<linearGradient id="paint2_linear_126_282" x1="666.518" y1="0" x2="666.518" y2="117.04" gradientUnits="userSpaceOnUse">
<stop stop-color="#171717"/>
<stop offset="1" stop-color="#B9B9B9"/>
</linearGradient>
<linearGradient id="paint3_linear_126_282" x1="664.537" y1="86.2404" x2="664.537" y2="161.7" gradientUnits="userSpaceOnUse">
<stop stop-color="#171717"/>
<stop offset="1" stop-color="#B9B9B9"/>
</linearGradient>
<linearGradient id="paint4_linear_126_282" x1="666.914" y1="91.6293" x2="666.914" y2="136.867" gradientUnits="userSpaceOnUse">
<stop stop-color="#171717"/>
<stop offset="1" stop-color="#B9B9B9"/>
</linearGradient>
<linearGradient id="paint5_linear_126_282" x1="666.125" y1="160.159" x2="666.125" y2="275.66" gradientUnits="userSpaceOnUse">
<stop stop-color="#171717"/>
<stop offset="1" stop-color="#B9B9B9"/>
</linearGradient>
<linearGradient id="paint6_linear_126_282" x1="102.57" y1="-10.533" x2="763.34" y2="487.122" gradientUnits="userSpaceOnUse">
<stop stop-color="white"/>
<stop offset="1" stop-color="#626060"/>
</linearGradient>
<clipPath id="clip0_126_282">
<rect x="0.361328" width="832.638" height="526.892" rx="17.8104" fill="white"/>
</clipPath>
</defs>
</svg>
