<svg width="129" height="157" viewBox="0 0 129 157" fill="none" xmlns="http://www.w3.org/2000/svg">
<rect x="0.9375" y="0.793457" width="87" height="88" rx="17.5" fill="url(#paint0_linear_14_5455)" fill-opacity="0.2"/>
<rect x="0.9375" y="0.793457" width="87" height="88" rx="17.5" stroke="url(#paint1_linear_14_5455)"/>
<path d="M62.7704 27.774C62.7306 27.4953 62.4917 27.336 62.2926 27.336C62.0935 27.336 58.1519 27.2564 58.1519 27.2564C58.1519 27.2564 54.8473 24.0712 54.5288 23.7129C54.2103 23.3944 53.5733 23.474 53.3344 23.5536C53.3344 23.5536 52.6973 23.7527 51.6622 24.0712C51.5029 23.5138 51.2242 22.837 50.8659 22.1203C49.7113 19.8907 47.9594 18.6963 45.8891 18.6963C45.7298 18.6963 45.6104 18.6963 45.4511 18.7361C45.3715 18.6565 45.3317 18.5769 45.2521 18.537C44.3363 17.5815 43.1817 17.1037 41.7882 17.1435C39.1207 17.2232 36.4531 19.1741 34.2633 22.5981C32.7504 25.0268 31.5957 28.0527 31.2374 30.4017C28.1717 31.3573 26.0217 32.0341 25.9421 32.0341C24.3893 32.5119 24.3495 32.5517 24.1505 34.0248C24.0708 35.1396 20.0098 66.5531 20.0098 66.5531L54.0908 72.4457L68.862 68.7827C68.8222 68.7827 62.8102 28.0527 62.7704 27.774ZM49.9502 24.6286C49.1539 24.8675 48.278 25.1462 47.3224 25.4647C47.3224 24.111 47.1233 22.2 46.5261 20.6074C48.5567 20.9259 49.552 23.2351 49.9502 24.6286ZM45.5308 25.9823C43.7391 26.5397 41.7882 27.1369 39.8373 27.7342C40.3947 25.624 41.4299 23.5536 42.7039 22.1601C43.1817 21.6426 43.8586 21.0852 44.615 20.7666C45.4113 22.3194 45.5706 24.5092 45.5308 25.9823ZM41.8678 18.9352C42.5049 18.9352 43.0225 19.0546 43.4604 19.3731C42.7438 19.7315 42.0271 20.2889 41.3901 21.0055C39.6781 22.837 38.3642 25.6638 37.8466 28.411C36.2142 28.9286 34.6216 29.4064 33.1883 29.8443C34.1439 25.5045 37.767 19.0546 41.8678 18.9352Z" fill="#95BF47"/>
<path d="M62.2936 27.336C62.0945 27.336 58.1529 27.2564 58.1529 27.2564C58.1529 27.2564 54.8483 24.0713 54.5298 23.7129C54.4103 23.5935 54.2511 23.5139 54.0918 23.5139V72.4457L68.8629 68.7828C68.8629 68.7828 62.851 28.0527 62.8111 27.774C62.7315 27.4953 62.4926 27.336 62.2936 27.336Z" fill="#5E8E3E"/>
<path d="M45.8895 34.9406L44.1775 41.3507C44.1775 41.3507 42.2664 40.4748 39.997 40.634C36.6526 40.8331 36.6526 42.9433 36.6526 43.4608C36.8517 46.3275 44.3766 46.9645 44.8146 53.6931C45.1331 58.9884 42.0276 62.6115 37.4887 62.8902C32.074 63.1689 29.0879 59.9838 29.0879 59.9838L30.2425 55.0866C30.2425 55.0866 33.2684 57.356 35.6573 57.1968C37.21 57.1172 37.8072 55.8033 37.7276 54.9274C37.4887 51.1848 31.3573 51.4237 30.9592 45.2525C30.6407 40.0766 34.0249 34.8609 41.51 34.3832C44.4164 34.1841 45.8895 34.9406 45.8895 34.9406Z" fill="white"/>
<rect x="58.9375" y="59.7935" width="69" height="70" rx="17.5" fill="url(#paint2_linear_14_5455)" fill-opacity="0.2"/>
<rect x="58.9375" y="59.7935" width="69" height="70" rx="17.5" stroke="url(#paint3_linear_14_5455)"/>
<path d="M107.015 78.0357C105.216 75.9847 101.963 75.1054 97.8015 75.1054H85.7245C85.3127 75.1054 84.9145 75.2523 84.6014 75.5196C84.2883 75.787 84.0809 76.1572 84.0163 76.5639L78.9877 108.457C78.8877 109.086 79.3747 109.655 80.0121 109.655H87.4681L89.3406 97.7783L89.2825 98.1502C89.4159 97.3107 90.1339 96.6915 90.9842 96.6915H94.5272C101.488 96.6915 106.938 93.8644 108.53 85.6861C108.577 85.4443 108.618 85.2088 108.653 84.9788C108.452 84.8724 108.452 84.8724 108.653 84.9788C109.127 81.9561 108.65 79.8985 107.015 78.0357Z" fill="#27346A"/>
<path d="M92.1936 83.8899C92.3974 83.7929 92.6203 83.7426 92.8461 83.7427H102.314C103.435 83.7427 104.481 83.8157 105.437 83.9695C105.704 84.0121 105.97 84.063 106.235 84.1221C106.609 84.2048 106.979 84.3059 107.344 84.4252C107.814 84.5821 108.251 84.7649 108.653 84.9788C109.127 81.9549 108.65 79.8985 107.015 78.0357C105.215 75.9847 101.963 75.1054 97.8015 75.1054H85.7234C84.873 75.1054 84.1496 75.7245 84.0163 76.5639L78.9877 108.456C78.8877 109.086 79.3747 109.654 80.0111 109.654H87.4681L91.353 85.0186C91.3912 84.7765 91.4876 84.5472 91.6341 84.3506C91.7805 84.154 91.9725 83.9959 92.1936 83.8899Z" fill="#27346A"/>
<path d="M108.529 85.6861C106.937 93.8632 101.487 96.6915 94.5269 96.6915H90.9828C90.1325 96.6915 89.4144 97.3107 89.2823 98.1502L86.9527 112.918C86.8657 113.468 87.2913 113.967 87.8482 113.967H94.1334C94.4934 113.967 94.8416 113.838 95.1153 113.605C95.3891 113.371 95.5704 113.047 95.6266 112.691L95.6878 112.371L96.8724 104.863L96.9487 104.448C97.005 104.093 97.1863 103.769 97.46 103.535C97.7337 103.301 98.0818 103.173 98.4418 103.172H99.3825C105.471 103.172 110.238 100.699 111.632 93.5451C112.213 90.5556 111.912 88.0596 110.374 86.3064C109.907 85.7754 109.328 85.3368 108.653 84.9788C108.616 85.21 108.577 85.4442 108.529 85.6861Z" fill="#2790C3"/>
<path d="M106.987 84.3145C106.739 84.2421 106.488 84.1779 106.235 84.1221C105.971 84.064 105.705 84.0134 105.438 83.9705C104.481 83.8157 103.436 83.7426 102.314 83.7426H92.8468C92.6209 83.7421 92.3978 83.7928 92.1943 83.891C91.9729 83.9966 91.7807 84.1546 91.6342 84.3513C91.4878 84.5479 91.3914 84.7774 91.3536 85.0196L89.3413 97.7783L89.2832 98.1502C89.4156 97.3107 90.1336 96.6915 90.984 96.6915H94.5281C101.488 96.6915 106.938 93.8644 108.53 85.6861C108.578 85.4443 108.618 85.2099 108.654 84.9788C108.251 84.766 107.815 84.5821 107.345 84.4263C107.226 84.3869 107.107 84.3497 106.987 84.3145" fill="#1F264F"/>
<rect x="32.9375" y="104.793" width="51" height="51" rx="25.5" fill="url(#paint4_linear_14_5455)" fill-opacity="0.2"/>
<rect x="32.9375" y="104.793" width="51" height="51" rx="25.5" stroke="url(#paint5_linear_14_5455)"/>
<path fill-rule="evenodd" clip-rule="evenodd" d="M57.1769 122.257C58.826 122.399 60.475 121.411 61.5056 120.158C62.5191 118.87 63.189 117.142 63.0173 115.378C61.5572 115.448 59.7535 116.366 58.7229 117.653C57.7781 118.765 56.9708 120.564 57.1769 122.257ZM63 122.593C61.5472 122.507 60.2216 123.041 59.1509 123.473C58.4619 123.751 57.8784 123.986 57.4345 123.986C56.9364 123.986 56.3288 123.738 55.6466 123.46C54.7528 123.095 53.7308 122.679 52.6592 122.699C50.2028 122.734 47.9182 124.163 46.6642 126.438C44.0876 130.989 45.9943 137.728 48.485 141.432C49.7046 143.267 51.1647 145.278 53.0886 145.207C53.935 145.175 54.5438 144.909 55.1739 144.635C55.8993 144.319 56.6529 143.99 57.8296 143.99C58.9655 143.99 59.6861 144.31 60.3778 144.617C61.0356 144.909 61.6672 145.189 62.6049 145.172C64.5975 145.137 65.8515 143.338 67.0711 141.503C68.3872 139.534 68.9656 137.612 69.0534 137.321L69.0637 137.287C69.0616 137.285 69.0453 137.277 69.0167 137.264C68.5767 137.057 65.2138 135.476 65.1816 131.236C65.1492 127.678 67.8489 125.875 68.2739 125.591C68.2997 125.574 68.3172 125.562 68.325 125.556C66.6073 122.946 63.9276 122.663 63 122.593Z" fill="white"/>
<path d="M71.3414 114.621C73.3382 115.545 75.1578 117.049 76.4338 119.001C77.7524 121.018 78.3573 123.223 78.4021 125.423C78.3573 123.223 77.7506 121.019 76.4322 119.002C75.1562 117.05 73.3381 115.545 71.3414 114.621Z" fill="white"/>
<path d="M70.1838 115.422C70.2928 115.143 70.7108 114.947 71.1358 115.105C73.042 115.99 74.7772 117.429 75.9932 119.289C77.2506 121.212 77.8306 123.314 77.8764 125.416C77.8527 125.849 77.5781 126.144 77.1874 126.159C76.7356 126.133 76.4319 125.786 76.4443 125.487L76.4452 125.472L76.4448 125.457C76.416 123.613 75.8651 121.722 74.7892 120.076C73.7134 118.43 72.2021 117.166 70.5252 116.4C70.1597 116.23 70.0215 115.839 70.1838 115.422Z" fill="white"/>
<path d="M68.3048 118.729C68.4624 118.718 68.624 118.741 68.7811 118.802C69.5117 119.067 70.2198 119.441 70.7977 119.899C71.4183 120.422 71.9737 120.988 72.3991 121.638C72.8244 122.289 73.1847 122.982 73.3497 123.803C73.5148 124.624 73.5953 125.314 73.5452 126.09C73.5235 126.614 73.144 127.028 72.659 127.169C73.1432 127.027 73.5214 126.614 73.543 126.09C73.5932 125.315 73.5148 124.624 73.3497 123.803C73.1847 122.982 72.8244 122.289 72.3991 121.638C71.9737 120.988 71.4183 120.422 70.7977 119.899C70.2197 119.441 69.5101 119.069 68.7794 118.803C68.6229 118.742 68.4619 118.719 68.3048 118.729Z" fill="white"/>
<path d="M67.709 119.734C67.8616 119.342 68.2732 119.168 68.5898 119.291L68.5949 119.294L68.6008 119.296C69.2861 119.545 69.94 119.891 70.465 120.305C71.0601 120.808 71.5729 121.335 71.9593 121.926C72.3659 122.548 72.6874 123.177 72.8342 123.907C72.994 124.701 73.0664 125.343 73.0203 126.056L73.0197 126.063L73.0199 126.068C73.0059 126.408 72.681 126.715 72.261 126.698C71.9249 126.683 71.621 126.365 71.632 125.951C71.6838 125.388 71.6142 124.813 71.478 124.295C71.3362 123.756 71.0773 123.207 70.7544 122.713C70.4315 122.219 70.0323 121.761 69.5955 121.415C69.1759 121.083 68.677 120.788 68.1401 120.61C67.7565 120.453 67.5869 120.047 67.709 119.734Z" fill="white"/>
<defs>
<linearGradient id="paint0_linear_14_5455" x1="44.4375" y1="0.293457" x2="44.4375" y2="89.2935" gradientUnits="userSpaceOnUse">
<stop stop-color="#D0E3FF"/>
<stop offset="1" stop-color="#A98DFF"/>
</linearGradient>
<linearGradient id="paint1_linear_14_5455" x1="0.4375" y1="44.7935" x2="88.4375" y2="44.7935" gradientUnits="userSpaceOnUse">
<stop stop-color="#EDF5FF"/>
<stop offset="1" stop-color="#6FA3FF"/>
</linearGradient>
<linearGradient id="paint2_linear_14_5455" x1="93.4375" y1="59.2935" x2="93.4375" y2="130.293" gradientUnits="userSpaceOnUse">
<stop stop-color="#D0E3FF"/>
<stop offset="1" stop-color="#A98DFF"/>
</linearGradient>
<linearGradient id="paint3_linear_14_5455" x1="58.4375" y1="94.7935" x2="128.437" y2="94.7935" gradientUnits="userSpaceOnUse">
<stop stop-color="#EDF5FF"/>
<stop offset="1" stop-color="#6FA3FF"/>
</linearGradient>
<linearGradient id="paint4_linear_14_5455" x1="58.4375" y1="104.293" x2="58.4375" y2="156.293" gradientUnits="userSpaceOnUse">
<stop stop-color="#D0E3FF"/>
<stop offset="1" stop-color="#A98DFF"/>
</linearGradient>
<linearGradient id="paint5_linear_14_5455" x1="32.4375" y1="130.293" x2="84.4375" y2="130.293" gradientUnits="userSpaceOnUse">
<stop stop-color="#EDF5FF"/>
<stop offset="1" stop-color="#6FA3FF"/>
</linearGradient>
</defs>
</svg>
