<svg width="159" height="206" viewBox="0 0 159 206" fill="none" xmlns="http://www.w3.org/2000/svg">
<rect x="45.6597" y="0.643151" width="111.898" height="113.184" rx="22.5082" fill="url(#paint0_linear_137_1192)" fill-opacity="0.2"/>
<rect x="45.6597" y="0.643151" width="111.898" height="113.184" rx="22.5082" stroke="url(#paint1_linear_137_1192)" stroke-width="1.28618"/>
<path d="M139.964 62.9412H140.031L145.632 48.6834H149.567L137.468 77.2694H133.734L138.232 67.2694L130.294 48.6834H134.229L139.964 62.9412ZM121.029 48.035C123.705 48.0351 125.819 48.7761 127.371 50.2342C128.923 51.6924 129.688 53.7296 129.688 56.2987V68.5428H126.224V65.7879H126.066C124.56 68.0563 122.58 69.1912 120.084 69.1912C117.97 69.1912 116.172 68.5428 114.755 67.2469C113.361 66.0433 112.573 64.2604 112.618 62.3856C112.618 60.3256 113.383 58.7051 114.89 57.4784C116.396 56.2518 118.42 55.6503 120.938 55.6502C123.097 55.6502 124.852 56.0665 126.246 56.8534V55.9969C126.246 54.724 125.706 53.5205 124.762 52.6873C123.795 51.8079 122.558 51.3221 121.276 51.3221C119.252 51.3221 117.656 52.2016 116.486 53.9608L113.293 51.9002C115.002 49.3311 117.589 48.035 121.029 48.035ZM103.868 39.5174C106.184 39.4711 108.434 40.3734 110.075 42.0399C113.359 45.1878 113.561 50.4889 110.48 53.8914L110.075 54.3075C108.389 55.9509 106.319 56.784 103.868 56.784H97.8867V68.5428H94.2656V39.5174H103.868ZM121.501 58.659C120.039 58.659 118.802 59.0294 117.812 59.7469C116.845 60.4644 116.351 61.367 116.351 62.4549C116.351 63.427 116.8 64.3301 117.542 64.8856C118.352 65.5336 119.342 65.8803 120.354 65.8573C121.883 65.8573 123.345 65.2327 124.425 64.1219C125.617 62.9646 126.225 61.5982 126.225 60.0242C125.1 59.0984 123.525 58.6359 121.501 58.659ZM97.8867 53.2196H103.96C105.309 53.2657 106.614 52.7109 107.536 51.7157C109.425 49.7019 109.381 46.4607 107.424 44.5164C106.502 43.5907 105.264 43.082 103.96 43.0819H97.8867V53.2196Z" fill="white"/>
<path d="M85.3875 54.2381C85.3875 53.1039 85.2975 51.9698 85.1176 50.8587H69.8477V57.2703H78.5958C78.236 59.3303 77.0666 61.1821 75.3574 62.3394V66.5057H80.5749C83.6333 63.6124 85.3875 59.3303 85.3875 54.2381Z" fill="#4285F4"/>
<path d="M69.85 70.5333C74.2129 70.5333 77.901 69.052 80.5772 66.5059L75.3598 62.3395C73.898 63.3579 72.0314 63.9366 69.85 63.9366C65.6221 63.9366 62.0464 60.997 60.7645 57.0621H55.3896V61.3673C58.1333 66.9919 63.733 70.5333 69.85 70.5333Z" fill="#34A853"/>
<path d="M60.7636 57.062C60.0889 55.002 60.0889 52.7568 60.7636 50.6736V46.3915H55.3879C53.0712 51.0902 53.0712 56.6454 55.3879 61.3441L60.7636 57.062Z" fill="#FBBC04"/>
<path d="M69.85 43.7991C72.1664 43.7528 74.3928 44.6555 76.0569 46.2989L80.6897 41.5307C77.7436 38.7069 73.8755 37.156 69.85 37.2023C63.733 37.2023 58.1333 40.7669 55.3896 46.3915L60.7645 50.6967C62.0464 46.7387 65.6221 43.7991 69.85 43.7991Z" fill="#EA4335"/>
<rect x="0.64309" y="76.5278" width="88.7465" height="90.0326" rx="44.3732" fill="url(#paint2_linear_137_1192)" fill-opacity="0.2"/>
<rect x="0.64309" y="76.5278" width="88.7465" height="90.0326" rx="44.3732" stroke="url(#paint3_linear_137_1192)" stroke-width="1.28618"/>
<path fill-rule="evenodd" clip-rule="evenodd" d="M18.0272 111.78C19.4081 111.898 20.789 111.071 21.652 110.022C22.5007 108.944 23.0617 107.496 22.9178 106.019C21.6952 106.078 20.1848 106.846 19.3217 107.925C18.5306 108.855 17.8545 110.362 18.0272 111.78ZM34.455 130.806V107.777H42.8698C47.2139 107.777 50.249 110.849 50.249 115.34C50.249 119.831 47.1564 122.933 42.7547 122.933H37.936V130.806H34.455ZM22.903 112.061C21.6865 111.989 20.5765 112.437 19.6798 112.798C19.1028 113.031 18.6142 113.228 18.2425 113.228C17.8254 113.228 17.3166 113.02 16.7453 112.787C15.9968 112.482 15.1411 112.133 14.2437 112.149C12.1867 112.179 10.2736 113.375 9.22353 115.281C7.06587 119.092 8.66254 124.735 10.7483 127.837C11.7696 129.373 12.9922 131.057 14.6033 130.998C15.312 130.971 15.8219 130.749 16.3495 130.519C16.957 130.254 17.588 129.979 18.5734 129.979C19.5245 129.979 20.128 130.247 20.7072 130.504C21.258 130.748 21.787 130.983 22.5722 130.969C24.2408 130.939 25.2908 129.432 26.3121 127.896C27.4143 126.247 27.8986 124.638 27.9721 124.394L27.9807 124.366C27.979 124.364 27.9654 124.357 27.9414 124.346L27.9413 124.346C27.5729 124.173 24.7569 122.849 24.7299 119.299C24.7027 116.319 26.9635 114.809 27.3193 114.572C27.341 114.557 27.3556 114.548 27.3622 114.542C25.9238 112.356 23.6798 112.12 22.903 112.061ZM56.6061 130.983C58.7925 130.983 60.8207 129.846 61.7413 128.044H61.8132V130.806H65.0353V119.343C65.0353 116.019 62.4461 113.877 58.4617 113.877C54.7649 113.877 52.0319 116.049 51.9312 119.033H55.067C55.3259 117.615 56.6061 116.684 58.361 116.684C60.4899 116.684 61.6838 117.703 61.6838 119.579V120.85L57.3397 121.116C53.2977 121.367 51.1113 123.065 51.1113 126.02C51.1113 129.004 53.3696 130.983 56.6061 130.983ZM57.5402 128.251C55.6846 128.251 54.5051 127.335 54.5051 125.931C54.5051 124.484 55.6414 123.642 57.8135 123.509L61.6829 123.258V124.558C61.6829 126.714 59.8992 128.251 57.5402 128.251ZM75.7222 131.707C74.3269 135.74 72.7302 137.069 69.3355 137.069C69.0766 137.069 68.2135 137.04 68.0121 136.98V134.218C68.2279 134.248 68.7601 134.277 69.0334 134.277C70.5726 134.277 71.4356 133.613 71.9678 131.884L72.2843 130.865L66.3867 114.099H70.026L74.1255 127.704H74.1974L78.297 114.099H81.8355L75.7222 131.707ZM37.9346 110.79H41.9478C44.9685 110.79 46.6946 112.445 46.6946 115.355C46.6946 118.265 44.9685 119.934 41.9334 119.934H37.9346V110.79Z" fill="white"/>
<rect x="68.8111" y="139.735" width="65.5952" height="65.5952" rx="22.5082" fill="url(#paint4_linear_137_1192)" fill-opacity="0.2"/>
<rect x="68.8111" y="139.735" width="65.5952" height="65.5952" rx="22.5082" stroke="url(#paint5_linear_137_1192)" stroke-width="1.28618"/>
<path d="M109.182 167.588C111.156 167.588 113.018 169.392 113.029 172.704C113.029 176.324 111.19 177.968 109.17 177.968C108.177 177.968 107.579 177.546 107.173 177.249L107.162 180.48L104.341 181.086V167.77H106.823L106.97 168.478C107.365 168.113 108.076 167.588 109.182 167.588ZM85.1123 167.588C86.0487 167.588 86.9738 167.736 87.9102 168.113V170.797C87.0527 170.328 85.9698 170.066 85.1123 170.066C84.5143 170.066 84.1524 170.237 84.1523 170.682C84.1523 171.961 88.4516 171.356 88.4629 174.759C88.4628 176.803 86.8497 177.979 84.5029 177.979C83.5325 177.979 82.4713 177.786 81.4219 177.329V174.611C82.3697 175.136 83.5664 175.524 84.5029 175.524C85.1346 175.524 85.5859 175.353 85.5859 174.828C85.5859 173.469 81.2979 173.971 81.2979 170.819C81.2981 168.798 82.8218 167.588 85.1123 167.588ZM91.7686 167.782H93.9131V170.214H91.7686V174.268C91.7686 175.958 93.552 175.433 93.9131 175.285V177.602C93.5408 177.808 92.8636 177.979 91.9385 177.979C90.2684 177.979 89.0156 176.735 89.0156 175.045L89.0273 165.898L91.7803 165.304L91.7686 167.782ZM117.847 167.588C120.521 167.588 121.92 169.895 121.92 172.818C121.92 173.092 121.897 173.686 121.897 173.835H116.38C116.504 175.182 117.474 175.57 118.568 175.57C119.685 175.57 120.566 175.33 121.333 174.942V177.226C120.566 177.66 119.55 177.968 118.208 177.968C115.455 177.968 113.536 176.232 113.536 172.795C113.536 169.894 115.161 167.588 117.847 167.588ZM97.4238 168.627C98.0896 167.394 99.4095 167.645 99.7705 167.782V170.408C99.4205 170.282 98.2926 170.123 97.627 171.003V177.774H94.8057V167.782H97.2432L97.4238 168.627ZM103.29 177.774H100.458V167.782H103.29V177.774ZM108.505 170.123C107.862 170.123 107.455 170.351 107.162 170.682L107.173 174.919C107.444 175.215 107.839 175.456 108.505 175.456C109.543 175.456 110.242 174.314 110.242 172.784C110.242 171.288 109.532 170.123 108.505 170.123ZM117.835 169.906C117.124 169.906 116.346 170.443 116.346 171.733H119.257C119.257 170.443 118.523 169.906 117.835 169.906ZM103.29 166.297L100.458 166.914V164.585L103.29 163.979V166.297Z" fill="#6461FC"/>
<defs>
<linearGradient id="paint0_linear_137_1192" x1="101.609" y1="6.10352e-05" x2="101.609" y2="114.47" gradientUnits="userSpaceOnUse">
<stop stop-color="#76A6FF"/>
<stop offset="1" stop-color="#A15DFF"/>
</linearGradient>
<linearGradient id="paint1_linear_137_1192" x1="45.0166" y1="57.2351" x2="158.2" y2="57.2351" gradientUnits="userSpaceOnUse">
<stop stop-color="#00316E"/>
<stop offset="1" stop-color="#696F79"/>
</linearGradient>
<linearGradient id="paint2_linear_137_1192" x1="45.0163" y1="75.8847" x2="45.0163" y2="167.203" gradientUnits="userSpaceOnUse">
<stop stop-color="#76A6FF"/>
<stop offset="1" stop-color="#A15DFF"/>
</linearGradient>
<linearGradient id="paint3_linear_137_1192" x1="0" y1="121.544" x2="90.0326" y2="121.544" gradientUnits="userSpaceOnUse">
<stop stop-color="#00316E"/>
<stop offset="1" stop-color="#696F79"/>
</linearGradient>
<linearGradient id="paint4_linear_137_1192" x1="101.609" y1="139.092" x2="101.609" y2="205.973" gradientUnits="userSpaceOnUse">
<stop stop-color="#76A6FF"/>
<stop offset="1" stop-color="#A15DFF"/>
</linearGradient>
<linearGradient id="paint5_linear_137_1192" x1="68.168" y1="172.532" x2="135.049" y2="172.532" gradientUnits="userSpaceOnUse">
<stop stop-color="#00316E"/>
<stop offset="1" stop-color="#696F79"/>
</linearGradient>
</defs>
</svg>
