<svg width="110" height="80" viewBox="0 0 110 80" fill="none" xmlns="http://www.w3.org/2000/svg">
<rect x="1.44782" y="1.35567" width="107.493" height="77.6088" rx="4.50193" fill="#242424" fill-opacity="0.2"/>
<rect x="1.44782" y="1.35567" width="107.493" height="77.6088" rx="4.50193" stroke="url(#paint0_linear_14_5448)" stroke-width="1.28627"/>
<path d="M42.0466 50.5806L45.5588 29.9359L51.1852 29.9341L47.672 50.5787L42.0466 50.5806ZM67.9677 30.3815C66.3528 29.7971 64.6471 29.5041 62.9298 29.5163C57.3771 29.5181 53.4662 32.3158 53.4338 36.3244C53.4043 39.2872 56.2285 40.9388 58.3606 41.9239C60.5485 42.9343 61.2839 43.5787 61.2737 44.4813C61.2604 45.8632 59.527 46.4946 57.9124 46.4951C55.6627 46.4959 54.4681 46.1803 52.6216 45.4152L51.8979 45.0879L51.1105 49.7035C52.423 50.2781 54.8509 50.7765 57.3703 50.801C63.2779 50.7991 67.1119 48.0341 67.1547 43.7537C67.175 41.4081 65.6789 39.6233 62.4344 38.153C60.4698 37.2057 59.2668 36.5637 59.2791 35.5978C59.2788 34.7415 60.297 33.8249 62.4972 33.8242C63.9388 33.7915 65.3713 34.0601 66.7031 34.6128L67.2066 34.8506L67.9677 30.3815ZM82.4222 29.9239L78.0934 29.9253C76.7526 29.9257 75.749 30.2926 75.1607 31.6304L66.8462 50.4672L72.7686 50.4652C72.7686 50.4652 73.7157 47.9603 73.9335 47.4105L81.0293 47.4166C81.1948 48.1285 81.7043 50.4623 81.7043 50.4623L86.9621 50.4606L82.4222 29.9239ZM75.5436 43.197C76.0077 42.0087 77.781 37.4329 77.781 37.4329C77.7473 37.4876 78.2419 36.2383 78.5249 35.4641L78.9057 37.2419C78.9057 37.2419 79.9837 42.1633 80.2084 43.1954L75.5436 43.197ZM37.2655 29.9386L31.7806 43.9685L31.1951 41.1176C30.1724 37.8318 26.9873 34.2729 23.4267 32.492L28.4524 50.4797L34.3842 50.4714L43.2048 29.9367L37.2381 29.9386" fill="url(#paint1_linear_14_5448)"/>
<defs>
<linearGradient id="paint0_linear_14_5448" x1="0.804687" y1="40.1601" x2="109.584" y2="40.1601" gradientUnits="userSpaceOnUse">
<stop stop-color="#EDF5FF"/>
<stop offset="1" stop-color="#6FA3FF"/>
</linearGradient>
<linearGradient id="paint1_linear_14_5448" x1="55.1905" y1="29.5185" x2="55.1975" y2="50.8017" gradientUnits="userSpaceOnUse">
<stop stop-color="white"/>
<stop offset="1" stop-color="white" stop-opacity="0.75"/>
</linearGradient>
</defs>
</svg>
