<svg width="109" height="82" viewBox="0 0 109 82" fill="none" xmlns="http://www.w3.org/2000/svg">
<rect x="0.686102" y="1.1529" width="107.49" height="80.0143" rx="4.50193" fill="#242424" fill-opacity="0.2"/>
<rect x="0.686102" y="1.1529" width="107.49" height="80.0143" rx="4.50193" stroke="url(#paint0_linear_14_5450)" stroke-width="1.28627"/>
<path fill-rule="evenodd" clip-rule="evenodd" d="M64.1091 55.7889C72.3499 55.7889 79.0305 49.2394 79.0305 41.1602C79.0305 33.0809 72.3499 26.5314 64.1091 26.5314C60.4157 26.5314 57.0358 27.8469 54.4302 30.0261C51.8246 27.8469 48.4448 26.5315 44.7515 26.5315C36.5106 26.5315 29.8301 33.081 29.8301 41.1602C29.8301 49.2395 36.5106 55.789 44.7515 55.789C48.4448 55.789 51.8247 54.4735 54.4303 52.2943C57.0359 54.4734 60.4158 55.7889 64.1091 55.7889Z" fill="#ED0006"/>
<path fill-rule="evenodd" clip-rule="evenodd" d="M54.4297 52.2939C57.6379 49.6107 59.6721 45.6182 59.6721 41.1599C59.6721 36.7016 57.6379 32.7092 54.4297 30.026C57.0353 27.8467 60.4153 26.5312 64.1087 26.5312C72.3496 26.5312 79.0301 33.0807 79.0301 41.1599C79.0301 49.2392 72.3496 55.7887 64.1087 55.7887C60.4153 55.7887 57.0353 54.4731 54.4297 52.2939Z" fill="#F9A000"/>
<path fill-rule="evenodd" clip-rule="evenodd" d="M54.4299 52.2935C57.6381 49.6103 59.6724 45.6178 59.6724 41.1595C59.6724 36.7012 57.6381 32.7087 54.4299 30.0255C51.2218 32.7087 49.1875 36.7012 49.1875 41.1595C49.1875 45.6178 51.2218 49.6103 54.4299 52.2935Z" fill="#FF5E00"/>
<defs>
<linearGradient id="paint0_linear_14_5450" x1="0.0429687" y1="41.1601" x2="108.82" y2="41.1601" gradientUnits="userSpaceOnUse">
<stop stop-color="#EDF5FF"/>
<stop offset="1" stop-color="#6FA3FF"/>
</linearGradient>
</defs>
</svg>
