<svg width="39" height="23" viewBox="0 0 39 23" fill="none" xmlns="http://www.w3.org/2000/svg">
<path fill-rule="evenodd" clip-rule="evenodd" d="M27.0279 22.8203C33.4347 22.8203 38.6285 17.7284 38.6285 11.4473C38.6285 5.16611 33.4347 0.0742188 27.0279 0.0742188C24.1566 0.0742188 21.5289 1.09696 19.5032 2.79114C17.4775 1.097 14.8498 0.0742921 11.9785 0.0742921C5.57168 0.0742921 0.37793 5.16618 0.37793 11.4473C0.37793 17.7285 5.57168 22.8204 11.9785 22.8204C14.8498 22.8204 17.4775 21.7977 19.5032 20.1035C21.5289 21.7976 24.1566 22.8203 27.0279 22.8203Z" fill="#ED0006"/>
<path fill-rule="evenodd" clip-rule="evenodd" d="M19.5029 20.1032C21.9971 18.0171 23.5786 14.9132 23.5786 11.4471C23.5786 7.98107 21.9971 4.87714 19.5029 2.79112C21.5287 1.09688 24.1564 0.0740967 27.0278 0.0740967C33.4346 0.0740967 38.6284 5.16598 38.6284 11.4471C38.6284 17.7283 33.4346 22.8202 27.0278 22.8202C24.1564 22.8202 21.5287 21.7974 19.5029 20.1032Z" fill="#F9A000"/>
<path fill-rule="evenodd" clip-rule="evenodd" d="M19.5034 20.1028C21.9976 18.0168 23.5791 14.9129 23.5791 11.4468C23.5791 7.98073 21.9976 4.8768 19.5034 2.79077C17.0093 4.8768 15.4277 7.98073 15.4277 11.4468C15.4277 14.9129 17.0093 18.0168 19.5034 20.1028Z" fill="#FF5E00"/>
</svg>
