<svg width="604" height="382" viewBox="0 0 604 382" fill="none" xmlns="http://www.w3.org/2000/svg">
<g clip-path="url(#clip0_144_7842)">
<mask id="mask0_144_7842" style="mask-type:luminance" maskUnits="userSpaceOnUse" x="1" y="0" width="602" height="381">
<path d="M1.08301 7.99131C1.08301 3.89914 4.40037 0.581787 8.49254 0.581787H594.841C598.933 0.581787 602.25 3.89915 602.25 7.99131V373.59C602.25 377.683 598.933 381 594.841 381H8.49254C4.40037 381 1.08301 377.683 1.08301 373.59V7.99131Z" fill="white"/>
</mask>
<g mask="url(#mask0_144_7842)">
<path d="M1.08301 7.99131C1.08301 3.89914 4.40037 0.581787 8.49254 0.581787H594.841C598.933 0.581787 602.25 3.89915 602.25 7.99131V373.59C602.25 377.683 598.933 381 594.841 381H8.49254C4.40037 381 1.08301 377.683 1.08301 373.59V7.99131Z" fill="#111111"/>
<path d="M304.353 181.484L305.585 216.963C311.464 216.641 317.381 216.321 323.167 216.12L321.939 180.875L343.98 180.103L345.24 216.304C373.77 217.805 396.603 225.77 400.026 251.779L400.02 251.78C402.553 270.812 394.965 282.552 382.419 289.514C403.625 293.837 417.232 305.879 415.608 333.981C413.609 368.871 388 379.108 351.03 382.523L352.295 419.071L330.261 419.84L329.014 383.781C323.305 383.986 317.454 384.141 311.412 384.225L312.668 420.452L290.657 421.214L289.371 384.596C284.222 384.741 278.968 384.834 273.632 385.014L244.951 386.014L248.412 359.541C248.487 359.54 264.719 359.227 264.429 358.987C270.664 358.759 272.159 354.224 272.453 351.402L270.454 293.627L272.775 293.545C271.861 293.452 271.057 293.454 270.441 293.472L269.004 252.233C268.009 247.79 264.918 242.711 255.992 243.019C256.252 242.711 240.094 243.581 239.992 243.586L239.167 220.053L269.558 219.005L269.565 219.118C274.133 218.956 278.815 218.704 283.582 218.441L282.331 182.251L304.353 181.484ZM310.988 357.554C325.928 357.024 372.876 358.5 371.918 331.139L371.923 331.138C370.914 302.605 324.241 308.528 309.304 309.044L310.988 357.554ZM308.524 286.841C320.969 286.405 360.141 287.95 359.281 263.057C358.38 237.093 319.439 242.41 306.994 242.846L308.524 286.841Z" fill="url(#paint0_linear_144_7842)" fill-opacity="0.06"/>
<path d="M56.7811 -286.285L-311.787 -139.891L53.3431 779.376L421.911 632.983L56.7811 -286.285Z" fill="url(#paint1_linear_144_7842)"/>
<path opacity="0.9" d="M52.7649 53.7586V55.8139H45.0317V77.8988H42.663V55.8139H34.9297V53.7586H52.7649ZM60.8699 76.2616C61.7523 76.2616 62.5187 76.2384 63.1689 76.1919C63.8424 76.1223 64.4114 76.041 64.8758 75.9481V69.6083C64.6204 69.4921 64.214 69.376 63.6566 69.2599C63.0993 69.1206 62.3329 69.0509 61.3575 69.0509C60.8002 69.0509 60.2196 69.0973 59.6158 69.1902C59.012 69.2599 58.4547 69.4341 57.9438 69.7128C57.4329 69.9682 57.0149 70.3282 56.6897 70.7926C56.3646 71.2571 56.2021 71.8725 56.2021 72.6388C56.2021 73.3123 56.3066 73.8813 56.5156 74.3457C56.7478 74.8102 57.0613 75.1817 57.4561 75.4604C57.8741 75.7391 58.3618 75.9481 58.9191 76.0874C59.4997 76.2035 60.15 76.2616 60.8699 76.2616ZM60.6609 59.4715C61.8452 59.4715 62.8438 59.6456 63.6566 59.994C64.4926 60.3191 65.1661 60.7836 65.677 61.3874C66.1879 61.9679 66.5595 62.6646 66.7917 63.4774C67.0239 64.2902 67.14 65.1727 67.14 66.1248V77.4808C66.9078 77.5505 66.5711 77.6318 66.1298 77.7246C65.6886 77.7943 65.1777 77.8756 64.5971 77.9685C64.0166 78.0614 63.3663 78.131 62.6464 78.1775C61.9497 78.2472 61.2298 78.282 60.4867 78.282C59.5345 78.282 58.6521 78.1775 57.8393 77.9685C57.0497 77.7595 56.353 77.4344 55.7492 76.9931C55.1686 76.5287 54.7042 75.9481 54.3558 75.2514C54.0307 74.5315 53.8682 73.6606 53.8682 72.6388C53.8682 71.6635 54.054 70.8275 54.4255 70.1308C54.7971 69.4341 55.3196 68.8651 55.9931 68.4239C56.6665 67.9594 57.4677 67.6227 58.3966 67.4137C59.3255 67.2047 60.3357 67.1002 61.4272 67.1002C61.7523 67.1002 62.0891 67.1234 62.4374 67.1698C62.809 67.1931 63.1573 67.2395 63.4824 67.3092C63.8308 67.3556 64.1211 67.4137 64.3533 67.4834C64.6087 67.5298 64.7829 67.5762 64.8758 67.6227V66.508C64.8758 65.881 64.8294 65.2772 64.7365 64.6966C64.6436 64.0928 64.4346 63.5587 64.1095 63.0942C63.8076 62.6066 63.3663 62.2234 62.7857 61.9447C62.2284 61.6428 61.4853 61.4919 60.5564 61.4919C59.2327 61.4919 58.2457 61.5847 57.5954 61.7705C56.9452 61.9563 56.4691 62.1073 56.1672 62.2234L55.8537 60.2378C56.2485 60.052 56.8523 59.8779 57.6651 59.7153C58.5011 59.5527 59.4997 59.4715 60.6609 59.4715ZM75.1794 74.6592C75.3884 74.8218 75.6439 74.996 75.9458 75.1817C76.2709 75.3675 76.6425 75.5417 77.0605 75.7043C77.4785 75.8668 77.9313 76.0062 78.419 76.1223C78.9067 76.2152 79.4176 76.2616 79.9517 76.2616C81.0664 76.2616 81.9953 76.0758 82.7385 75.7043C83.5048 75.3095 84.1202 74.787 84.5847 74.1367C85.0491 73.4632 85.3859 72.6853 85.5949 71.8028C85.8039 70.8971 85.9084 69.945 85.9084 68.9464C85.9084 66.5777 85.3162 64.7663 84.1318 63.5122C82.9475 62.235 81.3799 61.5964 79.4292 61.5964C78.3145 61.5964 77.4088 61.6544 76.7121 61.7705C76.0387 61.8634 75.5278 61.9679 75.1794 62.084V74.6592ZM75.1794 84.3432H72.9152V60.5165C73.5886 60.2843 74.4479 60.0637 75.4929 59.8546C76.538 59.6456 77.8617 59.5411 79.464 59.5411C80.7877 59.5411 81.9837 59.7618 83.052 60.203C84.1434 60.621 85.0724 61.2364 85.8387 62.0492C86.6283 62.862 87.2321 63.849 87.6501 65.0101C88.0913 66.1713 88.3119 67.4834 88.3119 68.9464C88.3119 70.3165 88.1262 71.5822 87.7546 72.7433C87.4063 73.8813 86.8837 74.8682 86.1871 75.7043C85.4904 76.5171 84.6311 77.1557 83.6093 77.6201C82.6107 78.0846 81.4612 78.3168 80.1607 78.3168C78.9764 78.3168 77.9429 78.1543 77.0605 77.8291C76.2012 77.4808 75.5742 77.1557 75.1794 76.8538V84.3432ZM106.879 77.8988C106.205 76.5519 105.462 75.1934 104.649 73.8232C103.86 72.4298 102.942 71.0132 101.897 69.5734C101.572 69.9914 101.154 70.572 100.643 71.3151C100.156 72.0583 99.6566 72.8478 99.1457 73.6839C98.658 74.5199 98.1935 75.3211 97.7523 76.0874C97.3111 76.8538 96.986 77.4576 96.777 77.8988H90.5764C91.5983 76.0178 92.7826 74.0438 94.1295 71.977C95.4997 69.9101 97.0208 67.7156 98.6928 65.3933L90.9248 53.7586H97.5085L102.211 61.2829L106.809 53.7586H113.009L105.346 65.463C107.297 67.9943 108.934 70.3398 110.257 72.4995C111.581 74.636 112.626 76.4358 113.393 77.8988H106.879Z" fill="white"/>
<path d="M122.688 77.6332C121.741 77.6332 120.857 77.4636 120.037 77.1244C119.231 76.7851 118.525 76.2904 117.917 75.6401C117.323 74.9899 116.85 74.1912 116.496 73.2441C116.157 72.2829 115.987 71.1874 115.987 69.9576C115.987 68.7278 116.171 67.6393 116.539 66.6922C116.92 65.731 117.422 64.9253 118.044 64.2751C118.666 63.6248 119.387 63.1371 120.207 62.812C121.027 62.4728 121.882 62.3031 122.772 62.3031C123.324 62.3031 123.826 62.3385 124.278 62.4091C124.73 62.4798 125.126 62.5717 125.465 62.6848C125.805 62.7837 126.094 62.8898 126.335 63.0028C126.575 63.1018 126.759 63.1937 126.886 63.2785L126.419 64.5295C126.066 64.3175 125.614 64.1125 125.062 63.9146C124.525 63.7026 123.854 63.5965 123.048 63.5965C122.129 63.5965 121.324 63.752 120.631 64.063C119.952 64.374 119.38 64.8122 118.913 65.3776C118.447 65.9431 118.094 66.6145 117.853 67.392C117.627 68.1694 117.514 69.0317 117.514 69.9788C117.514 70.9542 117.627 71.8376 117.853 72.6292C118.094 73.4067 118.44 74.0711 118.892 74.6224C119.345 75.1736 119.896 75.5977 120.546 75.8946C121.21 76.1914 121.967 76.3398 122.815 76.3398C123.748 76.3398 124.525 76.255 125.147 76.0854C125.783 75.9016 126.264 75.7179 126.589 75.5341L126.992 76.7639C126.893 76.8346 126.723 76.9194 126.483 77.0183C126.243 77.1032 125.939 77.195 125.571 77.294C125.204 77.3929 124.78 77.4707 124.299 77.5272C123.818 77.5979 123.281 77.6332 122.688 77.6332ZM132.873 76.3186C133.41 76.3186 133.877 76.3045 134.273 76.2762C134.683 76.2338 135.029 76.1843 135.312 76.1278V72.2688C135.156 72.1981 134.909 72.1274 134.57 72.0567C134.23 71.9719 133.764 71.9295 133.17 71.9295C132.831 71.9295 132.477 71.9578 132.11 72.0143C131.742 72.0567 131.403 72.1627 131.092 72.3324C130.781 72.4879 130.527 72.707 130.329 72.9897C130.131 73.2724 130.032 73.647 130.032 74.1135C130.032 74.5234 130.096 74.8697 130.223 75.1524C130.364 75.4352 130.555 75.6613 130.795 75.831C131.05 76.0006 131.347 76.1278 131.686 76.2126C132.039 76.2833 132.435 76.3186 132.873 76.3186ZM132.746 66.0986C133.467 66.0986 134.075 66.2046 134.57 66.4166C135.078 66.6145 135.488 66.8972 135.799 67.2647C136.11 67.6181 136.336 68.0422 136.478 68.537C136.619 69.0317 136.69 69.5689 136.69 70.1484V77.0608C136.548 77.1032 136.344 77.1526 136.075 77.2092C135.806 77.2516 135.495 77.3011 135.142 77.3576C134.789 77.4141 134.393 77.4566 133.955 77.4848C133.531 77.5272 133.092 77.5484 132.64 77.5484C132.06 77.5484 131.523 77.4848 131.029 77.3576C130.548 77.2304 130.124 77.0325 129.756 76.7639C129.403 76.4812 129.12 76.1278 128.908 75.7037C128.71 75.2655 128.611 74.7354 128.611 74.1135C128.611 73.5198 128.724 73.0109 128.951 72.5868C129.177 72.1627 129.495 71.8164 129.905 71.5478C130.315 71.2651 130.802 71.0602 131.368 70.9329C131.933 70.8057 132.548 70.7421 133.212 70.7421C133.41 70.7421 133.615 70.7563 133.827 70.7845C134.054 70.7987 134.266 70.8269 134.463 70.8693C134.676 70.8976 134.852 70.9329 134.994 70.9754C135.149 71.0036 135.255 71.0319 135.312 71.0602V70.3817C135.312 70 135.283 69.6325 135.227 69.2791C135.17 68.9115 135.043 68.5864 134.845 68.3037C134.661 68.0069 134.393 67.7736 134.039 67.604C133.7 67.4202 133.248 67.3284 132.682 67.3284C131.877 67.3284 131.276 67.3849 130.88 67.498C130.484 67.6111 130.195 67.7029 130.011 67.7736L129.82 66.565C130.06 66.4519 130.428 66.3459 130.923 66.247C131.431 66.148 132.039 66.0986 132.746 66.0986ZM143.937 66.141C144.389 66.141 144.813 66.1763 145.209 66.247C145.619 66.3177 145.902 66.3883 146.057 66.459L145.782 67.6464C145.669 67.5899 145.435 67.5333 145.082 67.4768C144.743 67.4061 144.29 67.3708 143.725 67.3708C143.131 67.3708 142.651 67.4132 142.283 67.498C141.93 67.5828 141.696 67.6535 141.583 67.71V77.3152H140.205V66.8619C140.559 66.7064 141.046 66.5509 141.668 66.3954C142.29 66.2258 143.046 66.141 143.937 66.141ZM156.85 76.9759C156.44 77.1173 155.917 77.2516 155.281 77.3788C154.645 77.506 153.839 77.5696 152.864 77.5696C152.058 77.5696 151.323 77.4424 150.659 77.188C150.009 76.9194 149.443 76.5377 148.963 76.043C148.496 75.5482 148.129 74.9475 147.86 74.2407C147.606 73.5339 147.478 72.7352 147.478 71.8447C147.478 71.0107 147.584 70.2474 147.797 69.5547C148.023 68.8479 148.348 68.2401 148.772 67.7312C149.196 67.2223 149.712 66.8265 150.32 66.5438C150.942 66.2611 151.648 66.1198 152.44 66.1198C153.161 66.1198 153.783 66.2258 154.306 66.4378C154.843 66.6357 155.232 66.8265 155.472 67.0103V61.1157L156.85 60.8613V76.9759ZM155.472 68.3461C155.345 68.2472 155.182 68.1412 154.984 68.0281C154.801 67.915 154.582 67.809 154.327 67.71C154.073 67.6111 153.797 67.5333 153.5 67.4768C153.203 67.4061 152.892 67.3708 152.567 67.3708C151.889 67.3708 151.316 67.4909 150.85 67.7312C150.397 67.9715 150.03 68.2966 149.747 68.7066C149.465 69.1024 149.26 69.5759 149.132 70.1272C149.005 70.6644 148.941 71.2369 148.941 71.8447C148.941 73.2865 149.302 74.3962 150.023 75.1736C150.744 75.937 151.698 76.3186 152.885 76.3186C153.564 76.3186 154.108 76.2904 154.518 76.2338C154.942 76.1631 155.26 76.0925 155.472 76.0218V68.3461Z" fill="white"/>
<path d="M112.736 43.3558C112.062 43.3736 111.494 42.8634 111.416 42.1893C111.324 41.3963 111.933 40.7028 112.717 40.6992C119.664 40.5978 125.755 45.4246 127.237 52.205C127.406 52.9756 126.863 53.7217 126.083 53.812C125.409 53.8901 124.781 53.4404 124.637 52.774C123.424 47.2149 118.424 43.253 112.736 43.3558Z" fill="white"/>
<path d="M113.306 48.6813C112.646 48.6506 112.108 48.1638 112.033 47.5161C111.939 46.7098 112.559 45.9884 113.36 46.0229C117.359 46.2027 120.818 48.9433 121.899 52.7896C122.122 53.5542 121.555 54.3297 120.762 54.4216L120.749 54.4231C120.101 54.4981 119.51 54.0776 119.324 53.4496C118.535 50.748 116.116 48.8314 113.306 48.6813Z" fill="white"/>
<path d="M560.936 41.2644C561.691 40.8822 562.433 41.1419 562.696 41.6604L562.709 41.6828L562.722 41.7051C565.934 47.2574 567.82 53.6052 567.857 60.4925C567.894 67.3729 566.078 73.7347 562.931 79.3169C562.531 79.9509 561.861 80.1286 561.181 79.8125C560.562 79.4088 560.394 78.7406 560.714 78.065C563.746 72.891 565.378 66.8962 565.344 60.5059C565.31 54.0992 563.471 48.1278 560.532 43.0049C560.164 42.2573 560.422 41.525 560.936 41.2644ZM553.128 45.3578C553.868 45.004 554.589 45.2633 554.848 45.7725L554.865 45.8056L554.884 45.8378C557.535 50.1593 559.008 55.144 559.037 60.5395C559.065 65.9324 557.647 70.9306 555.045 75.2787C554.646 75.9202 553.972 76.101 553.289 75.7832C552.668 75.3782 552.502 74.7074 552.826 74.0298C555.039 70.0995 556.415 65.4674 556.388 60.5536C556.362 55.6617 555.083 51.0379 552.677 47.1073C552.352 46.4363 552.514 45.7675 553.128 45.3578ZM545.225 49.4166C545.65 49.1095 546.449 49.2184 546.922 49.8529C548.878 52.9565 550.06 56.708 550.081 60.5872C550.102 64.599 548.961 68.2292 547.037 71.3555C546.591 71.9682 545.91 72.1404 545.322 71.7933C544.685 71.3264 544.569 70.5311 544.871 70.1033L544.886 70.0818L545.21 69.541C546.723 66.9163 547.585 63.8187 547.568 60.6006C547.55 57.1687 546.533 53.8848 544.8 51.1728C544.425 50.5775 544.593 49.8738 545.225 49.4166ZM537.512 53.3923C538.107 52.9628 538.875 53.097 539.222 53.5775L539.23 53.5863L539.235 53.595C540.004 54.6091 540.635 55.7361 541.012 56.8415C541.409 58.1416 541.661 59.3993 541.668 60.632C541.675 61.9294 541.551 63.1577 541.074 64.3666C540.556 65.6832 540.054 66.6925 539.31 67.6954L539.305 67.7033L539.297 67.7121C538.955 68.1965 538.189 68.3388 537.589 67.9155C537.11 67.5766 536.966 66.8219 537.374 66.2252C537.984 65.4483 538.426 64.5396 538.717 63.6516C539.02 62.727 539.161 61.6758 539.155 60.6453C539.15 59.615 538.998 58.5661 538.685 57.6449C538.385 56.76 537.933 55.8562 537.315 55.0857C536.9 54.4934 537.036 53.7363 537.512 53.3923Z" fill="white"/>
<g filter="url(#filter0_di_144_7842)">
<path d="M28.1882 331.338C28.188 330.761 28.3321 330.261 28.6204 329.838C28.9087 329.405 29.3124 329.068 29.8315 328.828C30.3506 328.587 30.9563 328.467 31.6485 328.467C32.2735 328.466 32.8167 328.577 33.2783 328.798C33.7495 329.019 34.1245 329.336 34.4035 329.749C34.6824 330.163 34.846 330.658 34.8943 331.235H33.8415C33.7836 330.658 33.5624 330.211 33.1777 329.894C32.793 329.567 32.2786 329.404 31.6344 329.404C30.9133 329.404 30.3317 329.577 29.8895 329.924C29.4474 330.27 29.2264 330.736 29.2266 331.323C29.2267 331.775 29.3615 332.15 29.6308 332.448C29.9001 332.736 30.3039 332.947 30.8424 333.082L32.6164 333.514C33.4241 333.706 34.0347 334.033 34.4483 334.494C34.8619 334.946 35.0688 335.523 35.069 336.224C35.0692 336.811 34.9251 337.325 34.6369 337.768C34.3486 338.21 33.9401 338.551 33.4113 338.792C32.8826 339.033 32.2625 339.153 31.551 339.153C30.8876 339.153 30.2963 339.043 29.7771 338.822C29.2674 338.601 28.8635 338.284 28.5653 337.871C28.2768 337.457 28.1083 336.972 28.0601 336.414H29.1273C29.1563 336.962 29.392 337.399 29.8344 337.726C30.2768 338.043 30.8489 338.202 31.5507 338.201C32.3103 338.201 32.9111 338.028 33.3533 337.682C33.8051 337.335 34.0308 336.869 34.0307 336.282C34.0305 335.811 33.8958 335.432 33.6265 335.143C33.3668 334.845 32.9581 334.629 32.4004 334.495L30.6552 334.063C29.8476 333.871 29.2321 333.549 28.8089 333.097C28.3954 332.636 28.1885 332.049 28.1882 331.338ZM43.9894 338.976L37.8025 338.978L37.7991 328.652L43.9716 328.65L43.9719 329.602L38.1888 329.604L38.8376 329.041L38.839 333.324L43.4972 333.323L43.4975 334.26L38.8393 334.262L38.8407 338.588L38.1916 338.026L43.9891 338.024L43.9894 338.976ZM51.1743 339.132C50.2129 339.133 49.3667 338.912 48.6359 338.47C47.9146 338.018 47.3472 337.393 46.9335 336.595C46.5294 335.798 46.3272 334.87 46.3269 333.812C46.3265 332.755 46.5329 331.827 46.9461 331.029C47.3593 330.221 47.9359 329.596 48.6761 329.153C49.4163 328.701 50.2671 328.475 51.2285 328.475C51.9785 328.474 52.6563 328.614 53.2621 328.892C53.8679 329.171 54.3776 329.565 54.7912 330.074C55.2048 330.574 55.479 331.17 55.6139 331.862L54.5034 331.863C54.282 331.113 53.878 330.526 53.2914 330.104C52.7048 329.681 52.0028 329.469 51.1856 329.47C50.4357 329.47 49.7723 329.653 49.1956 330.018C48.6284 330.374 48.1863 330.879 47.8693 331.533C47.5618 332.177 47.4082 332.937 47.4085 333.812C47.4088 334.668 47.5677 335.422 47.8852 336.076C48.2027 336.73 48.6451 337.239 49.2125 337.604C49.7798 337.96 50.4385 338.137 51.1884 338.137C52.0057 338.137 52.7171 337.93 53.3226 337.516C53.9282 337.103 54.3415 336.555 54.5624 335.872H55.6728C55.5192 336.516 55.2262 337.083 54.7937 337.574C54.3708 338.064 53.8469 338.449 53.2221 338.728C52.5972 338.997 51.9146 339.132 51.1743 339.132ZM58.2616 335.38L58.2594 328.645H59.2978L59.3 335.337C59.3003 336.241 59.5409 336.933 60.0217 337.413C60.5026 337.894 61.1949 338.134 62.0987 338.134C62.9736 338.133 63.6514 337.893 64.1319 337.412C64.6125 336.921 64.8526 336.229 64.8523 335.335L64.8502 328.643H65.8885L65.8907 335.378C65.891 336.157 65.7374 336.83 65.4299 337.397C65.132 337.955 64.6995 338.388 64.1324 338.695C63.5652 338.994 62.8874 339.143 62.099 339.143C61.301 339.143 60.6135 338.995 60.0366 338.697C59.4692 338.399 59.0316 337.966 58.7238 337.399C58.4159 336.832 58.2619 336.159 58.2616 335.38ZM70.238 338.967L69.1997 338.968L69.1963 328.642L73.0469 328.641C74.0853 328.64 74.9026 328.909 75.4989 329.447C76.1048 329.976 76.4078 330.702 76.4081 331.625C76.4084 332.365 76.2211 332.985 75.8463 333.485C75.4811 333.985 74.9669 334.327 74.3035 334.51L76.5115 338.965L75.3578 338.966L73.2508 334.683L70.2366 334.684L70.238 338.967ZM70.235 329.579L70.2363 333.747L73.0774 333.746C73.7889 333.746 74.3417 333.558 74.7357 333.183C75.1394 332.808 75.3412 332.298 75.3409 331.654C75.3407 330.981 75.1338 330.467 74.7203 330.111C74.3068 329.755 73.7491 329.578 73.0472 329.578L70.235 329.579ZM85.4768 338.962L79.2898 338.965L79.2865 328.639L85.459 328.637L85.4593 329.588L79.6762 329.59L80.3249 329.028L80.3263 333.311L84.9846 333.309L84.9849 334.247L80.3267 334.248L80.3281 338.575L79.6789 338.013L85.4764 338.011L85.4768 338.962Z" fill="#F3F3F3"/>
</g>
<path d="M93.4194 331.489L93.4209 335.943" stroke="white" stroke-width="0.848339" stroke-linecap="round"/>
<g filter="url(#filter1_di_144_7842)">
<path d="M102.623 328.631L102.627 338.957H101.588L101.585 328.631H102.623ZM105.524 335.163L102.409 335.164V334.227L105.322 334.226C106.072 334.225 106.654 334.009 107.067 333.576C107.48 333.134 107.687 332.562 107.686 331.86C107.686 331.148 107.479 330.591 107.066 330.187C106.652 329.774 106.09 329.567 105.378 329.567L101.96 329.569V328.631L105.522 328.63C106.186 328.63 106.758 328.764 107.238 329.033C107.729 329.302 108.104 329.682 108.364 330.172C108.633 330.662 108.768 331.23 108.768 331.874C108.768 332.499 108.634 333.061 108.365 333.561C108.105 334.061 107.731 334.456 107.24 334.744C106.76 335.023 106.188 335.163 105.524 335.163ZM112.351 338.954H111.312L111.309 328.628L115.16 328.627C116.198 328.626 117.015 328.895 117.612 329.434C118.217 329.962 118.521 330.688 118.521 331.611C118.521 332.351 118.334 332.972 117.959 333.472C117.594 333.972 117.08 334.313 116.416 334.496L118.624 338.952H117.47L115.363 334.669L112.349 334.67L112.351 338.954ZM112.348 329.565L112.349 333.733L115.19 333.732C115.902 333.732 116.454 333.544 116.848 333.169C117.252 332.794 117.454 332.284 117.454 331.64C117.453 330.967 117.247 330.453 116.833 330.097C116.419 329.742 115.862 329.564 115.16 329.564L112.348 329.565ZM122.437 328.624L122.441 338.95L121.402 338.951L121.399 328.625L122.437 328.624ZM128.658 338.948L124.703 328.624L125.814 328.623L128.57 335.804C128.676 336.083 128.782 336.372 128.888 336.67C128.994 336.958 129.105 337.285 129.22 337.65C129.326 337.275 129.436 336.919 129.551 336.583C129.676 336.246 129.777 335.982 129.854 335.79L132.592 328.621H133.659L129.74 338.948H128.658ZM134.597 338.946L133.544 338.947L137.334 328.62L138.618 328.619L142.457 338.944H141.375L140.365 336.204L135.606 336.206L134.597 338.946ZM137.839 330.076L135.923 335.297L140.033 335.296L138.099 330.076C138.08 329.999 138.056 329.922 138.027 329.845C137.998 329.768 137.979 329.706 137.969 329.658C137.959 329.706 137.94 329.773 137.911 329.86C137.892 329.937 137.868 330.009 137.839 330.076ZM146.941 329.078L146.944 338.942L145.905 338.943L145.902 329.078H146.941ZM142.73 329.57L142.729 328.618L150.128 328.615V329.567L142.73 329.57ZM158.613 338.939L152.426 338.941L152.422 328.615L158.595 328.613V329.564L152.812 329.566L153.461 329.004L153.462 333.287L158.12 333.285L158.121 334.223L153.462 334.224L153.464 338.551L152.815 337.989L158.612 337.987L158.613 338.939Z" fill="#F3F3F3"/>
</g>
<path d="M166.376 331.465L166.378 335.919" stroke="white" stroke-width="0.848339" stroke-linecap="round"/>
<g filter="url(#filter2_di_144_7842)">
<path d="M175.456 328.607L175.459 338.933H174.421L174.417 328.607H175.456ZM174.594 338.933V337.981L180.204 337.98V338.931L174.594 338.933ZM183.659 328.604L183.662 338.93L182.624 338.931L182.62 328.605L183.659 328.604ZM188.062 338.929H187.038L187.035 328.603H188.059L191.826 337.702L195.587 328.6H196.625L196.629 338.926H195.605L195.603 334.023C195.603 333.571 195.603 333.177 195.603 332.84C195.612 332.504 195.617 332.211 195.617 331.961C195.626 331.711 195.636 331.49 195.645 331.297C195.655 331.095 195.669 330.903 195.689 330.72L192.331 338.928H191.336L187.973 330.766C188.002 330.958 188.021 331.329 188.031 331.877C188.05 332.415 188.06 333.078 188.06 333.867L188.062 338.929ZM201.036 328.599L201.04 338.925H200.001L199.998 328.599H201.036ZM207.542 329.058L207.545 338.923H206.507L206.504 329.058H207.542ZM203.331 329.55V328.598L210.729 328.596V329.547L203.331 329.55ZM214.062 328.594L214.066 338.92L213.027 338.921L213.024 328.595L214.062 328.594ZM213.2 338.921V337.969L218.81 337.967V338.919L213.2 338.921ZM227.417 338.916L221.23 338.918L221.227 328.592L227.399 328.59L227.4 329.542L221.616 329.544L222.265 328.981L222.267 333.264L226.925 333.263V334.2L222.267 334.202L222.268 338.528L221.619 337.966L227.417 337.964V338.916ZM229.768 331.272C229.768 330.695 229.912 330.195 230.2 329.772C230.489 329.339 230.892 329.002 231.411 328.762C231.93 328.521 232.536 328.401 233.228 328.401C233.853 328.4 234.397 328.511 234.858 328.732C235.329 328.953 235.704 329.27 235.983 329.683C236.262 330.097 236.426 330.592 236.474 331.169H235.421C235.364 330.592 235.142 330.145 234.758 329.828C234.373 329.501 233.858 329.338 233.214 329.338C232.493 329.338 231.912 329.512 231.469 329.858C231.027 330.204 230.806 330.671 230.806 331.257C230.807 331.709 230.941 332.084 231.211 332.382C231.48 332.67 231.884 332.881 232.422 333.016L234.196 333.448C235.004 333.64 235.615 333.967 236.028 334.428C236.442 334.88 236.649 335.457 236.649 336.158C236.649 336.745 236.505 337.259 236.217 337.702C235.928 338.144 235.52 338.486 234.991 338.726C234.463 338.967 233.842 339.087 233.131 339.087C232.468 339.087 231.876 338.977 231.357 338.756C230.847 338.535 230.443 338.218 230.145 337.805C229.857 337.391 229.688 336.906 229.64 336.348H230.707C230.736 336.896 230.972 337.333 231.414 337.66C231.857 337.977 232.429 338.136 233.131 338.135C233.89 338.135 234.491 337.962 234.933 337.616C235.385 337.269 235.611 336.803 235.611 336.217C235.61 335.745 235.476 335.366 235.206 335.077C234.947 334.779 234.538 334.563 233.98 334.429L232.235 333.997C231.427 333.805 230.812 333.483 230.389 333.031C229.975 332.57 229.768 331.983 229.768 331.272ZM238.788 331.269C238.788 330.692 238.932 330.192 239.22 329.769C239.508 329.336 239.912 328.999 240.431 328.759C240.95 328.518 241.556 328.398 242.248 328.398C242.873 328.398 243.416 328.508 243.878 328.729C244.349 328.95 244.724 329.267 245.003 329.68C245.282 330.094 245.446 330.589 245.494 331.166H244.441C244.383 330.589 244.162 330.142 243.777 329.825C243.393 329.498 242.878 329.335 242.234 329.335C241.513 329.335 240.931 329.509 240.489 329.855C240.047 330.201 239.826 330.668 239.826 331.254C239.826 331.706 239.961 332.081 240.23 332.379C240.5 332.667 240.904 332.879 241.442 333.013L243.216 333.445C244.024 333.637 244.634 333.964 245.048 334.425C245.462 334.877 245.668 335.454 245.669 336.156C245.669 336.742 245.525 337.256 245.237 337.699C244.948 338.141 244.54 338.483 244.011 338.723C243.482 338.964 242.862 339.084 242.151 339.084C241.487 339.085 240.896 338.974 240.377 338.753C239.867 338.532 239.463 338.215 239.165 337.802C238.876 337.388 238.708 336.903 238.66 336.345H239.727C239.756 336.893 239.992 337.33 240.434 337.657C240.876 337.974 241.449 338.133 242.15 338.132C242.91 338.132 243.511 337.959 243.953 337.613C244.405 337.266 244.631 336.8 244.63 336.214C244.63 335.742 244.495 335.363 244.226 335.074C243.966 334.776 243.558 334.56 243 334.426L241.255 333.994C240.447 333.802 239.832 333.48 239.409 333.028C238.995 332.567 238.788 331.98 238.788 331.269Z" fill="#F3F3F3"/>
</g>
<path d="M469.253 98.3241V53.2926H408.177V13.8205H578.849V53.8485H517.772V98.3241H469.253Z" fill="url(#paint2_linear_144_7842)" fill-opacity="0.06"/>
<path d="M492.084 76.0863C553.16 76.0863 602.25 88.317 602.25 103.328C602.249 118.338 553.16 130.569 492.084 130.569C431.007 130.569 381.918 118.338 381.918 103.328C381.918 88.317 431.007 76.0863 492.084 76.0863ZM492.085 80.5326C428.154 80.5326 395.047 97.2112 391.051 103.327C395.048 108.886 428.155 117.225 492.085 117.225C556.585 117.225 589.122 108.886 593.118 103.327C589.122 97.7671 556.015 80.5327 492.085 80.5326Z" fill="url(#paint3_linear_144_7842)" fill-opacity="0.06"/>
<path d="M517.772 112.222V81.089C509.78 80.5331 501.218 79.9772 492.656 79.9772C484.665 79.9772 477.244 79.9772 469.824 80.5331V111.666C476.673 111.666 484.665 112.222 492.656 112.222C501.218 112.778 509.78 112.778 517.772 112.222Z" fill="url(#paint4_linear_144_7842)" fill-opacity="0.06"/>
<path d="M492.087 130.568C484.095 130.568 476.675 130.568 469.254 130.012V212.848H517.202V129.456C509.211 130.012 500.649 130.568 492.087 130.568Z" fill="url(#paint5_linear_144_7842)" fill-opacity="0.06"/>
<g filter="url(#filter3_di_144_7842)">
<path d="M25.8128 304.916L25.8125 303.902L28.7134 303.901L28.7138 304.915C28.714 305.576 28.9107 306.134 29.304 306.59C29.6972 307.045 30.3105 307.273 31.1438 307.273C31.9929 307.273 32.606 307.052 32.9832 306.612C33.3604 306.156 33.5489 305.558 33.5487 304.819L33.5447 292.532L36.5635 292.531L36.5676 304.984C36.5679 305.974 36.3402 306.855 35.8845 307.625C35.4445 308.396 34.8236 309.001 34.0219 309.442C33.2201 309.867 32.2689 310.079 31.1683 310.08C30.0048 310.08 29.022 309.86 28.22 309.42C27.4179 308.964 26.8124 308.351 26.4033 307.581C26.01 306.795 25.8132 305.907 25.8128 304.916ZM55.948 301.133C55.9486 302.878 55.5953 304.427 54.8882 305.779C54.1811 307.116 53.1987 308.162 51.9411 308.917C50.6835 309.672 49.2292 310.05 47.5783 310.051C45.943 310.051 44.4964 309.674 43.2383 308.92C41.9802 308.166 40.9971 307.12 40.2891 305.784C39.5969 304.448 39.2504 302.907 39.2499 301.162C39.2493 299.401 39.6026 297.852 40.3097 296.515C41.0168 295.163 41.9913 294.109 43.2332 293.354C44.4908 292.599 45.9451 292.221 47.596 292.22C49.247 292.22 50.6937 292.597 51.936 293.351C53.1942 294.105 54.1772 295.151 54.8852 296.487C55.5932 297.823 55.9475 299.372 55.948 301.133ZM52.7876 301.134C52.7872 299.907 52.5746 298.846 52.1498 297.95C51.725 297.054 51.1273 296.362 50.3567 295.875C49.5861 295.372 48.6662 295.121 47.597 295.121C46.5435 295.122 45.6238 295.374 44.8378 295.877C44.0675 296.365 43.4702 297.057 43.046 297.953C42.6218 298.849 42.4099 299.911 42.4103 301.137C42.4107 302.364 42.6233 303.433 43.0481 304.345C43.4729 305.241 44.0706 305.932 44.8412 306.419C45.6276 306.907 46.5474 307.15 47.6009 307.15C48.6701 307.149 49.5898 306.905 50.3601 306.418C51.1304 305.914 51.7277 305.214 52.1519 304.318C52.5761 303.406 52.788 302.345 52.7876 301.134ZM61.803 309.763L58.7842 309.764L58.7785 292.523L61.7974 292.522L61.7998 299.669L69.4413 299.666L69.439 292.52L72.4578 292.519L72.4635 309.76L69.4446 309.761L69.4422 302.449L61.8007 302.452L61.803 309.763ZM79.2373 309.757L76.2656 309.758L76.26 292.518L79.2553 292.517L88.222 306.075H87.3493L87.3449 292.514L90.3166 292.513L90.3223 309.754L87.3505 309.755L78.3603 296.22H79.2329L79.2373 309.757ZM107.784 310.031C106.101 310.032 104.638 309.67 103.396 308.948C102.169 308.209 101.211 307.179 100.518 305.859C99.8413 304.523 99.5027 302.95 99.5021 301.142C99.5015 299.35 99.8469 297.785 100.538 296.448C101.245 295.112 102.235 294.074 103.508 293.334C104.782 292.595 106.253 292.225 107.92 292.224C109.287 292.224 110.514 292.475 111.599 292.978C112.684 293.481 113.58 294.188 114.287 295.1C114.995 295.996 115.444 297.065 115.633 298.307L112.45 298.308C112.151 297.302 111.591 296.523 110.774 295.973C109.971 295.408 108.99 295.125 107.826 295.125C106.788 295.126 105.876 295.37 105.09 295.857C104.319 296.345 103.723 297.037 103.299 297.933C102.874 298.83 102.662 299.899 102.662 301.141C102.662 302.336 102.875 303.39 103.3 304.301C103.725 305.197 104.322 305.897 105.093 306.4C105.879 306.887 106.791 307.13 107.829 307.13C109.008 307.13 110.015 306.846 110.849 306.28C111.698 305.714 112.263 304.951 112.546 303.992L115.683 303.991C115.463 305.186 114.983 306.239 114.244 307.152C113.521 308.064 112.602 308.772 111.485 309.275C110.385 309.779 109.152 310.031 107.784 310.031ZM119.14 309.744L116.026 309.745L122.247 292.503L125.337 292.502L131.569 309.74L128.386 309.741L126.993 305.756L120.553 305.758L119.14 309.744ZM123.405 297.644L121.425 303.211L126.118 303.209L124.135 297.644C124.072 297.408 124.003 297.172 123.924 296.936C123.845 296.7 123.798 296.496 123.782 296.323C123.751 296.48 123.696 296.685 123.617 296.936C123.554 297.172 123.484 297.408 123.405 297.644ZM136.75 309.739L133.731 309.74L133.726 292.499L140.306 292.497C142.256 292.496 143.773 292.967 144.858 293.91C145.959 294.853 146.51 296.174 146.511 297.872C146.511 299.02 146.243 300.003 145.709 300.821C145.19 301.623 144.421 302.236 143.399 302.661L146.679 309.735L143.377 309.736L140.45 303.299L136.748 303.3L136.75 309.739ZM136.746 295.187L136.746 300.635L140.308 300.634C141.267 300.633 142.015 300.389 142.549 299.902C143.083 299.414 143.35 298.738 143.349 297.873C143.349 297.008 143.081 296.348 142.547 295.892C142.012 295.421 141.265 295.185 140.306 295.185L136.746 295.187ZM155.853 293.93L155.858 309.732L152.838 309.733L152.834 293.931L155.853 293.93ZM147.787 295.277L147.785 292.494L160.898 292.49L160.9 295.273L147.787 295.277ZM173.919 309.726L163.212 309.73L163.207 292.489L173.914 292.486L173.915 295.269L165.164 295.272L166.225 294.304L166.228 299.705L173.115 299.703L173.116 302.368L166.228 302.37L166.23 307.913L165.168 306.946L173.918 306.943L173.919 309.726ZM180.189 309.724L177.169 309.725L177.164 292.485L183.745 292.483C185.694 292.482 187.212 292.953 188.297 293.896C189.398 294.839 189.948 296.16 189.948 297.858C189.949 299.006 189.682 299.989 189.147 300.806C188.629 301.608 187.859 302.222 186.837 302.647L190.117 309.721L186.815 309.722L183.889 303.284L180.186 303.286L180.189 309.724ZM180.184 295.172L180.185 300.621L183.746 300.619C184.706 300.619 185.452 300.375 185.987 299.888C186.521 299.4 186.789 298.724 186.789 297.859C186.789 296.994 186.521 296.334 185.986 295.878C185.452 295.407 184.705 295.171 183.746 295.171L180.184 295.172Z" fill="#F3F3F3"/>
</g>
</g>
<path d="M8.49219 0.934326H594.841C598.739 0.934582 601.898 4.09376 601.898 7.99097V373.591C601.898 377.488 598.739 380.647 594.841 380.647H8.49219C4.59488 380.647 1.43564 377.488 1.43555 373.591V7.99097C1.43574 4.09372 4.59494 0.934513 8.49219 0.934326Z" stroke="url(#paint6_linear_144_7842)" stroke-width="0.704862"/>
</g>
<defs>
<filter id="filter0_di_144_7842" x="24.6667" y="325.922" width="64.2035" height="17.4728" filterUnits="userSpaceOnUse" color-interpolation-filters="sRGB">
<feFlood flood-opacity="0" result="BackgroundImageFix"/>
<feColorMatrix in="SourceAlpha" type="matrix" values="0 0 0 0 0 0 0 0 0 0 0 0 0 0 0 0 0 0 127 0" result="hardAlpha"/>
<feOffset dy="0.848339"/>
<feGaussianBlur stdDeviation="1.69668"/>
<feComposite in2="hardAlpha" operator="out"/>
<feColorMatrix type="matrix" values="0 0 0 0 0.154167 0 0 0 0 0.154167 0 0 0 0 0.154167 0 0 0 0.58 0"/>
<feBlend mode="normal" in2="BackgroundImageFix" result="effect1_dropShadow_144_7842"/>
<feBlend mode="normal" in="SourceGraphic" in2="effect1_dropShadow_144_7842" result="shape"/>
<feColorMatrix in="SourceAlpha" type="matrix" values="0 0 0 0 0 0 0 0 0 0 0 0 0 0 0 0 0 0 127 0" result="hardAlpha"/>
<feOffset dy="-0.848339"/>
<feGaussianBlur stdDeviation="0.424169"/>
<feComposite in2="hardAlpha" operator="arithmetic" k2="-1" k3="1"/>
<feColorMatrix type="matrix" values="0 0 0 0 0.208333 0 0 0 0 0.208333 0 0 0 0 0.208333 0 0 0 0.22 0"/>
<feBlend mode="normal" in2="shape" result="effect2_innerShadow_144_7842"/>
</filter>
<filter id="filter1_di_144_7842" x="98.1921" y="326.068" width="63.8148" height="17.1308" filterUnits="userSpaceOnUse" color-interpolation-filters="sRGB">
<feFlood flood-opacity="0" result="BackgroundImageFix"/>
<feColorMatrix in="SourceAlpha" type="matrix" values="0 0 0 0 0 0 0 0 0 0 0 0 0 0 0 0 0 0 127 0" result="hardAlpha"/>
<feOffset dy="0.848339"/>
<feGaussianBlur stdDeviation="1.69668"/>
<feComposite in2="hardAlpha" operator="out"/>
<feColorMatrix type="matrix" values="0 0 0 0 0.154167 0 0 0 0 0.154167 0 0 0 0 0.154167 0 0 0 0.58 0"/>
<feBlend mode="normal" in2="BackgroundImageFix" result="effect1_dropShadow_144_7842"/>
<feBlend mode="normal" in="SourceGraphic" in2="effect1_dropShadow_144_7842" result="shape"/>
<feColorMatrix in="SourceAlpha" type="matrix" values="0 0 0 0 0 0 0 0 0 0 0 0 0 0 0 0 0 0 127 0" result="hardAlpha"/>
<feOffset dy="-0.848339"/>
<feGaussianBlur stdDeviation="0.424169"/>
<feComposite in2="hardAlpha" operator="arithmetic" k2="-1" k3="1"/>
<feColorMatrix type="matrix" values="0 0 0 0 0.208333 0 0 0 0 0.208333 0 0 0 0 0.208333 0 0 0 0.22 0"/>
<feBlend mode="normal" in2="shape" result="effect2_innerShadow_144_7842"/>
</filter>
<filter id="filter2_di_144_7842" x="171.023" y="325.853" width="78.0387" height="17.4757" filterUnits="userSpaceOnUse" color-interpolation-filters="sRGB">
<feFlood flood-opacity="0" result="BackgroundImageFix"/>
<feColorMatrix in="SourceAlpha" type="matrix" values="0 0 0 0 0 0 0 0 0 0 0 0 0 0 0 0 0 0 127 0" result="hardAlpha"/>
<feOffset dy="0.848339"/>
<feGaussianBlur stdDeviation="1.69668"/>
<feComposite in2="hardAlpha" operator="out"/>
<feColorMatrix type="matrix" values="0 0 0 0 0.154167 0 0 0 0 0.154167 0 0 0 0 0.154167 0 0 0 0.58 0"/>
<feBlend mode="normal" in2="BackgroundImageFix" result="effect1_dropShadow_144_7842"/>
<feBlend mode="normal" in="SourceGraphic" in2="effect1_dropShadow_144_7842" result="shape"/>
<feColorMatrix in="SourceAlpha" type="matrix" values="0 0 0 0 0 0 0 0 0 0 0 0 0 0 0 0 0 0 127 0" result="hardAlpha"/>
<feOffset dy="-0.848339"/>
<feGaussianBlur stdDeviation="0.424169"/>
<feComposite in2="hardAlpha" operator="arithmetic" k2="-1" k3="1"/>
<feColorMatrix type="matrix" values="0 0 0 0 0.208333 0 0 0 0 0.208333 0 0 0 0 0.208333 0 0 0 0.22 0"/>
<feBlend mode="normal" in2="shape" result="effect2_innerShadow_144_7842"/>
</filter>
<filter id="filter3_di_144_7842" x="22.4191" y="289.675" width="171.092" height="24.6467" filterUnits="userSpaceOnUse" color-interpolation-filters="sRGB">
<feFlood flood-opacity="0" result="BackgroundImageFix"/>
<feColorMatrix in="SourceAlpha" type="matrix" values="0 0 0 0 0 0 0 0 0 0 0 0 0 0 0 0 0 0 127 0" result="hardAlpha"/>
<feOffset dy="0.848339"/>
<feGaussianBlur stdDeviation="1.69668"/>
<feComposite in2="hardAlpha" operator="out"/>
<feColorMatrix type="matrix" values="0 0 0 0 0.154167 0 0 0 0 0.154167 0 0 0 0 0.154167 0 0 0 0.58 0"/>
<feBlend mode="normal" in2="BackgroundImageFix" result="effect1_dropShadow_144_7842"/>
<feBlend mode="normal" in="SourceGraphic" in2="effect1_dropShadow_144_7842" result="shape"/>
<feColorMatrix in="SourceAlpha" type="matrix" values="0 0 0 0 0 0 0 0 0 0 0 0 0 0 0 0 0 0 127 0" result="hardAlpha"/>
<feOffset dy="-0.848339"/>
<feGaussianBlur stdDeviation="0.424169"/>
<feComposite in2="hardAlpha" operator="arithmetic" k2="-1" k3="1"/>
<feColorMatrix type="matrix" values="0 0 0 0 0.208333 0 0 0 0 0.208333 0 0 0 0 0.208333 0 0 0 0.22 0"/>
<feBlend mode="normal" in2="shape" result="effect2_innerShadow_144_7842"/>
</filter>
<linearGradient id="paint0_linear_144_7842" x1="283.481" y1="181.921" x2="351.518" y2="419.294" gradientUnits="userSpaceOnUse">
<stop stop-color="#171717"/>
<stop offset="1" stop-color="#B9B9B9"/>
</linearGradient>
<linearGradient id="paint1_linear_144_7842" x1="135.985" y1="-16.4731" x2="-350.441" y2="289.652" gradientUnits="userSpaceOnUse">
<stop stop-color="#1C1C1C"/>
<stop offset="0.742198"/>
</linearGradient>
<linearGradient id="paint2_linear_144_7842" x1="493.513" y1="13.8205" x2="493.513" y2="98.3241" gradientUnits="userSpaceOnUse">
<stop stop-color="#171717"/>
<stop offset="1" stop-color="#B9B9B9"/>
</linearGradient>
<linearGradient id="paint3_linear_144_7842" x1="492.084" y1="76.0863" x2="492.084" y2="130.569" gradientUnits="userSpaceOnUse">
<stop stop-color="#171717"/>
<stop offset="1" stop-color="#B9B9B9"/>
</linearGradient>
<linearGradient id="paint4_linear_144_7842" x1="493.798" y1="79.9772" x2="493.798" y2="112.639" gradientUnits="userSpaceOnUse">
<stop stop-color="#171717"/>
<stop offset="1" stop-color="#B9B9B9"/>
</linearGradient>
<linearGradient id="paint5_linear_144_7842" x1="493.228" y1="129.456" x2="493.228" y2="212.848" gradientUnits="userSpaceOnUse">
<stop stop-color="#171717"/>
<stop offset="1" stop-color="#B9B9B9"/>
</linearGradient>
<linearGradient id="paint6_linear_144_7842" x1="1.08301" y1="190.791" x2="602.25" y2="190.791" gradientUnits="userSpaceOnUse">
<stop stop-color="#0056C2"/>
<stop offset="1" stop-color="#6FA3FF"/>
</linearGradient>
<clipPath id="clip0_144_7842">
<rect width="603" height="381" fill="white" transform="translate(0.201416 0.244019)"/>
</clipPath>
</defs>
</svg>
