<svg width="593" height="239" viewBox="0 0 593 239" fill="none" xmlns="http://www.w3.org/2000/svg">
<rect x="1.20497" y="1.88221" width="590.132" height="235.413" rx="47.1658" fill="#141415"/>
<rect x="1.20497" y="1.88221" width="590.132" height="235.413" rx="47.1658" stroke="url(#paint0_linear_144_7187)" stroke-width="2.40993"/>
<path d="M148.13 52.1244C148.009 50.9993 147.503 50.1233 146.609 49.4963C145.725 48.8694 144.574 48.5559 143.157 48.5559C142.161 48.5559 141.306 48.7062 140.593 49.0068C139.88 49.3074 139.335 49.7153 138.957 50.2307C138.579 50.746 138.386 51.3343 138.377 51.9956C138.377 52.5453 138.502 53.0219 138.751 53.4256C139.009 53.8293 139.356 54.1728 139.794 54.4562C140.232 54.7311 140.718 54.9629 141.25 55.1519C141.783 55.3408 142.319 55.4997 142.86 55.6286L145.334 56.2469C146.33 56.4788 147.288 56.7923 148.207 57.1874C149.134 57.5825 149.963 58.0806 150.693 58.6818C151.432 59.283 152.016 60.0087 152.445 60.859C152.875 61.7093 153.089 62.7055 153.089 63.8478C153.089 65.3938 152.694 66.755 151.904 67.9317C151.114 69.0997 149.972 70.0144 148.477 70.6757C146.992 71.3284 145.192 71.6548 143.079 71.6548C141.027 71.6548 139.245 71.337 137.733 70.7015C136.23 70.0659 135.053 69.1384 134.203 67.9188C133.362 66.6992 132.906 65.2134 132.838 63.4613H137.54C137.609 64.3803 137.892 65.1447 138.39 65.7545C138.888 66.3643 139.537 66.8195 140.335 67.1201C141.143 67.4206 142.045 67.5709 143.041 67.5709C144.08 67.5709 144.99 67.4164 145.772 67.1072C146.562 66.7894 147.181 66.3514 147.627 65.7931C148.074 65.2263 148.301 64.565 148.31 63.8092C148.301 63.1221 148.1 62.5552 147.704 62.1086C147.309 61.6534 146.755 61.2755 146.043 60.9749C145.338 60.6658 144.514 60.3909 143.569 60.1504L140.567 59.3775C138.394 58.8192 136.677 57.9732 135.414 56.8395C134.16 55.6973 133.533 54.1814 133.533 52.2919C133.533 50.7374 133.954 49.3761 134.796 48.2081C135.646 47.04 136.801 46.1339 138.261 45.4898C139.721 44.837 141.375 44.5107 143.221 44.5107C145.094 44.5107 146.734 44.837 148.142 45.4898C149.56 46.1339 150.672 47.0314 151.479 48.1823C152.286 49.3246 152.703 50.6386 152.729 52.1244H148.13ZM165.905 71.6419C163.921 71.6419 162.207 71.2297 160.764 70.4052C159.33 69.5721 158.226 68.3955 157.454 66.8753C156.681 65.3465 156.294 63.5472 156.294 61.4774C156.294 59.4419 156.681 57.6555 157.454 56.1181C158.235 54.5722 159.326 53.3698 160.726 52.5109C162.126 51.6435 163.77 51.2098 165.66 51.2098C166.879 51.2098 168.03 51.4073 169.112 51.8024C170.203 52.1888 171.165 52.79 171.998 53.606C172.84 54.4219 173.501 55.4611 173.982 56.7236C174.463 57.9775 174.704 59.4719 174.704 61.2068V62.6368H158.484V59.4934H170.233C170.225 58.6002 170.031 57.8058 169.654 57.1101C169.276 56.4058 168.747 55.8519 168.069 55.4482C167.399 55.0445 166.618 54.8427 165.724 54.8427C164.771 54.8427 163.934 55.0746 163.212 55.5384C162.491 55.9936 161.928 56.5948 161.524 57.342C161.129 58.0806 160.928 58.8922 160.919 59.7768V62.5209C160.919 63.6717 161.129 64.6594 161.55 65.4839C161.971 66.2998 162.559 66.9268 163.315 67.3648C164.071 67.7943 164.956 68.009 165.969 68.009C166.648 68.009 167.262 67.9145 167.811 67.7255C168.361 67.528 168.838 67.2403 169.241 66.8624C169.645 66.4845 169.95 66.0164 170.156 65.4582L174.51 65.9477C174.236 67.0986 173.712 68.1034 172.939 68.9623C172.174 69.8126 171.195 70.4739 170.001 70.9463C168.808 71.41 167.442 71.6419 165.905 71.6419ZM188.53 51.4674V55.0746H177.155V51.4674H188.53ZM179.963 46.7265H184.627V65.3036C184.627 65.9305 184.721 66.4115 184.91 66.7464C185.108 67.0728 185.365 67.2961 185.683 67.4164C186.001 67.5366 186.353 67.5967 186.739 67.5967C187.031 67.5967 187.298 67.5752 187.538 67.5323C187.787 67.4894 187.976 67.4507 188.105 67.4164L188.891 71.0622C188.642 71.1481 188.285 71.2426 187.822 71.3456C187.366 71.4487 186.808 71.5088 186.147 71.526C184.979 71.5603 183.927 71.3843 182.991 70.9978C182.054 70.6027 181.311 69.9929 180.762 69.1684C180.221 68.3439 179.954 67.3133 179.963 66.0765V46.7265ZM215.974 52.1244C215.854 50.9993 215.347 50.1233 214.454 49.4963C213.569 48.8694 212.418 48.5559 211.001 48.5559C210.005 48.5559 209.15 48.7062 208.437 49.0068C207.724 49.3074 207.179 49.7153 206.801 50.2307C206.423 50.746 206.23 51.3343 206.221 51.9956C206.221 52.5453 206.346 53.0219 206.595 53.4256C206.853 53.8293 207.201 54.1728 207.639 54.4562C208.077 54.7311 208.562 54.9629 209.094 55.1519C209.627 55.3408 210.164 55.4997 210.705 55.6286L213.178 56.2469C214.174 56.4788 215.132 56.7923 216.051 57.1874C216.979 57.5825 217.807 58.0806 218.537 58.6818C219.276 59.283 219.86 60.0087 220.29 60.859C220.719 61.7093 220.934 62.7055 220.934 63.8478C220.934 65.3938 220.539 66.755 219.748 67.9317C218.958 69.0997 217.816 70.0144 216.322 70.6757C214.836 71.3284 213.037 71.6548 210.924 71.6548C208.871 71.6548 207.089 71.337 205.577 70.7015C204.074 70.0659 202.898 69.1384 202.047 67.9188C201.206 66.6992 200.751 65.2134 200.682 63.4613H205.384C205.453 64.3803 205.736 65.1447 206.234 65.7545C206.733 66.3643 207.381 66.8195 208.18 67.1201C208.987 67.4206 209.889 67.5709 210.885 67.5709C211.924 67.5709 212.835 67.4164 213.616 67.1072C214.406 66.7894 215.025 66.3514 215.471 65.7931C215.918 65.2263 216.146 64.565 216.154 63.8092C216.146 63.1221 215.944 62.5552 215.549 62.1086C215.154 61.6534 214.6 61.2755 213.887 60.9749C213.183 60.6658 212.358 60.3909 211.413 60.1504L208.412 59.3775C206.239 58.8192 204.521 57.9732 203.258 56.8395C202.005 55.6973 201.378 54.1814 201.378 52.2919C201.378 50.7374 201.798 49.3761 202.64 48.2081C203.49 47.04 204.645 46.1339 206.106 45.4898C207.566 44.837 209.219 44.5107 211.065 44.5107C212.938 44.5107 214.578 44.837 215.987 45.4898C217.404 46.1339 218.516 47.0314 219.323 48.1823C220.131 49.3246 220.547 50.6386 220.573 52.1244H215.974ZM224.989 78.676V51.4674H229.575V54.7396H229.845C230.086 54.2587 230.425 53.7477 230.863 53.2066C231.301 52.6569 231.894 52.1888 232.641 51.8024C233.388 51.4073 234.341 51.2098 235.501 51.2098C237.03 51.2098 238.408 51.6005 239.636 52.3821C240.873 53.1551 241.852 54.3016 242.574 55.8218C243.304 57.3334 243.669 59.1885 243.669 61.3872C243.669 63.5601 243.312 65.4066 242.599 66.9268C241.887 68.447 240.916 69.6064 239.688 70.4052C238.46 71.2039 237.068 71.6033 235.514 71.6033C234.38 71.6033 233.44 71.4143 232.692 71.0364C231.945 70.6585 231.344 70.2033 230.889 69.6709C230.442 69.1298 230.094 68.6188 229.845 68.1378H229.652V78.676H224.989ZM229.562 61.3614C229.562 62.6411 229.742 63.7619 230.103 64.7238C230.472 65.6858 231.001 66.4373 231.688 66.9783C232.383 67.5108 233.225 67.7771 234.213 67.7771C235.243 67.7771 236.106 67.5022 236.802 66.9526C237.498 66.3943 238.022 65.6342 238.374 64.6723C238.735 63.7018 238.915 62.5982 238.915 61.3614C238.915 60.1333 238.739 59.0425 238.387 58.0892C238.035 57.1359 237.511 56.3887 236.815 55.8476C236.119 55.3065 235.252 55.036 234.213 55.036C233.216 55.036 232.37 55.2979 231.675 55.8218C230.979 56.3457 230.451 57.08 230.09 58.0248C229.738 58.9695 229.562 60.0817 229.562 61.3614ZM256.423 71.6419C254.439 71.6419 252.725 71.2297 251.282 70.4052C249.848 69.5721 248.744 68.3955 247.972 66.8753C247.199 65.3465 246.812 63.5472 246.812 61.4774C246.812 59.4419 247.199 57.6555 247.972 56.1181C248.753 54.5722 249.844 53.3698 251.244 52.5109C252.644 51.6435 254.288 51.2098 256.178 51.2098C257.397 51.2098 258.548 51.4073 259.63 51.8024C260.721 52.1888 261.683 52.79 262.516 53.606C263.358 54.4219 264.019 55.4611 264.5 56.7236C264.981 57.9775 265.222 59.4719 265.222 61.2068V62.6368H249.002V59.4934H260.751C260.743 58.6002 260.549 57.8058 260.172 57.1101C259.794 56.4058 259.265 55.8519 258.587 55.4482C257.917 55.0445 257.136 54.8427 256.242 54.8427C255.289 54.8427 254.452 55.0746 253.73 55.5384C253.009 55.9936 252.446 56.5948 252.042 57.342C251.647 58.0806 251.446 58.8922 251.437 59.7768V62.5209C251.437 63.6717 251.647 64.6594 252.068 65.4839C252.489 66.2998 253.077 66.9268 253.833 67.3648C254.589 67.7943 255.474 68.009 256.487 68.009C257.166 68.009 257.78 67.9145 258.329 67.7255C258.879 67.528 259.356 67.2403 259.759 66.8624C260.163 66.4845 260.468 66.0164 260.674 65.4582L265.028 65.9477C264.754 67.0986 264.23 68.1034 263.457 68.9623C262.692 69.8126 261.713 70.4739 260.519 70.9463C259.326 71.41 257.96 71.6419 256.423 71.6419ZM273.831 59.6609V71.2554H269.167V51.4674H273.624V54.8298H273.856C274.312 53.7219 275.037 52.8416 276.034 52.1888C277.038 51.5361 278.279 51.2098 279.757 51.2098C281.122 51.2098 282.312 51.5018 283.325 52.0858C284.347 52.6698 285.137 53.5158 285.696 54.6237C286.263 55.7316 286.542 57.0757 286.533 58.656V71.2554H281.869V59.3775C281.869 58.0548 281.526 57.0199 280.839 56.2727C280.16 55.5255 279.22 55.1519 278.018 55.1519C277.202 55.1519 276.476 55.3323 275.84 55.693C275.213 56.0451 274.72 56.5561 274.359 57.226C274.007 57.8959 273.831 58.7076 273.831 59.6609ZM298.617 71.6033C297.063 71.6033 295.671 71.2039 294.443 70.4052C293.215 69.6064 292.244 68.447 291.532 66.9268C290.819 65.4066 290.462 63.5601 290.462 61.3872C290.462 59.1885 290.823 57.3334 291.544 55.8218C292.275 54.3016 293.258 53.1551 294.495 52.3821C295.731 51.6005 297.11 51.2098 298.63 51.2098C299.79 51.2098 300.743 51.4073 301.49 51.8024C302.237 52.1888 302.83 52.6569 303.268 53.2066C303.706 53.7477 304.045 54.2587 304.286 54.7396H304.479V44.8714H309.155V71.2554H304.569V68.1378H304.286C304.045 68.6188 303.697 69.1298 303.242 69.6709C302.787 70.2033 302.186 70.6585 301.439 71.0364C300.691 71.4143 299.751 71.6033 298.617 71.6033ZM299.918 67.7771C300.906 67.7771 301.748 67.5108 302.443 66.9783C303.139 66.4373 303.667 65.6858 304.028 64.7238C304.389 63.7619 304.569 62.6411 304.569 61.3614C304.569 60.0817 304.389 58.9695 304.028 58.0248C303.676 57.08 303.152 56.3457 302.456 55.8218C301.769 55.2979 300.923 55.036 299.918 55.036C298.879 55.036 298.012 55.3065 297.316 55.8476C296.62 56.3887 296.096 57.1359 295.744 58.0892C295.392 59.0425 295.216 60.1333 295.216 61.3614C295.216 62.5982 295.392 63.7018 295.744 64.6723C296.105 65.6342 296.633 66.3943 297.329 66.9526C298.033 67.5022 298.896 67.7771 299.918 67.7771ZM314.125 71.2554V51.4674H318.788V71.2554H314.125ZM316.47 48.659C315.731 48.659 315.095 48.4142 314.563 47.9246C314.03 47.4265 313.764 46.8296 313.764 46.1339C313.764 45.4297 314.03 44.8327 314.563 44.3432C315.095 43.8451 315.731 43.596 316.47 43.596C317.217 43.596 317.852 43.8451 318.376 44.3432C318.909 44.8327 319.175 45.4297 319.175 46.1339C319.175 46.8296 318.909 47.4265 318.376 47.9246C317.852 48.4142 317.217 48.659 316.47 48.659ZM328.248 59.6609V71.2554H323.584V51.4674H328.042V54.8298H328.273C328.729 53.7219 329.454 52.8416 330.451 52.1888C331.455 51.5361 332.697 51.2098 334.174 51.2098C335.539 51.2098 336.729 51.5018 337.742 52.0858C338.764 52.6698 339.554 53.5158 340.113 54.6237C340.68 55.7316 340.959 57.0757 340.95 58.656V71.2554H336.287V59.3775C336.287 58.0548 335.943 57.0199 335.256 56.2727C334.577 55.5255 333.637 55.1519 332.435 55.1519C331.619 55.1519 330.893 55.3323 330.257 55.693C329.63 56.0451 329.137 56.5561 328.776 57.226C328.424 57.8959 328.248 58.7076 328.248 59.6609ZM354.297 79.0882C352.622 79.0882 351.183 78.8606 349.981 78.4054C348.779 77.9588 347.812 77.3576 347.082 76.6018C346.352 75.846 345.846 75.0086 345.562 74.0897L349.762 73.0719C349.951 73.4584 350.226 73.8406 350.587 74.2185C350.947 74.605 351.432 74.9228 352.042 75.1718C352.661 75.4295 353.438 75.5583 354.374 75.5583C355.697 75.5583 356.792 75.2362 357.659 74.5921C358.527 73.9565 358.96 72.9087 358.96 71.4487V67.6998H358.728C358.488 68.1807 358.136 68.6746 357.672 69.1813C357.217 69.688 356.611 70.1132 355.856 70.4567C355.108 70.8002 354.168 70.972 353.034 70.972C351.514 70.972 350.136 70.6156 348.899 69.9027C347.671 69.1813 346.692 68.1077 345.962 66.682C345.24 65.2477 344.879 63.4527 344.879 61.297C344.879 59.1241 345.24 57.2904 345.962 55.796C346.692 54.293 347.675 53.1551 348.912 52.3821C350.148 51.6005 351.527 51.2098 353.047 51.2098C354.207 51.2098 355.16 51.4073 355.907 51.8024C356.663 52.1888 357.264 52.6569 357.711 53.2066C358.157 53.7477 358.497 54.2587 358.728 54.7396H358.986V51.4674H363.585V71.5775C363.585 73.2695 363.182 74.6694 362.374 75.7773C361.567 76.8852 360.463 77.714 359.063 78.2637C357.663 78.8134 356.075 79.0882 354.297 79.0882ZM354.335 67.3133C355.323 67.3133 356.165 67.0728 356.86 66.5919C357.556 66.1109 358.084 65.4195 358.445 64.5177C358.806 63.6159 358.986 62.5338 358.986 61.2712C358.986 60.0259 358.806 58.9352 358.445 57.999C358.093 57.0629 357.569 56.3371 356.873 55.8218C356.186 55.2979 355.34 55.036 354.335 55.036C353.296 55.036 352.429 55.3065 351.733 55.8476C351.037 56.3887 350.514 57.1316 350.161 58.0763C349.809 59.0125 349.633 60.0774 349.633 61.2712C349.633 62.4822 349.809 63.5429 350.161 64.4533C350.522 65.3551 351.05 66.0594 351.746 66.5661C352.45 67.0642 353.313 67.3133 354.335 67.3133ZM377.57 71.2554V44.8714H382.349V67.2489H393.969V71.2554H377.57ZM397.912 71.2554V51.4674H402.575V71.2554H397.912ZM400.256 48.659C399.518 48.659 398.882 48.4142 398.35 47.9246C397.817 47.4265 397.551 46.8296 397.551 46.1339C397.551 45.4297 397.817 44.8327 398.35 44.3432C398.882 43.8451 399.518 43.596 400.256 43.596C401.003 43.596 401.639 43.8451 402.163 44.3432C402.695 44.8327 402.962 45.4297 402.962 46.1339C402.962 46.8296 402.695 47.4265 402.163 47.9246C401.639 48.4142 401.003 48.659 400.256 48.659ZM407.371 71.2554V51.4674H411.828V54.8298H412.06C412.472 53.6961 413.155 52.8115 414.109 52.176C415.062 51.5318 416.2 51.2098 417.522 51.2098C418.862 51.2098 419.992 51.5361 420.911 52.1888C421.838 52.833 422.491 53.7133 422.869 54.8298H423.075C423.513 53.7305 424.252 52.8545 425.291 52.2017C426.339 51.5404 427.58 51.2098 429.014 51.2098C430.835 51.2098 432.321 51.7852 433.471 52.9361C434.622 54.0869 435.198 55.766 435.198 57.9732V71.2554H430.521V58.6947C430.521 57.4665 430.195 56.569 429.542 56.0022C428.889 55.4267 428.091 55.139 427.146 55.139C426.021 55.139 425.141 55.4911 424.505 56.1954C423.878 56.8911 423.565 57.7972 423.565 58.9137V71.2554H418.991V58.5014C418.991 57.4794 418.682 56.6635 418.064 56.0537C417.454 55.4439 416.655 55.139 415.667 55.139C414.997 55.139 414.388 55.3108 413.838 55.6543C413.288 55.9893 412.85 56.4659 412.524 57.0843C412.198 57.6941 412.034 58.407 412.034 59.2229V71.2554H407.371ZM439.929 71.2554V51.4674H444.593V71.2554H439.929ZM442.274 48.659C441.535 48.659 440.899 48.4142 440.367 47.9246C439.835 47.4265 439.568 46.8296 439.568 46.1339C439.568 45.4297 439.835 44.8327 440.367 44.3432C440.899 43.8451 441.535 43.596 442.274 43.596C443.021 43.596 443.656 43.8451 444.18 44.3432C444.713 44.8327 444.979 45.4297 444.979 46.1339C444.979 46.8296 444.713 47.4265 444.18 47.9246C443.656 48.4142 443.021 48.659 442.274 48.659ZM459.269 51.4674V55.0746H447.894V51.4674H459.269ZM450.702 46.7265H455.366V65.3036C455.366 65.9305 455.46 66.4115 455.649 66.7464C455.847 67.0728 456.104 67.2961 456.422 67.4164C456.74 67.5366 457.092 67.5967 457.479 67.5967C457.771 67.5967 458.037 67.5752 458.277 67.5323C458.526 67.4894 458.715 67.4507 458.844 67.4164L459.63 71.0622C459.381 71.1481 459.025 71.2426 458.561 71.3456C458.106 71.4487 457.547 71.5088 456.886 71.526C455.718 71.5603 454.666 71.3843 453.73 70.9978C452.794 70.6027 452.051 69.9929 451.501 69.1684C450.96 68.3439 450.694 67.3133 450.702 66.0765V46.7265Z" fill="url(#paint1_linear_144_7187)"/>
<path d="M158.496 145.591V116.275H160.374V145.591H158.496ZM163.912 125.654C163.805 124.654 163.355 123.875 162.561 123.318C161.775 122.761 160.752 122.482 159.492 122.482C158.606 122.482 157.847 122.616 157.213 122.883C156.58 123.15 156.095 123.513 155.759 123.971C155.423 124.429 155.251 124.952 155.244 125.539C155.244 126.028 155.354 126.452 155.576 126.811C155.805 127.169 156.114 127.475 156.503 127.727C156.893 127.971 157.324 128.177 157.797 128.345C158.271 128.513 158.748 128.654 159.229 128.769L161.427 129.318C162.313 129.525 163.164 129.803 163.981 130.154C164.805 130.506 165.542 130.948 166.191 131.483C166.848 132.017 167.367 132.662 167.748 133.418C168.13 134.174 168.321 135.059 168.321 136.075C168.321 137.449 167.97 138.659 167.268 139.705C166.565 140.743 165.55 141.556 164.221 142.144C162.901 142.724 161.301 143.014 159.423 143.014C157.599 143.014 156.015 142.732 154.671 142.167C153.335 141.602 152.289 140.777 151.533 139.693C150.785 138.609 150.38 137.289 150.319 135.731H154.499C154.56 136.548 154.812 137.228 155.255 137.77C155.698 138.312 156.274 138.716 156.984 138.983C157.702 139.251 158.503 139.384 159.389 139.384C160.313 139.384 161.122 139.247 161.817 138.972C162.519 138.689 163.069 138.3 163.466 137.804C163.863 137.3 164.065 136.712 164.073 136.04C164.065 135.43 163.886 134.926 163.534 134.529C163.183 134.124 162.691 133.788 162.057 133.521C161.431 133.246 160.698 133.002 159.858 132.788L157.19 132.101C155.259 131.605 153.732 130.853 152.61 129.845C151.495 128.83 150.938 127.482 150.938 125.803C150.938 124.421 151.312 123.211 152.06 122.173C152.816 121.134 153.843 120.329 155.14 119.757C156.438 119.176 157.908 118.886 159.549 118.886C161.214 118.886 162.672 119.176 163.924 119.757C165.183 120.329 166.172 121.127 166.89 122.15C167.607 123.165 167.977 124.333 168 125.654H163.912ZM181.419 119.207V142.659H177.17V123.341H177.033L171.547 126.845V122.951L177.376 119.207H181.419ZM196.042 143.106C194.156 143.106 192.538 142.629 191.187 141.674C189.843 140.713 188.809 139.327 188.083 137.518C187.366 135.701 187.007 133.513 187.007 130.956C187.014 128.398 187.377 126.223 188.095 124.429C188.82 122.627 189.854 121.253 191.198 120.306C192.549 119.36 194.164 118.886 196.042 118.886C197.92 118.886 199.535 119.36 200.886 120.306C202.237 121.253 203.272 122.627 203.989 124.429C204.715 126.23 205.077 128.406 205.077 130.956C205.077 133.521 204.715 135.712 203.989 137.529C203.272 139.338 202.237 140.72 200.886 141.674C199.542 142.629 197.928 143.106 196.042 143.106ZM196.042 139.522C197.508 139.522 198.664 138.8 199.512 137.357C200.367 135.907 200.794 133.773 200.794 130.956C200.794 129.093 200.6 127.528 200.21 126.261C199.821 124.994 199.271 124.039 198.561 123.398C197.851 122.749 197.012 122.425 196.042 122.425C194.584 122.425 193.431 123.15 192.584 124.6C191.736 126.043 191.309 128.162 191.301 130.956C191.294 132.826 191.481 134.399 191.862 135.674C192.252 136.949 192.801 137.911 193.511 138.56C194.221 139.201 195.065 139.522 196.042 139.522ZM212.881 139.453L212.732 140.713C212.626 141.674 212.435 142.652 212.16 143.644C211.893 144.644 211.61 145.564 211.312 146.404C211.015 147.244 210.774 147.904 210.591 148.385H207.797C207.904 147.919 208.049 147.286 208.232 146.484C208.423 145.682 208.606 144.782 208.782 143.782C208.957 142.781 209.076 141.766 209.137 140.735L209.217 139.453H212.881ZM225.235 143.106C223.349 143.106 221.73 142.629 220.379 141.674C219.035 140.713 218.001 139.327 217.276 137.518C216.558 135.701 216.199 133.513 216.199 130.956C216.207 128.398 216.57 126.223 217.287 124.429C218.013 122.627 219.047 121.253 220.391 120.306C221.742 119.36 223.356 118.886 225.235 118.886C227.113 118.886 228.727 119.36 230.078 120.306C231.43 121.253 232.464 122.627 233.182 124.429C233.907 126.23 234.27 128.406 234.27 130.956C234.27 133.521 233.907 135.712 233.182 137.529C232.464 139.338 231.43 140.72 230.078 141.674C228.735 142.629 227.12 143.106 225.235 143.106ZM225.235 139.522C226.7 139.522 227.857 138.8 228.704 137.357C229.559 135.907 229.987 133.773 229.987 130.956C229.987 129.093 229.792 127.528 229.403 126.261C229.013 124.994 228.464 124.039 227.754 123.398C227.044 122.749 226.204 122.425 225.235 122.425C223.776 122.425 222.624 123.15 221.776 124.6C220.929 126.043 220.501 128.162 220.494 130.956C220.486 132.826 220.673 134.399 221.055 135.674C221.444 136.949 221.994 137.911 222.704 138.56C223.414 139.201 224.257 139.522 225.235 139.522ZM246.743 143.106C244.857 143.106 243.239 142.629 241.888 141.674C240.544 140.713 239.51 139.327 238.784 137.518C238.067 135.701 237.708 133.513 237.708 130.956C237.716 128.398 238.078 126.223 238.796 124.429C239.521 122.627 240.556 121.253 241.899 120.306C243.25 119.36 244.865 118.886 246.743 118.886C248.621 118.886 250.236 119.36 251.587 120.306C252.938 121.253 253.973 122.627 254.69 124.429C255.416 126.23 255.778 128.406 255.778 130.956C255.778 133.521 255.416 135.712 254.69 137.529C253.973 139.338 252.938 140.72 251.587 141.674C250.243 142.629 248.629 143.106 246.743 143.106ZM246.743 139.522C248.209 139.522 249.366 138.8 250.213 137.357C251.068 135.907 251.495 133.773 251.495 130.956C251.495 129.093 251.301 127.528 250.911 126.261C250.522 124.994 249.972 124.039 249.262 123.398C248.552 122.749 247.713 122.425 246.743 122.425C245.285 122.425 244.132 123.15 243.285 124.6C242.437 126.043 242.01 128.162 242.002 130.956C241.995 132.826 242.182 134.399 242.563 135.674C242.953 136.949 243.502 137.911 244.212 138.56C244.922 139.201 245.766 139.522 246.743 139.522ZM268.252 143.106C266.366 143.106 264.748 142.629 263.396 141.674C262.053 140.713 261.018 139.327 260.293 137.518C259.575 135.701 259.217 133.513 259.217 130.956C259.224 128.398 259.587 126.223 260.304 124.429C261.03 122.627 262.064 121.253 263.408 120.306C264.759 119.36 266.374 118.886 268.252 118.886C270.13 118.886 271.744 119.36 273.096 120.306C274.447 121.253 275.481 122.627 276.199 124.429C276.924 126.23 277.287 128.406 277.287 130.956C277.287 133.521 276.924 135.712 276.199 137.529C275.481 139.338 274.447 140.72 273.096 141.674C271.752 142.629 270.137 143.106 268.252 143.106ZM268.252 139.522C269.718 139.522 270.874 138.8 271.722 137.357C272.577 135.907 273.004 133.773 273.004 130.956C273.004 129.093 272.809 127.528 272.42 126.261C272.031 124.994 271.481 124.039 270.771 123.398C270.061 122.749 269.221 122.425 268.252 122.425C266.794 122.425 265.641 123.15 264.793 124.6C263.946 126.043 263.518 128.162 263.511 130.956C263.503 132.826 263.69 134.399 264.072 135.674C264.461 136.949 265.011 137.911 265.721 138.56C266.431 139.201 267.275 139.522 268.252 139.522Z" fill="url(#paint2_linear_144_7187)"/>
<path d="M298.598 120.514L291.985 145.083H289.82L296.434 120.514H298.598ZM324.418 144.562V118.911H326.062V144.562H324.418ZM329.949 126.606C329.829 125.591 329.342 124.803 328.487 124.242C327.631 123.68 326.583 123.4 325.34 123.4C324.432 123.4 323.637 123.547 322.955 123.841C322.281 124.135 321.753 124.539 321.372 125.053C320.998 125.568 320.811 126.152 320.811 126.807C320.811 127.354 320.941 127.825 321.202 128.22C321.469 128.607 321.81 128.931 322.224 129.191C322.638 129.445 323.072 129.656 323.527 129.823C323.981 129.983 324.398 130.113 324.779 130.214L326.863 130.775C327.398 130.915 327.992 131.109 328.647 131.356C329.308 131.603 329.939 131.94 330.541 132.368C331.148 132.789 331.649 133.33 332.044 133.991C332.438 134.652 332.635 135.464 332.635 136.426C332.635 137.535 332.344 138.537 331.763 139.432C331.189 140.327 330.347 141.038 329.238 141.566C328.136 142.094 326.796 142.358 325.22 142.358C323.75 142.358 322.478 142.121 321.402 141.646C320.334 141.172 319.492 140.511 318.877 139.662C318.269 138.814 317.925 137.829 317.845 136.706H320.41C320.477 137.481 320.738 138.123 321.192 138.63C321.653 139.131 322.234 139.505 322.935 139.753C323.644 139.993 324.405 140.113 325.22 140.113C326.169 140.113 327.02 139.96 327.775 139.652C328.53 139.338 329.128 138.904 329.569 138.35C330.01 137.789 330.23 137.134 330.23 136.386C330.23 135.704 330.04 135.15 329.659 134.723C329.278 134.295 328.777 133.948 328.156 133.68C327.535 133.413 326.863 133.179 326.142 132.979L323.617 132.258C322.014 131.797 320.744 131.139 319.809 130.284C318.874 129.429 318.406 128.31 318.406 126.927C318.406 125.778 318.717 124.776 319.338 123.921C319.966 123.059 320.808 122.391 321.863 121.917C322.925 121.436 324.111 121.196 325.42 121.196C326.743 121.196 327.919 121.433 328.947 121.907C329.976 122.375 330.791 123.016 331.392 123.831C332 124.646 332.321 125.571 332.354 126.606H329.949ZM342.773 142.278C341.597 142.278 340.538 142.044 339.596 141.576C338.654 141.109 337.899 140.467 337.332 139.652C336.764 138.837 336.453 137.909 336.4 136.867H338.805C338.898 137.795 339.319 138.563 340.067 139.171C340.822 139.773 341.724 140.073 342.773 140.073C343.614 140.073 344.362 139.876 345.017 139.482C345.678 139.088 346.196 138.547 346.57 137.859C346.951 137.164 347.141 136.379 347.141 135.504C347.141 134.609 346.944 133.811 346.55 133.109C346.163 132.401 345.628 131.843 344.947 131.436C344.265 131.028 343.487 130.821 342.612 130.815C341.984 130.808 341.34 130.905 340.678 131.105C340.017 131.299 339.473 131.55 339.045 131.857L336.72 131.576L337.963 121.476H348.624V123.68H340.047L339.326 129.733H339.446C339.867 129.399 340.394 129.121 341.029 128.901C341.664 128.68 342.325 128.57 343.013 128.57C344.269 128.57 345.388 128.871 346.37 129.472C347.358 130.067 348.133 130.882 348.694 131.917C349.262 132.952 349.546 134.135 349.546 135.464C349.546 136.773 349.252 137.942 348.664 138.971C348.083 139.993 347.281 140.801 346.259 141.396C345.237 141.984 344.075 142.278 342.773 142.278ZM360.22 142.278C358.71 142.278 357.424 141.867 356.362 141.045C355.3 140.217 354.488 139.018 353.927 137.448C353.366 135.871 353.086 133.968 353.086 131.737C353.086 129.519 353.366 127.625 353.927 126.055C354.495 124.479 355.31 123.276 356.372 122.448C357.441 121.613 358.723 121.196 360.22 121.196C361.716 121.196 362.995 121.613 364.057 122.448C365.126 123.276 365.941 124.479 366.502 126.055C367.07 127.625 367.354 129.519 367.354 131.737C367.354 133.968 367.073 135.871 366.512 137.448C365.951 139.018 365.14 140.217 364.077 141.045C363.015 141.867 361.729 142.278 360.22 142.278ZM360.22 140.073C361.716 140.073 362.878 139.352 363.707 137.909C364.535 136.466 364.949 134.409 364.949 131.737C364.949 129.96 364.759 128.447 364.378 127.197C364.004 125.948 363.463 124.996 362.755 124.342C362.053 123.687 361.208 123.36 360.22 123.36C358.737 123.36 357.578 124.091 356.743 125.554C355.908 127.01 355.49 129.071 355.49 131.737C355.49 133.513 355.677 135.023 356.051 136.266C356.426 137.508 356.963 138.453 357.665 139.101C358.373 139.749 359.224 140.073 360.22 140.073ZM377.855 142.278C376.345 142.278 375.059 141.867 373.997 141.045C372.935 140.217 372.124 139.018 371.562 137.448C371.001 135.871 370.721 133.968 370.721 131.737C370.721 129.519 371.001 127.625 371.562 126.055C372.13 124.479 372.945 123.276 374.007 122.448C375.076 121.613 376.359 121.196 377.855 121.196C379.351 121.196 380.63 121.613 381.693 122.448C382.761 123.276 383.576 124.479 384.137 126.055C384.705 127.625 384.989 129.519 384.989 131.737C384.989 133.968 384.709 135.871 384.148 137.448C383.586 139.018 382.775 140.217 381.713 141.045C380.651 141.867 379.365 142.278 377.855 142.278ZM377.855 140.073C379.351 140.073 380.514 139.352 381.342 137.909C382.17 136.466 382.584 134.409 382.584 131.737C382.584 129.96 382.394 128.447 382.013 127.197C381.639 125.948 381.098 124.996 380.39 124.342C379.689 123.687 378.844 123.36 377.855 123.36C376.372 123.36 375.213 124.091 374.378 125.554C373.543 127.01 373.126 129.071 373.126 131.737C373.126 133.513 373.313 135.023 373.687 136.266C374.061 137.508 374.598 138.453 375.3 139.101C376.008 139.749 376.86 140.073 377.855 140.073ZM391.647 139.191L391.487 140.274C391.374 141.035 391.2 141.85 390.966 142.718C390.739 143.587 390.502 144.405 390.255 145.173C390.008 145.942 389.804 146.553 389.643 147.007H387.84C387.927 146.579 388.04 146.015 388.181 145.314C388.321 144.612 388.461 143.827 388.601 142.959C388.748 142.097 388.869 141.215 388.962 140.314L389.082 139.191H391.647ZM401.966 142.278C400.456 142.278 399.17 141.867 398.108 141.045C397.046 140.217 396.234 139.018 395.673 137.448C395.112 135.871 394.831 133.968 394.831 131.737C394.831 129.519 395.112 127.625 395.673 126.055C396.241 124.479 397.056 123.276 398.118 122.448C399.187 121.613 400.469 121.196 401.966 121.196C403.462 121.196 404.741 121.613 405.803 122.448C406.872 123.276 407.687 124.479 408.248 126.055C408.816 127.625 409.1 129.519 409.1 131.737C409.1 133.968 408.819 135.871 408.258 137.448C407.697 139.018 406.885 140.217 405.823 141.045C404.761 141.867 403.475 142.278 401.966 142.278ZM401.966 140.073C403.462 140.073 404.624 139.352 405.452 137.909C406.281 136.466 406.695 134.409 406.695 131.737C406.695 129.96 406.505 128.447 406.124 127.197C405.75 125.948 405.209 124.996 404.501 124.342C403.799 123.687 402.954 123.36 401.966 123.36C400.483 123.36 399.324 124.091 398.489 125.554C397.654 127.01 397.236 129.071 397.236 131.737C397.236 133.513 397.423 135.023 397.797 136.266C398.171 137.508 398.709 138.453 399.41 139.101C400.119 139.749 400.97 140.073 401.966 140.073ZM419.601 142.278C418.091 142.278 416.805 141.867 415.743 141.045C414.681 140.217 413.869 139.018 413.308 137.448C412.747 135.871 412.466 133.968 412.466 131.737C412.466 129.519 412.747 127.625 413.308 126.055C413.876 124.479 414.691 123.276 415.753 122.448C416.822 121.613 418.104 121.196 419.601 121.196C421.097 121.196 422.376 121.613 423.438 122.448C424.507 123.276 425.322 124.479 425.883 126.055C426.451 127.625 426.735 129.519 426.735 131.737C426.735 133.968 426.454 135.871 425.893 137.448C425.332 139.018 424.521 140.217 423.458 141.045C422.396 141.867 421.11 142.278 419.601 142.278ZM419.601 140.073C421.097 140.073 422.259 139.352 423.088 137.909C423.916 136.466 424.33 134.409 424.33 131.737C424.33 129.96 424.14 128.447 423.759 127.197C423.385 125.948 422.844 124.996 422.136 124.342C421.434 123.687 420.589 123.36 419.601 123.36C418.118 123.36 416.959 124.091 416.124 125.554C415.289 127.01 414.871 129.071 414.871 131.737C414.871 133.513 415.058 135.023 415.432 136.266C415.806 137.508 416.344 138.453 417.046 139.101C417.754 139.749 418.605 140.073 419.601 140.073ZM437.236 142.278C435.726 142.278 434.44 141.867 433.378 141.045C432.316 140.217 431.504 139.018 430.943 137.448C430.382 135.871 430.102 133.968 430.102 131.737C430.102 129.519 430.382 127.625 430.943 126.055C431.511 124.479 432.326 123.276 433.388 122.448C434.457 121.613 435.74 121.196 437.236 121.196C438.732 121.196 440.011 121.613 441.074 122.448C442.142 123.276 442.957 124.479 443.518 126.055C444.086 127.625 444.37 129.519 444.37 131.737C444.37 133.968 444.09 135.871 443.528 137.448C442.967 139.018 442.156 140.217 441.094 141.045C440.031 141.867 438.746 142.278 437.236 142.278ZM437.236 140.073C438.732 140.073 439.895 139.352 440.723 137.909C441.551 136.466 441.965 134.409 441.965 131.737C441.965 129.96 441.775 128.447 441.394 127.197C441.02 125.948 440.479 124.996 439.771 124.342C439.07 123.687 438.225 123.36 437.236 123.36C435.753 123.36 434.594 124.091 433.759 125.554C432.924 127.01 432.506 129.071 432.506 131.737C432.506 133.513 432.693 135.023 433.068 136.266C433.442 137.508 433.979 138.453 434.681 139.101C435.389 139.749 436.241 140.073 437.236 140.073Z" fill="#AAAAAA"/>
<line x1="44.338" y1="173.123" x2="547.625" y2="173.123" stroke="#E0E0E0" stroke-width="16.1236" stroke-linecap="round"/>
<line x1="44.338" y1="173.123" x2="160.478" y2="173.123" stroke="url(#paint3_linear_144_7187)" stroke-width="16.1236" stroke-linecap="round"/>
<g clip-path="url(#clip0_144_7187)">
<rect x="154.44" y="193.277" width="92.7106" height="36.2781" rx="18.139" fill="#D2E7FF"/>
<path d="M173.571 218.916V204.258H182.36V205.833H175.346V210.786H181.701V212.36H175.346V218.916H173.571ZM191.41 214.421V207.923H193.099V218.916H191.41V217.055H191.295C191.038 217.614 190.637 218.088 190.093 218.48C189.549 218.866 188.862 219.059 188.032 219.059C187.345 219.059 186.734 218.909 186.199 218.608C185.665 218.303 185.245 217.845 184.94 217.234C184.634 216.619 184.482 215.843 184.482 214.908V207.923H186.171V214.794C186.171 215.595 186.395 216.235 186.844 216.712C187.297 217.189 187.874 217.427 188.576 217.427C188.995 217.427 189.422 217.32 189.857 217.105C190.296 216.891 190.663 216.561 190.959 216.118C191.259 215.674 191.41 215.109 191.41 214.421ZM197.882 212.303V218.916H196.193V207.923H197.824V209.641H197.967C198.225 209.082 198.616 208.634 199.141 208.295C199.666 207.951 200.344 207.78 201.174 207.78C201.918 207.78 202.57 207.932 203.128 208.238C203.686 208.538 204.12 208.996 204.43 209.612C204.741 210.223 204.896 210.996 204.896 211.931V218.916H203.207V212.045C203.207 211.182 202.982 210.509 202.534 210.027C202.085 209.54 201.47 209.297 200.687 209.297C200.148 209.297 199.666 209.414 199.241 209.648C198.822 209.881 198.49 210.223 198.247 210.671C198.003 211.12 197.882 211.664 197.882 212.303ZM212.133 219.145C211.217 219.145 210.408 218.914 209.707 218.451C209.006 217.983 208.457 217.325 208.061 216.476C207.665 215.621 207.467 214.612 207.467 213.448C207.467 212.293 207.665 211.291 208.061 210.442C208.457 209.593 209.008 208.937 209.714 208.474C210.42 208.011 211.236 207.78 212.162 207.78C212.878 207.78 213.443 207.899 213.858 208.138C214.278 208.371 214.598 208.639 214.817 208.939C215.041 209.235 215.216 209.478 215.34 209.669H215.483V204.258H217.172V218.916H215.54V217.227H215.34C215.216 217.427 215.039 217.68 214.81 217.986C214.581 218.286 214.254 218.556 213.829 218.794C213.405 219.028 212.839 219.145 212.133 219.145ZM212.362 217.628C213.04 217.628 213.612 217.451 214.08 217.098C214.548 216.74 214.903 216.247 215.146 215.617C215.39 214.982 215.511 214.25 215.511 213.419C215.511 212.599 215.392 211.881 215.154 211.265C214.915 210.645 214.562 210.163 214.094 209.819C213.627 209.471 213.049 209.297 212.362 209.297C211.647 209.297 211.05 209.481 210.573 209.848C210.101 210.211 209.745 210.705 209.507 211.33C209.273 211.95 209.156 212.647 209.156 213.419C209.156 214.202 209.275 214.913 209.514 215.552C209.757 216.187 210.115 216.693 210.587 217.07C211.064 217.442 211.656 217.628 212.362 217.628ZM228.287 210.385L226.77 210.814C226.674 210.561 226.533 210.316 226.347 210.077C226.166 209.834 225.918 209.633 225.603 209.476C225.288 209.318 224.885 209.24 224.393 209.24C223.721 209.24 223.16 209.395 222.711 209.705C222.268 210.01 222.046 210.399 222.046 210.872C222.046 211.291 222.199 211.623 222.504 211.866C222.809 212.11 223.286 212.313 223.935 212.475L225.567 212.876C226.55 213.114 227.282 213.479 227.764 213.971C228.246 214.457 228.487 215.085 228.487 215.853C228.487 216.483 228.306 217.046 227.943 217.542C227.585 218.038 227.084 218.429 226.44 218.716C225.796 219.002 225.047 219.145 224.193 219.145C223.072 219.145 222.144 218.902 221.409 218.415C220.674 217.928 220.209 217.218 220.013 216.282L221.616 215.882C221.769 216.473 222.058 216.917 222.482 217.213C222.912 217.509 223.473 217.656 224.164 217.656C224.952 217.656 225.577 217.489 226.04 217.155C226.507 216.817 226.741 216.411 226.741 215.939C226.741 215.557 226.607 215.237 226.34 214.98C226.073 214.717 225.663 214.522 225.109 214.393L223.277 213.963C222.27 213.725 221.531 213.355 221.058 212.854C220.591 212.348 220.357 211.716 220.357 210.957C220.357 210.337 220.531 209.788 220.879 209.311C221.232 208.834 221.712 208.46 222.318 208.188C222.929 207.916 223.62 207.78 224.393 207.78C225.481 207.78 226.335 208.018 226.956 208.495C227.581 208.973 228.024 209.602 228.287 210.385Z" fill="#1B60C8"/>
</g>
<g clip-path="url(#clip1_144_7187)">
<rect x="255.213" y="193.277" width="182.309" height="36.2781" rx="18.139" fill="#EDD2FF"/>
<path d="M277.142 218.916V204.258H285.988V205.833H278.917V210.786H285.53V212.36H278.917V217.342H286.103V218.916H277.142ZM290.648 212.303V218.916H288.958V207.923H290.59V209.641H290.733C290.991 209.082 291.382 208.634 291.907 208.295C292.432 207.951 293.11 207.78 293.94 207.78C294.684 207.78 295.335 207.932 295.894 208.238C296.452 208.538 296.886 208.996 297.196 209.612C297.506 210.223 297.662 210.996 297.662 211.931V218.916H295.972V212.045C295.972 211.182 295.748 210.509 295.3 210.027C294.851 209.54 294.236 209.297 293.453 209.297C292.914 209.297 292.432 209.414 292.007 209.648C291.588 209.881 291.256 210.223 291.013 210.671C290.769 211.12 290.648 211.664 290.648 212.303ZM305.529 207.923V209.354H299.832V207.923H305.529ZM301.492 205.289H303.181V215.767C303.181 216.244 303.251 216.602 303.389 216.841C303.532 217.074 303.713 217.232 303.933 217.313C304.157 217.389 304.393 217.427 304.642 217.427C304.828 217.427 304.98 217.418 305.1 217.399C305.219 217.375 305.314 217.356 305.386 217.342L305.729 218.859C305.615 218.902 305.455 218.945 305.25 218.988C305.045 219.035 304.785 219.059 304.47 219.059C303.993 219.059 303.525 218.957 303.067 218.752C302.614 218.546 302.237 218.234 301.936 217.814C301.64 217.394 301.492 216.864 301.492 216.225V205.289ZM312.561 219.145C311.502 219.145 310.588 218.911 309.82 218.444C309.056 217.971 308.467 217.313 308.052 216.468C307.642 215.619 307.436 214.631 307.436 213.505C307.436 212.379 307.642 211.387 308.052 210.528C308.467 209.664 309.044 208.992 309.784 208.51C310.528 208.023 311.397 207.78 312.389 207.78C312.962 207.78 313.527 207.875 314.085 208.066C314.644 208.257 315.152 208.567 315.61 208.996C316.068 209.421 316.433 209.984 316.705 210.685C316.977 211.387 317.113 212.25 317.113 213.276V213.992H308.639V212.532H315.395C315.395 211.912 315.271 211.358 315.023 210.872C314.78 210.385 314.431 210.001 313.978 209.719C313.529 209.438 313 209.297 312.389 209.297C311.716 209.297 311.134 209.464 310.643 209.798C310.156 210.127 309.782 210.557 309.519 211.086C309.257 211.616 309.125 212.184 309.125 212.79V213.763C309.125 214.593 309.269 215.297 309.555 215.874C309.846 216.447 310.249 216.884 310.764 217.184C311.28 217.48 311.879 217.628 312.561 217.628C313.005 217.628 313.405 217.566 313.763 217.442C314.126 217.313 314.438 217.122 314.701 216.869C314.963 216.612 315.166 216.292 315.309 215.91L316.941 216.368C316.769 216.922 316.481 217.408 316.075 217.828C315.669 218.243 315.168 218.568 314.572 218.802C313.976 219.031 313.305 219.145 312.561 219.145ZM319.682 218.916V207.923H321.314V209.583H321.429C321.629 209.039 321.992 208.598 322.516 208.259C323.041 207.92 323.633 207.751 324.291 207.751C324.415 207.751 324.571 207.753 324.757 207.758C324.943 207.763 325.083 207.77 325.179 207.78V209.497C325.122 209.483 324.99 209.462 324.785 209.433C324.585 209.4 324.373 209.383 324.148 209.383C323.614 209.383 323.137 209.495 322.717 209.719C322.302 209.939 321.973 210.244 321.729 210.635C321.491 211.022 321.371 211.463 321.371 211.959V218.916H319.682ZM332.651 207.923V209.354H326.954V207.923H332.651ZM328.614 205.289H330.303V215.767C330.303 216.244 330.373 216.602 330.511 216.841C330.654 217.074 330.835 217.232 331.055 217.313C331.279 217.389 331.515 217.427 331.763 217.427C331.95 217.427 332.102 217.418 332.222 217.399C332.341 217.375 332.436 217.356 332.508 217.342L332.851 218.859C332.737 218.902 332.577 218.945 332.372 218.988C332.167 219.035 331.907 219.059 331.592 219.059C331.115 219.059 330.647 218.957 330.189 218.752C329.736 218.546 329.359 218.234 329.058 217.814C328.762 217.394 328.614 216.864 328.614 216.225V205.289ZM338.427 219.174C337.73 219.174 337.098 219.043 336.53 218.78C335.962 218.513 335.511 218.129 335.177 217.628C334.843 217.122 334.676 216.511 334.676 215.796C334.676 215.166 334.8 214.655 335.049 214.264C335.297 213.868 335.628 213.558 336.043 213.334C336.459 213.109 336.917 212.942 337.418 212.833C337.923 212.718 338.432 212.627 338.942 212.561C339.61 212.475 340.152 212.41 340.567 212.367C340.987 212.32 341.292 212.241 341.483 212.131C341.678 212.021 341.776 211.831 341.776 211.559V211.501C341.776 210.795 341.583 210.246 341.197 209.855C340.815 209.464 340.235 209.268 339.457 209.268C338.651 209.268 338.019 209.445 337.561 209.798C337.103 210.151 336.781 210.528 336.595 210.929L334.991 210.356C335.278 209.688 335.659 209.168 336.136 208.796C336.618 208.419 337.143 208.157 337.711 208.009C338.284 207.856 338.847 207.78 339.4 207.78C339.753 207.78 340.159 207.823 340.617 207.908C341.08 207.99 341.526 208.159 341.955 208.417C342.389 208.674 342.75 209.063 343.036 209.583C343.322 210.103 343.465 210.8 343.465 211.673V218.916H341.776V217.427H341.69C341.576 217.666 341.385 217.921 341.118 218.193C340.851 218.465 340.495 218.697 340.051 218.888C339.608 219.078 339.066 219.174 338.427 219.174ZM338.684 217.656C339.352 217.656 339.915 217.525 340.373 217.263C340.836 217 341.185 216.662 341.418 216.247C341.657 215.831 341.776 215.395 341.776 214.937V213.391C341.705 213.477 341.547 213.555 341.304 213.627C341.065 213.694 340.789 213.753 340.474 213.806C340.164 213.854 339.861 213.897 339.565 213.935C339.274 213.968 339.037 213.997 338.856 214.021C338.417 214.078 338.007 214.171 337.625 214.3C337.248 214.424 336.943 214.612 336.709 214.865C336.48 215.113 336.365 215.452 336.365 215.882C336.365 216.468 336.583 216.912 337.017 217.213C337.456 217.509 338.012 217.656 338.684 217.656ZM346.548 218.916V207.923H348.237V218.916H346.548ZM347.407 206.091C347.078 206.091 346.794 205.978 346.555 205.754C346.322 205.53 346.205 205.26 346.205 204.945C346.205 204.631 346.322 204.361 346.555 204.137C346.794 203.912 347.078 203.8 347.407 203.8C347.736 203.8 348.018 203.912 348.252 204.137C348.49 204.361 348.61 204.631 348.61 204.945C348.61 205.26 348.49 205.53 348.252 205.754C348.018 205.978 347.736 206.091 347.407 206.091ZM353.02 212.303V218.916H351.331V207.923H352.963V209.641H353.106C353.364 209.082 353.755 208.634 354.28 208.295C354.805 207.951 355.482 207.78 356.312 207.78C357.057 207.78 357.708 207.932 358.266 208.238C358.825 208.538 359.259 208.996 359.569 209.612C359.879 210.223 360.034 210.996 360.034 211.931V218.916H358.345V212.045C358.345 211.182 358.121 210.509 357.672 210.027C357.224 209.54 356.608 209.297 355.826 209.297C355.287 209.297 354.805 209.414 354.38 209.648C353.96 209.881 353.628 210.223 353.385 210.671C353.142 211.12 353.02 211.664 353.02 212.303ZM367.902 207.923V209.354H362.205V207.923H367.902ZM363.865 205.289H365.554V215.767C365.554 216.244 365.623 216.602 365.762 216.841C365.905 217.074 366.086 217.232 366.306 217.313C366.53 217.389 366.766 217.427 367.014 217.427C367.2 217.427 367.353 217.418 367.472 217.399C367.591 217.375 367.687 217.356 367.758 217.342L368.102 218.859C367.987 218.902 367.828 218.945 367.622 218.988C367.417 219.035 367.157 219.059 366.842 219.059C366.365 219.059 365.898 218.957 365.44 218.752C364.986 218.546 364.609 218.234 364.309 217.814C364.013 217.394 363.865 216.864 363.865 216.225V205.289ZM370.442 218.916V207.923H372.074V209.641H372.217C372.446 209.054 372.816 208.598 373.327 208.274C373.837 207.944 374.45 207.78 375.166 207.78C375.891 207.78 376.495 207.944 376.977 208.274C377.464 208.598 377.843 209.054 378.115 209.641H378.229C378.511 209.073 378.933 208.622 379.496 208.288C380.059 207.949 380.734 207.78 381.522 207.78C382.505 207.78 383.309 208.087 383.934 208.703C384.559 209.314 384.871 210.266 384.871 211.559V218.916H383.182V211.559C383.182 210.747 382.96 210.168 382.516 209.819C382.073 209.471 381.55 209.297 380.949 209.297C380.176 209.297 379.577 209.531 379.153 209.998C378.728 210.461 378.516 211.048 378.516 211.759V218.916H376.798V211.387C376.798 210.762 376.595 210.258 376.19 209.877C375.784 209.49 375.262 209.297 374.622 209.297C374.183 209.297 373.773 209.414 373.391 209.648C373.014 209.881 372.709 210.206 372.475 210.621C372.246 211.031 372.131 211.506 372.131 212.045V218.916H370.442ZM392.569 219.145C391.509 219.145 390.596 218.911 389.827 218.444C389.064 217.971 388.475 217.313 388.06 216.468C387.649 215.619 387.444 214.631 387.444 213.505C387.444 212.379 387.649 211.387 388.06 210.528C388.475 209.664 389.052 208.992 389.792 208.51C390.536 208.023 391.404 207.78 392.397 207.78C392.969 207.78 393.535 207.875 394.093 208.066C394.651 208.257 395.16 208.567 395.618 208.996C396.076 209.421 396.441 209.984 396.713 210.685C396.985 211.387 397.121 212.25 397.121 213.276V213.992H388.647V212.532H395.403C395.403 211.912 395.279 211.358 395.031 210.872C394.787 210.385 394.439 210.001 393.986 209.719C393.537 209.438 393.008 209.297 392.397 209.297C391.724 209.297 391.142 209.464 390.651 209.798C390.164 210.127 389.789 210.557 389.527 211.086C389.264 211.616 389.133 212.184 389.133 212.79V213.763C389.133 214.593 389.276 215.297 389.563 215.874C389.854 216.447 390.257 216.884 390.772 217.184C391.288 217.48 391.886 217.628 392.569 217.628C393.012 217.628 393.413 217.566 393.771 217.442C394.134 217.313 394.446 217.122 394.709 216.869C394.971 216.612 395.174 216.292 395.317 215.91L396.949 216.368C396.777 216.922 396.488 217.408 396.083 217.828C395.677 218.243 395.176 218.568 394.58 218.802C393.983 219.031 393.313 219.145 392.569 219.145ZM401.379 212.303V218.916H399.69V207.923H401.322V209.641H401.465C401.723 209.082 402.114 208.634 402.639 208.295C403.164 207.951 403.841 207.78 404.671 207.78C405.416 207.78 406.067 207.932 406.625 208.238C407.183 208.538 407.618 208.996 407.928 209.612C408.238 210.223 408.393 210.996 408.393 211.931V218.916H406.704V212.045C406.704 211.182 406.48 210.509 406.031 210.027C405.583 209.54 404.967 209.297 404.185 209.297C403.645 209.297 403.164 209.414 402.739 209.648C402.319 209.881 401.987 210.223 401.744 210.671C401.501 211.12 401.379 211.664 401.379 212.303ZM416.261 207.923V209.354H410.563V207.923H416.261ZM412.224 205.289H413.913V215.767C413.913 216.244 413.982 216.602 414.121 216.841C414.264 217.074 414.445 217.232 414.664 217.313C414.889 217.389 415.125 217.427 415.373 217.427C415.559 217.427 415.712 217.418 415.831 217.399C415.95 217.375 416.046 217.356 416.117 217.342L416.461 218.859C416.346 218.902 416.187 218.945 415.981 218.988C415.776 219.035 415.516 219.059 415.201 219.059C414.724 219.059 414.257 218.957 413.798 218.752C413.345 218.546 412.968 218.234 412.668 217.814C412.372 217.394 412.224 216.864 412.224 216.225V205.289Z" fill="#6E1BC8"/>
</g>
<defs>
<linearGradient id="paint0_linear_144_7187" x1="456.294" y1="238.5" x2="376.969" y2="-46.6094" gradientUnits="userSpaceOnUse">
<stop stop-color="white" stop-opacity="0.18"/>
<stop offset="1" stop-color="#666666" stop-opacity="0.31"/>
</linearGradient>
<linearGradient id="paint1_linear_144_7187" x1="36.2756" y1="57.5798" x2="555.686" y2="57.5799" gradientUnits="userSpaceOnUse">
<stop stop-color="#EDF5FF"/>
<stop offset="1" stop-color="#6FA3FF"/>
</linearGradient>
<linearGradient id="paint2_linear_144_7187" x1="148.854" y1="130.467" x2="281.117" y2="130.467" gradientUnits="userSpaceOnUse">
<stop stop-color="#71B797"/>
<stop offset="1" stop-color="#14B76C"/>
</linearGradient>
<linearGradient id="paint3_linear_144_7187" x1="36.2762" y1="181.685" x2="168.54" y2="181.685" gradientUnits="userSpaceOnUse">
<stop stop-color="#71B797"/>
<stop offset="1" stop-color="#14B76C"/>
</linearGradient>
<clipPath id="clip0_144_7187">
<rect x="154.44" y="193.277" width="92.7106" height="36.2781" rx="18.139" fill="white"/>
</clipPath>
<clipPath id="clip1_144_7187">
<rect x="255.213" y="193.277" width="182.309" height="36.2781" rx="18.139" fill="white"/>
</clipPath>
</defs>
</svg>
