<svg width="854" height="541" viewBox="0 0 854 541" fill="none" xmlns="http://www.w3.org/2000/svg">
<g clip-path="url(#clip0_130_3525)">
<path d="M0.201172 11.2952C0.201172 5.48962 4.90756 0.783203 10.7132 0.783203H842.576C848.381 0.783203 853.088 5.48959 853.088 11.2952V529.977C853.088 535.782 848.382 540.489 842.576 540.489H10.7132C4.90757 540.489 0.201172 535.782 0.201172 529.977V11.2952Z" fill="#111111"/>
<path d="M430.456 257.433L432.203 307.768C440.543 307.311 448.938 306.856 457.147 306.571L455.405 256.568L486.674 255.475L488.464 306.832C528.939 308.962 561.332 320.262 566.189 357.161L566.181 357.163C569.774 384.164 559.008 400.819 541.21 410.696C571.295 416.83 590.598 433.914 588.294 473.783C585.458 523.282 549.126 537.805 496.676 542.65L498.471 594.5L467.21 595.592L465.443 544.435C457.343 544.725 449.043 544.945 440.471 545.064L442.253 596.46L411.025 597.541L409.201 545.592C401.895 545.797 394.441 545.928 386.87 546.182L346.181 547.603L351.091 510.044C351.197 510.042 374.226 509.599 373.815 509.26C382.66 508.936 384.782 502.502 385.199 498.497L382.363 416.532L385.656 416.415C384.359 416.283 383.218 416.286 382.344 416.312L380.305 357.805C378.894 351.501 374.508 344.296 361.845 344.733C362.213 344.296 339.262 345.532 339.146 345.538L337.974 312.151L381.091 310.665L381.101 310.824C387.582 310.594 394.224 310.237 400.987 309.863L399.212 258.52L430.456 257.433ZM439.868 507.225C461.064 506.474 527.671 508.568 526.311 469.75L526.319 469.748C524.887 429.268 458.673 437.672 437.48 438.405L439.868 507.225ZM436.374 406.903C454.029 406.285 509.602 408.477 508.383 373.162C507.105 336.325 451.858 343.869 434.202 344.487L436.374 406.903Z" fill="url(#paint0_linear_130_3525)" fill-opacity="0.06"/>
<rect x="-443.672" y="-198.508" width="562.63" height="1403.29" transform="rotate(-21.6628 -443.672 -198.508)" fill="url(#paint1_linear_130_3525)"/>
<path opacity="0.9" d="M73.5227 76.2458V79.1616H62.5514V110.494H59.1909V79.1616H48.2196V76.2458H73.5227ZM85.0213 108.171C86.2733 108.171 87.3605 108.138 88.283 108.072C89.2385 107.973 90.0457 107.858 90.7046 107.726V98.7319C90.3422 98.5672 89.7656 98.4025 88.9749 98.2377C88.1842 98.0401 87.097 97.9412 85.7132 97.9412C84.9225 97.9412 84.0988 98.0071 83.2422 98.1389C82.3856 98.2377 81.5949 98.4848 80.87 98.8802C80.1452 99.2426 79.5522 99.7533 79.0909 100.412C78.6297 101.071 78.399 101.944 78.399 103.031C78.399 103.987 78.5473 104.794 78.8438 105.453C79.1733 106.112 79.6181 106.639 80.1782 107.034C80.7712 107.43 81.4631 107.726 82.2538 107.924C83.0775 108.089 84 108.171 85.0213 108.171ZM84.7248 84.3507C86.4051 84.3507 87.8218 84.5978 88.9749 85.092C90.161 85.5533 91.1165 86.2122 91.8413 87.0688C92.5661 87.8925 93.0933 88.8809 93.4227 90.034C93.7522 91.1871 93.9169 92.4391 93.9169 93.7899V109.901C93.5875 110 93.1097 110.115 92.4837 110.247C91.8578 110.346 91.1329 110.461 90.3093 110.593C89.4856 110.725 88.5631 110.823 87.5417 110.889C86.5533 110.988 85.532 111.038 84.4777 111.038C83.1269 111.038 81.8749 110.889 80.7218 110.593C79.6016 110.296 78.6132 109.835 77.7566 109.209C76.9329 108.55 76.274 107.726 75.7798 106.738C75.3185 105.717 75.0879 104.481 75.0879 103.031C75.0879 101.648 75.3515 100.462 75.8786 99.4732C76.4058 98.4848 77.1471 97.6776 78.1025 97.0517C79.058 96.3927 80.1946 95.915 81.5125 95.6185C82.8304 95.322 84.2635 95.1737 85.812 95.1737C86.2733 95.1737 86.751 95.2066 87.2452 95.2725C87.7724 95.3055 88.2666 95.3714 88.7278 95.4702C89.222 95.5361 89.6339 95.6185 89.9633 95.7173C90.3257 95.7832 90.5728 95.8491 90.7046 95.915V94.3336C90.7046 93.444 90.6387 92.5874 90.5069 91.7637C90.3752 90.9071 90.0786 90.1493 89.6174 89.4904C89.1891 88.7985 88.5631 88.2549 87.7394 87.8595C86.9487 87.4312 85.8944 87.2171 84.5765 87.2171C82.6986 87.2171 81.2983 87.3489 80.3758 87.6124C79.4533 87.876 78.7779 88.0902 78.3496 88.2549L77.9048 85.438C78.4649 85.1744 79.3215 84.9273 80.4747 84.6967C81.6608 84.466 83.0775 84.3507 84.7248 84.3507ZM105.323 105.898C105.619 106.128 105.981 106.376 106.41 106.639C106.871 106.903 107.398 107.15 107.991 107.38C108.584 107.611 109.227 107.809 109.919 107.973C110.61 108.105 111.335 108.171 112.093 108.171C113.674 108.171 114.992 107.908 116.047 107.38C117.134 106.82 118.007 106.079 118.666 105.157C119.325 104.201 119.803 103.097 120.099 101.845C120.396 100.56 120.544 99.2097 120.544 97.793C120.544 94.4324 119.704 91.8626 118.023 90.0834C116.343 88.2714 114.119 87.3653 111.352 87.3653C109.77 87.3653 108.485 87.4477 107.497 87.6124C106.542 87.7442 105.817 87.8925 105.323 88.0572V105.898ZM105.323 119.637H102.11V85.8333C103.066 85.5039 104.285 85.1909 105.767 84.8943C107.25 84.5978 109.128 84.4496 111.401 84.4496C113.279 84.4496 114.976 84.7626 116.491 85.3885C118.04 85.9816 119.358 86.8547 120.445 88.0078C121.565 89.1609 122.422 90.5612 123.015 92.2085C123.641 93.8558 123.954 95.7173 123.954 97.793C123.954 99.7368 123.69 101.532 123.163 103.18C122.669 104.794 121.928 106.194 120.939 107.38C119.951 108.534 118.732 109.44 117.282 110.099C115.865 110.757 114.235 111.087 112.39 111.087C110.709 111.087 109.243 110.856 107.991 110.395C106.772 109.901 105.883 109.44 105.323 109.011V119.637ZM150.295 110.494C149.34 108.583 148.285 106.656 147.132 104.712C146.012 102.735 144.711 100.725 143.228 98.6825C142.767 99.2756 142.174 100.099 141.449 101.154C140.757 102.208 140.049 103.328 139.324 104.514C138.632 105.7 137.973 106.837 137.347 107.924C136.721 109.011 136.26 109.868 135.963 110.494H127.167C128.616 107.825 130.296 105.025 132.207 102.092C134.151 99.1602 136.309 96.0468 138.681 92.7521L127.661 76.2458H137.001L143.673 86.9206L150.196 76.2458H158.993L148.121 92.851C150.888 96.4421 153.211 99.7698 155.089 102.834C156.967 105.865 158.449 108.418 159.537 110.494H150.295Z" fill="white"/>
<path d="M172.724 109.398C171.381 109.398 170.127 109.157 168.964 108.676C167.821 108.194 166.818 107.493 165.956 106.57C165.114 105.648 164.442 104.514 163.941 103.171C163.459 101.807 163.219 100.253 163.219 98.5082C163.219 96.7634 163.479 95.2192 164.001 93.8756C164.542 92.5119 165.254 91.3688 166.137 90.4463C167.019 89.5238 168.042 88.8319 169.205 88.3706C170.368 87.8893 171.581 87.6487 172.845 87.6487C173.627 87.6487 174.339 87.6988 174.981 87.7991C175.622 87.8993 176.184 88.0297 176.665 88.1901C177.146 88.3305 177.558 88.4809 177.898 88.6414C178.239 88.7817 178.5 88.9121 178.681 89.0324L178.019 90.8072C177.517 90.5064 176.876 90.2156 176.094 89.9349C175.331 89.6341 174.379 89.4836 173.236 89.4836C171.932 89.4836 170.789 89.7042 169.806 90.1454C168.844 90.5866 168.032 91.2083 167.37 92.0105C166.708 92.8127 166.207 93.7653 165.866 94.8683C165.545 95.9713 165.384 97.1946 165.384 98.5383C165.384 99.922 165.545 101.175 165.866 102.298C166.207 103.401 166.698 104.344 167.34 105.126C167.982 105.908 168.764 106.51 169.686 106.931C170.629 107.352 171.702 107.563 172.905 107.563C174.228 107.563 175.331 107.442 176.214 107.202C177.116 106.941 177.798 106.68 178.259 106.42L178.831 108.164C178.691 108.265 178.45 108.385 178.109 108.525C177.768 108.646 177.337 108.776 176.816 108.916C176.294 109.057 175.692 109.167 175.011 109.247C174.329 109.348 173.567 109.398 172.724 109.398ZM187.175 107.533C187.937 107.533 188.599 107.513 189.16 107.473C189.742 107.412 190.233 107.342 190.634 107.262V101.787C190.414 101.687 190.063 101.587 189.581 101.486C189.1 101.366 188.438 101.306 187.596 101.306C187.115 101.306 186.613 101.346 186.092 101.426C185.571 101.486 185.089 101.637 184.648 101.877C184.207 102.098 183.846 102.409 183.565 102.81C183.284 103.211 183.144 103.742 183.144 104.404C183.144 104.986 183.234 105.477 183.415 105.878C183.615 106.279 183.886 106.6 184.227 106.841C184.588 107.081 185.009 107.262 185.49 107.382C185.992 107.483 186.553 107.533 187.175 107.533ZM186.994 93.0333C188.017 93.0333 188.88 93.1837 189.581 93.4845C190.303 93.7653 190.885 94.1664 191.326 94.6878C191.767 95.1892 192.088 95.7908 192.289 96.4927C192.489 97.1946 192.59 97.9567 192.59 98.7789V108.586C192.389 108.646 192.098 108.716 191.717 108.796C191.336 108.856 190.895 108.926 190.394 109.007C189.892 109.087 189.331 109.147 188.709 109.187C188.107 109.247 187.486 109.277 186.844 109.277C186.022 109.277 185.26 109.187 184.558 109.007C183.876 108.826 183.274 108.545 182.753 108.164C182.252 107.763 181.85 107.262 181.55 106.66C181.269 106.039 181.128 105.287 181.128 104.404C181.128 103.562 181.289 102.84 181.61 102.238C181.931 101.637 182.382 101.145 182.963 100.764C183.545 100.363 184.237 100.072 185.039 99.8919C185.841 99.7114 186.714 99.6212 187.656 99.6212C187.937 99.6212 188.228 99.6412 188.529 99.6814C188.849 99.7014 189.15 99.7415 189.431 99.8017C189.732 99.8418 189.983 99.8919 190.183 99.9521C190.404 99.9922 190.554 100.032 190.634 100.072V99.1098C190.634 98.5683 190.594 98.0469 190.514 97.5456C190.434 97.0241 190.253 96.5629 189.973 96.1618C189.712 95.7407 189.331 95.4098 188.829 95.1691C188.348 94.9084 187.706 94.778 186.904 94.778C185.761 94.778 184.909 94.8583 184.347 95.0187C183.786 95.1791 183.375 95.3095 183.114 95.4098L182.843 93.6951C183.184 93.5347 183.705 93.3842 184.407 93.2439C185.129 93.1035 185.992 93.0333 186.994 93.0333ZM202.871 93.0935C203.513 93.0935 204.115 93.1436 204.676 93.2439C205.258 93.3441 205.659 93.4444 205.879 93.5447L205.488 95.2293C205.328 95.149 204.997 95.0688 204.496 94.9886C204.014 94.8883 203.373 94.8382 202.57 94.8382C201.728 94.8382 201.046 94.8984 200.525 95.0187C200.024 95.139 199.693 95.2393 199.532 95.3195V108.947H197.577V94.1162C198.078 93.8956 198.77 93.675 199.652 93.4544C200.535 93.2138 201.608 93.0935 202.871 93.0935ZM221.192 108.465C220.61 108.666 219.868 108.856 218.966 109.037C218.063 109.217 216.92 109.308 215.536 109.308C214.393 109.308 213.35 109.127 212.408 108.766C211.485 108.385 210.683 107.844 210.001 107.142C209.34 106.44 208.818 105.587 208.437 104.585C208.076 103.582 207.896 102.449 207.896 101.185C207.896 100.002 208.046 98.9193 208.347 97.9366C208.668 96.9339 209.129 96.0715 209.731 95.3496C210.332 94.6276 211.064 94.0661 211.927 93.665C212.809 93.2639 213.812 93.0634 214.935 93.0634C215.958 93.0634 216.84 93.2138 217.582 93.5146C218.344 93.7954 218.895 94.0661 219.236 94.3268V85.9641L221.192 85.6031V108.465ZM219.236 96.222C219.056 96.0816 218.825 95.9312 218.545 95.7707C218.284 95.6103 217.973 95.4599 217.612 95.3195C217.251 95.1791 216.86 95.0688 216.439 94.9886C216.018 94.8883 215.576 94.8382 215.115 94.8382C214.153 94.8382 213.34 95.0087 212.679 95.3496C212.037 95.6905 211.515 96.1518 211.114 96.7333C210.713 97.2949 210.422 97.9667 210.242 98.7488C210.061 99.5109 209.971 100.323 209.971 101.185C209.971 103.231 210.483 104.805 211.505 105.908C212.528 106.991 213.882 107.533 215.566 107.533C216.529 107.533 217.301 107.493 217.883 107.412C218.484 107.312 218.936 107.212 219.236 107.112V96.222Z" fill="white"/>
<path d="M158.606 61.4673C157.649 61.4926 156.844 60.7688 156.733 59.8124C156.602 58.6873 157.467 57.7035 158.578 57.6983C168.434 57.5546 177.076 64.4023 179.178 74.0218C179.419 75.1152 178.648 76.1736 177.542 76.3018C176.585 76.4125 175.694 75.7746 175.49 74.8291C173.769 66.9423 166.675 61.3215 158.606 61.4673Z" fill="white"/>
<path d="M159.415 69.0227C158.479 68.9791 157.714 68.2885 157.608 67.3696C157.475 66.2257 158.355 65.2022 159.491 65.2511C165.165 65.5062 170.071 69.3944 171.606 74.8513C171.922 75.9359 171.118 77.0362 169.993 77.1665L169.974 77.1687C169.055 77.2751 168.216 76.6786 167.952 75.7876C166.833 71.9548 163.402 69.2356 159.415 69.0227Z" fill="white"/>
<path d="M794.476 58.5002C795.546 57.958 796.6 58.3266 796.973 59.0621L796.989 59.0942L797.006 59.1254C801.563 67.0027 804.241 76.0089 804.293 85.7803C804.345 95.5413 801.769 104.567 797.305 112.486C796.738 113.385 795.787 113.638 794.822 113.19C793.944 112.617 793.705 111.668 794.16 110.71C798.461 103.369 800.777 94.8652 800.728 85.7993C800.68 76.7099 798.07 68.238 793.901 60.9701C793.378 59.9091 793.746 58.8697 794.476 58.5002ZM783.396 64.3083C784.447 63.8062 785.471 64.1741 785.838 64.8968L785.861 64.9436L785.889 64.9884C789.65 71.1195 791.74 78.1922 791.78 85.8469C791.821 93.498 789.808 100.589 786.116 106.757C785.55 107.667 784.595 107.925 783.626 107.474C782.744 106.899 782.508 105.947 782.968 104.985C786.108 99.4091 788.06 92.8382 788.023 85.867C787.986 78.9267 786.171 72.3657 782.758 66.7892C782.296 65.8373 782.525 64.8894 783.396 64.3083ZM772.186 70.0653C772.789 69.6297 773.921 69.7843 774.593 70.6843C777.368 75.0876 779.045 80.4109 779.074 85.9146C779.105 91.6061 777.486 96.7564 774.755 101.192C774.124 102.061 773.157 102.304 772.323 101.812C771.419 101.15 771.254 100.021 771.682 99.4141L771.704 99.3837L771.723 99.3524C774.141 95.4783 775.536 90.8036 775.51 85.9336C775.484 81.0647 774.04 76.4055 771.582 72.5578C771.05 71.7131 771.288 70.7139 772.186 70.0653ZM761.243 75.7067C762.086 75.0971 763.176 75.288 763.669 75.9701L763.678 75.9818L763.687 75.9935C764.778 77.4321 765.673 79.031 766.208 80.5992C766.771 82.444 767.129 84.229 767.138 85.9782C767.148 87.8187 766.973 89.5608 766.297 91.2757C765.562 93.1435 764.849 94.5752 763.794 95.9981L763.784 96.0098L763.776 96.0226C763.29 96.7096 762.202 96.9114 761.352 96.3109C760.672 95.83 760.468 94.7586 761.047 93.9121C761.912 92.8098 762.54 91.521 762.953 90.2613C763.382 88.9497 763.581 87.4589 763.574 85.9971C763.566 84.5354 763.351 83.0468 762.907 81.7399C762.482 80.4845 761.84 79.2017 760.963 78.1086C760.375 77.2683 760.567 76.1948 761.243 75.7067Z" fill="white"/>
<g filter="url(#filter0_di_130_3525)">
<path d="M38.3323 478.825C38.332 478.007 38.5364 477.298 38.9454 476.697C39.3544 476.083 39.9271 475.606 40.6636 475.265C41.4001 474.923 42.2593 474.753 43.2414 474.752C44.1281 474.752 44.8988 474.909 45.5536 475.222C46.2221 475.536 46.7542 475.986 47.15 476.572C47.5457 477.158 47.7778 477.861 47.8463 478.679L46.3527 478.68C46.2706 477.861 45.9567 477.227 45.4109 476.777C44.8651 476.314 44.1353 476.082 43.2214 476.082C42.1984 476.083 41.3732 476.328 40.746 476.82C40.1187 477.311 39.8051 477.972 39.8054 478.805C39.8056 479.446 39.9968 479.978 40.3788 480.4C40.7609 480.809 41.3339 481.109 42.0978 481.3L44.6146 481.913C45.7605 482.185 46.6268 482.649 47.2135 483.303C47.8003 483.944 48.0938 484.763 48.0941 485.758C48.0944 486.59 47.8901 487.32 47.481 487.948C47.072 488.575 46.4925 489.06 45.7424 489.401C44.9923 489.742 44.1125 489.913 43.1032 489.913C42.162 489.914 41.3231 489.757 40.5864 489.444C39.8634 489.13 39.2903 488.68 38.8673 488.094C38.4579 487.507 38.2189 486.819 38.1505 486.028L39.6646 486.027C39.7057 486.805 40.0401 487.425 40.6677 487.889C41.2953 488.339 42.107 488.563 43.1027 488.563C44.1803 488.563 45.0327 488.317 45.66 487.826C46.301 487.334 46.6213 486.673 46.621 485.841C46.6208 485.172 46.4297 484.634 46.0476 484.225C45.6792 483.802 45.0994 483.495 44.3082 483.304L41.8323 482.691C40.6864 482.419 39.8133 481.962 39.2129 481.321C38.6261 480.667 38.3326 479.835 38.3323 478.825ZM60.7497 489.662L51.9722 489.665L51.9674 475.015L60.7244 475.013L60.7249 476.363L52.5203 476.366L53.4407 475.567L53.4427 481.644L60.0514 481.642L60.0519 482.972L53.4431 482.974L53.4452 489.112L52.5242 488.314L60.7492 488.312L60.7497 489.662ZM70.943 489.884C69.579 489.884 68.3786 489.571 67.3417 488.944C66.3185 488.303 65.5134 487.417 64.9265 486.285C64.3532 485.153 64.0664 483.837 64.0659 482.336C64.0654 480.836 64.3582 479.519 64.9444 478.387C65.5305 477.241 66.3487 476.354 67.3988 475.726C68.4489 475.085 69.6559 474.764 71.0199 474.764C72.0839 474.763 73.0456 474.961 73.905 475.356C74.7645 475.751 75.4876 476.31 76.0744 477.033C76.6612 477.742 77.0502 478.588 77.2415 479.57L75.666 479.57C75.3519 478.506 74.7788 477.675 73.9465 477.075C73.1143 476.475 72.1184 476.175 70.959 476.175C69.8951 476.176 68.954 476.435 68.1357 476.954C67.3311 477.459 66.7039 478.175 66.2541 479.103C65.8179 480.017 65.6 481.095 65.6004 482.336C65.6008 483.55 65.8262 484.62 66.2766 485.548C66.7271 486.475 67.3548 487.198 68.1597 487.716C68.9646 488.22 69.8991 488.472 70.963 488.472C72.1225 488.472 73.1317 488.178 73.9909 487.591C74.85 487.005 75.4363 486.227 75.7497 485.258L77.3252 485.258C77.1072 486.172 76.6914 486.977 76.0779 487.673C75.4779 488.368 74.7347 488.914 73.8482 489.31C72.9617 489.692 71.9933 489.884 70.943 489.884ZM80.9979 484.561L80.9948 475.006L82.4679 475.005L82.471 484.499C82.4714 485.781 82.8128 486.763 83.495 487.445C84.1772 488.127 85.1594 488.468 86.4416 488.467C87.6829 488.467 88.6444 488.125 89.3262 487.443C90.008 486.747 90.3487 485.765 90.3483 484.496L90.3452 475.003L91.8183 475.002L91.8214 484.557C91.8218 485.662 91.6039 486.617 91.1676 487.422C90.745 488.213 90.1314 488.827 89.3268 489.264C88.5222 489.687 87.5606 489.899 86.4421 489.899C85.31 489.9 84.3346 489.689 83.5161 489.266C82.7111 488.843 82.0903 488.23 81.6536 487.425C81.2168 486.621 80.9983 485.666 80.9979 484.561ZM97.989 489.65L96.5159 489.651L96.5111 475.001L101.974 474.999C103.447 474.999 104.607 475.38 105.453 476.144C106.312 476.894 106.742 477.923 106.743 479.233C106.743 480.283 106.477 481.163 105.946 481.872C105.427 482.582 104.698 483.066 103.757 483.326L106.889 489.647L105.252 489.648L102.263 483.572L97.987 483.573L97.989 489.65ZM97.9847 476.33L97.9866 482.243L102.017 482.242C103.027 482.242 103.811 481.975 104.37 481.443C104.943 480.911 105.229 480.188 105.229 479.274C105.228 478.319 104.935 477.59 104.348 477.085C103.761 476.581 102.97 476.329 101.974 476.329L97.9847 476.33ZM119.608 489.643L110.831 489.646L110.826 474.996L119.583 474.993L119.584 476.344L111.379 476.346L112.299 475.548L112.301 481.625L118.91 481.623L118.911 482.953L112.302 482.955L112.304 489.093L111.383 488.295L119.608 488.293L119.608 489.643Z" fill="#F3F3F3"/>
</g>
<path d="M130.877 478.321L130.879 484.64" stroke="white" stroke-width="1.20355" stroke-linecap="round"/>
<g filter="url(#filter1_di_130_3525)">
<path d="M143.936 474.985L143.94 489.635L142.467 489.636L142.463 474.986L143.936 474.985ZM148.051 484.253L143.632 484.254L143.631 482.924L147.764 482.923C148.828 482.923 149.653 482.615 150.24 482.001C150.826 481.374 151.119 480.562 151.119 479.566C151.118 478.557 150.825 477.766 150.238 477.193C149.651 476.607 148.853 476.314 147.844 476.314L142.995 476.316L142.995 474.986L148.048 474.984C148.989 474.984 149.801 475.175 150.483 475.556C151.179 475.938 151.711 476.477 152.08 477.172C152.462 477.868 152.653 478.672 152.653 479.586C152.654 480.473 152.463 481.271 152.081 481.98C151.713 482.69 151.181 483.249 150.486 483.659C149.804 484.054 148.992 484.252 148.051 484.253ZM157.736 489.631L156.263 489.631L156.258 474.981L161.721 474.98C163.194 474.979 164.354 475.361 165.2 476.124C166.059 476.874 166.489 477.904 166.49 479.213C166.49 480.264 166.224 481.144 165.693 481.853C165.174 482.563 164.445 483.047 163.504 483.306L166.636 489.628L164.999 489.628L162.01 483.552L157.734 483.554L157.736 489.631ZM157.732 476.311L157.734 482.224L161.764 482.223C162.774 482.222 163.558 481.956 164.117 481.424C164.69 480.892 164.976 480.169 164.976 479.255C164.975 478.3 164.682 477.57 164.095 477.066C163.508 476.561 162.717 476.309 161.721 476.31L157.732 476.311ZM172.046 474.976L172.051 489.626L170.578 489.626L170.573 474.977L172.046 474.976ZM180.871 489.623L175.261 474.975L176.836 474.975L180.747 485.163C180.897 485.558 181.048 485.967 181.198 486.39C181.348 486.799 181.505 487.263 181.669 487.781C181.819 487.249 181.975 486.745 182.139 486.267C182.316 485.79 182.459 485.415 182.568 485.142L186.452 474.972L187.966 474.971L182.406 489.623L180.871 489.623ZM189.298 489.62L187.804 489.621L193.18 474.969L195.001 474.969L200.449 489.617L198.914 489.617L197.481 485.73L190.729 485.732L189.298 489.62ZM193.897 477.036L191.178 484.443L197.009 484.441L194.265 477.036C194.238 476.926 194.204 476.817 194.163 476.708C194.122 476.599 194.095 476.51 194.081 476.442C194.067 476.51 194.04 476.606 193.999 476.729C193.972 476.838 193.938 476.94 193.897 477.036ZM206.809 475.62L206.814 489.615L205.341 489.615L205.336 475.62L206.809 475.62ZM200.835 476.317L200.835 474.967L211.331 474.963L211.331 476.314L200.835 476.317ZM223.368 489.609L214.591 489.612L214.586 474.962L223.343 474.96L223.344 476.31L215.139 476.313L216.06 475.514L216.061 481.591L222.67 481.589L222.671 482.919L216.062 482.921L216.064 489.059L215.143 488.261L223.368 488.259L223.368 489.609Z" fill="#F3F3F3"/>
</g>
<path d="M234.383 478.287L234.385 484.606" stroke="white" stroke-width="1.20355" stroke-linecap="round"/>
<g filter="url(#filter2_di_130_3525)">
<path d="M247.263 474.951L247.268 489.601L245.795 489.601L245.79 474.952L247.263 474.951ZM246.041 489.601L246.04 488.251L253.999 488.248L254 489.599L246.041 489.601ZM258.901 474.948L258.906 489.597L257.433 489.598L257.428 474.948L258.901 474.948ZM265.148 489.595L263.695 489.596L263.691 474.946L265.143 474.946L270.488 487.854L275.824 474.942L277.297 474.942L277.302 489.591L275.849 489.592L275.847 482.635C275.846 481.994 275.846 481.435 275.846 480.957C275.86 480.48 275.866 480.064 275.866 479.709C275.88 479.355 275.893 479.041 275.907 478.768C275.92 478.482 275.941 478.209 275.968 477.95L271.204 489.593L269.793 489.594L265.022 478.015C265.063 478.287 265.09 478.813 265.104 479.59C265.132 480.354 265.145 481.295 265.146 482.414L265.148 489.595ZM283.555 474.94L283.56 489.589L282.087 489.59L282.082 474.94L283.555 474.94ZM292.785 475.591L292.789 489.586L291.316 489.587L291.312 475.592L292.785 475.591ZM286.811 476.289L286.81 474.938L297.306 474.935L297.307 476.285L286.811 476.289ZM302.035 474.933L302.04 489.583L300.567 489.584L300.562 474.934L302.035 474.933ZM300.812 489.584L300.812 488.233L308.771 488.231L308.771 489.581L300.812 489.584ZM320.982 489.577L312.204 489.58L312.199 474.93L320.956 474.927L320.957 476.278L312.752 476.28L313.673 475.482L313.675 481.559L320.283 481.557L320.284 482.887L313.675 482.889L313.677 489.027L312.756 488.229L320.981 488.227L320.982 489.577ZM324.317 478.732C324.317 477.913 324.521 477.204 324.93 476.604C325.339 475.99 325.912 475.512 326.648 475.171C327.385 474.83 328.244 474.659 329.226 474.659C330.113 474.658 330.884 474.815 331.539 475.128C332.207 475.442 332.739 475.892 333.135 476.478C333.531 477.065 333.763 477.767 333.831 478.586L332.338 478.586C332.255 477.768 331.942 477.133 331.396 476.683C330.85 476.22 330.12 475.988 329.206 475.989C328.183 475.989 327.358 476.235 326.731 476.726C326.104 477.217 325.79 477.879 325.79 478.711C325.791 479.352 325.982 479.884 326.364 480.307C326.746 480.716 327.319 481.016 328.083 481.206L330.6 481.819C331.745 482.092 332.612 482.555 333.198 483.21C333.785 483.851 334.079 484.669 334.079 485.665C334.079 486.497 333.875 487.227 333.466 487.854C333.057 488.482 332.477 488.966 331.727 489.307C330.977 489.649 330.097 489.819 329.088 489.82C328.147 489.82 327.308 489.664 326.571 489.35C325.848 489.037 325.275 488.587 324.852 488C324.443 487.414 324.204 486.725 324.135 485.934L325.649 485.933C325.691 486.711 326.025 487.331 326.653 487.795C327.28 488.245 328.092 488.47 329.088 488.469C330.165 488.469 331.018 488.223 331.645 487.732C332.286 487.241 332.606 486.579 332.606 485.747C332.606 485.079 332.415 484.54 332.033 484.131C331.664 483.708 331.084 483.401 330.293 483.211L327.817 482.598C326.671 482.325 325.798 481.869 325.198 481.228C324.611 480.573 324.318 479.741 324.317 478.732ZM337.114 478.728C337.113 477.909 337.318 477.2 337.727 476.6C338.136 475.986 338.709 475.508 339.445 475.167C340.181 474.826 341.041 474.655 342.023 474.654C342.909 474.654 343.68 474.811 344.335 475.124C345.004 475.438 345.536 475.888 345.931 476.474C346.327 477.061 346.559 477.763 346.628 478.581L345.134 478.582C345.052 477.763 344.738 477.129 344.192 476.679C343.647 476.216 342.917 475.984 342.003 475.984C340.98 475.985 340.155 476.231 339.527 476.722C338.9 477.213 338.587 477.875 338.587 478.707C338.587 479.348 338.778 479.88 339.16 480.302C339.542 480.712 340.115 481.011 340.879 481.202L343.396 481.815C344.542 482.088 345.408 482.551 345.995 483.206C346.582 483.846 346.875 484.665 346.876 485.661C346.876 486.493 346.671 487.222 346.262 487.85C345.853 488.478 345.274 488.962 344.524 489.303C343.774 489.645 342.894 489.815 341.885 489.816C340.943 489.816 340.104 489.659 339.368 489.346C338.645 489.032 338.072 488.582 337.649 487.996C337.239 487.41 337 486.721 336.932 485.93L338.446 485.929C338.487 486.707 338.822 487.327 339.449 487.791C340.077 488.241 340.888 488.466 341.884 488.465C342.962 488.465 343.814 488.219 344.441 487.728C345.082 487.237 345.403 486.575 345.402 485.743C345.402 485.075 345.211 484.536 344.829 484.127C344.461 483.704 343.881 483.397 343.09 483.207L340.614 482.594C339.468 482.321 338.595 481.864 337.994 481.224C337.408 480.569 337.114 479.737 337.114 478.728Z" fill="#F3F3F3"/>
</g>
<path d="M664.402 139.452V75.5646H577.752V19.5649H819.887V76.3534H733.237V139.452H664.402Z" fill="url(#paint2_linear_130_3525)" fill-opacity="0.06"/>
<path d="M696.792 107.903C783.442 107.903 853.087 125.254 853.087 146.55C853.086 167.846 783.442 185.198 696.792 185.198C610.142 185.197 540.499 167.846 540.498 146.55C540.498 125.254 610.142 107.903 696.792 107.903ZM696.793 114.21C606.095 114.21 559.126 137.872 553.456 146.548C559.125 154.435 606.094 166.267 696.793 166.267C788.302 166.267 834.462 154.435 840.131 146.548C834.462 138.661 787.492 114.21 696.793 114.21Z" fill="url(#paint3_linear_130_3525)" fill-opacity="0.06"/>
<path d="M733.236 159.169V115C721.898 114.211 709.751 113.423 697.604 113.423C686.266 113.423 675.739 113.423 665.211 114.211V158.38C674.929 158.38 686.266 159.169 697.604 159.169C709.751 159.958 721.898 159.958 733.236 159.169Z" fill="url(#paint4_linear_130_3525)" fill-opacity="0.06"/>
<path d="M696.795 185.197C685.458 185.197 674.93 185.197 664.402 184.408V301.928H732.427V183.619C721.09 184.408 708.942 185.197 696.795 185.197Z" fill="url(#paint5_linear_130_3525)" fill-opacity="0.06"/>
<g filter="url(#filter3_di_130_3525)">
<path d="M65.8955 153.617L56.6525 129.16L61.2031 129.158L66.5614 143.244C66.8293 143.957 67.0861 144.704 67.3317 145.485C67.5773 146.266 67.8341 147.147 68.1021 148.128C68.3918 147.057 68.6703 146.132 68.9377 145.351C69.2052 144.57 69.4503 143.867 69.6732 143.243L74.9553 129.154L79.4056 129.153L70.3123 153.615L65.8955 153.617ZM81.8627 153.611L81.8573 137.082L85.9395 137.081L85.9448 153.61L81.8627 153.611ZM83.8638 133.769C83.1723 133.769 82.5811 133.535 82.0902 133.067C81.6216 132.576 81.3872 131.985 81.387 131.293C81.3867 130.602 81.6208 130.022 82.0891 129.553C82.5797 129.085 83.1707 128.85 83.8622 128.85C84.5537 128.85 85.1338 129.084 85.6024 129.552C86.0933 130.02 86.3389 130.6 86.3391 131.292C86.3393 131.983 86.0941 132.574 85.6035 133.065C85.1352 133.534 84.5553 133.768 83.8638 133.769ZM100.53 137.009L100.531 140.79L99.0252 140.79C97.5307 140.791 96.3597 141.193 95.5123 141.996C94.6649 142.777 94.2414 143.971 94.242 145.577L94.2446 153.607L90.1624 153.609L90.157 137.113L94.005 137.111L94.3407 140.524L93.9392 140.524C94.1619 139.431 94.6858 138.539 95.5109 137.847C96.3361 137.155 97.4067 136.809 98.7228 136.809C99.0128 136.809 99.3028 136.82 99.5928 136.842C99.8828 136.864 100.195 136.92 100.53 137.009ZM102.307 137.075L112.746 137.072L112.748 140.485L102.308 140.488L102.307 137.075ZM109.573 153.602L105.491 153.604L105.484 131.921L109.566 131.92L109.573 153.602ZM126.527 137.067L130.609 137.066L130.614 153.595L126.833 153.597L126.532 151.388C126.041 152.169 125.305 152.805 124.324 153.296C123.342 153.787 122.294 154.033 121.179 154.033C119.283 154.034 117.799 153.432 116.728 152.228C115.657 151.024 115.121 149.418 115.12 147.41L115.117 137.071L119.199 137.07L119.202 145.97C119.202 147.532 119.504 148.658 120.107 149.349C120.709 150.041 121.579 150.386 122.717 150.386C124.011 150.385 124.97 150.006 125.594 149.247C126.218 148.466 126.53 147.295 126.53 145.734L126.527 137.067ZM139.75 154.027C138.01 154.028 136.626 153.56 135.6 152.623C134.596 151.665 134.094 150.416 134.093 148.876C134.093 147.359 134.616 146.155 135.665 145.262C136.735 144.347 138.252 143.811 140.215 143.655L145.167 143.251L145.166 142.883C145.166 142.125 145.021 141.523 144.731 141.077C144.463 140.608 144.073 140.274 143.559 140.073C143.046 139.85 142.444 139.739 141.753 139.739C140.548 139.74 139.622 139.985 138.976 140.476C138.329 140.945 138.006 141.614 138.006 142.484L134.526 142.485C134.526 141.281 134.826 140.243 135.428 139.373C136.053 138.481 136.922 137.789 138.038 137.298C139.175 136.807 140.48 136.561 141.952 136.56C143.447 136.56 144.73 136.827 145.8 137.362C146.871 137.875 147.697 138.655 148.277 139.704C148.858 140.729 149.148 142.012 149.148 143.551L149.152 153.589L145.572 153.591L145.27 151.148C144.913 151.996 144.222 152.688 143.196 153.223C142.192 153.759 141.043 154.027 139.75 154.027ZM141.053 150.949C142.325 150.948 143.329 150.591 144.065 149.877C144.823 149.163 145.202 148.17 145.201 146.899L145.201 146.029L141.755 146.297C140.483 146.409 139.58 146.677 139.045 147.101C138.509 147.503 138.242 148.038 138.242 148.708C138.242 149.444 138.488 150.001 138.979 150.38C139.47 150.76 140.161 150.949 141.053 150.949ZM157.278 153.587L153.229 153.588L153.221 128.693L157.27 128.692L157.278 153.587Z" fill="#F3F3F3"/>
</g>
</g>
<path d="M10.7129 1.2832H842.576C848.105 1.28337 852.588 5.76568 852.588 11.2949V529.977C852.588 535.506 848.106 539.988 842.576 539.988H10.7129C5.18355 539.988 0.701172 535.506 0.701172 529.977V11.2949C0.701341 5.93828 4.90817 1.5639 10.1982 1.2959L10.7129 1.2832Z" stroke="url(#paint6_linear_130_3525)"/>
<defs>
<filter id="filter0_di_130_3525" x="33.3323" y="471.117" width="91.0913" height="24.8159" filterUnits="userSpaceOnUse" color-interpolation-filters="sRGB">
<feFlood flood-opacity="0" result="BackgroundImageFix"/>
<feColorMatrix in="SourceAlpha" type="matrix" values="0 0 0 0 0 0 0 0 0 0 0 0 0 0 0 0 0 0 127 0" result="hardAlpha"/>
<feOffset dy="1.20355"/>
<feGaussianBlur stdDeviation="2.4071"/>
<feComposite in2="hardAlpha" operator="out"/>
<feColorMatrix type="matrix" values="0 0 0 0 0.154167 0 0 0 0 0.154167 0 0 0 0 0.154167 0 0 0 0.58 0"/>
<feBlend mode="normal" in2="BackgroundImageFix" result="effect1_dropShadow_130_3525"/>
<feBlend mode="normal" in="SourceGraphic" in2="effect1_dropShadow_130_3525" result="shape"/>
<feColorMatrix in="SourceAlpha" type="matrix" values="0 0 0 0 0 0 0 0 0 0 0 0 0 0 0 0 0 0 127 0" result="hardAlpha"/>
<feOffset dy="-1.20355"/>
<feGaussianBlur stdDeviation="0.601776"/>
<feComposite in2="hardAlpha" operator="arithmetic" k2="-1" k3="1"/>
<feColorMatrix type="matrix" values="0 0 0 0 0.208333 0 0 0 0 0.208333 0 0 0 0 0.208333 0 0 0 0.22 0"/>
<feBlend mode="normal" in2="shape" result="effect2_innerShadow_130_3525"/>
</filter>
<filter id="filter1_di_130_3525" x="137.649" y="471.349" width="90.5347" height="24.3047" filterUnits="userSpaceOnUse" color-interpolation-filters="sRGB">
<feFlood flood-opacity="0" result="BackgroundImageFix"/>
<feColorMatrix in="SourceAlpha" type="matrix" values="0 0 0 0 0 0 0 0 0 0 0 0 0 0 0 0 0 0 127 0" result="hardAlpha"/>
<feOffset dy="1.20355"/>
<feGaussianBlur stdDeviation="2.4071"/>
<feComposite in2="hardAlpha" operator="out"/>
<feColorMatrix type="matrix" values="0 0 0 0 0.154167 0 0 0 0 0.154167 0 0 0 0 0.154167 0 0 0 0.58 0"/>
<feBlend mode="normal" in2="BackgroundImageFix" result="effect1_dropShadow_130_3525"/>
<feBlend mode="normal" in="SourceGraphic" in2="effect1_dropShadow_130_3525" result="shape"/>
<feColorMatrix in="SourceAlpha" type="matrix" values="0 0 0 0 0 0 0 0 0 0 0 0 0 0 0 0 0 0 127 0" result="hardAlpha"/>
<feOffset dy="-1.20355"/>
<feGaussianBlur stdDeviation="0.601776"/>
<feComposite in2="hardAlpha" operator="arithmetic" k2="-1" k3="1"/>
<feColorMatrix type="matrix" values="0 0 0 0 0.208333 0 0 0 0 0.208333 0 0 0 0 0.208333 0 0 0 0.22 0"/>
<feBlend mode="normal" in2="shape" result="effect2_innerShadow_130_3525"/>
</filter>
<filter id="filter2_di_130_3525" x="240.977" y="471.042" width="110.714" height="24.8228" filterUnits="userSpaceOnUse" color-interpolation-filters="sRGB">
<feFlood flood-opacity="0" result="BackgroundImageFix"/>
<feColorMatrix in="SourceAlpha" type="matrix" values="0 0 0 0 0 0 0 0 0 0 0 0 0 0 0 0 0 0 127 0" result="hardAlpha"/>
<feOffset dy="1.20355"/>
<feGaussianBlur stdDeviation="2.4071"/>
<feComposite in2="hardAlpha" operator="out"/>
<feColorMatrix type="matrix" values="0 0 0 0 0.154167 0 0 0 0 0.154167 0 0 0 0 0.154167 0 0 0 0.58 0"/>
<feBlend mode="normal" in2="BackgroundImageFix" result="effect1_dropShadow_130_3525"/>
<feBlend mode="normal" in="SourceGraphic" in2="effect1_dropShadow_130_3525" result="shape"/>
<feColorMatrix in="SourceAlpha" type="matrix" values="0 0 0 0 0 0 0 0 0 0 0 0 0 0 0 0 0 0 127 0" result="hardAlpha"/>
<feOffset dy="-1.20355"/>
<feGaussianBlur stdDeviation="0.601776"/>
<feComposite in2="hardAlpha" operator="arithmetic" k2="-1" k3="1"/>
<feColorMatrix type="matrix" values="0 0 0 0 0.208333 0 0 0 0 0.208333 0 0 0 0 0.208333 0 0 0 0.22 0"/>
<feBlend mode="normal" in2="shape" result="effect2_innerShadow_130_3525"/>
</filter>
<filter id="filter3_di_130_3525" x="51.8381" y="125.081" width="110.253" height="34.9907" filterUnits="userSpaceOnUse" color-interpolation-filters="sRGB">
<feFlood flood-opacity="0" result="BackgroundImageFix"/>
<feColorMatrix in="SourceAlpha" type="matrix" values="0 0 0 0 0 0 0 0 0 0 0 0 0 0 0 0 0 0 127 0" result="hardAlpha"/>
<feOffset dy="1.20355"/>
<feGaussianBlur stdDeviation="2.4071"/>
<feComposite in2="hardAlpha" operator="out"/>
<feColorMatrix type="matrix" values="0 0 0 0 0.154167 0 0 0 0 0.154167 0 0 0 0 0.154167 0 0 0 0.58 0"/>
<feBlend mode="normal" in2="BackgroundImageFix" result="effect1_dropShadow_130_3525"/>
<feBlend mode="normal" in="SourceGraphic" in2="effect1_dropShadow_130_3525" result="shape"/>
<feColorMatrix in="SourceAlpha" type="matrix" values="0 0 0 0 0 0 0 0 0 0 0 0 0 0 0 0 0 0 127 0" result="hardAlpha"/>
<feOffset dy="-1.20355"/>
<feGaussianBlur stdDeviation="0.601776"/>
<feComposite in2="hardAlpha" operator="arithmetic" k2="-1" k3="1"/>
<feColorMatrix type="matrix" values="0 0 0 0 0.208333 0 0 0 0 0.208333 0 0 0 0 0.208333 0 0 0 0.22 0"/>
<feBlend mode="normal" in2="shape" result="effect2_innerShadow_130_3525"/>
</filter>
<linearGradient id="paint0_linear_130_3525" x1="400.844" y1="258.052" x2="497.369" y2="594.816" gradientUnits="userSpaceOnUse">
<stop stop-color="#171717"/>
<stop offset="1" stop-color="#B9B9B9"/>
</linearGradient>
<linearGradient id="paint1_linear_130_3525" x1="82.0866" y1="198.723" x2="-719.594" y2="347.607" gradientUnits="userSpaceOnUse">
<stop stop-color="#1C1C1C"/>
<stop offset="0.742198"/>
</linearGradient>
<linearGradient id="paint2_linear_130_3525" x1="698.82" y1="19.5649" x2="698.82" y2="139.452" gradientUnits="userSpaceOnUse">
<stop stop-color="#171717"/>
<stop offset="1" stop-color="#B9B9B9"/>
</linearGradient>
<linearGradient id="paint3_linear_130_3525" x1="696.792" y1="107.903" x2="696.792" y2="185.198" gradientUnits="userSpaceOnUse">
<stop stop-color="#171717"/>
<stop offset="1" stop-color="#B9B9B9"/>
</linearGradient>
<linearGradient id="paint4_linear_130_3525" x1="699.223" y1="113.423" x2="699.223" y2="159.76" gradientUnits="userSpaceOnUse">
<stop stop-color="#171717"/>
<stop offset="1" stop-color="#B9B9B9"/>
</linearGradient>
<linearGradient id="paint5_linear_130_3525" x1="698.415" y1="183.619" x2="698.415" y2="301.928" gradientUnits="userSpaceOnUse">
<stop stop-color="#171717"/>
<stop offset="1" stop-color="#B9B9B9"/>
</linearGradient>
<linearGradient id="paint6_linear_130_3525" x1="0.201172" y1="270.636" x2="853.088" y2="270.636" gradientUnits="userSpaceOnUse">
<stop stop-color="#0056C2"/>
<stop offset="1" stop-color="#6FA3FF"/>
</linearGradient>
<clipPath id="clip0_130_3525">
<path d="M0.201172 11.2952C0.201172 5.48962 4.90756 0.783203 10.7132 0.783203H842.576C848.381 0.783203 853.088 5.48959 853.088 11.2952V529.977C853.088 535.782 848.382 540.489 842.576 540.489H10.7132C4.90757 540.489 0.201172 535.782 0.201172 529.977V11.2952Z" fill="white"/>
</clipPath>
</defs>
</svg>
