<svg width="50" height="17" viewBox="0 0 50 17" fill="none" xmlns="http://www.w3.org/2000/svg">
<path d="M14.4766 16.3827L17.2071 0.332572L21.5814 0.331145L18.8501 16.3812L14.4766 16.3827ZM34.6288 0.678971C33.3733 0.224657 32.0472 -0.00308583 30.7121 0.0063484C26.3952 0.00775696 23.3548 2.18279 23.3296 5.29929C23.3066 7.60268 25.5023 8.88669 27.1598 9.65258C28.8608 10.4381 29.4326 10.9391 29.4246 11.6408C29.4143 12.7151 28.0667 13.206 26.8114 13.2064C25.0624 13.207 24.1337 12.9617 22.6981 12.3669L22.1355 12.1124L21.5233 15.7007C22.5437 16.1475 24.4313 16.535 26.39 16.554C30.9828 16.5525 33.9635 14.4029 33.9968 11.0751C34.0126 9.25157 32.8494 7.86402 30.327 6.72093C28.7996 5.98448 27.8643 5.48529 27.8739 4.73442C27.8737 4.0687 28.6653 3.35609 30.3758 3.35553C31.4966 3.33008 32.6103 3.53889 33.6457 3.96859L34.0371 4.1535L34.6288 0.678971ZM45.8664 0.323221L42.501 0.324319C41.4586 0.324659 40.6783 0.609883 40.221 1.64995L33.7569 16.2945L38.3612 16.293C38.3612 16.293 39.0976 14.3455 39.2669 13.9181L44.7835 13.9228C44.9122 14.4763 45.3083 16.2907 45.3083 16.2907L49.3959 16.2894L45.8664 0.323221ZM40.5187 10.6423C40.8795 9.71854 42.2581 6.16105 42.2581 6.16105C42.2319 6.20363 42.6164 5.23237 42.8365 4.63046L43.1325 6.01259C43.1325 6.01259 43.9706 9.83872 44.1453 10.6411L40.5187 10.6423ZM10.7596 0.334676L6.49542 11.2421L6.04022 9.02572C5.24511 6.47121 2.76887 3.70435 0.000751662 2.31979L3.9079 16.3042L8.51957 16.2978L15.377 0.333169L10.7383 0.334683" fill="url(#paint0_linear_114_337)"/>
<defs>
<linearGradient id="paint0_linear_114_337" x1="24.6953" y1="0.00805549" x2="24.7007" y2="16.5546" gradientUnits="userSpaceOnUse">
<stop stop-color="white"/>
<stop offset="1" stop-color="white" stop-opacity="0.75"/>
</linearGradient>
</defs>
</svg>
