<?xml version="1.0" encoding="UTF-8"?>
<svg id="Layer_2" data-name="Layer 2" xmlns="http://www.w3.org/2000/svg" xmlns:xlink="http://www.w3.org/1999/xlink" viewBox="0 0 832.64 526.89">
  <defs>
    <style>
      .cls-1 {
        fill: url(#linear-gradient-2);
      }

      .cls-2, .cls-3 {
        fill: #fff;
      }

      .cls-4 {
        fill: url(#linear-gradient);
      }

      .cls-4, .cls-5, .cls-6, .cls-7, .cls-8 {
        fill-opacity: .06;
      }

      .cls-9 {
        fill: #111;
      }

      .cls-5 {
        fill: url(#linear-gradient-6);
      }

      .cls-6 {
        fill: url(#linear-gradient-5);
      }

      .cls-10 {
        stroke: #fff;
        stroke-linecap: round;
        stroke-width: 1.17px;
      }

      .cls-10, .cls-11, .cls-12 {
        fill: none;
      }

      .cls-7 {
        fill: url(#linear-gradient-4);
      }

      .cls-13 {
        clip-path: url(#clippath);
      }

      .cls-11 {
        stroke: url(#linear-gradient-7);
        stroke-width: 1.19px;
      }

      .cls-8 {
        fill: url(#linear-gradient-3);
      }

      .cls-3 {
        isolation: isolate;
        opacity: .9;
      }

      .cls-14 {
        fill: #f3f3f3;
      }
    </style>
    <clipPath id="clippath">
      <rect class="cls-12" width="832.64" height="526.89" rx="17.81" ry="17.81"/>
    </clipPath>
    <linearGradient id="linear-gradient" x1="391.13" y1="277.61" x2="485.37" y2="-51.16" gradientTransform="translate(0 528.77) scale(1 -1)" gradientUnits="userSpaceOnUse">
      <stop offset="0" stop-color="#171717"/>
      <stop offset="1" stop-color="#b9b9b9"/>
    </linearGradient>
    <linearGradient id="linear-gradient-2" x1="-14.46" y1="-89.56" x2="-797.11" y2="-234.91" gradientTransform="translate(373.26 198.36) scale(1 -1)" gradientUnits="userSpaceOnUse">
      <stop offset="0" stop-color="#1c1c1c"/>
      <stop offset=".74" stop-color="#000"/>
    </linearGradient>
    <linearGradient id="linear-gradient-3" x1="666.15" y1="528.77" x2="666.15" y2="411.73" xlink:href="#linear-gradient"/>
    <linearGradient id="linear-gradient-4" x1="664.17" y1="442.53" x2="664.17" y2="367.07" xlink:href="#linear-gradient"/>
    <linearGradient id="linear-gradient-5" x1="666.55" y1="437.14" x2="666.55" y2="391.9" xlink:href="#linear-gradient"/>
    <linearGradient id="linear-gradient-6" x1="665.76" y1="368.61" x2="665.76" y2="253.11" xlink:href="#linear-gradient"/>
    <linearGradient id="linear-gradient-7" x1="84.23" y1="515.43" x2="745" y2="17.78" gradientTransform="translate(0 528.77) scale(1 -1)" gradientUnits="userSpaceOnUse">
      <stop offset="0" stop-color="#fff"/>
      <stop offset="1" stop-color="#626060"/>
    </linearGradient>
  </defs>
  <g id="Layer_1-2" data-name="Layer 1">
    <g class="cls-13">
      <g>
        <rect class="cls-9" width="832.64" height="526.89" rx="17.81" ry="17.81"/>
        <path class="cls-4" d="m420.04,250.56l1.71,49.14c8.14-.45,16.34-.89,24.35-1.17l-1.7-48.82,30.53-1.07,1.75,50.14c39.51,2.08,71.14,13.11,75.88,49.13h0c3.51,26.36-7,42.62-24.38,52.26,29.37,5.99,48.21,22.67,45.97,61.59-2.77,48.32-38.24,62.5-89.44,67.23l1.75,50.62-30.52,1.07-1.73-49.94c-7.91.28-16.01.5-24.38.61l1.74,50.18-30.49,1.06-1.78-50.72c-7.13.2-14.41.33-21.8.58l-39.72,1.39,4.79-36.67c.05,0,22.58-.43,22.18-.77,8.64-.32,10.71-6.6,11.11-10.51l-2.77-80.02,3.21-.11c-1.27-.13-2.38-.12-3.23-.1l-1.99-57.12c-1.38-6.15-5.66-13.19-18.02-12.76.36-.43-22.16.79-22.16.79l-1.14-32.6,42.09-1.45v.15c6.34-.22,12.82-.57,19.42-.94l-1.73-50.12,30.5-1.06Zm9.19,243.86c20.69-.73,85.72,1.31,84.39-36.59h0c-1.4-39.52-66.04-31.32-86.73-30.6l2.33,67.19Zm-3.41-97.94c17.24-.6,71.49,1.54,70.3-32.94-1.25-35.96-55.18-28.6-72.42-27.99l2.12,60.93Z"/>
        <rect class="cls-1" x="-199.87" y="-344.32" width="549.27" height="1369.98" transform="translate(-120.48 51.66) rotate(-21.66)"/>
        <path class="cls-3" d="m72.95,254.07v2.85h-10.71v30.59h-3.28v-30.59h-10.71v-2.85h24.7Zm11.23,31.17c1.22,0,2.28-.03,3.18-.1.93-.1,1.72-.21,2.36-.34v-8.78c-.35-.16-.92-.32-1.69-.48-.77-.19-1.83-.29-3.18-.29-.77,0-1.58.06-2.41.19-.84.1-1.61.34-2.32.72-.71.35-1.29.85-1.74,1.5-.45.64-.68,1.5-.68,2.56,0,.93.14,1.72.43,2.36.32.64.76,1.16,1.3,1.54.58.39,1.25.68,2.03.87.8.16,1.7.24,2.7.24Zm-.29-23.26c1.64,0,3.02.24,4.15.72,1.16.45,2.09,1.09,2.8,1.93.71.8,1.22,1.77,1.54,2.89.32,1.13.48,2.35.48,3.67v15.73c-.32.1-.79.21-1.4.34-.61.1-1.32.21-2.12.34s-1.7.22-2.7.29c-.96.1-1.96.14-2.99.14-1.32,0-2.54-.14-3.67-.43-1.09-.29-2.06-.74-2.89-1.35-.8-.64-1.45-1.45-1.93-2.41-.45-1-.68-2.2-.68-3.62s.26-2.51.77-3.47c.51-.96,1.24-1.75,2.17-2.36.93-.64,2.04-1.11,3.33-1.4,1.29-.29,2.69-.43,4.2-.43.45,0,.92.03,1.4.1.51.03,1,.1,1.45.19.48.07.88.14,1.21.24.35.06.6.13.72.19v-1.54c0-.87-.06-1.7-.19-2.51-.13-.84-.42-1.58-.87-2.22-.42-.68-1.03-1.21-1.83-1.59-.77-.42-1.8-.63-3.09-.63-1.83,0-3.2.13-4.1.39-.9.26-1.56.47-1.98.63l-.43-2.75c.55-.26,1.38-.5,2.51-.72,1.16-.23,2.54-.34,4.15-.34Zm20.11,21.04c.29.23.64.47,1.06.72.45.26.96.5,1.54.72s1.21.42,1.88.58c.68.13,1.38.19,2.12.19,1.54,0,2.83-.26,3.86-.77,1.06-.55,1.91-1.27,2.56-2.17.64-.93,1.11-2.01,1.4-3.23.29-1.25.43-2.57.43-3.96,0-3.28-.82-5.79-2.46-7.53-1.64-1.77-3.81-2.65-6.51-2.65-1.54,0-2.8.08-3.76.24-.93.13-1.64.27-2.12.43v17.42Zm0,13.41h-3.14v-33c.93-.32,2.12-.63,3.57-.92,1.45-.29,3.28-.43,5.5-.43,1.83,0,3.49.31,4.97.92,1.51.58,2.8,1.43,3.86,2.56,1.09,1.13,1.93,2.49,2.51,4.1.61,1.61.92,3.43.92,5.45,0,1.9-.26,3.65-.77,5.26-.48,1.58-1.21,2.94-2.17,4.1-.97,1.13-2.15,2.01-3.57,2.65-1.38.64-2.97.96-4.78.96-1.64,0-3.07-.23-4.29-.68-1.19-.48-2.06-.93-2.61-1.35v10.37Zm43.9-8.93c-.93-1.86-1.96-3.75-3.09-5.64-1.09-1.93-2.36-3.89-3.81-5.89-.45.58-1.03,1.38-1.74,2.41-.67,1.03-1.37,2.12-2.07,3.28-.68,1.16-1.32,2.27-1.93,3.33-.61,1.06-1.06,1.9-1.35,2.51h-8.59c1.42-2.61,3.05-5.34,4.92-8.2,1.9-2.86,4-5.9,6.32-9.12l-10.76-16.11h9.12l6.51,10.42,6.37-10.42h8.59l-10.62,16.21c2.7,3.51,4.97,6.76,6.8,9.75,1.83,2.96,3.28,5.45,4.34,7.48h-9.02Z"/>
        <path class="cls-2" d="m169.79,286.91c-1.31,0-2.54-.23-3.67-.7-1.12-.47-2.1-1.15-2.94-2.05-.82-.9-1.48-2.01-1.97-3.32-.47-1.33-.71-2.85-.71-4.55s.25-3.21.76-4.52c.53-1.33,1.22-2.45,2.09-3.35.86-.9,1.86-1.58,2.99-2.03,1.14-.47,2.32-.71,3.55-.71.76,0,1.46.05,2.09.15.63.1,1.17.23,1.64.38.47.14.87.28,1.2.44.33.14.59.26.76.38l-.65,1.73c-.49-.29-1.12-.58-1.88-.85-.74-.29-1.67-.44-2.79-.44-1.27,0-2.39.21-3.35.65-.94.43-1.73,1.04-2.38,1.82-.65.78-1.14,1.71-1.47,2.79-.31,1.08-.47,2.27-.47,3.58s.16,2.58.47,3.67c.33,1.08.81,2,1.44,2.76.63.76,1.39,1.35,2.29,1.76.92.41,1.97.62,3.14.62,1.29,0,2.37-.12,3.23-.35.88-.25,1.55-.51,2-.76l.56,1.7c-.14.1-.37.21-.71.35-.33.12-.75.24-1.26.38-.51.14-1.1.25-1.76.32-.67.1-1.41.15-2.23.15Zm14.11-1.82c.74,0,1.39-.02,1.94-.06.57-.06,1.05-.13,1.44-.21v-5.35c-.22-.1-.56-.2-1.03-.29-.47-.12-1.12-.18-1.94-.18-.47,0-.96.04-1.47.12-.51.06-.98.2-1.41.44-.43.22-.78.52-1.06.91-.27.39-.41.91-.41,1.56,0,.57.09,1.05.26,1.44.2.39.46.7.79.94.35.23.76.41,1.23.53.49.1,1.04.15,1.64.15Zm-.18-14.15c1,0,1.84.15,2.53.44.71.27,1.27.66,1.7,1.17.43.49.74,1.08.94,1.76.2.69.29,1.43.29,2.23v9.57c-.2.06-.48.13-.85.21-.37.06-.8.13-1.29.2-.49.08-1.04.14-1.65.18-.59.06-1.19.09-1.82.09-.8,0-1.55-.09-2.23-.27-.67-.18-1.25-.45-1.76-.82-.49-.39-.88-.88-1.17-1.47-.27-.61-.41-1.34-.41-2.2s.16-1.53.47-2.11c.31-.59.75-1.07,1.32-1.44.57-.39,1.24-.68,2.03-.85.78-.18,1.63-.26,2.55-.26.27,0,.56.02.85.06.31.02.61.06.88.12.29.04.54.09.73.15.22.04.36.08.44.12v-.94c0-.53-.04-1.04-.12-1.53-.08-.51-.25-.96-.53-1.35-.26-.41-.63-.73-1.12-.97-.47-.25-1.1-.38-1.88-.38-1.12,0-1.95.08-2.5.23-.55.16-.95.28-1.2.38l-.26-1.67c.33-.16.84-.3,1.53-.44.7-.14,1.55-.21,2.52-.21Zm15.5.06c.63,0,1.21.05,1.76.15.57.1.96.2,1.18.29l-.38,1.64c-.16-.08-.48-.16-.97-.23-.47-.1-1.1-.15-1.88-.15s-1.49.06-2,.18c-.49.12-.81.22-.97.29v13.3h-1.91v-14.48c.49-.21,1.17-.43,2.03-.65.86-.24,1.91-.35,3.14-.35Zm17.89,15.01c-.57.2-1.29.38-2.17.56-.88.18-2,.26-3.35.26-1.12,0-2.13-.18-3.06-.53-.9-.37-1.68-.9-2.35-1.59-.65-.69-1.15-1.52-1.53-2.5-.35-.98-.53-2.09-.53-3.32,0-1.15.15-2.21.44-3.17.31-.98.76-1.82,1.35-2.53.59-.7,1.3-1.25,2.14-1.64.86-.39,1.84-.59,2.94-.59,1,0,1.86.15,2.59.44.74.27,1.28.54,1.62.79v-8.16l1.91-.35v22.32Zm-1.91-11.95c-.18-.14-.4-.28-.68-.44-.25-.16-.56-.3-.91-.44-.35-.14-.73-.24-1.15-.32-.41-.1-.84-.15-1.29-.15-.94,0-1.73.17-2.38.5-.63.33-1.14.78-1.53,1.35-.39.55-.68,1.2-.85,1.97-.18.74-.26,1.54-.26,2.38,0,2,.5,3.53,1.5,4.61,1,1.06,2.32,1.59,3.96,1.59.94,0,1.69-.04,2.26-.12.59-.1,1.03-.2,1.32-.29v-10.63Z"/>
        <path class="cls-2" d="m156.01,239.59c-.93.02-1.72-.68-1.83-1.62-.13-1.1.72-2.06,1.8-2.06,9.62-.14,18.06,6.54,20.11,15.94.24,1.07-.52,2.1-1.6,2.23-.93.11-1.8-.51-2-1.44-1.68-7.7-8.6-13.19-16.48-13.04Z"/>
        <path class="cls-2" d="m156.79,246.97c-.91-.04-1.66-.72-1.76-1.61-.13-1.12.73-2.12,1.84-2.07,5.54.25,10.33,4.04,11.83,9.37.31,1.06-.48,2.13-1.58,2.26h-.02c-.9.11-1.72-.48-1.97-1.35-1.09-3.74-4.44-6.4-8.34-6.6Z"/>
        <path class="cls-2" d="m775.42,56.35c1.04-.53,2.07-.17,2.44.55l.02.03.02.03c4.45,7.69,7.06,16.48,7.11,26.02.05,9.53-2.46,18.34-6.82,26.07-.55.88-1.48,1.12-2.42.68-.86-.56-1.09-1.48-.65-2.42,4.2-7.17,6.46-15.47,6.41-24.32-.05-8.87-2.6-17.14-6.67-24.24-.51-1.04-.15-2.05.56-2.41Zm-10.82,5.67c1.03-.49,2.03-.13,2.38.58l.02.05.03.04c3.67,5.99,5.71,12.89,5.75,20.36.04,7.47-1.92,14.39-5.53,20.41-.55.89-1.48,1.14-2.43.7-.86-.56-1.09-1.49-.64-2.43,3.07-5.44,4.97-11.86,4.94-18.66-.04-6.78-1.81-13.18-5.14-18.62-.45-.93-.23-1.86.62-2.42Zm-10.94,5.62c.59-.43,1.7-.27,2.35.6,2.71,4.3,4.35,9.5,4.37,14.87.03,5.56-1.55,10.58-4.21,14.91-.62.85-1.56,1.09-2.38.61-.88-.65-1.04-1.75-.62-2.34l.02-.03.02-.03c2.36-3.78,3.72-8.35,3.7-13.1-.02-4.75-1.43-9.3-3.83-13.06-.52-.82-.29-1.8.59-2.43Zm-10.68,5.51c.82-.6,1.89-.41,2.37.26h0s0,.02,0,.02c1.07,1.4,1.94,2.96,2.46,4.5.55,1.8.9,3.54.91,5.25.01,1.8-.16,3.5-.82,5.17-.72,1.82-1.41,3.22-2.44,4.61l-.02.02c-.47.67-1.53.87-2.36.28-.66-.47-.86-1.52-.3-2.34.84-1.08,1.46-2.33,1.86-3.56.42-1.28.61-2.74.61-4.16,0-1.43-.22-2.88-.65-4.16-.42-1.23-1.04-2.48-1.9-3.54-.57-.82-.39-1.87.27-2.34Z"/>
        <path class="cls-14" d="m37.54,483.17c0-.8.2-1.49.6-2.08.4-.6.96-1.07,1.68-1.4.72-.33,1.56-.5,2.52-.5.87,0,1.62.15,2.26.46.65.31,1.17.75,1.56,1.32.39.57.61,1.26.68,2.06h-1.46c-.08-.8-.39-1.42-.92-1.86-.53-.45-1.25-.68-2.14-.68-1,0-1.8.24-2.42.72-.61.48-.92,1.12-.92,1.94,0,.63.19,1.15.56,1.56.37.4.93.69,1.68.88l2.46.6c1.12.27,1.96.72,2.54,1.36.57.62.86,1.42.86,2.4,0,.81-.2,1.53-.6,2.14-.4.61-.97,1.09-1.7,1.42-.73.33-1.59.5-2.58.5-.92,0-1.74-.15-2.46-.46-.71-.31-1.27-.74-1.68-1.32-.4-.57-.63-1.24-.7-2.02h1.48c.04.76.37,1.37.98,1.82.61.44,1.41.66,2.38.66,1.05,0,1.88-.24,2.5-.72.63-.48.94-1.13.94-1.94,0-.65-.19-1.18-.56-1.58-.36-.41-.93-.71-1.7-.9l-2.42-.6c-1.12-.27-1.97-.71-2.56-1.34-.57-.64-.86-1.45-.86-2.44Zm21.89,10.58h-8.57s0-14.3,0-14.3h8.55s0,1.32,0,1.32h-8.01s.9-.78.9-.78v5.93s6.45,0,6.45,0v1.3s-6.45,0-6.45,0v5.99s-.9-.78-.9-.78h8.03s0,1.32,0,1.32Zm9.95.22c-1.33,0-2.5-.3-3.52-.92-1-.62-1.78-1.49-2.36-2.6-.56-1.1-.84-2.39-.84-3.85,0-1.46.29-2.75.86-3.86.57-1.12,1.37-1.98,2.4-2.6,1.03-.63,2.2-.94,3.54-.94,1.04,0,1.98.19,2.82.58.84.39,1.54.93,2.12,1.64.57.69.95,1.52,1.14,2.48h-1.54c-.31-1.04-.87-1.85-1.68-2.44s-1.78-.88-2.92-.88c-1.04,0-1.96.25-2.76.76-.79.49-1.4,1.19-1.84,2.1-.43.89-.64,1.94-.64,3.16,0,1.18.22,2.23.66,3.14.44.9,1.05,1.61,1.84,2.12.79.49,1.7.74,2.74.74,1.13,0,2.12-.29,2.96-.86.84-.57,1.41-1.33,1.72-2.28h1.54c-.21.89-.62,1.68-1.22,2.36-.59.68-1.31,1.21-2.18,1.6-.87.37-1.81.56-2.84.56Zm9.82-5.2v-9.33s1.44,0,1.44,0v9.27c0,1.25.34,2.21,1,2.88.67.67,1.62,1,2.88,1,1.21,0,2.15-.33,2.82-1,.67-.68,1-1.64,1-2.88v-9.27s1.44,0,1.44,0v9.33c0,1.08-.21,2.01-.64,2.8-.41.77-1.01,1.37-1.8,1.8-.79.41-1.72.62-2.82.62s-2.06-.21-2.86-.62c-.79-.41-1.39-1.01-1.82-1.8-.43-.79-.64-1.72-.64-2.8Zm16.59,4.97h-1.44v-14.3s5.33,0,5.33,0c1.44,0,2.57.37,3.4,1.12.84.73,1.26,1.74,1.26,3.02,0,1.03-.26,1.88-.78,2.58-.5.69-1.22,1.17-2.14,1.42l3.06,6.17h-1.6l-2.92-5.93h-4.18s0,5.93,0,5.93Zm0-13v5.77s3.94,0,3.94,0c.99,0,1.75-.26,2.3-.78.56-.52.84-1.23.84-2.12,0-.93-.29-1.64-.86-2.14-.57-.49-1.35-.74-2.32-.74h-3.9Zm21.11,13h-8.57s0-14.3,0-14.3h8.55s0,1.32,0,1.32h-8.01s.9-.78.9-.78v5.93s6.45,0,6.45,0v1.3s-6.45,0-6.45,0v5.99s-.9-.78-.9-.78h8.03s0,1.32,0,1.32Z"/>
        <path class="cls-10" d="m127.89,483.16v6.17"/>
        <path class="cls-14" d="m140.64,479.42v14.3s-1.43,0-1.43,0v-14.3s1.43,0,1.43,0Zm4.02,9.05h-4.32s0-1.3,0-1.3h4.03c1.04,0,1.84-.3,2.42-.9.57-.61.86-1.41.86-2.38,0-.99-.29-1.76-.86-2.32-.57-.57-1.35-.86-2.34-.86h-4.73s0-1.3,0-1.3h4.93c.92,0,1.71.18,2.38.56.68.37,1.2.9,1.56,1.58.37.68.56,1.46.56,2.36,0,.87-.19,1.64-.56,2.34-.36.69-.88,1.24-1.56,1.64-.67.39-1.46.58-2.38.58Zm9.45,5.25h-1.44v-14.3s5.33,0,5.33,0c1.44,0,2.57.37,3.4,1.12.84.73,1.26,1.74,1.26,3.02,0,1.02-.26,1.88-.78,2.58-.51.69-1.22,1.17-2.14,1.42l3.06,6.17h-1.6l-2.92-5.93h-4.17s0,5.93,0,5.93Zm0-13v5.77s3.94,0,3.94,0c.99,0,1.75-.26,2.3-.78.56-.52.84-1.23.84-2.12,0-.93-.29-1.64-.86-2.14-.57-.49-1.35-.74-2.32-.74h-3.89Zm13.97-1.3v14.3s-1.43,0-1.43,0v-14.3s1.43,0,1.43,0Zm8.62,14.3l-5.48-14.3h1.54l3.82,9.95c.15.39.29.79.44,1.2.15.4.3.85.46,1.36.15-.52.3-1.01.46-1.48.17-.47.31-.83.42-1.1l3.79-9.93h1.48s-5.43,14.3-5.43,14.3h-1.5Zm8.23,0h-1.46l5.25-14.3h1.78s5.32,14.3,5.32,14.3h-1.5s-1.4-3.79-1.4-3.79h-6.59s-1.4,3.8-1.4,3.8Zm4.49-12.29l-2.65,7.23h5.69s-2.68-7.23-2.68-7.23c-.03-.11-.06-.21-.1-.32-.04-.11-.07-.19-.08-.26-.01.07-.04.16-.08.28-.03.11-.06.21-.1.3Zm12.61-1.38v13.66s-1.43,0-1.43,0v-13.66s1.43,0,1.43,0Zm-5.83.68v-1.32h10.25s0,1.32,0,1.32h-10.25Zm22,12.98h-8.57s0-14.3,0-14.3h8.55s0,1.31,0,1.31h-8.01s.9-.78.9-.78v5.93s6.45,0,6.45,0v1.3s-6.45,0-6.45,0v5.99s-.9-.78-.9-.78h8.03s0,1.32,0,1.32Z"/>
        <path class="cls-10" d="m228.94,483.12v6.17"/>
        <path class="cls-14" d="m241.51,479.39v14.3s-1.43,0-1.43,0v-14.3s1.43,0,1.43,0Zm-1.19,14.3v-1.32h7.77s0,1.32,0,1.32h-7.77Zm12.55-14.3v14.3s-1.43,0-1.43,0v-14.3s1.43,0,1.43,0Zm6.1,14.3h-1.42s0-14.3,0-14.3h1.42l5.22,12.6,5.21-12.61h1.44v14.3s-1.41,0-1.41,0v-6.79c0-.63,0-1.17,0-1.64.01-.47.02-.87.02-1.22.01-.35.03-.65.04-.92.01-.28.03-.55.06-.8l-4.65,11.37h-1.38s-4.66-11.3-4.66-11.3c.04.27.07.78.08,1.54.03.75.04,1.66.04,2.76v7.01Zm17.97-14.31v14.3s-1.43,0-1.43,0v-14.3s1.43,0,1.43,0Zm9.01.64v13.66s-1.43,0-1.43,0v-13.66s1.43,0,1.43,0Zm-5.83.68v-1.32h10.25s0,1.32,0,1.32h-10.25Zm14.86-1.32v14.3s-1.43,0-1.43,0v-14.3s1.43,0,1.43,0Zm-1.19,14.3v-1.32h7.77s0,1.32,0,1.32h-7.77Zm19.69,0h-8.57s0-14.3,0-14.3h8.55s0,1.32,0,1.32h-8.01s.9-.78.9-.78v5.93s6.45,0,6.45,0v1.3s-6.45,0-6.45,0v5.99s-.9-.78-.9-.78h8.03s0,1.32,0,1.32Zm3.26-10.59c0-.8.2-1.49.6-2.08.4-.6.96-1.07,1.68-1.4.72-.33,1.56-.5,2.52-.5.86,0,1.62.15,2.26.46.65.31,1.17.74,1.56,1.32.39.57.61,1.26.68,2.06h-1.46c-.08-.8-.39-1.42-.92-1.86-.53-.45-1.24-.68-2.14-.68-1,0-1.8.24-2.42.72-.61.48-.92,1.12-.92,1.94,0,.62.19,1.15.56,1.56.37.4.93.69,1.68.88l2.46.6c1.12.27,1.96.72,2.54,1.36.57.62.86,1.42.86,2.4,0,.81-.2,1.52-.6,2.14-.4.61-.96,1.08-1.7,1.42-.73.33-1.59.5-2.58.5-.92,0-1.74-.15-2.46-.46-.71-.31-1.27-.74-1.68-1.32-.4-.57-.63-1.25-.7-2.02h1.48c.04.76.37,1.36.98,1.82.61.44,1.4.66,2.38.66,1.05,0,1.89-.24,2.5-.72.63-.48.94-1.12.94-1.94,0-.65-.19-1.18-.56-1.58-.36-.41-.92-.71-1.7-.9l-2.42-.6c-1.12-.27-1.97-.71-2.56-1.34-.57-.64-.86-1.45-.86-2.44Zm12.49,0c0-.8.2-1.49.6-2.08.4-.6.96-1.07,1.68-1.4.72-.33,1.56-.5,2.52-.5.86,0,1.62.15,2.26.46.65.31,1.17.74,1.56,1.32.39.57.61,1.26.68,2.06h-1.46c-.08-.8-.39-1.42-.92-1.86-.53-.45-1.25-.68-2.14-.68-1,0-1.8.24-2.42.72-.61.48-.92,1.12-.92,1.94,0,.63.19,1.15.56,1.56.37.4.93.69,1.68.88l2.46.6c1.12.27,1.96.72,2.54,1.36.57.62.86,1.42.86,2.4,0,.81-.2,1.52-.6,2.14-.4.61-.97,1.09-1.7,1.42-.73.33-1.59.5-2.58.5-.92,0-1.74-.15-2.46-.46-.71-.31-1.27-.74-1.68-1.32-.4-.57-.63-1.25-.7-2.02h1.48c.04.76.37,1.36.98,1.82.61.44,1.4.66,2.38.66,1.05,0,1.88-.24,2.5-.72.62-.48.94-1.12.94-1.94,0-.65-.19-1.18-.56-1.58-.36-.41-.93-.71-1.7-.9l-2.42-.6c-1.12-.27-1.97-.71-2.56-1.34-.57-.64-.86-1.45-.86-2.44Z"/>
        <g>
          <path class="cls-8" d="m632.55,117.04v-62.37h-84.59V0h236.39v55.44h-84.59v61.6h-67.2Z"/>
          <path class="cls-7" d="m664.17,86.24c84.59,0,152.58,16.94,152.58,37.73,0,20.79-67.99,37.73-152.58,37.73s-152.58-16.94-152.58-37.73,67.99-37.73,152.58-37.73Zm0,6.16c-88.55,0-134.4,23.1-139.93,31.57,5.54,7.7,51.39,19.25,139.93,19.25s134.4-11.55,139.93-19.25c-5.53-7.7-51.39-31.57-139.93-31.57Z"/>
          <path class="cls-6" d="m699.76,136.29v-43.12c-11.07-.77-22.93-1.54-34.79-1.54-11.07,0-21.35,0-31.62.77v43.12c9.49,0,20.56.77,31.62.77,11.86.77,23.72.77,34.79,0Z"/>
          <path class="cls-5" d="m664.18,161.7c-11.07,0-21.35,0-31.62-.77v114.73h66.41v-115.5c-11.07.77-22.93,1.54-34.79,1.54Z"/>
        </g>
      </g>
    </g>
    <rect class="cls-11" x=".59" y=".59" width="831.45" height="525.71" rx="17.22" ry="17.22"/>
  </g>
</svg>