<?xml version="1.0" encoding="UTF-8"?>
<svg id="Layer_2" data-name="Layer 2" xmlns="http://www.w3.org/2000/svg" xmlns:xlink="http://www.w3.org/1999/xlink" viewBox="0 0 603 381">
  <defs>
    <style>
      .cls-1 {
        fill: url(#linear-gradient-2);
      }

      .cls-2 {
        stroke: #fff;
        stroke-linecap: round;
        stroke-width: .85px;
      }

      .cls-2, .cls-3, .cls-4 {
        fill: none;
      }

      .cls-5, .cls-6 {
        fill: #fff;
      }

      .cls-7 {
        fill: url(#linear-gradient);
      }

      .cls-7, .cls-8, .cls-9, .cls-10, .cls-11 {
        fill-opacity: .06;
      }

      .cls-12 {
        fill: #111;
      }

      .cls-8 {
        fill: url(#linear-gradient-6);
      }

      .cls-9 {
        fill: url(#linear-gradient-5);
      }

      .cls-3 {
        stroke: url(#linear-gradient-7);
        stroke-width: .7px;
      }

      .cls-10 {
        fill: url(#linear-gradient-4);
      }

      .cls-13 {
        clip-path: url(#clippath);
      }

      .cls-11 {
        fill: url(#linear-gradient-3);
      }

      .cls-14 {
        mask: url(#mask);
      }

      .cls-6 {
        isolation: isolate;
        opacity: .9;
      }

      .cls-15 {
        fill: #f3f3f3;
      }
    </style>
    <clipPath id="clippath">
      <rect class="cls-4" width="603" height="381"/>
    </clipPath>
    <mask id="mask" x="-311.99" y="-286.53" width="914.04" height="1065.66" maskUnits="userSpaceOnUse">
      <g id="mask0_144_7842" data-name="mask0 144 7842">
        <path class="cls-5" d="m.88,7.75C.88,3.66,4.2.34,8.29.34h586.35c4.09,0,7.41,3.32,7.41,7.41v365.6c0,4.09-3.32,7.41-7.41,7.41H8.29c-4.09,0-7.41-3.32-7.41-7.41V7.75Z"/>
      </g>
    </mask>
    <linearGradient id="linear-gradient" x1="283.28" y1="201.83" x2="351.32" y2="-35.54" gradientTransform="translate(0 383.51) scale(1 -1)" gradientUnits="userSpaceOnUse">
      <stop offset="0" stop-color="#171717"/>
      <stop offset="1" stop-color="#b9b9b9"/>
    </linearGradient>
    <linearGradient id="linear-gradient-2" x1="231.39" y1="248.31" x2="-255.03" y2="-57.82" gradientTransform="translate(0 383.51) scale(1 -1)" gradientUnits="userSpaceOnUse">
      <stop offset="0" stop-color="#1c1c1c"/>
      <stop offset=".74" stop-color="#000"/>
    </linearGradient>
    <linearGradient id="linear-gradient-3" x1="493.31" y1="369.94" x2="493.31" y2="285.43" xlink:href="#linear-gradient"/>
    <linearGradient id="linear-gradient-4" x1="491.88" y1="307.67" x2="491.88" y2="253.19" xlink:href="#linear-gradient"/>
    <linearGradient id="linear-gradient-5" x1="493.6" y1="303.78" x2="493.6" y2="271.12" xlink:href="#linear-gradient"/>
    <linearGradient id="linear-gradient-6" x1="493.03" y1="254.3" x2="493.03" y2="170.91" xlink:href="#linear-gradient"/>
    <linearGradient id="linear-gradient-7" x1=".88" y1="192.97" x2="602.05" y2="192.97" gradientTransform="translate(0 383.51) scale(1 -1)" gradientUnits="userSpaceOnUse">
      <stop offset="0" stop-color="#0056c2"/>
      <stop offset="1" stop-color="#6fa3ff"/>
    </linearGradient>
  </defs>
  <g id="Layer_1-2" data-name="Layer 1">
    <g class="cls-13">
      <g>
        <g class="cls-14">
          <g>
            <path class="cls-12" d="m.88,7.75C.88,3.66,4.2.34,8.29.34h586.35c4.09,0,7.41,3.32,7.41,7.41v365.6c0,4.09-3.32,7.41-7.41,7.41H8.29c-4.09,0-7.41-3.32-7.41-7.41V7.75Z"/>
            <path class="cls-7" d="m304.15,181.24l1.23,35.48c5.88-.32,11.8-.64,17.58-.84l-1.23-35.24,22.04-.77,1.26,36.2c28.53,1.5,51.36,9.47,54.79,35.48h0c2.53,19.03-5.05,30.77-17.6,37.74,21.21,4.32,34.81,16.36,33.19,44.47-2,34.89-27.61,45.13-64.58,48.54l1.27,36.55-22.03.77-1.25-36.06c-5.71.2-11.56.36-17.6.44l1.26,36.23-22.01.76-1.29-36.62c-5.15.14-10.4.24-15.74.42l-28.68,1,3.46-26.47c.07,0,16.31-.31,16.02-.55,6.24-.23,7.73-4.76,8.02-7.58l-2-57.77,2.32-.08c-.91-.09-1.72-.09-2.33-.07l-1.44-41.24c-.99-4.44-4.09-9.52-13.01-9.21.26-.31-15.9.56-16,.57l-.82-23.53,30.39-1.05v.11c4.57-.16,9.26-.41,14.02-.68l-1.25-36.19,22.02-.77Zm6.64,176.07c14.94-.53,61.89.95,60.93-26.41h0c-1.01-28.53-47.68-22.61-62.62-22.1l1.68,48.51Zm-2.46-70.71c12.45-.44,51.62,1.11,50.76-23.78-.9-25.96-39.84-20.65-52.29-20.21l1.53,44Z"/>
            <path class="cls-1" d="m56.58-286.53l-368.57,146.39L53.14,779.13l368.57-146.39L56.58-286.53Z"/>
            <path class="cls-6" d="m52.56,53.51v2.06h-7.73v22.08h-2.37v-22.08h-7.73v-2.06h17.84Zm8.1,22.5c.88,0,1.65-.02,2.3-.07.67-.07,1.24-.15,1.71-.24v-6.34c-.26-.12-.66-.23-1.22-.35-.56-.14-1.32-.21-2.3-.21-.56,0-1.14.05-1.74.14-.6.07-1.16.24-1.67.52-.51.26-.93.62-1.25,1.08-.33.46-.49,1.08-.49,1.85,0,.67.1,1.24.31,1.71.23.46.55.84.94,1.11.42.28.91.49,1.46.63.58.12,1.23.17,1.95.17Zm-.21-16.79c1.18,0,2.18.17,3,.52.84.33,1.51.79,2.02,1.39.51.58.88,1.28,1.11,2.09.23.81.35,1.7.35,2.65v11.36c-.23.07-.57.15-1.01.24-.44.07-.95.15-1.53.24-.58.09-1.23.16-1.95.21-.7.07-1.42.1-2.16.1-.95,0-1.83-.1-2.65-.31-.79-.21-1.49-.53-2.09-.98-.58-.46-1.04-1.05-1.39-1.74-.33-.72-.49-1.59-.49-2.61s.19-1.81.56-2.51c.37-.7.89-1.27,1.57-1.71.67-.46,1.47-.8,2.4-1.01.93-.21,1.94-.31,3.03-.31.33,0,.66.02,1.01.07.37.02.72.07,1.04.14.35.05.64.1.87.17.26.05.43.09.52.14v-1.11c0-.63-.05-1.23-.14-1.81-.09-.6-.3-1.14-.63-1.6-.3-.49-.74-.87-1.32-1.15-.56-.3-1.3-.45-2.23-.45-1.32,0-2.31.09-2.96.28-.65.19-1.13.34-1.43.45l-.31-1.99c.39-.19,1-.36,1.81-.52.84-.16,1.83-.24,3-.24Zm14.52,15.19c.21.16.46.34.77.52.33.19.7.36,1.11.52.42.16.87.3,1.36.42.49.09,1,.14,1.53.14,1.11,0,2.04-.19,2.79-.56.77-.39,1.38-.92,1.85-1.57.46-.67.8-1.45,1.01-2.33.21-.91.31-1.86.31-2.86,0-2.37-.59-4.18-1.78-5.43-1.18-1.28-2.75-1.92-4.7-1.92-1.11,0-2.02.06-2.72.17-.67.09-1.18.2-1.53.31v12.58Zm0,9.68h-2.26v-23.83c.67-.23,1.53-.45,2.58-.66,1.05-.21,2.37-.31,3.97-.31,1.32,0,2.52.22,3.59.66,1.09.42,2.02,1.03,2.79,1.85.79.81,1.39,1.8,1.81,2.96.44,1.16.66,2.47.66,3.94,0,1.37-.19,2.64-.56,3.8-.35,1.14-.87,2.12-1.57,2.96-.7.81-1.56,1.45-2.58,1.92-1,.46-2.15.7-3.45.7-1.18,0-2.22-.16-3.1-.49-.86-.35-1.49-.67-1.88-.98v7.49Zm31.7-6.44c-.67-1.35-1.42-2.71-2.23-4.08-.79-1.39-1.71-2.81-2.75-4.25-.33.42-.74,1-1.25,1.74-.49.74-.99,1.53-1.5,2.37-.49.84-.95,1.64-1.39,2.4-.44.77-.77,1.37-.98,1.81h-6.2c1.02-1.88,2.21-3.86,3.55-5.92,1.37-2.07,2.89-4.26,4.56-6.58l-7.77-11.63h6.58l4.7,7.52,4.6-7.52h6.2l-7.66,11.7c1.95,2.53,3.59,4.88,4.91,7.04,1.32,2.14,2.37,3.94,3.14,5.4h-6.51Z"/>
            <path class="cls-5" d="m122.49,77.39c-.95,0-1.83-.17-2.65-.51-.81-.34-1.51-.83-2.12-1.48-.59-.65-1.07-1.45-1.42-2.4-.34-.96-.51-2.06-.51-3.29s.18-2.32.55-3.27c.38-.96.88-1.77,1.5-2.42.62-.65,1.34-1.14,2.16-1.46.82-.34,1.68-.51,2.57-.51.55,0,1.05.04,1.51.11.45.07.85.16,1.19.28.34.1.63.21.87.32.24.1.42.19.55.28l-.47,1.25c-.35-.21-.81-.42-1.36-.61-.54-.21-1.21-.32-2.01-.32-.92,0-1.72.16-2.42.47-.68.31-1.25.75-1.72,1.31-.47.57-.82,1.24-1.06,2.01-.23.78-.34,1.64-.34,2.59s.11,1.86.34,2.65c.24.78.59,1.44,1.04,1.99.45.55,1,.98,1.65,1.27.66.3,1.42.45,2.27.45.93,0,1.71-.08,2.33-.25.64-.18,1.12-.37,1.44-.55l.4,1.23c-.1.07-.27.16-.51.25-.24.08-.54.18-.91.28-.37.1-.79.18-1.27.23-.48.07-1.02.11-1.61.11Zm10.18-1.31c.54,0,1-.01,1.4-.04.41-.04.76-.09,1.04-.15v-3.86c-.16-.07-.4-.14-.74-.21-.34-.08-.81-.13-1.4-.13-.34,0-.69.03-1.06.08-.37.04-.71.15-1.02.32-.31.16-.57.37-.76.66s-.3.66-.3,1.12c0,.41.06.76.19,1.04.14.28.33.51.57.68.26.17.55.3.89.38.35.07.75.11,1.19.11Zm-.13-10.22c.72,0,1.33.11,1.82.32.51.2.92.48,1.23.85.31.35.54.78.68,1.27.14.49.21,1.03.21,1.61v6.91c-.14.04-.35.09-.62.15-.27.04-.58.09-.93.15-.35.06-.75.1-1.19.13-.42.04-.86.06-1.32.06-.58,0-1.12-.06-1.61-.19-.48-.13-.91-.33-1.27-.59-.35-.28-.64-.64-.85-1.06-.2-.44-.3-.97-.3-1.59s.11-1.1.34-1.53c.23-.42.54-.77.95-1.04.41-.28.9-.49,1.46-.61.57-.13,1.18-.19,1.84-.19.2,0,.4.01.61.04.23.01.44.04.64.08.21.03.39.06.53.11.15.03.26.06.32.08v-.68c0-.38-.03-.75-.08-1.1-.06-.37-.18-.69-.38-.98-.18-.3-.45-.53-.81-.7-.34-.18-.79-.28-1.36-.28-.81,0-1.41.06-1.8.17-.4.11-.68.2-.87.28l-.19-1.21c.24-.11.61-.22,1.1-.32.51-.1,1.12-.15,1.82-.15Zm11.19.04c.45,0,.88.04,1.27.11.41.07.69.14.85.21l-.28,1.19c-.11-.06-.35-.11-.7-.17-.34-.07-.79-.11-1.36-.11-.59,0-1.07.04-1.44.13-.35.08-.59.16-.7.21v9.61h-1.38v-10.45c.35-.16.84-.31,1.46-.47.62-.17,1.38-.25,2.27-.25Zm12.91,10.83c-.41.14-.93.28-1.57.4s-1.44.19-2.42.19c-.81,0-1.54-.13-2.21-.38-.65-.27-1.22-.65-1.7-1.15-.47-.49-.83-1.1-1.1-1.8-.25-.71-.38-1.51-.38-2.4,0-.83.11-1.6.32-2.29.23-.71.55-1.31.98-1.82.42-.51.94-.9,1.55-1.19.62-.28,1.33-.42,2.12-.42.72,0,1.34.11,1.87.32.54.2.93.39,1.17.57v-5.89l1.38-.25v16.11Zm-1.38-8.63c-.13-.1-.29-.2-.49-.32-.18-.11-.4-.22-.66-.32-.25-.1-.53-.18-.83-.23-.3-.07-.61-.11-.93-.11-.68,0-1.25.12-1.72.36-.45.24-.82.57-1.1.98-.28.4-.49.87-.61,1.42-.13.54-.19,1.11-.19,1.72,0,1.44.36,2.55,1.08,3.33.72.76,1.68,1.15,2.86,1.15.68,0,1.22-.03,1.63-.08.42-.07.74-.14.95-.21v-7.68Z"/>
            <path class="cls-5" d="m112.53,43.11c-.67.02-1.24-.49-1.32-1.17-.09-.79.52-1.49,1.3-1.49,6.95-.1,13.04,4.73,14.52,11.51.17.77-.37,1.52-1.15,1.61-.67.08-1.3-.37-1.45-1.04-1.21-5.56-6.21-9.52-11.9-9.42Z"/>
            <path class="cls-5" d="m113.1,48.44c-.66-.03-1.2-.52-1.27-1.17-.09-.81.53-1.53,1.33-1.49,4,.18,7.46,2.92,8.54,6.77.22.76-.34,1.54-1.14,1.63h-.01c-.65.08-1.24-.34-1.43-.97-.79-2.7-3.21-4.62-6.02-4.77Z"/>
            <path class="cls-5" d="m560.73,41.02c.76-.38,1.5-.12,1.76.4v.02s.03.02.03.02c3.21,5.55,5.1,11.9,5.14,18.79.04,6.88-1.78,13.24-4.93,18.82-.4.63-1.07.81-1.75.5-.62-.4-.79-1.07-.47-1.75,3.03-5.17,4.66-11.17,4.63-17.56-.03-6.41-1.87-12.38-4.81-17.5-.37-.75-.11-1.48.4-1.74Zm-7.81,4.09c.74-.35,1.46-.09,1.72.41l.02.03.02.03c2.65,4.32,4.12,9.31,4.15,14.7.03,5.39-1.39,10.39-3.99,14.74-.4.64-1.07.82-1.76.5-.62-.41-.79-1.08-.46-1.75,2.21-3.93,3.59-8.56,3.56-13.48-.03-4.89-1.3-9.52-3.71-13.45-.33-.67-.16-1.34.45-1.75Zm-7.9,4.06c.43-.31,1.22-.2,1.7.44,1.96,3.1,3.14,6.86,3.16,10.73.02,4.01-1.12,7.64-3.04,10.77-.45.61-1.13.78-1.71.44-.64-.47-.75-1.26-.45-1.69l.02-.02.32-.54c1.51-2.62,2.38-5.72,2.36-8.94-.02-3.43-1.03-6.72-2.77-9.43-.38-.6-.21-1.3.42-1.76Zm-7.71,3.98c.59-.43,1.36-.3,1.71.19h0s0,.02,0,.02c.77,1.01,1.4,2.14,1.78,3.25.4,1.3.65,2.56.66,3.79,0,1.3-.12,2.53-.59,3.73-.52,1.32-1.02,2.33-1.76,3.33h0s0,.02,0,.02c-.34.48-1.11.63-1.71.2-.48-.34-.62-1.09-.21-1.69.61-.78,1.05-1.69,1.34-2.57.3-.92.44-1.98.44-3.01,0-1.03-.16-2.08-.47-3-.3-.88-.75-1.79-1.37-2.56-.41-.59-.28-1.35.2-1.69Z"/>
            <path class="cls-15" d="m27.99,331.09c0-.58.14-1.08.43-1.5.29-.43.69-.77,1.21-1.01.52-.24,1.12-.36,1.82-.36.62,0,1.17.11,1.63.33.47.22.85.54,1.13.95.28.41.44.91.49,1.49h-1.05c-.06-.58-.28-1.02-.66-1.34-.38-.33-.9-.49-1.54-.49-.72,0-1.3.17-1.74.52-.44.35-.66.81-.66,1.4,0,.45.13.83.4,1.12.27.29.67.5,1.21.63l1.77.43c.81.19,1.42.52,1.83.98.41.45.62,1.03.62,1.73,0,.59-.14,1.1-.43,1.54-.29.44-.7.78-1.23,1.02-.53.24-1.15.36-1.86.36-.66,0-1.25-.11-1.77-.33-.51-.22-.91-.54-1.21-.95-.29-.41-.46-.9-.51-1.46h1.07c.03.55.26.98.71,1.31.44.32,1.01.48,1.72.47.76,0,1.36-.17,1.8-.52.45-.35.68-.81.68-1.4,0-.47-.13-.85-.4-1.14-.26-.3-.67-.51-1.23-.65l-1.75-.43c-.81-.19-1.42-.51-1.85-.97-.41-.46-.62-1.05-.62-1.76Zm15.8,7.64h-6.19s0-10.32,0-10.32h6.17s0,.95,0,.95h-5.78s.65-.56.65-.56v4.28s4.66,0,4.66,0v.94s-4.66,0-4.66,0v4.33s-.65-.56-.65-.56h5.8s0,.95,0,.95Zm7.18.16c-.96,0-1.81-.22-2.54-.66-.72-.45-1.29-1.08-1.7-1.88-.4-.8-.61-1.73-.61-2.78,0-1.06.21-1.99.62-2.78.41-.81.99-1.43,1.73-1.88.74-.45,1.59-.68,2.55-.68.75,0,1.43.14,2.03.42.61.28,1.12.67,1.53,1.18.41.5.69,1.1.82,1.79h-1.11c-.22-.75-.63-1.34-1.21-1.76-.59-.42-1.29-.64-2.11-.63-.75,0-1.41.18-1.99.55-.57.36-1.01.86-1.33,1.51-.31.64-.46,1.4-.46,2.28,0,.86.16,1.61.48,2.26.32.65.76,1.16,1.33,1.53.57.36,1.23.53,1.98.53.82,0,1.53-.21,2.13-.62.61-.41,1.02-.96,1.24-1.64h1.11c-.15.64-.45,1.21-.88,1.7-.42.49-.95.88-1.57,1.15-.62.27-1.31.4-2.05.4Zm7.09-3.75v-6.74s1.04,0,1.04,0v6.69c0,.9.24,1.6.72,2.08.48.48,1.17.72,2.08.72.87,0,1.55-.24,2.03-.72.48-.49.72-1.18.72-2.08v-6.69s1.04,0,1.04,0v6.73c0,.78-.15,1.45-.46,2.02-.3.56-.73.99-1.3,1.3-.57.3-1.24.45-2.03.45s-1.49-.15-2.06-.45c-.57-.3-1-.73-1.31-1.3-.31-.57-.46-1.24-.46-2.02Zm11.98,3.59h-1.04s0-10.33,0-10.33h3.85c1.04,0,1.86.27,2.45.8.61.53.91,1.26.91,2.18,0,.74-.19,1.36-.56,1.86-.37.5-.88.84-1.54,1.03l2.21,4.45h-1.15s-2.11-4.28-2.11-4.28h-3.01s0,4.28,0,4.28Zm0-9.39v4.17s2.84,0,2.84,0c.71,0,1.26-.19,1.66-.56.4-.38.61-.89.61-1.53,0-.67-.21-1.19-.62-1.54-.41-.36-.97-.53-1.67-.53h-2.81Zm15.24,9.38h-6.19s0-10.32,0-10.32h6.17s0,.95,0,.95h-5.78s.65-.56.65-.56v4.28s4.66,0,4.66,0v.94s-4.66,0-4.66,0v4.33s-.65-.56-.65-.56h5.8s0,.95,0,.95Z"/>
            <path class="cls-2" d="m93.22,331.24v4.45"/>
            <path class="cls-15" d="m102.42,328.39v10.33s-1.04,0-1.04,0v-10.33s1.04,0,1.04,0Zm2.9,6.53h-3.12s0-.94,0-.94h2.91c.75,0,1.33-.22,1.75-.65.41-.44.62-1.01.62-1.72,0-.71-.21-1.27-.62-1.67-.41-.41-.98-.62-1.69-.62h-3.42s0-.94,0-.94h3.56c.66,0,1.24.13,1.72.4.49.27.87.65,1.13,1.14.27.49.4,1.06.4,1.7s-.13,1.19-.4,1.69c-.26.5-.63.89-1.12,1.18-.48.28-1.05.42-1.72.42Zm6.83,3.79h-1.04v-10.33s3.85,0,3.85,0c1.04,0,1.85.27,2.45.81.61.53.91,1.25.91,2.18,0,.74-.19,1.36-.56,1.86-.36.5-.88.84-1.54,1.02l2.21,4.46h-1.15l-2.11-4.28h-3.01s0,4.29,0,4.29Zm0-9.39v4.17s2.84,0,2.84,0c.71,0,1.26-.19,1.66-.56.4-.38.61-.89.61-1.53,0-.67-.21-1.19-.62-1.54-.41-.35-.97-.53-1.67-.53h-2.81Zm10.09-.94v10.33s-1.03,0-1.03,0v-10.33s1.03,0,1.03,0Zm6.22,10.32l-3.96-10.32h1.11s2.76,7.18,2.76,7.18c.11.28.21.57.32.87.11.29.22.61.33.98.11-.38.22-.73.33-1.07.12-.34.23-.6.3-.79l2.74-7.17h1.07l-3.92,10.33h-1.08Zm5.94,0h-1.05s3.79-10.33,3.79-10.33h1.28s3.84,10.32,3.84,10.32h-1.08l-1.01-2.74h-4.76s-1.01,2.74-1.01,2.74Zm3.24-8.87l-1.92,5.22h4.11s-1.93-5.22-1.93-5.22c-.02-.08-.04-.15-.07-.23-.03-.08-.05-.14-.06-.19,0,.05-.03.12-.06.2-.02.08-.04.15-.07.22Zm9.1-1v9.86s-1.04,0-1.04,0v-9.86s1.04,0,1.04,0Zm-4.21.49v-.95s7.4,0,7.4,0v.95h-7.4Zm15.88,9.37h-6.19s0-10.32,0-10.32h6.17s0,.95,0,.95h-5.78s.65-.56.65-.56v4.28s4.66,0,4.66,0v.94s-4.66,0-4.66,0v4.33s-.65-.56-.65-.56h5.8s0,.95,0,.95Z"/>
            <path class="cls-2" d="m166.17,331.22v4.45"/>
            <path class="cls-15" d="m175.25,328.36v10.33s-1.03,0-1.03,0v-10.33s1.03,0,1.03,0Zm-.86,10.33v-.95h5.61s0,.95,0,.95h-5.61Zm9.07-10.33v10.33s-1.04,0-1.04,0v-10.33s1.04,0,1.04,0Zm4.4,10.32h-1.02v-10.33s1.02,0,1.02,0l3.77,9.1,3.76-9.1h1.04v10.33s-1.02,0-1.02,0v-4.9c0-.45,0-.85,0-1.18,0-.34.01-.63.01-.88,0-.25.02-.47.03-.66,0-.2.02-.39.04-.58l-3.36,8.21h-.99l-3.36-8.16c.03.19.05.56.06,1.11.02.54.03,1.2.03,1.99v5.06Zm12.98-10.33v10.33s-1.03,0-1.03,0v-10.33s1.03,0,1.03,0Zm6.51.46v9.86s-1.04,0-1.04,0v-9.86s1.04,0,1.04,0Zm-4.21.49v-.95h7.4s0,.95,0,.95h-7.4Zm10.73-.95v10.33s-1.04,0-1.04,0v-10.33s1.04,0,1.04,0Zm-.86,10.33v-.95h5.61s0,.95,0,.95h-5.61Zm14.22,0h-6.19s0-10.32,0-10.32h6.17s0,.95,0,.95h-5.78s.65-.56.65-.56v4.28s4.66,0,4.66,0v.94h-4.66s0,4.33,0,4.33l-.65-.56h5.8s0,.95,0,.95Zm2.35-7.64c0-.58.14-1.08.43-1.5.29-.43.69-.77,1.21-1.01.52-.24,1.12-.36,1.82-.36.62,0,1.17.11,1.63.33.47.22.85.54,1.12.95.28.41.44.91.49,1.49h-1.05c-.06-.58-.28-1.02-.66-1.34-.38-.33-.9-.49-1.54-.49-.72,0-1.3.17-1.75.52-.44.35-.66.81-.66,1.4,0,.45.13.83.4,1.12.27.29.67.5,1.21.63l1.77.43c.81.19,1.42.52,1.83.98.41.45.62,1.03.62,1.73,0,.59-.14,1.1-.43,1.54-.29.44-.7.78-1.23,1.02-.53.24-1.15.36-1.86.36-.66,0-1.25-.11-1.77-.33-.51-.22-.91-.54-1.21-.95-.29-.41-.46-.9-.51-1.46h1.07c.03.55.26.99.71,1.31.44.32,1.01.48,1.72.48.76,0,1.36-.17,1.8-.52.45-.35.68-.81.68-1.4,0-.47-.13-.85-.4-1.14-.26-.3-.67-.51-1.23-.65l-1.74-.43c-.81-.19-1.42-.51-1.85-.97-.41-.46-.62-1.05-.62-1.76Zm9.02,0c0-.58.14-1.08.43-1.5.29-.43.69-.77,1.21-1.01.52-.24,1.12-.36,1.82-.36.62,0,1.17.11,1.63.33.47.22.85.54,1.12.95.28.41.44.91.49,1.49h-1.05c-.06-.58-.28-1.02-.66-1.34-.38-.33-.9-.49-1.54-.49-.72,0-1.3.17-1.74.52-.44.35-.66.81-.66,1.4,0,.45.13.83.4,1.12.27.29.67.5,1.21.63l1.77.43c.81.19,1.42.52,1.83.98.41.45.62,1.03.62,1.73,0,.59-.14,1.1-.43,1.54-.29.44-.7.78-1.23,1.02-.53.24-1.15.36-1.86.36-.66,0-1.26-.11-1.77-.33-.51-.22-.91-.54-1.21-.95-.29-.41-.46-.9-.5-1.46h1.07c.03.55.26.98.71,1.31.44.32,1.01.48,1.72.47.76,0,1.36-.17,1.8-.52.45-.35.68-.81.68-1.4,0-.47-.14-.85-.4-1.14-.26-.3-.67-.51-1.23-.65l-1.74-.43c-.81-.19-1.42-.51-1.85-.97-.41-.46-.62-1.05-.62-1.76Z"/>
            <path class="cls-11" d="m469.05,98.08v-45.03h-61.08V13.58h170.67v40.03h-61.08v44.48h-48.52Z"/>
            <path class="cls-10" d="m491.88,75.84c61.08,0,110.17,12.23,110.17,27.24,0,15.01-49.09,27.24-110.17,27.24s-110.17-12.23-110.17-27.24,49.09-27.24,110.17-27.24Zm0,4.45c-63.93,0-97.04,16.68-101.03,22.79,4,5.56,37.1,13.9,101.03,13.9s97.04-8.34,101.03-13.9c-4-5.56-37.1-22.79-101.03-22.79Z"/>
            <path class="cls-9" d="m517.57,111.98v-31.13c-7.99-.56-16.55-1.11-25.12-1.11-7.99,0-15.41,0-22.83.56v31.13c6.85,0,14.84.56,22.83.56,8.56.56,17.12.56,25.12,0Z"/>
            <path class="cls-8" d="m491.89,130.32c-7.99,0-15.41,0-22.83-.56v82.84h47.95v-83.39c-7.99.56-16.55,1.11-25.12,1.11Z"/>
            <path class="cls-15" d="m25.61,304.67v-1.01s2.9,0,2.9,0v1.01c0,.66.2,1.22.59,1.67.39.46,1.01.68,1.84.68s1.46-.22,1.84-.66c.38-.46.57-1.05.57-1.79v-12.29s3.01,0,3.01,0v12.45c0,.99-.22,1.87-.68,2.64-.44.77-1.06,1.38-1.86,1.82-.8.43-1.75.64-2.85.64-1.16,0-2.15-.22-2.95-.66-.8-.46-1.41-1.07-1.82-1.84-.39-.79-.59-1.67-.59-2.67Zm30.14-3.78c0,1.74-.35,3.29-1.06,4.65-.71,1.34-1.69,2.38-2.95,3.14-1.26.76-2.71,1.13-4.36,1.13-1.64,0-3.08-.38-4.34-1.13-1.26-.75-2.24-1.8-2.95-3.14-.69-1.34-1.04-2.88-1.04-4.62,0-1.76.35-3.31,1.06-4.65.71-1.35,1.68-2.41,2.92-3.16,1.26-.76,2.71-1.13,4.36-1.13,1.65,0,3.1.38,4.34,1.13,1.26.75,2.24,1.8,2.95,3.14s1.06,2.89,1.06,4.65Zm-3.16,0c0-1.23-.21-2.29-.64-3.18-.42-.9-1.02-1.59-1.79-2.08-.77-.5-1.69-.75-2.76-.75-1.05,0-1.97.25-2.76.76-.77.49-1.37,1.18-1.79,2.08-.42.9-.64,1.96-.64,3.18,0,1.23.21,2.3.64,3.21.42.9,1.02,1.59,1.79,2.07.79.49,1.71.73,2.76.73,1.07,0,1.99-.24,2.76-.73.77-.5,1.37-1.2,1.79-2.1.42-.91.64-1.97.64-3.18Zm9.02,8.63h-3.02s0-17.24,0-17.24h3.02s0,7.15,0,7.15h7.64s0-7.15,0-7.15h3.02s0,17.24,0,17.24h-3.02s0-7.31,0-7.31h-7.64s0,7.31,0,7.31Zm17.43,0h-2.97s0-17.24,0-17.24h3s8.97,13.56,8.97,13.56h-.87v-13.56s2.97,0,2.97,0v17.24s-2.97,0-2.97,0l-8.99-13.54h.87v13.54Zm28.55.27c-1.68,0-3.15-.36-4.39-1.08-1.23-.74-2.19-1.77-2.88-3.09-.68-1.34-1.02-2.91-1.02-4.72,0-1.79.34-3.36,1.04-4.69.71-1.34,1.7-2.37,2.97-3.11,1.27-.74,2.74-1.11,4.41-1.11,1.37,0,2.59.25,3.68.75s1.98,1.21,2.69,2.12c.71.9,1.16,1.96,1.35,3.21h-3.18c-.3-1.01-.86-1.78-1.68-2.33-.8-.57-1.78-.85-2.95-.85-1.04,0-1.95.24-2.74.73-.77.49-1.37,1.18-1.79,2.08-.43.9-.64,1.97-.64,3.21s.21,2.25.64,3.16c.42.9,1.02,1.6,1.79,2.1.79.49,1.7.73,2.74.73,1.18,0,2.19-.28,3.02-.85.85-.57,1.41-1.33,1.7-2.29h3.14c-.22,1.19-.7,2.25-1.44,3.16-.72.91-1.64,1.62-2.76,2.12-1.1.5-2.33.76-3.7.76Zm11.36-.29h-3.11s6.22-17.24,6.22-17.24h3.09s6.23,17.24,6.23,17.24h-3.18s-1.39-3.98-1.39-3.98h-6.44s-1.41,3.99-1.41,3.99Zm4.26-12.1l-1.98,5.57h4.69s-1.98-5.57-1.98-5.57c-.06-.24-.13-.47-.21-.71-.08-.24-.13-.44-.14-.61-.03.16-.09.36-.17.61-.06.24-.13.47-.21.71Zm13.35,12.1h-3.02s0-17.24,0-17.24h6.58c1.95,0,3.47.47,4.55,1.41,1.1.94,1.65,2.26,1.65,3.96,0,1.15-.27,2.13-.8,2.95-.52.8-1.29,1.41-2.31,1.84l3.28,7.07h-3.3s-2.93-6.44-2.93-6.44h-3.7s0,6.44,0,6.44Zm0-14.55v5.45h3.56c.96,0,1.71-.25,2.24-.73.53-.49.8-1.16.8-2.03,0-.86-.27-1.52-.8-1.98-.54-.47-1.28-.71-2.24-.71h-3.56Zm19.11-1.26v15.8s-3.01,0-3.01,0v-15.8s3.01,0,3.01,0Zm-8.07,1.35v-2.78s13.11,0,13.11,0v2.78s-13.11,0-13.11,0Zm26.13,14.45h-10.71s0-17.24,0-17.24h10.71s0,2.78,0,2.78h-8.75s1.06-.97,1.06-.97v5.4s6.89,0,6.89,0v2.67s-6.89,0-6.89,0v5.54s-1.06-.97-1.06-.97h8.75s0,2.78,0,2.78Zm6.27,0h-3.02s0-17.24,0-17.24h6.58c1.95,0,3.47.47,4.55,1.41,1.1.94,1.65,2.26,1.65,3.96,0,1.15-.27,2.13-.8,2.95-.52.8-1.29,1.42-2.31,1.84l3.28,7.07h-3.3s-2.93-6.44-2.93-6.44h-3.7s0,6.44,0,6.44Zm0-14.55v5.45s3.56,0,3.56,0c.96,0,1.71-.24,2.24-.73.53-.49.8-1.16.8-2.03s-.27-1.52-.8-1.98c-.53-.47-1.28-.71-2.24-.71h-3.56Z"/>
          </g>
        </g>
        <path class="cls-3" d="m8.29.69h586.35c3.9,0,7.06,3.16,7.06,7.06v365.6c0,3.9-3.16,7.06-7.06,7.06H8.29c-3.9,0-7.06-3.16-7.06-7.06V7.75c0-3.9,3.16-7.06,7.06-7.06Z"/>
      </g>
    </g>
  </g>
</svg>