<?xml version="1.0" encoding="UTF-8"?>
<svg id="Layer_2" data-name="Layer 2" xmlns="http://www.w3.org/2000/svg" xmlns:xlink="http://www.w3.org/1999/xlink" viewBox="0 0 852.89 539.71">
  <defs>
    <style>
      .cls-1 {
        fill: url(#linear-gradient-2);
      }

      .cls-2, .cls-3 {
        fill: #fff;
      }

      .cls-4 {
        fill: url(#linear-gradient);
      }

      .cls-4, .cls-5, .cls-6, .cls-7, .cls-8 {
        fill-opacity: .06;
      }

      .cls-9 {
        fill: #111;
      }

      .cls-5 {
        fill: url(#linear-gradient-6);
      }

      .cls-6 {
        fill: url(#linear-gradient-5);
      }

      .cls-10 {
        stroke: #fff;
        stroke-linecap: round;
        stroke-width: 1.2px;
      }

      .cls-10, .cls-11, .cls-12 {
        fill: none;
      }

      .cls-7 {
        fill: url(#linear-gradient-4);
      }

      .cls-13 {
        clip-path: url(#clippath);
      }

      .cls-8 {
        fill: url(#linear-gradient-3);
      }

      .cls-3 {
        isolation: isolate;
        opacity: .9;
      }

      .cls-14 {
        fill: #f3f3f3;
      }

      .cls-12 {
        stroke: url(#linear-gradient-7);
      }
    </style>
    <clipPath id="clippath">
      <rect class="cls-11" y="0" width="852.89" height="539.71" rx="10.51" ry="10.51"/>
    </clipPath>
    <linearGradient id="linear-gradient" x1="400.64" y1="283.16" x2="497.17" y2="-53.6" gradientTransform="translate(0 540.43) scale(1 -1)" gradientUnits="userSpaceOnUse">
      <stop offset="0" stop-color="#171717"/>
      <stop offset="1" stop-color="#b9b9b9"/>
    </linearGradient>
    <linearGradient id="linear-gradient-2" x1="-8.49" y1="-85.27" x2="-810.17" y2="-234.16" gradientTransform="translate(376.01 209.65) scale(1 -1)" gradientUnits="userSpaceOnUse">
      <stop offset="0" stop-color="#1c1c1c"/>
      <stop offset=".74" stop-color="#000"/>
    </linearGradient>
    <linearGradient id="linear-gradient-3" x1="698.62" y1="521.65" x2="698.62" y2="401.76" xlink:href="#linear-gradient"/>
    <linearGradient id="linear-gradient-4" x1="696.59" y1="433.31" x2="696.59" y2="356.02" xlink:href="#linear-gradient"/>
    <linearGradient id="linear-gradient-5" x1="699.02" y1="427.79" x2="699.02" y2="381.46" xlink:href="#linear-gradient"/>
    <linearGradient id="linear-gradient-6" x1="698.21" y1="357.6" x2="698.21" y2="239.29" xlink:href="#linear-gradient"/>
    <linearGradient id="linear-gradient-7" x1="0" y1="270.58" x2="852.89" y2="270.58" gradientTransform="translate(0 540.43) scale(1 -1)" gradientUnits="userSpaceOnUse">
      <stop offset="0" stop-color="#0056c2"/>
      <stop offset="1" stop-color="#6fa3ff"/>
    </linearGradient>
  </defs>
  <g id="Layer_1-2" data-name="Layer 1">
    <g class="cls-13">
      <g>
        <path class="cls-9" d="m0,10.51C0,4.71,4.71,0,10.51,0h831.86c5.8,0,10.51,4.71,10.51,10.51v518.68c0,5.8-4.71,10.51-10.51,10.51H10.51c-5.81,0-10.51-4.71-10.51-10.51V10.51Z"/>
        <path class="cls-4" d="m430.25,256.65l1.75,50.33c8.34-.46,16.73-.91,24.94-1.2l-1.74-50,31.27-1.09,1.79,51.36c40.48,2.13,72.87,13.43,77.73,50.33h0c3.59,27-7.17,43.66-24.97,53.54,30.08,6.13,49.39,23.22,47.08,63.09-2.84,49.5-39.17,64.02-91.62,68.87l1.8,51.85-31.26,1.09-1.77-51.16c-8.1.29-16.4.51-24.97.63l1.78,51.4-31.23,1.08-1.82-51.95c-7.31.21-14.76.34-22.33.59l-40.69,1.42,4.91-37.56c.11,0,23.14-.45,22.72-.78,8.85-.32,10.97-6.76,11.38-10.76l-2.84-81.96,3.29-.12c-1.3-.13-2.44-.13-3.31-.1l-2.04-58.51c-1.41-6.3-5.8-13.51-18.46-13.07.37-.44-22.58.8-22.7.8l-1.17-33.39,43.12-1.49v.16c6.49-.23,13.13-.59,19.9-.96l-1.77-51.34,31.24-1.09Zm9.41,249.79c21.2-.75,87.8,1.34,86.44-37.48h0c-1.43-40.48-67.65-32.08-88.84-31.35l2.39,68.82Zm-3.49-100.32c17.65-.62,73.23,1.57,72.01-33.74-1.28-36.84-56.52-29.29-74.18-28.67l2.17,62.42Z"/>
        <rect class="cls-1" x="-204.73" y="-352.69" width="562.63" height="1403.29" transform="translate(-123.4 52.92) rotate(-21.66)"/>
        <path class="cls-3" d="m73.32,75.46v2.92h-10.97v31.33h-3.36v-31.33h-10.97v-2.92h25.3Zm11.5,31.93c1.25,0,2.34-.03,3.26-.1.96-.1,1.76-.21,2.42-.35v-8.99c-.36-.16-.94-.33-1.73-.49-.79-.2-1.88-.3-3.26-.3-.79,0-1.61.07-2.47.2-.86.1-1.65.35-2.37.74-.72.36-1.32.87-1.78,1.53-.46.66-.69,1.53-.69,2.62,0,.96.15,1.76.44,2.42.33.66.77,1.19,1.33,1.58.59.4,1.28.69,2.08.89.82.16,1.75.25,2.77.25Zm-.3-23.82c1.68,0,3.1.25,4.25.74,1.19.46,2.14,1.12,2.87,1.98.72.82,1.25,1.81,1.58,2.97.33,1.15.49,2.41.49,3.76v16.11c-.33.1-.81.21-1.43.35-.63.1-1.35.21-2.17.35-.82.13-1.75.23-2.77.3-.99.1-2.01.15-3.06.15-1.35,0-2.6-.15-3.76-.44-1.12-.3-2.11-.76-2.97-1.38-.82-.66-1.48-1.48-1.98-2.47-.46-1.02-.69-2.26-.69-3.71s.26-2.57.79-3.56c.53-.99,1.27-1.8,2.22-2.42.96-.66,2.09-1.14,3.41-1.43,1.32-.3,2.75-.44,4.3-.44.46,0,.94.03,1.43.1.53.03,1.02.1,1.48.2.49.07.91.15,1.24.25.36.07.61.13.74.2v-1.58c0-.89-.07-1.75-.2-2.57-.13-.86-.43-1.61-.89-2.27-.43-.69-1.05-1.24-1.88-1.63-.79-.43-1.85-.64-3.16-.64-1.88,0-3.28.13-4.2.4-.92.26-1.6.48-2.03.64l-.44-2.82c.56-.26,1.42-.51,2.57-.74,1.19-.23,2.6-.35,4.25-.35Zm20.6,21.55c.3.23.66.48,1.09.74.46.26.99.51,1.58.74.59.23,1.24.43,1.93.59.69.13,1.42.2,2.17.2,1.58,0,2.9-.26,3.95-.79,1.09-.56,1.96-1.3,2.62-2.22.66-.96,1.14-2.06,1.43-3.31.3-1.29.44-2.64.44-4.05,0-3.36-.84-5.93-2.52-7.71-1.68-1.81-3.9-2.72-6.67-2.72-1.58,0-2.87.08-3.85.25-.96.13-1.68.28-2.17.44v17.84Zm0,13.74h-3.21v-33.8c.96-.33,2.18-.64,3.66-.94,1.48-.3,3.36-.44,5.63-.44,1.88,0,3.57.31,5.09.94,1.55.59,2.87,1.47,3.95,2.62,1.12,1.15,1.98,2.55,2.57,4.2.63,1.65.94,3.51.94,5.58,0,1.94-.26,3.74-.79,5.39-.49,1.61-1.24,3.01-2.22,4.2-.99,1.15-2.21,2.06-3.66,2.72-1.42.66-3.05.99-4.89.99-1.68,0-3.15-.23-4.4-.69-1.22-.49-2.11-.95-2.67-1.38v10.63Zm44.97-9.14c-.96-1.91-2.01-3.84-3.16-5.78-1.12-1.98-2.42-3.99-3.9-6.03-.46.59-1.05,1.42-1.78,2.47-.69,1.05-1.4,2.17-2.12,3.36-.69,1.19-1.35,2.32-1.98,3.41-.63,1.09-1.09,1.94-1.38,2.57h-8.8c1.45-2.67,3.13-5.47,5.04-8.4,1.94-2.93,4.1-6.05,6.47-9.34l-11.02-16.51h9.34l6.67,10.67,6.52-10.67h8.8l-10.87,16.61c2.77,3.59,5.09,6.92,6.97,9.98,1.88,3.03,3.36,5.58,4.45,7.66h-9.24Z"/>
        <path class="cls-2" d="m172.52,108.61c-1.34,0-2.6-.24-3.76-.72-1.14-.48-2.15-1.18-3.01-2.11-.84-.92-1.51-2.06-2.01-3.4-.48-1.36-.72-2.92-.72-4.66s.26-3.29.78-4.63c.54-1.36,1.25-2.51,2.14-3.43.88-.92,1.91-1.61,3.07-2.08,1.16-.48,2.38-.72,3.64-.72.78,0,1.49.05,2.14.15.64.1,1.2.23,1.68.39.48.14.89.29,1.23.45.34.14.6.27.78.39l-.66,1.77c-.5-.3-1.14-.59-1.93-.87-.76-.3-1.71-.45-2.86-.45-1.3,0-2.45.22-3.43.66-.96.44-1.77,1.06-2.44,1.87s-1.16,1.75-1.5,2.86c-.32,1.1-.48,2.33-.48,3.67s.16,2.64.48,3.76c.34,1.1.83,2.05,1.47,2.83s1.42,1.38,2.35,1.81c.94.42,2.02.63,3.22.63,1.32,0,2.43-.12,3.31-.36.9-.26,1.58-.52,2.04-.78l.57,1.74c-.14.1-.38.22-.72.36-.34.12-.77.25-1.29.39-.52.14-1.12.25-1.8.33-.68.1-1.44.15-2.29.15Zm14.45-1.87c.76,0,1.42-.02,1.99-.06.58-.06,1.07-.13,1.47-.21v-5.47c-.22-.1-.57-.2-1.05-.3-.48-.12-1.14-.18-1.99-.18-.48,0-.98.04-1.5.12-.52.06-1,.21-1.44.45-.44.22-.8.53-1.08.93-.28.4-.42.93-.42,1.59,0,.58.09,1.07.27,1.47.2.4.47.72.81.96.36.24.78.42,1.26.54.5.1,1.06.15,1.68.15Zm-.18-14.5c1.02,0,1.89.15,2.59.45.72.28,1.3.68,1.75,1.2.44.5.76,1.1.96,1.8.2.7.3,1.46.3,2.29v9.81c-.2.06-.49.13-.87.21-.38.06-.82.13-1.32.21-.5.08-1.06.14-1.68.18-.6.06-1.22.09-1.87.09-.82,0-1.58-.09-2.29-.27-.68-.18-1.28-.46-1.8-.84-.5-.4-.9-.9-1.2-1.5-.28-.62-.42-1.37-.42-2.26s.16-1.56.48-2.17c.32-.6.77-1.09,1.35-1.47.58-.4,1.27-.69,2.08-.87.8-.18,1.68-.27,2.62-.27.28,0,.57.02.87.06.32.02.62.06.9.12.3.04.55.09.75.15.22.04.37.08.45.12v-.96c0-.54-.04-1.06-.12-1.56-.08-.52-.26-.98-.54-1.38-.26-.42-.64-.75-1.14-.99-.48-.26-1.12-.39-1.92-.39-1.14,0-2,.08-2.56.24-.56.16-.97.29-1.23.39l-.27-1.71c.34-.16.86-.31,1.56-.45.72-.14,1.59-.21,2.59-.21Zm15.88.06c.64,0,1.24.05,1.8.15.58.1.98.2,1.2.3l-.39,1.68c-.16-.08-.49-.16-.99-.24-.48-.1-1.12-.15-1.93-.15s-1.52.06-2.05.18c-.5.12-.83.22-.99.3v13.63h-1.96v-14.83c.5-.22,1.19-.44,2.07-.66.88-.24,1.96-.36,3.22-.36Zm18.32,15.37c-.58.2-1.32.39-2.23.57-.9.18-2.05.27-3.43.27-1.14,0-2.19-.18-3.13-.54-.92-.38-1.73-.92-2.41-1.62-.66-.7-1.18-1.56-1.56-2.56-.36-1-.54-2.14-.54-3.4,0-1.18.15-2.27.45-3.25.32-1,.78-1.87,1.38-2.59.6-.72,1.33-1.28,2.2-1.68.88-.4,1.88-.6,3.01-.6,1.02,0,1.9.15,2.65.45.76.28,1.31.55,1.65.81v-8.36l1.96-.36v22.86Zm-1.96-12.24c-.18-.14-.41-.29-.69-.45-.26-.16-.57-.31-.93-.45-.36-.14-.75-.25-1.17-.33-.42-.1-.86-.15-1.32-.15-.96,0-1.78.17-2.44.51-.64.34-1.16.8-1.57,1.38-.4.56-.69,1.23-.87,2.02-.18.76-.27,1.57-.27,2.44,0,2.05.51,3.62,1.53,4.72,1.02,1.08,2.38,1.62,4.06,1.62.96,0,1.74-.04,2.32-.12.6-.1,1.05-.2,1.35-.3v-10.89Z"/>
        <path class="cls-2" d="m158.4,60.68c-.96.03-1.76-.7-1.87-1.65-.13-1.13.73-2.11,1.85-2.11,9.86-.14,18.5,6.7,20.6,16.32.24,1.09-.53,2.15-1.64,2.28-.96.11-1.85-.53-2.05-1.47-1.72-7.89-8.82-13.51-16.88-13.36Z"/>
        <path class="cls-2" d="m159.21,68.24c-.94-.04-1.7-.73-1.81-1.65-.13-1.14.75-2.17,1.88-2.12,5.67.26,10.58,4.14,12.12,9.6.32,1.08-.49,2.18-1.61,2.32h-.02c-.92.11-1.76-.49-2.02-1.38-1.12-3.83-4.55-6.55-8.54-6.76Z"/>
        <path class="cls-2" d="m794.27,57.72c1.07-.54,2.12-.17,2.5.56l.02.03.02.03c4.56,7.88,7.24,16.88,7.29,26.65.05,9.76-2.52,18.79-6.99,26.71-.57.9-1.52,1.15-2.48.7-.88-.57-1.12-1.52-.66-2.48,4.3-7.34,6.62-15.84,6.57-24.91-.05-9.09-2.66-17.56-6.83-24.83-.52-1.06-.16-2.1.58-2.47Zm-11.08,5.81c1.05-.5,2.08-.13,2.44.59l.02.05.03.04c3.76,6.13,5.85,13.2,5.89,20.86.04,7.65-1.97,14.74-5.66,20.91-.57.91-1.52,1.17-2.49.72-.88-.57-1.12-1.53-.66-2.49,3.14-5.58,5.09-12.15,5.05-19.12-.04-6.94-1.85-13.5-5.27-19.08-.46-.95-.23-1.9.64-2.48Zm-11.21,5.76c.6-.44,1.74-.28,2.41.62,2.77,4.4,4.45,9.73,4.48,15.23.03,5.69-1.59,10.84-4.32,15.28-.63.87-1.6,1.11-2.43.62-.9-.66-1.07-1.79-.64-2.4l.02-.03.02-.03c2.42-3.87,3.81-8.55,3.79-13.42-.03-4.87-1.47-9.53-3.93-13.38-.53-.84-.29-1.84.6-2.49Zm-10.94,5.64c.84-.61,1.93-.42,2.43.26h0s0,.02,0,.02c1.09,1.44,1.99,3.04,2.52,4.61.56,1.84.92,3.63.93,5.38.01,1.84-.16,3.58-.84,5.3-.73,1.87-1.45,3.3-2.5,4.72h-.01s0,.02,0,.02c-.49.69-1.57.89-2.42.29-.68-.48-.88-1.55-.3-2.4.86-1.1,1.49-2.39,1.91-3.65.43-1.31.63-2.8.62-4.26,0-1.46-.22-2.95-.67-4.26-.42-1.26-1.07-2.54-1.94-3.63-.59-.84-.4-1.91.28-2.4Z"/>
        <path class="cls-14" d="m38.13,478.04c0-.82.2-1.53.61-2.13.41-.61.98-1.09,1.72-1.43.74-.34,1.6-.51,2.58-.51.89,0,1.66.16,2.31.47.67.31,1.2.76,1.6,1.35.4.59.63,1.29.7,2.11h-1.49c-.08-.82-.4-1.45-.94-1.9-.55-.46-1.28-.7-2.19-.7-1.02,0-1.85.25-2.48.74-.63.49-.94,1.15-.94,1.98,0,.64.19,1.17.57,1.6.38.41.96.71,1.72.9l2.52.61c1.15.27,2.01.74,2.6,1.39.59.64.88,1.46.88,2.45,0,.83-.2,1.56-.61,2.19-.41.63-.99,1.11-1.74,1.45-.75.34-1.63.51-2.64.51-.94,0-1.78-.16-2.52-.47-.72-.31-1.3-.76-1.72-1.35-.41-.59-.65-1.27-.72-2.07h1.51c.04.78.38,1.4,1,1.86.63.45,1.44.67,2.43.67,1.08,0,1.93-.25,2.56-.74.64-.49.96-1.15.96-1.98,0-.67-.19-1.21-.57-1.62-.37-.42-.95-.73-1.74-.92l-2.48-.61c-1.15-.27-2.02-.73-2.62-1.37-.59-.65-.88-1.49-.88-2.5Zm22.42,10.84h-8.78s0-14.65,0-14.65h8.76s0,1.35,0,1.35h-8.2s.92-.8.92-.8v6.08s6.61,0,6.61,0v1.33s-6.61,0-6.61,0v6.14s-.92-.8-.92-.8h8.22s0,1.35,0,1.35Zm10.19.22c-1.36,0-2.56-.31-3.6-.94-1.02-.64-1.83-1.53-2.42-2.66-.57-1.13-.86-2.45-.86-3.95,0-1.5.29-2.82.88-3.95.59-1.15,1.4-2.03,2.45-2.66,1.05-.64,2.26-.96,3.62-.96,1.06,0,2.03.2,2.89.59.86.4,1.58.95,2.17,1.68.59.71.98,1.56,1.17,2.54h-1.58c-.31-1.06-.89-1.9-1.72-2.49-.83-.6-1.83-.9-2.99-.9-1.06,0-2,.26-2.82.78-.8.51-1.43,1.22-1.88,2.15-.44.91-.65,1.99-.65,3.23,0,1.21.23,2.28.68,3.21.45.93,1.08,1.65,1.88,2.17.8.5,1.74.76,2.8.76,1.16,0,2.17-.29,3.03-.88.86-.59,1.45-1.36,1.76-2.33h1.58c-.22.91-.63,1.72-1.25,2.42-.6.7-1.34,1.24-2.23,1.64-.89.38-1.85.57-2.91.57Zm10.05-5.32v-9.55s1.47,0,1.47,0v9.49c0,1.28.34,2.26,1.03,2.95.68.68,1.66,1.02,2.95,1.02,1.24,0,2.2-.34,2.88-1.02.68-.7,1.02-1.68,1.02-2.95v-9.49s1.47,0,1.47,0v9.55c0,1.1-.21,2.06-.65,2.86-.42.79-1.04,1.4-1.84,1.84-.8.42-1.77.63-2.88.63-1.13,0-2.11-.21-2.93-.63-.81-.42-1.43-1.04-1.86-1.84-.44-.8-.66-1.76-.66-2.86Zm16.99,5.09h-1.47s0-14.65,0-14.65h5.46c1.47,0,2.63.38,3.48,1.14.86.75,1.29,1.78,1.29,3.09,0,1.05-.27,1.93-.8,2.64-.52.71-1.25,1.19-2.19,1.45l3.13,6.32h-1.64s-2.99-6.08-2.99-6.08h-4.28s0,6.08,0,6.08Zm0-13.32v5.91s4.03,0,4.03,0c1.01,0,1.79-.27,2.35-.8.57-.53.86-1.26.86-2.17,0-.95-.29-1.68-.88-2.19-.59-.5-1.38-.76-2.37-.76h-3.99Zm21.62,13.31h-8.78s0-14.65,0-14.65h8.76s0,1.35,0,1.35h-8.21s.92-.8.92-.8v6.08s6.61,0,6.61,0v1.33s-6.61,0-6.61,0v6.14s-.92-.8-.92-.8h8.22s0,1.35,0,1.35Z"/>
        <path class="cls-10" d="m130.68,477.54v6.32"/>
        <path class="cls-14" d="m143.73,474.2v14.65s-1.47,0-1.47,0v-14.65s1.47,0,1.47,0Zm4.11,9.27h-4.42s0-1.33,0-1.33h4.13c1.06,0,1.89-.31,2.48-.92.59-.63.88-1.44.88-2.43,0-1.01-.29-1.8-.88-2.37-.59-.59-1.39-.88-2.39-.88h-4.85s0-1.33,0-1.33h5.05c.94,0,1.75.19,2.43.57.7.38,1.23.92,1.6,1.62.38.7.57,1.5.57,2.41,0,.89-.19,1.68-.57,2.39-.37.71-.9,1.27-1.6,1.68-.68.39-1.49.59-2.43.59Zm9.68,5.38h-1.47v-14.65s5.46,0,5.46,0c1.47,0,2.63.38,3.48,1.14.86.75,1.29,1.78,1.29,3.09,0,1.05-.27,1.93-.8,2.64-.52.71-1.25,1.19-2.19,1.45l3.13,6.32h-1.64l-2.99-6.08h-4.28s0,6.08,0,6.08Zm0-13.32v5.91s4.03,0,4.03,0c1.01,0,1.79-.27,2.35-.8.57-.53.86-1.26.86-2.17,0-.96-.29-1.68-.88-2.19-.59-.51-1.38-.76-2.37-.76h-3.99Zm14.31-1.33v14.65s-1.47,0-1.47,0v-14.65s1.47,0,1.47,0Zm8.82,14.65l-5.61-14.65h1.57l3.91,10.19c.15.4.3.8.45,1.23.15.41.31.87.47,1.39.15-.53.31-1.04.47-1.51.18-.48.32-.85.43-1.12l3.88-10.17h1.51s-5.56,14.65-5.56,14.65h-1.54Zm8.43,0h-1.49s5.38-14.65,5.38-14.65h1.82l5.45,14.65h-1.54l-1.43-3.89h-6.75s-1.43,3.89-1.43,3.89Zm4.6-12.58l-2.72,7.41h5.83s-2.74-7.41-2.74-7.41c-.03-.11-.06-.22-.1-.33-.04-.11-.07-.2-.08-.27-.01.07-.04.16-.08.29-.03.11-.06.21-.1.31Zm12.91-1.42v13.99s-1.47,0-1.47,0v-13.99s1.47,0,1.47,0Zm-5.97.7v-1.35h10.5s0,1.35,0,1.35h-10.5Zm22.53,13.3h-8.78s0-14.65,0-14.65h8.76s0,1.35,0,1.35h-8.2s.92-.8.92-.8v6.08s6.61,0,6.61,0v1.33s-6.61,0-6.61,0v6.14s-.92-.8-.92-.8h8.22s0,1.35,0,1.35Z"/>
        <path class="cls-10" d="m234.18,477.5v6.32"/>
        <path class="cls-14" d="m247.06,474.17v14.65s-1.47,0-1.47,0v-14.65s1.47,0,1.47,0Zm-1.22,14.65v-1.35s7.96,0,7.96,0v1.35s-7.96,0-7.96,0Zm12.86-14.65v14.65s-1.47,0-1.47,0v-14.65s1.47,0,1.47,0Zm6.25,14.65h-1.45s0-14.65,0-14.65h1.45l5.35,12.91,5.34-12.91h1.47v14.65s-1.45,0-1.45,0v-6.96c0-.64,0-1.2,0-1.68.01-.48.02-.89.02-1.25.01-.35.03-.67.04-.94.01-.29.03-.56.06-.82l-4.76,11.64h-1.41s-4.77-11.58-4.77-11.58c.04.27.07.8.08,1.57.03.76.04,1.71.04,2.82v7.18Zm18.41-14.65v14.65s-1.47,0-1.47,0v-14.65s1.47,0,1.47,0Zm9.23.65v13.99s-1.47,0-1.47,0v-13.99s1.47,0,1.47,0Zm-5.97.7v-1.35s10.49,0,10.49,0v1.35s-10.49,0-10.49,0Zm15.22-1.36v14.65s-1.47,0-1.47,0v-14.65s1.47,0,1.47,0Zm-1.22,14.65v-1.35h7.96s0,1.35,0,1.35h-7.96Zm20.17,0h-8.78s0-14.65,0-14.65h8.76s0,1.35,0,1.35h-8.2s.92-.8.92-.8v6.08s6.61,0,6.61,0v1.33s-6.61,0-6.61,0v6.14s-.92-.8-.92-.8h8.22s0,1.35,0,1.35Zm3.33-10.85c0-.82.2-1.53.61-2.13.41-.61.98-1.09,1.72-1.43.74-.34,1.6-.51,2.58-.51.89,0,1.66.16,2.31.47.67.31,1.2.76,1.6,1.35.4.59.63,1.29.7,2.11h-1.49c-.08-.82-.4-1.45-.94-1.9-.55-.46-1.28-.7-2.19-.69-1.02,0-1.85.25-2.48.74-.63.49-.94,1.15-.94,1.98,0,.64.19,1.17.57,1.6.38.41.95.71,1.72.9l2.52.61c1.14.27,2.01.74,2.6,1.39.59.64.88,1.46.88,2.46,0,.83-.2,1.56-.61,2.19-.41.63-.99,1.11-1.74,1.45-.75.34-1.63.51-2.64.51-.94,0-1.78-.16-2.52-.47-.72-.31-1.3-.76-1.72-1.35-.41-.59-.65-1.27-.72-2.07h1.51c.04.78.38,1.4,1,1.86.63.45,1.44.67,2.43.67,1.08,0,1.93-.25,2.56-.74.64-.49.96-1.15.96-1.98,0-.67-.19-1.21-.57-1.62-.37-.42-.95-.73-1.74-.92l-2.48-.61c-1.15-.27-2.02-.73-2.62-1.37-.59-.65-.88-1.49-.88-2.5Zm12.8,0c0-.82.2-1.53.61-2.13.41-.61.98-1.09,1.72-1.43s1.6-.51,2.58-.51c.89,0,1.66.16,2.31.47.67.31,1.2.76,1.6,1.35.4.59.63,1.29.7,2.11h-1.49c-.08-.82-.4-1.45-.94-1.9-.54-.46-1.27-.69-2.19-.69-1.02,0-1.85.25-2.48.74-.63.49-.94,1.15-.94,1.99,0,.64.19,1.17.57,1.6.38.41.95.71,1.72.9l2.52.61c1.15.27,2.01.74,2.6,1.39.59.64.88,1.46.88,2.46,0,.83-.21,1.56-.61,2.19-.41.63-.99,1.11-1.74,1.45-.75.34-1.63.51-2.64.51-.94,0-1.78-.16-2.52-.47-.72-.31-1.3-.76-1.72-1.35-.41-.59-.65-1.27-.72-2.07h1.51c.04.78.38,1.4,1,1.86.63.45,1.44.68,2.43.67,1.08,0,1.93-.25,2.56-.74.64-.49.96-1.15.96-1.98,0-.67-.19-1.21-.57-1.62-.37-.42-.95-.73-1.74-.92l-2.48-.61c-1.15-.27-2.02-.73-2.62-1.37-.59-.65-.88-1.49-.88-2.5Z"/>
        <path class="cls-8" d="m664.2,138.67v-63.89h-86.65V18.78h242.14v56.79h-86.65v63.1h-68.84Z"/>
        <path class="cls-7" d="m696.59,107.12c86.65,0,156.29,17.35,156.29,38.65,0,21.3-69.64,38.65-156.29,38.65-86.65,0-156.29-17.35-156.29-38.65,0-21.3,69.64-38.65,156.29-38.65Zm0,6.31c-90.7,0-137.67,23.66-143.34,32.34,5.67,7.89,52.64,19.72,143.34,19.72s137.67-11.83,143.34-19.72c-5.67-7.89-52.64-32.34-143.34-32.34Z"/>
        <path class="cls-6" d="m733.03,158.39v-44.17c-11.34-.79-23.49-1.58-35.63-1.58-11.34,0-21.86,0-32.39.79v44.17c9.72,0,21.05.79,32.39.79,12.15.79,24.29.79,35.63,0Z"/>
        <path class="cls-5" d="m696.59,184.41c-11.34,0-21.86,0-32.39-.79v117.52h68.03v-118.31c-11.34.79-23.48,1.58-35.63,1.58Z"/>
        <path class="cls-14" d="m65.69,152.83l-9.24-24.46h4.55s5.36,14.08,5.36,14.08c.27.71.52,1.46.77,2.24.25.78.5,1.66.77,2.64.29-1.07.57-2,.84-2.78.27-.78.51-1.48.74-2.11l5.28-14.09h4.45s-9.09,24.46-9.09,24.46h-4.42Zm15.97,0v-16.53s4.08,0,4.08,0v16.53s-4.08,0-4.08,0Zm2-19.84c-.69,0-1.28-.23-1.77-.7-.47-.49-.7-1.08-.7-1.77,0-.69.23-1.27.7-1.74.49-.47,1.08-.7,1.77-.7s1.27.23,1.74.7c.49.47.74,1.05.74,1.74,0,.69-.25,1.28-.74,1.77-.47.47-1.05.7-1.74.7Zm16.67,3.24v3.78s-1.5,0-1.5,0c-1.49,0-2.67.4-3.51,1.21-.85.78-1.27,1.97-1.27,3.58v8.03s-4.08,0-4.08,0v-16.5s3.84,0,3.84,0l.34,3.41h-.4c.22-1.09.75-1.99,1.57-2.68.83-.69,1.9-1.04,3.21-1.04.29,0,.58.01.87.03.29.02.6.08.94.17Zm1.78.07h10.44s0,3.41,0,3.41h-10.44s0-3.41,0-3.41Zm7.27,16.53h-4.08s0-21.68,0-21.68h4.08s0,21.68,0,21.68Zm16.95-16.54h4.08s0,16.53,0,16.53h-3.78s-.3-2.21-.3-2.21c-.49.78-1.23,1.42-2.21,1.91-.98.49-2.03.74-3.14.74-1.9,0-3.38-.6-4.45-1.81-1.07-1.2-1.61-2.81-1.61-4.82v-10.34s4.08,0,4.08,0v8.9c0,1.56.31,2.69.91,3.38.6.69,1.47,1.04,2.61,1.04,1.29,0,2.25-.38,2.88-1.14.62-.78.94-1.95.94-3.51v-8.67Zm13.22,16.96c-1.74,0-3.12-.47-4.15-1.4-1-.96-1.51-2.21-1.51-3.75,0-1.52.52-2.72,1.57-3.61,1.07-.91,2.59-1.45,4.55-1.61l4.95-.4v-.37c0-.76-.15-1.36-.44-1.81-.27-.47-.66-.8-1.17-1-.51-.22-1.12-.33-1.81-.33-1.21,0-2.13.25-2.78.74-.65.47-.97,1.14-.97,2.01h-3.48c0-1.2.3-2.24.9-3.11.62-.89,1.49-1.58,2.61-2.07,1.14-.49,2.44-.74,3.91-.74,1.5,0,2.78.27,3.85.8,1.07.51,1.9,1.29,2.48,2.34.58,1.03.87,2.31.87,3.85v10.04s-3.58,0-3.58,0l-.3-2.44c-.36.85-1.05,1.54-2.07,2.08-1,.54-2.15.8-3.45.8Zm1.3-3.08c1.27,0,2.28-.36,3.01-1.07.76-.71,1.14-1.71,1.14-2.98v-.87l-3.45.27c-1.27.11-2.18.38-2.71.8-.54.4-.8.94-.8,1.61,0,.74.25,1.29.74,1.67.49.38,1.18.57,2.07.57Zm16.23,2.64h-4.05s0-24.89,0-24.89h4.05s0,24.89,0,24.89Z"/>
      </g>
    </g>
    <path class="cls-12" d="m10.51.5h831.86c5.53,0,10.01,4.48,10.01,10.01v518.68c0,5.53-4.48,10.01-10.01,10.01H10.51c-5.53,0-10.01-4.48-10.01-10.01V10.51c0-5.36,4.21-9.73,9.5-10h.51Z"/>
  </g>
</svg>