<svg width="32" height="32" viewBox="0 0 32 32" fill="none" xmlns="http://www.w3.org/2000/svg">
<g clip-path="url(#clip0_301_1667)">
<path d="M16 32C24.8366 32 32 24.8366 32 16C32 7.16344 24.8366 0 16 0C7.16344 0 0 7.16344 0 16C0 24.8366 7.16344 32 16 32Z" fill="#2B61D1"/>
<path d="M24.914 15.4777L20.0283 12.6968L15.1807 15.5254L15.2092 21.1444L20.0949 23.9254L24.9426 21.0968L24.914 15.4777Z" fill="white"/>
<path d="M12.8093 17.8781L9.95211 16.2495L7.10449 17.9067L7.12354 21.2019L9.98068 22.8305L12.8188 21.1638L12.8093 17.8781Z" fill="white"/>
<path d="M9.93306 13.8963L13.0473 15.6772L13.0378 14.3058L20.0188 10.2296L24.895 13.0106L24.8854 10.8296L15.9712 5.73438L7.10449 10.9153L7.12354 15.5439L9.93306 13.8963Z" fill="white"/>
<path d="M12.0474 23.9731L16.0759 26.2778L17.9617 25.1731L13.9331 22.8778L12.0474 23.9731Z" fill="white"/>
</g>
<defs>
<clipPath id="clip0_301_1667">
<rect width="32" height="32" fill="white"/>
</clipPath>
</defs>
</svg>
