<svg width="177" height="67" viewBox="0 0 177 67" fill="none" xmlns="http://www.w3.org/2000/svg">
<path d="M26.1942 23.0855L26.1952 26.0007L15.2262 26.0043L15.2364 57.33L11.8766 57.3311L11.8664 26.0053L0.897416 26.0089L0.896465 23.0938L26.1942 23.0855ZM37.7009 55.0004C38.9526 55 40.0396 54.9667 40.9619 54.9005C41.9171 54.8014 42.7241 54.6858 43.3829 54.5539L43.3799 45.5613C43.0175 45.3967 42.441 45.2322 41.6504 45.0678C40.8598 44.8704 39.7728 44.7719 38.3893 44.7724C37.5987 44.7726 36.7753 44.8388 35.9189 44.9708C35.0625 45.0699 34.272 45.3172 33.5474 45.7127C32.8229 46.0753 32.2301 46.5861 31.7692 47.245C31.3082 47.904 31.078 48.7769 31.0783 49.864C31.0786 50.8192 31.2271 51.6262 31.5238 52.2849C31.8534 52.9436 32.2983 53.4705 32.8584 53.8656C33.4514 54.2606 34.1432 54.5569 34.9339 54.7543C35.7574 54.9187 36.6798 55.0007 37.7009 55.0004ZM37.3967 31.185C39.0766 31.1845 40.4931 31.4311 41.6461 31.9248C42.8321 32.3856 43.7876 33.044 44.5125 33.9002C45.2375 34.7235 45.7648 35.7115 46.0946 36.8643C46.4244 38.0171 46.5895 39.2688 46.5899 40.6193L46.5952 56.7268C46.2658 56.8258 45.7882 56.9412 45.1624 57.0732C44.5366 57.1722 43.812 57.2877 42.9885 57.4198C42.1651 57.5518 41.2428 57.6509 40.2217 57.7171C39.2335 57.8163 38.2124 57.866 37.1583 57.8663C35.8078 57.8668 34.556 57.719 33.403 57.4229C32.283 57.1268 31.2946 56.666 30.438 56.0404C29.6143 55.3819 28.9552 54.5586 28.4608 53.5705C27.9993 52.5496 27.7683 51.3144 27.7679 49.865C27.7674 48.4816 28.0305 47.2957 28.5573 46.3073C29.084 45.3189 29.8249 44.5117 30.7799 43.8855C31.7349 43.2264 32.8712 42.7484 34.1887 42.4515C35.5062 42.1546 36.939 42.0059 38.4872 42.0054C38.9484 42.0053 39.426 42.038 39.9201 42.1038C40.4472 42.1365 40.9413 42.2022 41.4025 42.3009C41.8966 42.3666 42.3084 42.4488 42.6378 42.5476C43.0002 42.6133 43.2472 42.6791 43.379 42.7449L43.3785 41.1638C43.3782 40.2745 43.312 39.4181 43.18 38.5946C43.048 37.7382 42.7513 36.9807 42.2899 36.322C41.8615 35.6304 41.2354 35.0871 40.4118 34.6921C39.6211 34.2642 38.567 34.0504 37.2494 34.0508C35.3718 34.0515 33.9719 34.1837 33.0497 34.4475C32.1274 34.7113 31.4522 34.9256 31.0241 35.0905L30.5785 32.2743C31.1384 32.0106 31.9947 31.7632 33.1475 31.5323C34.3333 31.3013 35.7497 31.1856 37.3967 31.185ZM57.9971 52.7209C58.2936 52.9514 58.6561 53.1984 59.0844 53.4617C59.5456 53.7251 60.0727 53.972 60.6657 54.2024C61.2587 54.4327 61.9011 54.6302 62.5929 54.7946C63.2847 54.9262 64.0094 54.9918 64.767 54.9916C66.3481 54.9911 67.6656 54.7271 68.7195 54.1997C69.8063 53.6394 70.679 52.898 71.3375 51.9754C71.996 51.02 72.4732 49.9163 72.7693 48.6645C73.0653 47.3798 73.2131 46.0292 73.2126 44.6128C73.2115 41.2529 72.3707 38.6839 70.6902 36.9057C69.0097 35.0946 66.786 34.1894 64.019 34.1903C62.4379 34.1909 61.1533 34.2736 60.1652 34.4386C59.21 34.5707 58.4853 34.7192 57.9913 34.884L57.9971 52.7209ZM58.0016 66.4568L54.79 66.4579L54.7789 32.6617C55.7341 32.3319 56.9527 32.0186 58.4349 31.7217C59.9171 31.4247 61.7947 31.2759 64.0675 31.2752C65.9451 31.2745 67.6416 31.5869 69.157 32.2123C70.7054 32.8047 72.0232 33.6772 73.1106 34.8297C74.231 35.9822 75.0879 37.3819 75.6813 39.0287C76.3077 40.6755 76.6212 42.5365 76.6219 44.6117C76.6225 46.5551 76.3596 48.3504 75.8331 49.9976C75.3395 51.6118 74.5989 53.012 73.611 54.1981C72.6232 55.3514 71.4048 56.2576 69.9556 56.9169C68.5394 57.5761 66.909 57.906 65.0644 57.9067C63.3845 57.9072 61.9186 57.6771 60.6667 57.2164C59.4478 56.7227 58.5582 56.2618 57.9981 55.8337L58.0016 66.4568ZM102.962 57.3014C102.006 55.3912 100.951 53.4645 99.7977 51.5215C98.6771 49.5454 97.3753 47.5365 95.8924 45.4948C95.4314 46.0878 94.8388 46.9115 94.1144 47.9658C93.423 49.0201 92.7152 50.1403 91.9909 51.3264C91.2996 52.5124 90.6411 53.6491 90.0156 54.7363C89.3901 55.8235 88.9292 56.6801 88.633 57.306L79.8381 57.3089C81.2865 54.6403 82.9656 51.8399 84.8751 48.9076C86.8176 45.9753 88.9741 42.8618 91.3447 39.5671L80.321 23.0678L89.6594 23.0648L96.3332 33.7351L102.852 23.0605L111.647 23.0576L100.782 39.6628C103.55 43.2524 105.873 46.5785 107.752 49.6413C109.631 52.6712 111.114 55.2235 112.201 57.2984L102.962 57.3014Z" fill="white"/>
<path d="M125.384 56.1964C124.04 56.1969 122.787 55.9567 121.624 55.4759C120.481 54.995 119.478 54.2936 118.616 53.3716C117.773 52.4495 117.101 51.3169 116.6 49.9737C116.118 48.6104 115.877 47.0566 115.876 45.3122C115.876 43.5679 116.136 42.0239 116.657 40.6804C117.198 39.3168 117.909 38.1737 118.791 37.2511C119.673 36.3285 120.695 35.6364 121.858 35.1748C123.021 34.6933 124.234 34.4523 125.497 34.4518C126.279 34.4516 126.991 34.5015 127.632 34.6015C128.274 34.7016 128.835 34.8317 129.317 34.992C129.798 35.1322 130.209 35.2824 130.55 35.4427C130.891 35.5829 131.151 35.7132 131.332 35.8334L130.671 37.6081C130.17 37.3075 129.528 37.017 128.746 36.7365C127.984 36.436 127.031 36.2859 125.888 36.2863C124.585 36.2867 123.442 36.5077 122.46 36.9491C121.498 37.3905 120.686 38.0123 120.025 38.8146C119.363 39.6168 118.862 40.5694 118.522 41.6722C118.201 42.7751 118.041 43.9982 118.042 45.3416C118.042 46.7251 118.203 47.9782 118.524 49.1009C118.865 50.2035 119.357 51.1457 119.999 51.9275C120.641 52.7092 121.423 53.3105 122.345 53.7312C123.288 54.152 124.36 54.3622 125.564 54.3618C126.887 54.3614 127.99 54.2407 128.872 53.9998C129.774 53.7388 130.456 53.478 130.917 53.2172L131.489 54.9614C131.348 55.0617 131.108 55.182 130.767 55.3225C130.426 55.4429 129.995 55.5734 129.474 55.7139C128.953 55.8544 128.351 55.9649 127.669 56.0453C126.988 56.1458 126.226 56.1962 125.384 56.1964ZM139.831 54.3271C140.592 54.3268 141.254 54.3065 141.816 54.2663C142.397 54.2059 142.888 54.1356 143.289 54.0552L143.287 48.5815C143.067 48.4813 142.716 48.3812 142.235 48.2811C141.753 48.161 141.092 48.101 140.25 48.1013C139.768 48.1015 139.267 48.1417 138.746 48.2221C138.225 48.2824 137.743 48.4329 137.302 48.6737C136.861 48.8944 136.501 49.2053 136.22 49.6064C135.939 50.0075 135.799 50.5389 135.799 51.2005C135.8 51.782 135.89 52.2732 136.071 52.6741C136.271 53.0751 136.542 53.3958 136.883 53.6363C137.244 53.8768 137.665 54.0571 138.146 54.1772C138.648 54.2773 139.209 54.3273 139.831 54.3271ZM139.645 39.8307C140.668 39.8304 141.53 39.9805 142.232 40.281C142.954 40.5615 143.535 40.9623 143.977 41.4835C144.418 41.9846 144.739 42.586 144.94 43.2877C145.141 43.9894 145.241 44.7513 145.241 45.5733L145.244 55.3779C145.044 55.4381 144.753 55.5084 144.372 55.5887C143.991 55.649 143.55 55.7193 143.049 55.7997C142.548 55.8801 141.986 55.9404 141.365 55.9807C140.763 56.041 140.142 56.0713 139.5 56.0715C138.678 56.0718 137.916 55.9818 137.214 55.8016C136.533 55.6214 135.931 55.3409 135.41 54.9601C134.908 54.5592 134.507 54.0581 134.206 53.4567C133.925 52.8352 133.785 52.0834 133.784 51.2012C133.784 50.3591 133.944 49.6372 134.265 49.0356C134.585 48.434 135.036 47.9426 135.618 47.5614C136.199 47.1603 136.891 46.8693 137.693 46.6886C138.495 46.5079 139.367 46.4174 140.309 46.417C140.59 46.417 140.881 46.4369 141.181 46.4769C141.502 46.4969 141.803 46.5369 142.084 46.5969C142.384 46.6369 142.635 46.687 142.836 46.7471C143.056 46.7871 143.207 46.8271 143.287 46.8672L143.286 45.9048C143.286 45.3634 143.246 44.8421 143.166 44.3409C143.085 43.8196 142.905 43.3585 142.624 42.9576C142.363 42.5366 141.982 42.2059 141.481 41.9655C140.999 41.705 140.358 41.5749 139.556 41.5751C138.413 41.5755 137.561 41.656 136.999 41.8166C136.438 41.9772 136.027 42.1076 135.766 42.208L135.495 40.4938C135.836 40.3332 136.357 40.1827 137.059 40.0421C137.781 39.9015 138.643 39.8311 139.645 39.8307ZM155.519 39.8857C156.16 39.8855 156.762 39.9354 157.323 40.0355C157.905 40.1356 158.306 40.2357 158.527 40.3359L158.136 42.0202C157.976 41.9401 157.645 41.86 157.144 41.7799C156.662 41.6798 156.021 41.6299 155.219 41.6302C154.377 41.6305 153.695 41.6908 153.174 41.8113C152.672 41.9318 152.342 42.0321 152.181 42.1124L152.186 55.7366L150.231 55.7372L150.226 40.91C150.727 40.6893 151.419 40.4685 152.301 40.2477C153.183 40.0068 154.256 39.8861 155.519 39.8857ZM173.841 55.2483C173.259 55.449 172.517 55.6397 171.615 55.8205C170.713 56.0012 169.57 56.0918 168.187 56.0923C167.044 56.0926 166.001 55.9125 165.059 55.5519C164.136 55.1713 163.334 54.6302 162.652 53.9286C161.99 53.2271 161.469 52.3751 161.087 51.3727C160.726 50.3703 160.545 49.2375 160.545 47.9744C160.544 46.7914 160.694 45.7086 160.995 44.7261C161.315 43.7235 161.776 42.8611 162.378 42.1391C162.979 41.4171 163.71 40.8555 164.572 40.4542C165.455 40.0529 166.457 39.8521 167.58 39.8517C168.602 39.8514 169.485 40.0015 170.227 40.302C170.989 40.5824 171.54 40.8529 171.881 41.1135L171.878 32.7525L173.833 32.3909L173.841 55.2483ZM171.882 43.0082C171.701 42.8679 171.471 42.7176 171.19 42.5573C170.929 42.397 170.618 42.2467 170.257 42.1065C169.896 41.9663 169.505 41.8561 169.084 41.776C168.663 41.6759 168.222 41.6259 167.761 41.6261C166.798 41.6264 165.986 41.7971 165.325 42.1382C164.683 42.4792 164.162 42.9406 163.761 43.5222C163.361 44.0837 163.07 44.7555 162.89 45.5375C162.71 46.2995 162.62 47.1115 162.62 47.9737C162.621 50.0188 163.133 51.5926 164.155 52.695C165.178 53.7774 166.532 54.3183 168.216 54.3178C169.179 54.3175 169.95 54.2771 170.532 54.1967C171.133 54.0963 171.584 53.9959 171.885 53.8955L171.882 43.0082Z" fill="white"/>
<path d="M111.258 8.27325C110.301 8.29884 109.495 7.57542 109.384 6.61927C109.253 5.49439 110.118 4.51047 111.229 4.50495C121.082 4.35803 129.725 11.2017 131.83 20.8186C132.071 21.9117 131.301 22.9702 130.194 23.0987C129.238 23.2097 128.347 22.5722 128.142 21.6269C126.419 13.7422 119.325 8.12478 111.258 8.27325Z" fill="white"/>
<path d="M112.068 15.8269C111.132 15.7837 110.368 15.0934 110.262 14.1747C110.129 13.0311 111.007 12.0075 112.144 12.056C117.816 12.3092 122.723 16.195 124.259 21.6504C124.575 22.7347 123.772 23.8351 122.647 23.9657L122.628 23.9679C121.71 24.0746 120.871 23.4785 120.606 22.5877C119.487 18.7561 116.055 16.0385 112.068 15.8269Z" fill="white"/>
</svg>
