<svg width="177" height="67" viewBox="0 0 177 67" fill="none" xmlns="http://www.w3.org/2000/svg">
<path d="M26.2138 23.0855L26.2147 26.0007L15.2458 26.0043L15.256 57.33L11.8961 57.3311L11.8859 26.0053L0.916947 26.0089L0.915996 23.0938L26.2138 23.0855ZM37.7204 55.0004C38.9721 55 40.0591 54.9667 40.9814 54.9005C41.9366 54.8014 42.7436 54.6858 43.4024 54.5539L43.3995 45.5613C43.0371 45.3967 42.4606 45.2322 41.67 45.0678C40.8793 44.8704 39.7923 44.7719 38.4088 44.7724C37.6183 44.7726 36.7948 44.8388 35.9384 44.9708C35.082 45.0699 34.2915 45.3172 33.567 45.7127C32.8424 46.0753 32.2497 46.5861 31.7887 47.245C31.3278 47.904 31.0975 48.7769 31.0978 49.864C31.0982 50.8192 31.2466 51.6262 31.5433 52.2849C31.8729 52.9436 32.3178 53.4705 32.8779 53.8656C33.4709 54.2606 34.1628 54.5569 34.9534 54.7543C35.7769 54.9187 36.6993 55.0007 37.7204 55.0004ZM37.4162 31.185C39.0961 31.1845 40.5126 31.4311 41.6657 31.9248C42.8516 32.3856 43.8071 33.044 44.5321 33.9002C45.257 34.7235 45.7844 35.7115 46.1141 36.8643C46.4439 38.0171 46.609 39.2688 46.6095 40.6193L46.6147 56.7268C46.2854 56.8258 45.8078 56.9412 45.182 57.0732C44.5561 57.1722 43.8315 57.2877 43.008 57.4198C42.1846 57.5518 41.2623 57.6509 40.2412 57.7171C39.253 57.8163 38.2319 57.866 37.1778 57.8663C35.8273 57.8668 34.5756 57.719 33.4226 57.4229C32.3025 57.1268 31.3142 56.666 30.4575 56.0404C29.6338 55.3819 28.9748 54.5586 28.4803 53.5705C28.0188 52.5496 27.7879 51.3144 27.7874 49.865C27.7869 48.4816 28.0501 47.2957 28.5768 46.3073C29.1035 45.3189 29.8444 44.5117 30.7994 43.8855C31.7545 43.2264 32.8907 42.7484 34.2082 42.4515C35.5257 42.1546 36.9586 42.0059 38.5067 42.0054C38.9679 42.0053 39.4455 42.038 39.9396 42.1038C40.4667 42.1365 40.9608 42.2022 41.422 42.3009C41.9161 42.3666 42.3279 42.4488 42.6573 42.5476C43.0197 42.6133 43.2668 42.6791 43.3985 42.7449L43.398 41.1638C43.3977 40.2745 43.3316 39.4181 43.1995 38.5946C43.0675 37.7382 42.7708 36.9807 42.3094 36.322C41.881 35.6304 41.2549 35.0871 40.4313 34.6921C39.6406 34.2642 38.5865 34.0504 37.2689 34.0508C35.3913 34.0515 33.9914 34.1837 33.0692 34.4475C32.147 34.7113 31.4718 34.9256 31.0436 35.0905L30.598 32.2743C31.1579 32.0106 32.0143 31.7632 33.1671 31.5323C34.3528 31.3013 35.7692 31.1856 37.4162 31.185ZM58.0166 52.7209C58.3132 52.9514 58.6756 53.1984 59.1039 53.4617C59.5651 53.7251 60.0922 53.972 60.6852 54.2024C61.2782 54.4327 61.9206 54.6302 62.6124 54.7946C63.3042 54.9262 64.0289 54.9918 64.7865 54.9916C66.3676 54.9911 67.6851 54.7271 68.739 54.1997C69.8259 53.6394 70.6985 52.898 71.357 51.9754C72.0155 51.02 72.4928 49.9163 72.7888 48.6645C73.0848 47.3798 73.2326 46.0292 73.2322 44.6128C73.2311 41.2529 72.3903 38.6839 70.7098 36.9057C69.0292 35.0946 66.8055 34.1894 64.0386 34.1903C62.4575 34.1909 61.1728 34.2736 60.1847 34.4386C59.2295 34.5707 58.5049 34.7192 58.0108 34.884L58.0166 52.7209ZM58.0211 66.4568L54.8095 66.4579L54.7985 32.6617C55.7536 32.3319 56.9723 32.0186 58.4545 31.7217C59.9367 31.4247 61.8142 31.2759 64.087 31.2752C65.9646 31.2745 67.6611 31.5869 69.1765 32.2123C70.7249 32.8047 72.0428 33.6772 73.1302 34.8297C74.2505 35.9822 75.1074 37.3819 75.7008 39.0287C76.3272 40.6755 76.6408 42.5365 76.6414 44.6117C76.6421 46.5551 76.3791 48.3504 75.8526 49.9976C75.3591 51.6118 74.6184 53.012 73.6306 54.1981C72.6428 55.3514 71.4243 56.2576 69.9751 56.9169C68.559 57.5761 66.9285 57.906 65.0839 57.9067C63.404 57.9072 61.9381 57.6771 60.6862 57.2164C59.4673 56.7227 58.5778 56.2618 58.0176 55.8337L58.0211 66.4568ZM102.981 57.3014C102.025 55.3912 100.971 53.4645 99.8172 51.5215C98.6966 49.5454 97.3949 47.5365 95.9119 45.4948C95.4509 46.0878 94.8583 46.9115 94.134 47.9658C93.4426 49.0201 92.7347 50.1403 92.0104 51.3264C91.3191 52.5124 90.6607 53.6491 90.0352 54.7363C89.4097 55.8235 88.9488 56.6801 88.6525 57.306L79.8576 57.3089C81.3061 54.6403 82.9851 51.8399 84.8946 48.9076C86.8371 45.9753 88.9937 42.8618 91.3643 39.5671L80.3405 23.0678L89.679 23.0648L96.3527 33.7351L102.871 23.0605L111.666 23.0576L100.802 39.6628C103.57 43.2524 105.893 46.5785 107.772 49.6413C109.65 52.6712 111.133 55.2235 112.221 57.2984L102.981 57.3014Z" fill="black"/>
<path d="M125.403 56.1964C124.06 56.1969 122.807 55.9567 121.644 55.4759C120.501 54.995 119.498 54.2936 118.635 53.3716C117.793 52.4495 117.121 51.3169 116.619 49.9737C116.137 48.6104 115.896 47.0566 115.896 45.3122C115.895 43.5679 116.155 42.0239 116.676 40.6804C117.217 39.3168 117.929 38.1737 118.81 37.2511C119.692 36.3285 120.715 35.6364 121.878 35.1748C123.04 34.6933 124.253 34.4523 125.516 34.4518C126.298 34.4516 127.01 34.5015 127.652 34.6015C128.293 34.7016 128.855 34.8317 129.336 34.992C129.817 35.1322 130.228 35.2824 130.569 35.4427C130.91 35.5829 131.171 35.7132 131.351 35.8334L130.69 37.6081C130.189 37.3075 129.547 37.017 128.765 36.7365C128.003 36.436 127.051 36.2859 125.908 36.2863C124.605 36.2867 123.462 36.5077 122.48 36.9491C121.517 37.3905 120.705 38.0123 120.044 38.8146C119.383 39.6168 118.882 40.5694 118.541 41.6722C118.221 42.7751 118.061 43.9982 118.061 45.3416C118.062 46.7251 118.223 47.9782 118.544 49.1009C118.885 50.2035 119.376 51.1457 120.018 51.9275C120.66 52.7092 121.442 53.3105 122.365 53.7312C123.307 54.152 124.38 54.3622 125.583 54.3618C126.906 54.3614 128.009 54.2407 128.891 53.9998C129.793 53.7388 130.475 53.478 130.936 53.2172L131.508 54.9614C131.368 55.0617 131.127 55.182 130.786 55.3225C130.446 55.4429 130.015 55.5734 129.493 55.7139C128.972 55.8544 128.371 55.9649 127.689 56.0453C127.007 56.1458 126.245 56.1962 125.403 56.1964ZM139.85 54.3271C140.612 54.3268 141.274 54.3065 141.835 54.2663C142.416 54.2059 142.908 54.1356 143.309 54.0552L143.307 48.5815C143.086 48.4813 142.735 48.3812 142.254 48.2811C141.773 48.161 141.111 48.101 140.269 48.1013C139.788 48.1015 139.287 48.1417 138.765 48.2221C138.244 48.2824 137.763 48.4329 137.322 48.6737C136.881 48.8944 136.52 49.2053 136.239 49.6064C135.959 50.0075 135.819 50.5389 135.819 51.2005C135.819 51.782 135.91 52.2732 136.09 52.6741C136.291 53.0751 136.562 53.3958 136.902 53.6363C137.263 53.8768 137.685 54.0571 138.166 54.1772C138.667 54.2773 139.229 54.3273 139.85 54.3271ZM139.665 39.8307C140.687 39.8304 141.55 39.9805 142.252 40.281C142.973 40.5615 143.555 40.9623 143.996 41.4835C144.438 41.9846 144.759 42.586 144.959 43.2877C145.16 43.9894 145.261 44.7513 145.261 45.5733L145.264 55.3779C145.064 55.4381 144.773 55.5084 144.392 55.5887C144.011 55.649 143.57 55.7193 143.069 55.7997C142.567 55.8801 142.006 55.9404 141.384 55.9807C140.783 56.041 140.161 56.0713 139.52 56.0715C138.698 56.0718 137.936 55.9818 137.234 55.8016C136.552 55.6214 135.951 55.3409 135.429 54.9601C134.928 54.5592 134.527 54.0581 134.226 53.4567C133.945 52.8352 133.804 52.0834 133.804 51.2012C133.804 50.3591 133.964 49.6372 134.284 49.0356C134.605 48.434 135.056 47.9426 135.637 47.5614C136.219 47.1603 136.91 46.8693 137.712 46.6886C138.514 46.5079 139.386 46.4174 140.329 46.417C140.609 46.417 140.9 46.4369 141.201 46.4769C141.522 46.4969 141.822 46.5369 142.103 46.5969C142.404 46.6369 142.655 46.687 142.855 46.7471C143.076 46.7871 143.226 46.8271 143.306 46.8672L143.306 45.9048C143.306 45.3634 143.266 44.8421 143.185 44.3409C143.105 43.8196 142.924 43.3585 142.643 42.9576C142.383 42.5366 142.002 42.2059 141.5 41.9655C141.019 41.705 140.377 41.5749 139.575 41.5751C138.432 41.5755 137.58 41.656 137.019 41.8166C136.458 41.9772 136.047 42.1076 135.786 42.208L135.515 40.4938C135.856 40.3332 136.377 40.1827 137.078 40.0421C137.8 39.9015 138.662 39.8311 139.665 39.8307ZM155.538 39.8857C156.18 39.8855 156.782 39.9354 157.343 40.0355C157.924 40.1356 158.326 40.2357 158.546 40.3359L158.156 42.0202C157.995 41.9401 157.664 41.86 157.163 41.7799C156.682 41.6798 156.04 41.6299 155.238 41.6302C154.396 41.6305 153.714 41.6908 153.193 41.8113C152.692 41.9318 152.361 42.0321 152.201 42.1124L152.205 55.7366L150.25 55.7372L150.245 40.91C150.747 40.6893 151.438 40.4685 152.32 40.2477C153.203 40.0068 154.275 39.8861 155.538 39.8857ZM173.86 55.2483C173.279 55.449 172.537 55.6397 171.635 55.8205C170.732 56.0012 169.59 56.0918 168.206 56.0923C167.063 56.0926 166.021 55.9125 165.078 55.5519C164.156 55.1713 163.354 54.6302 162.672 53.9286C162.01 53.2271 161.488 52.3751 161.107 51.3727C160.746 50.3703 160.565 49.2375 160.564 47.9744C160.564 46.7914 160.714 45.7086 161.014 44.7261C161.335 43.7235 161.796 42.8611 162.397 42.1391C162.998 41.4171 163.73 40.8555 164.592 40.4542C165.474 40.0529 166.477 39.8521 167.599 39.8517C168.622 39.8514 169.504 40.0015 170.246 40.302C171.008 40.5824 171.56 40.8529 171.901 41.1135L171.898 32.7525L173.853 32.3909L173.86 55.2483ZM171.901 43.0082C171.721 42.8679 171.49 42.7176 171.209 42.5573C170.949 42.397 170.638 42.2467 170.277 42.1065C169.916 41.9663 169.525 41.8561 169.104 41.776C168.683 41.6759 168.242 41.6259 167.78 41.6261C166.818 41.6264 166.006 41.7971 165.344 42.1382C164.703 42.4792 164.182 42.9406 163.781 43.5222C163.38 44.0837 163.09 44.7555 162.909 45.5375C162.729 46.2995 162.639 47.1115 162.64 47.9737C162.64 50.0188 163.152 51.5926 164.175 52.695C165.198 53.7774 166.551 54.3183 168.236 54.3178C169.198 54.3175 169.97 54.2771 170.551 54.1967C171.153 54.0963 171.604 53.9959 171.905 53.8955L171.901 43.0082Z" fill="black"/>
<path d="M111.277 8.27325C110.321 8.29884 109.515 7.57542 109.404 6.61927C109.273 5.49439 110.137 4.51047 111.248 4.50495C121.102 4.35803 129.744 11.2017 131.849 20.8186C132.09 21.9117 131.32 22.9702 130.214 23.0987C129.258 23.2097 128.367 22.5722 128.162 21.6269C126.439 13.7422 119.345 8.12478 111.277 8.27325Z" fill="black"/>
<path d="M112.088 15.8269C111.152 15.7837 110.388 15.0934 110.281 14.1747C110.148 13.0311 111.027 12.0075 112.163 12.056C117.836 12.3092 122.743 16.195 124.279 21.6504C124.595 22.7347 123.792 23.8351 122.667 23.9657L122.648 23.9679C121.729 24.0746 120.891 23.4785 120.626 22.5877C119.506 18.7561 116.074 16.0385 112.088 15.8269Z" fill="black"/>
</svg>
