<svg width="32" height="32" viewBox="0 0 32 32" fill="none" xmlns="http://www.w3.org/2000/svg">
<g clip-path="url(#clip0_301_2440)">
<path d="M16 32C24.8366 32 32 24.8366 32 16C32 7.16344 24.8366 0 16 0C7.16344 0 0 7.16344 0 16C0 24.8366 7.16344 32 16 32Z" fill="#FEC807"/>
<path fill-rule="evenodd" clip-rule="evenodd" d="M24.9838 17.631H20.0558L19.1758 14.991H24.9758C25.1741 14.991 25.3644 14.9122 25.5047 14.7719C25.645 14.6317 25.7238 14.4414 25.7238 14.243C25.7238 14.0446 25.645 13.8544 25.5047 13.7141C25.3644 13.5738 25.1741 13.495 24.9758 13.495H18.6998L16.1828 5.82203C16.1508 5.56853 16.0296 5.33471 15.8408 5.16256C15.652 4.99042 15.408 4.89122 15.1526 4.88279C14.8973 4.87436 14.6472 4.95724 14.4475 5.11656C14.2477 5.27587 14.1113 5.50118 14.0628 5.75203L8.04276 24.055C8.02676 24.155 8.02676 24.255 8.04276 24.355C8.04693 24.5989 8.13904 24.8331 8.30213 25.0144C8.46522 25.1958 8.68833 25.3121 8.9304 25.3421C9.17246 25.372 9.41719 25.3135 9.61956 25.1774C9.82192 25.0412 9.9683 24.8365 10.0318 24.601L15.0828 9.20103L16.5258 13.495H15.2758C15.0774 13.495 14.8871 13.5738 14.7468 13.7141C14.6066 13.8544 14.5278 14.0446 14.5278 14.243C14.5278 14.4414 14.6066 14.6317 14.7468 14.7719C14.8871 14.9122 15.0774 14.991 15.2758 14.991H17.0358L17.9158 17.631H15.2758C15.1775 17.631 15.0803 17.6504 14.9895 17.688C14.8988 17.7256 14.8163 17.7807 14.7468 17.8501C14.6774 17.9196 14.6223 18.002 14.5847 18.0928C14.5471 18.1835 14.5278 18.2808 14.5278 18.379C14.5278 18.4773 14.5471 18.5745 14.5847 18.6653C14.6223 18.756 14.6774 18.8385 14.7468 18.9079C14.8163 18.9774 14.8988 19.0325 14.9895 19.0701C15.0803 19.1077 15.1775 19.127 15.2758 19.127H18.4358L19.8608 23.351H12.3018C12.0217 23.351 11.7531 23.4623 11.5551 23.6603C11.357 23.8584 11.2458 24.127 11.2458 24.407C11.2458 24.6871 11.357 24.9557 11.5551 25.1537C11.7531 25.3518 12.0217 25.463 12.3018 25.463H21.2428C21.7968 25.463 22.2458 25.014 22.2458 24.46C22.2463 24.308 22.2132 24.1577 22.1488 24.02L20.5388 19.127H24.9388C25.037 19.127 25.1343 19.1077 25.225 19.0701C25.3158 19.0325 25.3982 18.9774 25.4677 18.9079C25.5371 18.8385 25.5922 18.756 25.6298 18.6653C25.6674 18.5745 25.6868 18.4773 25.6868 18.379C25.6868 18.2808 25.6674 18.1835 25.6298 18.0928C25.5922 18.002 25.5371 17.9196 25.4677 17.8501C25.3982 17.7807 25.3158 17.7256 25.225 17.688C25.1343 17.6504 25.037 17.631 24.9388 17.631H24.9828H24.9838Z" fill="white"/>
</g>
<defs>
<clipPath id="clip0_301_2440">
<rect width="32" height="32" fill="white"/>
</clipPath>
</defs>
</svg>
