<svg width="32" height="32" viewBox="0 0 32 32" fill="none" xmlns="http://www.w3.org/2000/svg">
<g clip-path="url(#clip0_301_2027)">
<path d="M16 32C24.8366 32 32 24.8366 32 16C32 7.16344 24.8366 0 16 0C7.16344 0 0 7.16344 0 16C0 24.8366 7.16344 32 16 32Z" fill="#77C3B0"/>
<path d="M25.6781 13.2829L23.9901 11.5949C23.7364 11.34 23.4347 11.138 23.1023 11.0007C22.77 10.8633 22.4137 10.7934 22.0541 10.7949H21.7941V10.5249C21.7941 10.0519 21.6821 9.60191 21.4461 9.19691C21.3246 8.96203 21.1647 8.7491 20.9731 8.56691L19.2851 6.87791C19.0313 6.62287 18.7294 6.42082 18.3969 6.28348C18.0644 6.14614 17.7078 6.07627 17.3481 6.07791H9.57008C8.83808 6.07791 8.15208 6.35991 7.63408 6.87791L5.94608 8.56591C5.69045 8.81672 5.48788 9.1164 5.35045 9.44711C5.21301 9.77781 5.14351 10.1328 5.14608 10.4909L5.10108 17.7859C5.09108 18.5169 5.38308 19.2259 5.90108 19.7439L7.58908 21.4329C7.84277 21.6877 8.14455 21.8895 8.4769 22.0267C8.80925 22.1638 9.16554 22.2336 9.52508 22.2319H9.82908V22.5019C9.82908 22.9749 9.94208 23.4249 10.1781 23.8299C10.3021 24.0669 10.4591 24.2799 10.6511 24.4599L12.3391 26.1499C12.593 26.4043 12.8949 26.6058 13.2272 26.7428C13.5595 26.8797 13.9157 26.9495 14.2751 26.9479H22.0651C22.7971 26.9479 23.4831 26.6669 24.0011 26.1489L25.6901 24.4609C25.9446 24.207 26.1462 23.9052 26.2834 23.5729C26.4205 23.2406 26.4904 22.8844 26.4891 22.5249V15.2079C26.4872 14.8496 26.4146 14.4951 26.2757 14.1648C26.1367 13.8345 25.934 13.5348 25.6791 13.2829H25.6781ZM9.52508 19.7549C9.45364 19.755 9.38503 19.727 9.33408 19.6769L8.49008 18.8319L7.64508 17.9879C7.60883 17.9453 7.58191 17.8956 7.56608 17.8419V10.5029C7.56608 10.4229 7.60008 10.3559 7.64608 10.3109L9.33408 8.62291C9.35608 8.59991 9.37908 8.58891 9.40108 8.57791C9.44279 8.55615 9.48904 8.5445 9.53608 8.54391H17.3261C17.3711 8.54391 17.4051 8.55491 17.4501 8.57791C17.4841 8.58891 17.5061 8.61191 17.5291 8.63391L19.2171 10.3229C19.2417 10.344 19.261 10.3708 19.2731 10.4009C19.2851 10.4129 19.2851 10.4239 19.2851 10.4349C19.2851 10.4459 19.2951 10.4579 19.2951 10.4689C19.2951 10.4799 19.3071 10.5139 19.3071 10.5359V10.8959C19.3071 11.0539 19.1831 11.1659 19.0371 11.1659H17.6871C17.6153 11.1663 17.5463 11.1382 17.4951 11.0879L16.7291 10.3229H10.1331L9.85208 10.6029L9.46908 10.9869V17.3239L10.1331 17.9879H16.7181L17.4841 17.2119L17.4941 17.1999C17.5171 17.1889 17.5401 17.1659 17.5621 17.1549C17.5961 17.1329 17.6421 17.1329 17.6751 17.1329H19.0251C19.1151 17.1329 19.1951 17.1779 19.2511 17.2449C19.2861 17.2903 19.3057 17.3456 19.3071 17.4029V17.7859C19.3069 17.8575 19.2785 17.9261 19.2281 17.9769L18.3841 18.8209L17.5401 19.6649C17.5291 19.6769 17.5061 19.6879 17.4951 19.6989C17.4951 19.6989 17.4841 19.7099 17.4721 19.7099C17.4611 19.7219 17.4501 19.7219 17.4381 19.7219C17.4281 19.7219 17.4281 19.7219 17.4161 19.7329C17.4051 19.7329 17.3931 19.7439 17.3821 19.7439H9.52508V19.7549ZM24.0241 22.5019C24.0236 22.5736 23.9949 22.6423 23.9441 22.6929L22.2561 24.3819C22.2365 24.4006 22.2138 24.4158 22.1891 24.4269C22.1474 24.4487 22.1011 24.4603 22.0541 24.4609H14.2641C14.2205 24.4603 14.1779 24.4486 14.1401 24.4269C14.11 24.4148 14.0832 24.3956 14.0621 24.3709L12.3731 22.6819C12.3511 22.6599 12.3281 22.6369 12.3171 22.6029C12.3051 22.5929 12.3051 22.5809 12.3051 22.5699C12.3051 22.5579 12.2951 22.5469 12.2951 22.5359C12.2951 22.5249 12.2831 22.4909 12.2831 22.4679V22.1079C12.2831 21.9509 12.4071 21.8379 12.5531 21.8379H13.9031C13.9831 21.8379 14.0501 21.8719 14.0951 21.9169L14.8611 22.6819H21.4461L21.7271 22.4009L22.1101 22.0179V15.6809L21.4461 15.0159H14.8721L14.1071 15.7929L14.0951 15.8039C14.0731 15.8159 14.0501 15.8379 14.0281 15.8489C13.9941 15.8719 13.9491 15.8719 13.9151 15.8719H12.5651C12.5214 15.8711 12.4784 15.8605 12.4393 15.8409C12.4002 15.8214 12.366 15.7934 12.3391 15.7589C12.3043 15.7138 12.2847 15.6589 12.2831 15.6019V15.2189C12.2831 15.1834 12.29 15.1483 12.3036 15.1156C12.3171 15.0828 12.337 15.053 12.3621 15.0279L13.2061 14.1839L14.0501 13.3389C14.0621 13.3279 14.0841 13.3169 14.0951 13.3049C14.0951 13.3049 14.1071 13.2949 14.1181 13.2949C14.1291 13.2829 14.1401 13.2829 14.1521 13.2829C14.1621 13.2829 14.1621 13.2829 14.1741 13.2719C14.1851 13.2719 14.1971 13.2599 14.2081 13.2599H22.0541C22.1321 13.2599 22.2001 13.2939 22.2451 13.3399L23.0891 14.1839L23.9341 15.0279C23.9441 15.0389 23.9561 15.0499 23.9671 15.0729C23.987 15.1042 24.0022 15.1382 24.0121 15.1739V15.2299C24.0241 15.2079 24.0241 22.5019 24.0241 22.5019Z" fill="white"/>
</g>
<defs>
<clipPath id="clip0_301_2027">
<rect width="32" height="32" fill="white"/>
</clipPath>
</defs>
</svg>
