<svg width="32" height="32" viewBox="0 0 32 32" fill="none" xmlns="http://www.w3.org/2000/svg">
<g clip-path="url(#clip0_301_1992)">
<path d="M16 32C24.8366 32 32 24.8366 32 16C32 7.16344 24.8366 0 16 0C7.16344 0 0 7.16344 0 16C0 24.8366 7.16344 32 16 32Z" fill="black"/>
<path d="M15.8969 4.39808C15.7509 4.06808 16.2788 3.83408 16.4248 4.14808C19.8568 10.0601 23.2889 15.9751 26.7209 21.8961C26.5379 21.8961 26.3619 21.8361 26.1859 21.8081L17.0258 19.9821C16.7258 19.9671 16.6598 19.4821 16.9528 19.4101L20.5469 18.4201C20.5897 18.4092 20.6296 18.389 20.6637 18.361C20.6978 18.3329 20.7254 18.2976 20.7443 18.2577C20.7632 18.2178 20.773 18.1741 20.7731 18.13C20.7732 18.0858 20.7636 18.0421 20.7449 18.0021L15.8969 4.39008V4.39708V4.39808Z" fill="white"/>
<path d="M15.37 4.42798C15.403 4.47598 15.432 4.52798 15.457 4.58198C16.543 7.66198 17.657 10.742 18.735 13.822C18.831 14.078 18.471 14.291 18.295 14.1C17.371 13.132 16.491 12.135 15.582 11.167C15.435 11.035 15.222 11.123 15.127 11.262L5.682 22.358C5.572 22.475 5.477 22.651 5.293 22.673C5.161 22.673 5.073 22.57 5 22.468V22.298C8.461 16.344 11.918 10.388 15.37 4.42798Z" fill="white"/>
<path d="M12.4799 14.9951C12.6559 14.9441 12.8899 15.0681 12.8319 15.2811C12.4649 16.5571 12.0769 17.8261 11.6949 19.0941C11.6369 19.2561 11.7829 19.4021 11.9369 19.4101C16.8799 20.4001 21.8229 21.4261 26.7649 22.4161C26.8609 22.4311 26.9269 22.5041 26.9999 22.5631V22.7681L26.8599 22.9151H5.87988C8.07988 20.2751 10.2729 17.6201 12.4799 14.9951Z" fill="white"/>
</g>
<defs>
<clipPath id="clip0_301_1992">
<rect width="32" height="32" fill="white"/>
</clipPath>
</defs>
</svg>
