<svg width="32" height="32" viewBox="0 0 32 32" fill="none" xmlns="http://www.w3.org/2000/svg">
<g clip-path="url(#clip0_301_1966)">
<path d="M16 32C24.8366 32 32 24.8366 32 16C32 7.16344 24.8366 0 16 0C7.16344 0 0 7.16344 0 16C0 24.8366 7.16344 32 16 32Z" fill="#E9570F"/>
<path d="M24.14 9.91393L25.747 8.31993C26.127 7.94393 26.048 7.25593 25.573 6.78493C25.098 6.31293 24.403 6.23593 24.024 6.61293L21.008 9.60293L20.905 9.70593L18.277 12.3109C17.4035 11.681 16.3351 11.3806 15.2612 11.463C14.1874 11.5453 13.1773 12.0051 12.41 12.7609C11.649 13.5148 11.1845 14.5171 11.1011 15.585C11.0178 16.6529 11.3212 17.7152 11.956 18.5779L9.95004 20.5679C9.42972 19.8745 9.02794 19.0997 8.76104 18.2749C8.08804 16.2369 8.26904 14.0049 9.36104 12.1649C11.064 9.29493 14.111 8.04693 16.999 8.41293C17.1445 8.43331 17.2925 8.42355 17.434 8.38423C17.5755 8.34491 17.7074 8.27689 17.8215 8.1844C17.9356 8.09191 18.0294 7.97692 18.0971 7.84661C18.1648 7.71629 18.2049 7.57343 18.215 7.42693C18.234 7.09078 18.1225 6.76029 17.9038 6.50432C17.6851 6.24835 17.376 6.08665 17.041 6.05293C14.14 5.75593 11.141 6.70293 8.92604 8.89893C5.25604 12.5369 5.04104 18.3079 8.26604 22.2369L6.42604 24.0619C6.06304 24.4219 6.15304 25.0969 6.62904 25.5679C7.10404 26.0389 7.78404 26.1299 8.14704 25.7699L10.128 23.8059H10.129L11.561 22.3859L11.564 22.3819L13.886 20.0799C14.7117 20.4162 15.6179 20.503 16.4924 20.3296C17.3669 20.1561 18.1713 19.73 18.806 19.1039C19.4362 18.4805 19.8664 17.6834 20.0419 16.8145C20.2173 15.9456 20.13 15.0441 19.791 14.2249L22.425 11.6139C24.356 14.5219 23.973 18.5479 21.315 21.1819C20.5158 21.9782 19.5549 22.5937 18.4974 22.9868C17.4399 23.38 16.3104 23.5417 15.185 23.4609C14.9317 23.4464 14.6826 23.5309 14.4904 23.6966C14.2982 23.8623 14.178 24.0962 14.155 24.3489L14.127 24.6689C14.1145 24.8089 14.1304 24.95 14.174 25.0836C14.2176 25.2172 14.2878 25.3406 14.3805 25.4462C14.4731 25.5519 14.5863 25.6376 14.7131 25.6982C14.8398 25.7589 14.9776 25.7931 15.118 25.7989C16.5606 25.8763 18.0033 25.6496 19.3525 25.1335C20.7018 24.6174 21.9275 23.8233 22.95 22.8029C26.547 19.2359 26.963 13.7419 24.14 9.91293V9.91393ZM17.139 17.4489C16.7312 17.8508 16.1816 18.076 15.609 18.076C15.0365 18.076 14.4869 17.8508 14.079 17.4489C13.8787 17.2504 13.7197 17.0142 13.6112 16.7539C13.5027 16.4936 13.4469 16.2144 13.4469 15.9324C13.4469 15.6504 13.5027 15.3712 13.6112 15.1109C13.7197 14.8506 13.8787 14.6144 14.079 14.4159C14.4868 14.0138 15.0364 13.7884 15.609 13.7884C16.1817 13.7884 16.7313 14.0138 17.139 14.4159C17.3393 14.6144 17.4983 14.8506 17.6068 15.1109C17.7154 15.3712 17.7712 15.6504 17.7712 15.9324C17.7712 16.2144 17.7154 16.4936 17.6068 16.7539C17.4983 17.0142 17.3393 17.2504 17.139 17.4489Z" fill="white"/>
</g>
<defs>
<clipPath id="clip0_301_1966">
<rect width="32" height="32" fill="white"/>
</clipPath>
</defs>
</svg>
