<svg width="32" height="32" viewBox="0 0 32 32" fill="none" xmlns="http://www.w3.org/2000/svg">
<g clip-path="url(#clip0_301_1962)">
<path d="M16 32C24.8366 32 32 24.8366 32 16C32 7.16344 24.8366 0 16 0C7.16344 0 0 7.16344 0 16C0 24.8366 7.16344 32 16 32Z" fill="#5BC1D4"/>
<path fill-rule="evenodd" clip-rule="evenodd" d="M13.785 16.9279L12.135 18.6519C11.838 18.9619 11.547 19.2749 11.249 19.5829C11.199 19.6349 11.128 19.6659 11.067 19.7069C10.937 19.6859 10.837 19.6049 10.82 19.4869C10.7924 19.3073 10.7677 19.1273 10.746 18.9469C10.716 18.7089 10.643 18.6429 10.402 18.6129C9.905 18.5529 9.409 18.4879 8.912 18.4229L7.778 18.2759C7.552 18.2459 7.47 18.0839 7.588 17.8909C7.86 17.4529 8.134 17.0169 8.407 16.5809L10.077 13.9129C10.143 13.8049 10.217 13.7309 10.359 13.7349C10.449 13.7369 10.543 13.7149 10.632 13.6919C10.738 13.6659 10.821 13.6979 10.895 13.7679C11.026 13.8909 11.159 14.0129 11.289 14.1369L12.797 15.5679C13.122 15.8759 13.45 16.1819 13.775 16.4899C13.943 16.6479 13.943 16.7619 13.785 16.9279ZM24.875 19.2469C24.969 19.3249 25.071 19.3989 25.091 19.5319C25.116 19.7019 25.048 19.8249 24.904 19.9179C24.054 20.4679 23.204 21.0209 22.354 21.5719L20.711 22.6369C20.6592 22.6697 20.6097 22.7061 20.563 22.7459C20.5216 22.7799 20.4887 22.8231 20.467 22.8721C20.4453 22.921 20.4354 22.9744 20.438 23.0279C20.446 23.2329 20.458 23.4379 20.461 23.6419C20.464 23.8769 20.291 24.0239 20.055 23.9969C19.97 23.9857 19.8928 23.9415 19.84 23.8739C19.6423 23.6458 19.445 23.4175 19.248 23.1889C19.001 22.9029 18.755 22.6149 18.507 22.3299C18.4559 22.2789 18.4172 22.2168 18.3938 22.1486C18.3704 22.0803 18.3629 22.0075 18.372 21.9359L18.406 20.7409C18.41 20.6009 18.493 20.5109 18.605 20.4389L19.963 19.5709C20.723 19.0859 21.485 18.6029 22.243 18.1129C22.403 18.0099 22.552 17.9789 22.728 18.0689C22.858 18.1349 23.005 18.1469 23.146 18.1029C23.357 18.0359 23.519 18.0949 23.682 18.2389C24.072 18.5829 24.477 18.9109 24.876 19.2469H24.875ZM17.577 20.2389C17.6387 20.2992 17.6827 20.3753 17.704 20.4589C17.741 20.6459 17.667 20.7729 17.491 20.8579C16.906 21.1399 16.322 21.4249 15.732 21.6979C15.626 21.7459 15.493 21.7519 15.372 21.7579C14.883 21.7799 14.394 21.7929 13.905 21.8129C13.616 21.8239 13.328 21.8419 13.062 21.8559H12.866C12.8217 21.857 12.7776 21.8492 12.7363 21.8328C12.6951 21.8165 12.6576 21.792 12.626 21.7609C12.564 21.7039 12.5 21.6489 12.439 21.5909C12.095 21.2639 11.757 20.9309 11.406 20.6109C11.21 20.4329 11.207 20.1939 11.394 20.0029C11.815 19.5689 12.231 19.1309 12.649 18.6929C13.1 18.2209 13.551 17.7469 14.001 17.2729C14.0351 17.2327 14.0771 17.2 14.1244 17.1766C14.1717 17.1533 14.2233 17.1399 14.2759 17.1373C14.3286 17.1347 14.3812 17.1429 14.4306 17.1614C14.48 17.1799 14.525 17.2083 14.563 17.2449L16.363 19.0339C16.767 19.4359 17.175 19.8339 17.577 20.2389ZM20.055 12.1899C19.862 11.8919 20.08 11.4799 20.401 11.4269C21.259 11.2839 22.114 11.1199 22.971 10.9709C23.16 10.9379 23.31 11.0249 23.414 11.1809C23.594 11.4509 23.771 11.7219 23.949 11.9929C24.325 12.5629 24.702 13.1329 25.074 13.7049C25.124 13.7819 25.149 13.8749 25.186 13.9599L25.164 13.9699C25.1579 14.1159 25.1037 14.2558 25.01 14.3679C24.486 15.0719 23.956 15.7729 23.433 16.4779C23.3836 16.5405 23.3198 16.59 23.2469 16.6223C23.1741 16.6546 23.0945 16.6687 23.015 16.6633C22.9355 16.6578 22.8585 16.6331 22.7907 16.5912C22.723 16.5493 22.6664 16.4916 22.626 16.4229C21.861 15.1529 21.088 13.8869 20.318 12.6199C20.231 12.4759 20.146 12.3299 20.055 12.1899ZM18.55 15.7219L18.4 17.0569C18.358 17.4269 18.313 17.7949 18.271 18.1649L18.123 19.4649C18.113 19.5559 18.112 19.6489 18.093 19.7369C18.083 19.7799 18.051 19.8349 18.015 19.8489C17.979 19.8629 17.915 19.8429 17.883 19.8159C17.741 19.6929 17.606 19.5629 17.47 19.4339C16.98 18.9699 16.493 18.5049 16.003 18.0429C15.577 17.6399 15.15 17.2399 14.722 16.8399C14.58 16.7079 14.579 16.6659 14.716 16.5229L16.674 14.4729L18.011 13.0689L18.667 12.3789C18.686 12.3589 18.702 12.3319 18.725 12.3239C18.772 12.3069 18.83 12.2839 18.871 12.2969C18.905 12.3089 18.921 12.3699 18.931 12.3869L18.831 13.2669L18.702 14.3979L18.55 15.7219ZM22.356 16.7419C22.42 16.8449 22.43 16.9429 22.36 17.0499C22.2837 17.1699 22.2512 17.3126 22.268 17.4539C22.28 17.5799 22.228 17.6569 22.121 17.7239C21.284 18.2549 20.451 18.7899 19.617 19.3239C19.355 19.4919 19.093 19.6589 18.83 19.8249C18.726 19.8909 18.619 19.8859 18.562 19.8019C18.53 19.7559 18.526 19.6919 18.517 19.6599L18.627 18.8519L18.872 17.0699L19.142 15.1199L19.405 13.2129L19.505 12.5029C19.507 12.4839 19.508 12.4619 19.518 12.4479C19.544 12.4149 19.573 12.3659 19.606 12.3599C19.642 12.3539 19.698 12.3819 19.721 12.4129C19.782 12.4949 19.831 12.5859 19.885 12.6739L21.84 15.8899C22.012 16.1739 22.182 16.4589 22.356 16.7409V16.7419ZM18.303 11.8379C18.334 11.8579 18.394 11.8789 18.426 11.9219C18.475 11.9879 18.432 12.0499 18.381 12.1029L17.701 12.8179L15.719 14.8919C15.305 15.3269 14.893 15.7639 14.479 16.1979C14.329 16.3539 14.209 16.3539 14.053 16.2059C13.57 15.7479 13.087 15.2879 12.603 14.8309C12.133 14.3869 11.661 13.9439 11.189 13.5009C11.126 13.4409 11.076 13.3759 11.083 13.2839C11.093 13.1589 11.165 13.0879 11.308 13.0639C11.569 13.0169 11.831 12.9709 12.093 12.9259L14.608 12.4859L17.578 11.9649L18.303 11.8379ZM11.564 12.4699C12.03 12.1509 12.496 11.8339 12.963 11.5169L17.473 8.44489C17.623 8.34289 17.718 8.36389 17.793 8.52589C18.104 9.19189 18.413 9.85889 18.723 10.5259C18.763 10.6119 18.801 10.6989 18.842 10.7859C18.875 10.8559 18.853 10.9129 18.811 10.9759C18.7564 11.0531 18.7101 11.1359 18.673 11.2229C18.64 11.3059 18.59 11.3509 18.5 11.3669C17.836 11.4849 17.173 11.6069 16.51 11.7249L14.156 12.1479L11.586 12.6099C11.55 12.6159 11.513 12.6099 11.476 12.6099L11.454 12.5689C11.491 12.5359 11.524 12.4979 11.564 12.4699ZM6.874 13.9959C6.58 13.9899 6.405 13.7039 6.546 13.4409C6.665 13.2189 6.797 13.0049 6.925 12.7879C7.293 12.1589 7.663 11.5319 8.029 10.9029C8.08872 10.8002 8.1751 10.7155 8.279 10.6579C9.255 10.0969 10.229 9.53289 11.205 8.97089C11.267 8.93298 11.3349 8.90592 11.406 8.89089C11.4726 8.87774 11.5416 8.88436 11.6045 8.90995C11.6674 8.93554 11.7215 8.97897 11.76 9.03489C11.8026 9.08954 11.8285 9.15534 11.8345 9.22437C11.8405 9.29339 11.8265 9.36269 11.794 9.42389C11.647 9.73789 11.494 10.0489 11.344 10.3609C11.064 10.9329 10.784 11.5039 10.507 12.0769C10.4808 12.1402 10.4399 12.1964 10.3878 12.2409C10.3356 12.2854 10.2737 12.3169 10.207 12.3329C10.083 12.3625 9.96949 12.4258 9.87914 12.5157C9.78879 12.6057 9.72506 12.719 9.695 12.8429C9.67981 12.9041 9.64882 12.9602 9.60512 13.0057C9.56142 13.0511 9.50655 13.0843 9.446 13.1019C8.644 13.3839 7.843 13.6719 7.042 13.9569C6.988 13.9769 6.931 13.9829 6.875 13.9969L6.874 13.9959ZM11.027 12.1699C11.031 12.1282 11.0425 12.0875 11.061 12.0499L12.109 9.75289C12.327 9.27489 12.548 8.79789 12.763 8.31889C12.813 8.20889 12.886 8.15389 13.01 8.14889C13.337 8.13889 13.664 8.12189 13.991 8.10889L15.921 8.03589C16.147 8.02589 16.374 8.01089 16.601 7.99989C16.763 7.99289 16.874 8.09089 16.875 8.24989C16.882 8.34689 16.82 8.40989 16.74 8.46489L16.122 8.88589L12.428 11.3989L11.248 12.2029C11.2205 12.2237 11.191 12.2418 11.16 12.2569C11.09 12.2869 11.023 12.2449 11.027 12.1699ZM9.664 13.8199C9.501 14.0829 9.336 14.3439 9.172 14.6059C8.559 15.5859 7.946 16.5669 7.332 17.5459C7.30668 17.5928 7.27275 17.6345 7.232 17.6689C7.126 17.7449 6.985 17.6919 6.935 17.5589C6.855 17.3449 6.779 17.1289 6.702 16.9139L6.033 15.0319C6.017 14.9849 6.006 14.9369 6 14.9139C6.001 14.7869 6.043 14.7329 6.162 14.6939C6.518 14.5789 6.874 14.4659 7.23 14.3529L9.245 13.7129L9.51 13.6309C9.573 13.6109 9.636 13.5839 9.688 13.6539C9.735 13.7169 9.696 13.7689 9.664 13.8199ZM25.782 16.4289L25.984 17.5849C25.99 17.6219 25.994 17.6599 26 17.7089C25.99 17.7589 25.979 17.8189 25.963 17.8769L25.698 18.8329C25.622 19.1079 25.404 19.1729 25.184 18.9869C24.733 18.6069 24.28 18.2269 23.827 17.8489C23.724 17.7629 23.681 17.6639 23.705 17.5279C23.7344 17.3925 23.7182 17.2512 23.659 17.1259C23.597 17.0029 23.617 16.8939 23.698 16.7859C24.068 16.2899 24.435 15.7919 24.804 15.2959L25.029 14.9919C25.104 14.8889 25.203 14.8389 25.329 14.8669C25.461 14.8969 25.529 14.9869 25.551 15.1159L25.781 16.4289H25.782ZM18.218 8.48489L18.198 8.44289C18.171 8.38289 18.16 8.31289 18.221 8.27889C18.2745 8.25489 18.335 8.25134 18.391 8.26889C18.479 8.29589 18.558 8.34589 18.641 8.38689L22.003 10.0659L22.6 10.3659C22.667 10.3989 22.72 10.4379 22.706 10.5219C22.692 10.6049 22.629 10.6229 22.556 10.6359C21.748 10.7799 20.941 10.9259 20.134 11.0709L20.055 11.0869C20.032 11.0719 19.988 11.0549 19.96 11.0229C19.8881 10.9325 19.7976 10.8586 19.6945 10.8063C19.5915 10.754 19.4784 10.7245 19.363 10.7199C19.273 10.7159 19.227 10.6629 19.193 10.5879C19.051 10.2799 18.906 9.97389 18.763 9.66689L18.218 8.48489Z" fill="white"/>
</g>
<defs>
<clipPath id="clip0_301_1962">
<rect width="32" height="32" fill="white"/>
</clipPath>
</defs>
</svg>
