<svg width="32" height="32" viewBox="0 0 32 32" fill="none" xmlns="http://www.w3.org/2000/svg">
<g clip-path="url(#clip0_301_1946)">
<path d="M16 32C24.8366 32 32 24.8366 32 16C32 7.16344 24.8366 0 16 0C7.16344 0 0 7.16344 0 16C0 24.8366 7.16344 32 16 32Z" fill="#666666"/>
<path fill-rule="evenodd" clip-rule="evenodd" d="M25.0821 21.15C24.8763 21.4934 24.5443 21.7427 24.1571 21.8445C23.7699 21.9464 23.3583 21.8927 23.0101 21.695L18.2311 18.985V17.265L19.7491 16.405L24.5271 19.114C25.2531 19.525 25.5011 20.437 25.0821 21.149V21.15ZM17.5171 24.809C17.5171 25.632 16.8381 26.299 16.0001 26.299C15.1621 26.299 14.4831 25.632 14.4831 24.809V19.39L16.0001 18.53L17.5171 19.39V24.809ZM8.99012 21.695C8.64186 21.8926 8.23009 21.9461 7.84288 21.8441C7.45568 21.7421 7.12376 21.4926 6.91812 21.149C6.81885 20.9795 6.75443 20.7918 6.72862 20.5971C6.70282 20.4023 6.71615 20.2044 6.76784 20.0148C6.81953 19.8253 6.90854 19.648 7.02965 19.4933C7.15075 19.3386 7.30152 19.2097 7.47312 19.114L12.2511 16.404L13.7691 17.265V18.985L8.99012 21.695ZM7.47312 12.886C7.30152 12.7903 7.15075 12.6614 7.02965 12.5067C6.90854 12.352 6.81953 12.1747 6.76784 11.9852C6.71615 11.7956 6.70282 11.5977 6.72862 11.4029C6.75443 11.2082 6.81885 11.0205 6.91812 10.851C7.12376 10.5074 7.45568 10.2579 7.84288 10.1559C8.23009 10.0539 8.64186 10.1074 8.99012 10.305L13.7691 13.015V14.735L12.2511 15.595L7.47312 12.886ZM14.4831 7.191C14.4831 6.368 15.1631 5.701 16.0001 5.701C16.8381 5.701 17.5171 6.368 17.5171 7.191V12.609L16.0001 13.47L14.4831 12.61V7.191ZM18.2311 15.545L19.0351 16L18.2311 16.455V15.545ZM16.7141 13.875L17.5171 13.419V14.33L16.7141 13.875ZM14.4831 14.33V13.42L15.2861 13.875L14.4831 14.33ZM13.7691 16.455L12.9651 16L13.7691 15.545V16.455ZM15.2861 18.125L14.4831 18.581V17.67L15.2861 18.125ZM17.5171 17.67V18.58L16.7141 18.125L17.5171 17.67ZM16.0001 17.72L14.4831 16.86V15.14L16.0001 14.28L17.5171 15.14V16.86L16.0001 17.72ZM23.0101 10.305C23.3584 10.1074 23.7701 10.0539 24.1573 10.1559C24.5446 10.2579 24.8765 10.5074 25.0821 10.851C25.5021 11.563 25.2521 12.475 24.5271 12.886L19.7491 15.596L18.2311 14.735V13.015L23.0101 10.305ZM24.8841 18.507L20.4631 16L24.8841 13.493C25.1366 13.3525 25.3585 13.1629 25.5368 12.9354C25.715 12.7079 25.8461 12.4471 25.9222 12.1684C25.9983 11.8896 26.0179 11.5984 25.98 11.3119C25.942 11.0254 25.8472 10.7494 25.7011 10.5C25.0851 9.452 23.7201 9.093 22.6531 9.698L18.2311 12.205V7.19C18.2311 5.981 17.2321 5 16.0001 5C14.7681 5 13.7691 5.981 13.7691 7.191V12.205L9.34712 9.698C8.28012 9.093 6.91512 9.452 6.30012 10.5C6.15403 10.7494 6.05923 11.0254 6.02127 11.3119C5.9833 11.5984 6.00295 11.8896 6.07906 12.1684C6.15516 12.4471 6.28618 12.7079 6.46444 12.9354C6.6427 13.1629 6.8646 13.3525 7.11712 13.493L11.5371 16L7.11712 18.507C6.86452 18.6475 6.64252 18.837 6.46416 19.0644C6.2858 19.2918 6.15468 19.5526 6.07848 19.8314C6.00228 20.1102 5.98255 20.4014 6.02044 20.688C6.05832 20.9745 6.15307 21.2506 6.29912 21.5C6.91512 22.548 8.28012 22.907 9.34712 22.302L13.7691 19.795V24.809C13.7691 26.019 14.7681 27 16.0001 27C17.2321 27 18.2311 26.019 18.2311 24.809V19.795L22.6531 22.302C23.7201 22.907 25.0851 22.548 25.7011 21.5C25.8472 21.2506 25.942 20.9746 25.98 20.6881C26.0179 20.4016 25.9983 20.1104 25.9222 19.8316C25.8461 19.5529 25.715 19.2921 25.5368 19.0646C25.3585 18.8371 25.1366 18.6475 24.8841 18.507Z" fill="white"/>
</g>
<defs>
<clipPath id="clip0_301_1946">
<rect width="32" height="32" fill="white"/>
</clipPath>
</defs>
</svg>
