<svg width="32" height="32" viewBox="0 0 32 32" fill="none" xmlns="http://www.w3.org/2000/svg">
<g clip-path="url(#clip0_301_1930)">
<path d="M16 32C24.8366 32 32 24.8366 32 16C32 7.16344 24.8366 0 16 0C7.16344 0 0 7.16344 0 16C0 24.8366 7.16344 32 16 32Z" fill="#F4AE95"/>
<path d="M15.8072 8.95796L9.71323 21.965H19.8302C20.1232 21.965 20.3882 22.145 20.5032 22.42L20.5142 22.445C20.5518 22.5345 20.5686 22.6315 20.5632 22.7285C20.5579 22.8255 20.5305 22.9201 20.4832 23.005C20.4006 23.1542 20.2797 23.2788 20.1329 23.3658C19.9861 23.4528 19.8188 23.4991 19.6482 23.5H8.89623C8.72984 23.4997 8.56742 23.4491 8.43023 23.355L8.37423 23.317C8.20494 23.1988 8.08295 23.0245 8.02987 22.825C7.97679 22.6255 7.99605 22.4136 8.08423 22.227L15.2742 7.07796C15.3492 6.91996 15.4562 6.77996 15.5872 6.66796C15.7109 6.56135 15.8682 6.50187 16.0314 6.50004C16.1946 6.49821 16.3533 6.55415 16.4792 6.65796C16.5364 6.70456 16.5826 6.76331 16.6142 6.82996L23.9072 22.082C24.0072 22.289 24.0272 22.526 23.9652 22.748C23.933 22.8688 23.8618 22.9757 23.7628 23.0522C23.6638 23.1286 23.5423 23.1704 23.4172 23.171H23.3332C23.1654 23.1699 23.0013 23.1208 22.8606 23.0293C22.7199 22.9379 22.6083 22.8079 22.5392 22.655L16.2492 8.95996C16.2303 8.91727 16.1995 8.88091 16.1605 8.85521C16.1215 8.8295 16.0759 8.81553 16.0292 8.81496C15.9824 8.81498 15.9366 8.82847 15.8972 8.85383C15.8579 8.87918 15.8266 8.91533 15.8072 8.95796Z" fill="white"/>
</g>
<defs>
<clipPath id="clip0_301_1930">
<rect width="32" height="32" fill="white"/>
</clipPath>
</defs>
</svg>
