<svg width="32" height="32" viewBox="0 0 32 32" fill="none" xmlns="http://www.w3.org/2000/svg">
<g clip-path="url(#clip0_301_1896)">
<path d="M16 32C24.8366 32 32 24.8366 32 16C32 7.16344 24.8366 0 16 0C7.16344 0 0 7.16344 0 16C0 24.8366 7.16344 32 16 32Z" fill="#0983CB"/>
<path d="M10.8761 26.9434C10.8319 26.9434 10.7767 26.9434 10.7325 26.9324C10.3129 26.8551 10.0479 26.4575 10.1252 26.0379C10.5779 23.6747 11.362 21.4883 12.4663 19.5226C13.4932 17.6895 14.5313 16.508 15.5251 15.3705C16.5521 14.2 17.5128 13.1068 18.4404 11.3399C19.3459 9.61724 19.9643 7.72892 20.2735 5.74122C20.3398 5.32159 20.7263 5.04552 21.1459 5.10073C21.5655 5.16699 21.8416 5.55349 21.7864 5.97312C21.4441 8.13751 20.7815 10.1804 19.7987 12.0467C18.7827 13.9681 17.7116 15.1939 16.6736 16.3754C15.6797 17.5018 14.7411 18.573 13.7914 20.2625C12.7755 22.0735 12.0466 24.1164 11.616 26.314C11.5497 26.6894 11.2295 26.9434 10.8761 26.9434Z" fill="white"/>
<path d="M13.9792 14.3546C13.7363 14.3546 13.5044 14.2442 13.3498 14.0344C12.9081 13.4049 12.5106 12.7644 12.1461 12.0687C11.1633 10.2025 10.4897 8.15959 10.1584 5.9952C10.0922 5.57557 10.3793 5.18908 10.7989 5.12282C11.2185 5.05656 11.605 5.34368 11.6713 5.7633C11.9805 7.76205 12.5989 9.65037 13.5044 11.362C13.8357 12.0025 14.2001 12.5878 14.5976 13.162C14.8406 13.5043 14.7633 13.9791 14.4099 14.2221C14.2884 14.3104 14.1338 14.3546 13.9792 14.3546Z" fill="white" fill-opacity="0.3"/>
<path d="M14.087 14.3849C13.8661 14.3849 13.6453 14.2855 13.4907 14.0978C13.2256 13.7665 12.9827 13.4573 12.7618 13.1371C12.5189 12.7947 12.5962 12.3199 12.9496 12.077C13.2919 11.834 13.7667 11.9113 14.0097 12.2647C14.2195 12.5628 14.4403 12.85 14.6833 13.1481C14.9483 13.4794 14.8931 13.9542 14.5618 14.2193C14.4183 14.3297 14.2526 14.3849 14.087 14.3849Z" fill="white" fill-opacity="0.5"/>
<path d="M21.0797 26.9434C20.7153 26.9434 20.4061 26.6894 20.3288 26.325C19.9092 24.1275 19.1693 22.0846 18.1534 20.2736C17.8663 19.7656 17.5681 19.2797 17.2368 18.8159C16.9939 18.4736 17.0822 17.9987 17.4245 17.7558C17.7669 17.5129 18.2417 17.6012 18.4847 17.9435C18.838 18.4515 19.1693 18.9705 19.4785 19.5337C20.5828 21.4883 21.3668 23.6858 21.8196 26.0489C21.8969 26.4686 21.6319 26.8661 21.2122 26.9434C21.1681 26.9434 21.1239 26.9434 21.0797 26.9434Z" fill="white" fill-opacity="0.3"/>
<path d="M18.4064 19.8853C18.1635 19.8853 17.9316 19.7749 17.777 19.554C17.6003 19.3 17.4347 19.0681 17.258 18.8473C17.004 18.516 17.0592 18.0301 17.3905 17.7761C17.7218 17.5222 18.2076 17.5774 18.4616 17.9197C18.6494 18.1626 18.8371 18.4166 19.0248 18.6927C19.2678 19.035 19.1794 19.5099 18.8371 19.7528C18.7046 19.8411 18.55 19.8853 18.4064 19.8853Z" fill="white" fill-opacity="0.5"/>
<path d="M19.0811 24.7569H12.9192C12.7094 24.7569 12.5327 24.5913 12.5327 24.3704C12.5327 24.1606 12.6984 23.9839 12.9192 23.9839H19.0811C19.2909 23.9839 19.4676 24.1496 19.4676 24.3704C19.4676 24.5913 19.2909 24.7569 19.0811 24.7569Z" fill="white"/>
<path d="M18.54 23.1337H13.4051C13.1952 23.1337 13.0186 22.968 13.0186 22.7472C13.0186 22.5263 13.1842 22.3607 13.4051 22.3607H18.54C18.7498 22.3607 18.9265 22.5263 18.9265 22.7472C18.9265 22.968 18.7498 23.1337 18.54 23.1337Z" fill="white"/>
<path d="M17.767 21.5104H14.1228C13.913 21.5104 13.7363 21.3447 13.7363 21.1239C13.7363 20.903 13.902 20.7374 14.1228 20.7374H17.767C17.9768 20.7374 18.1535 20.903 18.1535 21.1239C18.1535 21.3447 17.9768 21.5104 17.767 21.5104Z" fill="white"/>
<path d="M16.7511 19.8871H15.1609C14.9511 19.8871 14.7744 19.7215 14.7744 19.5006C14.7744 19.2797 14.9401 19.1141 15.1609 19.1141H16.7511C16.9609 19.1141 17.1376 19.2797 17.1376 19.5006C17.1376 19.7215 16.9609 19.8871 16.7511 19.8871Z" fill="white"/>
<path d="M19.0811 7.45287H12.9192C12.7094 7.45287 12.5327 7.28722 12.5327 7.06637C12.5327 6.84551 12.6984 6.67987 12.9192 6.67987H19.0811C19.2909 6.67987 19.4676 6.84551 19.4676 7.06637C19.4676 7.28722 19.2909 7.45287 19.0811 7.45287Z" fill="white"/>
<path d="M18.54 9.07616H13.4051C13.1952 9.07616 13.0186 8.91052 13.0186 8.68966C13.0186 8.4688 13.1842 8.30316 13.4051 8.30316H18.54C18.7498 8.30316 18.9265 8.4688 18.9265 8.68966C18.9265 8.91052 18.7498 9.07616 18.54 9.07616Z" fill="white"/>
<path d="M17.767 10.6994H14.1228C13.913 10.6994 13.7363 10.5338 13.7363 10.313C13.7363 10.0921 13.902 9.92645 14.1228 9.92645H17.767C17.9768 9.92645 18.1535 10.0921 18.1535 10.313C18.1535 10.5338 17.9768 10.6994 17.767 10.6994Z" fill="white"/>
<path d="M16.7511 12.3227H15.1609C14.9511 12.3227 14.7744 12.1571 14.7744 11.9362C14.7744 11.7154 14.9401 11.5497 15.1609 11.5497H16.7511C16.9609 11.5497 17.1376 11.7154 17.1376 11.9362C17.1376 12.1571 16.9609 12.3227 16.7511 12.3227Z" fill="white"/>
<path d="M16.0001 28.1471C9.29713 28.1471 3.85303 22.703 3.85303 16C3.85303 9.29701 9.29713 3.85291 16.0001 3.85291C22.7031 3.85291 28.1472 9.29701 28.1472 16C28.1472 22.703 22.7031 28.1471 16.0001 28.1471ZM16.0001 5.37681C10.1474 5.37681 5.37693 10.1473 5.37693 16C5.37693 21.8527 10.1364 26.6232 16.0001 26.6232C21.8638 26.6232 26.6233 21.8637 26.6233 16C26.6233 10.1473 21.8528 5.37681 16.0001 5.37681Z" fill="white"/>
</g>
<defs>
<clipPath id="clip0_301_1896">
<rect width="32" height="32" fill="white"/>
</clipPath>
</defs>
</svg>
