<svg width="32" height="32" viewBox="0 0 32 32" fill="none" xmlns="http://www.w3.org/2000/svg">
<g clip-path="url(#clip0_301_1892)">
<path d="M16 32C24.8366 32 32 24.8366 32 16C32 7.16344 24.8366 0 16 0C7.16344 0 0 7.16344 0 16C0 24.8366 7.16344 32 16 32Z" fill="#2C398F"/>
<path d="M25.0749 19.0999C25.6014 19.0737 26.1035 18.8704 26.4999 18.5229C25.9489 21.3389 24.4089 24.1099 21.7659 25.6329C19.7439 26.8109 17.2159 27.2029 14.7579 26.9029C14.3899 25.8409 13.4249 24.7099 11.7479 23.8559C9.10489 22.4939 7.86389 20.1389 6.73789 21.2929C6.63389 21.3929 6.54789 21.5099 6.48489 21.6389C6.43456 21.5332 6.38853 21.4254 6.34689 21.3159C4.18689 15.9599 6.34689 10.5799 10.6669 6.72494C13.2409 4.43894 16.2509 4.69294 18.9399 5.93994C18.7785 6.07031 18.649 6.23582 18.5613 6.42386C18.4736 6.6119 18.43 6.81749 18.4339 7.02494V12.4269C17.3161 11.776 16.0028 11.5451 14.7299 11.7756C13.4571 12.0062 12.3083 12.6832 11.4899 13.6849C10.6682 14.6888 10.228 15.9508 10.247 17.2479C10.2661 18.545 10.7431 19.7936 11.5939 20.7729C12.4417 21.7498 13.6101 22.3923 14.8891 22.5849C16.1682 22.7776 17.474 22.5077 18.5719 21.8239C18.7064 22.1136 18.936 22.3486 19.2225 22.4896C19.5091 22.6307 19.8353 22.6693 20.1469 22.5992C20.4585 22.5291 20.7367 22.3544 20.9352 22.1042C21.1337 21.854 21.2405 21.5433 21.2379 21.2239V7.30194C23.3059 8.75594 24.9599 10.6029 25.7179 11.8729C26.0879 12.5109 26.3519 13.2049 26.4999 13.9279C26.1749 13.6879 25.7959 13.5279 25.3969 13.4659C24.5469 13.4199 23.9029 14.5749 24.3399 16.2359C24.7079 17.7379 24.2479 19.0539 25.0749 19.0999ZM14.7119 19.1919C11.8159 17.5299 14.2519 13.2589 17.1479 14.9209C18.0209 15.4059 18.1129 16.9529 17.9519 17.9449C17.6529 19.6539 16.0449 19.9539 14.7119 19.1919ZM16.0679 8.15594C15.4239 8.17894 14.9649 8.96394 14.9879 9.31094C15.0099 9.65694 15.4929 9.86494 16.1589 9.63394C16.7569 9.42594 17.3089 9.56394 17.2849 9.21794C17.2619 8.87194 16.6879 8.13294 16.0679 8.15594Z" fill="white"/>
</g>
<defs>
<clipPath id="clip0_301_1892">
<rect width="32" height="32" fill="white"/>
</clipPath>
</defs>
</svg>
