<svg width="32" height="32" viewBox="0 0 32 32" fill="none" xmlns="http://www.w3.org/2000/svg">
<g clip-path="url(#clip0_301_1888)">
<path d="M16 32C24.8366 32 32 24.8366 32 16C32 7.16344 24.8366 0 16 0C7.16344 0 0 7.16344 0 16C0 24.8366 7.16344 32 16 32Z" fill="#786DBC"/>
<path d="M15.9309 10.771L14.3019 9.13802C14.0826 8.92824 13.9556 8.63991 13.9488 8.33648C13.9421 8.03305 14.0561 7.73936 14.2659 7.52002C14.4757 7.30069 14.764 7.17368 15.0675 7.16692C15.3709 7.16017 15.6646 7.27424 15.8839 7.48402L15.9219 7.52202L19.5579 11.158C20.0049 11.605 20.0049 12.328 19.5579 12.775L15.9179 16.411C15.7019 16.6171 15.4139 16.7305 15.1155 16.727C14.817 16.7235 14.5317 16.6033 14.3207 16.3923C14.1096 16.1812 13.9895 15.8959 13.986 15.5975C13.9825 15.299 14.0959 15.011 14.3019 14.795L16.0089 13.088C14.8588 12.885 13.6742 13.0405 12.6154 13.5334C11.5567 14.0262 10.6751 14.8327 10.09 15.8434C9.50502 16.8542 9.24487 18.0204 9.34486 19.1839C9.44485 20.3475 9.90014 21.4522 10.649 22.3483C11.3979 23.2444 12.4042 23.8886 13.5315 24.1936C14.6588 24.4987 15.8526 24.4497 16.9512 24.0535C18.0498 23.6573 19 22.9329 19.673 21.9785C20.3461 21.0241 20.7095 19.8859 20.7139 18.718V6.14202C20.7139 5.83888 20.8343 5.54815 21.0487 5.3338C21.263 5.11945 21.5538 4.99902 21.8569 4.99902C22.1601 4.99902 22.4508 5.11945 22.6651 5.3338C22.8795 5.54815 22.9999 5.83888 22.9999 6.14202V18.871C22.968 20.4859 22.448 22.0532 21.5084 23.367C20.5688 24.6807 19.2535 25.6792 17.7356 26.2312C16.2177 26.7832 14.5683 26.8629 13.0043 26.4597C11.4403 26.0564 10.0349 25.1892 8.97312 23.9721C7.91132 22.7551 7.24279 21.2451 7.05546 19.6408C6.86813 18.0365 7.17079 16.4132 7.92361 14.9842C8.67644 13.5552 9.84417 12.3875 11.2732 11.6348C12.7023 10.8821 14.3257 10.5796 15.9299 10.767L15.9309 10.771Z" fill="white"/>
</g>
<defs>
<clipPath id="clip0_301_1888">
<rect width="32" height="32" fill="white"/>
</clipPath>
</defs>
</svg>
