<svg width="32" height="32" viewBox="0 0 32 32" fill="none" xmlns="http://www.w3.org/2000/svg">
<g clip-path="url(#clip0_301_2424)">
<path d="M16 32C24.8366 32 32 24.8366 32 16C32 7.16344 24.8366 0 16 0C7.16344 0 0 7.16344 0 16C0 24.8366 7.16344 32 16 32Z" fill="#134451"/>
<path d="M13.9987 16.322C13.5017 16.322 13.1257 16.406 12.8657 16.565C12.6157 16.72 12.4897 16.955 12.4897 17.263C12.4897 17.493 12.5677 17.679 12.7147 17.811C12.8657 17.944 13.0777 18.01 13.3417 18.01C13.7517 18.01 14.0937 17.882 14.3657 17.63C14.6387 17.374 14.8237 17.016 14.9157 16.557L14.9577 16.322H13.9977H13.9987ZM19.2627 14.153C19.1117 14.021 18.8997 13.955 18.6367 13.955C18.2257 13.955 17.8837 14.083 17.6117 14.335C17.3397 14.591 17.1537 14.949 17.0627 15.408L17.0197 15.642L17.9797 15.638C18.4767 15.638 18.8527 15.554 19.1117 15.395C19.3617 15.24 19.4877 15.006 19.4877 14.697C19.4877 14.467 19.4147 14.286 19.2627 14.153Z" fill="white"/>
<path d="M26.9648 14.7099C26.6368 11.7459 21.4548 9.91192 15.3948 10.6149C9.33484 11.3169 4.68884 14.2899 5.01684 17.2549C5.34584 20.2189 10.5238 22.0519 16.5868 21.3499C22.6518 20.6469 27.2938 17.6739 26.9648 14.7099ZM20.6248 16.1939C20.0108 16.6319 19.1158 16.8479 17.9408 16.8529L16.7998 16.8569L16.7648 17.0199C16.7545 17.0557 16.7488 17.0927 16.7478 17.1299C16.7428 17.1529 16.7428 17.1749 16.7428 17.1929C16.7428 17.4449 16.8598 17.6299 17.0888 17.7529C17.3188 17.8819 17.6588 17.9429 18.1048 17.9429C18.5278 17.9429 18.9348 17.8949 19.3188 17.8069C19.6988 17.7179 20.0668 17.5859 20.4168 17.4089L20.1268 18.9639C19.6908 19.0699 19.2718 19.1539 18.8568 19.2069C18.4574 19.2642 18.0544 19.2939 17.6508 19.2959C17.0978 19.2959 16.6398 19.2289 16.2718 19.0879C15.8918 18.9419 15.4678 18.6239 15.2568 18.1689C14.8655 18.542 14.4121 18.8439 13.9168 19.0609C13.4576 19.2571 12.9632 19.3578 12.4638 19.3569C11.8338 19.3619 11.3358 19.2069 10.9818 18.9019C10.6228 18.5979 10.4458 18.1729 10.4418 17.6389C10.4368 16.8169 10.7438 16.1939 11.3538 15.7609C11.9668 15.3239 12.8618 15.1079 14.0378 15.1029L15.1778 15.0989L15.2128 14.9349C15.2235 14.8992 15.2296 14.8622 15.2308 14.8249C15.2348 14.8029 15.2348 14.7809 15.2348 14.7629C15.2348 14.5109 15.1178 14.3259 14.8888 14.2019C14.6598 14.0739 14.3188 14.0119 13.8728 14.0119C13.4498 14.0119 13.0428 14.0609 12.6588 14.1489C12.2788 14.2369 11.9108 14.3689 11.5608 14.5469L11.8508 12.9919C12.2868 12.8859 12.7058 12.8019 13.1208 12.7489C13.5203 12.6917 13.9233 12.6619 14.3268 12.6599C14.8808 12.6599 15.3388 12.7269 15.7068 12.8679C16.0868 13.0139 16.5098 13.3319 16.7218 13.7869C17.1131 13.4134 17.5665 13.1112 18.0618 12.8939C18.5208 12.6979 19.0148 12.5972 19.5138 12.5979C20.1448 12.5939 20.6418 12.7479 20.9958 13.0529C21.3558 13.3579 21.5318 13.7829 21.5358 14.3169C21.5408 15.1339 21.2388 15.7609 20.6248 16.1939Z" fill="white"/>
<path d="M16.5229 21.703C15.6459 21.805 14.7769 21.853 13.9339 21.853C11.9279 21.853 10.0529 21.571 8.4919 21.018C7.84643 20.7959 7.22895 20.4996 6.6519 20.135C6.4389 21.253 6.5819 22.238 7.1309 22.971C8.7079 25.078 13.1209 24.407 17.4869 21.571C17.1669 21.619 16.8469 21.663 16.5229 21.703ZM15.4989 10.306C18.4589 9.96099 21.3119 10.204 23.5289 10.99C24.1751 11.2122 24.7933 11.5089 25.3709 11.874C25.5819 10.756 25.4399 9.77099 24.8909 9.03799C23.3129 6.93099 18.9009 7.60199 14.5349 10.438C14.8549 10.385 15.1789 10.341 15.4989 10.306Z" fill="white"/>
<path d="M12.279 24.265C11.7017 24.4032 11.1122 24.4846 10.519 24.508C10.965 25.688 11.661 26.514 12.581 26.823C14.803 27.57 17.677 25.123 19.713 21.071C19.233 21.204 18.736 21.323 18.235 21.425C16.246 22.83 14.172 23.824 12.279 24.265ZM19.877 7.71196C20.4546 7.57642 21.0441 7.49804 21.637 7.47796C21.195 6.29796 20.504 5.46796 19.583 5.15496C17.366 4.39896 14.479 6.83296 12.43 10.871C12.91 10.739 13.407 10.624 13.912 10.527C15.901 9.12696 17.98 8.14496 19.877 7.71196Z" fill="white"/>
</g>
<defs>
<clipPath id="clip0_301_2424">
<rect width="32" height="32" fill="white"/>
</clipPath>
</defs>
</svg>
