<svg width="32" height="32" viewBox="0 0 32 32" fill="none" xmlns="http://www.w3.org/2000/svg">
<g clip-path="url(#clip0_301_1866)">
<path d="M16 32C24.8366 32 32 24.8366 32 16C32 7.16344 24.8366 0 16 0C7.16344 0 0 7.16344 0 16C0 24.8366 7.16344 32 16 32Z" fill="#242D3D"/>
<path d="M23.1341 17.4672C22.5831 15.0402 20.8701 12.3642 20.8701 12.3642C22.8441 17.7512 22.0841 21.8142 21.5611 24.1192C21.5611 24.1192 20.8711 26.6972 22.3561 24.5492C24.2081 21.8612 23.1341 17.4672 23.1341 17.4672Z" fill="white"/>
<path d="M18.258 7.91118C19.285 11.5692 19.75 14.6742 19.895 17.2632C20.15 21.6752 19.477 24.5782 19.059 26.1112C18.925 26.6102 19.483 26.9812 19.808 26.6042L19.814 26.5982C20.626 25.6692 21.01 23.4932 21.19 21.5832L21.242 20.9562C21.41 18.6562 21.312 16.3352 20.772 14.1112C19.779 10.0072 18.258 7.91118 18.258 7.91118ZM16.418 14.3552C16.168 8.34718 15.715 3.01218 15.715 3.01218C15.715 3.01218 15.257 8.08018 15.007 13.9542C14.967 14.9072 14.931 15.8762 14.902 16.8512C14.862 18.2682 14.844 19.6912 14.844 21.0662C14.85 23.5102 14.944 25.8032 15.164 27.6322C15.251 28.3572 16.191 28.3572 16.278 27.6322C16.429 26.3842 16.516 24.8512 16.551 23.1672C16.5835 21.3466 16.5758 19.5255 16.528 17.7052C16.498 16.5902 16.464 15.4642 16.418 14.3552ZM9.39999 21.5942C9.26297 20.4619 9.2315 19.3193 9.30599 18.1812C9.36399 17.2872 9.49199 16.3292 9.71299 15.3072C9.91599 14.3722 10.194 13.3912 10.572 12.3582C10.572 12.3582 9.36399 14.2452 8.65599 16.2822C8.51599 16.6722 8.40099 17.0722 8.31299 17.4612C8.31299 17.4612 8.08699 18.4832 8.05299 19.8472C8.02899 20.7932 8.10399 21.9132 8.40599 22.9702C8.55863 23.5235 8.78749 24.0529 9.08599 24.5432C9.08599 24.5432 10.572 26.7552 9.88099 24.1132C9.66601 23.2848 9.50501 22.4434 9.39899 21.5942H9.39999Z" fill="white"/>
<path d="M11.518 20.4101C11.4695 19.214 11.4889 18.016 11.576 16.8221C11.6363 15.9406 11.7294 15.0617 11.855 14.1871C12.115 12.3061 12.54 10.2221 13.185 7.9111C13.185 7.9111 11.657 10.0071 10.665 14.1111C10.612 14.3311 10.565 14.5521 10.519 14.7671C10.339 15.6611 10.223 16.5671 10.165 17.4841C10.095 18.6341 10.113 19.7941 10.195 20.9501L10.247 21.5831C10.427 23.4931 10.804 25.6691 11.622 26.5981L11.628 26.6041C11.953 26.9761 12.516 26.6041 12.378 26.1111C12.075 24.9791 11.628 23.0981 11.518 20.4101Z" fill="white"/>
<path d="M14.0552 20.636C14.0224 19.3049 14.0164 17.9733 14.0372 16.642C14.0492 15.766 14.0722 14.842 14.1132 13.873C14.2122 11.371 14.6822 7.75396 15.0072 4.68896C15.0072 4.68896 13.4052 8.00396 12.6732 13.984C12.5752 14.802 12.4822 15.684 12.4122 16.637L12.3602 17.345C12.3602 17.345 12.2732 18.61 12.3072 20.317C12.3542 22.511 12.5972 25.437 13.5032 27.353C13.5332 27.411 13.5672 27.463 13.6132 27.503L13.6192 27.51C13.9622 27.835 14.4902 27.527 14.4442 27.022C14.2312 24.8992 14.1011 22.7689 14.0542 20.636H14.0552ZM17.3752 20.636C17.4052 19.44 17.4162 18.106 17.3932 16.642C17.3812 15.766 17.3582 14.842 17.3172 13.873C17.2192 11.371 16.7492 7.75396 16.4232 4.68896C16.4232 4.68896 18.0262 8.00396 18.7572 13.984C18.8562 14.802 18.9492 15.684 19.0182 16.637L19.0712 17.345C19.0712 17.345 19.1582 18.61 19.1232 20.317C19.0762 22.511 18.8332 25.437 17.9272 27.353C17.9006 27.4096 17.8632 27.4606 17.8172 27.503L17.8112 27.51C17.4682 27.835 16.9412 27.527 16.9872 27.022C17.1032 25.925 17.3002 23.748 17.3752 20.636Z" fill="white"/>
</g>
<defs>
<clipPath id="clip0_301_1866">
<rect width="32" height="32" fill="white"/>
</clipPath>
</defs>
</svg>
