<svg width="32" height="32" viewBox="0 0 32 32" fill="none" xmlns="http://www.w3.org/2000/svg">
<g clip-path="url(#clip0_301_1834)">
<path d="M16 32C24.8366 32 32 24.8366 32 16C32 7.16344 24.8366 0 16 0C7.16344 0 0 7.16344 0 16C0 24.8366 7.16344 32 16 32Z" fill="#242424"/>
<path d="M13.0601 23.8741L15.7431 21.1771L18.4371 23.8741L16.7181 25.5961C16.5902 25.7244 16.4382 25.8261 16.2709 25.8956C16.1036 25.965 15.9242 26.0007 15.7431 26.0007C15.562 26.0007 15.3826 25.965 15.2153 25.8956C15.048 25.8261 14.896 25.7244 14.7681 25.5961L13.0601 23.8741ZM20.0101 14.6321L17.3181 11.9351L20.0111 9.23811L22.7031 11.9351L20.0101 14.6321ZM19.3411 22.9951L16.6481 20.2981L23.8781 13.0561L25.5961 14.7771C26.1351 15.3171 26.1351 16.1901 25.5961 16.7301L19.3411 22.9951ZM11.9381 22.7171L9.2461 20.0201L16.4641 12.7901L19.1561 15.4871L11.9381 22.7171ZM8.1161 18.9171L6.3971 17.1951C6.14039 16.9343 5.99759 16.5824 6.00003 16.2164C6.00247 15.8505 6.14994 15.5005 6.4101 15.2431L8.1281 13.5211L10.8211 16.2191L8.1161 18.9171ZM18.8831 8.12911L11.6531 15.3671L8.9601 12.6701L15.2151 6.40411C15.343 6.27585 15.495 6.17409 15.6623 6.10466C15.8296 6.03522 16.009 5.99948 16.1901 5.99948C16.3712 5.99948 16.5506 6.03522 16.7179 6.10466C16.8852 6.17409 17.0372 6.27585 17.1651 6.40411L18.8831 8.12911Z" fill="white"/>
</g>
<defs>
<clipPath id="clip0_301_1834">
<rect width="32" height="32" fill="white"/>
</clipPath>
</defs>
</svg>
