<svg width="32" height="32" viewBox="0 0 32 32" fill="none" xmlns="http://www.w3.org/2000/svg">
<g clip-path="url(#clip0_301_1830)">
<path d="M16 32C24.8366 32 32 24.8366 32 16C32 7.16344 24.8366 0 16 0C7.16344 0 0 7.16344 0 16C0 24.8366 7.16344 32 16 32Z" fill="#0FACF3"/>
<path d="M9.47095 9.01616H14.9029C17.0569 9.01616 18.1269 8.94816 19.7329 9.09516C21.3399 9.26516 22.9469 9.92116 23.9869 11.1782C25.2119 12.6382 25.5699 14.6082 25.4889 16.4412C25.4089 18.2642 24.7839 20.1762 23.3509 21.4212C22.0799 22.5652 20.3009 22.9842 18.6129 22.9952C15.3309 23.0062 12.0599 22.9952 8.77795 22.9952C8.41995 22.9722 8.01495 23.0062 7.73795 22.7572C7.25295 22.2712 7.54195 21.2292 8.31595 21.2742C10.1419 21.2182 11.9789 21.2742 13.8059 21.2402C13.7709 19.7012 13.7939 18.1622 13.7939 16.6342C12.3839 16.6222 10.9849 16.6342 9.57595 16.6342C9.26295 16.6222 8.91595 16.6222 8.67395 16.4182C8.38495 16.1582 8.38495 15.7172 8.51195 15.3782C8.67395 15.0042 9.11295 14.9362 9.48295 14.9362C10.9159 14.9242 12.3609 14.9362 13.7929 14.9362C13.8169 13.5322 13.7709 12.1282 13.8169 10.7362C12.2099 10.7252 10.6039 10.7362 8.99695 10.7362C8.63895 10.7252 8.23495 10.7252 7.95695 10.4762C7.66895 10.1022 7.72695 9.57016 7.96895 9.19616C8.43095 8.97016 8.96295 9.01616 9.47095 9.01616ZM15.8049 14.9362C16.4629 14.9472 17.1219 14.8902 17.7809 14.9812C18.5669 15.0942 18.5669 16.4752 17.7689 16.5882C17.1219 16.6902 16.4519 16.6222 15.7929 16.6342C15.8049 17.9692 15.7929 19.2942 15.7929 20.6292C15.8049 20.8562 15.8159 21.1952 16.1049 21.2182C16.8909 21.2862 17.5749 21.2632 18.4629 21.2632C19.7799 21.3202 21.1669 20.9132 22.0909 19.9502C23.0389 18.9432 23.3859 17.5402 23.4089 16.2032C23.4439 14.7212 23.1659 13.0912 22.0789 11.9812C21.0979 10.9852 19.6189 10.6462 18.2429 10.7252C17.4589 10.7252 16.7869 10.7022 16.0589 10.7702C15.8279 10.8382 15.8159 11.1212 15.8049 11.3252V14.9352V14.9362Z" fill="white"/>
</g>
<defs>
<clipPath id="clip0_301_1830">
<rect width="32" height="32" fill="white"/>
</clipPath>
</defs>
</svg>
