<svg width="32" height="32" viewBox="0 0 32 32" fill="none" xmlns="http://www.w3.org/2000/svg">
<g clip-path="url(#clip0_301_2418)">
<path d="M16 32C24.8366 32 32 24.8366 32 16C32 7.16344 24.8366 0 16 0C7.16344 0 0 7.16344 0 16C0 24.8366 7.16344 32 16 32Z" fill="#15073A"/>
<path d="M17.1438 6.42398C17.0882 6.38388 17.0493 6.32477 17.0343 6.25787C17.0194 6.19097 17.0295 6.12091 17.0628 6.06098C17.1094 6.03113 17.1635 6.01526 17.2188 6.01526C17.2741 6.01526 17.3283 6.03113 17.3748 6.06098C18.0795 6.35354 18.7175 6.7863 19.2498 7.33298C19.5528 7.61398 19.8068 7.94198 19.9998 8.30298C20.2038 8.67098 20.3708 9.05598 20.4998 9.45498C20.6228 9.86798 20.6868 10.297 20.6878 10.727C20.6248 11.152 20.5628 13.212 19.3748 14.182C19.2236 14.2729 19.0441 14.3046 18.8709 14.271C18.6977 14.2374 18.543 14.1408 18.4368 14C18.3519 13.9004 18.3003 13.7768 18.2892 13.6464C18.278 13.5161 18.308 13.3855 18.3748 13.273C18.8799 12.4911 19.1589 11.5847 19.1809 10.6541C19.203 9.72351 18.9673 8.80495 18.4998 7.99998C18.0998 7.43398 17.6458 6.90698 17.1438 6.42398ZM15.2998 25.006C15.4248 25.127 15.4248 25.248 15.3628 25.309C15.3008 25.37 15.1748 25.43 15.1128 25.369C14.4081 25.0764 13.7701 24.6437 13.2378 24.097C12.9357 23.8175 12.6823 23.4897 12.4878 23.127C12.2842 22.7604 12.1167 22.375 11.9878 21.976C11.8642 21.5629 11.8009 21.1341 11.7998 20.703C11.8628 20.279 11.9248 18.218 13.1128 17.248C13.2639 17.1573 13.4432 17.1258 13.6162 17.1594C13.7892 17.193 13.9436 17.2894 14.0498 17.43C14.1408 17.5294 14.1913 17.6592 14.1913 17.794C14.1913 17.9287 14.1408 18.0586 14.0498 18.158C13.5449 18.9398 13.266 19.846 13.244 20.7764C13.2219 21.7067 13.4575 22.6251 13.9248 23.43C14.3298 23.997 14.7908 24.525 15.2998 25.006Z" fill="white"/>
<path d="M20.6938 20.006C20.6033 18.8426 20.1432 17.7385 19.3808 16.855C18.609 16.0793 17.7239 15.4252 16.7558 14.915C15.9114 14.4483 15.1157 13.8982 14.3808 13.273C13.7764 12.705 13.3619 11.9643 13.1938 11.152C13.0446 10.3134 13.1512 9.44924 13.4998 8.67203C13.9175 7.80737 14.5164 7.04272 15.2558 6.43003C15.2974 6.39294 15.326 6.34348 15.3373 6.28893C15.3486 6.23437 15.3422 6.17762 15.3188 6.12703C15.301 6.09514 15.2761 6.0677 15.2462 6.04678C15.2162 6.02586 15.1819 6.01199 15.1458 6.00621C15.1098 6.00044 15.0728 6.00291 15.0378 6.01345C15.0029 6.02398 14.9707 6.0423 14.9438 6.06703C13.9478 6.50152 13.1004 7.21751 12.5058 8.12703C11.8408 9.08254 11.5293 10.2398 11.6248 11.4C11.6747 11.9862 11.8228 12.5599 12.0628 13.097C12.3226 13.6287 12.6596 14.119 13.0628 14.552C13.8575 15.3114 14.7636 15.9447 15.7498 16.43C16.5978 16.87 17.3948 17.399 18.1248 18.006C18.767 18.5695 19.188 19.3429 19.3128 20.188C19.4888 21.067 19.3788 21.978 18.9998 22.794C18.5744 23.6531 17.9534 24.4005 17.1868 24.976C17.1615 24.9906 17.1395 25.0104 17.1223 25.034C17.1052 25.0577 17.0932 25.0848 17.0873 25.1134C17.0813 25.142 17.0815 25.1716 17.0878 25.2001C17.0941 25.2287 17.1064 25.2556 17.1238 25.279C17.1588 25.343 17.2238 25.389 17.2968 25.4C17.3698 25.411 17.4458 25.39 17.4998 25.34C18.429 24.8036 19.2375 24.0812 19.8748 23.218C20.4948 22.26 20.7808 21.134 20.6938 20.006Z" fill="white"/>
</g>
<defs>
<clipPath id="clip0_301_2418">
<rect width="32" height="32" fill="white"/>
</clipPath>
</defs>
</svg>
