<svg width="32" height="32" viewBox="0 0 32 32" fill="none" xmlns="http://www.w3.org/2000/svg">
<g clip-path="url(#clip0_301_1801)">
<path d="M16 32C24.8366 32 32 24.8366 32 16C32 7.16344 24.8366 0 16 0C7.16344 0 0 7.16344 0 16C0 24.8366 7.16344 32 16 32Z" fill="#00ADED"/>
<path d="M10.0972 23.6031L10.0992 23.5991L13.2872 15.9831L10.0972 8.36813L15.9822 15.9831L10.1012 23.5981L10.0972 23.6031ZM21.8732 23.6031L21.8692 23.5981L15.9882 15.9831L21.8732 8.36813L18.6832 15.9831L21.8712 23.5991L21.8732 23.6031Z" fill="white"/>
<path d="M15.9852 15.9838V21.2898L10.0952 23.5998L15.9852 15.9798V10.6738L21.8752 8.3638L15.9852 15.9838Z" fill="white" fill-opacity="0.8"/>
<path d="M15.9852 21.29V25.9409L10.0952 23.597L15.9852 21.2819V15.9839L10.0952 8.36395L15.9852 10.6739V6.02295L21.8752 8.36595L15.9852 10.6809V15.9799L21.8752 23.5999L15.9852 21.29Z" fill="white" fill-opacity="0.5"/>
<path d="M10.0952 8.36595L15.9852 6.02295V10.6809L10.0952 8.36595ZM21.8752 23.597L15.9852 25.9409V21.2819L21.8752 23.597Z" fill="white" fill-opacity="0.145"/>
</g>
<defs>
<clipPath id="clip0_301_1801">
<rect width="32" height="32" fill="white"/>
</clipPath>
</defs>
</svg>
