<svg width="32" height="32" viewBox="0 0 32 32" fill="none" xmlns="http://www.w3.org/2000/svg">
<g clip-path="url(#clip0_301_1782)">
<path d="M16 32C24.8366 32 32 24.8366 32 16C32 7.16344 24.8366 0 16 0C7.16344 0 0 7.16344 0 16C0 24.8366 7.16344 32 16 32Z" fill="#2F2F2F"/>
<path fill-rule="evenodd" clip-rule="evenodd" d="M25.1489 10.295C25.2629 10.355 25.5239 10.497 25.4989 10.806L25.4829 21.223C25.4903 21.3213 25.467 21.4194 25.4163 21.5039C25.3657 21.5884 25.29 21.6552 25.1999 21.695L22.8999 23.038L21.0799 24.1L16.2359 26.928C16.1745 26.975 16.0992 27.0003 16.0219 27C15.9245 26.9968 15.8299 26.9663 15.7489 26.912L12.4069 24.984C10.5509 23.913 8.6309 22.805 6.7389 21.717C6.5799 21.64 6.4869 21.461 6.5009 21.257L6.5079 18.505C6.5139 16.029 6.5179 13.514 6.5199 11.082V11.072C6.52128 11.0554 6.52162 11.0387 6.5209 11.022V10.991C6.5169 10.856 6.5109 10.579 6.7709 10.454C7.8309 9.821 8.9149 9.178 9.9639 8.556L11.7009 7.526C13.0229 6.743 14.3689 5.944 15.6709 5.171L15.6809 5.165C15.7661 5.11627 15.855 5.07447 15.9469 5.04L16.0499 5L16.1459 5.057C17.0919 5.605 18.0539 6.165 18.9829 6.707L20.7189 7.717L22.4139 8.703L25.0809 10.255H25.0829L25.0849 10.257L25.1489 10.295ZM16.3799 25.965L19.3419 24.235C21.138 23.188 22.9336 22.1403 24.7289 21.092L24.7389 15.243L24.7439 11.378L20.8939 13.63V15.406C20.8895 16.5143 20.8915 17.6227 20.8999 18.731V18.807L20.8549 18.869C20.8058 18.9349 20.743 18.9895 20.6709 19.029L20.6449 19.045H20.6439L19.3999 19.77C18.9499 20.03 18.4849 20.3 18.0299 20.567L16.3859 21.522L16.3799 25.965ZM12.1839 13.41C13.0247 13.8933 13.866 14.3756 14.7079 14.857L16.0119 15.606L19.7889 13.398L16.0059 11.166L12.1839 13.41ZM11.7939 14.06L11.8649 18.449L15.6329 20.644L15.6389 16.265L11.7939 14.06ZM7.2739 11.466L7.2549 21.141L15.6289 25.971L15.6319 21.52L13.9919 20.565L12.9639 19.966C12.4369 19.66 11.8919 19.343 11.3569 19.03C11.2019 18.957 11.1049 18.779 11.1159 18.584L11.0349 13.625L7.2739 11.466ZM24.3679 10.72L22.8989 9.864L21.2769 8.919C19.7329 8.023 17.9019 6.959 16.0129 5.853C14.0998 6.98342 12.1878 8.11575 10.2769 9.25L7.6509 10.807L11.4289 12.972L15.7629 10.427C15.8378 10.3788 15.9254 10.354 16.0144 10.3557C16.1035 10.3575 16.19 10.3858 16.2629 10.437L20.5389 12.958L24.3679 10.72ZM16.3859 20.647C17.6491 19.9109 18.9131 19.1762 20.1779 18.443V14.05L16.3889 16.264L16.3859 20.647ZM21.5129 19.854C21.4753 19.8654 21.4362 19.8712 21.3969 19.871C21.3438 19.8718 21.2911 19.8618 21.2419 19.8417C21.1928 19.8216 21.1482 19.7918 21.1109 19.754C21.0505 19.6996 21.0054 19.6304 20.98 19.5532C20.9546 19.4761 20.9497 19.3936 20.9659 19.314C20.9828 19.21 21.0357 19.1152 21.1154 19.0463C21.1951 18.9774 21.2965 18.9387 21.4019 18.937C21.5249 18.937 21.6449 18.993 21.7319 19.09L21.7329 19.092C21.793 19.1596 21.8324 19.2431 21.8462 19.3325C21.86 19.4219 21.8478 19.5134 21.8109 19.596C21.7856 19.6598 21.7453 19.7165 21.6934 19.7614C21.6416 19.8064 21.5796 19.8381 21.5129 19.854ZM23.5769 21.262C23.5185 21.2165 23.4723 21.1572 23.4423 21.0896C23.4123 21.0219 23.3994 20.9478 23.4049 20.874C23.4129 20.715 23.4949 20.574 23.6269 20.494C23.6924 20.4513 23.7687 20.4284 23.8469 20.428C23.9329 20.428 24.0169 20.455 24.0909 20.505C24.165 20.5536 24.2235 20.6226 24.2594 20.7037C24.2952 20.7848 24.3068 20.8745 24.2929 20.962C24.2797 21.0721 24.2269 21.1735 24.1442 21.2474C24.0615 21.3212 23.9547 21.3623 23.8439 21.363C23.7456 21.3627 23.6508 21.3268 23.5769 21.262ZM10.3879 18.942C10.5129 18.942 10.6319 18.999 10.7149 19.098C10.7744 19.1643 10.8133 19.2465 10.827 19.3346C10.8407 19.4226 10.8285 19.5127 10.7919 19.594C10.7581 19.6762 10.7004 19.7463 10.6262 19.7952C10.552 19.8441 10.4647 19.8694 10.3759 19.868C10.309 19.8655 10.2434 19.8483 10.1838 19.8177C10.1243 19.787 10.0722 19.7435 10.0314 19.6905C9.99053 19.6374 9.96186 19.576 9.94743 19.5105C9.933 19.4451 9.93316 19.3773 9.9479 19.312C9.96797 19.2094 10.0226 19.1167 10.1026 19.0494C10.1827 18.9821 10.2833 18.9442 10.3879 18.942ZM22.3439 20.518C22.2804 20.4649 22.2321 20.3959 22.2038 20.3181C22.1756 20.2404 22.1684 20.1565 22.1829 20.075C22.1991 19.9692 22.2517 19.8723 22.3317 19.8011C22.4116 19.73 22.5139 19.6889 22.6209 19.685C22.7309 19.685 22.8369 19.729 22.9209 19.807C23.0479 19.925 23.1009 20.096 23.0589 20.256C23.0449 20.3311 23.0116 20.4013 22.9621 20.4595C22.9126 20.5178 22.8488 20.5621 22.7769 20.588C22.705 20.616 22.627 20.6244 22.5509 20.612C22.4747 20.5997 22.4032 20.5673 22.3439 20.518ZM9.4389 19.795C9.5719 19.905 9.6339 20.08 9.5999 20.242C9.58907 20.3145 9.56012 20.3832 9.51572 20.4416C9.47132 20.4999 9.41291 20.5462 9.3459 20.576H9.3449C9.28548 20.6042 9.22066 20.6192 9.1549 20.62C9.07622 20.6189 8.99938 20.5961 8.9329 20.554C8.85849 20.5075 8.79867 20.4411 8.76029 20.3622C8.72192 20.2833 8.70653 20.1952 8.7159 20.108C8.72132 20.0219 8.75147 19.9392 8.80274 19.8699C8.854 19.8005 8.9242 19.7474 9.0049 19.717C9.05387 19.696 9.1066 19.6851 9.1599 19.685C9.2599 19.685 9.3569 19.723 9.4389 19.795ZM15.9489 6.167C16.0789 6.167 16.2019 6.223 16.2889 6.321C16.3959 6.434 16.4359 6.591 16.3959 6.741C16.3765 6.82785 16.331 6.90672 16.2656 6.9671C16.2002 7.02749 16.118 7.06652 16.0299 7.079H16.0249C15.9345 7.09677 15.8408 7.08703 15.7559 7.05102C15.6711 7.01501 15.599 6.9544 15.5489 6.877C15.5067 6.8119 15.482 6.737 15.4773 6.65955C15.4725 6.5821 15.4879 6.50475 15.5219 6.435L15.5229 6.433C15.5552 6.36381 15.6043 6.30384 15.6658 6.25859C15.7274 6.21333 15.7992 6.18425 15.8749 6.174C15.8996 6.16945 15.9247 6.1671 15.9499 6.167H15.9489ZM8.1499 20.49C8.2949 20.572 8.3829 20.72 8.3819 20.88C8.38618 20.9606 8.36889 21.0409 8.3318 21.1127C8.29471 21.1844 8.23917 21.2449 8.1709 21.288C8.09833 21.3355 8.01364 21.3612 7.9269 21.362C7.85528 21.3626 7.78482 21.344 7.7229 21.308C7.65027 21.2678 7.58995 21.2086 7.54838 21.1367C7.50681 21.0648 7.48556 20.983 7.4869 20.9C7.4869 20.727 7.5759 20.57 7.7179 20.49C7.78308 20.4507 7.85776 20.4299 7.9339 20.4299C8.01003 20.4299 8.08472 20.4507 8.1499 20.49ZM16.1899 9.205C16.2605 9.24891 16.3178 9.31119 16.3556 9.38518C16.3935 9.45917 16.4105 9.54207 16.4049 9.625C16.3993 9.70722 16.3709 9.78625 16.3228 9.8532C16.2748 9.92016 16.209 9.97238 16.1329 10.004C16.0701 10.0326 16.0019 10.0476 15.9329 10.048C15.8304 10.0491 15.7306 10.0152 15.6499 9.952C15.5883 9.90648 15.5396 9.84582 15.5084 9.77591C15.4772 9.706 15.4647 9.62921 15.4719 9.553C15.4761 9.47741 15.4998 9.40419 15.5406 9.34042C15.5814 9.27666 15.638 9.2245 15.7049 9.189C15.7736 9.14944 15.8516 9.12874 15.9309 9.129C16.0231 9.12885 16.1133 9.15523 16.1909 9.205H16.1899ZM15.6199 8.447C15.5674 8.40081 15.5266 8.34283 15.5009 8.27781C15.4752 8.21279 15.4652 8.1426 15.4719 8.073V8.07C15.4785 7.99832 15.5017 7.92917 15.5397 7.86806C15.5777 7.80694 15.6295 7.75556 15.6909 7.718C15.7632 7.66992 15.8481 7.64451 15.9349 7.645C16.0149 7.645 16.0949 7.666 16.1679 7.705L16.1689 7.706C16.2423 7.74553 16.3033 7.80473 16.345 7.87697C16.3867 7.94921 16.4074 8.03163 16.4049 8.115C16.4041 8.20273 16.3777 8.28832 16.3288 8.36119C16.2799 8.43405 16.2108 8.491 16.1299 8.525C16.0671 8.55362 15.9989 8.56861 15.9299 8.569C15.8146 8.57032 15.7034 8.52654 15.6199 8.447Z" fill="white"/>
</g>
<defs>
<clipPath id="clip0_301_1782">
<rect width="32" height="32" fill="white"/>
</clipPath>
</defs>
</svg>
