<svg width="32" height="32" viewBox="0 0 32 32" fill="none" xmlns="http://www.w3.org/2000/svg">
<g clip-path="url(#clip0_301_1776)">
<path d="M32 16C32 19.1645 31.0616 22.2579 29.3035 24.8891C27.5454 27.5203 25.0466 29.5711 22.1229 30.7821C19.1993 31.9931 15.9823 32.3099 12.8786 31.6926C9.77487 31.0752 6.92394 29.5514 4.6863 27.3137C2.44866 25.0761 0.924806 22.2251 0.307443 19.1214C-0.309921 16.0177 0.00693248 12.8007 1.21793 9.87707C2.42894 6.95345 4.4797 4.45459 7.11088 2.69649C9.74207 0.938384 12.8355 0 16 0C20.2435 0 24.3131 1.68571 27.3137 4.68629C30.3143 7.68687 32 11.7565 32 16Z" fill="#9D4BEF"/>
<path fill-rule="evenodd" clip-rule="evenodd" d="M13.579 -2.41394C9.59665 -2.41394 4.94107 -1.09994 1.21024 2.50492C-2.66926 6.25341 -4.31494 11.277 -4.31494 16.2889C-4.31494 21.7805 -2.23037 26.9726 2.15378 30.5018C3.9492 31.9472 5.85321 32.8894 7.68505 33.4861V38.2396L26.0601 38.2396L26.0601 34.4139V21.5861V10.4139V-2.41394H13.579Z" fill="white"/>
</g>
<defs>
<clipPath id="clip0_301_1776">
<rect width="32" height="32" fill="white"/>
</clipPath>
</defs>
</svg>
