<svg width="32" height="32" viewBox="0 0 32 32" fill="none" xmlns="http://www.w3.org/2000/svg">
<g clip-path="url(#clip0_301_1768)">
<path d="M16 32C24.8366 32 32 24.8366 32 16C32 7.16344 24.8366 0 16 0C7.16344 0 0 7.16344 0 16C0 24.8366 7.16344 32 16 32Z" fill="#FA5836"/>
<path d="M14.7371 4.50198C14.6291 4.51698 14.2121 4.59498 13.8111 4.65598C11.5731 5.03398 9.50611 6.12998 7.79311 7.84998C6.07311 9.56297 5.02311 11.546 4.58311 13.907C4.38311 14.98 4.38311 17.078 4.58311 18.151C5.02311 20.511 6.07311 22.494 7.79311 24.207C9.50611 25.927 11.4881 26.977 13.8491 27.417C14.9221 27.617 17.0201 27.617 18.0931 27.417C20.4531 26.977 22.4371 25.927 24.1501 24.207C25.8701 22.494 26.9201 20.512 27.3601 18.151C27.5601 17.078 27.5601 14.98 27.3601 13.907C26.9201 11.547 25.8701 9.56297 24.1501 7.84998C22.4751 6.16798 20.5851 5.14198 18.2941 4.67998C17.5841 4.53298 15.2231 4.41698 14.7371 4.50198ZM18.8571 8.59198C18.9491 8.62998 18.9801 8.74498 18.9801 9.05398V9.47097H18.4941C17.8771 9.47097 17.3911 9.70198 17.1901 10.088C17.0591 10.335 17.0511 10.636 17.0511 14.293C17.0511 16.453 17.0211 18.266 16.9901 18.32C16.8281 18.567 15.6401 18.637 15.1071 18.428L14.8911 18.343V14.355C14.8911 10.635 14.8831 10.335 14.7521 10.088C14.5521 9.70198 14.0651 9.47097 13.4481 9.47097H12.9621V9.05398C12.9621 8.79198 13.0011 8.62197 13.0621 8.59898C13.2021 8.53698 18.7101 8.53697 18.8571 8.59097V8.59198ZM14.4281 11.808V12.758L14.2041 12.888C13.8731 13.082 13.3171 13.66 13.0941 14.038C12.9586 14.2858 12.8497 14.5472 12.7691 14.818L12.6461 15.258H11.7591C10.7481 15.258 10.7791 15.296 10.9951 14.448C11.2651 13.421 11.9211 12.379 12.7151 11.747C13.1551 11.392 14.1271 10.859 14.3201 10.859C14.4051 10.859 14.4281 11.06 14.4281 11.809V11.808ZM18.2551 11.13C18.9143 11.4592 19.4956 11.9254 19.9601 12.4975C20.4245 13.0695 20.7614 13.7342 20.9481 14.447C21.1641 15.296 21.1951 15.257 20.1841 15.257H19.2971L19.1731 14.817C19.0928 14.5466 18.9842 14.2855 18.8491 14.038C18.6251 13.66 18.0691 13.082 17.7381 12.888L17.5141 12.758V11.808C17.5141 11.06 17.5371 10.859 17.6221 10.859C17.6761 10.859 17.9621 10.983 18.2551 11.129V11.13ZM12.6541 15.983C12.6541 16.345 12.8931 17.086 13.1401 17.472C14.4591 19.562 17.4831 19.562 18.8031 17.472C19.0501 17.086 19.2891 16.345 19.2891 15.982V15.72H21.1331L21.0941 16.121C20.9011 17.996 19.8671 19.509 18.2471 20.311C17.4991 20.681 16.8431 20.836 15.9711 20.836C13.2711 20.836 11.1341 18.868 10.8481 16.121L10.8101 15.721H12.6541V15.983ZM17.0901 21.561C17.1901 22.101 17.7461 22.433 18.5791 22.433H18.9801V23.281H12.9621V22.455L13.5251 22.417C13.8881 22.394 14.1811 22.325 14.3431 22.232C14.5831 22.093 14.8911 21.63 14.8911 21.414C14.8911 21.337 15.1381 21.314 15.9631 21.314H17.0431L17.0901 21.561Z" fill="#FEFFFF"/>
</g>
<defs>
<clipPath id="clip0_301_1768">
<rect width="32" height="32" fill="white"/>
</clipPath>
</defs>
</svg>
