<svg width="32" height="32" viewBox="0 0 32 32" fill="none" xmlns="http://www.w3.org/2000/svg">
<g clip-path="url(#clip0_301_1762)">
<path d="M16 32C24.8366 32 32 24.8366 32 16C32 7.16344 24.8366 0 16 0C7.16344 0 0 7.16344 0 16C0 24.8366 7.16344 32 16 32Z" fill="#443F54"/>
<path opacity="0.7" d="M15.5079 26.7079C14.0919 25.8459 12.3689 24.7999 10.9539 23.9379C10.3379 23.5689 9.66185 23.1999 9.04585 22.7689C8.79985 22.5849 8.79985 22.3999 8.79985 22.2769C9.41485 19.3849 10.0919 16.2469 10.7699 13.4149L10.3379 12.0619C10.3379 12.0619 8.86185 19.1379 8.12285 22.2769C7.99985 22.7069 8.12285 22.9539 8.55285 23.1999C10.9529 24.6149 15.8148 27.6919 15.8148 27.6919L15.5079 26.7079ZM16.6769 26.7079C18.0919 25.8459 19.8149 24.7999 21.2309 23.9379C21.8459 23.5689 22.5229 23.1999 23.1379 22.7689C23.3849 22.5849 23.3849 22.3999 23.3849 22.2769C22.7689 19.3849 22.0919 16.2469 21.4149 13.4149L21.9079 12.1229C21.9079 12.1229 23.3849 19.1379 24.0619 22.2769C24.1849 22.7069 24.0619 22.9539 23.6309 23.1999C21.2309 24.6149 16.3688 27.6919 16.3688 27.6919L16.6769 26.7079ZM21.3539 12.1849L21.1079 11.8149H11.1378L10.8919 12.1849C10.8919 12.1849 11.0769 12.6769 11.0149 12.4919H21.2919C21.1688 12.6149 21.3539 12.1849 21.3539 12.1849Z" fill="#FEFFFE"/>
<path d="M21.6616 11.63C21.6616 11.63 18.2766 6.70898 16.7996 4.55498C16.4916 4.18498 16.3076 4.00098 16.1226 4.00098C15.9376 4.00098 15.6926 4.18598 15.4456 4.55498C13.9686 6.64698 10.5846 11.632 10.5846 11.632C10.2766 12.062 10.2766 12.186 10.5226 12.739C10.5226 12.739 12.9226 19.386 13.9076 22.339C14.3996 23.693 15.6916 27.57 15.6916 27.57C15.7536 27.693 15.9996 27.755 16.1226 27.755C16.2836 27.7475 16.4364 27.6817 16.5526 27.57C16.5526 27.57 17.9076 23.693 18.3376 22.34C19.3226 19.447 21.7226 12.74 21.7226 12.74C21.9686 12.186 21.9686 12.063 21.6616 11.632V11.63ZM16.1226 25.538C14.5551 21.0693 12.9961 16.5976 11.4456 12.123C11.4456 12.123 14.7686 7.26198 16.0616 5.35298C17.3536 7.26198 20.6766 12.123 20.6766 12.123C20.6766 12.123 17.5376 21.353 16.1226 25.538Z" fill="#FEFFFE"/>
</g>
<defs>
<clipPath id="clip0_301_1762">
<rect width="32" height="32" fill="white"/>
</clipPath>
</defs>
</svg>
