<svg width="32" height="32" viewBox="0 0 32 32" fill="none" xmlns="http://www.w3.org/2000/svg">
<g clip-path="url(#clip0_301_1750)">
<path d="M16 32C24.8366 32 32 24.8366 32 16C32 7.16344 24.8366 0 16 0C7.16344 0 0 7.16344 0 16C0 24.8366 7.16344 32 16 32Z" fill="#C9A35E"/>
<path d="M10.0268 19.38C9.99644 19.4428 9.94901 19.4958 9.88995 19.5329C9.83089 19.5701 9.76258 19.5898 9.69282 19.59H5.61982C5.55604 19.5896 5.49348 19.5726 5.43825 19.5406C5.38303 19.5087 5.33705 19.463 5.30482 19.408C5.27044 19.3524 5.2514 19.2887 5.24965 19.2233C5.24789 19.158 5.26347 19.0934 5.29482 19.036L12.6988 5.69C12.8318 5.451 13.2138 5.451 13.3468 5.69L19.1188 16.068C19.1478 16.1261 19.162 16.1904 19.1602 16.2552C19.1585 16.3201 19.1408 16.3836 19.1088 16.44C19.0783 16.4964 19.0326 16.5432 18.977 16.5752C18.9214 16.6071 18.8579 16.623 18.7938 16.621H17.1058C17.04 16.62 16.9756 16.602 16.9188 16.5687C16.862 16.5354 16.8148 16.488 16.7818 16.431L13.0318 9.611L8.83582 17.366H10.4378C10.5003 17.3664 10.5618 17.3822 10.6167 17.412C10.6717 17.4419 10.7184 17.4848 10.7528 17.537C10.7862 17.591 10.8055 17.6526 10.8088 17.7161C10.8121 17.7795 10.7994 17.8428 10.7718 17.9L10.0278 19.378L10.0268 19.38ZM26.7008 19.036C26.7343 19.0927 26.7511 19.1576 26.7494 19.2234C26.7476 19.2892 26.7273 19.3532 26.6908 19.408C26.6603 19.4643 26.6148 19.5109 26.5594 19.5429C26.504 19.5749 26.4408 19.5908 26.3768 19.589H15.2638C15.1652 19.589 15.0705 19.5498 15.0008 19.48C14.931 19.4103 14.8918 19.3157 14.8918 19.217V17.74C14.8918 17.53 15.0628 17.368 15.2638 17.368H23.1718L18.9838 9.64L18.1918 11.223C18.0588 11.471 17.6488 11.471 17.5248 11.223L16.7808 9.745C16.7572 9.69249 16.745 9.63558 16.745 9.578C16.745 9.52042 16.7572 9.46351 16.7808 9.411L18.6308 5.701C18.6631 5.64257 18.7099 5.5934 18.7666 5.55821C18.8233 5.52301 18.8881 5.50297 18.9548 5.5C19.0222 5.50014 19.0883 5.51771 19.1468 5.55101C19.2054 5.58431 19.2543 5.63219 19.2888 5.69L26.7008 19.036ZM21.8838 20.514L23.7238 23.853C23.7567 23.9095 23.774 23.9737 23.774 24.039C23.774 24.1043 23.7567 24.1685 23.7238 24.225C23.6933 24.2813 23.6478 24.3279 23.5924 24.3599C23.537 24.3919 23.4738 24.4078 23.4098 24.406H8.58682C8.52083 24.4052 8.45618 24.3873 8.39921 24.3539C8.34224 24.3206 8.2949 24.2731 8.26182 24.216C8.23029 24.1585 8.2146 24.0937 8.21635 24.0281C8.21811 23.9626 8.23725 23.8987 8.27182 23.843L11.2378 19.026L14.1948 13.846C14.2618 13.723 14.3948 13.646 14.5288 13.656C14.5965 13.6543 14.6633 13.6723 14.721 13.7078C14.7787 13.7433 14.8248 13.7948 14.8538 13.856L15.5978 15.335C15.6268 15.3897 15.6411 15.451 15.6394 15.5128C15.6376 15.5747 15.6199 15.635 15.5878 15.688L11.8298 22.174H20.1668L19.3938 20.886C19.3573 20.8312 19.3371 20.7672 19.3353 20.7014C19.3335 20.6356 19.3503 20.5707 19.3838 20.514C19.4169 20.4569 19.4642 20.4094 19.5212 20.3761C19.5782 20.3427 19.6428 20.3248 19.7088 20.324H21.5588C21.6928 20.324 21.8168 20.4 21.8838 20.514Z" fill="white"/>
</g>
<defs>
<clipPath id="clip0_301_1750">
<rect width="32" height="32" fill="white"/>
</clipPath>
</defs>
</svg>
