<svg width="32" height="32" viewBox="0 0 32 32" fill="none" xmlns="http://www.w3.org/2000/svg">
<g clip-path="url(#clip0_301_1746)">
<path d="M16 32C24.8366 32 32 24.8366 32 16C32 7.16344 24.8366 0 16 0C7.16344 0 0 7.16344 0 16C0 24.8366 7.16344 32 16 32Z" fill="#F68922"/>
<path d="M16.7201 10.0778C16.7201 10.0778 12.5931 10.6838 11.9921 15.2708C11.9921 15.2708 11.3541 20.4048 16.6001 21.7908C16.9634 21.8862 17.3375 21.9343 17.7131 21.9338H17.9711C18.5051 21.9338 19.0171 22.1478 19.3951 22.5278C19.7731 22.9078 19.9851 23.4238 19.9851 23.9618C19.9887 24.4711 19.7993 24.9628 19.4549 25.3379C19.1105 25.7131 18.6368 25.9439 18.1291 25.9838C15.5501 26.1578 12.0891 24.8918 9.84313 21.8478C9.84313 21.8478 5.44413 15.5228 10.2381 9.71083C11.3694 8.32916 12.8445 7.26965 14.5151 6.63883C16.4851 5.90183 19.3711 5.42783 21.8761 7.39483C21.8761 7.39483 25.2291 9.99183 23.5101 14.2318C23.5101 14.2318 22.3061 17.6068 18.1801 17.8668L17.6071 17.8348C17.3357 17.8277 17.069 17.7623 16.825 17.6431C16.581 17.5238 16.3656 17.3536 16.1931 17.1438C16.0199 16.9332 15.8935 16.6881 15.8222 16.4248C15.751 16.1615 15.7367 15.8861 15.7801 15.6168C15.8494 15.1797 16.0688 14.7804 16.4005 14.4875C16.7323 14.1945 17.1558 14.0264 17.5981 14.0118L18.1801 13.9718C18.1801 13.9718 20.1571 13.8858 19.9851 11.5488C19.9851 11.5488 19.8131 9.47183 16.7191 10.0788" fill="white"/>
</g>
<defs>
<clipPath id="clip0_301_1746">
<rect width="32" height="32" fill="white"/>
</clipPath>
</defs>
</svg>
