<svg width="32" height="32" viewBox="0 0 32 32" fill="none" xmlns="http://www.w3.org/2000/svg">
<g clip-path="url(#clip0_301_1713)">
<path d="M16 32C24.8366 32 32 24.8366 32 16C32 7.16344 24.8366 0 16 0C7.16344 0 0 7.16344 0 16C0 24.8366 7.16344 32 16 32Z" fill="#00FFBA"/>
<path d="M10.8711 10.9039C10.5965 11.1849 10.4272 11.552 10.3919 11.9433C10.3566 12.3347 10.4573 12.7262 10.6771 13.0519C10.8325 13.2858 11.0437 13.4773 11.2916 13.6093C11.5395 13.7413 11.8163 13.8095 12.0971 13.8079C12.6775 13.808 13.2341 14.0387 13.6445 14.4492C14.0548 14.8597 14.2852 15.4164 14.2851 15.9969C14.285 16.5773 14.0543 17.1339 13.6438 17.5442C13.2332 17.9545 12.6765 18.185 12.0961 18.1849C10.8888 18.1853 9.70856 17.8267 8.70562 17.1545C7.70268 16.4824 6.92232 15.5271 6.4638 14.4102C6.00527 13.2933 5.88931 12.0653 6.13064 10.8823C6.37198 9.69934 6.95972 8.61488 7.8191 7.76686C8.89564 6.70202 10.3306 6.07689 11.8435 6.01364C13.3563 5.9504 14.8384 6.45359 16.0001 7.42486C15.3164 7.99647 14.7666 8.71128 14.3895 9.51876C14.0125 10.3262 13.8174 11.2067 13.8181 12.0979C13.8178 12.6761 14.0464 13.2309 14.454 13.6411C14.8615 14.0513 15.4149 14.2834 15.9931 14.2869C15.7057 14.2869 15.4211 14.2302 15.1556 14.1202C14.89 14.0102 14.6488 13.8489 14.4456 13.6457C14.2424 13.4424 14.0813 13.2011 13.9714 12.9355C13.8615 12.6699 13.805 12.3853 13.8051 12.0979C13.8068 11.7576 13.7057 11.4247 13.5151 11.1429C13.3289 10.8672 13.0671 10.6513 12.7611 10.5209C12.5505 10.4327 12.3244 10.3874 12.0961 10.3874C11.8678 10.3874 11.6417 10.4327 11.4311 10.5209C11.2208 10.6099 11.0304 10.7402 10.8711 10.9039ZM25.5111 17.5319C25.9762 18.6343 26.1064 19.8493 25.8855 21.0253C25.6647 22.2013 25.1025 23.2863 24.2691 24.1449C23.4253 25.0143 22.3412 25.612 21.1556 25.8614C19.9699 26.1109 18.7369 26.0006 17.6143 25.5448C16.4917 25.089 15.5308 24.3084 14.8547 23.3031C14.1785 22.2978 13.8179 21.1134 13.8191 19.9019C13.8129 19.6107 13.8649 19.3211 13.972 19.0503C14.0791 18.7794 14.2393 18.5327 14.443 18.3246C14.6467 18.1164 14.89 17.951 15.1585 17.8381C15.427 17.7252 15.7153 17.6671 16.0066 17.6671C16.2979 17.6671 16.5862 17.7252 16.8547 17.8381C17.1232 17.951 17.3665 18.1164 17.5702 18.3246C17.7739 18.5327 17.9341 18.7794 18.0412 19.0503C18.1483 19.3211 18.2003 19.6107 18.1941 19.9019C18.1925 20.2387 18.2909 20.5684 18.477 20.8491C18.663 21.1299 18.9283 21.3491 19.2391 21.4789C19.6691 21.6589 20.1521 21.6569 20.5801 21.4739C20.9893 21.2967 21.3138 20.9675 21.4851 20.5559C21.656 20.1384 21.6557 19.6704 21.4843 19.2531C21.3129 18.8358 20.9841 18.5027 20.5691 18.3259C20.3587 18.2368 20.1325 18.1912 19.9041 18.1919C19.3237 18.1919 18.767 17.9613 18.3566 17.5509C17.9462 17.1404 17.7156 16.5838 17.7156 16.0034C17.7156 15.4229 17.9462 14.8663 18.3566 14.4559C18.767 14.0454 19.3237 13.8149 19.9041 13.8149C21.1006 13.8142 22.2706 14.1665 23.2678 14.8277C24.265 15.4889 25.045 16.4295 25.5101 17.5319H25.5111Z" fill="white"/>
<path opacity="0.7" d="M15.9941 17.7137C17.2021 17.7137 18.1821 18.6937 18.1821 19.9017C18.1829 21.1151 17.8209 22.3011 17.1425 23.3073C16.4642 24.3135 15.5005 25.0938 14.3752 25.5481C13.25 26.0024 12.0146 26.1099 10.8279 25.8568C9.64107 25.6037 8.55707 25.0015 7.71511 24.1277C6.88576 23.2679 6.32772 22.1831 6.11051 21.0085C5.8933 19.8338 6.02652 18.6212 6.49359 17.5217C6.96065 16.4222 7.7409 15.4845 8.73714 14.8253C9.73337 14.1661 10.9015 13.8146 12.0961 13.8147C12.6765 13.8147 13.2332 14.0452 13.6436 14.4557C14.054 14.8661 14.2846 15.4227 14.2846 16.0032C14.2846 16.5836 14.054 17.1402 13.6436 17.5507C13.2332 17.9611 12.6765 18.1917 12.0961 18.1917C11.7561 18.1907 11.4241 18.2917 11.1421 18.4817C10.8663 18.6681 10.6503 18.9303 10.5201 19.2367C10.3901 19.5453 10.3535 19.8854 10.4151 20.2146C10.4766 20.5438 10.6334 20.8478 10.8661 21.0887V21.0907C11.1448 21.38 11.5167 21.5617 11.9162 21.6038C12.3157 21.6459 12.7173 21.5456 13.0501 21.3207C13.2834 21.1647 13.4744 20.9534 13.6062 20.7056C13.7379 20.4578 13.8062 20.1813 13.8051 19.9007C13.8051 18.6937 14.7851 17.7137 15.9941 17.7137ZM25.3201 9.31766C25.7959 10.2459 26.0253 11.2807 25.9864 12.323C25.9474 13.3653 25.6414 14.3802 25.0977 15.2703C24.554 16.1604 23.7908 16.896 22.8812 17.4064C21.9716 17.9169 20.9462 18.1852 19.9031 18.1857C19.3226 18.1857 18.7658 17.955 18.3553 17.5445C17.9447 17.134 17.7141 16.5772 17.7141 15.9967C17.7141 15.4161 17.9447 14.8593 18.3553 14.4488C18.7658 14.0383 19.3226 13.8077 19.9031 13.8077C20.2396 13.808 20.5688 13.709 20.8493 13.5231C21.1298 13.3372 21.3492 13.0727 21.4801 12.7627C21.5763 12.5324 21.6213 12.2841 21.612 12.0347C21.6027 11.7854 21.5393 11.541 21.4261 11.3187C21.3166 11.1028 21.1624 10.9128 20.9738 10.7612C20.7852 10.6096 20.5665 10.4998 20.3321 10.4393C20.0978 10.3788 19.8533 10.3688 19.6149 10.4101C19.3764 10.4513 19.1495 10.5429 18.9491 10.6787C18.7155 10.8344 18.5242 11.0456 18.3923 11.2935C18.2603 11.5413 18.1919 11.8179 18.1931 12.0987C18.1993 12.3899 18.1472 12.6794 18.04 12.9502C17.9328 13.221 17.7726 13.4677 17.5689 13.6758C17.3651 13.8839 17.1218 14.0492 16.8532 14.1621C16.5847 14.2749 16.2964 14.333 16.0051 14.3329C15.7138 14.3329 15.4255 14.2746 15.157 14.1617C14.8886 14.0487 14.6454 13.8833 14.4417 13.6751C14.238 13.4669 14.0779 13.2201 13.9708 12.9493C13.8637 12.6784 13.8118 12.3889 13.8181 12.0977C13.8174 10.9693 14.1305 9.86296 14.7223 8.90226C15.3141 7.94155 16.1614 7.16433 17.1695 6.65743C18.1776 6.15053 19.3068 5.93391 20.4309 6.03179C21.555 6.12966 22.6298 6.53816 23.5351 7.21166L23.5391 7.21466C24.285 7.77082 24.8938 8.49015 25.3191 9.31766H25.3201Z" fill="white"/>
</g>
<defs>
<clipPath id="clip0_301_1713">
<rect width="32" height="32" fill="white"/>
</clipPath>
</defs>
</svg>
