<svg width="32" height="32" viewBox="0 0 32 32" fill="none" xmlns="http://www.w3.org/2000/svg">
<g clip-path="url(#clip0_301_2408)">
<path d="M16 32C24.8366 32 32 24.8366 32 16C32 7.16344 24.8366 0 16 0C7.16344 0 0 7.16344 0 16C0 24.8366 7.16344 32 16 32Z" fill="#00BFEC"/>
<path d="M15.9709 23.15C12.0139 23.15 8.79492 19.951 8.79492 16.02C8.79492 12.088 12.0149 8.89002 15.9709 8.89002C19.9279 8.89002 23.1469 12.088 23.1469 16.02C23.1469 19.951 19.9279 23.15 15.9709 23.15ZM15.9709 10.286C12.7899 10.286 10.2009 12.858 10.2009 16.02C10.2009 19.181 12.7899 21.753 15.9709 21.753C19.1529 21.753 21.7409 19.181 21.7409 16.02C21.7409 12.858 19.1529 10.286 15.9709 10.286ZM20.9959 7.87102C19.4821 6.94922 17.7433 6.46272 15.9709 6.46502C14.3394 6.46434 12.7343 6.87646 11.3049 7.66302L10.6209 6.44302C12.2595 5.54014 14.1 5.06677 15.9709 5.06702C18.0109 5.06702 20.0029 5.62502 21.7319 6.68102L20.9959 7.87102ZM23.0909 24.381L22.1819 23.314C23.2478 22.4208 24.1051 21.3048 24.6934 20.0446C25.2816 18.7845 25.5866 17.4107 25.5869 16.02H26.9929C26.9929 19.246 25.5709 22.293 23.0909 24.38V24.381ZM15.9709 26.971C13.4139 26.971 10.9219 26.081 8.95492 24.466L9.85092 23.39C11.5777 24.8027 13.7399 25.5747 15.9709 25.575C17.5309 25.575 19.0189 25.215 20.3929 24.507L21.0399 25.747C19.4714 26.5518 17.7339 26.9718 15.9709 26.972V26.971Z" fill="white"/>
<path opacity="0.5" d="M25.3499 13.425C24.9823 12.1063 24.3357 10.882 23.4539 9.83496L24.3539 9.08896C25.3424 10.2629 26.0671 11.6355 26.4789 13.114L25.3509 13.425H25.3499ZM6.8599 21.976C5.68795 20.2109 5.06412 18.1387 5.0669 16.02C5.0669 13.058 6.2469 10.292 8.3899 8.23096L9.2039 9.06796C8.26315 9.96445 7.51497 11.0433 7.00502 12.2385C6.49507 13.4338 6.23405 14.7205 6.2379 16.02C6.2379 17.919 6.7919 19.757 7.8379 21.336L6.8599 21.976Z" fill="white"/>
</g>
<defs>
<clipPath id="clip0_301_2408">
<rect width="32" height="32" fill="white"/>
</clipPath>
</defs>
</svg>
