<svg width="32" height="32" viewBox="0 0 32 32" fill="none" xmlns="http://www.w3.org/2000/svg">
<g clip-path="url(#clip0_301_1702)">
<path d="M32 16C32 19.1645 31.0616 22.2579 29.3035 24.8891C27.5454 27.5203 25.0466 29.5711 22.1229 30.7821C19.1993 31.9931 15.9823 32.3099 12.8786 31.6926C9.77487 31.0752 6.92394 29.5514 4.6863 27.3137C2.44866 25.0761 0.924806 22.2251 0.307443 19.1214C-0.309921 16.0177 0.00693248 12.8007 1.21793 9.87707C2.42894 6.95345 4.4797 4.45459 7.11088 2.69649C9.74207 0.938384 12.8355 0 16 0C20.2435 0 24.3131 1.68571 27.3137 4.68629C30.3143 7.68687 32 11.7565 32 16Z" fill="#003399"/>
<path d="M17.3979 9.79346C16.9162 9.79079 16.4394 9.88992 15.9986 10.0844C15.5593 10.2776 15.1639 10.5582 14.8365 10.9091C14.4712 11.2992 14.172 11.7463 13.9506 12.2327C13.6945 12.7989 13.507 13.3937 13.3921 14.0044H18.1179V15.5025H13.2365C13.2365 15.6131 13.2365 15.7178 13.2263 15.8196C13.2161 15.9215 13.2146 15.9985 13.2146 16.0931V16.7724C13.2146 16.9178 13.2219 17.0705 13.2365 17.2305H17.4546V18.7302H13.4386C13.6869 20.0053 14.1465 20.9784 14.8176 21.6495C15.4886 22.3205 16.3705 22.656 17.4634 22.656C17.9862 22.6587 18.5076 22.6001 19.0168 22.4815C19.493 22.3711 19.9579 22.2173 20.4059 22.0218V23.7935C19.9659 24.0015 19.5038 24.1591 19.0285 24.2633C18.4642 24.3888 17.8871 24.4469 17.3092 24.4364C16.54 24.4489 15.7754 24.3152 15.0561 24.0422C14.4044 23.7829 13.811 23.3962 13.3106 22.9047C12.8042 22.3824 12.3932 21.7754 12.0961 21.1113C11.7585 20.3501 11.5194 19.549 11.3848 18.7273H9.6001V17.2305H11.219C11.2045 17.0638 11.1972 16.9256 11.1972 16.816V16.3345C11.1972 16.1745 11.1972 16.0102 11.2074 15.8429C11.2176 15.6756 11.219 15.5622 11.219 15.5025H9.6001V14.0044H11.3456C11.46 13.1535 11.688 12.3219 12.0234 11.5316C12.3178 10.8369 12.7285 10.1974 13.2379 9.64073C13.729 9.11894 14.3234 8.70529 14.9834 8.42618C15.7008 8.13271 16.4702 7.98773 17.2452 8C17.8983 7.99317 18.5495 8.07389 19.1812 8.24C19.798 8.40695 20.3864 8.66533 20.9266 9.00655L20.0539 10.6065C19.6676 10.3734 19.2576 10.1823 18.8306 10.0364C18.3716 9.86957 17.8862 9.78728 17.3979 9.79346Z" fill="white"/>
</g>
<defs>
<clipPath id="clip0_301_1702">
<rect width="32" height="32" fill="white"/>
</clipPath>
</defs>
</svg>
