<svg width="32" height="32" viewBox="0 0 32 32" fill="none" xmlns="http://www.w3.org/2000/svg">
<g clip-path="url(#clip0_301_1674)">
<path d="M16 32C24.8366 32 32 24.8366 32 16C32 7.16344 24.8366 0 16 0C7.16344 0 0 7.16344 0 16C0 24.8366 7.16344 32 16 32Z" fill="#42C1CA"/>
<path d="M15.932 12.9081C16.304 11.3451 16.752 9.94005 17.228 9.02305C17.403 8.58505 18.113 7.53605 18.892 6.84305C20.189 5.68805 21.644 5.39505 23.159 6.34605L23.026 6.55705L23.159 6.34605C23.932 6.83105 24.242 7.33005 24.106 7.80005C24.006 8.15005 23.623 8.43005 23.418 8.40105C23.118 8.43105 22.816 8.37105 22.528 8.15905C22.2856 7.97231 22.0986 7.72306 21.987 7.43805C21.775 6.93805 21.497 6.76805 21.156 6.80805C20.909 6.83605 20.622 6.99405 20.531 7.10005L20.296 7.36005C20.1134 7.55458 19.9512 7.76736 19.812 7.99505C19.336 8.78805 18.897 10.2411 18.288 13.2521L22.324 13.8431L22.102 15.4601L18.006 14.8601L17.831 15.9241L17.786 16.1901C17.762 16.3281 17.736 16.4781 17.706 16.6381L21.842 17.2441L21.605 18.8591L17.372 18.2391C16.883 20.3171 16.239 22.5441 15.784 23.4231C15.608 23.8621 14.899 24.9091 14.12 25.6031C12.823 26.7571 11.368 27.0511 9.85304 26.1001C9.08004 25.6151 8.77004 25.1151 8.90604 24.6451C9.00604 24.2951 9.38904 24.0161 9.59404 24.0451C9.89404 24.0151 10.196 24.0751 10.484 24.2861C10.706 24.4501 10.89 24.6881 11.025 25.0081C11.237 25.507 11.515 25.6781 11.856 25.6381C12.103 25.6091 12.39 25.451 12.481 25.3451C13.388 24.3351 14.107 22.3891 15.016 17.8951L10.98 17.3031L11.202 15.6861L15.298 16.2861L15.474 15.2231C15.5129 14.9842 15.5546 14.7459 15.599 14.5081L11.479 13.9051L11.715 12.2901L15.932 12.9081Z" fill="white"/>
</g>
<defs>
<clipPath id="clip0_301_1674">
<rect width="32" height="32" fill="white"/>
</clipPath>
</defs>
</svg>
