<svg width="32" height="32" viewBox="0 0 32 32" fill="none" xmlns="http://www.w3.org/2000/svg">
<g clip-path="url(#clip0_301_2404)">
<path d="M16 32C24.8366 32 32 24.8366 32 16C32 7.16344 24.8366 0 16 0C7.16344 0 0 7.16344 0 16C0 24.8366 7.16344 32 16 32Z" fill="#005B9A"/>
<path d="M14.9669 4.79999L10.7483 12.0773C10.6622 12.0202 10.5474 12.0202 10.4326 12.0202H10.3753C10.2605 12.0202 10.117 12.0488 10.0022 12.1059C9.88739 12.1629 9.7726 12.2485 9.6865 12.3342L5.64012 10.1082L14.9669 4.79999ZM17.0618 4.79999L26.3599 10.1082L22.2848 12.3342C22.1987 12.22 22.1126 12.1344 21.9692 12.0773C21.8544 12.0202 21.7109 11.9917 21.5961 11.9917H21.5387C21.4813 11.9917 21.3952 11.9917 21.3378 12.0202L17.0618 4.79999ZM15.4261 5.08537V15.4734L11.351 13.2474C11.4084 12.962 11.3223 12.6766 11.1788 12.4483L15.4261 5.08537ZM16.574 5.05683L20.8786 12.3056C20.7639 12.4198 20.6778 12.5625 20.6491 12.7337C20.6204 12.9049 20.6204 13.0762 20.6491 13.2189L16.574 15.4449V5.05683ZM16.574 16.0727L20.936 13.6755C21.0508 13.7611 21.1656 13.8182 21.3091 13.8752V18.2416C21.1656 18.2987 21.0508 18.3558 20.936 18.47L16.574 16.0727ZM15.4261 16.0727L11.0066 18.4985C10.9205 18.4129 10.8057 18.3273 10.6622 18.2987V13.9323C10.8057 13.9038 10.9492 13.8182 11.064 13.7326L15.4261 16.0727ZM10.117 18.2702V14.2177L6.09928 21.1526L9.42822 19.3546C9.39953 19.1263 9.45692 18.898 9.60041 18.6983C9.7152 18.4985 9.91609 18.3558 10.117 18.2702ZM22.5431 19.3546L25.9008 21.1811L21.8831 14.0179V18.2702C22.1126 18.3558 22.2848 18.4985 22.3996 18.6983C22.5144 18.898 22.5718 19.1263 22.5431 19.3546ZM26.6182 10.5933V21.3238L22.3135 13.6469C22.4283 13.5328 22.4857 13.4186 22.5431 13.2474C22.5718 13.1047 22.6005 12.962 22.5431 12.7908L26.6182 10.5933ZM5.38184 10.5933L9.42822 12.8193C9.39953 12.962 9.39953 13.1047 9.42822 13.2474C9.48562 13.4472 9.60041 13.6184 9.7726 13.7326L5.38184 21.3238V10.5933ZM15.4261 16.7006V26.6605L11.1501 19.8683C11.2649 19.7542 11.3223 19.583 11.351 19.4403C11.3797 19.269 11.351 19.1263 11.2936 18.9836L15.4261 16.7006ZM16.574 16.7006L20.6491 18.9266C20.5917 19.0978 20.5917 19.2405 20.6204 19.4117C20.6491 19.583 20.7352 19.7256 20.8499 19.8398L16.574 26.9459V16.7006ZM26.2164 21.9802L17.0618 27.2027L21.3378 20.1252C21.51 20.1823 21.6535 20.1823 21.8257 20.1537C21.9979 20.1252 22.1413 20.0396 22.2561 19.9254C22.2848 19.8969 22.2848 19.8969 22.3135 19.8683L26.2164 21.9802ZM5.7836 21.9802L9.65781 19.8683C9.8013 20.011 9.94478 20.0967 10.1457 20.1537C10.3179 20.2108 10.5187 20.2108 10.6909 20.1537L15.1965 27.3454L5.7836 21.9802Z" fill="white"/>
</g>
<defs>
<clipPath id="clip0_301_2404">
<rect width="32" height="32" fill="white"/>
</clipPath>
</defs>
</svg>
