<svg width="32" height="32" viewBox="0 0 32 32" fill="none" xmlns="http://www.w3.org/2000/svg">
<g clip-path="url(#clip0_301_1660)">
<path d="M16 32C24.8366 32 32 24.8366 32 16C32 7.16344 24.8366 0 16 0C7.16344 0 0 7.16344 0 16C0 24.8366 7.16344 32 16 32Z" fill="#00AFEC"/>
<path d="M20.306 11.8282C20.355 11.7492 20.399 11.6442 20.444 11.5542C21.4624 9.75088 21.9984 7.71529 22 5.64424C20.565 4.81624 19.05 4.29424 17.402 4.11324C18.012 6.77524 18.876 9.35324 20.125 11.7822L20.306 11.8282ZM12.078 11.3732L12.033 11.3632L11.683 11.2832V11.2772H11.678L11.993 9.90424C12.226 9.95424 12.459 10.0092 12.691 10.0662H12.696C13.5453 8.15024 14.2073 6.15663 14.673 4.11324C12.5253 4.3504 10.4818 5.16415 8.759 6.46824V6.47224C7.31345 7.56687 6.13441 8.97449 5.31023 10.5896C4.48605 12.2047 4.03812 13.9854 4 15.7982V16.0382C5.28089 16.7744 6.68513 17.2712 8.144 17.5042L8.151 17.4972C9.68196 15.6068 10.9999 13.5534 12.081 11.3742H12.078V11.3732ZM19.59 13.3982C19.853 13.5382 19.951 13.7382 20.076 14.1302C20.249 14.7222 20.132 15.3452 20.009 15.9302L21.46 16.2672L21.82 14.7042C23.285 16.9592 24.91 19.2882 26.883 21.1162C26.525 21.9292 26.303 22.2132 25.776 22.9272C22.546 21.9332 19.106 21.4062 15.726 21.4392L16.015 20.2842L15.051 20.0592C14.901 20.0212 14.748 19.9542 14.658 19.8222C14.545 19.6722 14.545 19.4742 14.583 19.2972L15.186 16.6752C15.498 16.7502 15.824 16.7992 16.116 16.9382C16.2526 16.9931 16.3744 17.0793 16.4715 17.19C16.5687 17.3007 16.6384 17.4326 16.675 17.5752C16.754 17.9732 16.585 18.3552 16.517 18.7382L17.815 19.0382L18.897 14.3502L18.787 14.3132L18.702 14.2972C19.002 13.9822 19.264 13.7022 19.535 13.3602L19.591 13.3982H19.59ZM8.182 17.8052L8.213 17.7622C8.465 17.8182 8.659 17.7972 8.917 17.8242C9.84 17.9062 10.736 17.9242 11.655 17.7942C11.725 17.7842 11.797 17.7772 11.868 17.7742L11.655 18.5922C11.617 18.7542 11.546 18.9222 11.407 19.0242C11.3383 19.0698 11.2608 19.1006 11.1796 19.1147C11.0984 19.1289 11.0151 19.126 10.935 19.1062C10.605 19.0392 10.275 18.9492 9.941 18.8852C9.84 19.3422 9.731 19.8002 9.626 20.2542L11.842 20.7672C11.752 21.1802 11.73 21.2922 11.636 21.7012C9.79132 21.9542 7.96938 22.3518 6.187 22.8902C5.662 22.1772 5.437 22.0052 5.085 21.1912C6.207 20.1512 7.217 18.9942 8.182 17.8052ZM13.327 21.1092L14.216 21.3152L14.186 21.4912L13.237 21.5592L13.327 21.1092ZM11.688 17.5302C11.757 17.5207 11.8264 17.5147 11.896 17.5122V17.5082L13.04 12.5582C13.085 12.3332 13.175 12.1082 13.104 11.8832C13.0765 11.8026 13.0308 11.7293 12.9705 11.6691C12.9102 11.6089 12.8368 11.5635 12.756 11.5362L12.719 11.5242C12.529 11.4732 12.675 11.5092 12.482 11.4642C12.461 11.4592 12.365 11.4912 12.343 11.4872C11.2739 13.641 9.96854 15.6691 8.451 17.5342C8.702 17.5872 8.661 17.5722 8.912 17.5982C9.837 17.6832 10.768 17.6602 11.687 17.5312L11.688 17.5302Z" fill="white"/>
<path d="M14.2298 10.4172V10.4212C14.4058 9.67816 14.5708 8.93217 14.7508 8.19017L16.2288 8.53017L15.7148 10.7622L16.5998 10.9682C16.6878 10.5972 16.7748 10.2252 16.8598 9.85317L16.9888 9.29517L17.1178 8.73717L18.5948 9.07417C18.5748 9.17417 18.5528 9.27417 18.5308 9.37417C18.3878 10.0212 18.2288 10.6622 18.0858 11.3112L19.7868 11.7072C18.5378 9.27717 17.7108 6.73717 17.1018 4.07517C16.7198 4.03017 16.5588 4.04517 16.1718 4.03817H15.9358C15.5118 4.03817 15.3548 4.02717 14.9388 4.07517C14.4708 6.11817 13.9188 8.26117 13.0688 10.1772L14.2298 10.4172ZM16.1908 12.3262L16.2358 12.3362L16.2408 12.3262H16.1908Z" fill="white"/>
<path d="M16.195 12.3251L15.509 15.2991C15.935 15.3931 16.379 15.5491 16.817 15.4261C16.9578 15.3817 17.0855 15.3035 17.1889 15.1981C17.2923 15.0928 17.3683 14.9636 17.41 14.8221C17.492 14.5591 17.533 14.2891 17.605 14.0271L18.329 14.2111C18.361 14.2161 18.324 14.2351 18.345 14.2141L18.363 14.2001C18.663 13.8781 19.003 13.5251 19.273 13.1841C18.8301 12.9625 18.3581 12.8046 17.871 12.7151L16.195 12.3251ZM26.965 11.1561C25.93 8.84206 24.455 7.10006 22.262 5.83006C22.26 7.90206 21.762 9.75106 20.744 11.5561C20.6822 11.669 20.6258 11.7848 20.575 11.9031C21.261 12.0531 21.689 12.1451 22.375 12.2991V12.3061L21.933 14.2931C23.395 16.5471 25.026 19.0291 26.995 20.8591C27.623 19.4271 27.965 17.8861 28 16.3221V15.7591C27.9617 14.1712 27.61 12.6065 26.965 11.1551V11.1561ZM4 16.3001V16.4731C4.023 18.0721 4.365 19.3871 5.005 20.8531C6.06673 19.8737 7.05319 18.8157 7.956 17.6881C6.501 17.4561 5.275 17.0401 4 16.3001ZM15.685 21.7001L15.182 23.8901H15.179L13.694 23.5501L14.107 21.7531L13.162 21.8201L12.812 23.3431H12.81L11.324 23.0021C11.4 22.6641 11.474 22.3341 11.557 22.0011C9.788 22.2411 8.042 22.6261 6.337 23.1521C7.43204 24.6383 8.85481 25.8521 10.4949 26.6995C12.135 27.5469 13.9483 28.0049 15.794 28.0381H16.285C18.117 27.9908 19.9141 27.5261 21.5394 26.6794C23.1647 25.8327 24.5754 24.6263 25.664 23.1521C22.4323 22.1569 19.0663 21.6671 15.685 21.7001Z" fill="white"/>
</g>
<defs>
<clipPath id="clip0_301_1660">
<rect width="32" height="32" fill="white"/>
</clipPath>
</defs>
</svg>
