<svg width="32" height="32" viewBox="0 0 32 32" fill="none" xmlns="http://www.w3.org/2000/svg">
<g clip-path="url(#clip0_301_1632)">
<path d="M16 32C24.8366 32 32 24.8366 32 16C32 7.16344 24.8366 0 16 0C7.16344 0 0 7.16344 0 16C0 24.8366 7.16344 32 16 32Z" fill="#2D475B"/>
<path d="M12.8688 12.6851H23.9538V15.1731H12.8688V12.6851ZM23.9538 16.8291H23.9998V23.3721C23.9998 23.3721 15.3528 29.6371 8.63684 22.8201C8.63684 22.8201 4.95684 19.0881 6.29084 13.6521C6.29084 13.6521 7.34884 6.88105 15.3988 6.05205C15.3988 6.05205 20.3658 5.36005 23.5858 9.04605L21.6538 10.9341C21.6538 10.9341 17.5598 6.69605 12.0868 10.0141C12.0868 10.0141 7.62484 12.5011 9.46484 18.7661C9.46484 18.7661 11.4888 24.2021 17.8358 23.0961C17.8358 23.0961 19.9978 22.6041 21.1018 21.6521V19.3171H12.8698V16.8291H23.9538Z" fill="white"/>
</g>
<defs>
<clipPath id="clip0_301_1632">
<rect width="32" height="32" fill="white"/>
</clipPath>
</defs>
</svg>
