<svg width="32" height="32" viewBox="0 0 32 32" fill="none" xmlns="http://www.w3.org/2000/svg">
<g clip-path="url(#clip0_301_1625)">
<path d="M32 16C32 19.1645 31.0616 22.2579 29.3035 24.8891C27.5454 27.5203 25.0466 29.5711 22.1229 30.7821C19.1993 31.9931 15.9823 32.3099 12.8786 31.6926C9.77487 31.0752 6.92394 29.5514 4.6863 27.3137C2.44866 25.0761 0.924806 22.2251 0.307443 19.1214C-0.309921 16.0177 0.00693248 12.8007 1.21793 9.87707C2.42894 6.95345 4.4797 4.45459 7.11088 2.69649C9.74207 0.938384 12.8355 0 16 0C20.2435 0 24.3131 1.68571 27.3137 4.68629C30.3143 7.68687 32 11.7565 32 16Z" fill="#001B69"/>
<path d="M17.1214 7.90108C17.8329 7.89315 18.5423 7.97774 19.232 8.15272C19.8128 8.29288 20.3748 8.50187 20.9061 8.77527L20.1789 10.3505C19.7341 10.1248 19.269 9.94167 18.7898 9.80363C18.2766 9.6432 17.742 9.56226 17.2043 9.56363C16.8742 9.55811 16.5454 9.60726 16.2312 9.70908C15.9393 9.80178 15.6742 9.964 15.4589 10.1818C15.2259 10.4161 15.0497 10.7008 14.944 11.0138C14.8191 11.4137 14.7601 11.8313 14.7694 12.2502V15.4764H18.8814V16.9745H14.7694V19.2873C14.7756 19.6791 14.7317 20.0702 14.6385 20.4509C14.5696 20.7442 14.4553 21.025 14.2996 21.2829C14.1693 21.5059 14.0026 21.7055 13.8065 21.8734C13.6283 22.0259 13.4376 22.1631 13.2363 22.2836H21.4181V24.0989H10.5803V22.4145C10.8848 22.3401 11.1782 22.2262 11.453 22.0756C11.7207 21.9241 11.9548 21.7197 12.141 21.4749C12.3488 21.207 12.5047 20.9026 12.6007 20.5774C12.7175 20.165 12.7729 19.7377 12.7651 19.3091V16.9818H10.6021V15.4836H12.768V11.9374C12.7597 11.3561 12.8696 10.7791 13.0909 10.2414C13.2946 9.75862 13.6008 9.32585 13.9883 8.97308C14.3874 8.6147 14.8564 8.34281 15.3658 8.17454C15.9318 7.98675 16.5251 7.89434 17.1214 7.90108Z" fill="white"/>
</g>
<defs>
<clipPath id="clip0_301_1625">
<rect width="32" height="32" fill="white"/>
</clipPath>
</defs>
</svg>
