<svg width="32" height="32" viewBox="0 0 32 32" fill="none" xmlns="http://www.w3.org/2000/svg">
<g clip-path="url(#clip0_301_1603)">
<path d="M16 32C24.8366 32 32 24.8366 32 16C32 7.16344 24.8366 0 16 0C7.16344 0 0 7.16344 0 16C0 24.8366 7.16344 32 16 32Z" fill="#008DDE"/>
<path d="M24.0288 17.3258C24.1265 17.3295 24.2239 17.3133 24.3152 17.2785C24.4065 17.2436 24.4898 17.1907 24.5602 17.1228C24.6306 17.055 24.6866 16.9737 24.7248 16.8838C24.763 16.7938 24.7828 16.6971 24.7828 16.5993C24.7828 16.5016 24.763 16.4049 24.7248 16.3149C24.6866 16.225 24.6306 16.1436 24.5602 16.0758C24.4898 16.008 24.4065 15.9551 24.3152 15.9202C24.2239 15.8853 24.1265 15.8692 24.0288 15.8728H22.3688V14.2308H25.8398C25.9375 14.2345 26.0349 14.2183 26.1262 14.1835C26.2175 14.1486 26.3008 14.0957 26.3712 14.0278C26.4416 13.96 26.4976 13.8787 26.5358 13.7888C26.574 13.6988 26.5938 13.6021 26.5938 13.5043C26.5938 13.4066 26.574 13.3099 26.5358 13.2199C26.4976 13.13 26.4416 13.0486 26.3712 12.9808C26.3008 12.913 26.2175 12.8601 26.1262 12.8252C26.0349 12.7903 25.9375 12.7742 25.8398 12.7778H22.3548C22.2844 11.9999 21.9583 11.2671 21.4275 10.694C20.8967 10.1209 20.1911 9.73964 19.4208 9.60983V7.86083C19.4244 7.76316 19.4083 7.66575 19.3734 7.57445C19.3386 7.48314 19.2856 7.39981 19.2178 7.32943C19.15 7.25904 19.0687 7.20306 18.9787 7.16482C18.8888 7.12658 18.792 7.10687 18.6943 7.10687C18.5966 7.10687 18.4998 7.12658 18.4099 7.16482C18.3199 7.20306 18.2386 7.25904 18.1708 7.32943C18.103 7.39981 18.05 7.48314 18.0152 7.57445C17.9803 7.66575 17.9642 7.76316 17.9678 7.86083V9.56083H16.3258V5.73983C16.3294 5.64216 16.3133 5.54475 16.2784 5.45345C16.2436 5.36214 16.1906 5.27881 16.1228 5.20843C16.055 5.13804 15.9737 5.08206 15.8837 5.04382C15.7938 5.00558 15.697 4.98587 15.5993 4.98587C15.5016 4.98587 15.4048 5.00558 15.3149 5.04382C15.2249 5.08206 15.1436 5.13804 15.0758 5.20843C15.008 5.27881 14.955 5.36214 14.9202 5.45345C14.8853 5.54475 14.8692 5.64216 14.8728 5.73983V9.55983H13.2298V7.85983C13.2228 7.67181 13.1432 7.49382 13.0077 7.36328C12.8723 7.23273 12.6914 7.15979 12.5033 7.15979C12.3152 7.15979 12.1343 7.23273 11.9989 7.36328C11.8634 7.49382 11.7838 7.67181 11.7768 7.85983V9.60983C11.0065 9.73964 10.3009 10.1209 9.77009 10.694C9.2393 11.2671 8.91323 11.9999 8.8428 12.7778H4.7398C4.64212 12.7742 4.54472 12.7903 4.45342 12.8252C4.36211 12.8601 4.27878 12.913 4.20839 12.9808C4.13801 13.0486 4.08203 13.13 4.04379 13.2199C4.00555 13.3099 3.98584 13.4066 3.98584 13.5043C3.98584 13.6021 4.00555 13.6988 4.04379 13.7888C4.08203 13.8787 4.13801 13.96 4.20839 14.0278C4.27878 14.0957 4.36211 14.1486 4.45342 14.1835C4.54472 14.2183 4.64212 14.2345 4.7398 14.2308H8.8298V15.8728H7.1698C7.07212 15.8692 6.97472 15.8853 6.88342 15.9202C6.79211 15.9551 6.70878 16.008 6.63839 16.0758C6.56801 16.1436 6.51203 16.225 6.47379 16.3149C6.43555 16.4049 6.41584 16.5016 6.41584 16.5993C6.41584 16.6971 6.43555 16.7938 6.47379 16.8838C6.51203 16.9737 6.56801 17.055 6.63839 17.1228C6.70878 17.1907 6.79211 17.2436 6.88342 17.2785C6.97472 17.3133 7.07212 17.3295 7.1698 17.3258H8.8298V18.9678H5.6668C5.56912 18.9642 5.47172 18.9803 5.38042 19.0152C5.28911 19.0501 5.20578 19.103 5.13539 19.1708C5.06501 19.2386 5.00903 19.32 4.97079 19.4099C4.93255 19.4999 4.91284 19.5966 4.91284 19.6943C4.91284 19.7921 4.93255 19.8888 4.97079 19.9788C5.00903 20.0687 5.06501 20.15 5.13539 20.2178C5.20578 20.2857 5.28911 20.3386 5.38042 20.3735C5.47172 20.4083 5.56912 20.4245 5.6668 20.4208H8.8428C8.91323 21.1988 9.2393 21.9316 9.77009 22.5047C10.3009 23.0778 11.0065 23.459 11.7768 23.5888V24.7188C11.7732 24.8165 11.7893 24.9139 11.8242 25.0052C11.859 25.0965 11.912 25.1798 11.9798 25.2502C12.0476 25.3206 12.1289 25.3766 12.2189 25.4148C12.3088 25.4531 12.4056 25.4728 12.5033 25.4728C12.601 25.4728 12.6978 25.4531 12.7877 25.4148C12.8777 25.3766 12.959 25.3206 13.0268 25.2502C13.0946 25.1798 13.1476 25.0965 13.1824 25.0052C13.2173 24.9139 13.2334 24.8165 13.2298 24.7188V23.6378H14.8718V26.9288C14.8788 27.1168 14.9584 27.2948 15.0939 27.4254C15.2293 27.5559 15.4102 27.6289 15.5983 27.6289C15.7864 27.6289 15.9673 27.5559 16.1027 27.4254C16.2382 27.2948 16.3178 27.1168 16.3248 26.9288V23.6378H17.9668V25.3378C17.9632 25.4355 17.9793 25.5329 18.0142 25.6242C18.049 25.7155 18.102 25.7988 18.1698 25.8692C18.2376 25.9396 18.3189 25.9956 18.4089 26.0338C18.4988 26.0721 18.5956 26.0918 18.6933 26.0918C18.791 26.0918 18.8878 26.0721 18.9777 26.0338C19.0677 25.9956 19.149 25.9396 19.2168 25.8692C19.2846 25.7988 19.3376 25.7155 19.3724 25.6242C19.4073 25.5329 19.4234 25.4355 19.4198 25.3378V23.5898C20.1901 23.46 20.8957 23.0788 21.4265 22.5057C21.9573 21.9326 22.2834 21.1998 22.3538 20.4218H27.1648C27.2625 20.4255 27.3599 20.4093 27.4512 20.3745C27.5425 20.3396 27.6258 20.2867 27.6962 20.2188C27.7666 20.151 27.8226 20.0697 27.8608 19.9798C27.899 19.8898 27.9188 19.7931 27.9188 19.6953C27.9188 19.5976 27.899 19.5009 27.8608 19.4109C27.8226 19.321 27.7666 19.2396 27.6962 19.1718C27.6258 19.104 27.5425 19.0511 27.4512 19.0162C27.3599 18.9813 27.2625 18.9652 27.1648 18.9688H22.3698V17.3268H24.0288V17.3258ZM21.2088 20.1078C21.2083 20.7362 20.9584 21.3387 20.5141 21.7831C20.0697 22.2274 19.4672 22.4773 18.8388 22.4778H12.3588C11.7304 22.4773 11.1279 22.2274 10.6835 21.7831C10.2392 21.3387 9.98933 20.7362 9.9888 20.1078V13.0898C9.98933 12.4614 10.2392 11.8589 10.6835 11.4146C11.1279 10.9702 11.7304 10.7204 12.3588 10.7198H18.8388C19.4672 10.7204 20.0697 10.9702 20.5141 11.4146C20.9584 11.8589 21.2083 12.4614 21.2088 13.0898V20.1068V20.1078Z" fill="white"/>
<path d="M13.9007 12.4347C13.6201 12.4302 13.3394 12.4399 13.0597 12.4637C12.6177 12.5137 12.2927 12.9137 12.2787 13.3477C12.2567 14.3317 12.2747 15.3177 12.2687 16.3017C12.2827 16.8037 12.2347 17.3117 12.3087 17.8087C12.3797 18.2527 12.8137 18.5387 13.2447 18.5377C14.5847 18.5467 15.9247 18.5407 17.2647 18.5417V19.0967H12.9497L12.3947 20.7617H16.6887C17.1907 20.7477 17.6977 20.7957 18.1957 20.7227C18.6397 20.6517 18.9247 20.2177 18.9237 19.7867C18.9337 18.0337 18.9257 16.2807 18.9287 14.5267C18.9127 14.0567 18.9697 13.5777 18.8747 13.1137C18.7737 12.6407 18.2667 12.4077 17.8187 12.4367H14.7427C14.4627 12.4417 14.1807 12.4357 13.8997 12.4337L13.9007 12.4347ZM13.9337 14.1017H17.2637V16.8767H13.9337V14.1017Z" fill="white"/>
</g>
<defs>
<clipPath id="clip0_301_1603">
<rect width="32" height="32" fill="white"/>
</clipPath>
</defs>
</svg>
