<svg width="32" height="32" viewBox="0 0 32 32" fill="none" xmlns="http://www.w3.org/2000/svg">
<g clip-path="url(#clip0_301_1599)">
<path d="M16 32C24.8366 32 32 24.8366 32 16C32 7.16344 24.8366 0 16 0C7.16344 0 0 7.16344 0 16C0 24.8366 7.16344 32 16 32Z" fill="#005396"/>
<path d="M12.3282 4.59781C13.3673 4.26313 14.4474 4.07236 15.5382 4.03081C17.0352 3.96281 18.5402 4.20581 19.9552 4.68881C22.2623 5.50313 24.2664 7.00138 25.7002 8.98381C26.0302 9.42381 26.3082 9.89681 26.5762 10.3768C26.8872 10.9848 27.1682 11.6108 27.3802 12.2598C27.6602 13.1508 27.8702 14.0738 27.9352 15.0088C27.9692 15.2108 27.9472 15.4168 27.9752 15.6188C27.9852 15.8718 27.9812 16.1248 27.9752 16.3798C27.9472 16.5828 27.9692 16.7888 27.9352 16.9908C27.8752 17.8328 27.7012 18.6648 27.4612 19.4748C27.259 20.1439 26.9979 20.7937 26.6812 21.4168C25.5016 23.7332 23.6036 25.6052 21.2712 26.7528C20.6208 27.0771 19.9398 27.3361 19.2382 27.5258C18.0632 27.8628 16.8382 28.0058 15.6202 27.9718C15.4172 27.9438 15.2082 27.9658 15.0092 27.9318C14.0962 27.8688 13.1982 27.6698 12.3252 27.3978C10.5743 26.8295 8.97709 25.867 7.65656 24.5844C6.33603 23.3019 5.32738 21.7334 4.70822 19.9998C4.31822 18.8648 4.06822 17.6778 4.03822 16.4748C3.99722 15.8978 4.04122 15.3178 4.08822 14.7418C4.17522 13.8908 4.36822 13.0488 4.63022 12.2358C5.42622 9.85109 6.94874 7.77537 8.98422 6.29981C9.42422 5.96981 9.89722 5.68981 10.3772 5.42381C11.0024 5.09247 11.6552 4.8161 12.3282 4.59781ZM14.6382 8.92781V11.7298C14.6322 11.7798 14.6782 11.8078 14.7032 11.8418C15.1332 12.2938 15.5672 12.7418 15.9972 13.1948C15.9941 11.7725 15.9941 10.3501 15.9972 8.92781C15.5452 8.92781 15.0902 8.92481 14.6372 8.92781H14.6382ZM8.72822 10.3778C8.83122 10.4458 8.90622 10.5448 8.99322 10.6298C9.91922 11.5648 10.8482 12.4968 11.7702 13.4378C12.6152 14.2918 13.4632 15.1428 14.3042 15.9968C13.2852 17.0408 12.2472 18.0668 11.2312 19.1108C10.4182 19.9308 9.60422 20.7508 8.79422 21.5698C8.77281 21.5872 8.75079 21.6039 8.72822 21.6198C9.92522 21.6198 11.1252 21.6228 12.3252 21.6138C13.5502 20.3318 14.7812 19.0538 16.0032 17.7698C17.2282 19.0508 18.4562 20.3318 19.6812 21.6138C20.8782 21.6228 22.0752 21.6168 23.2712 21.6198C23.0882 21.4728 22.9442 21.2898 22.7732 21.1298C21.9162 20.2638 21.0532 19.3968 20.1982 18.5278C19.3692 17.6828 18.5252 16.8508 17.7022 15.9998C17.9022 15.7998 18.0882 15.5918 18.2942 15.3948C19.8622 13.8148 21.4242 12.2288 22.9912 10.6478C23.0852 10.5578 23.1632 10.4518 23.2712 10.3778C22.0712 10.3778 20.8752 10.3738 19.6782 10.3798C18.4532 11.6608 17.2252 12.9398 16.0002 14.2198C14.7782 12.9358 13.5472 11.6578 12.3222 10.3798C11.1252 10.3768 9.92522 10.3768 8.72822 10.3768V10.3778ZM16.0062 18.7928C16.0062 20.2198 16.0092 21.6448 16.0032 23.0728C16.4582 23.0688 16.9132 23.0728 17.3652 23.0728V20.2668C17.3671 20.2518 17.3653 20.2366 17.3599 20.2224C17.3545 20.2083 17.3456 20.1957 17.3342 20.1858C17.1042 19.9358 16.8602 19.7028 16.6332 19.4538C16.4272 19.2288 16.2062 19.0238 16.0062 18.7928Z" fill="white"/>
</g>
<defs>
<clipPath id="clip0_301_1599">
<rect width="32" height="32" fill="white"/>
</clipPath>
</defs>
</svg>
