<svg width="32" height="32" viewBox="0 0 32 32" fill="none" xmlns="http://www.w3.org/2000/svg">
<g clip-path="url(#clip0_301_1591)">
<path d="M16 32C24.8366 32 32 24.8366 32 16C32 7.16344 24.8366 0 16 0C7.16344 0 0 7.16344 0 16C0 24.8366 7.16344 32 16 32Z" fill="#372D2C"/>
<path d="M9.96492 18.4871L10.0659 18.4121H10.0319L9.56592 18.8421C9.67574 18.6997 9.81145 18.5792 9.96592 18.4871H9.96492Z" fill="black"/>
<path d="M26.9502 13.4398C26.9008 13.363 26.8239 13.3079 26.7352 13.2858C26.3897 13.201 26.043 13.121 25.6952 13.0458L25.7892 12.5818L25.8492 12.2898L25.8772 12.1418L25.9042 11.9818C25.9421 11.7445 25.9156 11.5013 25.8272 11.2778C25.7338 11.0395 25.5804 10.8294 25.3819 10.6679C25.1834 10.5063 24.9465 10.3988 24.6942 10.3558C24.6111 9.85171 24.4962 9.35339 24.3502 8.86379L24.3332 8.80379L21.8472 5.78379L21.7542 5.75679C21.6532 5.72979 19.4132 5.06779 16.3642 5.06679L16.3982 4.46479C16.6785 4.37257 16.9166 4.1831 17.0693 3.93066C17.2221 3.67821 17.2795 3.37944 17.2312 3.08834C17.1829 2.79725 17.032 2.53304 16.8059 2.34349C16.5798 2.15393 16.2933 2.05153 15.9982 2.05479C15.7037 2.05228 15.418 2.15501 15.1925 2.34449C14.967 2.53397 14.8166 2.79774 14.7683 3.08829C14.7201 3.37884 14.7772 3.67706 14.9293 3.92925C15.0815 4.18143 15.3187 4.371 15.5982 4.46379L15.6332 5.06879C12.5712 5.07179 10.3192 5.72979 10.2232 5.76179L10.1302 5.78879L7.64422 8.80879L7.62822 8.86879C7.48222 9.35879 7.36722 9.85579 7.28422 10.3588H7.27622L7.10022 10.4028C6.77152 10.503 6.4892 10.7168 6.30378 11.0061C6.11836 11.2955 6.04195 11.6413 6.08822 11.9818L6.11522 12.1408L6.14322 12.2888L6.20322 12.5808L6.29722 13.0468C5.95222 13.1228 5.60722 13.2008 5.26322 13.2848C5.17448 13.3067 5.09753 13.3618 5.04822 13.4388C5.01374 13.4965 4.99711 13.5632 5.00041 13.6304C5.00371 13.6975 5.0268 13.7622 5.06678 13.8163C5.10675 13.8704 5.16182 13.9114 5.22507 13.9343C5.28831 13.9572 5.3569 13.9608 5.42222 13.9448C5.75822 13.8628 6.09422 13.7848 6.43122 13.7118L6.45622 13.8398C5.67087 16.3307 5.8515 19.0259 6.96222 21.3898C8.47022 24.6078 11.9402 28.0778 16.0002 28.0778C20.0592 28.0778 23.5302 24.6078 25.0422 21.3848C26.1493 19.0188 26.326 16.323 25.5372 13.8328L25.5612 13.7148C25.8992 13.7888 26.2372 13.8668 26.5742 13.9488C26.6395 13.9648 26.7081 13.9612 26.7714 13.9383C26.8346 13.9154 26.8897 13.8744 26.9297 13.8203C26.9696 13.7662 26.9927 13.7015 26.996 13.6344C26.9993 13.5672 26.9827 13.5005 26.9482 13.4428L26.9502 13.4398ZM15.1122 3.29779C15.113 3.04028 15.2149 2.79337 15.3959 2.61025C15.577 2.42713 15.8227 2.32246 16.0802 2.31879C16.6202 2.31879 16.6202 4.27179 16.0802 4.27679C15.8227 4.27312 15.577 4.16846 15.3959 3.98534C15.2149 3.80222 15.113 3.55531 15.1122 3.29779ZM15.7602 4.50779C15.8392 4.52279 15.9182 4.53079 15.9982 4.53079H16.0362L16.1122 6.63279C16.1614 6.6982 16.1852 6.77918 16.1793 6.86078C16.1734 6.94238 16.1382 7.01911 16.0802 7.07679C16.0485 7.10859 16.0107 7.13379 15.9692 7.15095C15.9277 7.16811 15.8832 7.17689 15.8382 7.17679C15.3322 7.17679 14.9252 7.02279 14.9252 6.83679C14.9252 6.66479 15.2672 6.52179 15.7152 6.49779L15.8382 6.49479H15.8722L15.7602 4.50779ZM8.15622 9.34479L8.44722 9.24079L8.94222 9.07579L9.59222 8.88379C9.82822 8.81179 10.0922 8.74579 10.3672 8.67379L11.2412 8.47679C11.5442 8.41679 11.8572 8.34979 12.1812 8.29479C12.5062 8.23979 12.8312 8.19579 13.1612 8.14079C13.4912 8.08579 13.8212 8.05879 14.1452 8.02079C14.4702 7.98079 14.7892 7.96479 15.1022 7.93779C15.2672 7.92279 15.4362 7.91579 15.5972 7.90979H15.6142L15.9992 11.3368L16.3892 7.88079H16.8072C17.0552 7.88079 17.2862 7.86979 17.4892 7.88079L18.0172 7.90279L18.4792 7.91879L18.0232 7.87479L17.4952 7.82479C17.2912 7.80379 17.0652 7.79779 16.8132 7.78179C16.544 7.76187 16.2742 7.75086 16.0042 7.74879H16.0002C15.7162 7.74879 15.4102 7.73179 15.0982 7.74279C14.7872 7.75379 14.4602 7.74879 14.1302 7.77079L13.1292 7.83679C12.7932 7.86379 12.4582 7.89179 12.1282 7.93579C11.7982 7.97979 11.4732 8.02879 11.1652 8.06779C10.8682 8.10479 10.5752 8.16179 10.2992 8.21079L9.80722 8.17179L10.7862 6.83579L15.6752 5.76979L15.7052 6.29979C15.0452 6.35179 14.5502 6.57079 14.5502 6.83379C14.5502 7.13379 15.2002 7.37779 16.0022 7.37779C16.8042 7.37779 17.4542 7.13479 17.4542 6.83379C17.4542 6.57079 16.9592 6.35179 16.2992 6.29979L16.3292 5.77179L21.1972 6.83479L22.1772 8.17079L20.8152 8.28079L20.7902 8.27779L20.8052 8.28179H20.7852L23.3922 9.57379C23.3922 9.57379 24.5162 13.1838 22.9672 16.2518C22.7904 16.5985 22.5847 16.9297 22.3522 17.2418C22.3522 17.2418 19.9462 18.3528 16.2472 18.5488L16.0002 17.5318C16.3027 17.5419 16.604 17.4895 16.8852 17.3778L17.6552 17.1248C19.2192 16.6428 20.7852 16.1678 22.3522 15.7008L22.5062 15.6568L22.5562 15.5138L22.6062 15.3708L22.6442 15.2328L22.7152 14.9628C22.8412 14.4328 22.9312 13.8948 22.9852 13.3518L23.0292 12.8018L23.0392 12.5268V12.2468L23.0452 11.9608L23.0182 11.6748L22.9742 11.3888C22.9554 11.2959 22.9314 11.204 22.9022 11.1138L22.8582 10.9708L22.8082 10.7998L22.7732 10.7948L22.7592 10.7508L22.7092 10.5798L22.5122 10.5528C20.8885 10.3634 19.2566 10.2513 17.6222 10.2168L17.4522 10.2118L17.3802 10.3548L16.4842 12.1108L16.0002 12.1188L15.4702 12.1288L14.5102 10.4088L14.4602 10.3158L14.3602 10.3218C13.5472 10.3668 12.7352 10.4328 11.9242 10.5198C11.1162 10.6055 10.3111 10.7172 9.51022 10.8548H9.52622H9.51622L9.48222 10.9648C9.47328 10.9932 9.46528 11.0219 9.45822 11.0508C9.47422 10.9858 9.49322 10.9218 9.51322 10.8548C9.48161 10.9432 9.44489 11.0297 9.40322 11.1138C9.38522 11.1838 9.36522 11.2528 9.35222 11.3228L9.34222 11.3498L9.28222 11.6198L9.23822 11.8888L9.21022 12.1638C9.20022 12.3458 9.19422 12.5328 9.20022 12.7138L9.22122 13.2638C9.25822 13.8138 9.33122 14.3618 9.44122 14.9028L9.50122 15.1728L9.57922 15.4478L9.60122 15.5138L9.67822 15.5408L12.7912 16.5638C13.7072 16.8618 14.6222 17.1688 15.5352 17.4828C15.6132 17.4988 15.6922 17.5098 15.7722 17.5158L15.8272 17.5208H15.8432L15.8712 17.5268L15.9862 17.5318H16.0032L15.7492 18.5668C14.8414 18.5933 13.9328 18.5606 13.0292 18.4688C10.8072 18.1708 9.34522 17.6388 8.96522 17.4878C7.73201 14.9571 7.44539 12.0685 8.15722 9.34479H8.15622ZM19.9562 10.8748L17.0152 16.4198L16.8182 16.7898L16.6752 16.8388C16.504 16.9007 16.3242 16.9358 16.1422 16.9428C15.8633 16.9708 15.5816 16.937 15.3172 16.8438L15.2172 16.8058L15.3432 16.5708L18.4232 10.7708L18.5622 10.5078C19.0622 10.5298 19.5742 10.5688 20.0962 10.6128L19.9562 10.8748ZM20.8602 10.9648L21.0042 10.6928L21.4272 10.7318L21.8292 10.7758L21.8792 10.7808H21.9112L21.7632 11.0608L19.3232 15.6588L19.1232 16.0358L17.9792 16.3988L18.1762 16.0258L20.8602 10.9648ZM6.51022 12.2348L6.49422 12.0868L6.48322 11.9438C6.46809 11.7179 6.53135 11.4936 6.66233 11.3089C6.79331 11.1242 6.984 10.9903 7.20222 10.9298C7.00986 12.5658 7.15276 14.2238 7.62222 15.8028L7.57722 15.7888C7.4148 15.7314 7.26728 15.6384 7.14547 15.5165C7.02366 15.3947 6.93064 15.2472 6.87322 15.0848C6.82953 14.9471 6.80201 14.8048 6.79122 14.6608L6.54322 12.5348L6.51022 12.2348ZM9.26422 23.6878L9.24922 23.6758L9.25622 23.6858C9.20045 23.6707 9.14904 23.6426 9.10622 23.6038C8.48926 22.8386 7.96495 22.0031 7.54422 21.1148C6.68048 19.272 6.41474 17.2052 6.78422 15.2038L6.78822 15.2138C6.87386 15.377 6.99443 15.5193 7.14135 15.6307C7.28827 15.742 7.45791 15.8195 7.63822 15.8578C7.85122 16.5598 8.12722 17.2408 8.46322 17.8928L8.51322 17.9808L8.60622 18.0248C8.95822 18.1688 9.31722 18.2948 9.68222 18.4038H9.69122L9.66522 18.4118C9.58439 18.439 9.50466 18.4693 9.42622 18.5028C9.36025 18.5303 9.2949 18.5594 9.23022 18.5898L8.80622 18.7928L8.66922 18.8588L8.65222 18.9968C8.53273 20.0428 8.63703 21.1022 8.95822 22.1048C9.11322 22.6038 9.33122 23.0808 9.60722 23.5248L9.61222 23.5348L9.62922 23.5788C9.65322 23.6898 9.43922 23.7348 9.26422 23.6888V23.6878ZM13.0442 25.8998C12.27 25.6166 11.5623 25.1772 10.9652 24.6088C10.6247 24.2759 10.3341 23.8957 10.1022 23.4798C9.87191 23.0635 9.69453 22.6201 9.57422 22.1598C9.45622 21.6987 9.38421 21.2271 9.35922 20.7518C9.32939 20.3349 9.34246 19.916 9.39822 19.5018L9.65622 19.3988C9.92122 19.3118 10.1892 19.2348 10.4592 19.1688L10.8722 19.0858C11.2292 19.0258 11.5882 18.9828 11.9502 18.9588H11.9932L12.0092 18.9608C11.7002 19.803 11.5444 20.6937 11.5492 21.5908C11.5492 23.3808 12.1392 24.9038 13.0762 25.9188L13.0442 25.8998ZM17.3442 24.7568C16.9302 24.9911 16.4619 25.1125 15.9862 25.1088C15.4906 25.1111 15.0037 24.978 14.5782 24.7238C14.3762 24.5051 14.204 24.2607 14.0662 23.9968C14.2993 24.2673 14.587 24.4855 14.9103 24.6371C15.2335 24.7887 15.5852 24.8704 15.9422 24.8767C16.2992 24.883 16.6536 24.8139 16.982 24.6738C17.3105 24.5337 17.6057 24.3258 17.8482 24.0638C17.7113 24.3162 17.5419 24.5495 17.3442 24.7578V24.7568ZM15.9862 24.3388C15.7287 24.34 15.4736 24.2904 15.2352 24.193C14.9969 24.0955 14.7801 23.952 14.5973 23.7707C14.4144 23.5895 14.2691 23.3739 14.1696 23.1365C14.07 22.899 14.0183 22.6443 14.0172 22.3868V22.3798C14.0168 21.9925 14.1312 21.6137 14.3459 21.2914C14.5606 20.969 14.866 20.7175 15.2235 20.5685C15.581 20.4196 15.9746 20.3799 16.3547 20.4545C16.7348 20.5291 17.0842 20.7146 17.3589 20.9877C17.6336 21.2607 17.8213 21.609 17.8982 21.9886C17.9751 22.3682 17.9378 22.7621 17.7911 23.1205C17.6443 23.4789 17.3947 23.7858 17.0736 24.0025C16.7526 24.2191 16.3745 24.3358 15.9872 24.3378V24.3388H15.9862ZM18.4742 21.9998C18.3735 21.4048 18.0629 20.8656 17.5987 20.4801C17.1345 20.0945 16.5475 19.8881 15.9441 19.8982C15.3408 19.9084 14.761 20.1345 14.3101 20.5354C13.8591 20.9364 13.5668 21.4858 13.4862 22.0838C13.4564 21.8572 13.4381 21.6292 13.4312 21.4008C13.6325 20.8874 13.9845 20.4471 14.4409 20.1377C14.8974 19.8283 15.4368 19.6645 15.9882 19.6678H15.9982C16.5388 19.6665 17.0675 19.8258 17.5174 20.1254C17.9673 20.4251 18.318 20.8515 18.5252 21.3508C18.5184 21.5681 18.5014 21.785 18.4742 22.0008V21.9998ZM18.9062 25.9308H18.9162L18.8962 25.9378C19.8462 24.9218 20.4462 23.3888 20.4462 21.5848C20.4516 20.6876 20.2954 19.7967 19.9852 18.9548H19.9992C21.4142 19.1588 22.1512 19.8848 22.1512 19.8848C22.1512 19.8848 22.3012 24.0308 18.9082 25.9308H18.9062ZM25.3692 16.9908V17.2048C25.3692 17.2538 25.3652 17.3018 25.3642 17.3498C25.3608 17.4593 25.3548 17.5686 25.3462 17.6778C25.3462 17.7118 25.3402 17.7468 25.3372 17.7808C25.3312 17.8518 25.3252 17.9238 25.3172 17.9938C25.3172 18.0098 25.3142 18.0258 25.3122 18.0418C25.3046 18.1105 25.2963 18.1792 25.2872 18.2478V18.2578L25.2592 18.4558V18.4628C25.1007 19.4945 24.7772 20.4939 24.3012 21.4228L24.2672 21.4888C24.2322 21.5558 24.1972 21.6238 24.1602 21.6908C23.7975 22.3673 23.3723 23.0084 22.8902 23.6058C22.8496 23.6445 22.8002 23.6726 22.7462 23.6878L22.7522 23.6778L22.7372 23.6898C22.5642 23.7398 22.3432 23.6968 22.3672 23.5798L22.3842 23.5358L22.3942 23.5258C22.6672 23.0798 22.8842 22.6038 23.0392 22.1058C23.355 21.1041 23.4578 20.0475 23.3412 19.0038L23.3252 18.8668L23.1872 18.8008C23.0442 18.7288 22.9072 18.6578 22.7642 18.5968L22.3292 18.4208L22.2902 18.4068L22.3002 18.4038C22.6632 18.2968 23.0202 18.1688 23.3692 18.0228L23.4622 17.9788L23.5122 17.8908C23.8472 17.2388 24.1222 16.5588 24.3342 15.8588C24.7092 15.7818 25.0292 15.5418 25.2072 15.2038C25.3122 15.7658 25.3672 16.3368 25.3722 16.9088C25.3704 16.9361 25.3694 16.9634 25.3692 16.9908Z" fill="white"/>
<path d="M9.6461 11.135L9.8771 10.855H9.9541H9.8391C9.7231 11.025 9.5811 11.188 9.4541 11.355C9.5271 11.281 9.5841 11.212 9.6461 11.135Z" fill="black"/>
<path d="M16.95 6.20996C17.434 6.33696 17.753 6.56796 17.753 6.83696C17.753 7.10696 17.429 7.33696 16.95 7.46396C17.61 7.40396 18.105 7.14496 18.105 6.83696C18.105 6.52896 17.61 6.26796 16.95 6.20996ZM15.359 8.68196C15.4257 8.68197 15.4897 8.65576 15.5372 8.60899C15.5847 8.56221 15.6119 8.49863 15.613 8.43196C15.613 8.39849 15.6064 8.36534 15.5935 8.33445C15.5806 8.30355 15.5618 8.27551 15.538 8.25196C15.5143 8.22866 15.4862 8.21043 15.4552 8.19839C15.4243 8.18636 15.3912 8.18077 15.358 8.18196C15.2924 8.18275 15.2298 8.20951 15.1839 8.25636C15.1379 8.30322 15.1125 8.36636 15.113 8.43196C15.113 8.56996 15.223 8.68196 15.359 8.68196ZM8.71398 9.52396C8.66437 9.52443 8.616 9.53953 8.57493 9.56738C8.53386 9.59522 8.50193 9.63457 8.48313 9.68049C8.46434 9.72641 8.45952 9.77686 8.46928 9.82551C8.47903 9.87416 8.50294 9.91884 8.53799 9.95396C8.58499 10.001 8.64798 10.026 8.71398 10.024C8.7636 10.0235 8.81197 10.0084 8.85304 9.98055C8.89411 9.9527 8.92604 9.91335 8.94483 9.86743C8.96363 9.82151 8.96845 9.77106 8.95869 9.72242C8.94894 9.67377 8.92503 9.62908 8.88999 9.59396C8.86704 9.57082 8.83956 9.55266 8.80928 9.54061C8.779 9.52857 8.74656 9.5229 8.71398 9.52396ZM9.40698 17.597C9.4566 17.5965 9.50497 17.5814 9.54604 17.5535C9.58711 17.5257 9.61904 17.4864 9.63783 17.4404C9.65663 17.3945 9.66145 17.3441 9.65169 17.2954C9.64194 17.2468 9.61803 17.2021 9.58299 17.167C9.56004 17.1438 9.53256 17.1257 9.50228 17.1136C9.472 17.1016 9.43956 17.0959 9.40698 17.097C9.34084 17.0975 9.27756 17.124 9.23079 17.1708C9.18402 17.2175 9.15751 17.2808 9.15698 17.347C9.16198 17.487 9.27198 17.597 9.40698 17.597ZM15.479 18.554C15.5286 18.5535 15.577 18.5384 15.618 18.5105C15.6591 18.4827 15.691 18.4434 15.7098 18.3974C15.7286 18.3515 15.7335 18.3011 15.7237 18.2524C15.7139 18.2038 15.69 18.1591 15.655 18.124C15.632 18.1008 15.6046 18.0827 15.5743 18.0706C15.544 18.0586 15.5116 18.0529 15.479 18.054C15.4122 18.0553 15.3486 18.0827 15.3019 18.1304C15.2552 18.1781 15.229 18.2422 15.229 18.309C15.2333 18.3734 15.2612 18.4339 15.3073 18.4791C15.3534 18.5243 15.4145 18.5509 15.479 18.554ZM16.844 8.68696C16.9107 8.68697 16.9747 8.66076 17.0222 8.61399C17.0697 8.56721 17.0969 8.50363 17.098 8.43696C17.098 8.40349 17.0914 8.37034 17.0785 8.33945C17.0657 8.30855 17.0468 8.28051 17.023 8.25696C16.9993 8.23366 16.9712 8.21543 16.9402 8.20339C16.9093 8.19136 16.8762 8.18577 16.843 8.18696C16.7774 8.18775 16.7148 8.2145 16.6689 8.26136C16.6229 8.30822 16.5975 8.37136 16.598 8.43696C16.598 8.57596 16.708 8.68696 16.844 8.68696ZM16.722 18.06C16.656 18.061 16.593 18.0877 16.5463 18.1343C16.4997 18.181 16.473 18.244 16.472 18.31C16.482 18.447 16.589 18.555 16.722 18.56C16.7716 18.5595 16.82 18.5444 16.861 18.5165C16.9021 18.4887 16.934 18.4494 16.9528 18.4034C16.9716 18.3575 16.9765 18.3071 16.9667 18.2584C16.9569 18.2098 16.933 18.1651 16.898 18.13C16.875 18.1068 16.8476 18.0887 16.8173 18.0766C16.787 18.0646 16.7546 18.0589 16.722 18.06ZM9.94498 19.743C9.90141 19.7398 9.85784 19.749 9.81927 19.7695C9.7807 19.7901 9.74871 19.8211 9.72699 19.859C9.7039 19.8978 9.69122 19.942 9.69016 19.9872C9.68911 20.0324 9.69973 20.0771 9.72098 20.117C9.76498 20.197 9.84699 20.246 9.93499 20.242H9.94498C10.0104 20.2407 10.0727 20.2137 10.1185 20.167C10.1643 20.1203 10.19 20.0574 10.19 19.992C10.1907 19.9283 10.1671 19.8668 10.124 19.82C10.101 19.7953 10.0731 19.7757 10.0421 19.7624C10.0111 19.7492 9.9777 19.7426 9.94399 19.743H9.94498ZM11.454 19.292C11.4214 19.2922 11.3892 19.2989 11.3592 19.3116C11.3292 19.3243 11.302 19.3428 11.2792 19.366C11.2564 19.3892 11.2383 19.4167 11.2261 19.4469C11.2139 19.4771 11.2077 19.5094 11.208 19.542C11.208 19.68 11.318 19.792 11.454 19.792C11.5207 19.792 11.5847 19.7658 11.6322 19.719C11.6797 19.6722 11.7069 19.6086 11.708 19.542C11.708 19.5085 11.7014 19.4753 11.6885 19.4444C11.6756 19.4135 11.6568 19.3855 11.633 19.362C11.6093 19.3387 11.5812 19.3204 11.5502 19.3084C11.5193 19.2964 11.4862 19.2908 11.453 19.292H11.454ZM20.75 19.292C20.7172 19.2932 20.6849 19.3009 20.655 19.3146C20.6252 19.3283 20.5983 19.3478 20.576 19.3719C20.5537 19.396 20.5363 19.4243 20.5249 19.4551C20.5135 19.4859 20.5082 19.5186 20.5095 19.5515C20.5107 19.5843 20.5184 19.6166 20.5322 19.6464C20.5459 19.6763 20.5653 19.7031 20.5894 19.7255C20.6135 19.7478 20.6418 19.7652 20.6726 19.7766C20.7034 19.788 20.7362 19.7932 20.769 19.792C20.8353 19.7893 20.8978 19.7604 20.9428 19.7117C20.9878 19.6629 21.0116 19.5983 21.009 19.532C21.0063 19.4657 20.9775 19.4031 20.9287 19.3581C20.8799 19.3131 20.8153 19.2893 20.749 19.292H20.75Z" fill="white"/>
</g>
<defs>
<clipPath id="clip0_301_1591">
<rect width="32" height="32" fill="white"/>
</clipPath>
</defs>
</svg>
