<svg width="32" height="32" viewBox="0 0 32 32" fill="none" xmlns="http://www.w3.org/2000/svg">
<g clip-path="url(#clip0_301_1571)">
<path d="M16 32C24.8366 32 32 24.8366 32 16C32 7.16344 24.8366 0 16 0C7.16344 0 0 7.16344 0 16C0 24.8366 7.16344 32 16 32Z" fill="#FFF300"/>
<path d="M22.6398 9.56792C22.2998 8.80692 21.9848 7.30292 21.1148 6.96792C19.9948 6.53792 19.3038 9.35592 19.1388 10.0679H18.9718C18.6898 8.84792 18.3118 7.11792 16.9718 6.73392C16.3518 9.33892 17.6198 12.1479 18.8058 14.4029C20.0718 13.7969 20.6888 11.9029 20.8058 10.5679H20.9728L22.3068 14.5689C23.3798 14.2609 23.7528 13.1989 24.1398 12.2349C24.9718 10.1669 25.6698 7.62292 25.1398 5.39992C23.5398 5.85392 23.0518 8.14292 22.6398 9.56792ZM6.63577 14.9029C8.06777 14.2189 8.74977 12.0529 8.96977 10.5679H9.13576C9.30576 11.2839 9.75876 13.1299 10.6528 13.2479C11.7928 13.3989 12.3898 10.8709 12.4698 10.0679H12.6368C12.9998 11.3229 13.3828 12.9559 14.6368 13.5689C15.1008 11.6249 14.5468 9.55192 13.8358 7.73392C13.6528 7.26692 13.2778 6.00592 12.6328 6.00592C11.5768 6.00592 10.9828 8.78992 10.8028 9.56792H10.6368L9.30277 5.56692C6.95677 6.68692 5.68277 12.6439 6.63577 14.9029ZM4.13477 16.9029C5.87477 24.4969 13.9058 28.8029 21.1398 25.5949C23.7624 24.4296 25.8691 22.3464 27.0638 19.7369C27.3748 19.0629 27.9858 17.8419 27.6298 16.9569C27.2748 16.0749 23.8348 17.5149 22.9748 17.8919C22.9154 17.9182 22.8635 17.959 22.824 18.0105C22.7845 18.0621 22.7587 18.1227 22.7488 18.1869C22.7347 18.2785 22.7398 18.3719 22.7636 18.4615C22.7874 18.551 22.8294 18.6346 22.8871 18.7071C22.9447 18.7796 23.0167 18.8394 23.0986 18.8827C23.1805 18.926 23.2704 18.952 23.3628 18.9589L24.8068 19.0709C22.1918 24.1329 15.1208 26.3709 10.1368 22.3269C9.02077 21.4219 8.02577 20.3469 7.35577 19.0709C7.03177 18.4539 6.73077 17.6649 6.18077 17.2409C5.65077 16.8349 4.84877 16.6949 4.13477 16.9029Z" fill="white"/>
</g>
<defs>
<clipPath id="clip0_301_1571">
<rect width="32" height="32" fill="white"/>
</clipPath>
</defs>
</svg>
