<svg width="32" height="32" viewBox="0 0 32 32" fill="none" xmlns="http://www.w3.org/2000/svg">
<g clip-path="url(#clip0_301_1543)">
<path d="M16 32C24.8366 32 32 24.8366 32 16C32 7.16344 24.8366 0 16 0C7.16344 0 0 7.16344 0 16C0 24.8366 7.16344 32 16 32Z" fill="#35A5F3"/>
<path d="M7.01995 7.02711C8.28995 5.70011 10.6099 5.64711 11.9209 6.93711C13.2909 8.27711 14.6469 9.62911 15.9889 10.9941C17.4169 9.63711 18.7529 8.18911 20.1869 6.83811C21.5509 5.60611 23.8709 5.75511 25.0819 7.13511C26.3239 8.43711 26.3039 10.7081 25.0149 11.9721C23.6879 13.3231 22.3439 14.6541 21.0049 15.9941C22.3729 17.4031 23.7979 18.7571 25.1549 20.1841C26.3709 21.5171 26.2549 23.7891 24.9359 25.0141C23.6389 26.3241 21.3129 26.3281 20.0179 25.0121C18.6709 23.6901 17.3529 22.3361 16.0149 21.0081C14.5869 22.3821 13.2249 23.8241 11.7819 25.1841C10.3999 26.4101 8.06995 26.2271 6.87995 24.8201C5.67995 23.5211 5.70995 21.3081 6.95995 20.0501C8.13477 18.8474 9.32351 17.6583 10.5259 16.4831L12.0329 17.9881C10.8569 19.2021 9.61995 20.3641 8.46195 21.5961C7.68095 22.3961 8.36895 23.8881 9.46595 23.8701C10.1309 23.9291 10.5899 23.3781 11.0219 22.9621C12.1689 21.7941 13.3329 20.6471 14.4799 19.4791C11.9799 16.9571 9.43995 14.4701 6.95195 11.9371C5.65395 10.6291 5.69495 8.29711 7.02195 7.02711H7.01995ZM8.47294 10.4171C9.79594 11.7971 11.1699 13.1281 12.5169 14.4851C13.1669 13.8271 13.8209 13.1731 14.4789 12.5221C13.1759 11.2091 11.8779 9.88711 10.5569 8.59211C10.1359 8.13711 9.41595 7.96811 8.86695 8.29411C8.10295 8.66411 7.86195 9.80011 8.47195 10.4171H8.47294ZM21.4129 8.62711C18.9269 11.0671 16.4909 13.5591 14.0179 16.0111C14.6849 16.6581 15.3499 17.3071 16.0009 17.9711C16.4999 17.4791 16.9959 16.9811 17.4929 16.4831C17.9949 16.9841 18.4939 17.4881 18.9999 17.9861C18.5089 18.4861 18.0149 18.9821 17.5159 19.4761C18.8569 20.8251 20.1719 22.1991 21.5569 23.5041C22.2599 24.2441 23.6239 23.7951 23.8269 22.8201C24.0449 22.1301 23.5489 21.5331 23.0809 21.0991C20.8775 18.9062 18.6789 16.7085 16.4849 14.5061C16.9873 14.0051 17.4876 13.5021 17.9859 12.9971C18.4859 13.4951 18.9849 13.9931 19.4959 14.4831C20.8109 13.1201 22.2049 11.8331 23.4999 10.4491C24.1529 9.81511 23.8919 8.60011 23.0579 8.25711C22.4979 7.96811 21.8149 8.17211 21.4119 8.62711H21.4129Z" fill="white"/>
</g>
<defs>
<clipPath id="clip0_301_1543">
<rect width="32" height="32" fill="white"/>
</clipPath>
</defs>
</svg>
