<svg width="32" height="32" viewBox="0 0 32 32" fill="none" xmlns="http://www.w3.org/2000/svg">
<g clip-path="url(#clip0_301_1535)">
<path d="M16 32C24.8366 32 32 24.8366 32 16C32 7.16344 24.8366 0 16 0C7.16344 0 0 7.16344 0 16C0 24.8366 7.16344 32 16 32Z" fill="#56C9E9"/>
<path d="M23.8799 9.4431C23.1259 9.1651 21.4599 9.5811 21.3799 9.7001C21.6979 9.7601 21.7969 9.8001 22.2729 9.8791C22.7829 9.9721 23.2729 10.1531 23.7209 10.4151C24.1969 10.6921 24.3949 10.3151 24.3949 10.3151C24.4749 10.1371 24.2569 9.5811 23.8799 9.4431ZM10.3329 6.1501C10.2111 5.95783 10.0785 5.77254 9.93592 5.5951C9.55892 5.1981 8.82592 5.0001 8.42792 5.1981C8.20992 5.2981 8.11092 5.4361 8.28992 5.6741C8.50692 5.8891 8.78292 6.03411 9.08292 6.0911C9.26092 6.1311 10.0549 6.3091 10.2529 6.3481C10.4529 6.3481 10.3329 6.1501 10.3329 6.1501ZM11.1259 8.1531C11.1101 8.11769 11.0815 8.0895 11.0459 8.07411C10.5566 8.13574 10.0607 8.03114 9.63792 7.7771C9.54225 7.70957 9.42802 7.67331 9.31092 7.67331C9.19382 7.67331 9.07959 7.70957 8.98392 7.7771C8.72592 7.9951 9.10292 8.25311 9.12292 8.25311C9.28092 8.35211 9.45992 8.31311 9.61892 8.35211C10.0072 8.46461 10.4059 8.53765 10.8089 8.5701C11.1459 8.5701 11.2249 8.4501 11.1259 8.1531ZM24.2569 7.4201C24.2969 7.30011 24.2569 6.9041 23.5419 7.0031C22.9469 7.1031 22.5309 7.26111 22.5509 7.34011C22.5709 7.4201 23.2249 7.5391 23.3639 7.5581C23.9189 7.6581 24.2369 7.49811 24.2569 7.4201ZM17.0369 4.1071C16.9674 4.04278 16.8772 4.00542 16.7826 4.00175C16.688 3.99808 16.5952 4.02835 16.5209 4.0871C15.9259 4.4641 16.3619 5.7531 16.4209 5.7531C16.4809 5.7531 16.5409 5.29711 17.1359 4.62311C17.1641 4.58296 17.1839 4.53754 17.1942 4.48956C17.2044 4.44157 17.2049 4.39202 17.1956 4.34385C17.1862 4.29569 17.1673 4.2499 17.1399 4.20922C17.1124 4.16854 17.0771 4.13381 17.0359 4.1071H17.0369ZM15.1459 7.93811C15.0959 7.88811 15.1459 7.88811 15.1459 7.93811V7.93811Z" fill="white"/>
<path d="M14.5769 7.29994C14.1999 7.10194 14.5169 6.12994 14.3789 5.77294C14.3659 5.7179 14.3394 5.66694 14.3019 5.6246C14.2644 5.58225 14.217 5.54983 14.164 5.53023C14.1109 5.51064 14.0538 5.50446 13.9978 5.51226C13.9418 5.52006 13.8886 5.54159 13.8429 5.57494C13.7914 5.59589 13.7452 5.62787 13.7074 5.66863C13.6696 5.7094 13.6412 5.75795 13.6243 5.81087C13.6073 5.86379 13.6021 5.91979 13.6092 5.97492C13.6162 6.03005 13.6352 6.08297 13.6649 6.12994C13.7449 6.28894 14.2199 7.20094 13.8429 7.35994C13.7039 7.41994 13.4069 7.29994 13.2089 7.18094C12.4949 6.86394 12.3759 5.77294 12.1569 5.63394C12.0556 5.55923 11.9322 5.52061 11.8064 5.52423C11.6807 5.52786 11.5597 5.57352 11.4629 5.65394C11.3653 5.70896 11.2912 5.79787 11.2547 5.90384C11.2182 6.00981 11.2218 6.12547 11.2649 6.22894C11.3639 6.40794 11.7409 6.50694 11.8199 7.12194L12.0579 7.29994C12.1779 7.39994 12.2959 7.49894 12.4349 7.59794C12.7919 7.95494 12.7129 8.01494 13.4469 7.89594C13.6849 7.81594 13.6449 7.49894 13.8829 7.41994C14.0309 7.40038 14.1814 7.42075 14.3189 7.47894C14.5379 7.59494 14.7219 7.76594 14.8549 7.97494C15.1719 8.35194 15.3109 8.82794 15.5889 9.24494C15.6849 9.41894 15.8049 9.57894 15.9459 9.71994L16.2429 9.95794C16.6599 10.2359 17.0369 10.2159 17.3339 9.89794C17.4147 9.84014 17.4829 9.7664 17.5341 9.68127C17.5854 9.59614 17.6186 9.50142 17.6319 9.40294C17.79 8.92489 17.9908 8.46202 18.2319 8.01994C18.2339 8.01813 18.2363 8.01676 18.2389 8.0159C18.2415 8.01504 18.2442 8.01471 18.2469 8.01494C18.2478 8.00464 18.2523 7.99498 18.2596 7.98766C18.2669 7.98035 18.2766 7.97584 18.2869 7.97494C18.342 7.93626 18.4076 7.9155 18.4749 7.9155C18.5422 7.9155 18.6078 7.93626 18.6629 7.97494C18.7229 8.05494 18.6029 8.78794 18.6629 8.86694C18.7029 9.02694 18.9999 8.92694 19.2579 8.90694C19.2823 8.87646 19.3025 8.84282 19.3179 8.80694C19.7539 8.66894 20.1709 8.45094 20.6069 8.33194H20.8449C21.0879 8.29194 21.3349 8.29194 21.5789 8.33194C21.8169 8.33194 21.8959 8.47094 21.8759 8.68894C22.2729 8.66894 22.6699 8.66894 23.0659 8.62894C23.2449 8.60894 23.5229 8.60894 23.5029 8.27194C23.4629 8.07394 23.1459 7.51894 21.6979 7.85594C21.5589 7.89594 20.7659 8.13394 20.4879 7.99494C20.9109 7.72094 21.3479 7.46994 21.7969 7.24094C21.9949 7.08194 22.1539 6.86394 22.0349 6.62594C21.9159 6.38794 21.6779 6.40794 21.4599 6.48694C21.049 6.61463 20.6748 6.83928 20.3689 7.14194C20.1679 7.34594 19.9489 7.53194 19.7139 7.69694C19.1389 7.97494 19.1389 7.97494 18.9999 7.93494C18.8219 7.85494 18.6229 7.71694 18.7619 7.51894C18.8429 7.38994 18.9029 7.24894 18.9409 7.10194C19.0009 6.84394 18.9209 6.76494 18.7419 6.76494C18.3849 6.78494 18.2659 7.29994 18.2069 7.37994C18.1689 7.45794 18.1219 7.52994 18.0679 7.59794C18.0219 7.64341 17.964 7.67502 17.9009 7.68916C17.8378 7.70331 17.7719 7.69942 17.7109 7.67794C17.5919 7.65794 17.4929 7.59794 17.5919 7.43894C17.7709 7.16194 18.3259 6.72494 18.4849 6.14994C18.4849 6.14994 18.7619 5.39594 17.9889 5.37694C17.5719 5.35694 17.2349 5.65394 17.1159 6.10994C16.9969 6.58594 17.2549 7.24094 17.1159 7.55794C17.0659 7.69194 16.9989 7.81794 16.9179 7.93494C16.7843 8.05469 16.6113 8.12092 16.4319 8.12092C16.2525 8.12092 16.0795 8.05469 15.9459 7.93494C15.8696 7.84594 15.8139 7.74113 15.783 7.62804C15.752 7.51495 15.7465 7.39641 15.7669 7.28094C15.8349 7.01949 15.8879 6.7544 15.9259 6.48694C15.9459 6.28894 15.5889 5.93194 15.2909 6.16994C15.1519 6.26994 15.2109 6.42794 15.2709 6.56694C15.3709 6.86394 15.5489 7.71694 14.5769 7.29994ZM15.1329 7.91494C15.1129 7.89494 15.1329 7.89494 15.1329 7.91494V7.91494Z" fill="white"/>
<path d="M15.7869 8.81H17.0969C17.2149 8.784 17.3319 8.876 17.4139 9.058C17.4199 9.158 17.3959 9.256 17.3539 9.306C17.1367 9.20405 16.8998 9.15119 16.6599 9.15119C16.42 9.15119 16.183 9.20405 15.9659 9.306H15.9059L15.7869 8.81Z" fill="white"/>
<path d="M20.5868 8.27222C20.0815 8.41493 19.585 8.58723 19.0998 8.78822C19.0566 8.80157 19.0103 8.80104 18.9675 8.78669C18.9246 8.77233 18.8873 8.74489 18.8608 8.70822C18.8412 8.66468 18.8311 8.61747 18.8311 8.56972C18.8311 8.52196 18.8412 8.47475 18.8608 8.43122C18.8807 8.3667 18.8807 8.29773 18.8608 8.23322C18.8204 8.12477 18.7521 8.02889 18.6628 7.95522C18.6241 7.92314 18.5788 7.90004 18.5301 7.88759C18.4814 7.87514 18.4305 7.87364 18.3812 7.88321C18.3318 7.89277 18.2852 7.91316 18.2447 7.9429C18.2042 7.97265 18.1708 8.011 18.1468 8.05522C17.8806 8.47143 17.68 8.92606 17.5518 9.40322C17.5043 9.59437 17.4009 9.76704 17.2548 9.89922C16.9568 10.1572 16.6798 10.1772 16.2828 9.95922C16.1724 9.87893 16.0665 9.79246 15.9658 9.70022C15.8295 9.54847 15.7098 9.38252 15.6088 9.20522C15.4488 8.90722 15.2908 8.59022 15.1328 8.31222C14.9138 7.95522 14.6958 7.61822 14.2998 7.43922C14.1725 7.39304 14.0342 7.38607 13.9028 7.41922C13.8449 7.43043 13.7901 7.45401 13.7421 7.48836C13.6941 7.5227 13.6541 7.567 13.6248 7.61822C13.5648 7.71722 12.7718 7.73722 12.4948 7.57822C12.3548 7.49822 11.9588 7.10222 11.8198 7.14222C11.7008 7.14222 11.6418 7.06222 11.5618 7.00322C11.3841 6.8811 11.1799 6.80299 10.966 6.77534C10.7522 6.7477 10.5348 6.77131 10.3318 6.84422C10.2469 6.86423 10.1697 6.90872 10.1098 6.97218C10.0499 7.03563 10.0099 7.11527 9.99484 7.20122C9.99589 7.29286 10.025 7.38197 10.0783 7.45654C10.1316 7.53111 10.2065 7.58754 10.2928 7.61822C10.4898 7.69222 10.6818 7.77822 10.8678 7.87622C10.9678 7.91622 11.1258 7.93622 11.1058 8.11422C11.1042 8.16137 11.111 8.20844 11.1258 8.25322C11.1458 8.51022 10.9668 8.53022 10.7888 8.53022C10.5348 8.50998 10.2827 8.4702 10.0348 8.41122C9.7606 8.31875 9.46997 8.28502 9.18184 8.31222C9.10184 8.41222 9.00384 8.35222 8.90384 8.37222C8.54684 8.43222 8.26984 8.68922 8.28984 8.98622C8.30984 9.32422 8.58684 9.40322 8.86484 9.46222C9.53884 9.62222 10.2138 9.56222 10.8878 9.58222C11.7008 9.58222 12.1578 9.97822 12.2758 10.7922C12.3558 11.3862 14.1408 27.0162 14.1608 27.3532C14.1625 27.4221 14.1866 27.4885 14.2296 27.5423C14.2726 27.5961 14.332 27.6344 14.3988 27.6512C15.0728 27.8562 15.7768 27.9512 16.4808 27.9292C17.2718 27.9492 18.0608 27.8492 18.8208 27.6312C18.9408 27.5912 19.0398 27.5512 19.0398 27.3932C19.0598 26.9772 20.1898 12.0412 20.1898 11.8032C20.178 11.1086 20.4018 10.4304 20.8248 9.87922C21.1618 9.48222 21.5388 9.12522 21.8758 8.72922C21.9758 8.17322 21.2608 8.17322 20.5868 8.27222Z" fill="white"/>
</g>
<defs>
<clipPath id="clip0_301_1535">
<rect width="32" height="32" fill="white"/>
</clipPath>
</defs>
</svg>
