<svg width="32" height="32" viewBox="0 0 32 32" fill="none" xmlns="http://www.w3.org/2000/svg">
<g clip-path="url(#clip0_301_2492)">
<path d="M16 32C24.8366 32 32 24.8366 32 16C32 7.16344 24.8366 0 16 0C7.16344 0 0 7.16344 0 16C0 24.8366 7.16344 32 16 32Z" fill="#FF914D"/>
<path fill-rule="evenodd" clip-rule="evenodd" d="M15.9999 27.2579C9.78194 27.2579 4.74194 22.2179 4.74194 15.9999C4.74194 9.78194 9.78194 4.74194 15.9999 4.74194C22.2179 4.74194 27.2579 9.78194 27.2579 15.9999C27.2579 22.2179 22.2179 27.2579 15.9999 27.2579ZM15.9999 26.5959C21.8519 26.5959 26.5959 21.8519 26.5959 15.9999C26.5959 10.1479 21.8519 5.40394 15.9999 5.40394C10.1479 5.40394 5.40394 10.1479 5.40394 15.9999C5.40394 21.8519 10.1479 26.5959 15.9999 26.5959Z" fill="white"/>
<path d="M14.09 24.1319C14.338 24.0299 15.308 23.2819 16.245 22.4769C17.4063 21.4892 18.5234 20.4505 19.593 19.3639C20.619 18.3379 21 17.8969 21.063 17.6689C21.285 16.8679 18.858 8.06295 18.364 7.87395C18.063 7.75795 15.371 9.99695 12.987 12.3409C11.589 13.7149 11.202 14.1719 11.172 14.4709C11.152 14.7019 11.232 15.2809 11.381 15.9669C11.974 18.6889 13.053 22.4499 13.599 23.6849C13.828 24.2089 13.854 24.2319 14.089 24.1319H14.09Z" fill="white"/>
</g>
<defs>
<clipPath id="clip0_301_2492">
<rect width="32" height="32" fill="white"/>
</clipPath>
</defs>
</svg>
