<svg width="32" height="32" viewBox="0 0 32 32" fill="none" xmlns="http://www.w3.org/2000/svg">
<g clip-path="url(#clip0_301_2392)">
<path d="M16 32C24.8366 32 32 24.8366 32 16C32 7.16344 24.8366 0 16 0C7.16344 0 0 7.16344 0 16C0 24.8366 7.16344 32 16 32Z" fill="#2DAEE4"/>
<path fill-rule="evenodd" clip-rule="evenodd" d="M8.30294 11.9569H8.41294C9.37594 11.9389 10.2129 11.5749 10.9229 10.8659C11.6129 10.1199 11.9589 9.26495 11.9589 8.30095C11.9589 7.80995 12.1359 7.38695 12.4909 7.03195C12.6592 6.85946 12.861 6.72327 13.0839 6.63177C13.3068 6.54027 13.546 6.49541 13.7869 6.49995C14.2769 6.49995 14.7009 6.67695 15.0549 7.03195C15.4099 7.38695 15.5869 7.80995 15.5869 8.30095C15.5869 8.79095 15.4189 9.21495 15.0829 9.56995C14.9285 9.73986 14.7414 9.87692 14.5328 9.97296C14.3242 10.069 14.0985 10.1221 13.8689 10.1289C12.8319 10.0919 11.9409 10.4469 11.1949 11.1929C10.4489 11.9389 10.0949 12.8119 10.1309 13.8129C10.1669 14.8489 10.5409 15.7129 11.2499 16.4039C12.0319 17.0949 12.9049 17.4319 13.8689 17.4139C14.0985 17.421 14.3244 17.4742 14.5329 17.5704C14.7415 17.6666 14.9286 17.8039 15.0829 17.9739C15.4189 18.3279 15.5869 18.7419 15.5869 19.2139C15.5869 19.7239 15.4099 20.1559 15.0549 20.5109C14.8911 20.6815 14.6941 20.8167 14.476 20.9082C14.2579 20.9997 14.0234 21.0455 13.7869 21.0429C13.2769 21.0429 12.8459 20.8649 12.4909 20.5109C12.3185 20.3427 12.1823 20.1409 12.0908 19.918C11.9993 19.6951 11.9544 19.4558 11.9589 19.2149C11.9666 18.7479 11.8786 18.2843 11.7003 17.8526C11.5219 17.4209 11.257 17.0303 10.9219 16.7049C10.5983 16.3617 10.2099 16.086 9.77904 15.8937C9.34822 15.7015 8.88356 15.5965 8.41194 15.5849C8.06694 15.6039 7.77194 15.5489 7.52594 15.4219C7.28427 15.2981 7.07787 15.115 6.92594 14.8899C6.76925 14.6583 6.65795 14.3991 6.59794 14.1259C6.53504 13.8532 6.52149 13.5714 6.55794 13.2939C6.79394 12.4029 7.37594 11.9569 8.30294 11.9569ZM8.32794 17.4139C8.80094 17.4139 9.21494 17.5869 9.56894 17.9329C9.92394 18.2779 10.1099 18.6879 10.1289 19.1609C10.1099 20.1609 10.4559 21.0339 11.1649 21.7799C11.8749 22.5069 12.7289 22.8709 13.7299 22.8709H13.8119C14.7939 22.8709 15.6389 22.5069 16.3489 21.7799C17.0759 21.0519 17.4309 20.1799 17.4129 19.1599C17.4116 18.6827 17.3114 18.211 17.1189 17.7744C16.9263 17.3378 16.6454 16.9457 16.2939 16.6229C15.5759 15.9399 14.7409 15.5939 13.7869 15.5859H13.6749C13.4454 15.5791 13.2196 15.526 13.0111 15.43C12.8025 15.3339 12.6154 15.1969 12.4609 15.0269C12.2974 14.8591 12.1685 14.6606 12.0819 14.4428C11.9952 14.225 11.9524 13.9923 11.9559 13.7579C11.9559 13.2679 12.1339 12.8439 12.4879 12.4889C12.7889 12.1889 13.1459 12.0149 13.5579 11.9689L13.6779 11.9569L13.7239 11.9579C13.7716 11.9567 13.8193 11.957 13.8669 11.9589C14.8069 11.9469 15.6249 11.5919 16.3239 10.8929C17.0699 10.1469 17.4339 9.26495 17.4149 8.24595C17.4149 7.84595 17.5519 7.48195 17.8249 7.15495L17.8519 7.12795L17.8789 7.09995C17.8789 7.08195 17.8889 7.07295 17.9059 7.07295L17.9339 7.04595V7.01895H17.9609V6.98995C17.9789 6.98995 17.9879 6.98095 17.9879 6.96295L18.0149 6.93595H18.0699C18.0699 6.91695 18.0799 6.90795 18.0969 6.90795L18.1249 6.88095V6.85395H18.1789C18.1789 6.83495 18.1889 6.82595 18.2059 6.82595L18.2339 6.79895L18.2609 6.77195H18.2879C18.2879 6.75395 18.2979 6.74495 18.3159 6.74495C18.3339 6.74495 18.3429 6.73495 18.3429 6.71695H18.3699L18.3969 6.68995H18.4519V6.66295H18.4789L18.5069 6.63495H18.5609V6.60995H18.6159L18.6429 6.58295H18.6979L18.7249 6.55595H18.8069L18.8339 6.52795H18.9159C18.9339 6.52795 18.9429 6.51895 18.9429 6.50095H19.5159L19.5299 6.51495C19.5389 6.52395 19.5519 6.52795 19.5699 6.52795H19.6249L19.6389 6.54195C19.6479 6.55095 19.6609 6.55595 19.6789 6.55595H19.7339L19.7609 6.58295H19.8159L19.8429 6.60995H19.8979C19.9159 6.62795 19.9339 6.63695 19.9519 6.63695L19.9799 6.66495H20.0339V6.69195H20.0619L20.0889 6.71895L20.1019 6.73295C20.1119 6.74295 20.1249 6.74695 20.1429 6.74695L20.1709 6.77395H20.1979C20.1979 6.79195 20.2159 6.80095 20.2519 6.80095L20.2799 6.82795V6.85595H20.3069C20.3069 6.87395 20.3249 6.88295 20.3619 6.88295C20.3619 6.90095 20.3709 6.90995 20.3889 6.90995V6.93795H20.4159L20.4439 6.96495C20.4619 6.98295 20.4799 6.99195 20.4979 6.99195L20.5249 7.01995C20.5249 7.03795 20.5349 7.04695 20.5529 7.04695V7.07395H20.5799C20.5799 7.09195 20.5849 7.10595 20.5939 7.11395L20.6069 7.12895C20.6069 7.14695 20.6169 7.15595 20.6349 7.15595L20.6619 7.18295C20.6619 7.20095 20.6659 7.21495 20.6749 7.22395L20.6889 7.23795L20.7159 7.26495L20.7439 7.29195V7.34695L20.7709 7.37395V7.39995H20.7979C20.7979 7.41895 20.8029 7.43195 20.8119 7.44095L20.8249 7.45495C20.8249 7.47295 20.8349 7.48195 20.8529 7.48195V7.50995C20.8529 7.52795 20.8569 7.54095 20.8659 7.54995L20.8799 7.56395L20.9069 7.59095C20.9069 7.62795 20.9169 7.64595 20.9349 7.64595V7.67295C20.9349 7.69195 20.9389 7.70495 20.9479 7.71395L20.9619 7.72795V7.78195L20.9889 7.80995V7.89195C21.0069 7.90995 21.0159 7.92795 21.0159 7.94595V8.02795C21.0349 8.04595 21.0439 8.06395 21.0439 8.08295V8.29995C21.0439 9.26395 21.3889 10.1189 22.0799 10.8649C22.7899 11.5739 23.6359 11.9379 24.6179 11.9559C25.1079 11.9379 25.5449 12.1059 25.9279 12.4609C26.3089 12.8149 26.4999 13.2469 26.4999 13.7569C26.4999 14.2659 26.3229 14.6969 25.9679 15.0529C25.804 15.2236 25.6068 15.3589 25.3885 15.4504C25.1703 15.5419 24.9356 15.5877 24.6989 15.5849C24.4648 15.5883 24.2322 15.5455 24.0146 15.4588C23.797 15.3722 23.5987 15.2434 23.4309 15.0799C23.2588 14.9213 23.1205 14.7295 23.0242 14.5161C22.928 14.3027 22.8759 14.072 22.8709 13.8379C22.8899 12.8379 22.5259 11.9559 21.7809 11.1919C21.0529 10.4639 20.1709 10.1099 19.1339 10.1279C18.6624 10.1394 18.1978 10.2442 17.7669 10.4362C17.3361 10.6283 16.9476 10.9039 16.6239 11.2469C16.2888 11.5723 16.0239 11.9629 15.8455 12.3946C15.6672 12.8263 15.5792 13.2899 15.5869 13.7569L15.5859 13.8409C15.6059 14.7709 15.9509 15.5979 16.6219 16.3209C17.3309 17.0309 18.1769 17.3949 19.1589 17.4129C19.8129 17.3769 20.3139 17.6129 20.6589 18.1229C21.0049 18.6129 21.1139 19.1329 20.9869 19.6779C20.7319 20.5879 20.1499 21.0419 19.2409 21.0419H19.1589C18.1399 21.0779 17.2939 21.4519 16.6219 22.1609C15.9299 22.8519 15.5849 23.6979 15.5849 24.6979C15.5849 25.1889 15.4079 25.6119 15.0529 25.9669C14.889 26.1376 14.6918 26.2729 14.4735 26.3644C14.2553 26.4559 14.0206 26.5017 13.7839 26.4989H13.7299C13.2389 26.4989 12.8199 26.3219 12.4749 25.9669C12.3077 25.8011 12.1756 25.6032 12.0864 25.3852C11.9972 25.1672 11.9529 24.9335 11.9559 24.6979C11.9559 23.6979 11.6109 22.8519 10.9199 22.1609C10.5962 21.8179 10.2077 21.5423 9.77693 21.3503C9.34611 21.1582 8.88149 21.0534 8.40994 21.0419C8.16222 21.0558 7.91433 21.018 7.68196 20.9311C7.44958 20.8441 7.23778 20.7099 7.05994 20.5369C6.8784 20.3685 6.73462 20.1635 6.6381 19.9355C6.54157 19.7074 6.49448 19.4615 6.49994 19.2139C6.49994 18.7229 6.67694 18.2999 7.03194 17.9449C7.20017 17.7725 7.40196 17.6363 7.62486 17.5448C7.84776 17.4533 8.08703 17.4084 8.32794 17.4129V17.4139Z" fill="white"/>
</g>
<defs>
<clipPath id="clip0_301_2392">
<rect width="32" height="32" fill="white"/>
</clipPath>
</defs>
</svg>
