<svg width="32" height="32" viewBox="0 0 32 32" fill="none" xmlns="http://www.w3.org/2000/svg">
<g clip-path="url(#clip0_301_1531)">
<path d="M16 32C24.8366 32 32 24.8366 32 16C32 7.16344 24.8366 0 16 0C7.16344 0 0 7.16344 0 16C0 24.8366 7.16344 32 16 32Z" fill="#117FC0"/>
<path d="M26.4959 10.332L18.0409 24.272H12.9989L16.8739 17.875H13.0229L8.53289 25.279C10.6732 27.0189 13.3513 27.9616 16.1096 27.946C18.8679 27.9304 21.5352 26.9575 23.6557 25.1935C25.7762 23.4296 27.2185 20.984 27.7359 18.2746C28.2534 15.5653 27.814 12.7603 26.4929 10.339L26.4959 10.332ZM19.1139 7.82999L15.4439 13.87H19.2999L23.5739 6.82099C21.4335 5.0811 18.7554 4.13841 15.9972 4.154C13.2389 4.16959 10.5716 5.14248 8.45107 6.90645C6.33052 8.67043 4.8883 11.116 4.37083 13.8254C3.85335 16.5347 4.29272 19.3397 5.61389 21.761L14.0659 7.83099H19.1129L19.1139 7.82999Z" fill="white"/>
</g>
<defs>
<clipPath id="clip0_301_1531">
<rect width="32" height="32" fill="white"/>
</clipPath>
</defs>
</svg>
