<svg width="32" height="32" viewBox="0 0 32 32" fill="none" xmlns="http://www.w3.org/2000/svg">
<g clip-path="url(#clip0_301_1527)">
<path d="M16 32C24.8366 32 32 24.8366 32 16C32 7.16344 24.8366 0 16 0C7.16344 0 0 7.16344 0 16C0 24.8366 7.16344 32 16 32Z" fill="#D59143"/>
<path d="M7.97296 16.453C7.45496 16.865 6.99296 17.597 7.01596 18.716C7.03296 19.49 7.44896 20.02 7.97296 20.38V21.762C7.97296 22.626 8.39296 23.435 9.10096 23.93L13.954 27.249V10.29L7.97296 12.04V16.453ZM9.27596 16.045C10.283 16.782 10.283 21.161 10.283 21.161C10.283 21.161 9.14396 21.051 8.20296 20.525C8.97896 20.786 9.60196 20.728 9.87296 20.758L9.89096 20.759H9.89496L9.90896 20.761L9.94696 20.764L9.95996 20.766H9.97296C9.97296 20.766 10.133 16.944 8.97596 16.274C8.78796 16.209 8.45596 16.247 8.08996 16.364C8.55596 16.05 9.04296 15.944 9.27596 16.045ZM14.373 22.949H17.636V27.255H14.374V22.95L14.373 22.949ZM13.633 9.96902L7.97296 11.591V5.52002C7.97281 5.41917 8.00257 5.32053 8.05848 5.23658C8.11438 5.15264 8.19392 5.08715 8.28704 5.0484C8.38015 5.00966 8.48267 4.99939 8.58162 5.0189C8.68058 5.03842 8.77152 5.08683 8.84296 5.15802L13.923 10.258L13.633 9.96802V9.96902ZM14.373 16.04H17.636V22.534H14.374V16.04H14.373ZM18.366 9.97002L18.156 10.18L23.156 5.16002C23.2272 5.08861 23.3181 5.03993 23.417 5.02016C23.5159 5.00039 23.6185 5.0104 23.7118 5.04894C23.805 5.08748 23.8847 5.15281 23.9408 5.23667C23.9969 5.32052 24.0269 5.41913 24.027 5.52002V11.59L18.367 9.97002H18.366ZM14.374 10.291H17.636V15.621H14.374V10.291ZM24.027 16.453V12.04L18.056 10.294V27.255L22.899 23.93C23.2472 23.686 23.5316 23.3616 23.7279 22.9844C23.9243 22.6072 24.0268 22.1883 24.027 21.763V20.38C24.551 20.02 24.967 19.49 24.984 18.716C25.008 17.597 24.545 16.865 24.027 16.453ZM22.067 20.827H22.08L22.092 20.826L22.109 20.824H22.113L22.148 20.821H22.15L22.166 20.819L22.315 20.802H22.322C22.648 20.76 23.048 20.764 23.662 20.572L23.798 20.527C22.856 21.053 21.718 21.163 21.718 21.163C21.718 21.163 21.718 16.785 22.725 16.048C22.958 15.946 23.445 16.052 23.91 16.368C23.544 16.251 23.213 16.213 23.024 16.278C21.867 16.947 22.066 20.828 22.066 20.828L22.067 20.827Z" fill="white"/>
</g>
<defs>
<clipPath id="clip0_301_1527">
<rect width="32" height="32" fill="white"/>
</clipPath>
</defs>
</svg>
