<svg width="32" height="32" viewBox="0 0 32 32" fill="none" xmlns="http://www.w3.org/2000/svg">
<g clip-path="url(#clip0_301_1523)">
<path d="M16 32C24.8366 32 32 24.8366 32 16C32 7.16344 24.8366 0 16 0C7.16344 0 0 7.16344 0 16C0 24.8366 7.16344 32 16 32Z" fill="#8834FF"/>
<path d="M7 21.2302C7.191 21.2302 7.392 21.2402 7.583 21.2302C7.946 21.2032 8.31 21.1302 8.665 21.0402C9.36509 20.849 10.0204 20.5211 10.593 20.0752C10.757 19.9482 10.92 19.8122 11.075 19.6662C11.402 19.3392 11.685 18.9662 11.912 18.5662C12.112 18.2112 12.257 17.8292 12.367 17.4382C12.376 17.4112 12.376 17.3742 12.385 17.3472H10.957C10.6602 17.3459 10.3645 17.3124 10.075 17.2472C10.0489 17.2366 10.0212 17.2305 9.993 17.2292C9.9791 17.2221 9.96657 17.2127 9.956 17.2012C10.038 17.0202 10.111 16.8472 10.184 16.6652L10.739 15.3822C10.7567 15.321 10.7841 15.2629 10.82 15.2102C10.8596 15.1735 10.912 15.1538 10.966 15.1552C11.412 15.1462 11.848 15.1552 12.294 15.1552H12.412C12.394 15.0822 12.394 15.0282 12.376 14.9652C12.2149 14.3499 11.9301 13.7738 11.539 13.2722C11.3467 13.0273 11.1368 12.7967 10.911 12.5822C10.6286 12.3165 10.3142 12.0871 9.975 11.8992C9.62155 11.7004 9.24985 11.536 8.865 11.4082C8.54446 11.3078 8.21593 11.2348 7.883 11.1902C7.619 11.1622 7.364 11.1532 7.101 11.1352C7.037 11.1352 6.973 11.1262 6.91 11.1172C6.897 11.1133 6.88516 11.1062 6.87556 11.0966C6.86596 11.087 6.8589 11.0752 6.855 11.0622C6.764 10.8532 6.673 10.6532 6.582 10.4442C6.472 10.1982 6.372 9.95321 6.264 9.71621C6.182 9.51621 6.091 9.32621 6 9.11621L6.191 9.06121C6.591 9.00721 7.001 8.98921 7.41 9.00721C8.06117 9.02903 8.70786 9.12362 9.338 9.28921C9.738 9.39821 10.138 9.53421 10.52 9.69821C11.057 9.92521 11.566 10.2082 12.04 10.5442C12.248 10.6982 12.457 10.8622 12.658 11.0262C12.748 11.0992 12.839 11.1812 12.93 11.2622C13.385 11.6992 13.785 12.1992 14.122 12.7362C14.458 13.2722 14.704 13.8542 14.868 14.4642C14.922 14.6642 14.958 14.8742 15.004 15.0742C15.0093 15.0895 15.0191 15.1029 15.0321 15.1126C15.0451 15.1222 15.0608 15.1277 15.077 15.1282H16.923C16.96 14.9822 16.987 14.8372 17.014 14.6912C17.124 14.2642 17.269 13.8542 17.451 13.4632C17.596 13.1362 17.778 12.8182 17.987 12.5272C18.178 12.2632 18.378 11.9992 18.597 11.7542C18.7578 11.5641 18.9309 11.3848 19.115 11.2172C19.4975 10.87 19.9116 10.5593 20.352 10.2892C20.807 10.0072 21.28 9.77921 21.78 9.59821C22.126 9.48021 22.471 9.37121 22.817 9.28021C23.08 9.21621 23.335 9.17021 23.608 9.13421C23.826 9.09821 24.054 9.08021 24.281 9.06121C24.427 9.05221 24.563 9.04321 24.709 9.04321C24.927 9.04321 25.136 9.03421 25.345 9.04321C25.555 9.05321 25.764 9.09821 25.973 9.13421C25.982 9.13421 25.982 9.14421 26 9.16121L25.845 9.52521C25.682 9.90721 25.518 10.2892 25.345 10.6802C25.2789 10.8175 25.2182 10.9572 25.163 11.0992C25.127 11.1892 25.036 11.1532 24.973 11.1712C24.918 11.1812 24.873 11.1812 24.818 11.1712C23.8883 11.1803 22.9721 11.3947 22.135 11.7992C21.7434 11.9905 21.3767 12.2289 21.043 12.5092C20.907 12.6272 20.753 12.7452 20.625 12.8812C20.297 13.2092 20.015 13.5812 19.788 13.9912C19.6056 14.3295 19.4594 14.6862 19.352 15.0552C19.342 15.0822 19.342 15.1192 19.333 15.1462H19.433C19.906 15.1462 20.388 15.1362 20.861 15.1462C21.143 15.1462 21.425 15.1912 21.698 15.2822C21.708 15.2922 21.716 15.2922 21.725 15.3012L21.462 15.9012C21.28 16.3282 21.089 16.7562 20.907 17.1922C20.852 17.3202 20.816 17.3472 20.67 17.3472H19.342C19.379 17.4742 19.406 17.5832 19.442 17.6932C19.57 18.0752 19.752 18.4382 19.979 18.7752C20.116 18.9752 20.261 19.1572 20.416 19.3392C20.506 19.4482 20.606 19.5572 20.706 19.6482C21.043 19.9752 21.426 20.2582 21.834 20.4852C22.18 20.6852 22.553 20.8492 22.935 20.9752C23.299 21.1032 23.681 21.1852 24.072 21.2212L24.79 21.2762C24.881 21.2862 24.972 21.2862 25.063 21.2942C25.081 21.3042 25.1 21.3122 25.109 21.3312C25.263 21.6942 25.418 22.0582 25.582 22.4222L25.972 23.3132C25.845 23.3412 25.727 23.3682 25.6 23.3772C25.29 23.3952 24.972 23.4132 24.663 23.4132C24.381 23.4132 24.099 23.3862 23.826 23.3502C23.4478 23.2968 23.0715 23.2301 22.698 23.1502C22.2502 23.0403 21.8121 22.8941 21.388 22.7132C20.8829 22.497 20.4017 22.2289 19.952 21.9132C19.7176 21.7395 19.4872 21.5604 19.261 21.3762C19.1127 21.2554 18.9727 21.1248 18.842 20.9852C18.2675 20.4009 17.7944 19.725 17.442 18.9852C17.2359 18.547 17.0832 18.0858 16.987 17.6112C16.969 17.5652 16.96 17.5112 16.95 17.4652C16.95 17.3752 16.905 17.3562 16.823 17.3562H14.986C14.8945 17.85 14.748 18.3321 14.549 18.7932C14.3877 19.1846 14.1834 19.5569 13.94 19.9032C13.7496 20.1708 13.546 20.4288 13.33 20.6762C13.1744 20.865 13.0043 21.0412 12.821 21.2032C12.539 21.4492 12.239 21.6762 11.939 21.9032C11.5782 22.1595 11.1946 22.3822 10.793 22.5682C10.0454 22.9237 9.24786 23.1628 8.428 23.2772C8.146 23.3222 7.864 23.3502 7.583 23.3772C7.42246 23.3863 7.26154 23.3863 7.101 23.3772C6.864 23.3772 6.628 23.3672 6.401 23.3592C6.318 23.3492 6.236 23.3412 6.155 23.3222C6.109 23.3132 6.091 23.2952 6.118 23.2412C6.3 22.8222 6.491 22.4042 6.673 21.9852C6.783 21.7312 6.883 21.4952 7 21.2312V21.2302Z" fill="white"/>
</g>
<defs>
<clipPath id="clip0_301_1523">
<rect width="32" height="32" fill="white"/>
</clipPath>
</defs>
</svg>
