<svg width="32" height="32" viewBox="0 0 32 32" fill="none" xmlns="http://www.w3.org/2000/svg">
<g clip-path="url(#clip0_301_1517)">
<path d="M16 32C24.8366 32 32 24.8366 32 16C32 7.16344 24.8366 0 16 0C7.16344 0 0 7.16344 0 16C0 24.8366 7.16344 32 16 32Z" fill="#1591CA"/>
<path d="M16.5719 15.272C16.5719 15.272 17.8989 12.322 15.2969 9.47202C15.2969 9.47202 13.8169 7.57202 10.7569 7.72202L11.3679 7.48202C11.4699 7.44202 11.5769 7.41402 11.6849 7.40002L12.2869 7.32202L16.5209 6.67202C16.5209 6.67202 18.0179 6.37802 19.1529 6.70202C19.4759 6.79502 19.7699 6.97002 20.0029 7.20802C20.6289 7.84202 21.8859 9.51902 21.0629 12.172C21.0629 12.172 20.2459 15.122 17.1849 15.822C17.1849 15.822 16.4189 16.022 16.5719 15.272ZM16.3829 16.916C16.3829 16.916 18.2959 19.539 22.1249 18.8C22.1249 18.8 24.5469 18.521 25.9759 15.863L25.8739 16.502C25.8569 16.608 25.8269 16.712 25.7839 16.811L25.5459 17.358L23.9579 21.258C23.9579 21.258 23.4529 22.669 22.5899 23.461C22.3421 23.6867 22.0404 23.8447 21.7139 23.92C20.8389 24.123 18.7259 24.328 16.8159 22.282C16.8159 22.282 14.6429 20.09 15.5889 17.152C15.5889 17.15 15.8029 16.405 16.3829 16.916ZM14.9979 15.969C14.9979 15.969 11.7279 16.313 10.5029 19.944C10.5029 19.944 9.55888 22.148 11.2169 24.674L10.6999 24.274C10.614 24.2076 10.5367 24.1307 10.4699 24.045L10.0999 23.573L7.41588 20.3C7.41588 20.3 6.40888 19.173 6.13188 18.05C6.05188 17.728 6.05988 17.39 6.15388 17.072C6.40288 16.225 7.25988 14.322 10.0169 13.7C10.0169 13.7 13.0339 12.923 15.1789 15.176C15.1809 15.176 15.7389 15.726 14.9989 15.969H14.9979Z" fill="white"/>
<path opacity="0.5" d="M17.106 16.1588C17.106 16.1588 20.366 15.7348 21.496 12.0738C21.496 12.0738 22.383 9.84682 20.659 7.36282L21.187 7.74982C21.274 7.81482 21.354 7.88982 21.423 7.97282L21.804 8.43482L24.574 11.6408C24.574 11.6408 25.608 12.7408 25.916 13.8588C26.003 14.1788 26.003 14.5148 25.916 14.8348C25.689 15.6878 24.882 17.6128 22.141 18.3028C22.141 18.3028 19.145 19.1528 16.943 16.9568C16.945 16.9568 16.373 16.4208 17.106 16.1588ZM15.468 16.7628C15.468 16.7628 14.067 19.6788 16.595 22.5918C16.595 22.5918 18.024 24.5268 21.09 24.4518L20.472 24.6768C20.369 24.714 20.2619 24.7385 20.153 24.7498L19.55 24.8138L15.3 25.3598C15.3 25.3598 13.797 25.6168 12.67 25.2648C12.3504 25.1639 12.0621 24.9824 11.833 24.7378C11.223 24.0878 10.01 22.3818 10.901 19.7508C10.901 19.7508 11.791 16.8208 14.87 16.1968C14.87 16.1998 15.643 16.0168 15.468 16.7628ZM15.577 15.2258C15.577 15.2258 13.625 12.6298 9.808 13.4258C9.808 13.4258 7.39 13.7378 6 16.4158L6.092 15.7748C6.10772 15.6683 6.13661 15.5642 6.178 15.4648L6.408 14.9148L7.938 10.9908C7.938 10.9908 8.423 9.57282 9.274 8.76882C9.51948 8.54007 9.81982 8.37853 10.146 8.29982C11.018 8.08282 13.128 7.84982 15.066 9.86882C15.066 9.86882 17.271 12.0298 16.368 14.9808C16.368 14.9788 16.164 15.7288 15.577 15.2258Z" fill="white"/>
</g>
<defs>
<clipPath id="clip0_301_1517">
<rect width="32" height="32" fill="white"/>
</clipPath>
</defs>
</svg>
