<svg width="32" height="32" viewBox="0 0 32 32" fill="none" xmlns="http://www.w3.org/2000/svg">
<g clip-path="url(#clip0_301_1495)">
<path d="M16 32C24.8366 32 32 24.8366 32 16C32 7.16344 24.8366 0 16 0C7.16344 0 0 7.16344 0 16C0 24.8366 7.16344 32 16 32Z" fill="black"/>
<circle cx="15.927" cy="16.1455" r="13.8909" fill="white"/>
<circle cx="15.9271" cy="16.1454" r="11.9539" fill="black"/>
<path d="M12.551 17.9164H11.0015V19.5213H15.9269V17.9164H14.488C14.488 17.2006 14.5256 16.4485 15.0043 15.8687C15.9689 14.7004 17.9726 14.7554 18.7782 16.0901C19.2052 16.7976 19.1368 17.6794 19.1368 18.4698V22.7865H21.0184V18.1378C21.0184 17.0102 21.0545 15.8568 20.4039 14.8726C19.2428 13.116 15.4554 12.5698 14.5434 14.9279H14.488V9.5597H12.551V17.9164Z" fill="white"/>
<path d="M11.0015 21.1816V22.7865H15.9269V21.1816H11.0015Z" fill="white"/>
</g>
<defs>
<clipPath id="clip0_301_1495">
<rect width="32" height="32" fill="white"/>
</clipPath>
</defs>
</svg>
