<svg width="32" height="32" viewBox="0 0 32 32" fill="none" xmlns="http://www.w3.org/2000/svg">
<g clip-path="url(#clip0_301_1467)">
<path d="M16 32C24.8366 32 32 24.8366 32 16C32 7.16344 24.8366 0 16 0C7.16344 0 0 7.16344 0 16C0 24.8366 7.16344 32 16 32Z" fill="#DF1A14"/>
<path d="M14.8602 11.527C15.1672 11.43 15.5162 11.603 15.6432 11.905C15.9502 12.607 16.2252 13.33 16.5432 14.031C16.7332 14.452 17.3802 14.506 17.6332 14.118C18.0572 13.416 18.3962 12.671 18.8092 11.958C19.1482 11.516 19.7622 11.732 20.2282 11.689C20.7152 11.657 21.0752 12.272 20.7992 12.693C19.4652 15.186 18.1212 17.669 16.7872 20.163C16.5642 20.616 15.8342 20.616 15.6332 20.141C15.3362 19.418 15.1032 18.662 14.8172 17.939C14.6472 17.464 13.9172 17.389 13.6742 17.842C13.2612 18.587 12.9012 19.364 12.4882 20.098C12.2872 20.432 11.8632 20.378 11.5352 20.378C11.2172 20.357 10.8362 20.454 10.5932 20.184C10.4868 20.0738 10.4197 19.9315 10.4023 19.7793C10.385 19.6271 10.4183 19.4734 10.4972 19.342C11.7472 16.978 13.0172 14.604 14.2672 12.218C14.4152 11.948 14.5422 11.613 14.8602 11.528V11.527ZM10.4972 11.711C10.8676 11.6894 11.2389 11.6894 11.6092 11.711C12.0222 11.754 12.2872 12.283 12.0862 12.661C10.8462 15.003 9.59724 17.334 8.35924 19.666C8.21024 19.926 8.09424 20.271 7.77624 20.356C7.40624 20.411 7.02524 20.379 6.65424 20.379C6.19924 20.4 5.81824 19.806 6.09324 19.407C7.38524 16.989 8.67624 14.56 9.96824 12.132C10.0742 11.927 10.2542 11.722 10.4982 11.711H10.4972ZM23.6372 11.732C24.0392 11.613 24.4632 11.7 24.8762 11.667C25.1932 11.678 25.5962 11.613 25.8292 11.894C26.1152 12.186 26.0292 12.736 25.6692 12.92C24.9392 13.384 24.2192 13.88 23.4792 14.334C23.0122 14.657 22.3242 14.107 22.5252 13.567C22.7052 13.135 22.9592 12.737 23.1612 12.315C23.2772 12.099 23.3832 11.819 23.6372 11.732ZM20.1322 18.187C20.3442 18.057 20.6092 18.101 20.8102 18.209C21.3712 18.489 21.9322 18.792 22.5042 19.062C22.7482 19.17 23.0022 19.375 23.0122 19.666C23.0552 20.055 22.7262 20.432 22.3452 20.4C21.5302 20.4 20.7152 20.41 19.9102 20.4C19.5082 20.4 19.1902 19.925 19.3382 19.537C19.4442 19.256 19.6032 19.007 19.7302 18.737C19.8252 18.533 19.9202 18.284 20.1322 18.187Z" fill="white"/>
</g>
<defs>
<clipPath id="clip0_301_1467">
<rect width="32" height="32" fill="white"/>
</clipPath>
</defs>
</svg>
