<svg width="32" height="32" viewBox="0 0 32 32" fill="none" xmlns="http://www.w3.org/2000/svg">
<g clip-path="url(#clip0_301_1461)">
<path d="M16 32C24.8366 32 32 24.8366 32 16C32 7.16344 24.8366 0 16 0C7.16344 0 0 7.16344 0 16C0 24.8366 7.16344 32 16 32Z" fill="#B2A3F6"/>
<path d="M13.446 12.2871C12.686 12.2871 12.071 11.6861 12.071 10.9451C12.071 10.2041 12.686 9.60207 13.446 9.60207C14.205 9.60207 14.821 10.2031 14.821 10.9451C14.821 11.6871 14.205 12.2871 13.446 12.2871ZM17.373 10.7531C16.614 10.7531 15.998 10.1521 15.998 9.41107C15.998 8.66907 16.614 8.06807 17.373 8.06807C18.133 8.06807 18.748 8.66907 18.748 9.41107C18.748 10.1521 18.133 10.7531 17.373 10.7531ZM18.946 19.9581C18.186 19.9581 17.571 19.3581 17.571 18.6161C17.571 17.8741 18.186 17.2731 18.946 17.2731C19.705 17.2731 20.321 17.8741 20.321 18.6161C20.321 19.3581 19.705 19.9581 18.946 19.9581ZM5.78602 18.0401C5.68403 18.0414 5.58278 18.0226 5.48806 17.9848C5.39334 17.9469 5.30701 17.8908 5.23401 17.8195C5.16101 17.7483 5.10277 17.6634 5.06262 17.5696C5.02247 17.4758 5.0012 17.3751 5.00002 17.2731C5.00002 16.8501 5.35202 16.5061 5.78502 16.5061C6.21802 16.5061 6.57102 16.8501 6.57102 17.2731C6.56985 17.3751 6.54858 17.4758 6.50843 17.5696C6.46828 17.6634 6.41004 17.7483 6.33704 17.8195C6.26403 17.8908 6.1777 17.9469 6.08299 17.9848C5.98827 18.0226 5.88701 18.0414 5.78502 18.0401H5.78602ZM7.94602 23.0281C7.86946 23.029 7.79347 23.0148 7.72238 22.9864C7.65129 22.9579 7.58651 22.9158 7.53172 22.8623C7.47693 22.8088 7.43321 22.745 7.40307 22.6747C7.37292 22.6043 7.35694 22.5286 7.35602 22.4521C7.35602 22.1341 7.62002 21.8771 7.94602 21.8771C8.27202 21.8771 8.53602 22.1341 8.53602 22.4521C8.53511 22.5286 8.51912 22.6043 8.48898 22.6747C8.45883 22.745 8.41512 22.8088 8.36033 22.8623C8.30554 22.9158 8.24075 22.9579 8.16967 22.9864C8.09858 23.0148 8.02259 23.029 7.94602 23.0281ZM14.231 26.8631C13.905 26.8631 13.641 26.6051 13.641 26.2871C13.641 25.9691 13.905 25.7121 14.231 25.7121C14.557 25.7121 14.821 25.9691 14.821 26.2871C14.821 26.6051 14.557 26.8631 14.231 26.8631ZM24.446 23.4111C24.12 23.4111 23.856 23.1531 23.856 22.8351C23.856 22.5171 24.12 22.2591 24.446 22.2591C24.771 22.2591 25.036 22.5171 25.036 22.8351C25.036 23.1531 24.771 23.4111 24.446 23.4111ZM18.16 22.2611C18.0835 22.262 18.0075 22.2478 17.9364 22.2194C17.8653 22.1909 17.8005 22.1488 17.7457 22.0953C17.6909 22.0418 17.6472 21.978 17.6171 21.9076C17.5869 21.8373 17.5709 21.7616 17.57 21.6851C17.57 21.3671 17.835 21.1101 18.16 21.1101C18.485 21.1101 18.75 21.3671 18.75 21.6851C18.7491 21.7616 18.7331 21.8373 18.703 21.9076C18.6728 21.978 18.6291 22.0418 18.5743 22.0953C18.5195 22.1488 18.4548 22.1909 18.3837 22.2194C18.3126 22.2478 18.2366 22.262 18.16 22.2611ZM21.696 19.5761C21.37 19.5761 21.106 19.3181 21.106 19.0001C21.106 18.6821 21.37 18.4251 21.696 18.4251C22.021 18.4251 22.286 18.6821 22.286 19.0001C22.286 19.3181 22.021 19.5761 21.696 19.5761ZM17.571 26.8631C17.137 26.8631 16.785 26.5191 16.785 26.0961C16.785 25.6731 17.137 25.3291 17.571 25.3291C18.004 25.3291 18.356 25.6721 18.356 26.0961C18.356 26.5201 18.004 26.8631 17.571 26.8631ZM21.106 17.2731C21.0041 17.2743 20.903 17.2554 20.8084 17.2175C20.7138 17.1796 20.6276 17.1234 20.5547 17.0522C20.4818 16.9809 20.4236 16.8961 20.3835 16.8024C20.3434 16.7087 20.3222 16.608 20.321 16.5061C20.321 16.0831 20.672 15.7391 21.106 15.7391C21.54 15.7391 21.891 16.0831 21.891 16.5061C21.8898 16.608 21.8686 16.7087 21.8285 16.8024C21.7884 16.8961 21.7303 16.9809 21.6574 17.0522C21.5845 17.1234 21.4983 17.1796 21.4037 17.2175C21.3091 17.2554 21.2079 17.2743 21.106 17.2731ZM22.286 24.9451C22.184 24.9464 22.0828 24.9276 21.9881 24.8898C21.8933 24.8519 21.807 24.7958 21.734 24.7245C21.661 24.6533 21.6028 24.5684 21.5626 24.4746C21.5225 24.3808 21.5012 24.2801 21.5 24.1781C21.5 23.7541 21.852 23.4111 22.285 23.4111C22.719 23.4111 23.071 23.7541 23.071 24.1781C23.0698 24.2801 23.0486 24.3808 23.0084 24.4746C22.9683 24.5684 22.91 24.6533 22.837 24.7245C22.764 24.7958 22.6777 24.8519 22.583 24.8898C22.4883 24.9276 22.387 24.9464 22.285 24.9451H22.286ZM6.76502 21.1101C6.22302 21.1101 5.78302 20.6801 5.78302 20.1511C5.78302 19.6221 6.22302 19.1931 6.76502 19.1931C7.30702 19.1931 7.74702 19.6231 7.74702 20.1511C7.74702 20.6791 7.30702 21.1101 6.76502 21.1101ZM16.195 24.9451C15.435 24.9451 14.82 24.3441 14.82 23.6021C14.82 22.8601 15.435 22.2591 16.195 22.2591C16.954 22.2591 17.57 22.8611 17.57 23.6021C17.57 24.3431 16.954 24.9451 16.195 24.9451ZM8.73002 18.4251C7.97002 18.4251 7.35502 17.8231 7.35502 17.0821C7.35502 16.3411 7.97002 15.7391 8.73002 15.7391C9.49002 15.7391 10.105 16.3401 10.105 17.0821C10.105 17.8241 9.48902 18.4251 8.73002 18.4251ZM16.195 21.4921C15.652 21.4921 15.212 21.0631 15.212 20.5341C15.212 20.0051 15.652 19.5761 16.195 19.5761C16.737 19.5761 17.177 20.0051 17.177 20.5341C17.177 21.0631 16.737 21.4921 16.195 21.4921ZM11.48 13.0561C11.154 13.0561 10.89 12.7981 10.89 12.4801C10.89 12.1621 11.154 11.9041 11.48 11.9041C11.806 11.9041 12.07 12.1621 12.07 12.4801C12.07 12.7981 11.806 13.0561 11.48 13.0561ZM15.212 15.3561C14.562 15.3561 14.034 14.8411 14.034 14.2061C14.034 13.5701 14.562 13.0541 15.212 13.0541C15.862 13.0541 16.39 13.5701 16.39 14.2051C16.39 14.8411 15.863 15.3571 15.212 15.3571V15.3561ZM17.962 16.5061C17.8601 16.5073 17.759 16.4884 17.6644 16.4505C17.5698 16.4126 17.4836 16.3564 17.4107 16.2852C17.3378 16.2139 17.2796 16.1291 17.2395 16.0354C17.1994 15.9417 17.1782 15.841 17.177 15.7391C17.177 15.3161 17.528 14.9721 17.962 14.9721C18.396 14.9721 18.747 15.3161 18.747 15.7391C18.7458 15.841 18.7246 15.9417 18.6845 16.0354C18.6444 16.1291 18.5863 16.2139 18.5134 16.2852C18.4405 16.3564 18.3543 16.4126 18.2597 16.4505C18.1651 16.4884 18.0639 16.5073 17.962 16.5061ZM19.337 6.91807C19.011 6.91807 18.747 6.66107 18.747 6.34307C18.747 6.02507 19.011 5.76707 19.337 5.76707C19.663 5.76707 19.927 6.02507 19.927 6.34307C19.927 6.66107 19.663 6.91807 19.337 6.91807ZM16.587 6.91707C16.4596 6.91866 16.333 6.8951 16.2147 6.84775C16.0963 6.8004 15.9884 6.73019 15.8972 6.64112C15.806 6.55205 15.7333 6.44588 15.6831 6.32868C15.633 6.21148 15.6065 6.08554 15.605 5.95807C15.6066 5.83069 15.6332 5.70486 15.6834 5.58777C15.7336 5.47068 15.8064 5.36463 15.8976 5.27567C15.9888 5.18671 16.0966 5.11659 16.2149 5.0693C16.3332 5.02201 16.4596 4.99849 16.587 5.00007C16.7145 4.99835 16.841 5.02178 16.9595 5.06901C17.0779 5.11624 17.1858 5.18634 17.2771 5.27531C17.3684 5.36429 17.4413 5.47038 17.4915 5.58754C17.5418 5.70469 17.5685 5.8306 17.57 5.95807C17.5686 6.08563 17.542 6.21165 17.4918 6.32892C17.4416 6.44618 17.3688 6.5524 17.2774 6.64148C17.1861 6.73056 17.0782 6.80075 16.9597 6.84804C16.8412 6.89533 16.7146 6.91879 16.587 6.91707ZM17.177 13.0541C16.743 13.0541 16.392 12.7111 16.392 12.2871C16.392 11.8631 16.743 11.5201 17.177 11.5201C17.611 11.5201 17.962 11.8641 17.962 12.2871C17.962 12.7101 17.611 13.0541 17.177 13.0541ZM9.71202 21.4941C9.06202 21.4941 8.53402 20.9791 8.53402 20.3431C8.53402 19.7071 9.06202 19.1921 9.71202 19.1921C10.362 19.1921 10.89 19.7071 10.89 20.3421C10.89 20.9791 10.363 21.4941 9.71202 21.4941ZM21.105 22.6441C20.455 22.6441 19.927 22.1281 19.927 21.4921C19.927 20.8571 20.454 20.3421 21.105 20.3421C21.756 20.3421 22.283 20.8571 22.283 21.4921C22.283 22.1281 21.755 22.6441 21.105 22.6441ZM19.535 25.3291C18.884 25.3291 18.356 24.8131 18.356 24.1781C18.356 23.5421 18.884 23.0261 19.534 23.0261C20.184 23.0261 20.712 23.5421 20.712 24.1781C20.712 24.8131 20.185 25.3281 19.534 25.3281L19.535 25.3291ZM10.302 25.3291C9.54202 25.3291 8.92702 24.7281 8.92702 23.9861C8.92702 23.2441 9.54302 22.6441 10.302 22.6441C11.061 22.6441 11.677 23.2441 11.677 23.9861C11.677 24.7281 11.061 25.3291 10.302 25.3291ZM6.17702 15.3571C5.52702 15.3571 4.99902 14.8411 4.99902 14.2051C4.99902 13.5701 5.52602 13.0551 6.17702 13.0551C6.82802 13.0551 7.35502 13.5701 7.35502 14.2051C7.35502 14.8411 6.82702 15.3571 6.17702 15.3571Z" fill="white"/>
<path opacity="0.5" d="M12.0698 17.2729C11.2018 17.2729 10.4978 16.5869 10.4978 15.7389C10.4978 14.8919 11.2018 14.2049 12.0708 14.2049C12.9398 14.2049 13.6428 14.8919 13.6428 15.7389C13.6428 16.5869 12.9388 17.2729 12.0708 17.2729H12.0698ZM20.3198 14.9729C19.4518 14.9729 18.7478 14.2859 18.7478 13.4379C18.7478 12.5909 19.4518 11.9039 20.3208 11.9039C21.1888 11.9039 21.8928 12.5909 21.8928 13.4379C21.8928 14.2859 21.1888 14.9719 20.3208 14.9719L20.3198 14.9729ZM24.6408 21.4939C23.9908 21.4939 23.4628 20.9789 23.4628 20.3429C23.4628 19.7069 23.9908 19.1919 24.6408 19.1919C25.2908 19.1919 25.8188 19.7069 25.8188 20.3419C25.8188 20.9789 25.2918 21.4939 24.6408 21.4939ZM25.8208 16.8909C25.6678 16.8927 25.516 16.8642 25.374 16.8072C25.232 16.7503 25.1026 16.6659 24.9932 16.5589C24.8838 16.452 24.7966 16.3245 24.7364 16.1838C24.6763 16.0431 24.6445 15.8919 24.6428 15.7389C24.6428 15.1039 25.1698 14.5889 25.8208 14.5889C26.4708 14.5889 26.9978 15.1039 26.9978 15.7389C26.9978 16.3749 26.4708 16.8909 25.8208 16.8909ZM21.3028 11.5209C21.1752 11.5225 21.0486 11.4989 20.9302 11.4515C20.8118 11.4041 20.7039 11.3338 20.6127 11.2446C20.5215 11.1555 20.4487 11.0492 20.3986 10.9319C20.3486 10.8145 20.3221 10.6885 20.3208 10.5609C20.3224 10.4335 20.349 10.3077 20.3992 10.1906C20.4494 10.0735 20.5222 9.96749 20.6134 9.87853C20.7046 9.78957 20.8124 9.71945 20.9307 9.67216C21.049 9.62487 21.1754 9.60135 21.3028 9.60293C21.4303 9.60135 21.5568 9.6249 21.6752 9.67225C21.7935 9.7196 21.9014 9.78982 21.9926 9.87889C22.0838 9.96795 22.1565 10.0741 22.2067 10.1913C22.2568 10.3085 22.2834 10.4345 22.2848 10.5619C22.2832 10.6893 22.2566 10.8151 22.2064 10.9322C22.1562 11.0493 22.0834 11.1554 21.9922 11.2443C21.901 11.3333 21.7932 11.4034 21.6749 11.4507C21.5566 11.498 21.4302 11.5215 21.3028 11.5199V11.5209ZM21.4978 8.45193C21.0648 8.45193 20.7128 8.10893 20.7128 7.68493C20.7128 7.26093 21.0648 6.91793 21.4978 6.91793C21.9318 6.91793 22.2838 7.26193 22.2838 7.68493C22.2838 8.10793 21.9318 8.45193 21.4978 8.45193ZM23.2658 9.21893C22.9398 9.21893 22.6758 8.96093 22.6758 8.64393C22.6758 8.32693 22.9398 8.06793 23.2658 8.06793C23.5918 8.06793 23.8558 8.32593 23.8558 8.64393C23.8558 8.96193 23.5918 9.21893 23.2658 9.21893ZM26.4098 13.8229C26.0848 13.8229 25.8198 13.5649 25.8198 13.2469C25.8198 12.9289 26.0848 12.6709 26.4098 12.6709C26.7348 12.6709 26.9998 12.9289 26.9998 13.2469C26.9998 13.5649 26.7358 13.8229 26.4098 13.8229ZM9.5158 8.83593C9.1898 8.83593 8.9258 8.57893 8.9258 8.26093C8.9258 7.94293 9.1898 7.68493 9.5158 7.68493C9.8418 7.68493 10.1058 7.94293 10.1058 8.26093C10.1058 8.57893 9.8418 8.83593 9.5158 8.83593ZM8.7308 13.8229C8.4048 13.8229 8.1408 13.5649 8.1408 13.2469C8.1408 12.9289 8.4048 12.6709 8.7308 12.6709C9.0568 12.6709 9.3208 12.9289 9.3208 13.2469C9.3208 13.5649 9.0568 13.8229 8.7308 13.8229ZM10.3028 14.5899C9.9768 14.5899 9.7128 14.3319 9.7128 14.0139C9.7128 13.6959 9.9768 13.4379 10.3028 13.4379C10.6288 13.4379 10.8928 13.6959 10.8928 14.0139C10.8928 14.3319 10.6288 14.5899 10.3028 14.5899ZM12.2658 7.29993C11.9398 7.29993 11.6758 7.04193 11.6758 6.72393C11.6758 6.40593 11.9398 6.14893 12.2658 6.14893C12.5918 6.14893 12.8558 6.40593 12.8558 6.72393C12.8558 7.04193 12.5918 7.29993 12.2658 7.29993ZM26.4098 18.8089C26.0848 18.8089 25.8198 18.5509 25.8198 18.2329C25.8198 17.9149 26.0848 17.6579 26.4098 17.6579C26.7348 17.6579 26.9998 17.9149 26.9998 18.2329C26.9998 18.5509 26.7358 18.8089 26.4098 18.8089ZM24.4458 12.6709C23.6858 12.6709 23.0708 12.0709 23.0708 11.3289C23.0708 10.5869 23.6858 9.98593 24.4458 9.98593C25.2048 9.98593 25.8208 10.5869 25.8208 11.3289C25.8208 12.0699 25.2048 12.6709 24.4458 12.6709ZM23.2658 15.7389C23.1384 15.7405 23.012 15.717 22.8937 15.6697C22.7754 15.6224 22.6676 15.5523 22.5764 15.4633C22.4852 15.3744 22.4124 15.2683 22.3622 15.1512C22.312 15.0341 22.2854 14.9083 22.2838 14.7809C22.2838 14.2509 22.7238 13.8229 23.2658 13.8229C23.3932 13.8213 23.5196 13.8449 23.6379 13.8922C23.7562 13.9394 23.864 14.0096 23.9552 14.0985C24.0464 14.1875 24.1192 14.2935 24.1694 14.4106C24.2196 14.5277 24.2462 14.6535 24.2478 14.7809C24.2462 14.9083 24.2196 15.0341 24.1694 15.1512C24.1192 15.2683 24.0464 15.3744 23.9552 15.4633C23.864 15.5523 23.7562 15.6224 23.6379 15.6697C23.5196 15.717 23.3932 15.7405 23.2658 15.7389ZM9.9098 11.5199C9.78242 11.5215 9.65597 11.498 9.53767 11.4507C9.41938 11.4034 9.31156 11.3333 9.22037 11.2443C9.12918 11.1554 9.05641 11.0493 9.00621 10.9322C8.95601 10.8151 8.92937 10.6893 8.9278 10.5619C8.9278 10.0319 9.3678 9.60293 9.9098 9.60293C10.4518 9.60293 10.8928 10.0329 10.8928 10.5619C10.8912 10.6894 10.8646 10.8153 10.8143 10.9325C10.764 11.0496 10.6912 11.1557 10.5999 11.2447C10.5086 11.3337 10.4006 11.4038 10.2822 11.451C10.1638 11.4982 10.0373 11.5217 9.9098 11.5199ZM14.2298 8.83493C14.1024 8.83652 13.976 8.813 13.8577 8.76571C13.7394 8.71842 13.6316 8.64829 13.5404 8.55933C13.4492 8.47037 13.3764 8.36432 13.3262 8.24723C13.276 8.13015 13.2494 8.00432 13.2478 7.87693C13.2478 7.34693 13.6878 6.91793 14.2308 6.91793C14.7738 6.91793 15.2128 7.34793 15.2128 7.87693C15.2112 8.00432 15.1846 8.13015 15.1344 8.24723C15.0842 8.36432 15.0114 8.47037 14.9202 8.55933C14.829 8.64829 14.7212 8.71842 14.6029 8.76571C14.4846 8.813 14.3582 8.83652 14.2308 8.83493H14.2298ZM11.6778 9.21893C11.2438 9.21893 10.8928 8.87593 10.8928 8.45193C10.8928 8.02793 11.2438 7.68493 11.6778 7.68493C12.1118 7.68493 12.4628 8.02893 12.4628 8.45193C12.4628 8.87493 12.1118 9.21893 11.6778 9.21893ZM7.3558 12.2869C7.25389 12.2881 7.15275 12.2692 7.05815 12.2313C6.96354 12.1934 6.87733 12.1373 6.80443 12.066C6.73154 11.9948 6.67339 11.9099 6.6333 11.8162C6.59321 11.7225 6.57198 11.6218 6.5708 11.5199C6.5708 11.0969 6.9218 10.7529 7.3558 10.7529C7.7898 10.7529 8.1408 11.0969 8.1408 11.5199C8.13963 11.6218 8.11839 11.7225 8.0783 11.8162C8.03821 11.9099 7.98006 11.9948 7.90717 12.066C7.83427 12.1373 7.74806 12.1934 7.65346 12.2313C7.55885 12.2692 7.45771 12.2881 7.3558 12.2869ZM23.8558 18.4249C23.7539 18.4261 23.6527 18.4072 23.5581 18.3693C23.4635 18.3314 23.3773 18.2753 23.3044 18.204C23.2315 18.1328 23.1734 18.0479 23.1333 17.9542C23.0932 17.8605 23.072 17.7598 23.0708 17.6579C23.0708 17.2339 23.4218 16.8909 23.8558 16.8909C24.2898 16.8909 24.6408 17.2339 24.6408 17.6579C24.6396 17.7598 24.6184 17.8605 24.5783 17.9542C24.5382 18.0479 24.4801 18.1328 24.4072 18.204C24.3343 18.2753 24.2481 18.3314 24.1535 18.3693C24.0589 18.4072 23.9577 18.4261 23.8558 18.4249ZM15.4098 18.8089C14.6498 18.8089 14.0348 18.2079 14.0348 17.4659C14.0348 16.7239 14.6508 16.1239 15.4098 16.1239C16.1698 16.1239 16.7848 16.7239 16.7848 17.4659C16.7848 18.2079 16.1698 18.8089 15.4098 18.8089ZM12.8558 19.5759C12.7539 19.5771 12.6527 19.5582 12.5581 19.5203C12.4635 19.4824 12.3773 19.4263 12.3044 19.355C12.2315 19.2838 12.1734 19.1989 12.1333 19.1052C12.0932 19.0115 12.072 18.9108 12.0708 18.8089C12.0708 18.3849 12.4218 18.0419 12.8558 18.0419C13.2898 18.0419 13.6408 18.3849 13.6408 18.8089C13.6396 18.9108 13.6184 19.0115 13.5783 19.1052C13.5382 19.1989 13.4801 19.2838 13.4072 19.355C13.3343 19.4263 13.2481 19.4824 13.1535 19.5203C13.0589 19.5582 12.9577 19.5771 12.8558 19.5759ZM13.2478 22.6439C12.5978 22.6439 12.0708 22.1279 12.0708 21.4919C12.0708 20.8569 12.5978 20.3419 13.2478 20.3419C13.8978 20.3419 14.4258 20.8569 14.4258 21.4919C14.4258 22.1279 13.8988 22.6439 13.2478 22.6439ZM13.2478 24.9439C13.0422 24.9463 12.844 24.867 12.6968 24.7234C12.5496 24.5798 12.4654 24.3836 12.4628 24.1779C12.4628 23.7539 12.8148 23.4109 13.2478 23.4109C13.6808 23.4109 14.0338 23.7539 14.0338 24.1779C14.0326 24.2799 14.0114 24.3807 13.9712 24.4745C13.9311 24.5682 13.8728 24.6531 13.7998 24.7244C13.7268 24.7956 13.6405 24.8518 13.5458 24.8896C13.451 24.9275 13.3498 24.9463 13.2478 24.9449V24.9439Z" fill="white"/>
</g>
<defs>
<clipPath id="clip0_301_1461">
<rect width="32" height="32" fill="white"/>
</clipPath>
</defs>
</svg>
