<svg width="32" height="32" viewBox="0 0 32 32" fill="none" xmlns="http://www.w3.org/2000/svg">
<g clip-path="url(#clip0_301_1450)">
<path d="M16 32C24.8366 32 32 24.8366 32 16C32 7.16344 24.8366 0 16 0C7.16344 0 0 7.16344 0 16C0 24.8366 7.16344 32 16 32Z" fill="#0CAFA5"/>
<path d="M8.41303 11.9188C8.38003 11.8988 8.35303 11.9148 8.35303 11.9538V14.2558C8.3541 14.2768 8.36009 14.2972 8.37051 14.3155C8.38093 14.3337 8.3955 14.3492 8.41303 14.3608L11.323 16.0428C11.3406 16.0544 11.3551 16.0699 11.3655 16.0882C11.376 16.1064 11.382 16.1268 11.383 16.1478V24.4778C11.3844 24.499 11.3907 24.5195 11.4015 24.5377C11.4123 24.556 11.4272 24.5714 11.445 24.5828L13.438 25.7328C13.471 25.7528 13.498 25.7368 13.498 25.6978V14.9278C13.4971 14.9067 13.4912 14.886 13.4808 14.8676C13.4703 14.8492 13.4557 14.8335 13.438 14.8218L8.41303 11.9188ZM23.587 11.9188C23.62 11.8988 23.647 11.9148 23.647 11.9538V14.2558C23.646 14.2768 23.64 14.2972 23.6295 14.3155C23.6191 14.3337 23.6046 14.3492 23.587 14.3608L20.677 16.0408C20.6594 16.0525 20.6447 16.0682 20.6343 16.0866C20.6239 16.105 20.6179 16.1257 20.617 16.1468V24.4768C20.6159 24.498 20.6098 24.5187 20.5992 24.5371C20.5886 24.5555 20.5738 24.5712 20.556 24.5828L18.563 25.7328C18.529 25.7528 18.502 25.7368 18.502 25.6978V14.9278C18.503 14.9067 18.509 14.8861 18.5194 14.8677C18.5298 14.8493 18.5444 14.8336 18.562 14.8218L23.587 11.9188Z" fill="white"/>
<path d="M23.98 7.50294C23.98 7.46494 23.953 7.44894 23.92 7.46794L16.06 12.0139C16.0414 12.0233 16.0209 12.0281 16 12.0281C15.9792 12.0281 15.9587 12.0233 15.94 12.0139L8.08004 7.46794C8.04604 7.44794 8.01904 7.46494 8.01904 7.50294V9.80494C8.02011 9.82592 8.0261 9.84635 8.03652 9.86459C8.04695 9.88283 8.06151 9.89836 8.07904 9.90994L14.883 13.8439C14.9005 13.8556 14.915 13.8711 14.9255 13.8893C14.9359 13.9076 14.9419 13.928 14.943 13.9489V28.2339C14.9441 28.2552 14.9501 28.2759 14.9607 28.2943C14.9714 28.3127 14.9862 28.3284 15.004 28.3399L15.939 28.8799C15.958 28.8893 15.9789 28.8941 16 28.8941C16.0212 28.8941 16.0421 28.8893 16.061 28.8799L16.996 28.3399C17.0137 28.3283 17.0284 28.3126 17.0388 28.2941C17.0492 28.2757 17.0551 28.2551 17.056 28.2339V13.9499C17.0573 13.9289 17.0635 13.9084 17.0741 13.8902C17.0847 13.872 17.0994 13.8565 17.117 13.8449L23.92 9.90994C23.9377 9.89826 23.9524 9.88257 23.9628 9.86415C23.9732 9.84572 23.9791 9.82509 23.98 9.80394V7.50394V7.50294ZM16.036 13.3189C16.028 13.3189 16.025 13.3129 16.029 13.3059C16.033 13.2989 16.039 13.2989 16.043 13.3059C16.047 13.3129 16.043 13.3189 16.036 13.3189Z" fill="white"/>
<path d="M15.0119 7.20202C14.9926 7.20627 14.9754 7.21686 14.9629 7.23209C14.9503 7.24733 14.9433 7.26632 14.9429 7.28602V10.159C14.9441 10.1801 14.9503 10.2005 14.9609 10.2188C14.9715 10.237 14.9862 10.2525 15.0039 10.264L15.9389 10.804C15.9769 10.824 16.0219 10.824 16.0609 10.804L16.9959 10.264C17.0133 10.2524 17.0279 10.2368 17.0383 10.2186C17.0487 10.2004 17.0547 10.18 17.0559 10.159V7.28502C17.0557 7.2654 17.0488 7.24643 17.0365 7.23118C17.0242 7.21593 17.007 7.20531 16.9879 7.20102L16.0679 7.03202C16.0225 7.02512 15.9763 7.02512 15.9309 7.03202L15.0119 7.20202Z" fill="white"/>
</g>
<defs>
<clipPath id="clip0_301_1450">
<rect width="32" height="32" fill="white"/>
</clipPath>
</defs>
</svg>
