<svg width="32" height="32" viewBox="0 0 32 32" fill="none" xmlns="http://www.w3.org/2000/svg">
<g clip-path="url(#clip0_301_1415)">
<path d="M16 32C24.8366 32 32 24.8366 32 16C32 7.16344 24.8366 0 16 0C7.16344 0 0 7.16344 0 16C0 24.8366 7.16344 32 16 32Z" fill="#55DDFF"/>
<path d="M11.8299 10.12C11.8364 8.22394 12.5495 6.3984 13.8299 5C14.1799 4.65 14.2199 4.58 14.2199 4.3C14.2199 4.02 14.2199 4 14.0099 4C13.7503 4.02875 13.493 4.07553 13.2399 4.14C10.2552 4.84507 7.6496 6.65721 5.94993 9.21C5.12932 10.4205 4.55194 11.7791 4.24993 13.21C3.99954 14.5279 3.93893 15.8749 4.06993 17.21C4.43734 20.1725 5.92609 22.8816 8.22993 24.78C9.45993 25.78 10.8399 26.58 10.8399 26.22C10.7592 26.0649 10.6508 25.926 10.5199 25.81C9.90113 25.128 9.43835 24.3193 9.16376 23.4403C8.88917 22.5613 8.80938 21.633 8.92993 20.72C9.01887 19.5856 9.37285 18.4879 9.96338 17.5153C10.5539 16.5427 11.3645 15.7222 12.3299 15.12C12.5738 14.9463 12.8313 14.7924 13.0999 14.66C13.2499 14.66 13.1599 14.36 12.7899 13.66C12.1569 12.588 11.8252 11.3649 11.8299 10.12ZM27.3399 13.24C26.9863 11.5175 26.2584 9.8937 25.2077 8.48361C24.1571 7.07353 22.8093 5.91158 21.2599 5.08C20.6999 4.77 20.4199 4.7 20.4199 4.89C20.4728 5.04991 20.5541 5.19896 20.6599 5.33C21.2798 6.21055 21.6275 7.25367 21.6599 8.33C21.7229 8.89117 21.6664 9.45933 21.494 9.99708C21.3217 10.5348 21.0374 11.03 20.6599 11.45C20.4661 11.6555 20.1994 11.7769 19.9172 11.7881C19.6349 11.7993 19.3595 11.6995 19.1499 11.51C18.7499 11.22 18.7499 11.02 18.9999 10.65C19.5297 9.8709 19.7928 8.94116 19.7499 8C19.7888 7.62162 19.7425 7.23934 19.6144 6.88116C19.4864 6.52299 19.2799 6.198 19.0099 5.93C18.7644 5.67536 18.4535 5.49311 18.1114 5.40317C17.7693 5.31322 17.409 5.31905 17.0699 5.42C16.5851 5.61535 16.156 5.92757 15.8211 6.32886C15.4861 6.73014 15.2555 7.20804 15.1499 7.72C14.9206 8.46 14.7862 9.22613 14.7499 10C14.7573 11.185 15.0488 12.3509 15.5999 13.4C15.9844 14.003 16.4601 14.5427 17.0099 15C17.1199 15.072 17.2169 15.16 17.2999 15.26C17.2033 15.3395 17.0908 15.3974 16.9699 15.43C16.1971 15.7957 15.5052 16.3124 14.935 16.9495C14.3649 17.5867 13.9279 18.3314 13.6499 19.14C13.2839 20.0785 13.1203 21.0838 13.1699 22.09C13.1497 22.5643 13.2281 23.0375 13.4003 23.4799C13.5724 23.9223 13.8345 24.3241 14.1699 24.66C14.5496 24.9886 14.9988 25.2268 15.4838 25.3567C15.9687 25.4866 16.4769 25.5048 16.9699 25.41C18.2909 25.3112 19.5262 24.7185 20.4299 23.75C20.8399 23.31 20.9199 23.26 20.9999 23.36C21.0799 23.46 21.0599 23.52 20.9099 23.77C19.9604 25.3919 18.4365 26.5981 16.6399 27.15C16.2899 27.24 16.1399 27.31 16.1399 27.39C16.1399 27.65 18.3299 27.29 19.6599 26.82C21.3563 26.2002 22.8925 25.2085 24.1557 23.9176C25.4188 22.6267 26.377 21.0694 26.9599 19.36C27.3912 18.1695 27.5782 16.9044 27.5099 15.64C27.5555 14.836 27.4984 14.0295 27.3399 13.24Z" fill="white"/>
</g>
<defs>
<clipPath id="clip0_301_1415">
<rect width="32" height="32" fill="white"/>
</clipPath>
</defs>
</svg>
