<svg width="32" height="32" viewBox="0 0 32 32" fill="none" xmlns="http://www.w3.org/2000/svg">
<g clip-path="url(#clip0_301_1386)">
<path d="M16 32C24.8366 32 32 24.8366 32 16C32 7.16344 24.8366 0 16 0C7.16344 0 0 7.16344 0 16C0 24.8366 7.16344 32 16 32Z" fill="#EC008C"/>
<path d="M16.0001 30.88C24.2181 30.88 30.8801 24.218 30.8801 16C30.8801 7.782 24.2181 1.12 16.0001 1.12C7.78212 1.12 1.12012 7.782 1.12012 16C1.12012 24.218 7.78212 30.88 16.0001 30.88Z" fill="#EC008C"/>
<path d="M18.7054 6.25455L11.9854 13.3236V19.2L24.4217 6.25455H18.7054Z" fill="url(#paint0_linear_301_1386)"/>
<path d="M13.687 17.4255L19.2434 25.7455H24.8434L16.9161 14.0655L13.687 17.4255Z" fill="url(#paint1_linear_301_1386)"/>
<path d="M11.9853 6.25455H7.15625V25.7309H11.9853V6.25455Z" fill="white"/>
</g>
<defs>
<linearGradient id="paint0_linear_301_1386" x1="15.6286" y1="12.7273" x2="8.45777" y2="19.2" gradientUnits="userSpaceOnUse">
<stop stop-color="white"/>
<stop offset="1" stop-color="white" stop-opacity="0"/>
</linearGradient>
<linearGradient id="paint1_linear_301_1386" x1="19.2652" y1="22.095" x2="14.4333" y2="14.0655" gradientUnits="userSpaceOnUse">
<stop stop-color="white"/>
<stop offset="1" stop-color="white" stop-opacity="0"/>
</linearGradient>
<clipPath id="clip0_301_1386">
<rect width="32" height="32" fill="white"/>
</clipPath>
</defs>
</svg>
