<svg width="32" height="32" viewBox="0 0 32 32" fill="none" xmlns="http://www.w3.org/2000/svg">
<g clip-path="url(#clip0_301_1375)">
<path d="M16 32C24.8366 32 32 24.8366 32 16C32 7.16344 24.8366 0 16 0C7.16344 0 0 7.16344 0 16C0 24.8366 7.16344 32 16 32Z" fill="#EA0017"/>
<path d="M20.7174 15.4122C20.7484 15.4122 20.8234 15.4442 20.8874 15.4822C21.0634 15.5892 21.1544 15.8042 21.1374 16.0622C21.1274 16.2382 21.0844 16.3582 20.9074 16.7182C20.7874 16.9622 20.5614 17.3712 20.4074 17.6282C20.1414 18.0662 20.0144 18.2962 20.0144 18.3312C20.0144 18.3412 20.1944 18.1792 20.4144 17.9712C20.8264 17.5832 21.1154 17.3992 21.2464 17.4412C21.4234 17.4982 21.4764 17.8332 21.3594 18.1692C21.2924 18.3692 21.1124 18.7332 20.9324 19.0402C20.8284 19.2102 20.8194 19.2442 20.9944 19.1442L21.1404 19.0582C21.5044 18.8392 21.7374 18.8152 21.8644 18.9882C22.0044 19.1782 21.9804 19.7572 21.8074 20.2582C21.7684 20.3712 21.7474 20.4732 21.7574 20.4842C21.7684 20.4942 21.8774 20.4592 21.9974 20.4062C22.1214 20.3502 22.3054 20.2862 22.4114 20.2622C22.7674 20.1772 22.9194 20.3292 22.9864 20.8332C23.0464 21.2712 22.8804 21.6352 22.5764 21.7442C22.5244 21.7622 22.5164 21.7542 22.5344 21.6882C22.5484 21.6422 22.5664 21.5612 22.5804 21.5042C22.5984 21.4122 22.5944 21.4092 22.5304 21.4442C22.4284 21.4972 22.3124 21.7092 22.2704 21.9212C22.1434 22.5492 21.9844 22.8592 21.5674 23.2832C21.1084 23.7492 20.6324 24.0632 19.8914 24.3952C19.5454 24.5502 19.0584 24.8572 18.5394 25.2492L18.3874 25.3652L18.0874 25.0902L17.9374 24.9582C17.6364 24.7042 17.3344 24.5062 17.0924 24.4082C17.0201 24.3807 16.9484 24.3517 16.8774 24.3212C16.8704 24.3142 16.9304 24.2362 17.0114 24.1442C17.0903 24.0531 17.1514 23.9479 17.1914 23.8342C17.2414 23.6392 17.2684 23.5942 17.3784 23.5302C17.5054 23.4602 17.7104 23.5162 18.1974 23.7602C18.4124 23.8652 18.5954 23.9542 18.6134 23.9542C18.6524 23.9542 18.6454 23.8512 18.5954 23.7212C18.5574 23.6152 18.5714 23.5512 18.7334 23.0642C18.9484 22.4222 19.0054 22.1892 18.9634 22.1462C18.9104 22.0932 18.8674 22.1782 18.6204 22.8062C18.4904 23.1352 18.3774 23.4142 18.3704 23.4212C18.3594 23.4312 18.2814 23.4032 18.1934 23.3612C18.0484 23.2902 18.0344 23.2692 18.0524 23.1912C18.1544 22.7812 18.2144 21.8572 18.1514 21.6312C18.1054 21.4722 18.0554 21.5392 18.0134 21.8182C17.9214 22.4112 17.8194 22.8812 17.7774 22.9232C17.7374 22.9622 17.7134 22.9512 17.6354 22.8592L17.5444 22.7462V19.4302L18.3274 18.4202L18.4884 18.2122C19.7414 16.5952 20.1004 16.1292 20.3784 15.7732C20.5334 15.5752 20.6854 15.4132 20.7174 15.4132V15.4122ZM13.8454 20.4322C14.1804 20.1132 14.2554 20.0852 14.3714 20.2482C14.4594 20.3682 14.5084 20.6502 14.5084 21.0352V21.3522L14.6714 21.5252L14.7374 21.6012C14.8024 21.6812 14.8614 21.7712 14.8824 21.8212C14.9354 21.9522 14.9574 22.4532 14.9144 22.6232C14.9004 22.6792 14.9354 22.7852 15.0314 22.9692C15.6844 24.2192 15.8184 24.4902 15.8014 24.5112L15.7794 24.5152L15.7394 24.5122C15.7013 24.5055 15.6638 24.4954 15.6274 24.4822C15.4754 24.4342 15.2954 24.4262 14.6574 24.4442C14.2724 24.4542 14.0424 24.3912 14.0214 24.2682C14.0114 24.2182 14.1554 23.9882 14.4594 23.5682C14.5514 23.4422 14.5614 23.3682 14.5094 23.2832C14.4844 23.2412 14.3604 23.2262 13.9094 23.2132C13.1534 23.1882 13.1294 23.1452 13.6614 22.7432C13.8844 22.5732 14.1454 22.3052 14.1764 22.2132C14.1874 22.1782 14.1694 22.1112 14.1384 22.0622L14.0784 21.9702L13.6484 21.9952L13.5314 22.0012C13.0574 22.0212 12.9714 21.9532 13.1314 21.7302C13.1714 21.6772 13.1914 21.6242 13.1784 21.6102C13.1684 21.6002 12.9584 21.5892 12.7224 21.5892C12.3164 21.5892 11.9494 21.5432 11.8864 21.4862C11.8724 21.4722 12.0454 21.4022 12.2744 21.3312C12.6664 21.2112 13.1924 20.9712 13.4324 20.8012C13.5747 20.6831 13.7124 20.5597 13.8454 20.4312V20.4322ZM15.1524 17.3922C15.1684 17.4022 15.2074 17.7172 15.2494 18.0952C15.2894 18.4722 15.3204 18.8182 15.3204 18.8602C15.3204 18.9062 15.3344 18.9422 15.3524 18.9422C15.3694 18.9422 15.4754 18.8002 15.5884 18.6242C15.7054 18.4512 15.8084 18.3062 15.8184 18.3062C15.8464 18.3062 15.8644 18.4402 15.9584 19.4432C16.0054 19.9052 16.0514 20.2832 16.0614 20.2832C16.0714 20.2832 16.1284 20.0852 16.1814 19.8422C16.2384 19.5982 16.2944 19.4002 16.3084 19.4002C16.3294 19.4002 17.3004 22.2102 17.2974 22.2662C17.2974 22.3442 17.2124 22.2522 16.8734 21.8152C16.6684 21.5462 16.4744 21.2992 16.4434 21.2572L16.3794 21.1832L16.2844 21.2892L16.2444 21.3342C16.1536 21.4363 16.0619 21.5376 15.9694 21.6382L15.7474 21.8822L15.7294 21.7622L15.7264 21.7322C15.7104 21.6022 15.6654 21.1322 15.6204 20.6252C15.5744 20.0642 15.5254 19.5912 15.5104 19.5732C15.5004 19.5562 15.3664 19.6552 15.2104 19.7962C15.0554 19.9372 14.9144 20.0602 14.8934 20.0642C14.8724 20.0712 14.8684 20.0222 14.8794 19.9402C14.9044 19.7602 15.1444 17.4952 15.1444 17.4272C15.1444 17.3992 15.1514 17.3852 15.1614 17.3922H15.1524ZM10.6224 15.4442C10.8764 15.4122 11.4024 15.4402 11.6464 15.5072C11.9144 15.5742 12.2144 15.7022 12.4544 15.8392C12.6914 15.9802 13.2734 16.5422 13.3614 16.7192C13.4314 16.8592 13.4674 16.8772 13.0404 16.5522C12.7033 16.3022 12.3295 16.1059 11.9324 15.9702C11.7344 15.9082 11.6224 15.8922 11.3174 15.8902L11.1734 15.8892C10.7284 15.8892 10.6514 15.8992 10.3964 15.9842C8.78339 16.5312 7.96839 18.5822 8.81239 19.9692C9.06239 20.3852 9.46539 20.7562 10.0084 21.0692C10.3154 21.2492 10.2914 21.2792 9.91339 21.1832C9.57711 21.0995 9.26362 20.9421 8.99557 20.7225C8.72752 20.5028 8.51159 20.2264 8.36339 19.9132C8.16939 19.5172 8.08539 19.1502 8.06039 18.6242C8.02539 17.7742 8.24739 17.0992 8.77639 16.4572C9.19639 15.9452 9.94139 15.5392 10.6224 15.4442ZM9.32339 18.1942C9.37639 18.0312 9.38339 18.0422 9.51839 18.4162C9.7873 19.1252 10.1953 19.7732 10.7184 20.3222C10.8414 20.4522 10.9434 20.5692 10.9434 20.5822C10.9434 20.6392 10.6654 20.5692 10.4004 20.4492C9.75839 20.1492 9.38039 19.5242 9.29939 18.6092C9.28539 18.4192 9.28939 18.2922 9.32339 18.1932V18.1942ZM12.2854 12.9242C12.7294 12.8572 12.7514 12.8642 12.4614 12.9982C12.3164 13.0652 12.1754 13.1282 12.1514 13.1462L12.1234 13.1632C12.0434 13.2212 12.1904 13.2432 12.6984 13.2592C13.3444 13.2772 13.3484 13.2802 13.2944 13.4922C13.2734 13.5772 13.2664 13.5772 12.8744 13.5772C12.6488 13.5801 12.4237 13.5978 12.2004 13.6302C11.9254 13.6802 11.5264 13.8452 11.5264 13.9122C11.5264 13.9302 11.6924 13.9652 11.8964 13.9902C12.5254 14.0642 13.1364 14.2302 13.5594 14.4422C13.7254 14.5302 13.8134 14.6422 14.1454 15.2182C15.0384 16.7602 15.1724 16.9792 15.4934 17.4062C15.9034 17.9502 16.3434 18.4442 16.8234 18.8992L17.2614 19.3122V19.8852C17.2574 20.0932 17.2444 20.2532 17.2264 20.2652C17.1914 20.2862 17.2124 20.3222 16.7324 19.5062C16.3825 18.9118 16.0044 18.3345 15.5994 17.7762C15.4961 17.6364 15.3993 17.4919 15.3094 17.3432C15.2994 17.3112 15.2674 17.2832 15.2424 17.2792C15.2184 17.2792 15.1024 17.1662 14.9854 17.0292C14.6534 16.6402 13.9054 15.9662 13.3964 15.6032C13.1044 15.3912 12.7194 15.1302 12.6984 15.1302C12.6914 15.1302 12.5674 15.0662 12.4224 14.9852C12.1022 14.8153 11.7667 14.676 11.4204 14.5692C11.1764 14.5022 10.6904 14.4842 10.3794 14.5262C9.93083 14.6061 9.49969 14.7638 9.10539 14.9922C9.00735 15.0554 8.90586 15.1132 8.80139 15.1652C8.77639 15.1652 8.46639 15.3872 8.22639 15.5822C8.11639 15.6702 8.02839 15.7192 8.02139 15.6982C8.00339 15.6482 8.30039 15.2362 8.55839 14.9432C8.90772 14.5756 9.29449 14.2454 9.71239 13.9582C10.4424 13.4712 11.5124 13.0402 12.2854 12.9242ZM9.87439 17.3252C9.74439 16.9692 9.74739 16.9402 9.91339 17.0352C10.0301 17.1078 10.1442 17.1845 10.2554 17.2652C10.9384 17.773 11.4892 18.4377 11.8614 19.2032C12.0134 19.5242 12.1194 19.8242 12.0944 19.8492L12.0754 19.8532L12.0424 19.8432C11.8724 19.7732 11.3424 19.3432 10.9434 18.9422C10.4394 18.4302 10.0864 17.9042 9.87439 17.3252ZM11.0494 16.3722C11.0494 16.3302 11.4274 16.4292 11.6494 16.5312C12.1124 16.7392 12.4514 17.1412 12.5994 17.6432C12.6984 17.9822 12.7264 18.2392 12.6914 18.5042C12.6624 18.7402 12.6664 18.7482 12.4444 18.2502C12.1786 17.6982 11.8269 17.1919 11.4024 16.7502C11.2807 16.628 11.163 16.5019 11.0494 16.3722ZM16.8384 10.4782C17.0114 10.4282 17.0084 10.4282 17.0644 10.5132C17.1594 10.6612 17.3324 11.2372 17.4064 11.6572C17.4524 11.9322 17.4844 12.3102 17.4984 12.7612L17.5184 13.4462L17.3464 13.4222L17.3074 13.4162C17.0634 13.3762 16.8644 13.3012 15.5424 12.7472C14.8294 12.4472 14.2404 12.2112 14.2294 12.2212C14.2124 12.2392 14.5654 12.9342 14.8014 13.3472C15.2314 14.0962 16.0294 14.5022 16.9514 14.4422C17.2154 14.4242 17.3114 14.4312 17.3914 14.4702C17.5824 14.5722 17.7064 14.7492 17.8224 15.0942C17.9674 15.5182 18.2324 16.0342 18.4584 16.3302C18.5534 16.4572 18.6284 16.5632 18.6284 16.5632C18.6244 16.5662 18.5114 16.5452 18.3734 16.5202C17.7554 16.3932 16.6864 15.9452 16.3974 15.6912C16.0654 15.3982 16.3684 15.8672 16.7214 16.1892C17.1514 16.5842 17.7734 16.9262 18.4824 17.1632C18.6944 17.2332 18.8744 17.2972 18.8784 17.3002C18.9174 17.3362 17.8754 18.5532 17.8124 18.5532C17.7484 18.5532 17.3884 18.3382 17.0394 18.0952C16.6544 17.8262 15.7824 16.9692 15.4724 16.5592C14.5805 15.3624 13.9285 14.0045 13.5524 12.5602L13.4424 12.1582L13.5804 12.0172L13.6694 11.9332C14.1944 11.4732 15.5224 10.8632 16.8384 10.4782ZM22.2484 9.28517C22.3258 9.29273 22.4008 9.31659 22.4684 9.35517C22.5245 9.39466 22.5733 9.44375 22.6124 9.50017C22.6444 9.54617 23.0184 10.9502 23.4424 12.6132C24.2894 15.9272 24.2824 15.8822 24.0914 16.0832C24.0313 16.1423 23.9608 16.1898 23.8834 16.2232C23.7204 16.2772 21.2034 16.8232 21.1904 16.8102C21.2041 16.7361 21.2291 16.6646 21.2644 16.5982C21.4444 16.1882 21.4544 15.8082 21.2844 15.5362C21.1684 15.3462 20.8684 15.1662 20.6744 15.1662C20.5614 15.1662 20.5264 15.2002 19.9264 15.9762C19.5804 16.4262 19.2844 16.7782 19.2704 16.7642C19.2554 16.7502 18.9344 15.3742 18.5504 13.7112C18.0554 11.5652 17.8614 10.6542 17.8794 10.5812C17.9161 10.4456 18.0015 10.3285 18.1194 10.2522C18.2714 10.1712 22.1114 9.27117 22.2494 9.28517H22.2484ZM22.8314 13.2912C22.8244 13.2772 22.6974 13.3792 22.5484 13.5212C22.4004 13.6582 22.0974 13.9412 21.8784 14.1492L21.4754 14.5262L20.6114 14.2472C20.3171 14.146 20.0193 14.0556 19.7184 13.9762C19.7044 13.9792 20.0354 14.2932 20.4594 14.6712C20.8864 15.0492 21.3494 15.4652 21.4934 15.5992C21.6384 15.7292 21.7684 15.8252 21.7834 15.8112C21.8214 15.7722 22.8414 13.3192 22.8314 13.2912ZM20.7174 14.3922C20.9604 14.4732 21.2324 14.5472 21.3204 14.5622L21.4794 14.5822L21.5964 15.1092C21.6594 15.3982 21.7054 15.6422 21.6944 15.6492C21.6874 15.6562 21.6034 15.5852 21.5114 15.4932C21.2691 15.2635 21.0231 15.0378 20.7734 14.8162C20.5768 14.6425 20.3851 14.4635 20.1984 14.2792C20.1774 14.2262 20.2614 14.2442 20.7174 14.3922ZM12.0904 9.99117C12.6834 9.84317 12.9194 9.80717 12.9194 9.86717C12.9194 9.88517 12.8344 9.92017 12.7354 9.94117C12.4464 10.0122 11.7014 10.2732 11.3314 10.4362C10.9284 10.6122 10.4134 10.9122 10.2194 11.0812L10.0784 11.2012L10.2014 11.2302L10.3534 11.2662C10.8574 11.4002 11.7834 11.7492 12.2234 11.9782C12.5454 12.1442 12.9544 12.4232 12.9544 12.4792C12.9544 12.4932 12.8484 12.5182 12.7184 12.5322C12.1784 12.5852 11.2924 12.8042 10.6604 13.0372C9.88739 13.3272 8.90639 13.8522 8.30639 14.3042C7.91439 14.6002 7.91439 14.6002 8.05239 14.4032C8.21839 14.1632 8.72239 13.6402 9.02939 13.3932C9.69339 12.8672 10.5654 12.4862 11.4894 12.3202L11.6314 12.2962L11.3814 12.1792L11.2564 12.1262C10.7094 11.9082 9.56239 11.6262 8.87839 11.5472C8.78978 11.5387 8.7023 11.5209 8.61739 11.4942C8.52539 11.4452 9.72139 10.8032 10.4314 10.5242C10.973 10.3129 11.5271 10.1349 12.0904 9.99117ZM20.5604 10.6542C20.2964 11.4342 19.6604 13.4042 19.6604 13.4462C19.6604 13.4782 19.6464 13.5132 19.6254 13.5242C19.5124 13.5942 19.6434 13.6542 20.4694 13.9262C20.9524 14.0822 21.3724 14.2122 21.4044 14.2122C21.4744 14.2122 22.7844 12.9872 22.7844 12.9242C22.7844 12.8992 22.3324 12.4092 21.7854 11.8372C21.4231 11.4625 21.0654 11.0835 20.7124 10.7002C20.6384 10.6052 20.5854 10.5872 20.5604 10.6542ZM15.8524 13.6022C15.8174 13.5022 15.8174 13.5022 15.9304 13.5242C15.9904 13.5382 16.1304 13.5912 16.2374 13.6442C16.4944 13.7672 16.5054 13.8242 16.2724 13.8242C16.0534 13.8242 15.8984 13.7432 15.8524 13.6022ZM20.6104 10.8452C20.6274 10.8632 20.7234 11.2402 20.8224 11.6852L21.0054 12.4972L20.9064 12.5922C20.7694 12.7262 19.7204 13.5102 19.7064 13.4922C19.6964 13.4852 19.7204 13.4182 19.7594 13.3402C19.8294 13.2032 20.5254 11.1032 20.5604 10.9162C20.5744 10.8592 20.5964 10.8272 20.6104 10.8452ZM12.8344 10.2952L12.8064 10.5482L12.7954 10.6492C12.7744 10.8612 12.7874 10.9122 12.8484 10.9122C12.8884 10.9122 12.9124 10.9862 12.9404 11.1942C13.0004 11.5972 13.0144 11.9962 12.9724 12.0142C12.9514 12.0172 12.8024 11.9432 12.6374 11.8472C12.2521 11.6185 11.8484 11.4225 11.4304 11.2612C11.2784 11.2052 11.1544 11.1492 11.1544 11.1382C11.1544 11.0642 11.5884 10.7322 11.8504 10.6052C12.1854 10.4432 12.6054 10.2982 12.7464 10.2952H12.8344ZM18.2324 8.60017C19.4674 8.36717 19.7254 8.34617 19.9444 8.45917C20.0184 8.49817 20.1144 8.57617 20.1524 8.63217C20.2404 8.75217 20.4734 9.23617 20.4734 9.29217C20.4734 9.31717 20.2754 9.36217 19.9724 9.41217C17.7524 9.76217 15.9314 10.2872 14.5444 10.9822C14.2075 11.1418 13.8861 11.3323 13.5844 11.5512C13.3474 11.7312 13.3724 11.7812 13.2874 10.9792C13.2274 10.4362 13.2274 10.4042 13.2874 10.2452C13.3444 10.0972 13.3754 10.0682 13.5844 9.96317C14.0758 9.7376 14.5788 9.53832 15.0914 9.36617C16.0334 9.06617 16.9754 8.83617 18.2314 8.60017H18.2324ZM14.8084 6.21717H14.8444C14.8644 6.21717 14.9284 6.31717 14.9924 6.43317C15.2924 6.98017 15.8994 8.67117 15.8254 8.74517C15.7764 8.77383 15.7218 8.79189 15.6654 8.79817L15.5424 8.81917L15.4224 8.56117L15.3624 8.43217C15.0024 7.68217 14.3564 6.66017 14.2794 6.73317C14.2694 6.74317 14.2934 6.84617 14.3324 6.96317C14.5124 7.47817 14.7554 8.63217 14.7554 8.96017C14.7554 9.05917 14.7384 9.09017 14.6674 9.12317C14.6242 9.14512 14.5775 9.15933 14.5294 9.16517C14.5094 9.16517 14.3924 9.03817 14.2794 8.88317C14.1664 8.72717 14.0604 8.61117 14.0464 8.62517C14.0364 8.64317 14.0004 8.81917 13.9684 9.02017C13.9154 9.38417 13.8624 9.51017 13.8064 9.42017C13.7924 9.39417 13.7604 9.03817 13.7364 8.62517C13.7243 8.34233 13.7043 8.05988 13.6764 7.77817C13.6654 7.72517 13.6724 7.68317 13.6894 7.68317C13.7074 7.68317 13.8454 7.79917 13.9934 7.94317C14.1414 8.08517 14.2684 8.19417 14.2754 8.18017C14.3044 8.12717 13.9224 6.98717 13.6824 6.40817C13.6624 6.35917 13.6964 6.34117 13.8984 6.31017C14.1414 6.26717 14.7804 6.20717 14.8444 6.21817L14.8084 6.21717ZM11.9354 6.97317C12.2184 6.79317 12.4584 6.73317 12.6164 6.79717C12.6644 6.81417 12.6764 6.84717 12.6774 7.09017V7.31517C12.6748 7.56366 12.6665 7.81206 12.6524 8.06017L12.6274 8.31017L11.9714 8.29317L11.7034 8.28917C11.1574 8.28118 10.6131 8.35019 10.0864 8.49417C9.86339 8.55117 9.65939 8.60417 9.63439 8.60717C9.60939 8.61417 9.58439 8.59317 9.57839 8.56517C9.55639 8.43817 10.3684 7.85917 11.2784 7.35117C11.5514 7.19517 11.8474 7.02617 11.9354 6.97317ZM15.4854 6.20017L15.6984 6.56017L15.7684 6.68017C16.1274 7.31217 16.6264 8.37017 16.6264 8.50817C16.6264 8.56817 16.3894 8.62817 16.3474 8.57917C16.3112 8.51864 16.2805 8.45506 16.2554 8.38917C15.9943 7.80341 15.7073 7.22951 15.3954 6.66917C15.3071 6.52147 15.2234 6.37106 15.1444 6.21817C15.1444 6.20817 15.2214 6.20017 15.3134 6.20017H15.4864H15.4854ZM16.1354 6.23517H16.1924C16.3224 6.23517 16.7224 6.26017 17.0784 6.28817C17.4314 6.31717 17.7584 6.34817 17.8084 6.35917L17.9854 6.39417C18.0954 6.41917 18.1794 6.55417 18.4264 7.08317C18.5884 7.43917 18.8284 8.07117 18.8044 8.08817C18.3782 8.15455 17.9534 8.2299 17.5304 8.31417C17.0704 8.41017 16.9794 8.41017 16.9794 8.30717C16.9794 8.23317 16.4214 7.08717 16.1894 6.68417C15.9064 6.20017 15.9064 6.23517 16.1924 6.23517H16.1354Z" fill="white"/>
<path d="M16.7852 10.6723C16.8732 10.8873 16.9192 11.1173 16.9652 11.6003C17.0112 12.1163 17.0952 12.8293 17.1452 13.1253C17.1662 13.2773 17.2262 13.3093 17.2262 13.1713C17.2262 13.1213 17.2012 12.9273 17.1732 12.7373C17.133 12.4178 17.0977 12.0978 17.0672 11.7773C17.0453 11.5196 17.0146 11.2628 16.9752 11.0073C16.9302 10.7923 16.8482 10.6123 16.7992 10.6123C16.7742 10.6123 16.7712 10.6373 16.7852 10.6723ZM17.5442 14.8023C17.5442 14.9573 18.0382 16.0933 18.2002 16.3093C18.3102 16.4603 18.2812 16.3233 18.1542 16.0933C17.9702 15.7617 17.8131 15.4159 17.6842 15.0593C17.6042 14.8333 17.5442 14.7243 17.5442 14.8023Z" fill="white"/>
<path d="M13.3682 5.31011C16.1568 4.62962 19.1014 5.07892 21.5602 6.56011C23.1202 7.48811 24.5502 8.94911 25.4362 10.5231C26.3962 12.2211 26.8662 13.9781 26.8662 15.8631C26.8692 17.1441 26.7032 18.1751 26.3112 19.3501C25.939 20.4464 25.3997 21.4786 24.7122 22.4101C24.1455 23.1354 23.5054 23.8003 22.8022 24.3941C21.0622 25.8021 19.0472 26.6071 16.7502 26.8011C14.3042 27.0131 11.6002 26.2541 9.58816 24.7931C7.22016 23.0771 5.65316 20.5891 5.15816 17.7691C4.62616 14.7341 5.45216 11.5391 7.39616 9.12211C7.69616 8.74811 8.38116 8.03811 8.80116 7.66811C10.0612 6.55611 11.6952 5.71211 13.3682 5.31011ZM16.5912 5.87511C15.5197 5.80833 14.4444 5.90956 13.4042 6.17511C12.1582 6.49911 10.7242 7.19811 9.81416 7.92511L9.44416 8.21811C8.99216 8.56811 8.00716 9.64811 7.63616 10.2021C6.43616 11.9921 5.86116 13.8551 5.86116 15.9371C5.86116 17.6101 6.20016 19.0111 6.98016 20.5371C7.92637 22.3891 9.43005 23.8973 11.2792 24.8491C12.4792 25.4671 13.8202 25.8551 15.1092 25.9571C17.3252 26.1341 19.4002 25.6191 21.3592 24.4081C22.2632 23.8501 23.4202 22.7811 23.9992 21.9731C25.0792 20.4581 25.6762 19.0221 25.9292 17.3131C26.0212 16.7031 26.0252 15.0371 25.9332 14.4971C25.6162 12.5741 24.8182 10.7951 23.6852 9.48211C23.5752 9.35511 23.4382 9.19211 23.3812 9.12511C23.033 8.74178 22.6541 8.38759 22.2482 8.06611C21.2082 7.26911 20.4132 6.83111 19.2202 6.40011C18.4122 6.11111 17.6212 5.95211 16.5902 5.87511H16.5912Z" fill="white"/>
</g>
<defs>
<clipPath id="clip0_301_1375">
<rect width="32" height="32" fill="white"/>
</clipPath>
</defs>
</svg>
