<svg width="32" height="32" viewBox="0 0 32 32" fill="none" xmlns="http://www.w3.org/2000/svg">
<g clip-path="url(#clip0_301_1370)">
<path d="M16 32C24.8367 32 32 24.8367 32 16C32 7.16333 24.8367 0 16 0C7.16333 0 0 7.16333 0 16C0 24.8367 7.16333 32 16 32Z" fill="#2B6680"/>
<path d="M5.00002 16C4.99441 18.9174 6.14795 21.7175 8.20688 23.7844C10.2658 25.8512 13.0615 27.0155 15.9789 27.0212C18.8962 27.0268 21.6964 25.8732 23.7632 23.8143C25.8301 21.7554 26.9944 18.9597 27 16.0423V15.958C26.9962 15.1113 26.8952 14.2679 26.699 13.4443C26.6657 13.291 26.6021 13.1458 26.512 13.0173C26.4219 12.8888 26.3071 12.7796 26.1742 12.696C26.0414 12.6125 25.8932 12.5562 25.7384 12.5306C25.5836 12.505 25.4252 12.5106 25.2725 12.5469C25.1199 12.5833 24.976 12.6498 24.8493 12.7424C24.7227 12.835 24.6157 12.952 24.5348 13.0865C24.4539 13.221 24.4006 13.3702 24.3781 13.5255C24.3556 13.6808 24.3643 13.8391 24.4037 13.991C24.8421 15.8222 24.6707 17.7465 23.9154 19.4713C23.1602 21.1961 21.8624 22.6272 20.2194 23.547C18.5763 24.4668 16.6779 24.825 14.8127 24.5671C12.9475 24.3092 11.2175 23.4494 9.88568 22.1183C8.55385 20.7873 7.69304 19.0577 7.4341 17.1927C7.17515 15.3276 7.53224 13.429 8.45108 11.7855C9.36991 10.1419 10.8002 8.84332 12.5247 8.08707C14.2491 7.33082 16.1732 7.15827 18.0047 7.59566C18.3065 7.66124 18.6221 7.60584 18.8835 7.44136C19.145 7.27688 19.3315 7.01643 19.4031 6.71594C19.4747 6.41546 19.4255 6.09888 19.2663 5.83421C19.107 5.56953 18.8504 5.37785 18.5514 5.30032C16.9352 4.91469 15.2526 4.90025 13.63 5.25809C12.0074 5.61592 10.487 6.33674 9.18294 7.36639C7.87886 8.39604 6.82502 9.70778 6.10055 11.2031C5.37608 12.6984 4.99982 14.3384 5.00002 16Z" fill="white"/>
<path d="M21.5598 7.95404C21.5438 7.96904 21.5335 7.98671 21.5185 8.00271C21.2503 8.28702 21.0856 8.65338 21.0511 9.04271V9.22971C21.0511 9.27304 21.0418 9.31471 21.0371 9.35771C20.991 9.82336 20.8415 10.2728 20.5994 10.6733C20.3573 11.0737 20.0289 11.4151 19.638 11.6723C19.2472 11.9296 18.8038 12.0963 18.3402 12.1602C17.8767 12.2242 17.4047 12.1838 16.9588 12.042C16.3075 11.8833 15.627 11.8888 14.9784 12.0581C14.3298 12.2274 13.7334 12.5552 13.2428 13.012C13.2028 13.0494 13.1588 13.081 13.1195 13.1204C12.3561 13.8837 11.9273 14.9189 11.9272 15.9984C11.9272 17.0779 12.356 18.1132 13.1193 18.8765C13.8826 19.6399 14.9179 20.0687 15.9974 20.0688C17.0768 20.0688 18.1121 19.64 18.8755 18.8767C19.0438 18.706 19.1965 18.52 19.3315 18.3217C19.6601 17.8512 19.8855 17.3166 19.9928 16.7528C20.1001 16.1891 20.0869 15.609 19.9541 15.0507C19.9314 14.9776 19.9114 14.9036 19.8941 14.829C19.8941 14.818 19.8875 14.8077 19.8848 14.7964C19.7835 14.3574 19.7778 13.9017 19.868 13.4603C19.9582 13.0189 20.1423 12.602 20.4078 12.238C20.6732 11.874 21.0138 11.5713 21.4065 11.3504C21.7992 11.1296 22.2348 10.9958 22.6838 10.958C22.7071 10.958 22.7298 10.9514 22.7531 10.9507C22.8195 10.9507 22.8858 10.943 22.9521 10.943H22.9681C23.3745 10.9056 23.7549 10.7267 24.0428 10.4374C24.1111 10.3667 24.1735 10.2904 24.2295 10.2094C24.4824 9.85093 24.5917 9.41071 24.5359 8.97561C24.4801 8.5405 24.2632 8.14212 23.9281 7.85908C23.5929 7.57605 23.1638 7.42893 22.7255 7.44675C22.2872 7.46458 21.8715 7.64606 21.5605 7.95537" fill="white"/>
</g>
<defs>
<clipPath id="clip0_301_1370">
<rect width="32" height="32" fill="white"/>
</clipPath>
</defs>
</svg>
