<svg width="32" height="32" viewBox="0 0 32 32" fill="none" xmlns="http://www.w3.org/2000/svg">
<g clip-path="url(#clip0_301_1362)">
<path d="M16 32C24.8366 32 32 24.8366 32 16C32 7.16344 24.8366 0 16 0C7.16344 0 0 7.16344 0 16C0 24.8366 7.16344 32 16 32Z" fill="#00AEEF"/>
<path d="M15.76 14.7061C15.998 14.6651 16.208 14.5761 16.392 14.4411C16.576 14.3061 16.75 14.0781 16.913 13.7661L20.538 6.77911C20.68 6.54511 20.854 6.35911 21.054 6.21311C21.2595 6.07097 21.5042 5.9965 21.754 6.00011H24.053L19.539 14.2181C19.339 14.5561 19.112 14.8311 18.859 15.0441C18.6062 15.2543 18.3181 15.4178 18.008 15.5271C18.492 15.6521 18.897 15.8551 19.228 16.1401C19.554 16.4201 19.865 16.8161 20.154 17.3251L24.5 26.0001H21.97C21.459 26.0001 21.048 25.7251 20.738 25.1801L17.176 17.8291C16.992 17.5011 16.792 17.2681 16.576 17.1271C16.361 16.9871 16.087 16.9041 15.761 16.8831V20.6131H13.772V16.8671H12.31V26.0001H9.5V6.00011H12.31V14.7381H13.772V10.4161H15.761V14.7061H15.76Z" fill="white"/>
</g>
<defs>
<clipPath id="clip0_301_1362">
<rect width="32" height="32" fill="white"/>
</clipPath>
</defs>
</svg>
