<svg width="32" height="32" viewBox="0 0 32 32" fill="none" xmlns="http://www.w3.org/2000/svg">
<g clip-path="url(#clip0_301_1358)">
<path d="M16 32C24.8366 32 32 24.8366 32 16C32 7.16344 24.8366 0 16 0C7.16344 0 0 7.16344 0 16C0 24.8366 7.16344 32 16 32Z" fill="#006149"/>
<path d="M24.176 17.1842L23.379 16.9852L23.621 16.0152L26.106 16.6362L25.486 19.1212L24.515 18.8792L24.73 18.0172L15.858 23.5102L6.01904 18.5942V14.8422L16.243 8.44821L25.618 13.0212V14.5652L15.859 20.6282L8.61204 17.0352L9.05604 16.1392L15.805 19.4852L24.618 14.0092V13.6462L16.303 9.59021L7.02004 15.3962V17.9762L15.807 22.3662L24.176 17.1842Z" fill="white"/>
</g>
<defs>
<clipPath id="clip0_301_1358">
<rect width="32" height="32" fill="white"/>
</clipPath>
</defs>
</svg>
