<svg width="32" height="32" viewBox="0 0 32 32" fill="none" xmlns="http://www.w3.org/2000/svg">
<g clip-path="url(#clip0_301_1346)">
<path d="M16 32C24.8366 32 32 24.8366 32 16C32 7.16344 24.8366 0 16 0C7.16344 0 0 7.16344 0 16C0 24.8366 7.16344 32 16 32Z" fill="#11021E"/>
<path d="M10.929 14.3661H10.939L11.092 14.4241L11.255 14.4811L11.408 14.5391L11.571 14.6061L11.724 14.6641L11.887 14.7111L12.041 14.7691L12.194 14.8361L12.501 14.9511L12.664 14.9991L12.817 15.0661L12.98 15.1241L13.134 15.1811L13.297 15.2391L13.45 15.2961L13.613 15.3541L13.766 15.4111L13.929 15.4691L14.083 15.5361L14.246 15.5841V13.3501H10.708L10.555 13.4271L10.191 13.6191L9.817 13.8101L9.453 14.0021L9.088 14.1941L8.714 14.3861L8.341 14.5771L7.976 14.7691L7.612 14.9611L7.238 15.1521L6.874 15.3441L6.538 15.5261L6.5 21.0201L6.874 21.2791L7.238 21.5381L7.612 21.7871L8.341 22.3051L8.714 22.5631L8.877 22.6881L9.088 22.4291L9.453 21.9491L9.481 21.9021L9.453 21.8731L9.088 21.6141L8.714 21.3461L8.341 21.0871L7.976 20.8281L7.612 20.5701L7.507 20.5021L7.535 16.0641L7.612 16.0261L7.976 15.8441L8.341 15.6521L8.714 15.4791L9.088 15.2881L9.453 15.1051L9.817 14.9231L10.191 14.7411L10.555 14.5591L10.929 14.3661Z" fill="white"/>
<path d="M17.275 24.8529L16.958 24.9779L16.613 25.1119L16.268 25.2559L15.923 25.3899L15.77 25.4569L15.588 25.3619L15.242 25.1889L14.907 25.0159L14.562 24.8439L14.217 24.6709L13.872 24.4989L13.527 24.3259L13.181 24.1439L12.836 23.9809L12.501 23.7989L12.156 23.6259L11.82 23.4639L11.475 23.2809L11.437 23.2619V18.7859H10.44V23.8759L11.82 24.5659L12.156 24.7379L12.501 24.9209L12.836 25.0839L13.181 25.2659L13.527 25.4379L13.872 25.6009L14.217 25.7829L14.907 26.1279L15.242 26.3009L15.722 26.5409L15.923 26.4539L16.268 26.3199L16.613 26.1859L16.958 26.0419L17.303 25.8979L17.649 25.7739L17.303 24.9109L17.275 24.8529ZM23.4 18.6129L23.42 20.7309L23.324 20.7989L22.739 21.2109L22.164 21.6329L21.579 22.0449L20.994 22.4669L20.4 22.8689L19.825 23.2909L19.24 23.7129L18.895 23.9619L18.655 23.7699L18.08 23.3299L17.495 22.8789L16.91 22.4379L16.335 21.9879L16.23 21.9199V19.6399L16.335 19.5439L16.91 18.9299L17.495 18.3259L18.08 17.7129L18.655 17.1089L19.221 16.5149H12.252L12.836 17.1279L13.412 17.7319L14.006 18.3359L14.591 18.9489L15.166 19.5529L15.242 19.6399V22.3999L15.751 22.7929L16.335 23.2339L16.91 23.6849L17.495 24.1249L18.08 24.5759L18.655 25.0169L18.875 25.1899L19.24 24.9219L19.825 24.5089L20.4 24.0879L20.994 23.6749L21.579 23.2629L22.164 22.8509L22.739 22.4289L23.324 22.0169L23.908 21.6049L24.388 21.2499L24.483 18.6519L23.908 18.6329L23.4 18.6129ZM7.44904 13.7139H7.51604L7.52604 10.8959L7.90904 10.6559L8.36904 10.3789L8.83904 10.1009L9.28904 9.80287L9.75904 9.52487L10.219 9.23787L10.679 8.95987L11.139 8.68187L11.599 8.39387L12.069 8.11587L12.079 8.10587L12.52 8.36587L12.99 8.62387L13.91 9.16087L14.37 9.41987L14.84 9.67887L15.29 9.94687L15.741 10.1969L15.761 10.1579L16.221 9.33387L15.761 9.06487L15.291 8.80587L14.84 8.54787L14.37 8.28787L13.91 8.01087L13.45 7.75187L12.99 7.49287L12.52 7.23387L12.07 6.97487L12.05 6.96487L11.6 7.23487L11.14 7.52187L10.68 7.79987L10.22 8.08687L9.76004 8.36487L9.29004 8.64287L8.83904 8.93087L8.36904 9.20887L7.90904 9.49687L7.44904 9.78387L6.98904 10.0619L6.53904 10.3399L6.51904 13.7049H6.98904L7.44904 13.7139Z" fill="white"/>
<path d="M25.4701 11.126L25.2401 10.944L24.9921 10.743L24.7521 10.551L24.5121 10.359L24.2721 10.159L24.0321 9.976L23.7841 9.784L23.5441 9.583L23.2941 9.391L23.1221 9.247L23.0551 9.324L22.8151 9.621L22.5661 9.928L22.5091 10.014L22.5661 10.081L22.8161 10.283L23.0561 10.474L23.2951 10.685L23.5441 10.887L23.7841 11.087L24.0331 11.299L24.2731 11.5L24.3881 11.596L24.3981 16.13L24.2731 16.207L24.0331 16.37L23.7831 16.514L23.5441 16.677L23.2941 16.82L23.0551 16.983L22.8151 17.127L22.5661 17.29L22.3261 17.434L22.0861 17.597L21.8471 17.741L21.6071 17.904L21.3581 18.047L21.1181 18.21L20.8791 18.354L20.6391 18.517L20.3901 18.661L20.6401 19.044L20.8801 19.437L20.9271 19.504L21.1191 19.38L21.3591 19.226L21.6081 19.083L21.8481 18.929L22.0871 18.776L22.3271 18.623L22.5671 18.479L22.8151 18.325L23.0551 18.182L23.2951 18.028L23.5441 17.875L23.7841 17.721L24.0331 17.578L24.2731 17.424L24.5131 17.281L24.7521 17.127L24.9921 16.974L25.2411 16.82L25.4811 16.677L25.4701 11.126ZM17.5721 13.83V15.795L17.6491 15.765L17.9651 15.632L18.2911 15.507L18.6071 15.373L18.9331 15.248L19.2591 15.114L19.5751 14.98L19.9011 14.855L20.2271 14.721L20.5441 14.596L20.8691 14.462L21.1861 14.338V8.394L20.8221 8.174L20.4481 7.963L20.0831 7.743L19.7101 7.522L19.3361 7.311L18.9621 7.091L18.5981 6.87L18.2331 6.66L17.8591 6.439L17.4861 6.219L17.1121 6.007L16.7471 5.787L16.3831 5.567L16.0091 5.355L15.8181 5.25L15.6361 5.336L15.2621 5.547L14.8971 5.739L14.5331 5.94L14.1591 6.151L13.7851 6.343L13.4121 6.544L13.7851 6.764L14.1591 6.975L14.3891 7.11L14.5331 7.043L14.8971 6.841L15.2621 6.65L15.6361 6.458L15.7891 6.381L16.0091 6.506L16.3831 6.726L17.1121 7.148L17.8591 7.589L18.2331 7.799L18.9621 8.241L19.3361 8.451L20.0831 8.893L20.1981 8.95V13.331H17.5811" fill="white"/>
<path d="M17.572 15.795L21.186 14.338L17.562 13.331L17.572 15.795ZM14.246 15.795V13.369L10.938 14.357L14.246 15.785" fill="white"/>
</g>
<defs>
<clipPath id="clip0_301_1346">
<rect width="32" height="32" fill="white"/>
</clipPath>
</defs>
</svg>
