<svg width="32" height="32" viewBox="0 0 32 32" fill="none" xmlns="http://www.w3.org/2000/svg">
<g clip-path="url(#clip0_301_1343)">
<path d="M16 32C24.8366 32 32 24.8366 32 16C32 7.16344 24.8366 0 16 0C7.16344 0 0 7.16344 0 16C0 24.8366 7.16344 32 16 32Z" fill="white"/>
<path d="M16.0002 4.24727L13.8431 5.488L7.96672 8.88436L5.81836 10.1236V21.8764L7.974 23.1156L13.9056 26.5135L16.0613 27.7527L18.2184 26.5135L24.0365 23.1156L26.1922 21.8764V10.1236L24.0365 8.88436L18.1602 5.488L16.0002 4.24727ZM10.1238 19.3964V12.6036L16.0002 9.20727L21.8765 12.6036V19.3964L16.0002 22.7927L10.1238 19.3964Z" fill="#2A5ADA"/>
</g>
<defs>
<clipPath id="clip0_301_1343">
<rect width="32" height="32" fill="white"/>
</clipPath>
</defs>
</svg>
