<svg width="32" height="32" viewBox="0 0 32 32" fill="none" xmlns="http://www.w3.org/2000/svg">
<g clip-path="url(#clip0_301_1328)">
<path d="M16 32C24.8366 32 32 24.8366 32 16C32 7.16344 24.8366 0 16 0C7.16344 0 0 7.16344 0 16C0 24.8366 7.16344 32 16 32Z" fill="#48BEFF"/>
<path d="M22.194 26.239L5.80998 14.744C5.25169 14.3522 4.79595 13.8318 4.48133 13.2267C4.1667 12.6215 4.00244 11.9495 4.00244 11.2675C4.00244 10.5855 4.1667 9.91347 4.48133 9.30834C4.79595 8.70321 5.25169 8.18276 5.80998 7.791L9.77998 5L26.166 16.494C26.7243 16.8858 27.18 17.4062 27.4946 18.0113C27.8093 18.6165 27.9735 19.2885 27.9735 19.9705C27.9735 20.6525 27.8093 21.3245 27.4946 21.9297C27.18 22.5348 26.7243 23.0552 26.166 23.447L22.194 26.239ZM9.77598 6.863L6.68298 9.027C6.32319 9.27857 6.02941 9.61324 5.82656 10.0026C5.62371 10.3919 5.5178 10.8245 5.5178 11.2635C5.5178 11.7025 5.62371 12.1351 5.82656 12.5244C6.02941 12.9138 6.32319 13.2484 6.68298 13.5L22.197 24.377L25.291 22.213C25.6508 21.9614 25.9446 21.6268 26.1474 21.2374C26.3503 20.8481 26.4562 20.4155 26.4562 19.9765C26.4562 19.5375 26.3503 19.1049 26.1474 18.7156C25.9446 18.3262 25.6508 17.9916 25.291 17.74L9.77598 6.863Z" fill="white"/>
<path d="M9.76301 24.377L6.67301 22.21C6.31322 21.9584 6.01943 21.6238 5.81658 21.2344C5.61374 20.8451 5.50782 20.4125 5.50782 19.9735C5.50782 19.5345 5.61374 19.102 5.81658 18.7126C6.01943 18.3233 6.31322 17.9886 6.67301 17.737L14.673 12.154L13.353 11.226L5.80901 16.494C5.25071 16.8858 4.79497 17.4062 4.48035 18.0114C4.16572 18.6165 4.00146 19.2885 4.00146 19.9705C4.00146 20.6525 4.16572 21.3246 4.48035 21.9297C4.79497 22.5348 5.25071 23.0553 5.80901 23.447L9.76601 26.226L14.663 22.797L13.349 21.871L9.76301 24.377ZM26.17 7.79702L22.21 5.02002L17.31 8.44902L18.624 9.37402L22.204 6.86902L25.294 9.03602C25.6538 9.28759 25.9476 9.62226 26.1504 10.0116C26.3533 10.401 26.4592 10.8335 26.4592 11.2725C26.4592 11.7115 26.3533 12.1441 26.1504 12.5334C25.9476 12.9228 25.6538 13.2574 25.294 13.509L17.294 19.091L18.609 20.017L26.163 14.74C26.7213 14.3483 27.177 13.8278 27.4917 13.2227C27.8063 12.6176 27.9705 11.9455 27.9705 11.2635C27.9705 10.5815 27.8063 9.90948 27.4917 9.30436C27.177 8.69923 26.7213 8.17877 26.163 7.78702L26.171 7.79702H26.17Z" fill="white"/>
<path d="M6.74609 15.8288L12.9761 11.4668L13.8441 12.7068L7.61309 17.0688L6.74609 15.8288ZM24.4961 14.0708L21.4611 16.1958L22.3291 17.4368L25.4711 15.2328C25.1371 14.8508 24.8141 14.4608 24.4901 14.0698L24.4961 14.0708Z" fill="white"/>
</g>
<defs>
<clipPath id="clip0_301_1328">
<rect width="32" height="32" fill="white"/>
</clipPath>
</defs>
</svg>
