<svg width="32" height="32" viewBox="0 0 32 32" fill="none" xmlns="http://www.w3.org/2000/svg">
<g clip-path="url(#clip0_301_1316)">
<path d="M16 32C24.8366 32 32 24.8366 32 16C32 7.16344 24.8366 0 16 0C7.16344 0 0 7.16344 0 16C0 24.8366 7.16344 32 16 32Z" fill="#0D4EA0"/>
<path d="M14.2489 24.958C14.2349 24.972 14.2069 24.986 14.1929 25H12.6409C12.6129 25 12.5989 24.986 12.5849 24.972L8.0099 19.804C8.00323 19.7912 7.99976 19.7769 7.99976 19.7625C7.99976 19.7481 8.00323 19.7338 8.0099 19.721L13.7079 9.886C13.7359 9.845 13.8049 9.845 13.8329 9.886L15.4269 12.644C15.4409 12.658 15.4409 12.686 15.4269 12.714L11.5729 19.359C11.5589 19.386 11.5729 19.414 11.5869 19.442L13.8879 22.033C13.9033 22.0478 13.9228 22.0576 13.9439 22.061H16.6609C16.7309 22.061 16.7579 22.131 16.7159 22.172L14.2489 24.958ZM15.9389 6.042C15.9679 5.986 16.0369 5.986 16.0509 6.042L23.9939 19.692C24.0079 19.721 23.9939 19.749 23.9799 19.776L19.4059 24.944C19.3905 24.9588 19.371 24.9686 19.3499 24.972H15.6349C15.5649 24.972 15.5379 24.902 15.5799 24.861L18.0609 22.047L20.3899 19.428C20.4179 19.4 20.4179 19.372 20.4039 19.345L15.9949 11.739L14.3319 8.869C14.3179 8.856 14.3179 8.828 14.3319 8.799L15.9389 6.042Z" fill="white"/>
</g>
<defs>
<clipPath id="clip0_301_1316">
<rect width="32" height="32" fill="white"/>
</clipPath>
</defs>
</svg>
