<svg width="32" height="32" viewBox="0 0 32 32" fill="none" xmlns="http://www.w3.org/2000/svg">
<g clip-path="url(#clip0_301_1298)">
<path d="M16 32C24.8366 32 32 24.8366 32 16C32 7.16344 24.8366 0 16 0C7.16344 0 0 7.16344 0 16C0 24.8366 7.16344 32 16 32Z" fill="#172852"/>
<path d="M12.888 7.15046C14.7616 6.44966 16.8704 6.44806 18.7792 7.02406C21.264 7.79526 23.3616 9.67046 24.4576 12.0241C24.76 12.6945 25.0496 13.3937 25.0784 14.1393C23.6816 13.3297 22.1504 12.8049 20.616 12.3265C18.1616 11.4417 15.592 10.8273 13.2688 9.61126C12.728 9.28806 12.0384 8.95686 11.8912 8.28326C11.832 7.70086 12.448 7.37606 12.888 7.15046Z" fill="#FFD83D"/>
<path d="M7.23186 12.8145C7.77426 11.3425 8.66386 9.9761 9.87186 8.9633C10.1791 11.4897 11.2543 13.9313 13.0303 15.7681C15.1599 17.9809 18.1935 19.3393 21.2799 19.2881C22.5055 19.3265 23.7039 19.0433 24.8991 18.8145C23.7231 23.0641 19.0655 25.8849 14.7503 25.2065C12.1455 24.8737 9.74066 23.3313 8.28946 21.1537C6.65266 18.7473 6.23986 15.5521 7.23186 12.8145Z" fill="#FFD83D"/>
<path d="M20.6162 12.3264C22.1506 12.8048 23.6818 13.3296 25.0786 14.1392L25.173 14.1888C25.3026 15.1632 25.397 16.1568 25.2242 17.1328C24.5218 16.8352 23.9522 16.312 23.357 15.8496C22.2114 14.896 21.0418 13.8048 20.6162 12.3264Z" fill="#FF6F03"/>
</g>
<defs>
<clipPath id="clip0_301_1298">
<rect width="32" height="32" fill="white"/>
</clipPath>
</defs>
</svg>
