<svg width="32" height="32" viewBox="0 0 32 32" fill="none" xmlns="http://www.w3.org/2000/svg">
<g clip-path="url(#clip0_301_1291)">
<path d="M16 32C24.8366 32 32 24.8366 32 16C32 7.16344 24.8366 0 16 0C7.16344 0 0 7.16344 0 16C0 24.8366 7.16344 32 16 32Z" fill="#5592D7"/>
<path d="M20.246 12.667V25.64L9.29004 19.333C6.05004 17.436 6.25604 16.256 6.25604 13.693L17.519 20.205V14.256L20.245 12.666L20.246 12.667Z" fill="white"/>
<path opacity="0.6" d="M17.5198 20.205L6.25684 13.692L17.2108 7.38505C20.4508 5.53805 21.3768 6.30805 23.6398 7.59005L12.3768 14.103L17.5198 17.077V20.205Z" fill="white"/>
<path opacity="0.2" d="M12.377 14.1029L23.64 7.58987V20.2049C23.64 23.9489 22.509 24.3589 20.246 25.6409V12.6669L15.05 15.6399L12.376 14.1019L12.377 14.1029Z" fill="white"/>
</g>
<defs>
<clipPath id="clip0_301_1291">
<rect width="32" height="32" fill="white"/>
</clipPath>
</defs>
</svg>
