<svg width="32" height="32" viewBox="0 0 32 32" fill="none" xmlns="http://www.w3.org/2000/svg">
<g clip-path="url(#clip0_301_1283)">
<path d="M16 32C24.8367 32 32 24.8367 32 16C32 7.16333 24.8367 0 16 0C7.16333 0 0 7.16333 0 16C0 24.8367 7.16333 32 16 32Z" fill="#2B6DEF"/>
<path fill-rule="evenodd" clip-rule="evenodd" d="M22.6673 8L19.338 9.91967H19.3347V13.7593L19.323 13.761L9.33367 8L6.00167 9.92L6 9.91933V21.8567L9.33167 23.7777L9.33367 23.7623V23.7767L12.6667 21.8567V17.6033L15.9927 19.52L15.9947 19.524L15.9973 19.5223L19.3353 17.6117V21.8583L22.653 23.7703V23.7803L22.6613 23.7753L22.6673 23.7787L22.672 23.7693L25.9853 21.8603V9.93L26.0003 9.92133L22.6673 8Z" fill="white"/>
</g>
<defs>
<clipPath id="clip0_301_1283">
<rect width="32" height="32" fill="white"/>
</clipPath>
</defs>
</svg>
