<svg width="32" height="32" viewBox="0 0 32 32" fill="none" xmlns="http://www.w3.org/2000/svg">
<g clip-path="url(#clip0_301_1279)">
<path d="M16 32C24.8366 32 32 24.8366 32 16C32 7.16344 24.8366 0 16 0C7.16344 0 0 7.16344 0 16C0 24.8366 7.16344 32 16 32Z" fill="#033B4A"/>
<path d="M15.532 7.06408C16.089 6.90108 16.68 7.06708 17.161 7.35808C19.3061 8.5867 21.4608 9.7984 23.625 10.9931C24.458 11.4341 25.012 12.3391 25 13.2731C24.998 16.3671 24.99 19.4631 24.995 22.5571C25.029 22.7721 24.883 23.0171 24.639 22.9951C23.678 23.0011 22.717 22.9971 21.756 22.9961C21.546 23.0271 21.344 22.8511 21.366 22.6381C21.274 20.0031 21.309 17.3651 21.336 14.7281C21.336 14.3981 21.272 14.0501 21.059 13.7831C20.843 13.5001 20.502 13.3551 20.197 13.1871C19.697 12.9251 19.226 12.6081 18.708 12.3791C18.512 12.3011 18.257 12.2171 18.072 12.3661C17.867 12.5591 17.869 12.8641 17.848 13.1241C17.8102 14.4171 17.8065 15.7109 17.837 17.0041C17.836 17.3101 17.846 17.6661 17.612 17.9041C17.373 18.1381 17.012 18.1421 16.698 18.1471C16.13 18.1411 15.562 18.1621 14.996 18.1341C14.756 18.1081 14.468 18.0941 14.312 17.8841C14.172 17.6771 14.178 17.4161 14.166 17.1781C14.163 15.8191 14.18 14.4591 14.166 13.1011C14.152 12.8611 14.156 12.5911 13.986 12.4011C13.823 12.2331 13.563 12.2881 13.367 12.3591C12.942 12.5251 12.561 12.7791 12.158 12.9891C11.755 13.2211 11.322 13.4191 10.976 13.7351C10.751 13.9401 10.691 14.2521 10.684 14.5401C10.679 17.2101 10.687 19.8781 10.664 22.5481C10.687 22.7501 10.567 22.9961 10.331 22.9921C9.34102 23.0041 8.35102 22.9971 7.36102 22.9951C7.16302 23.0141 6.98102 22.8401 7.00102 22.6431C7.04102 19.3981 7.01602 16.1521 7.01902 12.9061C7.00972 12.5667 7.09412 12.2312 7.26294 11.9366C7.43176 11.6421 7.67848 11.3997 7.97602 11.2361C10.231 9.97208 12.49 8.71608 14.736 7.43708C14.99 7.29308 15.246 7.14208 15.532 7.06408Z" fill="white"/>
</g>
<defs>
<clipPath id="clip0_301_1279">
<rect width="32" height="32" fill="white"/>
</clipPath>
</defs>
</svg>
