<svg width="32" height="32" viewBox="0 0 32 32" fill="none" xmlns="http://www.w3.org/2000/svg">
<g clip-path="url(#clip0_301_1257)">
<path d="M16 32C24.8366 32 32 24.8366 32 16C32 7.16344 24.8366 0 16 0C7.16344 0 0 7.16344 0 16C0 24.8366 7.16344 32 16 32Z" fill="black"/>
<path d="M8.67285 22.0072L15.6289 26.3832H16.4709L23.3149 22.0072L22.2489 21.1662L16.0219 25.1492L9.57085 21.1662L8.67285 22.0072ZM12.0389 11.8542L15.9659 5.90721L20.0049 11.9102L20.9589 11.0682L16.4709 4.33721C16.4709 4.33721 16.0779 3.83221 15.4609 4.33721L10.8609 11.2372L12.0389 11.8542Z" fill="white" fill-opacity="0.703"/>
<path d="M16.078 23.8594C16.302 23.0734 16.583 22.3444 16.808 21.5594C17.818 18.4174 18.827 15.2194 19.837 12.0784C19.893 11.9104 19.949 11.6854 20.005 11.5184C20.117 11.1804 20.285 11.0124 20.622 11.0124C20.7683 11.0085 20.9112 11.0574 21.0244 11.1501C21.1377 11.2428 21.2139 11.3732 21.239 11.5174C21.519 12.6394 21.744 13.8174 22.024 14.9394C22.529 17.0714 22.978 19.2594 23.483 21.3904C23.595 21.8954 23.427 22.2324 23.034 22.3444C22.641 22.4564 22.361 22.1764 22.249 21.6714C21.688 19.2594 21.127 16.8464 20.622 14.3784C20.622 14.2664 20.566 14.2104 20.51 14.0414C20.4635 14.1948 20.407 14.3452 20.341 14.4914C19.276 17.7444 18.266 20.9984 17.2 24.2514C17.032 24.8684 16.807 25.4294 16.639 26.0464C16.527 26.4394 16.302 26.6074 15.966 26.6074C15.629 26.6074 15.405 26.4394 15.293 26.0474C14.059 22.1764 12.824 18.3054 11.646 14.4344C11.59 14.3224 11.59 14.2664 11.534 14.0414C11.434 14.5489 11.3219 15.0541 11.198 15.5564C10.748 17.5764 10.3 19.6514 9.85102 21.6714C9.73902 22.2314 9.29102 22.5124 8.84102 22.2314C8.56102 22.0634 8.50502 21.7834 8.56102 21.4464C9.17802 18.6414 9.85102 15.8364 10.468 13.0324C10.58 12.5824 10.693 12.1344 10.748 11.6854C10.861 11.2374 11.085 11.0124 11.422 11.0124C11.759 11.0124 11.982 11.2374 12.095 11.6854C13.385 15.7254 14.675 19.8204 15.91 23.8594H16.078Z" fill="white"/>
</g>
<defs>
<clipPath id="clip0_301_1257">
<rect width="32" height="32" fill="white"/>
</clipPath>
</defs>
</svg>
