<svg width="32" height="32" viewBox="0 0 32 32" fill="none" xmlns="http://www.w3.org/2000/svg">
<g clip-path="url(#clip0_301_1253)">
<path d="M16 32C24.8366 32 32 24.8366 32 16C32 7.16344 24.8366 0 16 0C7.16344 0 0 7.16344 0 16C0 24.8366 7.16344 32 16 32Z" fill="#DA1157"/>
<path d="M20.9848 19.1681C21.7873 19.1681 22.557 18.8493 23.1245 18.2818C23.692 17.7143 24.0108 16.9446 24.0108 16.1421C24.0108 15.3396 23.692 14.5699 23.1245 14.0024C22.557 13.4349 21.7873 13.1161 20.9848 13.1161C20.1822 13.1161 19.4125 13.4349 18.8451 14.0024C18.2776 14.5699 17.9588 15.3396 17.9588 16.1421C17.9588 16.9446 18.2776 17.7143 18.8451 18.2818C19.4125 18.8493 20.1822 19.1681 20.9848 19.1681ZM20.9848 9.1631C22.1371 9.16241 23.2717 9.44704 24.2873 9.99158C25.3029 10.5361 26.1678 11.3236 26.805 12.2838C27.4421 13.244 27.8316 14.347 27.9387 15.4944C28.0458 16.6418 27.8672 17.7978 27.4187 18.8593C26.9703 19.9209 26.266 20.8548 25.3688 21.5779C24.4715 22.301 23.4092 22.7907 22.2766 23.0033C21.144 23.2159 19.9764 23.1448 18.878 22.7963C17.7796 22.4478 16.7846 21.8327 15.9818 21.0061C17.2509 19.7053 17.9606 17.9595 17.9588 16.1421C17.9607 14.3247 17.251 12.5788 15.9818 11.2781C16.6312 10.6081 17.4088 10.0755 18.2683 9.71216C19.1278 9.34882 20.0516 9.16209 20.9848 9.1631ZM10.9798 19.1681C11.7823 19.1681 12.552 18.8493 13.1195 18.2818C13.687 17.7143 14.0058 16.9446 14.0058 16.1421C14.0058 15.3396 13.687 14.5699 13.1195 14.0024C12.552 13.4349 11.7823 13.1161 10.9798 13.1161C10.1772 13.1161 9.40755 13.4349 8.84006 14.0024C8.27258 14.5699 7.95377 15.3396 7.95377 16.1421C7.95377 16.9446 8.27258 17.7143 8.84006 18.2818C9.40755 18.8493 10.1772 19.1681 10.9798 19.1681ZM15.9828 11.2781C14.714 12.579 14.0047 14.3249 14.0068 16.1421C14.0068 18.0341 14.7608 19.7491 15.9828 21.0061C15.0148 22.0024 13.7716 22.6872 12.4122 22.9729C11.0528 23.2586 9.6391 23.1322 8.35197 22.6098C7.06483 22.0875 5.96281 21.193 5.18693 20.0408C4.41104 18.8887 3.99658 17.5312 3.99658 16.1421C3.99658 14.753 4.41104 13.3955 5.18693 12.2433C5.96281 11.0912 7.06483 10.1967 8.35197 9.67435C9.6391 9.15203 11.0528 9.02563 12.4122 9.31133C13.7716 9.59702 15.0148 10.2818 15.9828 11.2781ZM14.0058 16.1431C14.0058 18.0351 14.7598 19.7501 15.9828 21.0071C17.2517 19.7062 17.9609 17.9603 17.9588 16.1431C17.9609 14.3259 17.2517 12.58 15.9828 11.2791C14.7135 12.5798 14.0039 14.3257 14.0058 16.1431Z" fill="white"/>
</g>
<defs>
<clipPath id="clip0_301_1253">
<rect width="32" height="32" fill="white"/>
</clipPath>
</defs>
</svg>
