<svg width="32" height="32" viewBox="0 0 32 32" fill="none" xmlns="http://www.w3.org/2000/svg">
<g clip-path="url(#clip0_301_1249)">
<path d="M16 32C24.8366 32 32 24.8366 32 16C32 7.16344 24.8366 0 16 0C7.16344 0 0 7.16344 0 16C0 24.8366 7.16344 32 16 32Z" fill="#242424"/>
<path d="M22.2571 6.77C22.2571 7.471 21.6871 8.04 20.9831 8.04C20.8161 8.04026 20.6506 8.00762 20.4962 7.94394C20.3418 7.88026 20.2014 7.78679 20.0831 7.66885C19.9648 7.55092 19.8709 7.41085 19.8067 7.25662C19.7426 7.1024 19.7094 6.93704 19.7091 6.77C19.7091 6.068 20.2791 5.5 20.9831 5.5C21.6871 5.5 22.2571 6.068 22.2571 6.77ZM21.3391 11.194C20.7431 11.194 20.2591 10.712 20.2591 10.118C20.2591 9.524 20.7431 9.043 21.3391 9.043C21.9351 9.043 22.4181 9.524 22.4181 10.118C22.4181 10.712 21.9351 11.194 21.3381 11.194H21.3391ZM21.0041 13.847C20.8845 13.8473 20.7659 13.8239 20.6553 13.7783C20.5447 13.7327 20.4441 13.6657 20.3594 13.5812C20.2747 13.4966 20.2075 13.3962 20.1616 13.2857C20.1158 13.1752 20.0921 13.0567 20.0921 12.937C20.0923 12.8174 20.116 12.699 20.1619 12.5886C20.2078 12.4782 20.275 12.3779 20.3597 12.2935C20.4444 12.209 20.545 12.1422 20.6555 12.0966C20.7661 12.051 20.8846 12.0277 21.0041 12.028C21.1238 12.0277 21.2424 12.0511 21.353 12.0967C21.4636 12.1423 21.5642 12.2093 21.6489 12.2938C21.7336 12.3784 21.8008 12.4788 21.8467 12.5893C21.8925 12.6998 21.9161 12.8183 21.9161 12.938C21.916 13.0576 21.8923 13.176 21.8464 13.2864C21.8005 13.3968 21.7333 13.4971 21.6486 13.5815C21.5639 13.6659 21.4633 13.7328 21.3528 13.7784C21.2422 13.824 21.1237 13.8473 21.0041 13.847ZM20.9501 15.219C20.9501 15.4259 20.868 15.6243 20.7217 15.7705C20.5754 15.9168 20.377 15.999 20.1701 15.999C19.9633 15.999 19.7649 15.9168 19.6186 15.7705C19.4723 15.6243 19.3901 15.4259 19.3901 15.219C19.3901 15.0121 19.4723 14.8137 19.6186 14.6675C19.7649 14.5212 19.9633 14.439 20.1701 14.439C20.377 14.439 20.5754 14.5212 20.7217 14.6675C20.868 14.8137 20.9501 15.0121 20.9501 15.219ZM19.7161 16.943C19.7161 17.313 19.4161 17.61 19.0471 17.61C18.9151 17.6096 18.7861 17.5701 18.6765 17.4964C18.5669 17.4227 18.4816 17.3182 18.4313 17.196C18.3811 17.0739 18.3682 16.9396 18.3943 16.8101C18.4204 16.6806 18.4843 16.5618 18.5779 16.4686C18.6715 16.3754 18.7906 16.3121 18.9202 16.2866C19.0498 16.2611 19.184 16.2746 19.3059 16.3253C19.4279 16.3761 19.532 16.4619 19.6052 16.5718C19.6784 16.6818 19.7173 16.8109 19.7171 16.943H19.7161ZM18.3661 18.166C18.3661 18.3182 18.3057 18.4642 18.198 18.5719C18.0904 18.6795 17.9444 18.74 17.7921 18.74C17.6399 18.74 17.4939 18.6795 17.3863 18.5719C17.2786 18.4642 17.2181 18.3182 17.2181 18.166C17.2181 18.0138 17.2786 17.8678 17.3863 17.7601C17.4939 17.6525 17.6399 17.592 17.7921 17.592C17.9444 17.592 18.0904 17.6525 18.198 17.7601C18.3057 17.8678 18.3661 18.0138 18.3661 18.166ZM25.2401 10.757C25.1661 11.0273 24.9903 11.2584 24.7496 11.4018C24.5088 11.5453 24.2219 11.5899 23.949 11.5264C23.676 11.4629 23.4383 11.2962 23.2856 11.0612C23.133 10.8262 23.0772 10.5412 23.1301 10.266C23.1953 9.9862 23.3689 9.74372 23.6127 9.59191C23.8566 9.4401 24.1508 9.39139 24.4306 9.4565C24.7105 9.52161 24.9529 9.69521 25.1047 9.9391C25.2566 10.183 25.3053 10.4772 25.2401 10.757ZM24.7221 13.56C24.6668 13.7968 24.5197 14.002 24.3132 14.1304C24.1066 14.2587 23.8575 14.2998 23.6206 14.2445C23.3838 14.1892 23.1786 14.0421 23.0503 13.8355C22.9219 13.6289 22.8808 13.3798 22.9361 13.143C22.9914 12.9062 23.1386 12.701 23.3451 12.5726C23.5517 12.4443 23.8008 12.4032 24.0376 12.4585C24.2745 12.5138 24.4797 12.6609 24.608 12.8675C24.7364 13.0741 24.7774 13.3232 24.7221 13.56ZM23.7581 15.797C23.7115 15.9972 23.5872 16.1707 23.4126 16.2793C23.238 16.3879 23.0274 16.4227 22.8271 16.376C22.6269 16.3293 22.4534 16.205 22.3448 16.0304C22.2362 15.8558 22.2015 15.6452 22.2481 15.445C22.3021 15.2525 22.4282 15.0883 22.6002 14.9865C22.7722 14.8848 22.9769 14.8533 23.1715 14.8986C23.3662 14.944 23.5358 15.0628 23.6451 15.2301C23.7544 15.3975 23.7949 15.6005 23.7581 15.797ZM22.5161 17.5C22.4695 17.6637 22.3617 17.8033 22.2151 17.8897C22.0684 17.9762 21.8941 18.0029 21.7283 17.9643C21.5625 17.9257 21.4178 17.8249 21.3244 17.6826C21.2309 17.5403 21.1957 17.3675 21.2261 17.2C21.2459 17.1154 21.2822 17.0355 21.3328 16.9649C21.3835 16.8944 21.4476 16.8345 21.5214 16.7887C21.5953 16.7429 21.6774 16.7121 21.7632 16.6981C21.8489 16.6841 21.9366 16.6871 22.0211 16.707C22.1058 16.7264 22.1858 16.7624 22.2565 16.8128C22.3272 16.8632 22.3873 16.9271 22.4332 17.0008C22.4792 17.0744 22.5102 17.1564 22.5244 17.2421C22.5387 17.3278 22.5359 17.4154 22.5161 17.5ZM21.1591 18.689C21.1421 18.7618 21.1108 18.8304 21.0672 18.8911C21.0236 18.9518 20.9685 19.0033 20.905 19.0427C20.8414 19.082 20.7708 19.1085 20.6971 19.1206C20.6233 19.1326 20.5479 19.1301 20.4751 19.113C20.4024 19.0959 20.3337 19.0647 20.273 19.0211C20.2124 18.9775 20.1609 18.9223 20.1215 18.8588C20.0821 18.7953 20.0556 18.7246 20.0436 18.6509C20.0315 18.5772 20.0341 18.5018 20.0511 18.429C20.0856 18.2821 20.1771 18.1549 20.3053 18.0753C20.4336 17.9958 20.5882 17.9705 20.7351 18.005C20.8821 18.0395 21.0093 18.1309 21.0888 18.2592C21.1683 18.3875 21.1936 18.5421 21.1591 18.689ZM19.8041 19.44C19.7675 19.5584 19.6874 19.6586 19.5799 19.7202C19.4724 19.7819 19.3455 19.8006 19.2247 19.7724C19.104 19.7443 18.9985 19.6714 18.9293 19.5685C18.8602 19.4657 18.8326 19.3404 18.8521 19.218C18.8888 19.0996 18.9689 18.9994 19.0764 18.9378C19.1839 18.8761 19.3108 18.8574 19.4316 18.8856C19.5523 18.9137 19.6578 18.9866 19.727 19.0895C19.7961 19.1923 19.8237 19.3176 19.8041 19.44ZM26.9081 14.584C26.8012 14.8038 26.6114 14.9722 26.3804 15.0523C26.1495 15.1323 25.8962 15.1175 25.6761 15.011C25.5671 14.9587 25.4694 14.8854 25.3887 14.7952C25.3081 14.7051 25.2461 14.5998 25.2063 14.4856C25.1666 14.3713 25.1498 14.2504 25.1569 14.1296C25.1641 14.0089 25.1951 13.8907 25.2481 13.782C25.3551 13.5625 25.5447 13.3942 25.7754 13.3142C26.0062 13.2342 26.2592 13.2488 26.4791 13.355C26.5881 13.4075 26.6855 13.4809 26.7661 13.5711C26.8466 13.6613 26.9085 13.7664 26.9484 13.8806C26.9882 13.9947 27.0052 14.1156 26.9983 14.2363C26.9914 14.357 26.9607 14.4751 26.9081 14.584ZM25.9471 16.799C25.8515 16.9773 25.6907 17.1118 25.4983 17.1745C25.3059 17.2371 25.0968 17.2231 24.9145 17.1352C24.7322 17.0474 24.5909 16.8925 24.52 16.703C24.4492 16.5135 24.4542 16.3039 24.5341 16.118C24.6256 15.9314 24.787 15.7885 24.9832 15.7203C25.1795 15.6522 25.3948 15.6643 25.5821 15.754C25.675 15.7984 25.7581 15.8607 25.8268 15.9373C25.8954 16.0139 25.9482 16.1034 25.9821 16.2005C26.0161 16.2977 26.0304 16.4006 26.0244 16.5033C26.0184 16.606 25.9922 16.7065 25.9471 16.799ZM24.7391 18.479C24.6602 18.6404 24.5207 18.764 24.3509 18.8229C24.1812 18.8817 23.995 18.871 23.8331 18.793C23.7532 18.7545 23.6816 18.7006 23.6225 18.6344C23.5634 18.5682 23.518 18.491 23.4888 18.4072C23.4596 18.3234 23.4473 18.2347 23.4525 18.1461C23.4577 18.0575 23.4804 17.9708 23.5191 17.891C23.6018 17.737 23.7408 17.621 23.907 17.567C24.0732 17.513 24.2538 17.5253 24.4112 17.6012C24.5686 17.6772 24.6906 17.811 24.7517 17.9748C24.8128 18.1385 24.8083 18.3195 24.7391 18.48V18.479ZM23.3931 19.667C23.3246 19.8067 23.2037 19.9136 23.0566 19.9646C22.9096 20.0155 22.7484 20.0063 22.6081 19.939C22.5367 19.9067 22.4724 19.8604 22.4192 19.8029C22.3659 19.7453 22.3247 19.6777 22.298 19.604C22.2713 19.5302 22.2597 19.4519 22.2637 19.3736C22.2678 19.2953 22.2875 19.2186 22.3218 19.148C22.356 19.0775 22.404 19.0145 22.4629 18.9628C22.5219 18.9111 22.5906 18.8717 22.665 18.847C22.7394 18.8223 22.8181 18.8128 22.8962 18.8189C22.9744 18.8251 23.0505 18.8469 23.1201 18.883C23.1896 18.9165 23.2517 18.9634 23.303 19.021C23.3542 19.0786 23.3937 19.1457 23.419 19.2185C23.4444 19.2913 23.4551 19.3683 23.4507 19.4453C23.4463 19.5223 23.4267 19.5976 23.3931 19.667ZM22.0381 20.399C21.9767 20.513 21.8736 20.5988 21.7504 20.6387C21.6272 20.6786 21.4934 20.6694 21.3768 20.6131C21.2601 20.5568 21.1697 20.4577 21.1244 20.3364C21.079 20.2151 21.0821 20.081 21.1331 19.962C21.197 19.8523 21.2999 19.7708 21.4213 19.7336C21.5427 19.6965 21.6736 19.7065 21.7879 19.7617C21.9022 19.8169 21.9914 19.9132 22.0378 20.0313C22.0842 20.1495 22.0843 20.2808 22.0381 20.399ZM20.7651 20.768C20.7155 20.8696 20.6278 20.9474 20.521 20.9845C20.4142 21.0216 20.297 21.015 20.1951 20.966C20.1449 20.9416 20.0999 20.9075 20.0627 20.8657C20.0256 20.8239 19.9971 20.7751 19.9788 20.7223C19.9605 20.6695 19.9528 20.6135 19.9561 20.5577C19.9594 20.5019 19.9737 20.4473 19.9981 20.397C20.0226 20.3467 20.0567 20.3017 20.0985 20.2646C20.1403 20.2275 20.189 20.1989 20.2418 20.1807C20.2947 20.1624 20.3506 20.1547 20.4064 20.158C20.4622 20.1613 20.5169 20.1756 20.5671 20.2C20.6175 20.2243 20.6625 20.2582 20.6997 20.2999C20.7369 20.3416 20.7655 20.3902 20.7839 20.4429C20.8023 20.4957 20.8101 20.5516 20.8069 20.6073C20.8037 20.6631 20.7895 20.7177 20.7651 20.768ZM21.8011 25.624C21.6563 25.5412 21.5292 25.4305 21.4272 25.2984C21.3252 25.1663 21.2503 25.0154 21.2068 24.8542C21.1633 24.6931 21.1521 24.525 21.1738 24.3595C21.1955 24.194 21.2496 24.0345 21.3331 23.89C21.5027 23.5981 21.7809 23.3853 22.107 23.2979C22.433 23.2106 22.7804 23.2559 23.0731 23.424C23.6831 23.774 23.8931 24.551 23.5421 25.158C23.3728 25.4501 23.0946 25.6631 22.7684 25.7505C22.4423 25.8378 22.0948 25.7923 21.8021 25.624H21.8011ZM18.8111 24.092C18.6884 24.0219 18.5808 23.9283 18.4944 23.8164C18.4081 23.7046 18.3447 23.5768 18.3079 23.4404C18.2711 23.3039 18.2616 23.1616 18.28 23.0215C18.2984 22.8814 18.3443 22.7463 18.4151 22.624C18.5586 22.3768 18.7941 22.1965 19.0701 22.1225C19.3462 22.0485 19.6403 22.0868 19.8881 22.229C20.4041 22.525 20.5811 23.183 20.2841 23.697C20.1409 23.9444 19.9054 24.1249 19.6293 24.1989C19.3532 24.273 19.059 24.2345 18.8111 24.092ZM16.6091 22.252C16.5053 22.1926 16.4142 22.1133 16.3412 22.0186C16.2681 21.9239 16.2144 21.8156 16.1833 21.7001C16.1522 21.5846 16.1442 21.4641 16.1598 21.3455C16.1753 21.2269 16.2142 21.1125 16.2741 21.009C16.3956 20.8 16.5949 20.6477 16.8284 20.5853C17.0619 20.5228 17.3106 20.5555 17.5201 20.676C17.6237 20.7353 17.7145 20.8145 17.7874 20.9089C17.8603 21.0034 17.9138 21.1113 17.945 21.2265C17.9761 21.3417 17.9842 21.4619 17.9688 21.5802C17.9533 21.6985 17.9147 21.8126 17.8551 21.916C17.7344 22.1257 17.5353 22.2789 17.3017 22.3419C17.0681 22.4049 16.819 22.3725 16.6091 22.252ZM15.1081 20.278C15.0198 20.2268 14.9423 20.1588 14.8803 20.0777C14.8182 19.9966 14.7727 19.9041 14.7463 19.8055C14.72 19.7068 14.7134 19.6039 14.7268 19.5027C14.7403 19.4015 14.7735 19.3039 14.8246 19.2155C14.8758 19.1271 14.9439 19.0497 15.0249 18.9876C15.106 18.9255 15.1985 18.88 15.2972 18.8537C15.3958 18.8274 15.4987 18.8207 15.6 18.8342C15.7012 18.8476 15.7988 18.8808 15.8871 18.932C16.2591 19.146 16.3871 19.621 16.1721 19.992C16.0688 20.1708 15.8987 20.3014 15.6993 20.355C15.4998 20.4086 15.2872 20.3809 15.1081 20.278ZM14.2251 18.352C14.1491 18.3085 14.0823 18.2503 14.0287 18.1809C13.9752 18.1115 13.9358 18.0322 13.913 17.9476C13.8901 17.8629 13.8842 17.7746 13.8956 17.6877C13.9069 17.6008 13.9353 17.5169 13.9791 17.441C14.0682 17.2874 14.2145 17.1754 14.386 17.1295C14.5575 17.0836 14.7402 17.1075 14.8941 17.196C15.2141 17.38 15.3241 17.788 15.1401 18.106C15.0514 18.26 14.9052 18.3724 14.7336 18.4185C14.562 18.4646 14.3791 18.4407 14.2251 18.352ZM13.8361 16.575C13.7708 16.5375 13.7136 16.4875 13.6676 16.4278C13.6217 16.3681 13.588 16.2999 13.5685 16.2271C13.549 16.1544 13.544 16.0785 13.5539 16.0038C13.5638 15.9291 13.5884 15.8572 13.6261 15.792C13.7027 15.6606 13.828 15.5648 13.9749 15.5255C14.1217 15.4861 14.2782 15.5064 14.4101 15.582C14.4753 15.6197 14.5325 15.6699 14.5783 15.7296C14.6241 15.7894 14.6577 15.8576 14.6772 15.9304C14.6966 16.0031 14.7016 16.079 14.6917 16.1537C14.6818 16.2283 14.6573 16.3003 14.6196 16.3655C14.582 16.4307 14.5318 16.4878 14.472 16.5337C14.4123 16.5795 14.344 16.6131 14.2713 16.6325C14.1985 16.652 14.1227 16.6569 14.048 16.647C13.9733 16.6372 13.9014 16.6127 13.8361 16.575ZM17.5861 26.501C17.4441 26.5013 17.3034 26.4735 17.1721 26.4194C17.0408 26.3652 16.9214 26.2857 16.8208 26.1854C16.7202 26.0851 16.6404 25.966 16.5859 25.8348C16.5314 25.7037 16.5033 25.563 16.5031 25.421C16.5033 25.279 16.5314 25.1384 16.5859 25.0073C16.6405 24.8762 16.7203 24.7571 16.8209 24.6569C16.9215 24.5567 17.0408 24.4773 17.1722 24.4233C17.3035 24.3692 17.4442 24.3416 17.5861 24.342C18.1841 24.342 18.6691 24.825 18.6691 25.422C18.6691 26.018 18.1841 26.501 17.5861 26.501ZM14.6681 24.363C14.5802 24.2811 14.5094 24.1827 14.4596 24.0734C14.4099 23.9641 14.3822 23.846 14.3782 23.7259C14.3742 23.6059 14.394 23.4862 14.4363 23.3738C14.4787 23.2614 14.5429 23.1585 14.6251 23.071C14.7919 22.894 15.0219 22.7902 15.265 22.7824C15.508 22.7745 15.7443 22.8632 15.9221 23.029C16.2921 23.374 16.3101 23.952 15.9641 24.321C15.7974 24.4977 15.5676 24.6013 15.3248 24.6091C15.082 24.617 14.846 24.5285 14.6681 24.363ZM13.2031 22.415C13.1289 22.3456 13.0691 22.2623 13.0272 22.1697C12.9853 22.0772 12.962 21.9773 12.9588 21.8758C12.9555 21.7742 12.9723 21.673 13.0083 21.578C13.0442 21.483 13.0985 21.396 13.1681 21.322C13.3089 21.1723 13.5033 21.0844 13.7087 21.0777C13.9141 21.0709 14.1138 21.1458 14.2641 21.286C14.3387 21.3552 14.3987 21.4384 14.4409 21.5309C14.4831 21.6234 14.5065 21.7234 14.5099 21.825C14.5132 21.9266 14.4964 22.0279 14.4604 22.123C14.4244 22.2181 14.37 22.3051 14.3001 22.379C14.1592 22.5288 13.9647 22.6167 13.7591 22.6234C13.5535 22.6302 13.3536 22.5552 13.2031 22.415ZM12.3441 20.491C12.2807 20.4319 12.2295 20.3607 12.1936 20.2818C12.1578 20.2028 12.1378 20.1175 12.1351 20.0307C12.1323 19.944 12.1467 19.8576 12.1774 19.7765C12.2081 19.6954 12.2546 19.6211 12.3141 19.558C12.4344 19.4302 12.6004 19.3552 12.7758 19.3494C12.9511 19.3436 13.1217 19.4074 13.2501 19.527C13.3136 19.5862 13.3648 19.6574 13.4007 19.7364C13.4366 19.8155 13.4565 19.9008 13.4594 19.9876C13.4623 20.0743 13.448 20.1608 13.4174 20.242C13.3869 20.3233 13.3405 20.3977 13.2811 20.461C13.1607 20.589 12.9945 20.664 12.8188 20.6696C12.6432 20.6752 12.4725 20.611 12.3441 20.491ZM11.9881 18.727C11.9338 18.6762 11.8899 18.6151 11.8592 18.5473C11.8285 18.4795 11.8114 18.4063 11.809 18.3319C11.8066 18.2575 11.8188 18.1833 11.8451 18.1137C11.8714 18.044 11.9112 17.9803 11.9621 17.926C12.0654 17.8158 12.2081 17.751 12.3591 17.746C12.51 17.7409 12.6568 17.7959 12.7671 17.899C12.9971 18.113 13.0071 18.472 12.7931 18.701C12.6898 18.8111 12.547 18.8756 12.396 18.8805C12.2451 18.8854 12.0984 18.8302 11.9881 18.727ZM12.0121 17.181C11.9653 17.1375 11.9274 17.0851 11.9009 17.0269C11.8743 16.9686 11.8596 16.9057 11.8574 16.8418C11.8553 16.7778 11.8658 16.7141 11.8884 16.6542C11.911 16.5944 11.9453 16.5396 11.9891 16.493C12.078 16.3987 12.2006 16.3435 12.3301 16.3394C12.4596 16.3352 12.5855 16.3826 12.6801 16.471C12.7626 16.5621 12.8077 16.681 12.8065 16.8039C12.8054 16.9267 12.7579 17.0447 12.6737 17.1342C12.5895 17.2237 12.4747 17.2782 12.3521 17.2869C12.2295 17.2956 12.1081 17.2578 12.0121 17.181ZM12.6871 25.741C12.6192 25.6412 12.5715 25.5289 12.547 25.4107C12.5224 25.2924 12.5215 25.1705 12.5441 25.0519C12.5668 24.9332 12.6127 24.8202 12.6791 24.7194C12.7455 24.6185 12.8311 24.5317 12.9311 24.464C13.1335 24.3266 13.3821 24.275 13.6224 24.3205C13.8627 24.3661 14.0751 24.5051 14.2131 24.707C14.2812 24.8067 14.329 24.9189 14.3536 25.0371C14.3782 25.1553 14.3792 25.2772 14.3565 25.3957C14.3338 25.5143 14.2879 25.6273 14.2214 25.728C14.155 25.8288 14.0692 25.9155 13.9691 25.983C13.7669 26.1203 13.5184 26.1719 13.2782 26.1265C13.038 26.0812 12.8255 25.9426 12.6871 25.741ZM11.2411 23.805C11.183 23.7201 11.1423 23.6246 11.1213 23.524C11.1002 23.4233 11.0993 23.3195 11.1185 23.2184C11.1378 23.1174 11.1768 23.0212 11.2334 22.9353C11.2899 22.8494 11.3629 22.7756 11.4481 22.718C11.6202 22.6015 11.8314 22.5577 12.0356 22.5963C12.2398 22.6349 12.4205 22.7527 12.5381 22.924C12.5962 23.0089 12.637 23.1044 12.658 23.205C12.6791 23.3057 12.68 23.4095 12.6608 23.5106C12.6415 23.6116 12.6025 23.7078 12.5459 23.7937C12.4894 23.8796 12.4164 23.9534 12.3311 24.011C12.1592 24.1278 11.9479 24.1717 11.7436 24.1331C11.5393 24.0945 11.3587 23.9765 11.2411 23.805ZM10.3831 21.922C10.3332 21.8487 10.2981 21.7663 10.2801 21.6794C10.262 21.5926 10.2612 21.503 10.2779 21.4158C10.2945 21.3287 10.3282 21.2457 10.377 21.1716C10.4257 21.0975 10.4887 21.0337 10.5621 20.984C10.7108 20.8832 10.8934 20.8454 11.0699 20.8788C11.2463 20.9121 11.4025 21.0139 11.5041 21.162C11.5544 21.2354 11.5896 21.3181 11.6078 21.4052C11.626 21.4923 11.6267 21.5821 11.61 21.6695C11.5932 21.7569 11.5594 21.8401 11.5103 21.9143C11.4612 21.9886 11.398 22.0523 11.3241 22.102C11.1753 22.2022 10.9928 22.2396 10.8166 22.2059C10.6403 22.1721 10.4845 22.0701 10.3831 21.922ZM10.0231 20.168C9.97973 20.1043 9.9493 20.0327 9.93359 19.9573C9.91788 19.8819 9.9172 19.8041 9.9316 19.7283C9.946 19.6526 9.97519 19.5805 10.0175 19.5161C10.0598 19.4517 10.1144 19.3963 10.1781 19.353C10.3073 19.2654 10.4658 19.2326 10.6192 19.2616C10.7725 19.2907 10.908 19.3793 10.9961 19.508C11.0398 19.5716 11.0704 19.6433 11.0861 19.7188C11.1019 19.7943 11.1026 19.8722 11.0881 19.948C11.0736 20.0238 11.0442 20.096 11.0016 20.1603C10.9591 20.2247 10.9042 20.28 10.8401 20.323C10.7111 20.4103 10.5528 20.4429 10.3997 20.4139C10.2466 20.3849 10.1113 20.2965 10.0231 20.168ZM10.0631 18.632C10.026 18.5777 9.99994 18.5165 9.98646 18.4521C9.97299 18.3877 9.97236 18.3213 9.98463 18.2566C9.99689 18.1919 10.0218 18.1303 10.0579 18.0753C10.0941 18.0203 10.1407 17.973 10.1951 17.936C10.3054 17.8611 10.4409 17.8329 10.5719 17.8576C10.7029 17.8824 10.8188 17.958 10.8941 18.068C10.96 18.1782 10.9812 18.3094 10.9534 18.4347C10.9257 18.5601 10.851 18.6701 10.7448 18.7421C10.6386 18.8142 10.5088 18.843 10.3821 18.8225C10.2554 18.802 10.1413 18.7339 10.0631 18.632ZM10.3771 17.349C10.3439 17.3027 10.3203 17.2502 10.3076 17.1946C10.295 17.1391 10.2936 17.0815 10.3035 17.0254C10.3135 16.9693 10.3346 16.9157 10.3656 16.8679C10.3965 16.82 10.4368 16.7789 10.4839 16.7468C10.531 16.7148 10.5841 16.6925 10.64 16.6813C10.6959 16.6701 10.7534 16.6702 10.8093 16.6815C10.8651 16.6929 10.9181 16.7154 10.9652 16.7476C11.0122 16.7798 11.0523 16.8211 11.0831 16.869C11.1434 16.9627 11.1646 17.0761 11.1424 17.1852C11.1201 17.2944 11.0562 17.3904 10.9641 17.4531C10.872 17.5157 10.7591 17.5398 10.6494 17.5204C10.5398 17.5009 10.4421 17.4394 10.3771 17.349ZM5.63715 15.807C5.92982 15.6387 6.27728 15.5932 6.60342 15.6805C6.92955 15.7679 7.20778 15.9809 7.37715 16.273C7.46058 16.4175 7.51469 16.577 7.53637 16.7424C7.55805 16.9078 7.54688 17.0758 7.5035 17.2369C7.46012 17.398 7.38537 17.5489 7.28356 17.6811C7.18174 17.8132 7.05484 17.924 6.91015 18.007C6.30015 18.357 5.52215 18.148 5.17115 17.542C5.08752 17.3976 5.03323 17.238 5.01139 17.0726C4.98955 16.9071 5.0006 16.7389 5.04389 16.5777C5.08718 16.4165 5.16188 16.2655 5.26368 16.1332C5.36549 16.001 5.4924 15.8901 5.63715 15.807ZM8.46715 13.997C8.71481 13.854 9.00907 13.8151 9.2854 13.8888C9.56173 13.9624 9.79755 14.1427 9.94115 14.39C10.2381 14.905 10.0611 15.562 9.54515 15.859C9.29733 16.0011 9.0034 16.0394 8.72745 15.9656C8.45151 15.8917 8.21595 15.7118 8.07215 15.465C8.00128 15.3427 7.95527 15.2076 7.93677 15.0675C7.91827 14.9273 7.92764 14.7849 7.96435 14.6484C8.00105 14.5119 8.06437 14.384 8.15065 14.272C8.23694 14.1601 8.3445 14.0663 8.46715 13.996V13.997ZM11.1681 13.02C11.3777 12.8997 11.6264 12.8673 11.8598 12.9296C12.0932 12.992 12.2925 13.1442 12.4141 13.353C12.4738 13.4565 12.5126 13.5708 12.5281 13.6893C12.5436 13.8079 12.5356 13.9283 12.5046 14.0437C12.4736 14.1591 12.4202 14.2673 12.3473 14.3621C12.2745 14.4568 12.1837 14.5363 12.0801 14.596C11.8705 14.7162 11.6217 14.7485 11.3883 14.6859C11.1548 14.6233 10.9556 14.4709 10.8341 14.262C10.7743 14.1586 10.7355 14.0443 10.7199 13.9259C10.7044 13.8074 10.7123 13.6871 10.7433 13.5717C10.7744 13.4563 10.8279 13.3482 10.9008 13.2535C10.9737 13.1588 11.0645 13.0795 11.1681 13.02ZM13.6351 12.714C13.8141 12.611 14.0266 12.5832 14.2261 12.6366C14.4255 12.69 14.5956 12.8203 14.6991 12.999C14.7502 13.0873 14.7833 13.1848 14.7966 13.2859C14.8099 13.387 14.8031 13.4897 14.7766 13.5882C14.7502 13.6866 14.7045 13.7789 14.6423 13.8597C14.5801 13.9405 14.5026 14.0082 14.4141 14.059C14.3254 14.1103 14.2275 14.1436 14.1259 14.1571C14.0243 14.1705 13.9211 14.1638 13.8221 14.1374C13.7231 14.1109 13.6303 14.0652 13.549 14.0028C13.4676 13.9405 13.3994 13.8627 13.3481 13.774C13.2972 13.6856 13.2642 13.588 13.251 13.4868C13.2379 13.3857 13.2448 13.2829 13.2715 13.1844C13.2982 13.0859 13.344 12.9937 13.4064 12.9129C13.4688 12.8322 13.5466 12.7646 13.6351 12.714ZM15.7491 12.918C15.9029 12.8295 16.0855 12.8056 16.2568 12.8516C16.4281 12.8975 16.5743 13.0095 16.6631 13.163C16.7406 13.316 16.7564 13.4929 16.7073 13.6573C16.6582 13.8216 16.548 13.9608 16.3993 14.0463C16.2506 14.1318 16.0748 14.1571 15.9081 14.1168C15.7414 14.0766 15.5964 13.9739 15.5031 13.83C15.4592 13.754 15.4306 13.6701 15.4192 13.5831C15.4077 13.496 15.4136 13.4076 15.4365 13.3228C15.4594 13.2381 15.4987 13.1587 15.5524 13.0892C15.6061 13.0197 15.6729 12.9615 15.7491 12.918ZM17.4871 13.472C17.6192 13.3964 17.7759 13.376 17.9229 13.4154C18.0699 13.4547 18.1954 13.5505 18.2721 13.682C18.3101 13.7471 18.3347 13.8191 18.3447 13.8938C18.3547 13.9685 18.3497 14.0444 18.3302 14.1172C18.3107 14.19 18.277 14.2582 18.2309 14.3179C18.1849 14.3776 18.1276 14.4276 18.0621 14.465C17.9969 14.5028 17.9249 14.5273 17.8503 14.5372C17.7756 14.5472 17.6997 14.5423 17.6269 14.5229C17.5541 14.5035 17.4858 14.4699 17.426 14.4241C17.3661 14.3783 17.3159 14.3212 17.2781 14.256C17.2404 14.1908 17.2158 14.1188 17.2059 14.0441C17.196 13.9694 17.2009 13.8935 17.2203 13.8207C17.2397 13.7479 17.2732 13.6796 17.319 13.6198C17.3648 13.56 17.4219 13.5098 17.4871 13.472ZM7.61415 11.24C7.88891 11.1571 8.18532 11.1866 8.43839 11.3219C8.69146 11.4573 8.88053 11.6875 8.96415 11.962C9.02975 12.2316 8.9895 12.516 8.85169 12.7568C8.71388 12.9976 8.489 13.1764 8.22334 13.2563C7.95768 13.3363 7.67148 13.3114 7.42365 13.1867C7.17583 13.062 6.98525 12.847 6.89115 12.586C6.84978 12.4502 6.83568 12.3075 6.84967 12.1662C6.86365 12.0248 6.90545 11.8877 6.97264 11.7626C7.03984 11.6375 7.13111 11.5269 7.24121 11.4372C7.3513 11.3475 7.47805 11.2805 7.61415 11.24ZM10.3081 10.287C10.5368 10.2277 10.7796 10.2592 10.9856 10.3749C11.1916 10.4906 11.3449 10.6814 11.4134 10.9075C11.4819 11.1336 11.4602 11.3775 11.353 11.588C11.2458 11.7985 11.0613 11.9594 10.8381 12.037C10.7232 12.0718 10.6026 12.0836 10.4831 12.0718C10.3637 12.06 10.2477 12.0247 10.1418 11.9681C9.92802 11.8537 9.76843 11.6591 9.69815 11.427C9.62787 11.1949 9.65265 10.9445 9.76705 10.7307C9.88144 10.5169 10.0761 10.3573 10.3081 10.287ZM12.7341 10C12.9304 9.94072 13.1422 9.96184 13.3229 10.0587C13.5036 10.1556 13.6384 10.3202 13.6976 10.5165C13.7569 10.7128 13.7358 10.9245 13.6389 11.1052C13.5421 11.2859 13.3774 11.4207 13.1811 11.48C13.084 11.5093 12.982 11.5193 12.8809 11.5092C12.7799 11.4991 12.6819 11.4693 12.5924 11.4213C12.503 11.3733 12.4238 11.3082 12.3595 11.2297C12.2952 11.1511 12.247 11.0607 12.2176 10.9635C12.1883 10.8663 12.1784 10.7643 12.1884 10.6633C12.1985 10.5623 12.2284 10.4642 12.2764 10.3748C12.3243 10.2853 12.3894 10.2062 12.468 10.1419C12.5465 10.0776 12.637 10.0294 12.7341 10ZM14.8341 10.223C15.0019 10.1723 15.1829 10.1904 15.3373 10.2732C15.4918 10.356 15.607 10.4968 15.6576 10.6645C15.7083 10.8322 15.6902 11.0133 15.6075 11.1677C15.5247 11.3221 15.3839 11.4373 15.2161 11.488C15.0481 11.5385 14.867 11.5203 14.7123 11.4374C14.5577 11.3546 14.4422 11.2138 14.3911 11.046C14.3661 10.9628 14.3577 10.8755 14.3665 10.7891C14.3752 10.7026 14.401 10.6188 14.4422 10.5423C14.4835 10.4658 14.5394 10.3983 14.6069 10.3435C14.6743 10.2887 14.7519 10.2477 14.8351 10.223H14.8341ZM16.5441 10.8C16.6855 10.7653 16.8347 10.7861 16.9611 10.8581C17.0875 10.9302 17.1814 11.0481 17.2235 11.1873C17.2656 11.3266 17.2526 11.4768 17.1872 11.6068C17.1218 11.7368 17.0091 11.8367 16.8721 11.886C16.8008 11.9075 16.726 11.9148 16.6519 11.9074C16.5777 11.9 16.5058 11.8781 16.4402 11.8429C16.3745 11.8077 16.3164 11.76 16.2692 11.7023C16.2221 11.6447 16.1867 11.5783 16.1651 11.507C16.1436 11.4357 16.1363 11.3608 16.1437 11.2867C16.1511 11.2126 16.173 11.1407 16.2082 11.075C16.2434 11.0094 16.2912 10.9513 16.3488 10.9041C16.4065 10.8569 16.4728 10.8215 16.5441 10.8ZM17.8741 11.595C17.9353 11.5764 17.9996 11.5701 18.0632 11.5763C18.1269 11.5826 18.1887 11.6013 18.2451 11.6314C18.3015 11.6616 18.3514 11.7025 18.392 11.7519C18.4326 11.8014 18.4631 11.8583 18.4816 11.9195C18.5002 11.9807 18.5066 12.045 18.5003 12.1086C18.4941 12.1723 18.4753 12.234 18.4452 12.2905C18.4151 12.3469 18.3741 12.3968 18.3247 12.4374C18.2753 12.478 18.2183 12.5084 18.1571 12.527C18.0336 12.5645 17.9001 12.5514 17.7862 12.4906C17.6723 12.4297 17.5872 12.3261 17.5496 12.2025C17.5121 12.0789 17.5252 11.9455 17.5861 11.8315C17.6469 11.7176 17.7506 11.6325 17.8741 11.595ZM10.1041 7.888C10.2249 7.87873 10.3462 7.89337 10.4613 7.93111C10.5764 7.96884 10.6828 8.02891 10.7746 8.10788C10.8664 8.18685 10.9417 8.28316 10.9962 8.39129C11.0507 8.49942 11.0833 8.61724 11.0921 8.738C11.1099 8.982 11.03 9.22306 10.8701 9.40816C10.7101 9.59326 10.4831 9.70723 10.2391 9.725C9.99515 9.74277 9.75408 9.66288 9.56899 9.50291C9.38389 9.34295 9.26992 9.116 9.25215 8.872C9.24343 8.75136 9.2586 8.63018 9.29677 8.51541C9.33494 8.40063 9.39537 8.29451 9.47459 8.20311C9.55382 8.11172 9.6503 8.03684 9.75849 7.98277C9.86669 7.9287 9.98449 7.89649 10.1051 7.888H10.1041ZM12.5111 7.61C12.7121 7.6054 12.9071 7.67823 13.0558 7.81342C13.2045 7.9486 13.2955 8.13578 13.31 8.33623C13.3245 8.53667 13.2614 8.73502 13.1338 8.89022C13.0061 9.04542 12.8236 9.14559 12.6241 9.17C12.5188 9.18288 12.412 9.17423 12.3102 9.14458C12.2083 9.11493 12.1136 9.06488 12.0316 8.99749C11.9497 8.9301 11.8823 8.84676 11.8336 8.75254C11.7849 8.65831 11.7558 8.55517 11.7481 8.44936C11.7404 8.34356 11.7544 8.2373 11.789 8.13704C11.8237 8.03677 11.8783 7.94459 11.9497 7.8661C12.021 7.7876 12.1076 7.72443 12.2041 7.6804C12.3006 7.63638 12.4051 7.61243 12.5111 7.61ZM14.5751 7.814C14.7477 7.81184 14.9145 7.87562 15.0415 7.99231C15.1686 8.109 15.2463 8.2698 15.2588 8.44186C15.2713 8.61392 15.2177 8.78427 15.1088 8.91811C15 9.05195 14.8441 9.13918 14.6731 9.162C14.4971 9.17028 14.3247 9.10944 14.1928 8.99246C14.0609 8.87547 13.98 8.71159 13.9672 8.53576C13.9544 8.35993 14.0108 8.18607 14.1244 8.05124C14.238 7.91641 14.3997 7.83128 14.5751 7.814ZM16.2781 8.382C16.4297 8.37699 16.5774 8.43086 16.6901 8.5323C16.8029 8.63373 16.872 8.77488 16.883 8.92615C16.894 9.07742 16.846 9.22707 16.7491 9.34374C16.6522 9.46041 16.5139 9.53504 16.3631 9.552C16.2846 9.56084 16.2051 9.55372 16.1294 9.53108C16.0536 9.50844 15.9833 9.47074 15.9225 9.42023C15.8617 9.36973 15.8117 9.30747 15.7755 9.23719C15.7394 9.16691 15.7178 9.09004 15.7121 9.01121C15.7063 8.93238 15.7166 8.85321 15.7422 8.77844C15.7678 8.70366 15.8083 8.63484 15.8611 8.57608C15.914 8.51732 15.9782 8.46984 16.0498 8.43649C16.1215 8.40314 16.1992 8.38461 16.2781 8.382Z" fill="white"/>
</g>
<defs>
<clipPath id="clip0_301_1249">
<rect width="32" height="32" fill="white"/>
</clipPath>
</defs>
</svg>
