<svg width="32" height="32" viewBox="0 0 32 32" fill="none" xmlns="http://www.w3.org/2000/svg">
<g clip-path="url(#clip0_301_1241)">
<path d="M16 32C24.8366 32 32 24.8366 32 16C32 7.16344 24.8366 0 16 0C7.16344 0 0 7.16344 0 16C0 24.8366 7.16344 32 16 32Z" fill="#00316D"/>
<path d="M18.1558 19.8872C18.1428 19.8632 18.1408 19.8532 18.1358 19.8502C17.5158 19.5572 16.8958 19.2632 16.2738 18.9742C16.2408 18.9582 16.1738 18.9622 16.1528 18.9852C15.8828 19.2752 15.6188 19.5722 15.3508 19.8692C15.5448 20.0122 17.9938 20.0132 18.1558 19.8872ZM12.4818 12.7242L12.4198 12.5942C12.3678 12.6312 12.2998 12.6582 12.2658 12.7082C11.693 13.5605 11.1236 14.4151 10.5578 15.2722C10.5228 15.3262 10.5248 15.4052 10.5078 15.4722C10.5778 15.4582 10.6558 15.4612 10.7128 15.4262C11.1986 15.134 11.68 14.8347 12.1568 14.5282C12.2406 14.4691 12.2983 14.3798 12.3178 14.2792C12.3818 13.7792 12.4258 13.2762 12.4818 12.7242ZM24.4788 19.9742H25.3048C25.4638 19.9742 25.5248 19.9142 25.4238 19.7612C24.8988 18.9592 24.3758 18.1562 23.8488 17.3572C23.8208 17.3132 23.7568 17.2942 23.7088 17.2642C23.6838 17.3142 23.6408 17.3642 23.6358 17.4172C23.5748 18.1992 23.5198 18.9812 23.4598 19.7632C23.4488 19.9122 23.5008 19.9792 23.6528 19.9762C23.9278 19.9702 24.2028 19.9742 24.4788 19.9742ZM6.74483 19.9142C6.87083 19.9442 6.93283 19.9722 6.99383 19.9732C7.88683 19.9752 8.77983 19.9732 9.67183 19.9752C9.84483 19.9752 9.88883 19.9142 9.81583 19.7472C9.53568 19.1118 9.26167 18.4738 8.99383 17.8332C8.91583 17.6462 8.84383 17.6552 8.72083 17.7872C8.24483 18.3012 7.76483 18.8102 7.28683 19.3212C7.11983 19.5012 6.95683 19.6812 6.74483 19.9142ZM19.9398 15.3012C19.9978 15.4142 20.0168 15.4632 20.0458 15.5052L21.2538 17.2592C21.7528 17.9842 22.2508 18.7092 22.7538 19.4312C22.7878 19.4812 22.8538 19.5082 22.9038 19.5452C22.9298 19.4852 22.9718 19.4282 22.9798 19.3662C22.9998 19.1962 23.0038 19.0262 23.0148 18.8562C23.0688 18.0812 23.1288 17.3072 23.1748 16.5332C23.1948 16.2032 23.0518 16.0332 22.7388 15.9552C21.9038 15.7462 21.0688 15.5362 20.2328 15.3292C20.1578 15.3112 20.0788 15.3142 19.9398 15.3012ZM19.7278 10.1662L19.6518 10.1792C19.6418 10.3322 19.6268 10.4862 19.6218 10.6412L19.5108 14.4122C19.5058 14.5502 19.5468 14.6222 19.6898 14.6562C20.5558 14.8662 21.4198 15.0872 22.2858 15.3002C22.3608 15.3182 22.4438 15.3012 22.5228 15.3002C22.5028 15.2232 22.4988 15.1362 22.4618 15.0682C21.5988 13.4982 20.7338 11.9282 19.8668 10.3602C19.8288 10.2912 19.7748 10.2302 19.7278 10.1662ZM15.8428 17.8732C15.8668 17.7402 15.8898 17.6602 15.8928 17.5802C15.9058 17.1612 15.9068 16.7422 15.9258 16.3232C15.9438 16.0039 15.8489 15.6885 15.6578 15.4322C14.8638 14.3305 14.0722 13.2272 13.2828 12.1222C13.2468 12.0722 13.2318 12.0072 13.2068 11.9492L13.1128 12.0052C13.0898 12.0892 13.0538 12.1722 13.0448 12.2572C12.9748 12.9372 12.9148 13.6172 12.8398 14.2952C12.8284 14.3665 12.834 14.4395 12.856 14.5083C12.8781 14.5771 12.916 14.6398 12.9668 14.6912C13.8618 15.6882 14.7508 16.6912 15.6438 17.6912C15.6918 17.7452 15.7498 17.7892 15.8428 17.8732ZM16.4198 17.6642L16.4798 17.7042C16.5348 17.6612 16.5998 17.6272 16.6438 17.5742C17.4042 16.651 18.1618 15.7257 18.9168 14.7982C18.9631 14.7394 18.9903 14.6679 18.9948 14.5932C19.0308 13.3582 19.0618 12.1232 19.0898 10.8882C19.0918 10.8202 19.0528 10.7512 19.0318 10.6832C18.9768 10.7362 18.8998 10.7792 18.8688 10.8432C18.1688 12.3252 17.4998 13.8222 16.7658 15.2852C16.3778 16.0592 16.4398 16.8582 16.4198 17.6652V17.6642ZM12.9168 19.9752C13.3978 19.9752 13.8798 19.9822 14.3608 19.9692C14.4706 19.964 14.5749 19.9196 14.6548 19.8442C14.9898 19.4932 15.3038 19.1212 15.6378 18.7692C15.7628 18.6392 15.7348 18.5592 15.6288 18.4432C15.0645 17.8311 14.5051 17.2144 13.9508 16.5932C13.8168 16.4432 13.7398 16.4442 13.6198 16.6082C12.8588 17.6492 12.0898 18.6832 11.3248 19.7222C11.2868 19.7742 11.2728 19.8432 11.2468 19.9042C11.3138 19.9282 11.3808 19.9712 11.4488 19.9712C11.9388 19.9772 12.4268 19.9752 12.9168 19.9752ZM13.4148 16.0092C13.1488 15.7002 12.8878 15.4092 12.6408 15.1042C12.5368 14.9772 12.4568 14.9642 12.3168 15.0512C11.4808 15.5772 10.6358 16.0892 9.80183 16.6182C9.65083 16.7142 9.53183 16.8632 9.40383 16.9942C9.28483 17.1162 9.30083 17.2502 9.36583 17.4002C9.69083 18.1432 10.0078 18.8892 10.3288 19.6342C10.4508 19.9142 10.4968 19.9192 10.6838 19.6692C11.1788 19.0092 11.6718 18.3462 12.1648 17.6852L13.4148 16.0092ZM19.2098 15.2212C19.1448 15.3262 19.1138 15.3902 19.0698 15.4422C18.2778 16.4082 17.4848 17.3742 16.6868 18.3362C16.5568 18.4932 16.6238 18.5552 16.7708 18.6222C17.6878 19.0422 18.6008 19.4692 19.5198 19.8872C19.6375 19.9402 19.7648 19.9688 19.8938 19.9712C20.6498 19.9782 21.4068 19.9762 22.1638 19.9722C22.2338 19.9722 22.3048 19.9402 22.3758 19.9222C22.3508 19.8482 22.3398 19.7632 22.2958 19.7002C21.5982 18.6814 20.8986 17.6641 20.1968 16.6482C19.8868 16.1982 19.5748 15.7482 19.2098 15.2212ZM15.9928 20.9982C12.5508 20.9982 9.10883 20.9972 5.66683 21.0002C5.39883 21.0002 5.15683 20.9702 5.04083 20.6822C4.93083 20.4092 5.05883 20.2072 5.23783 20.0162C6.26583 18.9182 7.30783 17.8322 8.30783 16.7102C8.68983 16.2822 8.98483 15.7732 9.30783 15.2922C10.3428 13.7442 11.3698 12.1902 12.4098 10.6462C12.5118 10.4952 12.6678 10.3422 12.8318 10.2822C13.0578 10.1982 13.2508 10.3282 13.3948 10.5342C14.2318 11.7302 15.0748 12.9222 15.9158 14.1162C16.0888 14.3602 16.1508 14.3522 16.2788 14.0742L18.8728 8.42417C18.9748 8.20217 19.1098 8.01317 19.3728 8.00117C19.6478 7.98817 19.8148 8.15517 19.9438 8.39117C21.2458 10.7532 22.5178 13.1352 23.8708 15.4672C24.6888 16.8772 25.6358 18.2082 26.5248 19.5752C26.6348 19.7432 26.7458 19.9102 26.8538 20.0802C26.9838 20.2852 27.0608 20.5102 26.9388 20.7372C26.8188 20.9572 26.5968 20.9992 26.3638 20.9992C22.9068 20.9972 19.4498 20.9982 15.9928 20.9982Z" fill="white"/>
</g>
<defs>
<clipPath id="clip0_301_1241">
<rect width="32" height="32" fill="white"/>
</clipPath>
</defs>
</svg>
