<svg width="32" height="32" viewBox="0 0 32 32" fill="none" xmlns="http://www.w3.org/2000/svg">
<g clip-path="url(#clip0_301_1237)">
<path d="M16 32C24.8366 32 32 24.8366 32 16C32 7.16344 24.8366 0 16 0C7.16344 0 0 7.16344 0 16C0 24.8366 7.16344 32 16 32Z" fill="#1AAB9B"/>
<path d="M7.558 21.1561V13.1111L13.659 17.7031V21.1561H15.217V17.3801C15.2169 17.2392 15.184 17.1003 15.121 16.9743C15.058 16.8483 14.9666 16.7387 14.854 16.6541L7.455 11.0851C7.3201 10.9837 7.15966 10.9219 6.99163 10.9066C6.8236 10.8912 6.65462 10.923 6.5036 10.9982C6.35258 11.0735 6.22549 11.1893 6.13655 11.3327C6.0476 11.476 6.00032 11.6413 6 11.8101V21.1561H7.558ZM24.432 21.1561V13.1111L18.331 17.7031V21.1561H16.773V17.3801C16.773 17.0941 16.907 16.8251 17.135 16.6541L24.535 11.0851C24.67 10.9837 24.8305 10.9219 24.9986 10.9066C25.1667 10.8913 25.3358 10.9231 25.4868 10.9984C25.6379 11.0738 25.765 11.1898 25.8538 11.3333C25.9427 11.4768 25.9899 11.6423 25.99 11.8111V21.1571H24.432V21.1561Z" fill="white"/>
</g>
<defs>
<clipPath id="clip0_301_1237">
<rect width="32" height="32" fill="white"/>
</clipPath>
</defs>
</svg>
