<svg width="32" height="32" viewBox="0 0 32 32" fill="none" xmlns="http://www.w3.org/2000/svg">
<g clip-path="url(#clip0_301_1225)">
<path d="M16 32C24.8366 32 32 24.8366 32 16C32 7.16344 24.8366 0 16 0C7.16344 0 0 7.16344 0 16C0 24.8366 7.16344 32 16 32Z" fill="#7F368A"/>
<path d="M25.5689 21.3161C25.6339 21.5791 25.3719 21.7101 25.1749 21.6451H21.8969C21.6999 21.6451 21.5689 21.5791 21.4369 21.5131C21.2409 21.4471 21.1099 21.1851 21.0439 20.9221V20.8561L17.9619 9.49014C17.8969 9.49014 17.6999 9.68714 17.6339 9.68714C17.5689 9.75214 17.4369 9.81814 17.3719 9.75214C17.2409 9.68714 17.1749 9.49014 17.2409 9.35814C17.3709 9.03014 17.6999 8.83214 18.0279 8.76714C18.4209 8.70114 18.7489 8.70114 19.1419 8.70114H21.5689C21.7649 8.70114 21.9619 8.70114 22.1589 8.76714C22.3559 8.89814 22.4209 9.16114 22.4869 9.35814C22.6169 9.81814 22.6829 10.2781 22.8149 10.7381L24.3879 16.6521L24.9779 19.0171C25.1749 19.7401 25.4379 20.5291 25.5679 21.3171L25.5689 21.3161ZM17.9619 21.3161C18.0279 21.5791 17.7649 21.7101 17.5689 21.6451H14.2899C14.0929 21.6451 13.9619 21.5791 13.8299 21.5131C13.6339 21.4471 13.5029 21.1851 13.4369 20.9221V20.8561L10.3559 9.49014C10.2899 9.49014 10.0929 9.68714 10.0279 9.68714C9.9619 9.75214 9.8309 9.81814 9.7649 9.75214C9.6349 9.68714 9.5689 9.49014 9.6349 9.35814C9.7649 9.03014 10.0929 8.83214 10.4209 8.76714C10.8149 8.70114 11.1419 8.70114 11.5359 8.70114H13.9619C14.1589 8.70114 14.3559 8.70114 14.5519 8.76714C14.7489 8.89814 14.8149 9.16114 14.8799 9.35814C15.0109 9.81814 15.0769 10.2781 15.2079 10.7381L16.7819 16.6521L17.3719 19.0171C17.5689 19.7401 17.8309 20.5291 17.9619 21.3171V21.3161ZM11.9289 18.8191L11.1419 21.3161C11.1056 21.4458 11.0287 21.5604 10.9226 21.6432C10.8164 21.726 10.6865 21.7726 10.5519 21.7761H7.0769C6.90291 21.7756 6.73621 21.7062 6.61327 21.5831C6.49033 21.4599 6.42116 21.2931 6.4209 21.1191V20.9871L9.1749 10.6061C9.2409 10.4741 9.3719 10.3431 9.5029 10.3431C9.6999 10.3431 9.8309 10.4741 9.8309 10.6061L11.9289 18.8191ZM19.6669 18.6221L19.2079 20.0021C19.1419 20.1331 19.0769 20.1991 18.9459 20.1991C18.8149 20.1991 18.7489 20.1331 18.6829 20.0021L16.3879 11.9851L16.8479 10.3431C16.8479 10.2111 16.9779 10.1461 17.1099 10.1461C17.2399 10.1461 17.3719 10.2111 17.3719 10.3431L19.6669 18.6221Z" fill="white"/>
</g>
<defs>
<clipPath id="clip0_301_1225">
<rect width="32" height="32" fill="white"/>
</clipPath>
</defs>
</svg>
