<svg width="32" height="32" viewBox="0 0 32 32" fill="none" xmlns="http://www.w3.org/2000/svg">
<g clip-path="url(#clip0_301_1205)">
<path d="M16 32C24.8366 32 32 24.8366 32 16C32 7.16344 24.8366 0 16 0C7.16344 0 0 7.16344 0 16C0 24.8366 7.16344 32 16 32Z" fill="#47B95C"/>
<path d="M16 6C10.48 6 6 10.48 6 16C6 16.133 6.013 16.26 6.02 16.393H10.713L12.98 12.493L16 16.82L19.013 12.493L21.28 16.393H25.973C25.98 16.26 25.993 16.133 25.993 16C26 10.48 21.52 6 16 6ZM22.893 15.187C22.487 11.74 19.553 9.06 16 9.06C12.447 9.06 9.513 11.747 9.107 15.187H7.893C8.3 11.073 11.78 7.853 16 7.853C20.22 7.853 23.693 11.073 24.107 15.187H22.893Z" fill="white"/>
<path d="M18.9271 14.7329L16.0001 18.9329L13.0731 14.7329L11.4071 17.5999H6.14014C6.90714 22.3599 11.0201 25.9999 16.0001 25.9999C20.9801 25.9999 25.0931 22.3599 25.8601 17.5929H20.5931L18.9271 14.7329ZM22.3471 18.7999H23.6401C22.4931 21.9129 19.5071 24.1469 16.0001 24.1469C12.4931 24.1469 9.50714 21.9129 8.36014 18.7999H9.65314C10.7331 21.2329 13.1671 22.9399 16.0001 22.9399C18.8331 22.9399 21.2671 21.2329 22.3471 18.7999Z" fill="white"/>
</g>
<defs>
<clipPath id="clip0_301_1205">
<rect width="32" height="32" fill="white"/>
</clipPath>
</defs>
</svg>
