<svg width="32" height="32" viewBox="0 0 32 32" fill="none" xmlns="http://www.w3.org/2000/svg">
<g clip-path="url(#clip0_301_1197)">
<path d="M16 32C24.8366 32 32 24.8366 32 16C32 7.16344 24.8366 0 16 0C7.16344 0 0 7.16344 0 16C0 24.8366 7.16344 32 16 32Z" fill="#104FCA"/>
<path d="M7 9.56789L11.234 16.6709V23.9999C8.896 23.9999 7 22.1639 7 19.8989V9.56789Z" fill="white" fill-opacity="0.5"/>
<path d="M20.7651 16.663L24.9971 9.56396H24.9991V19.9C25.0001 22.164 23.1041 24 20.7651 24V16.663Z" fill="white" fill-opacity="0.6"/>
<path d="M15.997 16.4579L13.88 20.0099C13.441 19.8999 12.969 19.4739 12.464 18.7329L7 9.5679C9.025 8.4349 11.615 9.1079 12.784 11.0679L15.997 16.4579Z" fill="white" fill-opacity="0.8"/>
<path d="M19.2159 11.0598C20.3849 9.09782 22.9749 8.42582 24.9999 9.55882L19.5359 18.7238C19.1412 19.2959 18.6128 19.763 17.9966 20.0843C17.3803 20.4057 16.6949 20.5717 15.9999 20.5678C15.3417 20.5691 14.6919 20.4203 14.0999 20.1328L13.8799 20.0098L19.2159 11.0598Z" fill="white"/>
</g>
<defs>
<clipPath id="clip0_301_1197">
<rect width="32" height="32" fill="white"/>
</clipPath>
</defs>
</svg>
