<svg width="32" height="32" viewBox="0 0 32 32" fill="none" xmlns="http://www.w3.org/2000/svg">
<g clip-path="url(#clip0_301_1169)">
<path d="M16 32C24.8366 32 32 24.8366 32 16C32 7.16344 24.8366 0 16 0C7.16344 0 0 7.16344 0 16C0 24.8366 7.16344 32 16 32Z" fill="#36A9CF"/>
<path fill-rule="evenodd" clip-rule="evenodd" d="M26.3098 18.475C26.4858 18.552 26.5508 18.791 26.4558 19.009C26.4274 19.0813 26.3807 19.1449 26.3202 19.1934C26.2596 19.242 26.1875 19.274 26.1108 19.286L23.8858 23.389C23.9054 23.4806 23.9008 23.5758 23.8724 23.6651C23.844 23.7543 23.7928 23.8346 23.7238 23.898C23.6688 23.9555 23.6019 24.0002 23.5278 24.0291C23.4537 24.0579 23.3742 24.0702 23.2948 24.065L18.9558 26.663C18.9221 26.7486 18.8664 26.8237 18.7944 26.8809C18.7225 26.9382 18.6367 26.9754 18.5458 26.989C18.3318 27.03 18.1278 26.952 18.0298 26.807L12.9318 26.45C12.8684 26.4984 12.795 26.5319 12.7169 26.5482C12.6389 26.5644 12.5582 26.563 12.4808 26.544C12.2288 26.489 12.0548 26.288 12.0648 26.081L8.12579 23.239C8.04351 23.2538 7.9589 23.2488 7.87893 23.2244C7.79896 23.2001 7.72591 23.1571 7.66579 23.099C7.49379 22.943 7.43179 22.716 7.49779 22.544L5.87779 18.787C5.70079 18.752 5.54779 18.578 5.50779 18.348C5.47479 18.141 5.54279 17.946 5.66979 17.842L5.90879 12.155C5.85499 12.0817 5.82041 11.9961 5.80818 11.9059C5.79595 11.8158 5.80648 11.7241 5.83879 11.639C5.91879 11.406 6.11179 11.259 6.30179 11.269L10.5538 6.81403C10.5168 6.60403 10.6768 6.38103 10.9278 6.30203C11.0057 6.27547 11.0886 6.26734 11.1702 6.27827C11.2518 6.2892 11.3297 6.3189 11.3978 6.36503L17.5158 5.25303C17.5948 5.07303 17.8188 4.96703 18.0608 5.01003C18.2808 5.04803 18.4458 5.19903 18.4848 5.37303L21.3108 6.98503C21.3891 6.96 21.472 6.95222 21.5536 6.96223C21.6353 6.97224 21.7138 6.99981 21.7838 7.04303C21.8609 7.0879 21.9267 7.14978 21.9763 7.22395C22.0259 7.29812 22.0578 7.38263 22.0698 7.47103L23.2858 8.28903C23.3642 8.26776 23.4465 8.26481 23.5263 8.28042C23.606 8.29602 23.6812 8.32977 23.7458 8.37903C23.9738 8.54303 24.0558 8.82903 23.9258 9.01903L23.9178 9.02903L25.7008 12.509C25.8708 12.486 26.0448 12.618 26.1068 12.827C26.1748 13.056 26.0808 13.289 25.8988 13.347C25.7158 13.407 25.5128 13.269 25.4458 13.041L25.4338 12.991L21.7648 11.026C21.7064 11.1082 21.6269 11.1731 21.5348 11.214V21.008C21.6546 21.0609 21.7524 21.1537 21.8115 21.2706C21.8706 21.3874 21.8873 21.5212 21.8588 21.649L23.3488 23.167C23.4251 23.1347 23.5085 23.123 23.5908 23.133L25.8408 19.157C25.802 19.0931 25.7797 19.0204 25.7761 18.9457C25.7724 18.871 25.7874 18.7965 25.8198 18.729C25.9148 18.511 26.1348 18.398 26.3098 18.475ZM26.3138 18.95C26.3518 18.862 26.3248 18.767 26.2548 18.736C26.1848 18.706 26.0968 18.751 26.0588 18.838C26.0208 18.925 26.0468 19.02 26.1178 19.052C26.1878 19.082 26.2748 19.037 26.3138 18.95ZM23.6488 23.742C23.7288 23.662 23.7428 23.544 23.6798 23.478C23.6168 23.412 23.5008 23.423 23.4198 23.502C23.3398 23.582 23.3258 23.701 23.3888 23.767C23.4518 23.833 23.5688 23.822 23.6488 23.742ZM23.0198 23.492L23.0308 23.468L21.6018 22.014C21.5163 22.0674 21.4176 22.0958 21.3168 22.096C21.2118 22.0958 21.109 22.0656 21.0206 22.0089C20.9322 21.9522 20.8618 21.8714 20.8178 21.776H18.8998C18.8502 21.8802 18.7699 21.9667 18.6698 22.024L18.8568 24.731C18.9308 24.763 18.9968 24.809 19.0468 24.866L23.0198 23.492ZM18.8518 26.278L22.3188 24.202L19.1588 25.294C19.1379 25.373 19.0986 25.446 19.0442 25.5069C18.9899 25.5679 18.9219 25.6152 18.8458 25.645L18.7498 26.209C18.7869 26.2271 18.8212 26.2504 18.8518 26.278ZM18.5268 26.816C18.6368 26.796 18.7118 26.706 18.6958 26.614C18.6798 26.524 18.5758 26.466 18.4658 26.488C18.3568 26.508 18.2808 26.598 18.2968 26.689C18.3138 26.78 18.4168 26.837 18.5268 26.816ZM18.0228 26.418C18.0892 26.3086 18.1929 26.2269 18.3148 26.188L18.4058 25.653C18.3247 25.6229 18.2518 25.5743 18.1928 25.511L14.2148 26.153L18.0228 26.418ZM14.3018 22.082L13.0078 25.899L18.0238 25.089L14.4748 22.009C14.4217 22.043 14.3632 22.0677 14.3018 22.082ZM12.6368 25.637L13.8708 21.998C13.7895 21.9416 13.7246 21.8647 13.6828 21.775H11.4268C11.4129 21.8027 11.3972 21.8294 11.3798 21.855L12.6368 25.637ZM12.4838 26.372C12.5938 26.396 12.6978 26.342 12.7158 26.252C12.7358 26.162 12.6628 26.069 12.5528 26.044C12.4428 26.021 12.3388 26.074 12.3198 26.164C12.3008 26.256 12.3738 26.348 12.4838 26.372ZM8.39679 22.96L12.2018 25.706L10.9998 22.09C10.9131 22.1013 10.825 22.0918 10.7427 22.0622C10.6605 22.0327 10.5865 21.9839 10.5268 21.92L8.40379 22.845C8.40684 22.8835 8.40482 22.9221 8.39779 22.96H8.39679ZM8.04079 22.362C8.09488 22.3859 8.14537 22.4172 8.19079 22.455L10.3738 21.505C10.3781 21.397 10.4128 21.2923 10.4738 21.203L7.09779 17.714L8.04079 22.362ZM8.01779 22.971C8.07779 22.903 8.05779 22.785 7.97479 22.709C7.89079 22.634 7.77479 22.628 7.71479 22.697C7.65479 22.767 7.67279 22.885 7.75679 22.96C7.84079 23.035 7.95779 23.04 8.01679 22.971H8.01779ZM6.22779 18.638L7.38979 21.331L6.61079 17.493L6.30379 18.147C6.32871 18.2293 6.33482 18.3162 6.32167 18.4012C6.30851 18.4862 6.27643 18.5671 6.22779 18.638ZM6.19979 14.298L6.05979 17.65L6.33779 17.06C6.29189 16.973 6.26984 16.8753 6.27388 16.7769C6.27792 16.6786 6.30791 16.5831 6.36079 16.5L6.19979 14.298ZM5.99979 11.647C5.96179 11.755 6.00279 11.867 6.08779 11.898C6.17379 11.928 6.27179 11.866 6.30879 11.758C6.34579 11.65 6.30679 11.538 6.22079 11.507C6.13479 11.477 6.03679 11.539 5.99879 11.647H5.99979ZM6.84379 16.8C6.84379 16.686 6.76079 16.594 6.66079 16.594C6.55979 16.594 6.47679 16.686 6.47679 16.8C6.47679 16.915 6.55979 17.007 6.66079 17.007C6.76079 17.007 6.84379 16.915 6.84379 16.8ZM6.61379 11.914C6.58562 11.999 6.53881 12.0765 6.47679 12.141L6.76679 16.131L8.54679 10.502L6.64179 11.795C6.63619 11.8355 6.62682 11.8753 6.61379 11.914ZM9.63979 8.32903L7.20579 10.879L8.45279 10.033C8.46954 9.91915 8.51885 9.81254 8.59479 9.72603C8.67297 9.63312 8.77878 9.56761 8.89679 9.53903L9.63979 8.32903ZM10.8938 7.12203L9.30679 9.70403C9.34513 9.77537 9.36181 9.85635 9.35479 9.93703L10.5298 10.298C10.5912 10.2322 10.6678 10.1826 10.753 10.1536C10.8382 10.1246 10.9292 10.1171 11.0179 10.1318C11.1067 10.1464 11.1905 10.1828 11.2618 10.2376C11.3331 10.2924 11.3898 10.364 11.4268 10.446H13.3938C13.4303 10.3676 13.4845 10.2988 13.5522 10.245C13.6199 10.1912 13.6992 10.1539 13.7838 10.136L14.8528 7.86203C14.7952 7.78619 14.7574 7.69717 14.7428 7.60303L11.4748 6.87903C11.4007 6.98669 11.292 7.06574 11.1668 7.10303C11.0787 7.13123 10.9851 7.13809 10.8938 7.12303V7.12203ZM10.9518 6.46903C10.8448 6.50203 10.7798 6.60103 10.8058 6.68903C10.8328 6.77803 10.9408 6.82203 11.0468 6.78903C11.1538 6.75603 11.2198 6.65703 11.1928 6.56903C11.1668 6.48003 11.0598 6.43503 10.9518 6.46903ZM17.1998 5.70503L12.2678 6.60303L14.8478 7.17403C14.9174 7.07895 15.0158 7.00882 15.1283 6.97405C15.2409 6.93929 15.3617 6.94174 15.4728 6.98103L17.1998 5.70503ZM17.8048 5.80203L15.9658 7.16203L21.0108 7.30203L21.0218 7.26403L18.3478 5.74003C18.2869 5.78464 18.2174 5.81612 18.1438 5.83247C18.0701 5.84882 17.9938 5.8497 17.9198 5.83503C17.8804 5.82796 17.8419 5.8169 17.8048 5.80203ZM18.0428 5.18303C17.9328 5.16303 17.8298 5.22103 17.8148 5.31303C17.7998 5.40303 17.8748 5.49303 17.9858 5.51303C18.0958 5.53303 18.1978 5.47503 18.2138 5.38303C18.2298 5.29303 18.1528 5.20303 18.0428 5.18303ZM21.2758 7.90803C21.2075 7.86587 21.1481 7.81085 21.1008 7.74603L15.8378 7.60003C15.8338 7.63131 15.8267 7.66212 15.8168 7.69203L17.9408 10.141C18.0635 10.1144 18.1916 10.1301 18.3043 10.1857C18.4169 10.2413 18.5073 10.3334 18.5608 10.447H20.8178C20.8729 10.3297 20.9669 10.235 21.0838 10.179L21.2758 7.90803ZM21.3158 10.466C21.1948 10.466 21.0958 10.568 21.0958 10.693C21.0958 10.818 21.1948 10.919 21.3158 10.919C21.4388 10.919 21.5388 10.818 21.5388 10.693C21.5388 10.568 21.4388 10.466 21.3168 10.466H21.3158ZM21.4148 7.26603C21.3598 7.36203 21.4008 7.49203 21.5068 7.55403C21.6118 7.61803 21.7428 7.59103 21.7968 7.49403C21.8528 7.39803 21.8118 7.26903 21.7058 7.20603C21.5998 7.14303 21.4698 7.17003 21.4148 7.26603ZM25.3298 12.584L21.7028 7.99703L21.5198 10.166C21.6169 10.2058 21.701 10.2717 21.7628 10.3564C21.8246 10.4412 21.8617 10.5415 21.8698 10.646L25.3298 12.584ZM23.0368 8.58703L22.2228 8.04103L24.8498 11.461L23.5718 9.17403C23.465 9.16574 23.3625 9.12801 23.2758 9.06503C23.1058 8.94403 23.0158 8.75503 23.0358 8.58703H23.0368ZM23.4168 8.53003C23.3648 8.60603 23.3968 8.72003 23.4888 8.78603C23.5798 8.85103 23.6968 8.84303 23.7488 8.76603C23.8008 8.69103 23.7688 8.57603 23.6778 8.51103C23.5848 8.44603 23.4688 8.45403 23.4178 8.53103L23.4168 8.53003ZM17.8468 10.693C17.8468 10.815 17.9418 10.914 18.0628 10.914C18.1208 10.9132 18.1761 10.8896 18.2168 10.8482C18.2574 10.8068 18.2801 10.751 18.2798 10.693C18.2803 10.6349 18.2578 10.5788 18.2171 10.5372C18.1765 10.4956 18.121 10.4718 18.0628 10.471C18.0046 10.4718 17.9491 10.4956 17.9085 10.5372C17.8678 10.5788 17.8453 10.6349 17.8458 10.693H17.8468ZM17.9658 15.466C17.9364 15.4663 17.9073 15.4723 17.8802 15.4838C17.8531 15.4953 17.8286 15.5121 17.808 15.5331C17.7874 15.554 17.7711 15.5789 17.7601 15.6062C17.7491 15.6334 17.7435 15.6626 17.7438 15.692C17.7438 15.817 17.8438 15.919 17.9658 15.919C17.9952 15.9186 18.0243 15.9125 18.0513 15.9008C18.0783 15.8892 18.1028 15.8724 18.1233 15.8513C18.1438 15.8302 18.16 15.8053 18.1709 15.778C18.1818 15.7507 18.1872 15.7215 18.1868 15.692C18.1872 15.6627 18.1818 15.6335 18.1709 15.6062C18.16 15.579 18.1438 15.5541 18.1233 15.5331C18.1027 15.5121 18.0782 15.4954 18.0512 15.4839C18.0242 15.4724 17.9952 15.4663 17.9658 15.466ZM15.0688 7.44203C15.0688 7.56703 15.1678 7.66803 15.2898 7.66803C15.3192 7.66777 15.3483 7.66172 15.3754 7.65022C15.4024 7.63872 15.427 7.622 15.4476 7.60101C15.4682 7.58003 15.4845 7.55519 15.4955 7.52791C15.5065 7.50063 15.5121 7.47145 15.5118 7.44203C15.5118 7.31703 15.4118 7.21503 15.2898 7.21503C15.2604 7.21543 15.2313 7.22161 15.2043 7.23323C15.1773 7.24485 15.1528 7.26168 15.1323 7.28276C15.1117 7.30384 15.0956 7.32875 15.0847 7.35608C15.0738 7.38341 15.0684 7.41262 15.0688 7.44203ZM15.2308 8.07903L14.2168 10.234C14.3302 10.3174 14.4086 10.4398 14.4368 10.5776C14.4651 10.7154 14.4412 10.8588 14.3698 10.98L17.7498 15.17C17.7808 15.1572 17.813 15.1471 17.8458 15.14V11.214C17.7716 11.1817 17.7052 11.1339 17.6511 11.0738C17.597 11.0137 17.5564 10.9427 17.5321 10.8655C17.5077 10.7884 17.5002 10.7069 17.5099 10.6266C17.5197 10.5463 17.5466 10.4691 17.5888 10.4L15.5288 8.02603C15.4363 8.07107 15.3331 8.08942 15.2308 8.07903ZM13.6708 10.693C13.6708 10.818 13.7708 10.919 13.8928 10.919C14.0138 10.919 14.1138 10.818 14.1138 10.693C14.1138 10.568 14.0138 10.466 13.8928 10.466C13.8333 10.4668 13.7765 10.4912 13.7349 10.5337C13.6933 10.5762 13.6703 10.6335 13.6708 10.693ZM10.7108 10.693C10.7108 10.815 10.8068 10.914 10.9268 10.914C11.0468 10.914 11.1438 10.815 11.1438 10.693C11.1438 10.57 11.0468 10.471 10.9268 10.471C10.8068 10.471 10.7108 10.571 10.7108 10.693ZM10.9268 21.303C10.8975 21.3034 10.8686 21.3096 10.8417 21.3212C10.8148 21.3327 10.7904 21.3495 10.77 21.3705C10.7496 21.3915 10.7335 21.4163 10.7226 21.4435C10.7118 21.4707 10.7064 21.4997 10.7068 21.529C10.7068 21.654 10.8048 21.755 10.9268 21.755C10.9562 21.7548 10.9853 21.7487 11.0124 21.7372C11.0394 21.7257 11.064 21.709 11.0846 21.688C11.1052 21.667 11.1215 21.6422 11.1325 21.6149C11.1435 21.5876 11.1491 21.5585 11.1488 21.529C11.1492 21.4996 11.1437 21.4703 11.1328 21.443C11.1218 21.4157 11.1055 21.3908 11.0849 21.3698C11.0643 21.3487 11.0397 21.332 11.0125 21.3206C10.9854 21.3091 10.9562 21.3032 10.9268 21.303ZM8.73079 9.84303C8.65779 9.92903 8.65179 10.048 8.72079 10.109C8.78779 10.169 8.90279 10.151 8.97679 10.064C9.05079 9.97903 9.05579 9.86003 8.98779 9.79903C8.91979 9.73703 8.80579 9.75703 8.73079 9.84303ZM7.10579 16.502C7.16184 16.5913 7.19133 16.6946 7.19079 16.8C7.19079 16.91 7.16079 17.012 7.10879 17.095L10.7108 20.817V11.214C10.613 11.1709 10.5294 11.101 10.4698 11.0123C10.4101 10.9236 10.3768 10.8199 10.3738 10.713L9.15179 10.338C9.11383 10.3725 9.07146 10.4017 9.02579 10.425L7.10579 16.502ZM18.3998 20.962C18.6388 20.962 18.8418 21.117 18.9198 21.332H20.7978C20.8235 21.2603 20.8635 21.1946 20.9154 21.1389C20.9673 21.0832 21.0301 21.0387 21.0998 21.008V11.214C21.03 11.1835 20.9673 11.1389 20.9153 11.0832C20.8634 11.0275 20.8234 10.9618 20.7978 10.89H18.5818C18.5559 10.9616 18.5158 11.0272 18.4639 11.0829C18.412 11.1385 18.3494 11.1832 18.2798 11.214V15.224C18.3544 15.277 18.4152 15.3472 18.457 15.4287C18.4988 15.5102 18.5203 15.6005 18.5198 15.692C18.5214 15.8407 18.464 15.9838 18.3601 16.0901C18.2562 16.1964 18.1144 16.2572 17.9658 16.259C17.8922 16.2583 17.8194 16.243 17.7517 16.214C17.684 16.1851 17.6227 16.1431 17.5712 16.0904C17.5197 16.0378 17.4792 15.9755 17.4518 15.9071C17.4245 15.8387 17.4109 15.7657 17.4118 15.692C17.4118 15.622 17.4238 15.555 17.4478 15.492L14.0198 11.244C13.8873 11.2745 13.7482 11.2553 13.629 11.19C13.5097 11.1248 13.4186 11.018 13.3728 10.89H11.4468C11.4208 10.9617 11.3805 11.0273 11.3284 11.083C11.2763 11.1387 11.2135 11.1833 11.1438 11.214V21.008C11.2838 21.068 11.3928 21.186 11.4468 21.332H13.6618C13.6878 21.2604 13.7281 21.1947 13.7802 21.1391C13.8322 21.0834 13.895 21.0388 13.9648 21.008V16.938C13.8832 16.8868 13.816 16.8157 13.7695 16.7314C13.723 16.6471 13.6986 16.5523 13.6988 16.456C13.6979 16.3823 13.7115 16.3092 13.7389 16.2407C13.7663 16.1723 13.807 16.11 13.8586 16.0573C13.9101 16.0046 13.9716 15.9626 14.0394 15.9338C14.1072 15.9049 14.1801 15.8897 14.2538 15.889C14.3447 15.8893 14.4341 15.9118 14.5144 15.9544C14.5947 15.997 14.6634 16.0585 14.7146 16.1337C14.7658 16.2088 14.798 16.2952 14.8083 16.3855C14.8186 16.4758 14.8067 16.5673 14.7738 16.652L18.2568 20.982C18.3035 20.9695 18.3515 20.9628 18.3998 20.962ZM18.6398 25.009C18.5198 25.009 18.4198 25.099 18.4198 25.211C18.4198 25.323 18.5198 25.412 18.6398 25.412C18.7628 25.412 18.8628 25.322 18.8628 25.212C18.8628 25.102 18.7628 25.009 18.6408 25.009H18.6398ZM18.1788 21.529C18.1788 21.654 18.2778 21.755 18.3988 21.755C18.4283 21.7549 18.4575 21.7489 18.4847 21.7375C18.5119 21.7261 18.5365 21.7094 18.5572 21.6884C18.578 21.6674 18.5943 21.6425 18.6054 21.6151C18.6165 21.5878 18.6221 21.5585 18.6218 21.529C18.6221 21.4996 18.6165 21.4704 18.6055 21.4432C18.5945 21.4159 18.5782 21.391 18.5576 21.3701C18.537 21.3491 18.5124 21.3323 18.4854 21.3208C18.4583 21.3093 18.4292 21.3033 18.3998 21.303C18.3406 21.3038 18.284 21.328 18.2426 21.3704C18.2012 21.4128 18.1783 21.4698 18.1788 21.529ZM14.0318 16.456C14.0318 16.581 14.1318 16.682 14.2538 16.682C14.3758 16.682 14.4748 16.581 14.4748 16.456C14.4748 16.33 14.3758 16.23 14.2538 16.23C14.1318 16.23 14.0318 16.33 14.0318 16.456ZM14.1818 21.303C14.1524 21.3033 14.1233 21.3093 14.0962 21.3208C14.0691 21.3323 14.0446 21.3491 14.024 21.3701C14.0034 21.391 13.9871 21.4159 13.9761 21.4432C13.9651 21.4704 13.9595 21.4996 13.9598 21.529C13.9598 21.654 14.0598 21.755 14.1818 21.755C14.3038 21.755 14.4028 21.654 14.4028 21.529C14.4032 21.4997 14.3978 21.4705 14.3869 21.4432C14.376 21.416 14.3598 21.3911 14.3393 21.3701C14.3187 21.3491 14.2942 21.3324 14.2672 21.3209C14.2402 21.3094 14.2112 21.3033 14.1818 21.303ZM14.3978 21.008C14.5172 21.0604 14.6148 21.1524 14.6742 21.2685C14.7336 21.3845 14.7511 21.5176 14.7238 21.645L18.3168 24.762C18.3495 24.743 18.384 24.7273 18.4198 24.715L18.2358 22.071C18.1218 22.0336 18.0226 21.9609 17.9525 21.8635C17.8825 21.7661 17.8451 21.649 17.8458 21.529C17.8458 21.429 17.8708 21.336 17.9158 21.256L14.4728 16.976C14.4485 16.9867 14.4234 16.9954 14.3978 17.002V21.008ZM21.5378 21.528C21.5381 21.4987 21.5325 21.4697 21.5216 21.4425C21.5106 21.4154 21.4944 21.3907 21.4739 21.3698C21.4534 21.3489 21.4289 21.3322 21.402 21.3208C21.375 21.3093 21.3461 21.3033 21.3168 21.303C21.2874 21.3033 21.2583 21.3093 21.2312 21.3208C21.2041 21.3323 21.1796 21.3491 21.159 21.3701C21.1384 21.391 21.1221 21.4159 21.1111 21.4432C21.1001 21.4704 21.0945 21.4996 21.0948 21.529C21.0948 21.654 21.1948 21.755 21.3168 21.755C21.4388 21.755 21.5388 21.654 21.5388 21.529L21.5378 21.528ZM5.82779 18.507C5.91779 18.492 5.97479 18.388 5.95579 18.276C5.93579 18.163 5.84879 18.084 5.75979 18.1C5.66979 18.115 5.61379 18.22 5.63279 18.332C5.65079 18.445 5.73879 18.524 5.82779 18.507ZM25.7998 12.793C25.7278 12.816 25.6898 12.91 25.7168 13.001C25.7438 13.092 25.8248 13.147 25.8968 13.124C25.9708 13.101 26.0068 13.007 25.9808 12.916C25.9548 12.824 25.8728 12.77 25.8008 12.793H25.7998Z" fill="white"/>
</g>
<defs>
<clipPath id="clip0_301_1169">
<rect width="32" height="32" fill="white"/>
</clipPath>
</defs>
</svg>
