<svg width="32" height="32" viewBox="0 0 32 32" fill="none" xmlns="http://www.w3.org/2000/svg">
<g clip-path="url(#clip0_301_2358)">
<path d="M16 32C24.8366 32 32 24.8366 32 16C32 7.16344 24.8366 0 16 0C7.16344 0 0 7.16344 0 16C0 24.8366 7.16344 32 16 32Z" fill="#0092B5"/>
<path d="M11.7601 14.102L16.0421 6.564C16.0501 6.55 16.0661 6.541 16.1221 6.564L20.1961 13.965C20.0819 14.0582 19.9903 14.1761 19.9281 14.3099C19.866 14.4436 19.835 14.5896 19.8374 14.7371C19.8398 14.8845 19.8756 15.0295 19.942 15.1611C20.0085 15.2927 20.1039 15.4075 20.2211 15.497L16.4581 22.285C16.3241 22.2206 16.1775 22.1867 16.0288 22.1857C15.8801 22.1846 15.733 22.2165 15.5981 22.279L11.7251 15.38C11.8846 15.2072 11.9759 14.9824 11.9821 14.7474C11.9884 14.5124 11.9091 14.283 11.7591 14.102H11.7601ZM11.3501 15.636L15.2381 22.561C15.1542 22.666 15.0929 22.7872 15.0581 22.917C11.9191 22.165 9.96912 21.7 9.20612 21.521C8.88343 21.0672 8.60102 20.586 8.36212 20.083L10.8541 15.697C11.0219 15.7183 11.1923 15.6976 11.3501 15.637V15.636ZM10.8111 13.753L7.72412 8.253C9.82812 7.136 12.4391 6.55 15.5591 6.5L11.3971 13.826C11.2135 13.7437 11.0094 13.7183 10.8111 13.753ZM10.3911 13.929C10.2628 14.0216 10.1589 14.1439 10.0884 14.2855C10.0178 14.4271 9.98269 14.5837 9.98603 14.7419C9.98938 14.9001 10.0311 15.0551 10.1076 15.1936C10.1841 15.3321 10.293 15.4499 10.4251 15.537L8.13512 19.567C7.75464 18.6247 7.52841 17.6273 7.46512 16.613L7.00212 9.231C6.9935 9.08884 7.01915 8.9467 7.07693 8.81653C7.13471 8.68636 7.22291 8.57197 7.33412 8.483L10.3911 13.929ZM16.9911 22.927C16.9577 22.7979 16.8981 22.6771 16.8161 22.572L20.6341 15.685C20.7989 15.7181 20.9693 15.7098 21.1301 15.661L23.6041 20.155C23.3941 20.587 23.1521 21.003 22.8801 21.4L16.9911 22.927ZM16.2501 24.127C16.4313 24.086 16.5973 23.995 16.7294 23.8644C16.8614 23.7338 16.9542 23.5687 16.9971 23.388L22.4531 21.973C21.7936 22.7929 21.0045 23.4995 20.1171 24.065L16.4941 26.379C16.4186 26.4274 16.3364 26.4645 16.2501 26.489V24.127ZM15.7961 24.127V26.5C15.6932 26.4767 15.5951 26.4358 15.5061 26.379L11.8831 24.065C11.036 23.5251 10.2782 22.8564 9.63712 22.083C10.6271 22.318 12.4301 22.748 15.0461 23.374C15.1261 23.747 15.4201 24.042 15.7961 24.128V24.127ZM21.1661 13.793C20.9846 13.7303 20.789 13.7206 20.6021 13.765L16.6051 6.503C19.6371 6.57 22.1851 7.149 24.2461 8.238L21.1661 13.793ZM21.5491 14.034L24.6391 8.462C24.7584 8.55004 24.8539 8.6665 24.9167 8.8008C24.9796 8.9351 25.0079 9.08298 24.9991 9.231L24.5361 16.614C24.4709 17.654 24.2344 18.6761 23.8361 19.639L21.5221 15.436C21.6181 15.347 21.6951 15.2395 21.7486 15.1201C21.8021 15.0006 21.831 14.8716 21.8335 14.7407C21.836 14.6099 21.8121 14.4798 21.7633 14.3584C21.7144 14.237 21.6416 14.1267 21.5491 14.034ZM16.0001 11.234C15.8585 11.2363 15.7233 11.293 15.6225 11.3925C15.5217 11.492 15.4632 11.6265 15.4591 11.768V13.722L12.5731 15.5L12.8821 16.167L15.4591 15.323V17.277L14.7371 17.81V18.343L16.0001 17.987L17.2631 18.342V17.809L16.5411 17.276V15.322L19.0741 16.212L19.4271 15.5L16.5411 13.722V11.768C16.5368 11.6268 16.4783 11.4927 16.3777 11.3935C16.2772 11.2942 16.1424 11.2375 16.0011 11.235L16.0001 11.234Z" fill="white"/>
</g>
<defs>
<clipPath id="clip0_301_2358">
<rect width="32" height="32" fill="white"/>
</clipPath>
</defs>
</svg>
