<svg width="32" height="32" viewBox="0 0 32 32" fill="none" xmlns="http://www.w3.org/2000/svg">
<g clip-path="url(#clip0_301_1121)">
<path d="M16 32C24.8366 32 32 24.8366 32 16C32 7.16344 24.8366 0 16 0C7.16344 0 0 7.16344 0 16C0 24.8366 7.16344 32 16 32Z" fill="#2AB0FD"/>
<path fill-rule="evenodd" clip-rule="evenodd" d="M25.5148 14.8039C25.6798 14.8019 25.7848 14.8239 25.8508 14.8839C25.9208 14.9479 25.9488 15.0519 25.9638 15.2149C26.4298 20.5939 22.3618 25.4559 16.9658 25.9549C11.4018 26.4699 6.57182 22.4549 6.04382 16.8749C5.52982 11.4559 9.59882 6.53987 15.0298 6.04587C18.1058 5.76587 20.7618 6.73187 22.9978 8.86187C23.0208 8.88387 23.0158 8.97587 22.9898 9.00187C22.4877 9.51342 21.981 10.0204 21.4698 10.5229C21.4408 10.5509 21.3368 10.5469 21.3048 10.5179C18.9978 8.40387 16.3248 7.77787 13.4018 8.84287C10.4458 9.91987 8.75482 12.1499 8.41982 15.2899C7.96982 19.5389 11.1768 23.2839 15.4548 23.6069C19.3328 23.8989 22.8468 21.1539 23.4898 17.3219C23.4958 17.2839 23.4098 17.1889 23.3658 17.1889C20.9708 17.1819 18.5758 17.1839 16.1818 17.1749C16.1198 17.1749 16.0048 17.0599 16.0028 16.9969C15.9903 16.3276 15.9903 15.6581 16.0028 14.9889C16.0038 14.9289 16.1108 14.8209 16.1698 14.8199C17.7658 14.8109 23.9958 14.8249 25.5138 14.8029L25.5148 14.8039Z" fill="white"/>
</g>
<defs>
<clipPath id="clip0_301_1121">
<rect width="32" height="32" fill="white"/>
</clipPath>
</defs>
</svg>
