<svg width="32" height="32" viewBox="0 0 32 32" fill="none" xmlns="http://www.w3.org/2000/svg">
<g clip-path="url(#clip0_301_1091)">
<path d="M16 32C24.8366 32 32 24.8366 32 16C32 7.16344 24.8366 0 16 0C7.16344 0 0 7.16344 0 16C0 24.8366 7.16344 32 16 32Z" fill="#164B79"/>
<path d="M14.0898 18.668L13.4668 19.998H12.0848L15.8378 12L18.3408 17.333H16.9258L15.8058 15.018L14.6838 17.372L14.0898 18.668ZM19.5438 19.968L22.4738 16.018L19.5228 12.038H21.1378L23.2788 14.948L22.4998 16.018L23.2788 17.088L21.1388 19.998H18.1758L17.5498 18.668H18.9318L19.5438 19.968ZM24.0698 16.001L23.2788 14.914L25.4198 12.004H26.9998L24.0698 16.001ZM24.0698 16.001L26.9998 19.999H25.4198L23.2798 17.089L24.0698 16.001ZM11.4218 13.159C11.781 13.5381 12.0617 13.9844 12.2479 14.4723C12.4341 14.9602 12.5221 15.48 12.5068 16.002C12.5205 17.053 12.1324 18.0695 11.4218 18.844C10.6998 19.653 9.8068 20 8.7538 20C8.25292 20.005 7.75658 19.9046 7.29696 19.7055C6.83735 19.5064 6.42471 19.2128 6.0858 18.844C5.36359 18.0767 4.97333 17.0554 4.9998 16.002C4.98371 15.1772 5.22526 14.368 5.6908 13.687L6.6108 14.667C6.32279 15.1809 6.20284 15.7721 6.26776 16.3576C6.33268 16.9431 6.57921 17.4937 6.9728 17.932C7.19585 18.1846 7.46968 18.3873 7.7764 18.5269C8.08311 18.6664 8.41582 18.7398 8.7528 18.742C9.4248 18.742 10.0668 18.449 10.5328 17.932C10.7718 17.6791 10.9587 17.3816 11.0828 17.0564C11.2068 16.7313 11.2656 16.3849 11.2558 16.037C11.2581 15.337 11.0001 14.6612 10.5318 14.141C10.3077 13.8925 10.0327 13.6951 9.7256 13.5623C9.41848 13.4294 9.08636 13.3642 8.7518 13.371C8.30967 13.3589 7.87424 13.4809 7.5028 13.721L6.5828 12.741C7.20062 12.2525 7.96828 11.9925 8.7558 12.005C9.25663 11.9961 9.75358 12.0944 10.2132 12.2935C10.6729 12.4925 11.0847 12.7876 11.4208 13.159H11.4218Z" fill="white"/>
</g>
<defs>
<clipPath id="clip0_301_1091">
<rect width="32" height="32" fill="white"/>
</clipPath>
</defs>
</svg>
