<svg width="32" height="32" viewBox="0 0 32 32" fill="none" xmlns="http://www.w3.org/2000/svg">
<g clip-path="url(#clip0_301_1062)">
<path d="M16 32C24.8366 32 32 24.8366 32 16C32 7.16344 24.8366 0 16 0C7.16344 0 0 7.16344 0 16C0 24.8366 7.16344 32 16 32Z" fill="black"/>
<g clip-path="url(#clip1_301_1062)">
<path d="M15.9361 14.233C16.8707 14.2389 17.6237 14.9949 17.6267 15.9295C17.6296 16.873 16.8587 17.6379 15.9093 17.632C14.9777 17.626 14.2187 16.8581 14.2246 15.9265C14.2336 14.986 14.9955 14.23 15.9361 14.233Z" fill="white"/>
<path d="M10.9505 10.1315C10.01 10.1285 9.24505 9.35765 9.25398 8.42307C9.26589 7.47956 10.0278 6.72653 10.9684 6.73546C11.903 6.74141 12.659 7.50634 12.656 8.43795C12.653 9.37849 11.8911 10.1345 10.9505 10.1315Z" fill="white"/>
<path d="M15.9331 9.25648C16.8736 9.25945 17.6415 10.0303 17.6296 10.9649C17.6177 11.9084 16.8528 12.6644 15.9152 12.6585C14.9836 12.6525 14.2246 11.8846 14.2246 10.956C14.2276 10.0155 14.9925 9.2535 15.9331 9.25648Z" fill="white"/>
<path d="M15.9271 7.61051C14.9866 7.61051 14.2216 6.8426 14.2276 5.90504C14.2305 4.96748 15.0014 4.20255 15.939 4.2085C16.8676 4.21148 17.6296 4.97641 17.6326 5.90802C17.6326 6.84558 16.8646 7.61348 15.9271 7.61051Z" fill="white"/>
<path d="M25.9338 9.25648C26.8744 9.2535 27.6393 10.0184 27.6393 10.956C27.6393 11.8876 26.8803 12.6525 25.9487 12.6585C25.0082 12.6644 24.2462 11.9084 24.2403 10.9649C24.2343 10.0214 24.9903 9.25945 25.9338 9.25648Z" fill="white"/>
<path d="M10.9569 15.111C10.0163 15.111 9.25141 14.3431 9.25736 13.4055C9.26034 12.468 10.0282 11.706 10.9688 11.709C11.9004 11.712 12.6564 12.4739 12.6623 13.4085C12.6623 14.346 11.8974 15.111 10.9569 15.111Z" fill="white"/>
<path d="M19.2696 8.42599C19.2755 7.4795 20.0345 6.72945 20.978 6.7354C21.9185 6.74135 22.6745 7.51224 22.6656 8.4498C22.6567 9.39033 21.8888 10.1434 20.9453 10.1315C20.0107 10.1225 19.2636 9.36355 19.2696 8.42599Z" fill="white"/>
<path d="M7.61432 10.959C7.61432 11.9025 6.85237 12.6615 5.91183 12.6585C4.97725 12.6555 4.21529 11.8876 4.21827 10.9471C4.22125 10.0125 4.98022 9.25648 5.91481 9.25648C6.85832 9.2535 7.6173 10.0125 7.61432 10.959Z" fill="white"/>
<path d="M20.9484 15.108C19.999 15.0901 19.2549 14.3282 19.2698 13.3847C19.2846 12.4322 20.0555 11.6881 21.008 11.706C21.9336 11.7239 22.6837 12.5067 22.6658 13.4383C22.6479 14.3758 21.8771 15.1259 20.9484 15.108Z" fill="white"/>
<path d="M5.95931 16.885C5.26581 16.8879 4.69732 16.3254 4.69435 15.6319C4.69137 14.9384 5.25391 14.3699 5.9474 14.364C6.63495 14.358 7.20641 14.9265 7.21237 15.617C7.21534 16.3105 6.64983 16.882 5.95931 16.885Z" fill="white"/>
<path d="M9.66504 18.1469C9.66504 17.4564 10.2335 16.8879 10.927 16.8909C11.6175 16.8909 12.186 17.4623 12.1831 18.1529C12.1801 18.8434 11.6116 19.4119 10.9211 19.4119C10.2306 19.4089 9.66504 18.8374 9.66504 18.1469Z" fill="white"/>
<path d="M20.9334 16.8879C21.6239 16.8879 22.1924 17.4594 22.1894 18.1499C22.1864 18.8404 21.618 19.4089 20.9274 19.4089C20.2369 19.4059 19.6684 18.8345 19.6714 18.1439C19.6744 17.4534 20.2429 16.8879 20.9334 16.8879Z" fill="white"/>
<path d="M24.7163 15.6199C24.7193 14.9234 25.2848 14.3609 25.9753 14.3639C26.6688 14.3698 27.2284 14.9324 27.2254 15.6288C27.2224 16.3253 26.6599 16.8849 25.9664 16.8819C25.2729 16.8819 24.7133 16.3164 24.7163 15.6199Z" fill="white"/>
<path d="M15.9601 21.8585C15.2667 21.8585 14.7011 21.293 14.7041 20.5995C14.7071 19.906 15.2726 19.3434 15.9661 19.3434C16.6626 19.3464 17.2221 19.9089 17.2221 20.6024C17.2192 21.2989 16.6566 21.8614 15.9601 21.8585Z" fill="white"/>
<path d="M16.8084 24.4866C16.8084 24.9569 16.4304 25.3379 15.9601 25.3379C15.4928 25.3379 15.1089 24.9509 15.1118 24.4836C15.1148 24.0223 15.4928 23.6443 15.9541 23.6413C16.4304 23.6384 16.8084 24.0134 16.8084 24.4866Z" fill="white"/>
<path d="M21.7791 21.9715C21.7761 22.4418 21.3981 22.8168 20.9219 22.8139C20.4605 22.8109 20.0825 22.4299 20.0825 21.9686C20.0825 21.5013 20.4694 21.1144 20.9338 21.1173C21.4011 21.1173 21.782 21.5013 21.7791 21.9715Z" fill="white"/>
<path d="M10.918 22.8139C10.4448 22.8109 10.0727 22.4329 10.0757 21.9567C10.0787 21.4954 10.4567 21.1174 10.921 21.1144C11.3853 21.1144 11.7722 21.5013 11.7722 21.9656C11.7722 22.4359 11.3883 22.8139 10.918 22.8139Z" fill="white"/>
<path d="M5.10793 19.4387C5.1109 18.9714 5.50081 18.5845 5.96513 18.5934C6.42646 18.6023 6.80447 18.9833 6.80447 19.4446C6.80447 19.9119 6.41754 20.2959 5.95322 20.2959C5.47998 20.2899 5.10495 19.9089 5.10793 19.4387Z" fill="white"/>
<path d="M26.8176 19.4416C26.8206 19.9119 26.4396 20.2958 25.9724 20.2958C25.5051 20.2958 25.1181 19.9059 25.1211 19.4416C25.1241 18.9803 25.5051 18.5993 25.9634 18.5934C26.4277 18.5874 26.8147 18.9714 26.8176 19.4416Z" fill="white"/>
<path d="M25.9757 22.0043C26.2139 22.0072 26.4103 22.2037 26.4133 22.4388C26.4163 22.6799 26.2109 22.8853 25.9668 22.8793C25.7287 22.8764 25.5323 22.6799 25.5323 22.4418C25.5293 22.2007 25.7287 22.0043 25.9757 22.0043Z" fill="white"/>
<path d="M16.3975 27.4838C16.4005 27.7308 16.207 27.9302 15.96 27.9302C15.7189 27.9302 15.5284 27.7368 15.5254 27.4957C15.5224 27.2487 15.7189 27.0492 15.963 27.0492C16.2011 27.0492 16.3945 27.2397 16.3975 27.4838Z" fill="white"/>
<path d="M6.39072 22.4507C6.38774 22.6918 6.19427 22.8823 5.95319 22.8852C5.70615 22.8852 5.51268 22.6858 5.51566 22.4388C5.51864 22.1918 5.71805 22.0013 5.96807 22.0072C6.20618 22.0132 6.39369 22.2066 6.39072 22.4507Z" fill="white"/>
<path d="M11.3614 24.9658C11.3614 25.2128 11.1649 25.4033 10.9149 25.4003C10.6738 25.3973 10.4863 25.2039 10.4863 24.9628C10.4863 24.7187 10.6738 24.5312 10.9179 24.5282C11.1649 24.5253 11.3614 24.7187 11.3614 24.9658Z" fill="white"/>
<path d="M20.9307 25.4033C20.6836 25.4033 20.4932 25.2069 20.4961 24.9569C20.4991 24.7158 20.6896 24.5283 20.9337 24.5283C21.1837 24.5283 21.3742 24.7247 21.3682 24.9747C21.3652 25.2188 21.1747 25.4033 20.9307 25.4033Z" fill="white"/>
</g>
</g>
<defs>
<clipPath id="clip0_301_1062">
<rect width="32" height="32" fill="white"/>
</clipPath>
<clipPath id="clip1_301_1062">
<rect width="23.4182" height="23.7188" fill="white" transform="translate(4.21826 4.20853)"/>
</clipPath>
</defs>
</svg>
