<svg width="32" height="32" viewBox="0 0 32 32" fill="none" xmlns="http://www.w3.org/2000/svg">
<g clip-path="url(#clip0_301_1059)">
<path d="M16 32C19.1645 32 22.2579 31.0616 24.8891 29.3035C27.5203 27.5454 29.5711 25.0465 30.7821 22.1229C31.9931 19.1993 32.3099 15.9822 31.6926 12.8785C31.0752 9.77482 29.5514 6.92389 27.3137 4.68625C25.0761 2.44861 22.2251 0.924761 19.1214 0.307397C16.0177 -0.309967 12.8007 0.00688671 9.87707 1.21789C6.95345 2.42889 4.45459 4.47965 2.69649 7.11084C0.938384 9.74203 0 12.8355 0 16C0 20.2434 1.68571 24.3131 4.68629 27.3137C7.68687 30.3143 11.7565 32 16 32Z" fill="#1A53F0"/>
<path d="M11.8561 17.2902C10.7756 17.2913 9.73415 17.6943 8.93422 18.4206C8.13429 19.147 7.63305 20.1449 7.52797 21.2202C7.42289 22.2956 7.72147 23.3717 8.36565 24.2391C9.00984 25.1066 9.9536 25.7035 11.0134 25.9138C12.0733 26.1241 13.1735 25.9328 14.1001 25.377C15.0267 24.8213 15.7135 23.9408 16.027 22.9067C16.3405 21.8727 16.2582 20.759 15.7963 19.7823C15.3343 18.8055 14.5256 18.0355 13.5274 17.6218C12.9976 17.4021 12.4296 17.2893 11.8561 17.2902ZM11.8561 24.6836C11.1522 24.6854 10.4695 24.4429 9.92434 23.9975C9.37922 23.5521 9.00547 22.9315 8.8668 22.2413C8.72814 21.5512 8.83315 20.8343 9.16394 20.213C9.49473 19.5916 10.0308 19.1042 10.6808 18.8339C11.3307 18.5636 12.0543 18.5271 12.7282 18.7307C13.402 18.9342 13.9844 19.3652 14.376 19.9502C14.7676 20.5351 14.9442 21.2378 14.8757 21.9384C14.8071 22.6389 14.4977 23.2941 14.0001 23.792C13.4314 24.3609 12.6605 24.6815 11.8561 24.6836ZM21.1507 8C20.0698 7.99936 19.0274 8.40078 18.2262 9.12618C17.425 9.85157 16.9222 10.8491 16.8158 11.9246C16.7093 13.0002 17.0068 14.0769 17.6502 14.9453C18.2937 15.8137 19.2372 16.4117 20.2972 16.6229C21.3571 16.8342 22.4578 16.6436 23.385 16.0882C24.3122 15.5329 24.9997 14.6525 25.3137 13.6183C25.6277 12.5841 25.5458 11.4701 25.0839 10.4929C24.622 9.51578 23.8131 8.7454 22.8147 8.33164C22.287 8.11328 21.7217 8.00061 21.1507 8ZM21.1507 15.3935C20.3466 15.3938 19.5753 15.0749 19.0063 14.5067C18.4373 13.9386 18.1173 13.1677 18.1165 12.3636C18.1179 11.7649 18.2967 11.18 18.6303 10.6828C18.9639 10.1856 19.4374 9.79839 19.9909 9.57006C20.5444 9.34173 21.1531 9.28251 21.7402 9.39988C22.3274 9.51725 22.8665 9.80596 23.2897 10.2295C23.7129 10.6531 24.0011 11.1926 24.1179 11.7798C24.2347 12.3671 24.1749 12.9757 23.946 13.529C23.7172 14.0823 23.3295 14.5554 22.832 14.8885C22.3345 15.2216 21.7494 15.3999 21.1507 15.4007V15.3935ZM11.8561 8C10.8516 8.00132 9.87844 8.35011 9.10177 8.98719C8.3251 9.62427 7.79274 10.5104 7.59499 11.4953C7.39725 12.4802 7.5463 13.5031 8.01687 14.3906C8.48743 15.2781 9.25053 15.9755 10.1767 16.3645C11.1029 16.7535 12.1351 16.8101 13.0982 16.5247C14.0614 16.2393 14.8961 15.6295 15.4609 14.7988C16.0257 13.968 16.2857 12.9675 16.1968 11.9669C16.1079 10.9663 15.6756 10.0273 14.9732 9.30909H16.2067V8H11.8561ZM14.8903 12.3549C14.8906 13.0577 14.6472 13.7388 14.2015 14.2821C13.7559 14.8255 13.1356 15.1975 12.4464 15.3348C11.7572 15.472 11.0417 15.366 10.4219 15.0348C9.80205 14.7036 9.31627 14.1677 9.04733 13.5185C8.77838 12.8692 8.74291 12.1468 8.94697 11.4743C9.15102 10.8019 9.58196 10.221 10.1663 9.83063C10.7507 9.44031 11.4524 9.26473 12.1517 9.3338C12.8511 9.40288 13.5048 9.71235 14.0016 10.2095C14.5701 10.7788 14.8896 11.5503 14.8903 12.3549Z" fill="white"/>
</g>
<defs>
<clipPath id="clip0_301_1059">
<rect width="32" height="32" fill="white"/>
</clipPath>
</defs>
</svg>
