<svg width="32" height="32" viewBox="0 0 32 32" fill="none" xmlns="http://www.w3.org/2000/svg">
<g clip-path="url(#clip0_301_1034)">
<path d="M16 32C24.8366 32 32 24.8366 32 16C32 7.16344 24.8366 0 16 0C7.16344 0 0 7.16344 0 16C0 24.8366 7.16344 32 16 32Z" fill="#34445B"/>
<path d="M15.9368 10.2219L17.9468 7.08592C18.4626 7.16958 18.9907 7.05116 19.4213 6.75531C19.852 6.45946 20.152 6.00895 20.2589 5.49754C20.3658 4.98612 20.2714 4.45317 19.9954 4.00957C19.7193 3.56597 19.2829 3.24589 18.7768 3.11592C18.3737 3.03245 17.9548 3.07349 17.5756 3.23362C17.1963 3.39375 16.8747 3.66539 16.6534 4.01251C16.4322 4.35962 16.3216 4.76581 16.3365 5.1772C16.3514 5.58858 16.491 5.98572 16.7368 6.31592L14.2428 10.2069C13.202 10.3093 12.1916 10.6158 11.2693 11.1088C10.347 11.6019 9.53085 12.2719 8.86758 13.0805C8.20432 13.8891 7.7069 14.8205 7.40375 15.8214C7.1006 16.8223 6.99767 17.8732 7.10084 18.9139C7.30888 21.0152 8.34281 22.9479 9.97534 24.2872C11.6079 25.6264 13.7054 26.2626 15.8068 26.0559C17.9083 25.8481 19.8413 24.8143 21.1808 23.1817C22.5202 21.5492 23.1565 19.4515 22.9498 17.3499C22.7703 15.5397 21.9767 13.8454 20.7009 12.5487C19.4251 11.2519 17.7439 10.4309 15.9368 10.2219ZM15.0218 22.3439C14.4671 22.3444 13.9176 22.2356 13.405 22.0236C12.8923 21.8115 12.4265 21.5005 12.0342 21.1083C11.6419 20.716 11.3307 20.2503 11.1186 19.7377C10.9064 19.2251 10.7974 18.6757 10.7978 18.1209C10.7973 17.5661 10.9062 17.0166 11.1183 16.5038C11.3304 15.9911 11.6415 15.5253 12.0338 15.1329C12.4262 14.7406 12.892 14.4295 13.4048 14.2174C13.9175 14.0053 14.467 13.8964 15.0218 13.8969C15.8799 13.8967 16.7177 14.1581 17.4234 14.6462C18.1291 15.1343 18.6693 15.826 18.9718 16.6289C18.575 16.1178 17.9914 15.7851 17.3494 15.7039C16.7074 15.6228 16.0595 15.7997 15.5478 16.1959C15.0365 16.5926 14.7036 17.1762 14.6224 17.8183C14.5412 18.4604 14.7184 19.1084 15.1148 19.6199C15.3426 19.9129 15.6341 20.1501 15.9673 20.3135C16.3005 20.4769 16.6665 20.5622 17.0376 20.5628C17.4087 20.5635 17.7751 20.4796 18.1088 20.3174C18.4426 20.1552 18.735 19.9191 18.9638 19.6269C18.6601 20.4263 18.1203 21.1143 17.4162 21.5996C16.7121 22.0849 15.877 22.3445 15.0218 22.3439Z" fill="white"/>
<path d="M15.9368 10.2219L17.9468 7.08592C18.4626 7.16958 18.9907 7.05116 19.4213 6.75531C19.852 6.45946 20.152 6.00895 20.2589 5.49754C20.3658 4.98612 20.2714 4.45317 19.9954 4.00957C19.7193 3.56597 19.2829 3.24589 18.7768 3.11592C18.3737 3.03245 17.9548 3.07349 17.5756 3.23362C17.1963 3.39375 16.8747 3.66539 16.6534 4.01251C16.4322 4.35962 16.3216 4.76581 16.3365 5.1772C16.3514 5.58858 16.491 5.98572 16.7368 6.31592L14.2428 10.2069C13.202 10.3093 12.1916 10.6158 11.2693 11.1088C10.347 11.6019 9.53085 12.2719 8.86758 13.0805C8.20432 13.8891 7.7069 14.8205 7.40375 15.8214C7.1006 16.8223 6.99767 17.8732 7.10084 18.9139C7.30888 21.0152 8.34281 22.9479 9.97534 24.2872C11.6079 25.6264 13.7054 26.2626 15.8068 26.0559C17.9083 25.8481 19.8413 24.8143 21.1808 23.1817C22.5202 21.5492 23.1565 19.4515 22.9498 17.3499C22.7703 15.5397 21.9767 13.8454 20.7009 12.5487C19.4251 11.2519 17.7439 10.4309 15.9368 10.2219ZM15.0218 22.3439C14.4671 22.3444 13.9176 22.2356 13.405 22.0236C12.8923 21.8115 12.4265 21.5005 12.0342 21.1083C11.6419 20.716 11.3307 20.2503 11.1186 19.7377C10.9064 19.2251 10.7974 18.6757 10.7978 18.1209C10.7973 17.5661 10.9062 17.0166 11.1183 16.5038C11.3304 15.9911 11.6415 15.5253 12.0338 15.1329C12.4262 14.7406 12.892 14.4295 13.4048 14.2174C13.9175 14.0053 14.467 13.8964 15.0218 13.8969C15.8799 13.8967 16.7177 14.1581 17.4234 14.6462C18.1291 15.1343 18.6693 15.826 18.9718 16.6289C18.575 16.1178 17.9914 15.7851 17.3494 15.7039C16.7074 15.6228 16.0595 15.7997 15.5478 16.1959C15.0365 16.5926 14.7036 17.1762 14.6224 17.8183C14.5412 18.4604 14.7184 19.1084 15.1148 19.6199C15.3426 19.9129 15.6341 20.1501 15.9673 20.3135C16.3005 20.4769 16.6665 20.5622 17.0376 20.5628C17.4087 20.5635 17.7751 20.4796 18.1088 20.3174C18.4426 20.1552 18.735 19.9191 18.9638 19.6269C18.6601 20.4263 18.1203 21.1143 17.4162 21.5996C16.7121 22.0849 15.877 22.3445 15.0218 22.3439Z" fill="white"/>
</g>
<defs>
<clipPath id="clip0_301_1034">
<rect width="32" height="32" fill="white"/>
</clipPath>
</defs>
</svg>
