<svg width="32" height="32" viewBox="0 0 32 32" fill="none" xmlns="http://www.w3.org/2000/svg">
<g clip-path="url(#clip0_301_1022)">
<path d="M16 32C24.8366 32 32 24.8366 32 16C32 7.16344 24.8366 0 16 0C7.16344 0 0 7.16344 0 16C0 24.8366 7.16344 32 16 32Z" fill="#03E8B0"/>
<path d="M15.424 6.17306C16.068 5.89306 16.528 6.48706 16.926 6.88506C17.636 7.48806 18.312 8.12906 18.952 8.80506C19.319 9.20606 19.17 9.93906 18.671 10.1621C18.287 10.3721 17.818 10.2141 17.524 9.92206C16.751 9.18206 16.012 8.40506 15.21 7.69806C14.712 7.29106 14.814 6.40806 15.424 6.17306ZM22.458 8.22406C22.895 7.98906 23.595 8.18006 23.716 8.70106C23.901 9.16406 23.604 9.62106 23.278 9.93006C22.563 10.6351 21.868 11.3601 21.173 12.0861C20.92 12.3921 20.473 12.4741 20.115 12.3091C19.598 12.0951 19.458 11.3191 19.848 10.9251C20.725 10.0331 21.499 9.03306 22.458 8.22506V8.22406ZM8.49001 8.36806C8.94501 8.09306 9.50801 8.27506 9.84501 8.64806C10.603 9.41306 11.385 10.1521 12.15 10.9051C12.657 11.3731 12.303 12.3651 11.596 12.3691C11.004 12.4591 10.69 11.8741 10.294 11.5541C9.60001 10.9791 8.96401 10.3391 8.33401 9.69406C7.97801 9.32706 8.08401 8.65306 8.49101 8.36806H8.49001ZM9.07801 12.8881C9.84101 12.5931 10.586 13.5551 10.11 14.2181C9.54701 14.9521 8.81401 15.5431 8.20001 16.2361C7.83701 16.6091 7.50001 17.1831 6.89501 17.1101C6.18801 17.0831 5.83301 16.1001 6.34701 15.6231C7.27601 14.7341 8.01301 13.6101 9.07901 12.8871L9.07801 12.8881ZM24.554 15.0151C25.079 14.6721 25.871 15.0621 25.888 15.6951C25.965 16.2891 25.375 16.6031 25.05 17.0031C24.478 17.6911 23.85 18.3331 23.202 18.9511C22.728 19.3981 21.844 19.0841 21.759 18.4361C21.648 17.7671 22.276 17.3521 22.672 16.9241C23.328 16.3151 23.882 15.5981 24.554 15.0151ZM11.069 19.7201C11.579 19.4151 12.352 19.7771 12.364 20.3961C12.459 20.9941 11.868 21.3111 11.545 21.7101C10.975 22.4001 10.339 23.0331 9.69701 23.6581C9.28001 24.0801 8.39001 23.8771 8.27201 23.2721C8.07001 22.6871 8.56601 22.2161 8.94401 21.8491C9.67701 21.1631 10.314 20.3791 11.069 19.7201ZM20.131 19.6971C20.413 19.6001 20.771 19.5921 21.009 19.7961C21.892 20.6351 22.832 21.4141 23.662 22.3101C23.918 22.5701 23.941 23.0051 23.771 23.3171C23.531 23.8781 22.709 23.8921 22.31 23.4951C21.504 22.7351 20.73 21.9361 19.92 21.1791C19.43 20.7991 19.545 19.9171 20.13 19.6971H20.131ZM13.331 21.8421C13.751 21.6151 14.245 21.8301 14.547 22.1501C15.3037 22.9107 16.0752 23.6565 16.861 24.3871C17.381 24.8811 17.029 25.8841 16.296 25.8921C15.704 25.9621 15.396 25.3741 14.999 25.0521C14.3138 24.4736 13.6627 23.8559 13.049 23.2021C12.675 22.8041 12.827 22.0621 13.331 21.8421ZM11.981 6.93506C11.981 7.16527 11.8896 7.38605 11.7268 7.54883C11.564 7.71161 11.3432 7.80306 11.113 7.80306C10.8828 7.80306 10.662 7.71161 10.4992 7.54883C10.3365 7.38605 10.245 7.16527 10.245 6.93506C10.2527 6.71008 10.3474 6.49687 10.5092 6.34042C10.6711 6.18397 10.8874 6.09652 11.1125 6.09652C11.3376 6.09652 11.5539 6.18397 11.7158 6.34042C11.8776 6.49687 11.9724 6.71008 11.98 6.93506H11.981ZM14.509 9.24306C14.509 9.47313 14.4176 9.69379 14.2549 9.85647C14.0922 10.0192 13.8716 10.1106 13.6415 10.1106C13.4114 10.1106 13.1908 10.0192 13.0281 9.85647C12.8654 9.69379 12.774 9.47313 12.774 9.24306C12.774 9.01298 12.8654 8.79233 13.0281 8.62964C13.1908 8.46696 13.4114 8.37556 13.6415 8.37556C13.8716 8.37556 14.0922 8.46696 14.2549 8.62964C14.4176 8.79233 14.509 9.01298 14.509 9.24306ZM7.73501 11.3631C7.73896 11.4795 7.71945 11.5955 7.67763 11.7042C7.63582 11.8129 7.57255 11.912 7.49161 11.9958C7.41066 12.0795 7.31369 12.1461 7.20647 12.1916C7.09925 12.2371 6.98398 12.2605 6.86751 12.2605C6.75104 12.2605 6.63577 12.2371 6.52855 12.1916C6.42133 12.1461 6.32436 12.0795 6.24342 11.9958C6.16247 11.912 6.09921 11.8129 6.05739 11.7042C6.01557 11.5955 5.99606 11.4795 6.00001 11.3631C6.00765 11.1381 6.10239 10.9249 6.26425 10.7684C6.4261 10.612 6.6424 10.5245 6.86751 10.5245C7.09262 10.5245 7.30892 10.612 7.47078 10.7684C7.63263 10.9249 7.72737 11.1381 7.73501 11.3631ZM21.507 6.86606C21.507 7.09627 21.4156 7.31705 21.2528 7.47983C21.09 7.64261 20.8692 7.73406 20.639 7.73406C20.4088 7.73406 20.188 7.64261 20.0252 7.47983C19.8625 7.31705 19.771 7.09627 19.771 6.86606C19.771 6.63572 19.8625 6.41481 20.0254 6.25194C20.1883 6.08906 20.4092 5.99756 20.6395 5.99756C20.8699 5.99756 21.0908 6.08906 21.2536 6.25194C21.4165 6.41481 21.508 6.63572 21.508 6.86606H21.507ZM26 11.1461C26 11.3761 25.9086 11.5968 25.7459 11.7595C25.5832 11.9222 25.3626 12.0136 25.1325 12.0136C24.9024 12.0136 24.6818 11.9222 24.5191 11.7595C24.3564 11.5968 24.265 11.3761 24.265 11.1461C24.265 10.916 24.3564 10.6953 24.5191 10.5326C24.6818 10.37 24.9024 10.2786 25.1325 10.2786C25.3626 10.2786 25.5832 10.37 25.7459 10.5326C25.9086 10.6953 26 10.916 26 11.1461ZM23.629 13.6381C23.629 13.8681 23.5376 14.0888 23.3749 14.2515C23.2122 14.4142 22.9916 14.5056 22.7615 14.5056C22.5314 14.5056 22.3108 14.4142 22.1481 14.2515C21.9854 14.0888 21.894 13.8681 21.894 13.6381C21.894 13.408 21.9854 13.1873 22.1481 13.0246C22.3108 12.862 22.5314 12.7706 22.7615 12.7706C22.9916 12.7706 23.2122 12.862 23.3749 13.0246C23.5376 13.1873 23.629 13.408 23.629 13.6381ZM25.996 20.6441C25.996 20.8741 25.9046 21.0948 25.7419 21.2575C25.5792 21.4202 25.3586 21.5116 25.1285 21.5116C24.8984 21.5116 24.6778 21.4202 24.5151 21.2575C24.3524 21.0948 24.261 20.8741 24.261 20.6441C24.261 20.414 24.3524 20.1933 24.5151 20.0306C24.6778 19.868 24.8984 19.7766 25.1285 19.7766C25.3586 19.7766 25.5792 19.868 25.7419 20.0306C25.9046 20.1933 25.996 20.414 25.996 20.6441ZM19.23 22.7601C19.234 22.8765 19.2145 22.9925 19.1726 23.1012C19.1308 23.2099 19.0676 23.309 18.9866 23.3928C18.9057 23.4765 18.8087 23.5431 18.7015 23.5886C18.5943 23.6341 18.479 23.6575 18.3625 23.6575C18.246 23.6575 18.1308 23.6341 18.0236 23.5886C17.9163 23.5431 17.8194 23.4765 17.7384 23.3928C17.6575 23.309 17.5942 23.2099 17.5524 23.1012C17.5106 22.9925 17.4911 22.8765 17.495 22.7601C17.5027 22.5351 17.5974 22.3219 17.7592 22.1654C17.9211 22.009 18.1374 21.9215 18.3625 21.9215C18.5876 21.9215 18.8039 22.009 18.9658 22.1654C19.1276 22.3219 19.2224 22.5351 19.23 22.7601ZM21.726 25.1321C21.73 25.2485 21.7105 25.3645 21.6686 25.4732C21.6268 25.5819 21.5636 25.681 21.4826 25.7648C21.4017 25.8485 21.3047 25.9151 21.1975 25.9606C21.0903 26.0061 20.975 26.0295 20.8585 26.0295C20.742 26.0295 20.6268 26.0061 20.5195 25.9606C20.4123 25.9151 20.3154 25.8485 20.2344 25.7648C20.1535 25.681 20.0902 25.5819 20.0484 25.4732C20.0066 25.3645 19.9871 25.2485 19.991 25.1321C19.9987 24.9071 20.0934 24.6939 20.2552 24.5374C20.4171 24.381 20.6334 24.2935 20.8585 24.2935C21.0836 24.2935 21.2999 24.381 21.4618 24.5374C21.6236 24.6939 21.7184 24.9071 21.726 25.1321ZM12.226 25.1321C12.226 25.3623 12.1346 25.583 11.9718 25.7458C11.809 25.9086 11.5882 26.0001 11.358 26.0001C11.1278 26.0001 10.907 25.9086 10.7442 25.7458C10.5815 25.583 10.49 25.3623 10.49 25.1321C10.4977 24.9071 10.5924 24.6939 10.7542 24.5374C10.9161 24.381 11.1324 24.2935 11.3575 24.2935C11.5826 24.2935 11.7989 24.381 11.9608 24.5374C12.1226 24.6939 12.2174 24.9071 12.225 25.1321H12.226ZM10.109 18.3381C10.113 18.4545 10.0935 18.5705 10.0516 18.6792C10.0098 18.7879 9.94655 18.887 9.86561 18.9708C9.78466 19.0545 9.68769 19.1211 9.58047 19.1666C9.47325 19.2121 9.35798 19.2355 9.24151 19.2355C9.12504 19.2355 9.00977 19.2121 8.90255 19.1666C8.79533 19.1211 8.69836 19.0545 8.61741 18.9708C8.53647 18.887 8.47321 18.7879 8.43139 18.6792C8.38957 18.5705 8.37006 18.4545 8.37401 18.3381C8.38165 18.1131 8.47639 17.8999 8.63825 17.7434C8.8001 17.587 9.0164 17.4995 9.24151 17.4995C9.46662 17.4995 9.68292 17.587 9.84478 17.7434C10.0066 17.8999 10.1014 18.1131 10.109 18.3381ZM7.73501 20.8591C7.73896 20.9755 7.71945 21.0915 7.67763 21.2002C7.63582 21.3089 7.57255 21.408 7.49161 21.4918C7.41066 21.5755 7.31369 21.6421 7.20647 21.6876C7.09925 21.7331 6.98398 21.7565 6.86751 21.7565C6.75104 21.7565 6.63577 21.7331 6.52855 21.6876C6.42133 21.6421 6.32436 21.5755 6.24342 21.4918C6.16247 21.408 6.09921 21.3089 6.05739 21.2002C6.01557 21.0915 5.99606 20.9755 6.00001 20.8591C6.00765 20.6341 6.10239 20.4209 6.26425 20.2644C6.4261 20.108 6.6424 20.0205 6.86751 20.0205C7.09262 20.0205 7.30892 20.108 7.47078 20.2644C7.63263 20.4209 7.72737 20.6341 7.73501 20.8591Z" fill="white"/>
</g>
<defs>
<clipPath id="clip0_301_1022">
<rect width="32" height="32" fill="white"/>
</clipPath>
</defs>
</svg>
