<svg width="32" height="32" viewBox="0 0 32 32" fill="none" xmlns="http://www.w3.org/2000/svg">
<g clip-path="url(#clip0_301_1010)">
<path d="M16 32C24.8366 32 32 24.8366 32 16C32 7.16344 24.8366 0 16 0C7.16344 0 0 7.16344 0 16C0 24.8366 7.16344 32 16 32Z" fill="#EDE708"/>
<path d="M26.8798 13.35L27.3798 14.1C28.3798 11.58 28.1498 9.60998 27.2498 8.74998C25.6298 7.18998 23.2498 8.05998 20.6698 6.97998C18.5198 5.39998 17.2198 4.97998 15.4298 4.97998C14.2072 5.1903 13.0754 5.76143 12.1798 6.61998C11.4578 6.57775 10.7352 6.69268 10.0619 6.95682C9.38855 7.22097 8.78056 7.62805 8.27984 8.14998C7.21984 9.39998 6.97984 12.83 6.81984 13.7C6.65984 14.57 4.81984 18.08 5.00984 20C5.19984 21.92 6.60984 24 10.5998 24.49C11.3396 25.3492 12.2626 26.0315 13.301 26.4866C14.3394 26.9418 15.4667 27.1582 16.5998 27.12C18.6898 26.9 21.5998 23.7 23.2898 22.43C24.9798 21.16 30.9998 20.06 27.4098 14.15C27.256 13.8917 27.0891 13.6414 26.9098 13.4L26.8798 13.35ZM17.7498 22.15C16.2297 22.4448 14.6543 22.2008 13.2947 21.4598C11.935 20.7189 10.876 19.5273 10.2998 18.09C10.0798 17.23 9.64984 12.85 13.2998 10.68C16.0198 9.13998 19.8498 8.92998 21.4598 12.52C23.0698 16.11 22.4798 21.14 17.7498 22.15Z" fill="white"/>
</g>
<defs>
<clipPath id="clip0_301_1010">
<rect width="32" height="32" fill="white"/>
</clipPath>
</defs>
</svg>
