<svg width="32" height="32" viewBox="0 0 32 32" fill="none" xmlns="http://www.w3.org/2000/svg">
<g clip-path="url(#clip0_301_994)">
<path d="M16 32C24.8366 32 32 24.8366 32 16C32 7.16344 24.8366 0 16 0C7.16344 0 0 7.16344 0 16C0 24.8366 7.16344 32 16 32Z" fill="#ED79AA"/>
<path opacity="0.5" fill-rule="evenodd" clip-rule="evenodd" d="M23.452 8.929L21.582 10.812C20.9083 10.1306 20.1059 9.58975 19.2215 9.22084C18.3371 8.85194 17.3883 8.66233 16.43 8.663C12.515 8.663 9.32002 11.773 9.15202 15.673H9.14402V22.795C7.43919 20.9433 6.49508 18.517 6.50002 16C6.50002 10.477 10.946 6 16.43 6C17.7361 5.99908 19.0293 6.25751 20.2348 6.7603C21.4402 7.2631 22.5337 8.00026 23.452 8.929ZM23.452 23.071C21.6368 24.9075 19.1739 25.9591 16.592 26V23.336C18.471 23.2953 20.2605 22.5254 21.582 21.189L23.452 23.071Z" fill="white"/>
<path fill-rule="evenodd" clip-rule="evenodd" d="M11.6812 24.784V15.674H11.6882C11.8282 13.069 13.9702 11 16.5922 11C19.3042 11 21.5032 13.214 21.5032 15.946C21.5032 18.677 19.3042 20.891 16.5932 20.891C15.7197 20.8925 14.862 20.6586 14.1102 20.214V25.725C13.2623 25.5209 12.4455 25.2048 11.6812 24.785V24.784ZM16.5922 18.446C16.9194 18.445 17.2432 18.3794 17.545 18.2532C17.8469 18.127 18.121 17.9426 18.3516 17.7104C18.5822 17.4782 18.7647 17.2029 18.8889 16.9002C19.013 16.5974 19.0763 16.2732 19.0752 15.946C19.0752 14.565 17.9632 13.446 16.5922 13.446C16.265 13.4472 15.9413 13.5128 15.6396 13.6391C15.3378 13.7653 15.0639 13.9498 14.8334 14.182C14.6029 14.4141 14.4204 14.6894 14.2963 14.992C14.1722 15.2947 14.109 15.6189 14.1102 15.946C14.1102 17.326 15.2212 18.446 16.5922 18.446Z" fill="white"/>
</g>
<defs>
<clipPath id="clip0_301_994">
<rect width="32" height="32" fill="white"/>
</clipPath>
</defs>
</svg>
