<svg width="32" height="32" viewBox="0 0 32 32" fill="none" xmlns="http://www.w3.org/2000/svg">
<g clip-path="url(#clip0_301_990)">
<path d="M16 32C24.8366 32 32 24.8366 32 16C32 7.16344 24.8366 0 16 0C7.16344 0 0 7.16344 0 16C0 24.8366 7.16344 32 16 32Z" fill="#96B73D"/>
<path d="M11.5941 16.1051C11.6801 16.3631 11.8071 16.6051 11.9711 16.8231L9.47807 14.3051C9.21829 14.043 9.07253 13.689 9.07253 13.3201C9.07253 12.9511 9.21829 12.5971 9.47807 12.3351L12.6231 9.18806C12.6881 9.14006 12.7501 9.08806 12.8101 9.03406L12.9011 8.95406L15.4481 6.40506C15.5762 6.27642 15.7285 6.17441 15.8962 6.10489C16.0639 6.03537 16.2437 5.99972 16.4252 6C16.6067 6.00028 16.7864 6.03648 16.9539 6.10651C17.1214 6.17655 17.2734 6.27903 17.4011 6.40806L25.7441 14.8111C25.9342 15.0813 26.0233 15.4097 25.9957 15.739C25.9681 16.0682 25.8256 16.3773 25.5931 16.6121C25.3636 16.8435 25.0616 16.9891 24.7376 17.0246C24.4136 17.0601 24.0872 16.9833 23.8131 16.8071L16.4431 9.36706L16.4351 9.35706L16.4111 9.33106L12.4681 13.2751L12.4081 13.3251C12.4058 13.3278 12.4034 13.3304 12.4011 13.3331L16.2971 17.2601C16.4686 17.4334 16.5918 17.6486 16.6546 17.8842C16.7173 18.1199 16.7173 18.3679 16.6547 18.6036C16.592 18.8392 16.4688 19.0544 16.2974 19.2278C16.1259 19.4012 15.912 19.5268 15.6771 19.5921C15.4422 19.6553 15.1947 19.6553 14.9599 19.5919C14.725 19.5285 14.5112 19.404 14.3401 19.2311L12.3441 17.2211C12.3151 17.1951 12.2861 17.1611 12.2501 17.1251L12.1581 17.0331C12.0912 16.9578 12.0287 16.8786 11.9711 16.7961L12.0161 16.8491L11.9861 16.8101C11.8186 16.5975 11.6862 16.3595 11.5941 16.1051ZM19.7401 18.6781L15.8391 14.7491C15.5793 14.487 15.4335 14.133 15.4335 13.7641C15.4335 13.3951 15.5793 13.0411 15.8391 12.7791C15.9674 12.6503 16.12 12.5482 16.288 12.4786C16.456 12.4091 16.6361 12.3735 16.8179 12.3738C16.9997 12.3742 17.1797 12.4106 17.3474 12.4808C17.5151 12.551 17.6672 12.6538 17.7951 12.7831L19.7921 14.7931C19.8201 14.8181 19.8491 14.8531 19.8861 14.8881L19.9771 14.9801C20.0291 15.0381 20.0771 15.1001 20.1211 15.1631L20.1431 15.1901C20.115 15.15 20.0863 15.1103 20.0571 15.0711L22.6671 17.6981C22.9272 17.9603 23.0732 18.3147 23.0732 18.6841C23.0732 19.0534 22.9272 19.4078 22.6671 19.6701L19.5201 22.8181C19.4542 22.8651 19.3908 22.9155 19.3301 22.9691L16.7061 25.5931C16.5781 25.722 16.426 25.8244 16.2583 25.8943C16.0906 25.9641 15.9107 26.0001 15.7291 26.0001C15.5474 26.0001 15.3675 25.9641 15.1999 25.8943C15.0322 25.8244 14.88 25.722 14.7521 25.5931L6.27507 17.0461C6.06852 16.7658 5.97312 16.419 6.00729 16.0725C6.04145 15.7261 6.20276 15.4046 6.46007 15.1701C6.71655 14.9368 7.05131 14.8083 7.39801 14.8102C7.74472 14.812 8.07808 14.944 8.33207 15.1801L15.7161 22.6351L15.7411 22.6651L19.6761 18.7311L19.7341 18.6841C19.736 18.682 19.738 18.68 19.7401 18.6781Z" fill="white"/>
</g>
<defs>
<clipPath id="clip0_301_990">
<rect width="32" height="32" fill="white"/>
</clipPath>
</defs>
</svg>
