<svg width="32" height="32" viewBox="0 0 32 32" fill="none" xmlns="http://www.w3.org/2000/svg">
<g clip-path="url(#clip0_301_958)">
<path d="M16 32C24.8366 32 32 24.8366 32 16C32 7.16344 24.8366 0 16 0C7.16344 0 0 7.16344 0 16C0 24.8366 7.16344 32 16 32Z" fill="#05BCA9"/>
<path fill-rule="evenodd" clip-rule="evenodd" d="M27.9951 15.9541C28.0052 15.9998 27.9994 16.0476 27.9787 16.0896C27.958 16.1316 27.9236 16.1653 27.8811 16.1851L27.8051 16.2211L25.4991 18.5331L26.3931 21.8781C26.4072 21.9307 26.3999 21.9868 26.3727 22.034C26.3455 22.0813 26.3007 22.1158 26.2481 22.1301L23.0391 22.9911L22.1541 26.3011C22.1403 26.3536 22.1062 26.3984 22.0593 26.4258C22.0125 26.4531 21.9566 26.4608 21.9041 26.4471L18.5141 25.5371L16.1161 27.9401C16.0972 27.9593 16.0746 27.9745 16.0497 27.9849C16.0248 27.9953 15.9981 28.0006 15.9711 28.0006C15.9442 28.0006 15.9175 27.9953 15.8926 27.9849C15.8677 27.9745 15.8451 27.9593 15.8261 27.9401L13.4571 25.5651L10.1751 26.4471C10.1492 26.454 10.1222 26.4558 10.0955 26.4523C10.0689 26.4487 10.0433 26.44 10.02 26.4265C9.99681 26.413 9.97647 26.3951 9.96019 26.3738C9.9439 26.3524 9.93199 26.3281 9.92514 26.3021L9.03914 22.9921L5.83114 22.1301C5.80503 22.1231 5.78056 22.1111 5.75912 22.0946C5.73769 22.0782 5.71971 22.0577 5.70624 22.0342C5.69276 22.0108 5.68405 21.985 5.6806 21.9582C5.67715 21.9314 5.67903 21.9042 5.68614 21.8781L6.55114 18.6411L4.06114 16.1441C4.02291 16.1055 4.00146 16.0534 4.00146 15.9991C4.00146 15.9448 4.02291 15.8927 4.06114 15.8541L6.48214 13.4251L5.61714 10.1891C5.6031 10.1363 5.61059 10.0801 5.63797 10.0329C5.66535 9.98562 5.71037 9.95117 5.76314 9.9371L9.11814 9.0351L9.99214 5.7651C10.0062 5.71233 10.0407 5.6673 10.0879 5.63993C10.1352 5.61255 10.1914 5.60506 10.2441 5.6191L13.4181 6.4721L15.8261 4.0581C15.8652 4.02081 15.9171 4 15.9711 4C16.0251 4 16.0771 4.02081 16.1161 4.0581L18.5531 6.5001L21.8351 5.6181C21.8612 5.61116 21.8884 5.60943 21.9151 5.61302C21.9419 5.6166 21.9676 5.62543 21.9909 5.63899C22.0143 5.65256 22.0347 5.67059 22.051 5.69206C22.0673 5.71352 22.0793 5.73801 22.0861 5.7641L22.1091 5.8501C22.1142 5.86302 22.1178 5.87642 22.1201 5.8901L22.9601 9.0341L26.3161 9.9361C26.4261 9.9661 26.4901 10.0781 26.4611 10.1881L25.5671 13.5321L27.8241 15.7951C27.8653 15.801 27.9037 15.8192 27.9342 15.8475C27.9648 15.8757 27.986 15.9125 27.9951 15.9531V15.9541ZM25.3761 18.0741L26.7221 16.7261L25.2051 17.4331L25.3761 18.0751V18.0741ZM25.8671 21.5011L25.1641 18.8691L23.7671 20.2691V20.2701L25.8671 21.5011ZM23.6571 20.6811L23.1621 22.5331L25.6671 21.8601L23.6571 20.6821V20.6811ZM21.8591 25.8171L22.5821 23.1141L20.6081 23.6441L21.8591 25.8171ZM19.3551 24.6921L18.8481 25.2011L20.8371 25.7351L19.3551 24.6921ZM16.1761 27.2981L18.0561 25.4131L16.1761 24.9081V27.2981ZM15.7661 24.9451L13.9151 25.4421L15.7651 27.2981V24.9451H15.7661ZM10.5771 25.9131L13.1231 25.2301L11.7591 23.8621L10.5771 25.9131ZM9.49714 23.1141L10.0621 25.2281L10.2321 23.3121L9.49714 23.1141ZM6.40714 21.8591L8.91714 22.5331L8.41714 20.6661L6.40714 21.8591ZM8.21414 20.3091L6.88614 18.9771L6.21214 21.4971L8.21414 20.3091ZM4.73414 16.2391L6.67414 18.1831L7.19314 16.2391H4.73414ZM6.81414 14.6641L6.60514 13.8841L4.97114 15.5221L6.81414 14.6641ZM6.14214 10.5621L6.81714 13.0891L8.16714 11.7361L6.14214 10.5621ZM8.48014 11.4221L8.99614 9.4941L6.34614 10.2061L8.46714 11.4351L8.48014 11.4221ZM10.2521 6.3821L9.57614 8.9121L11.4231 8.4161L10.2521 6.3831V6.3821ZM12.5941 7.2981L13.0831 6.8081L11.1671 6.2931L12.5941 7.2981ZM15.7661 4.7001L13.8761 6.5951L15.7661 7.1031V4.7001ZM16.1761 7.1401L18.0961 6.6241L16.1761 4.7001V7.1401ZM21.5721 6.1161L18.8881 6.8361L20.3261 8.2791L21.5721 6.1161ZM21.8751 8.7441L22.5031 8.9121L22.0201 7.1051L21.8751 8.7441ZM25.7251 10.2041L23.0831 9.4941L23.5931 11.4061L25.7241 10.2031L25.7251 10.2041ZM23.8001 11.7611L25.2321 13.1961L25.9391 10.5531L23.8001 11.7611ZM27.2421 15.7921L25.4451 13.9911L24.9631 15.7921H27.2421ZM24.8761 16.2031L25.0961 17.0281L26.8671 16.2031H24.8771H24.8761ZM24.5661 17.2751L24.7191 17.2051L24.6521 16.9551L24.5671 17.2751H24.5661ZM24.4281 17.7931L23.9781 19.4741L25.0411 18.4091L24.8271 17.6071L24.4281 17.7931ZM23.1871 20.8501L20.9041 23.1381L22.7041 22.6551L23.1871 20.8501ZM20.3201 23.1431L23.3991 20.0561L23.9431 18.0191L18.7601 20.4341L20.3201 23.1431ZM20.2321 23.8131L19.6501 24.3961L21.1941 25.4831L20.2321 23.8131ZM19.1411 24.0381L19.3091 24.1561L19.5321 23.9321L19.1411 24.0381ZM18.6241 24.1761L16.8321 24.6581L18.3911 25.0771L19.0151 24.4511L18.6251 24.1761H18.6241ZM15.2471 24.6581L12.3601 23.8821L13.5801 25.1061L15.2471 24.6581ZM10.6901 22.7901L10.6701 23.0031L10.9871 23.0881L10.6901 22.7901ZM10.3111 22.4101L8.94214 21.0401L9.37414 22.6571L10.2691 22.8971L10.3111 22.4121V22.4101ZM8.15014 19.6631L7.42614 16.9551L7.00814 18.5181L8.15014 19.6631ZM7.12514 15.8281L6.92114 15.0671L5.28814 15.8271H7.12514V15.8281ZM7.58914 14.7551L7.29914 14.8911L7.42614 15.3671L7.58914 14.7551ZM7.72814 14.2381L8.26814 12.2161L6.94014 13.5481L7.19114 14.4881L7.72814 14.2381ZM9.06014 10.8401L10.9191 8.9771L9.45314 9.3711L9.06014 10.8411V10.8401ZM11.7441 8.15009L12.3001 7.5931L10.8241 6.5541L11.7441 8.15009ZM12.9041 8.0181L12.6411 7.8331L12.2911 8.18309L12.9041 8.0181ZM13.4211 7.8791L15.2471 7.3891L13.5411 6.9311L12.9351 7.5371L13.4211 7.8791ZM16.8311 7.3891L19.6011 8.1331L18.4311 6.9601L16.8311 7.3891ZM21.4081 9.3631L21.4361 9.0511L20.9731 8.9271L21.4081 9.3631ZM21.7861 9.7431L23.0681 11.0281L22.6251 9.3711L21.8381 9.1591L21.7861 9.7431ZM23.8601 12.4031L24.6521 15.3671L25.1101 13.6561L23.8601 12.4041V12.4031ZM18.0861 19.2641L18.5541 20.0771L24.0821 17.5021L24.4291 16.2041H21.2141L21.0511 18.0381C21.0473 18.0812 21.0298 18.1219 21.0014 18.1545C20.9729 18.1871 20.9349 18.2099 20.8927 18.2195C20.8505 18.2292 20.8064 18.2252 20.7666 18.2083C20.7268 18.1913 20.6934 18.1622 20.6711 18.1251L19.6731 16.4351L18.0861 19.2641ZM17.3021 20.6611L18.1811 20.2511L17.8521 19.6811L17.3021 20.6611ZM13.8161 20.2911L18.7031 23.7311L19.9861 23.3861L18.3861 20.6091L16.8981 21.3031C16.8586 21.3218 16.8142 21.3273 16.7713 21.3189C16.7284 21.3105 16.6893 21.2887 16.6597 21.2565C16.6302 21.2244 16.6116 21.1836 16.6068 21.1402C16.602 21.0967 16.6113 21.0529 16.6331 21.0151L17.5661 19.3521L14.3361 19.3881L13.8161 20.2901V20.2911ZM13.6101 20.6481L12.0401 23.3721L16.0401 24.4461L18.1861 23.8691L13.6101 20.6481ZM13.8591 19.3931L12.5621 19.4081L13.4791 20.0531L13.8591 19.3931ZM11.2691 16.2391L10.7371 22.2571L11.6711 23.1921L13.2731 20.4101L11.8051 19.3781C11.7697 19.353 11.7431 19.3173 11.7292 19.2762C11.7153 19.235 11.7147 19.1905 11.7276 19.149C11.7404 19.1076 11.7661 19.0712 11.8008 19.0452C11.8356 19.0191 11.8777 19.0048 11.9211 19.0041L13.9051 18.9811L12.2851 16.2391H11.2701H11.2691ZM10.8591 16.2391H7.65914L8.72914 20.2441L10.3591 21.8771L10.8591 16.2391ZM12.0411 15.8281L11.4021 14.7461L11.3061 15.8281H12.0411ZM13.4911 12.0061L8.07514 14.5301L7.72814 15.8281H10.8951L11.0501 14.0741C11.0546 14.0314 11.0723 13.9911 11.1008 13.959C11.1293 13.9268 11.1672 13.9044 11.209 13.8948C11.2509 13.8852 11.2948 13.8889 11.3344 13.9055C11.374 13.922 11.4075 13.9506 11.4301 13.9871L12.4331 15.6841L14.0001 12.8911L13.4901 12.0061H13.4911ZM13.2851 11.6491L11.6551 8.8201L8.84814 11.6351L8.21314 14.0121L13.2851 11.6491ZM18.2921 11.8111L13.3421 8.3261L12.0461 8.6751L13.6581 11.4751L15.2581 10.7291C15.2977 10.7104 15.3421 10.7049 15.385 10.7133C15.4279 10.7216 15.4669 10.7435 15.4965 10.7757C15.5261 10.8078 15.5447 10.8486 15.5494 10.892C15.5542 10.9354 15.545 10.9793 15.5231 11.0171L14.5871 12.6851L17.8091 12.6491L18.2921 11.8111ZM18.4981 11.4531L20.0891 8.69009L16.0391 7.6021L13.8591 8.1881L18.4981 11.4531ZM18.2861 12.6431L19.4561 12.6311L18.6291 12.0481L18.2861 12.6441V12.6431ZM20.8021 16.2041H20.0121L20.6991 17.3661L20.8021 16.2041ZM14.2341 12.4741L14.8541 11.3711L13.8641 11.8321L14.2341 12.4751V12.4741ZM17.7971 18.9411L19.4311 16.0271L17.6861 13.0731L17.6811 13.0621L14.3541 13.0991L12.6741 16.0931L14.3791 18.9761L17.7771 18.9381C17.7841 18.9381 17.7901 18.9401 17.7971 18.9411ZM21.7391 10.2771L21.2501 15.7931H24.3421L23.2801 11.8231L21.7391 10.2771ZM20.8391 15.7931L21.3611 9.8971L20.4141 8.9481L18.8341 11.6901L20.2141 12.6601C20.25 12.6851 20.277 12.7208 20.2912 12.7621C20.3054 12.8035 20.3061 12.8482 20.2932 12.89C20.2802 12.9317 20.2544 12.9683 20.2193 12.9944C20.1843 13.0205 20.1418 13.0347 20.0981 13.0351L18.1531 13.0561L19.7701 15.7931H20.8381H20.8391ZM21.4721 8.6361L21.6321 6.8331L20.7121 8.4311L21.4721 8.6361ZM10.6341 23.4201L10.4691 25.2781L11.4191 23.6301L10.6341 23.4201Z" fill="white"/>
</g>
<defs>
<clipPath id="clip0_301_958">
<rect width="32" height="32" fill="white"/>
</clipPath>
</defs>
</svg>
