<svg width="32" height="32" viewBox="0 0 32 32" fill="none" xmlns="http://www.w3.org/2000/svg">
<g clip-path="url(#clip0_301_950)">
<path d="M16 32C24.8366 32 32 24.8366 32 16C32 7.16344 24.8366 0 16 0C7.16344 0 0 7.16344 0 16C0 24.8366 7.16344 32 16 32Z" fill="#348F8D"/>
<path d="M23.312 7.04374C23.5509 7.29161 23.6844 7.62247 23.6844 7.96674C23.6844 8.31101 23.5509 8.64187 23.312 8.88974L20.1819 12.0987C20.0825 12.2004 19.9669 12.2848 19.84 12.3487C19.6102 12.4784 19.3439 12.528 19.0829 12.4898C18.8219 12.4516 18.5809 12.3278 18.398 12.1377L15.28 8.94374L9.27495 15.1027L10.725 16.5857C10.933 16.8045 11.0485 17.0952 11.0472 17.3971C11.0459 17.6991 10.9279 17.9888 10.718 18.2057C10.6155 18.3117 10.4928 18.3961 10.3572 18.454C10.2216 18.5119 10.0758 18.542 9.92843 18.5427C9.781 18.5433 9.63494 18.5145 9.49884 18.4578C9.36274 18.4011 9.23936 18.3178 9.13595 18.2127L6.82995 15.8597C6.61831 15.6408 6.5 15.3482 6.5 15.0437C6.5 14.7392 6.61831 14.4467 6.82995 14.2277L6.84595 14.2127C6.85087 14.208 6.85555 14.203 6.85995 14.1977L14.484 6.37774H14.485L14.486 6.37674L14.511 6.35074C14.7012 6.153 14.9561 6.03003 15.2293 6.00416C15.5025 5.97829 15.7759 6.05123 16 6.20974C16.0719 6.25874 16.14 6.31374 16.2 6.37674L19.184 9.42974L21.511 7.04374C21.6279 6.92308 21.768 6.82715 21.9228 6.76164C22.0775 6.69612 22.2439 6.66237 22.412 6.66237C22.58 6.66237 22.7464 6.69612 22.9011 6.76164C23.0559 6.82715 23.196 6.92308 23.313 7.04374H23.312ZM25.17 16.1457C25.3823 16.3632 25.5013 16.6551 25.5015 16.959C25.5017 17.263 25.3831 17.555 25.1709 17.7727L25.155 17.7877C25.1497 17.7925 25.1447 17.7975 25.1399 17.8027L17.486 25.6497C17.3696 25.7703 17.2283 25.864 17.0719 25.9241C16.9156 25.9843 16.7479 26.0095 16.5808 25.9979C16.4136 25.9864 16.251 25.9384 16.1044 25.8574C15.9577 25.7763 15.8306 25.6642 15.732 25.5287L12.8149 22.5447L10.502 24.9227C10.18 25.2547 9.70995 25.3857 9.26895 25.2647C8.82795 25.1437 8.48295 24.7917 8.36495 24.3397C8.24795 23.8887 8.37495 23.4067 8.69995 23.0777L11.829 19.8697C12.007 19.6837 12.236 19.5577 12.486 19.5077C12.89 19.4177 13.3119 19.5437 13.6049 19.8437L16.731 23.0417L22.725 16.8977L21.275 15.4147C21.0669 15.196 20.9514 14.9052 20.9527 14.6033C20.954 14.3014 21.072 14.0117 21.2819 13.7947C21.3844 13.6888 21.5071 13.6043 21.6427 13.5465C21.7783 13.4886 21.9241 13.4585 22.0715 13.4578C22.2189 13.4572 22.365 13.486 22.5011 13.5427C22.6372 13.5993 22.7605 13.6827 22.864 13.7877L25.1369 16.1127L25.139 16.1147L25.142 16.1167L25.17 16.1457Z" fill="white"/>
</g>
<defs>
<clipPath id="clip0_301_950">
<rect width="32" height="32" fill="white"/>
</clipPath>
</defs>
</svg>
