<svg width="32" height="32" viewBox="0 0 32 32" fill="none" xmlns="http://www.w3.org/2000/svg">
<g clip-path="url(#clip0_301_946)">
<path d="M16 32C24.8366 32 32 24.8366 32 16C32 7.16344 24.8366 0 16 0C7.16344 0 0 7.16344 0 16C0 24.8366 7.16344 32 16 32Z" fill="#152743"/>
<path d="M16.0489 8.31604C14.7329 8.31604 13.6659 7.58304 13.6659 6.67804C13.6659 5.77304 14.7329 5.04004 16.0489 5.04004C17.3649 5.04004 18.4309 5.77304 18.4309 6.67804C18.4309 7.58304 17.3649 8.31604 16.0489 8.31604ZM14.8159 26.6V9.10404H20.1279C20.3249 9.10404 20.4639 9.25104 20.4639 9.44804V19.156C20.4639 19.352 20.3239 19.52 20.1279 19.52H17.1999V26.6C17.1999 26.797 17.0499 26.976 16.8529 26.976H15.1849C15.0872 26.9722 14.9946 26.9313 14.9261 26.8617C14.8575 26.792 14.8181 26.6988 14.8159 26.601V26.6ZM13.9199 19.519H11.9099C11.8127 19.5181 11.7196 19.4797 11.65 19.4119C11.5803 19.3442 11.5395 19.2522 11.5359 19.155V9.44804C11.5359 9.25104 11.7129 9.10404 11.9089 9.10404H13.9199V19.52V19.519Z" fill="white"/>
</g>
<defs>
<clipPath id="clip0_301_946">
<rect width="32" height="32" fill="white"/>
</clipPath>
</defs>
</svg>
