<svg width="32" height="32" viewBox="0 0 32 32" fill="none" xmlns="http://www.w3.org/2000/svg">
<g clip-path="url(#clip0_301_939)">
<path d="M16 32C24.8366 32 32 24.8366 32 16C32 7.16344 24.8366 0 16 0C7.16344 0 0 7.16344 0 16C0 24.8366 7.16344 32 16 32Z" fill="#3A8CBD"/>
<path d="M13.47 18.0453H15.148C15.6274 18.0468 16.1012 17.9416 16.535 17.7373C16.945 17.5343 17.311 17.2533 17.612 16.9093C17.911 16.5533 18.142 16.1463 18.296 15.7083C18.4618 15.2644 18.5459 14.7941 18.544 14.3203C18.5466 13.8579 18.4547 13.3999 18.274 12.9743C18.1005 12.5431 17.8558 12.1442 17.55 11.7943C17.2418 11.4438 16.869 11.1559 16.452 10.9463C16.0243 10.7252 15.5494 10.6113 15.068 10.6143H10.658V21.3173H13.474L13.47 18.0453ZM13.47 13.1993H14.897C15.0953 13.2123 15.2809 13.3015 15.415 13.4483C15.581 13.6133 15.685 13.9043 15.685 14.3593C15.685 14.8143 15.582 15.0843 15.435 15.2313C15.312 15.3763 15.146 15.4793 14.96 15.4793H13.47V13.2003V13.1993Z" fill="white"/>
<path d="M7.02295 8.03002V23.918C7.02295 24.488 7.48395 24.948 8.05295 24.948H23.9409C24.5099 24.948 24.9709 24.488 24.9709 23.918V8.03002C24.9711 7.89468 24.9445 7.76063 24.8928 7.63555C24.8411 7.51047 24.7653 7.39681 24.6696 7.30106C24.574 7.20531 24.4604 7.12935 24.3353 7.07752C24.2103 7.0257 24.0763 6.99902 23.9409 6.99902H8.05295C7.91769 6.99902 7.78375 7.02567 7.65879 7.07743C7.53382 7.12919 7.42027 7.20506 7.32463 7.3007C7.22898 7.39635 7.15312 7.50989 7.10135 7.63486C7.04959 7.75982 7.02295 7.89376 7.02295 8.02902V8.03002ZM21.8259 22.834H10.1459C10.0106 22.8342 9.87656 22.8076 9.75148 22.7559C9.6264 22.7042 9.51273 22.6284 9.41698 22.5327C9.32123 22.437 9.24527 22.3234 9.19345 22.1984C9.14162 22.0734 9.11495 21.9394 9.11495 21.804V10.124C9.11482 9.98859 9.1414 9.85447 9.19316 9.72932C9.24493 9.60417 9.32087 9.49047 9.41663 9.3947C9.51239 9.29894 9.6261 9.223 9.75125 9.17124C9.87639 9.11947 10.0105 9.09289 10.1459 9.09302H21.8259C22.3959 9.09302 22.8559 9.55402 22.8559 10.123V21.803C22.8559 22.373 22.3959 22.834 21.8259 22.834Z" fill="white"/>
<path d="M14.7329 19.3087H21.3399V21.3387H14.7329V19.3087Z" fill="white"/>
</g>
<defs>
<clipPath id="clip0_301_939">
<rect width="32" height="32" fill="white"/>
</clipPath>
</defs>
</svg>
