<svg width="32" height="32" viewBox="0 0 32 32" fill="none" xmlns="http://www.w3.org/2000/svg">
<g clip-path="url(#clip0_301_935)">
<path d="M16 32C24.8366 32 32 24.8366 32 16C32 7.16344 24.8366 0 16 0C7.16344 0 0 7.16344 0 16C0 24.8366 7.16344 32 16 32Z" fill="#1061E3"/>
<path fill-rule="evenodd" clip-rule="evenodd" d="M24.281 20.8667C24.365 21.7277 24.096 22.5777 23.263 23.1297C22.864 23.3947 22.419 23.4997 21.941 23.4997C17.981 23.4977 14.021 23.4987 10.061 23.4977C9.97427 23.4977 9.88757 23.4954 9.80098 23.4907C8.93298 23.4437 8.11298 22.8147 7.83298 21.9937C7.70898 21.6307 7.68998 21.2587 7.70498 20.8667H10.115C10.347 20.8657 10.501 20.6967 10.449 20.4857C10.4218 20.4039 10.3739 20.3306 10.31 20.2727C9.32698 19.2907 8.34098 18.3127 7.35598 17.3327L6.45398 16.4347C6.11498 16.0997 5.95198 15.6947 6.01198 15.2227C6.04198 14.9907 6.11698 14.7627 6.19198 14.5387C6.61291 13.2699 7.2815 12.0973 8.15898 11.0887C9.40194 9.64229 11.0232 8.57058 12.841 7.99374C14.0244 7.60641 15.2699 7.44461 16.513 7.51674C19.449 7.69274 21.894 8.88674 23.832 11.0877C24.8235 12.2133 25.5451 13.5502 25.942 14.9967C26.092 15.5357 25.95 16.0207 25.551 16.4177C24.801 17.1657 24.045 17.9077 23.292 18.6527C22.739 19.1997 22.187 19.7487 21.635 20.2977C21.453 20.4777 21.471 20.7177 21.679 20.8247C21.739 20.8547 21.814 20.8647 21.882 20.8647C22.642 20.8677 23.403 20.8667 24.164 20.8667H24.281ZM8.44198 21.4067C8.45298 21.7287 8.53898 22.0147 8.72698 22.2647C9.03898 22.6807 9.45998 22.8767 9.98198 22.8757H22.01C22.057 22.8757 22.104 22.8737 22.15 22.8707C22.3715 22.8623 22.588 22.8028 22.7828 22.697C22.9776 22.5912 23.1453 22.4419 23.273 22.2607C23.459 22.0107 23.546 21.7247 23.551 21.4077L8.44198 21.4067ZM18.71 13.6597C18.739 13.6787 18.76 13.6897 18.777 13.7027C19.765 14.4387 20.391 15.4027 20.629 16.6097C20.759 17.2657 20.741 17.9197 20.587 18.5707C20.4466 19.1621 20.1918 19.7203 19.837 20.2137C19.8036 20.2557 19.7801 20.3046 19.7683 20.3569C19.7566 20.4092 19.7568 20.4635 19.769 20.5157C19.838 20.7877 20.147 20.8757 20.351 20.6767C20.651 20.3857 20.944 20.0887 21.241 19.7947C22.437 18.6047 23.633 17.4157 24.83 16.2277C25.09 15.9697 25.204 15.6617 25.14 15.3017C25.111 15.1457 25.055 14.9937 25.002 14.8437C24.6136 13.7167 24.0431 12.661 23.313 11.7187C22.7544 10.9956 22.0903 10.3605 21.343 9.83474C21.3049 9.80737 21.2785 9.76668 21.269 9.72074C21.258 9.61467 21.2223 9.51265 21.1648 9.42287C21.1072 9.33309 21.0294 9.25805 20.9376 9.20379C20.8458 9.14953 20.7426 9.11755 20.6362 9.11042C20.5298 9.10329 20.4232 9.12121 20.325 9.16274C20.2842 9.17887 20.239 9.17923 20.198 9.16374C19.1439 8.662 18.0032 8.36733 16.838 8.29574C15.9118 8.22614 14.9805 8.27859 14.068 8.45174C13.3055 8.597 12.5653 8.84106 11.866 9.17774C11.8393 9.19291 11.8092 9.20088 11.7785 9.20088C11.7478 9.20088 11.7176 9.19291 11.691 9.17774C11.5909 9.12846 11.4801 9.10509 11.3686 9.10979C11.2572 9.11449 11.1487 9.1471 11.0532 9.20463C10.9576 9.26217 10.878 9.34278 10.8217 9.43907C10.7654 9.53536 10.7342 9.64425 10.731 9.75574C10.731 9.81574 10.709 9.85074 10.663 9.88674C10.357 10.1297 10.039 10.3607 9.75298 10.6257C8.40898 11.8707 7.49498 13.3897 6.90798 15.1127C6.75998 15.5487 6.85798 15.9227 7.18298 16.2457L10.743 19.7847C11.041 20.0817 11.338 20.3787 11.639 20.6737C11.812 20.8437 12.073 20.8137 12.186 20.6127C12.263 20.4737 12.244 20.3367 12.153 20.2087C11.6745 19.5464 11.3805 18.7689 11.301 17.9557C11.2313 17.2872 11.3098 16.6115 11.531 15.9767C11.581 15.8317 11.643 15.6897 11.702 15.5397L13.114 16.3697C12.8209 17.0786 12.7999 17.8707 13.0549 18.5942C13.31 19.3176 13.8231 19.9214 14.496 20.2897C15.1312 20.6377 15.8675 20.7543 16.5792 20.6197C17.2908 20.4851 17.9337 20.1076 18.398 19.5517C18.858 19.0047 19.102 18.3697 19.116 17.6547C19.136 16.5887 18.695 15.7387 17.866 15.0767L18.71 13.6597ZM23.375 16.6997C23.349 16.5337 23.325 16.3807 23.299 16.2277C23.2027 15.663 23.0375 15.1122 22.807 14.5877C22.782 14.5277 22.776 14.4817 22.806 14.4197C22.8454 14.3365 22.8671 14.246 22.8697 14.154C22.8723 14.0619 22.8558 13.9703 22.8211 13.8851C22.7863 13.7998 22.7343 13.7226 22.6682 13.6585C22.602 13.5944 22.5233 13.5448 22.437 13.5127C22.3523 13.4808 22.2621 13.4661 22.1717 13.4696C22.0812 13.4731 21.9924 13.4947 21.9105 13.5331C21.8285 13.5715 21.7551 13.6259 21.6945 13.6932C21.634 13.7605 21.5876 13.8392 21.558 13.9247C21.5285 14.0103 21.517 14.1009 21.5241 14.1911C21.5311 14.2812 21.5566 14.369 21.599 14.4489C21.6414 14.5288 21.6997 14.5991 21.7704 14.6555C21.8411 14.7119 21.9227 14.7532 22.01 14.7767C22.0574 14.7858 22.1014 14.8073 22.1377 14.8391C22.1739 14.871 22.2009 14.9119 22.216 14.9577C22.52 15.7027 22.689 16.4747 22.713 17.2777C22.715 17.3256 22.6993 17.3726 22.669 17.4097C22.212 17.8697 21.751 18.3257 21.292 18.7827C21.276 18.7977 21.257 18.8097 21.25 18.8167C21.688 16.6467 21.155 14.7657 19.412 13.3497C17.601 11.8797 15.583 11.7667 13.464 12.7227L12.817 11.6057C13.048 11.5027 13.27 11.3957 13.497 11.3017C14.0817 11.0683 14.6958 10.9169 15.322 10.8517C15.403 10.8427 15.462 10.8557 15.525 10.9197C15.5869 10.9835 15.6611 11.0342 15.7431 11.0686C15.825 11.103 15.9131 11.1205 16.002 11.1201C16.091 11.1196 16.1789 11.1012 16.2605 11.0659C16.3421 11.0306 16.4157 10.9792 16.477 10.9147C16.4981 10.8901 16.5252 10.8713 16.5556 10.8601C16.5861 10.8489 16.6189 10.8457 16.651 10.8507C18.184 11.0167 19.514 11.6187 20.636 12.6717C20.726 12.7567 20.811 12.8457 20.898 12.9337C21.053 13.0897 21.224 13.0937 21.382 12.9417L22.433 11.9247L22.531 11.8317C22.657 11.9917 22.784 12.1457 22.902 12.3057C23.5849 13.229 24.1087 14.2599 24.452 15.3557C24.4759 15.4202 24.48 15.4903 24.4638 15.5572C24.4476 15.624 24.4118 15.6844 24.361 15.7307L23.437 16.6497C23.421 16.6647 23.402 16.6767 23.375 16.6997ZM22.109 11.3897L21.211 12.2587C21.184 12.2357 21.159 12.2147 21.136 12.1927C20.2011 11.2931 19.0439 10.6581 17.783 10.3527C17.43 10.2667 17.065 10.2267 16.706 10.1687C16.643 10.1587 16.6 10.1457 16.561 10.0857C16.4991 9.99177 16.4149 9.91467 16.3158 9.86138C16.2167 9.80809 16.1059 9.78029 15.9934 9.78049C15.8809 9.78069 15.7703 9.80888 15.6714 9.86251C15.5725 9.91615 15.4885 9.99356 15.427 10.0877C15.397 10.1281 15.3526 10.1553 15.303 10.1637C12.989 10.4177 11.173 11.5017 9.84298 13.3957C9.82809 13.419 9.80811 13.4385 9.78455 13.4529C9.76098 13.4673 9.73446 13.4761 9.70698 13.4787C9.24098 13.5547 9.00398 14.0087 9.19698 14.4387C9.21214 14.4773 9.21214 14.5202 9.19698 14.5587C8.91716 15.1964 8.73025 15.871 8.64198 16.5617C8.63598 16.6047 8.62698 16.6467 8.61698 16.7057L8.53098 16.6257C8.24498 16.3407 7.96098 16.0527 7.67098 15.7717C7.53698 15.6417 7.49298 15.5037 7.55598 15.3217C8.22898 13.3917 9.29898 11.7397 10.966 10.5067C10.985 10.4927 11.005 10.4807 11.023 10.4657C11.083 10.4127 11.138 10.3977 11.227 10.4217C11.3166 10.4468 11.4105 10.4528 11.5026 10.4396C11.5947 10.4263 11.683 10.394 11.762 10.3447C11.8409 10.2954 11.9087 10.2302 11.961 10.1532C12.0134 10.0763 12.0491 9.98927 12.066 9.89774C12.071 9.87816 12.0799 9.85977 12.0921 9.84364C12.1043 9.8275 12.1195 9.81394 12.137 9.80374C12.5688 9.59075 13.0194 9.41802 13.483 9.28774C14.578 8.97674 15.696 8.89574 16.826 8.97674C17.8668 9.04279 18.8861 9.30328 19.831 9.74474C19.891 9.77274 19.921 9.80474 19.931 9.87474C19.9454 9.97589 19.9828 10.0724 20.0403 10.1568C20.0978 10.2413 20.1739 10.3115 20.2626 10.3621C20.3514 10.4126 20.4506 10.4422 20.5526 10.4486C20.6545 10.4549 20.7566 10.4379 20.851 10.3987C20.883 10.3867 20.934 10.3857 20.959 10.4027C21.368 10.6847 21.744 11.0047 22.091 11.3577C22.098 11.3647 22.101 11.3747 22.109 11.3897ZM18.445 17.5697C18.452 18.9007 17.355 19.9977 16.009 20.0057C15.3619 20.0076 14.7403 19.7533 14.2801 19.2984C13.82 18.8434 13.5585 18.2248 13.553 17.5777C13.547 16.2447 14.642 15.1507 15.991 15.1437C16.6379 15.14 17.2599 15.3934 17.7201 15.8481C18.1803 16.3029 18.441 16.9218 18.445 17.5687V17.5697ZM10.747 18.8337L10.115 18.1987C9.85498 17.9387 9.59298 17.6827 9.33498 17.4207C9.30145 17.3867 9.28153 17.3415 9.27898 17.2937C9.30288 16.4667 9.48199 15.6516 9.80698 14.8907C9.8153 14.8661 9.83024 14.8442 9.85016 14.8274C9.87009 14.8107 9.89425 14.7997 9.91998 14.7957C10.369 14.6907 10.578 14.2987 10.419 13.8707C10.409 13.8407 10.409 13.7957 10.424 13.7707C10.9154 13.0439 11.5463 12.4218 12.28 11.9407C12.283 11.9387 12.286 11.9387 12.3 11.9347L12.565 12.3867L13.121 13.3467C13.233 13.5427 13.379 13.5857 13.572 13.4687C14.0764 13.1629 14.6354 12.9577 15.218 12.8647C16.2196 12.6953 17.2491 12.8542 18.153 13.3177C18.162 13.3227 18.169 13.3297 18.187 13.3437L17.348 14.7507C15.763 14.1557 14.453 14.5107 13.395 15.8277L11.988 15.0007C12.114 14.8317 12.234 14.6687 12.357 14.5087C12.407 14.4427 12.465 14.3827 12.521 14.3207C12.607 14.2247 12.607 14.1707 12.519 14.0807C12.4416 14.0022 12.3636 13.9242 12.285 13.8467C12.179 13.7427 12.127 13.7427 12.027 13.8507C11.6003 14.3074 11.2577 14.8359 11.015 15.4117C10.6709 16.2185 10.534 17.0986 10.617 17.9717C10.643 18.2517 10.7 18.5287 10.747 18.8337ZM15.995 10.8237C15.8957 10.8217 15.8011 10.7813 15.731 10.711C15.6609 10.6407 15.6208 10.546 15.619 10.4467C15.6223 10.3476 15.6636 10.2535 15.7343 10.1839C15.805 10.1143 15.8998 10.0745 15.999 10.0727C16.0982 10.0751 16.1927 10.1157 16.2626 10.1862C16.3325 10.2567 16.3725 10.3515 16.374 10.4507C16.3719 10.5501 16.3311 10.6448 16.2604 10.7147C16.1896 10.7845 16.0944 10.824 15.995 10.8247V10.8237ZM11.395 9.40974C11.4444 9.40841 11.4936 9.41692 11.5396 9.43475C11.5857 9.45259 11.6278 9.47941 11.6634 9.51364C11.6991 9.54788 11.7276 9.58886 11.7472 9.6342C11.7669 9.67954 11.7773 9.72833 11.778 9.77774C11.778 9.878 11.7382 9.97414 11.6673 10.045C11.5964 10.1159 11.5002 10.1557 11.4 10.1557C11.2997 10.1557 11.2036 10.1159 11.1327 10.045C11.0618 9.97414 11.022 9.878 11.022 9.77774C11.023 9.67961 11.0628 9.58586 11.1327 9.51693C11.2026 9.448 11.2968 9.40947 11.395 9.40974ZM22.196 14.5097C22.1007 14.5058 22.0106 14.4654 21.9442 14.3968C21.8779 14.3283 21.8404 14.2369 21.8395 14.1416C21.8386 14.0462 21.8743 13.9541 21.9394 13.8844C22.0044 13.8146 22.0938 13.7725 22.189 13.7667C22.2378 13.7663 22.2862 13.7754 22.3314 13.7937C22.3767 13.8119 22.4179 13.8389 22.4527 13.8731C22.4875 13.9073 22.5153 13.9479 22.5344 13.9928C22.5535 14.0377 22.5635 14.086 22.564 14.1347C22.5644 14.1835 22.5553 14.2319 22.537 14.2772C22.5188 14.3224 22.4918 14.3636 22.4576 14.3985C22.4235 14.4333 22.3828 14.461 22.3379 14.4801C22.293 14.4992 22.2448 14.5093 22.196 14.5097ZM20.593 9.40974C20.806 9.40974 20.968 9.56974 20.967 9.78174C20.9667 9.87962 20.9278 9.97343 20.8587 10.0427C20.7896 10.112 20.6959 10.1512 20.598 10.1517C20.5487 10.1525 20.4997 10.1436 20.4539 10.1254C20.4081 10.1072 20.3664 10.0801 20.331 10.0458C20.2957 10.0114 20.2676 9.97034 20.2482 9.92503C20.2288 9.87973 20.2185 9.83103 20.218 9.78174C20.2173 9.7324 20.2266 9.68343 20.2452 9.63774C20.2638 9.59205 20.2914 9.55057 20.3264 9.51577C20.3614 9.48097 20.403 9.45356 20.4488 9.43517C20.4946 9.41679 20.5436 9.4078 20.593 9.40874V9.40974ZM10.175 14.1377C10.1753 14.187 10.1657 14.2358 10.1468 14.2814C10.128 14.3269 10.1002 14.3682 10.0652 14.4028C10.0302 14.4375 9.9886 14.4648 9.94288 14.4831C9.89716 14.5015 9.84824 14.5105 9.79898 14.5097C9.74964 14.5104 9.70067 14.5012 9.65497 14.4825C9.60928 14.4639 9.5678 14.4363 9.533 14.4013C9.4982 14.3663 9.4708 14.3247 9.45241 14.2789C9.43403 14.2331 9.42504 14.1841 9.42598 14.1347C9.42651 14.0368 9.46586 13.943 9.53541 13.8741C9.60496 13.8051 9.69902 13.7665 9.79698 13.7667C9.84629 13.7658 9.89528 13.7747 9.94111 13.793C9.98693 13.8112 10.0287 13.8384 10.0639 13.8729C10.099 13.9074 10.127 13.9487 10.1461 13.9941C10.1652 14.0396 10.175 14.0884 10.175 14.1377Z" fill="white"/>
</g>
<defs>
<clipPath id="clip0_301_935">
<rect width="32" height="32" fill="white"/>
</clipPath>
</defs>
</svg>
