<svg width="32" height="32" viewBox="0 0 32 32" fill="none" xmlns="http://www.w3.org/2000/svg">
<g clip-path="url(#clip0_301_930)">
<path d="M16 32C24.8366 32 32 24.8366 32 16C32 7.16344 24.8366 0 16 0C7.16344 0 0 7.16344 0 16C0 24.8366 7.16344 32 16 32Z" fill="#1A53F0"/>
<path d="M19.8719 11.3454C19.7818 11.3454 19.7003 11.3222 19.6261 11.3222C18.3359 11.3222 17.0443 11.3222 15.7541 11.3134C15.4836 11.3134 15.3934 11.3949 15.3934 11.664C15.4021 13.1593 15.4108 14.6545 15.3934 16.1425C15.3934 16.4334 15.5083 16.5105 15.7788 16.5105C17.2159 16.5105 18.6545 16.5338 20.0916 16.5105C20.493 16.5018 20.6312 16.656 20.6312 17.0167V19.3367C20.6312 19.7949 20.2472 19.5491 20.0348 19.6887C20.0188 19.8342 19.9941 19.9985 19.9694 20.2196H12.509C12.125 20.2196 11.7483 20.2604 11.9127 19.664C11.7076 19.6393 11.5694 19.6233 11.3803 19.6058V11.7309C11.5607 11.7062 11.7323 11.6902 11.9287 11.6654V9.40217H9.65812V11.6567C9.74602 11.6828 9.83701 11.697 9.92867 11.6989C10.1323 11.6902 10.2196 11.7629 10.2196 11.9898C10.2108 13.0196 10.2196 14.0567 10.2036 15.0865C10.2036 15.1854 10.0581 15.3644 9.97376 15.3644C8.29085 15.3731 6.60794 15.3644 4.92503 15.3556C4.88685 15.3467 4.85078 15.3304 4.81885 15.3076C4.85085 9.98835 9.81958 4.8349 15.3992 4.79126V5.30617C15.3992 6.71999 15.4152 8.13381 15.3992 9.5389C15.3992 9.89817 15.5141 10.0044 15.8647 10.0044C17.0574 9.98787 18.253 9.98787 19.4516 10.0044C19.7628 10.0044 19.9505 9.94762 19.9098 9.58835C19.8763 9.31053 20.0407 9.24508 20.285 9.25235C20.8814 9.26981 21.4778 9.28581 22.0741 9.28581C22.3519 9.28581 22.4581 9.38326 22.4508 9.66981C22.4348 10.3636 22.4348 11.0589 22.4508 11.7454C22.4508 12.0364 22.3287 12.08 22.0828 12.0713C21.501 12.0553 20.9192 12.0465 20.3374 12.0713C19.9781 12.0887 19.8312 11.9651 19.901 11.6058C19.906 11.518 19.8961 11.43 19.8719 11.3454Z" fill="white"/>
<path d="M19.9855 21.3309C20.003 21.5433 20.0103 21.7149 20.0263 21.9127H22.2895V19.6364C21.6699 19.7673 21.7354 19.3455 21.7426 18.9586C21.7514 18.2633 21.7514 17.5695 21.7426 16.8829C21.7426 16.6211 21.8168 16.5149 22.0859 16.5149C23.6714 16.5237 25.2641 16.5237 26.8495 16.5149C27.331 16.5149 27.1841 16.8582 27.1594 17.0866C27.0001 18.6959 26.4811 20.2488 25.6408 21.6306C23.7121 24.768 20.9092 26.576 17.2655 27.104C17.2001 27.1127 17.1201 27.1127 17.0605 27.12C16.5543 27.1375 16.563 27.1375 16.563 26.6298C16.5698 25.0279 16.5698 23.4279 16.563 21.8298C16.563 21.4458 16.6445 21.2742 17.0852 21.2989C17.8706 21.3396 18.6619 21.3077 19.4474 21.3077C19.6263 21.3062 19.7979 21.3236 19.9855 21.3309Z" fill="white"/>
<path d="M9.60021 21.92H11.8809C11.8778 21.8088 11.8946 21.698 11.9304 21.5927C12.0031 21.4793 12.1268 21.3236 12.2329 21.3236C13.1958 21.2994 14.1597 21.2994 15.1246 21.3236C15.1863 21.3397 15.2428 21.3715 15.2887 21.4158C15.3345 21.4602 15.3682 21.5156 15.3864 21.5767C15.3932 23.3813 15.3932 25.1869 15.3864 26.9934C15.3684 27.0702 15.341 27.1444 15.3049 27.2145C14.5195 27.0589 13.6948 26.9687 12.918 26.7243C8.93112 25.4822 6.3493 22.8262 5.15657 18.832C4.96021 18.2022 4.91221 17.5316 4.80021 16.8727C4.75076 16.6036 4.84967 16.48 5.15076 16.4887C6.72894 16.5047 8.29694 16.5134 9.87367 16.5047C10.1646 16.5047 10.2504 16.6109 10.2417 16.8887C10.2257 17.5505 10.2329 18.2211 10.2329 18.8829C10.2329 19.5447 10.2329 19.5447 9.60457 19.6582L9.60021 21.92Z" fill="white"/>
</g>
<defs>
<clipPath id="clip0_301_930">
<rect width="32" height="32" fill="white"/>
</clipPath>
</defs>
</svg>
