<svg width="32" height="32" viewBox="0 0 32 32" fill="none" xmlns="http://www.w3.org/2000/svg">
<g clip-path="url(#clip0_301_924)">
<path d="M16 32C24.8366 32 32 24.8366 32 16C32 7.16344 24.8366 0 16 0C7.16344 0 0 7.16344 0 16C0 24.8366 7.16344 32 16 32Z" fill="#015CC6"/>
<path d="M15.2638 3.41998V16.514C15.2638 16.7427 15.2638 16.7427 15.4925 16.7427H20.8488C20.914 16.7427 20.9792 16.7427 21.0456 16.7427C21.1119 16.7427 21.1108 16.7679 21.1108 16.8159C21.1108 17.0298 21.1108 17.2426 21.1108 17.4553V20.1089C21.1108 20.1489 21.1108 20.1901 21.1108 20.2313C21.1108 20.3376 21.0719 20.3777 20.9701 20.3788C20.7985 20.3788 20.6269 20.3788 20.4542 20.3788C20.3913 20.3788 20.3707 20.396 20.3719 20.4612C20.3719 20.6327 20.3719 20.8043 20.3719 20.977C20.3719 21.0788 20.3319 21.1131 20.2255 21.1177H20.102C17.3668 21.1177 14.6316 21.1177 11.8965 21.1177C11.6426 21.1177 11.6151 21.1177 11.6243 20.8535C11.6243 20.7231 11.6243 20.5916 11.6243 20.46C11.6243 20.3971 11.6071 20.3754 11.543 20.3777C11.3783 20.3777 11.2148 20.3777 11.0512 20.3777C10.9151 20.3777 10.8888 20.3468 10.8854 20.205C10.8854 20.1478 10.8854 20.0906 10.8854 20.0334C10.8854 17.3226 10.8854 14.6123 10.8854 11.9023C10.8854 11.6472 10.8854 11.6197 11.1496 11.6289C11.288 11.6289 11.4275 11.6289 11.5671 11.6289C11.5865 11.6289 11.614 11.5969 11.622 11.574C11.6266 11.5417 11.6266 11.509 11.622 11.4768V8.84608C11.622 8.7317 11.6437 8.7317 11.5076 8.7317C10.6154 8.7317 9.72215 8.7317 8.83 8.7317C8.73735 8.7317 8.72477 8.75915 8.72477 8.84608C8.72477 9.73822 8.72477 10.6304 8.72477 11.5237C8.72477 11.638 8.72477 11.638 8.84601 11.638H9.28751C9.46022 11.638 9.46137 11.638 9.46137 11.7982V15.1151C9.45964 15.1479 9.45964 15.1807 9.46137 15.2135C9.46137 15.2718 9.43163 15.2787 9.38473 15.2764C9.33784 15.2741 9.27036 15.2764 9.21317 15.2764H3.41992V14.724C3.43365 14.724 3.45995 14.7125 3.45995 14.7068C3.45995 14.5318 3.52744 14.3637 3.52629 14.1898C3.52629 14.0686 3.58119 13.945 3.56747 13.8181C3.66812 13.7483 3.56747 13.6259 3.6361 13.5527C3.70472 13.4795 3.6361 13.3537 3.70815 13.2599C3.75962 13.197 3.74247 13.0815 3.76534 12.9911C3.80423 12.8287 3.84426 12.6652 3.89573 12.505C3.98152 12.2385 4.06273 11.9697 4.15423 11.7044C4.25946 11.3967 4.40014 11.1028 4.51909 10.8008C4.57171 10.667 4.64491 10.5423 4.70896 10.4131C4.77301 10.2838 4.83249 10.1523 4.89997 10.0253C4.99193 9.83338 5.09702 9.64803 5.21451 9.47058C5.45814 9.13888 5.67202 8.78431 5.91451 8.4549C6.17705 8.09971 6.45924 7.75948 6.75976 7.43579C7.16262 6.99521 7.59894 6.58643 8.06481 6.21309C8.25582 6.06326 8.44683 5.91571 8.64814 5.7796C8.99928 5.54169 9.34813 5.30264 9.70614 5.07503C9.89632 4.94891 10.0977 4.84056 10.3078 4.75134C10.5891 4.63696 10.8545 4.49285 11.1324 4.3739C11.3909 4.25952 11.6666 4.20004 11.9102 4.05936C12.1847 4.05021 12.4226 3.90838 12.6845 3.84776C12.9876 3.77799 13.2896 3.6842 13.5996 3.62586C13.8578 3.55391 14.1242 3.51547 14.3922 3.51149C14.4414 3.51149 14.4917 3.47717 14.5432 3.46573C14.5947 3.4543 14.6621 3.45315 14.7239 3.444C14.7245 3.43601 14.7245 3.42798 14.7239 3.41998H15.2638Z" fill="white"/>
<path d="M3.41992 16.7393H9.21889C9.27608 16.7393 9.33326 16.7393 9.39045 16.7393C9.44764 16.7393 9.46937 16.7393 9.46594 16.8033C9.46594 16.8434 9.46594 16.8845 9.46594 16.9257V20.1935C9.46423 20.2183 9.46423 20.2431 9.46594 20.2678C9.47624 20.3468 9.46594 20.3822 9.363 20.3822C9.17542 20.3719 8.9867 20.3822 8.79798 20.3822C8.74765 20.3822 8.72477 20.396 8.72706 20.4509C8.72706 20.5401 8.72706 20.6304 8.72706 20.7208C8.72706 21.5313 8.72706 22.3423 8.72706 23.1536C8.72706 23.2966 8.71448 23.284 8.85745 23.284H11.511C11.6254 23.284 11.6254 23.284 11.6254 23.1696C11.6254 22.9969 11.6334 22.8265 11.6254 22.6538C11.6254 22.5554 11.6586 22.5497 11.7398 22.5497C12.879 22.5497 14.0174 22.5497 15.1551 22.5497C15.2695 22.5497 15.2695 22.5497 15.2695 22.6732C15.2695 24.6466 15.2695 26.6204 15.2695 28.5946H14.7239C14.7239 28.5808 14.7125 28.5545 14.7067 28.5545C14.5317 28.5545 14.3636 28.4665 14.1898 28.4951C14.16 28.4951 14.1154 28.4951 14.0994 28.4813C14.0434 28.4241 13.9759 28.4585 13.9152 28.4459C13.8546 28.4333 13.8009 28.4081 13.7391 28.399C13.6061 28.3905 13.4738 28.3725 13.3434 28.3452C12.9865 28.2308 12.6171 28.1725 12.2625 28.0524C12.012 27.9666 11.7558 27.8934 11.5076 27.8008C11.1413 27.6578 10.7828 27.4955 10.4336 27.3147C10.0213 27.1152 9.62309 26.8878 9.24176 26.6341C8.89863 26.4054 8.55549 26.1858 8.23409 25.9238C7.95158 25.6951 7.6622 25.4663 7.40028 25.2216C6.98881 24.8473 6.60999 24.4386 6.26793 24C6.12153 23.8033 5.93967 23.6317 5.81042 23.4281C5.5199 22.9946 5.22252 22.5657 4.97661 22.1059C4.74328 21.6713 4.52901 21.2282 4.3338 20.7768C4.28576 20.6625 4.25259 20.5481 4.21142 20.4337C4.0703 20.0653 3.94889 19.6896 3.8477 19.3082C3.78708 19.0543 3.71387 18.805 3.66583 18.5476C3.64296 18.4332 3.66012 18.296 3.61093 18.2045C3.56175 18.113 3.61093 18.0123 3.55374 17.9323C3.49656 17.8522 3.5343 17.7344 3.51714 17.6417C3.49541 17.5205 3.4691 17.4004 3.44394 17.2792C3.43595 17.2786 3.42792 17.2786 3.41992 17.2792V16.7393Z" fill="white"/>
<path d="M16.7393 28.5831V22.7842C16.7393 22.727 16.7393 22.6698 16.7393 22.6126C16.7393 22.5554 16.7393 22.5337 16.8033 22.5371C16.8433 22.5371 16.8845 22.5371 16.9257 22.5371H20.1935C20.2182 22.5388 20.2431 22.5388 20.2678 22.5371C20.3467 22.5268 20.3822 22.5371 20.3822 22.6401C20.3719 22.8276 20.3822 23.0164 20.3822 23.2051C20.3822 23.2554 20.3959 23.2783 20.4508 23.276C20.54 23.276 20.6304 23.276 20.7208 23.276H23.1536C23.2965 23.276 23.284 23.2886 23.284 23.1456C23.284 22.2603 23.284 21.3762 23.284 20.492C23.284 20.3777 23.284 20.3777 23.1696 20.3777C22.9969 20.3777 22.8265 20.3697 22.6537 20.3777C22.5554 20.3777 22.5497 20.3445 22.5497 20.2633C22.5497 19.1241 22.5497 17.9856 22.5497 16.848C22.5497 16.7336 22.5497 16.7336 22.6732 16.7336C24.6466 16.7336 26.6204 16.7336 28.5945 16.7336V17.2734C28.5808 17.2734 28.5545 17.2849 28.5545 17.2906C28.5545 17.4656 28.4664 17.6337 28.495 17.8076C28.4969 17.8389 28.493 17.8703 28.4836 17.9002C28.4427 18.0328 28.4136 18.1686 28.3967 18.3063C28.3923 18.4315 28.3739 18.5558 28.3418 18.6769C28.2789 18.8736 28.2365 19.0749 28.1874 19.2751C28.1382 19.4752 28.0673 19.6662 28.0043 19.8618C27.8429 20.3743 27.6461 20.875 27.4153 21.3602C27.2103 21.8094 26.9745 22.2439 26.7096 22.6606C26.4703 23.044 26.2087 23.413 25.9261 23.7655C25.7236 24.0046 25.5349 24.2619 25.3222 24.4907C24.9195 24.9378 24.4799 25.3503 24.008 25.7237C23.7232 25.9444 23.4475 26.1812 23.149 26.3791C22.8087 26.6154 22.4567 26.8346 22.0944 27.0356C21.6621 27.2644 21.2172 27.4817 20.7665 27.6796C20.6714 27.7248 20.5732 27.763 20.4726 27.7939C20.015 27.9083 19.5816 28.0993 19.1195 28.2046C18.7672 28.2846 18.4149 28.3578 18.0626 28.4333C17.9723 28.4528 17.8808 28.4699 17.7881 28.4813C17.6085 28.5031 17.4278 28.5202 17.2482 28.5408C17.2402 28.5408 17.2357 28.5671 17.2299 28.5809L16.7393 28.5831Z" fill="white"/>
<path d="M20.619 7.6498C20.619 8.26401 20.619 8.87822 20.619 9.49243C20.619 9.56563 20.6361 9.5885 20.7127 9.5885C21.3761 9.5885 22.0395 9.5885 22.7018 9.5885H22.8745C22.934 9.5885 22.9466 9.62968 22.9237 9.66628C22.8539 9.78066 22.7784 9.88703 22.6949 9.99111C22.4662 10.2942 22.2523 10.6133 22.0212 10.9176C21.7902 11.2218 21.6118 11.5181 21.4013 11.8132C21.2069 12.0865 21.001 12.3519 20.8031 12.623C20.6887 12.7854 20.5744 12.9524 20.46 13.1171L19.9922 13.7827C19.7199 14.1693 19.4271 14.5422 19.1744 14.9425C19.1542 14.9683 19.1311 14.9917 19.1057 15.0123C19.0954 15.0226 19.0829 15.0318 19.0714 15.042C19.0634 15.0283 19.0508 15.0157 19.0497 15.002C19.0497 14.9368 19.0497 14.8705 19.0497 14.8053V11.2882C19.0497 11.1532 19.0714 11.1566 18.9204 11.1566H16.9268C16.8781 11.1612 16.8291 11.1612 16.7804 11.1566C16.7684 11.1504 16.7583 11.141 16.751 11.1296C16.7438 11.1181 16.7397 11.105 16.7393 11.0914C16.7443 11.0536 16.7606 11.0181 16.7862 10.9896C17.0149 10.7483 17.167 10.4555 17.3729 10.1993C17.4987 10.0426 17.6017 9.87102 17.7218 9.70631C17.8842 9.47756 18.0489 9.2488 18.2079 9.02005C18.4721 8.63802 18.7397 8.25714 19.0085 7.87627C19.2773 7.49539 19.5564 7.0985 19.8492 6.72219C20.0711 6.43739 20.261 6.12514 20.4657 5.82547C20.5009 5.77759 20.5467 5.73845 20.5995 5.71109C20.6059 5.73312 20.6101 5.75572 20.6121 5.77857C20.6121 6.20406 20.6121 6.63069 20.6121 7.05618L20.619 7.6498Z" fill="white"/>
</g>
<defs>
<clipPath id="clip0_301_924">
<rect width="32" height="32" fill="white"/>
</clipPath>
</defs>
</svg>
