<svg width="32" height="32" viewBox="0 0 32 32" fill="none" xmlns="http://www.w3.org/2000/svg">
<g clip-path="url(#clip0_301_920)">
<path d="M16 32C24.8366 32 32 24.8366 32 16C32 7.16344 24.8366 0 16 0C7.16344 0 0 7.16344 0 16C0 24.8366 7.16344 32 16 32Z" fill="#22B573"/>
<path d="M15.22 26.8036C16.097 26.8536 17.138 26.8016 17.886 26.6686C19.509 26.3886 21.174 25.6636 22.54 24.6416C23.153 24.1806 24.204 23.1296 24.66 22.5216C25.688 21.1496 26.365 19.6146 26.715 17.8516C26.844 17.1846 26.861 14.8846 26.745 14.2016C26.102 10.5866 23.895 7.64358 20.66 6.09058C20.5747 6.04977 20.489 6.00977 20.403 5.97058L20.823 7.46258C21.063 8.29158 21.553 10.0376 21.921 11.3336C22.896 14.7616 22.885 14.7036 22.92 15.5736C22.937 16.0286 22.926 16.5366 22.885 16.8466C22.47 19.9586 20 22.4226 16.875 22.8436C16.239 22.9306 15.165 22.8906 14.564 22.7616C14.342 22.7086 14.149 22.6796 14.131 22.6916C14.114 22.7146 15.077 26.1896 15.229 26.6566C15.261 26.7526 15.272 26.7906 15.219 26.8036H15.22ZM11.64 25.9306C11.6331 25.9256 11.6264 25.9202 11.62 25.9146C11.585 25.8746 11.317 25.0216 11.03 24.0116C10.745 23.0016 10.213 21.1316 9.857 19.8656C9.495 18.5986 9.167 17.3606 9.121 17.1206C9.028 16.5956 9.016 15.3686 9.104 14.8436C9.21397 14.1972 9.4104 13.5686 9.688 12.9746C10.663 10.9306 12.38 9.58158 14.645 9.08558C15.258 8.95158 16.677 8.95158 17.296 9.08558C17.547 9.14458 17.776 9.16758 17.799 9.13858C17.822 9.11458 17.582 8.18658 17.267 7.07658C17.0722 6.41126 16.8882 5.74284 16.715 5.07158C16.5017 5.06895 16.2883 5.06795 16.075 5.06858C14.774 5.06258 14.441 5.09758 13.436 5.33058C11.264 5.83858 9.162 7.13558 7.708 8.84658C5.296 11.6846 4.485 15.5566 5.559 19.0766C5.95 20.3736 6.435 21.3256 7.247 22.4286C8.38319 23.9568 9.89699 25.1636 11.64 25.9306ZM14.213 27.8356C13.898 27.7896 13.594 27.7366 13.542 27.7136C13.3567 27.6587 13.1696 27.61 12.981 27.5676C11.124 27.1176 9.151 26.0146 7.673 24.6006C6.546 23.5206 5.419 21.8856 4.946 20.6536C4.882 20.4956 4.806 20.3086 4.776 20.2446C4.619 19.9116 4.339 18.9366 4.181 18.1486C4.011 17.3256 4 17.1786 4 15.9816C4 15.2466 4.03 14.5456 4.064 14.3466C4.105 14.1546 4.181 13.7276 4.245 13.4066C4.304 13.0796 4.391 12.7526 4.432 12.6766C4.45944 12.6336 4.47939 12.5862 4.491 12.5366C4.461 12.5366 4.73 11.6666 4.777 11.6026C4.8 11.5726 4.87 11.4156 4.928 11.2526C5.028 10.9776 5.355 10.3126 5.478 10.1126C5.512 10.0666 5.664 9.80958 5.822 9.54658C5.985 9.27858 6.143 9.02658 6.172 8.99258C6.207 8.95158 6.4 8.70658 6.599 8.44958C8.339 6.23558 10.984 4.63558 13.769 4.11658C14.593 3.95858 17.401 3.96458 18.236 4.12258C19.574 4.37258 20.999 4.92758 22.207 5.66358C22.791 6.02558 22.832 6.04958 23.492 6.57458C24.052 7.01858 24.981 7.95258 25.384 8.47858C25.542 8.68858 25.74 8.93958 25.822 9.03858C25.904 9.14458 25.974 9.24358 25.974 9.26658C25.974 9.29658 26.038 9.39558 26.114 9.49458C26.19 9.59458 26.371 9.91458 26.523 10.2006C26.669 10.4926 26.815 10.7556 26.838 10.7846C26.861 10.8196 26.972 11.0596 27.078 11.3276C27.866 13.3196 28.14 15.2176 27.924 17.2676C27.836 18.1476 27.439 19.7076 27.136 20.3736C27.077 20.5136 27.025 20.6416 27.025 20.6596C27.025 20.7116 26.523 21.7166 26.371 21.9676C25.139 24.0116 23.393 25.6576 21.419 26.6386C21.08 26.8086 20.759 26.9656 20.701 26.9956C20.309 27.1996 19.019 27.5906 18.061 27.7896C17.466 27.9116 14.972 27.9416 14.213 27.8356ZM16.835 19.4856C18.102 19.1646 19.2 18.0846 19.515 16.8526C19.632 16.3906 19.638 15.4976 19.521 15.0476C19.036 13.1326 17.045 11.9116 15.171 12.3846C14.4 12.5776 13.991 12.8046 13.448 13.3486C12.672 14.1256 12.35 14.8956 12.356 15.9816C12.362 17.6346 13.436 19.0306 15.048 19.4616C15.533 19.5916 16.374 19.6016 16.835 19.4856Z" fill="#FEFFFF"/>
</g>
<defs>
<clipPath id="clip0_301_920">
<rect width="32" height="32" fill="white"/>
</clipPath>
</defs>
</svg>
