<svg width="32" height="32" viewBox="0 0 32 32" fill="none" xmlns="http://www.w3.org/2000/svg">
<g clip-path="url(#clip0_301_904)">
<path d="M16 32C24.8366 32 32 24.8366 32 16C32 7.16344 24.8366 0 16 0C7.16344 0 0 7.16344 0 16C0 24.8366 7.16344 32 16 32Z" fill="#610089"/>
<path fill-rule="evenodd" clip-rule="evenodd" d="M16.4901 5.00286C21.6201 5.27886 25.7721 8.83887 26.7911 13.8709C26.9251 14.5349 26.9611 15.2219 26.9981 15.9009C27.0311 16.5009 26.6401 16.9059 26.0991 16.9049C25.5691 16.9049 25.2221 16.5209 25.2091 15.9249C25.1121 11.5379 22.1491 7.91987 17.8711 7.00487C17.2311 6.86887 16.5631 6.86687 15.9091 6.79287C15.4111 6.73687 15.0811 6.35387 15.0951 5.86787C15.1091 5.38687 15.4691 5.02887 15.9711 5.00387C16.1441 4.99587 16.3171 5.00286 16.4901 5.00286ZM15.5321 26.9999C10.6091 26.8519 6.18111 23.1199 5.24711 18.2879C5.10511 17.5479 5.05111 16.7889 5.00211 16.0359C4.97211 15.5759 5.26511 15.2459 5.69211 15.1359C6.04611 15.0439 6.45811 15.1949 6.63811 15.5319C6.72811 15.7029 6.77111 15.9189 6.77511 16.1159C6.84811 20.3199 9.69111 23.9379 13.7711 24.9439C14.5071 25.1259 15.2831 25.1549 16.0431 25.2359C16.4771 25.2809 16.8251 25.5759 16.8831 25.9989C16.9381 26.3989 16.6861 26.8459 16.3031 26.9409C16.0561 27.0019 15.7891 26.9829 15.5321 26.9999ZM15.9841 11.9969C18.1611 11.9899 19.9891 13.7749 20.0041 15.9219C20.0091 16.6619 19.3311 17.1279 18.7041 16.8089C18.3641 16.6369 18.2181 16.3489 18.2041 15.9659C18.1936 15.4476 18.0007 14.9496 17.6592 14.5596C17.3176 14.1696 16.8495 13.9126 16.3371 13.8339C15.1851 13.6379 14.0651 14.4199 13.8411 15.5769C13.6121 16.7589 14.3521 17.9099 15.5041 18.1589C15.6621 18.1929 15.8241 18.2119 15.9841 18.2209C16.5201 18.2489 16.8961 18.6179 16.8921 19.1209C16.8881 19.6309 16.4851 20.0089 15.9391 20.0139C14.2231 20.0289 12.6051 18.7769 12.1371 17.0729C11.4381 14.5279 13.3501 12.0049 15.9841 11.9969ZM23.5391 15.7539C23.5191 15.9239 23.5261 16.1369 23.4641 16.3269C23.3341 16.7309 22.9041 16.9649 22.4841 16.8969C22.0471 16.8249 21.7361 16.4669 21.7311 15.9769C21.7241 15.2309 21.6031 14.5069 21.2971 13.8299C20.2841 11.5949 18.5511 10.3959 16.0931 10.2799C15.4921 10.2499 15.0931 9.89786 15.0971 9.35986C15.1021 8.82186 15.5041 8.47086 16.1141 8.47286C19.7841 8.47986 22.9911 11.3199 23.4561 14.9769C23.4881 15.2239 23.5091 15.4709 23.5391 15.7539ZM8.47811 16.2149C8.42711 15.8079 8.53111 15.4069 8.99611 15.1929C9.60811 14.9099 10.2491 15.3479 10.2611 16.0669C10.2731 16.7559 10.3911 17.4189 10.6391 18.0609C11.0426 19.123 11.7536 20.0406 12.6813 20.6965C13.609 21.3524 14.7113 21.7167 15.8471 21.7429C16.6231 21.7629 17.0741 22.3249 16.8271 22.9629C16.6891 23.3229 16.3851 23.5319 15.9691 23.5279C13.7671 23.5079 11.9101 22.6829 10.4251 21.0659C9.20192 19.7435 8.50878 18.0169 8.47811 16.2159V16.2149ZM20.0121 19.0349C19.9751 19.4819 19.8221 19.7649 19.4861 19.9219C19.1521 20.0779 18.8131 20.0539 18.5461 19.8069C18.0623 19.3584 17.595 18.8924 17.1451 18.4099C16.8351 18.0779 16.8651 17.5549 17.1691 17.2279C17.4791 16.8949 18.0331 16.8259 18.3721 17.1369C18.8741 17.5949 19.3491 18.0849 19.8121 18.5839C19.9341 18.7159 19.9681 18.9289 20.0121 19.0339V19.0349Z" fill="white"/>
</g>
<defs>
<clipPath id="clip0_301_904">
<rect width="32" height="32" fill="white"/>
</clipPath>
</defs>
</svg>
