<svg width="32" height="32" viewBox="0 0 32 32" fill="none" xmlns="http://www.w3.org/2000/svg">
<g clip-path="url(#clip0_301_2329)">
<path d="M16 32C24.8366 32 32 24.8366 32 16C32 7.16344 24.8366 0 16 0C7.16344 0 0 7.16344 0 16C0 24.8366 7.16344 32 16 32Z" fill="#2E3148"/>
<path d="M16.0198 5.53003C14.7248 5.53003 13.6748 10.227 13.6748 16.02C13.6748 21.813 14.7248 26.51 16.0198 26.51C17.3138 26.51 18.3638 21.813 18.3638 16.02C18.3638 10.227 17.3138 5.53003 16.0198 5.53003ZM16.1818 25.917C16.0338 26.115 15.8848 25.967 15.8848 25.967C15.2888 25.275 14.9908 23.992 14.9908 23.992C13.9478 20.635 14.1958 13.428 14.1958 13.428C14.6858 7.70703 15.5778 6.35503 15.8808 6.05503C15.9118 6.02426 15.9528 6.00547 15.9963 6.002C16.0399 5.99852 16.0833 6.01058 16.1188 6.03603C16.5588 6.34903 16.9288 7.65303 16.9288 7.65303C18.0188 11.701 17.9198 15.501 17.9198 15.501C18.0188 18.809 17.3738 22.511 17.3738 22.511C16.8768 25.325 16.1818 25.917 16.1818 25.917Z" fill="white"/>
<path d="M25.118 10.8001C24.473 9.67608 19.878 11.1031 14.851 13.9861C9.824 16.8691 6.278 20.1161 6.921 21.2401C7.566 22.3641 12.162 20.9371 17.189 18.0541C22.216 15.1711 25.763 11.9231 25.119 10.8001H25.118ZM7.515 21.0851C7.269 21.0551 7.325 20.8511 7.325 20.8511C7.627 19.9911 8.591 19.0931 8.591 19.0931C10.984 16.5181 17.36 13.1471 17.36 13.1471C22.566 10.7251 24.183 10.8271 24.593 10.9391C24.6353 10.9507 24.6722 10.977 24.6969 11.0133C24.7216 11.0495 24.7327 11.0934 24.728 11.1371C24.678 11.6741 23.728 12.6441 23.728 12.6441C20.762 15.6051 17.416 17.4121 17.416 17.4121C14.596 19.1441 11.063 20.4251 11.063 20.4251C8.375 21.3931 7.515 21.0851 7.515 21.0851Z" fill="white"/>
<path d="M25.0952 21.277C25.7452 20.157 22.2082 16.894 17.1972 13.989C12.1872 11.085 7.59317 9.64098 6.94417 10.763C6.29417 11.886 9.83217 15.146 14.8442 18.051C19.8572 20.955 24.4462 22.399 25.0952 21.277ZM7.37517 11.196C7.27817 10.968 7.48117 10.913 7.48117 10.913C8.37817 10.743 9.63817 11.13 9.63817 11.13C13.0652 11.91 19.1762 15.738 19.1762 15.738C23.8812 19.03 24.6032 20.481 24.7112 20.892C24.7221 20.9342 24.7178 20.9789 24.6989 21.0183C24.6801 21.0576 24.6479 21.089 24.6082 21.107C24.1182 21.332 22.8032 20.997 22.8032 20.997C18.7532 19.911 15.5142 17.922 15.5142 17.922C12.6042 16.352 9.72617 13.937 9.72617 13.937C7.53917 12.095 7.37617 11.197 7.37617 11.197L7.37417 11.196H7.37517Z" fill="white"/>
<path d="M15.9952 17.229C16.6767 17.229 17.2292 16.6765 17.2292 15.995C17.2292 15.3135 16.6767 14.761 15.9952 14.761C15.3137 14.761 14.7612 15.3135 14.7612 15.995C14.7612 16.6765 15.3137 17.229 15.9952 17.229Z" fill="white"/>
<path d="M21.0552 12.2561C21.6075 12.2561 22.0552 11.8084 22.0552 11.2561C22.0552 10.7038 21.6075 10.2561 21.0552 10.2561C20.5029 10.2561 20.0552 10.7038 20.0552 11.2561C20.0552 11.8084 20.5029 12.2561 21.0552 12.2561Z" fill="white"/>
<path d="M9.30615 14.7739C9.85844 14.7739 10.3062 14.3262 10.3062 13.7739C10.3062 13.2216 9.85844 12.7739 9.30615 12.7739C8.75387 12.7739 8.30615 13.2216 8.30615 13.7739C8.30615 14.3262 8.75387 14.7739 9.30615 14.7739Z" fill="white"/>
<path d="M14.5391 23.856C15.0913 23.856 15.5391 23.4082 15.5391 22.856C15.5391 22.3037 15.0913 21.856 14.5391 21.856C13.9868 21.856 13.5391 22.3037 13.5391 22.856C13.5391 23.4082 13.9868 23.856 14.5391 23.856Z" fill="white"/>
</g>
<defs>
<clipPath id="clip0_301_2329">
<rect width="32" height="32" fill="white"/>
</clipPath>
</defs>
</svg>
