<svg width="32" height="32" viewBox="0 0 32 32" fill="none" xmlns="http://www.w3.org/2000/svg">
<g clip-path="url(#clip0_301_870)">
<path d="M16 32C24.8366 32 32 24.8366 32 16C32 7.16344 24.8366 0 16 0C7.16344 0 0 7.16344 0 16C0 24.8366 7.16344 32 16 32Z" fill="#E30613"/>
<path opacity="0.75" fill-rule="evenodd" clip-rule="evenodd" d="M15.361 27.0003C9.64 27.0003 5 22.4073 5 16.7423C5 11.0773 9.639 6.48431 15.361 6.48431C21.084 6.48431 25.723 11.0773 25.723 16.7423C25.723 22.4073 21.083 27.0003 15.36 27.0003H15.361ZM17.15 9.42331C19.566 10.4123 21.302 12.2733 22.534 14.7813L23.464 14.1343C22.42 11.6223 20.491 9.64831 17.388 8.36831L17.15 9.42331Z" fill="white"/>
<path d="M26.9922 9.321C26.9922 6.935 25.0372 5 22.6272 5C20.2172 5 18.2622 6.935 18.2622 9.321C18.2622 9.549 18.2802 9.776 18.3162 10.001C19.7692 10.847 20.9362 12.061 21.8692 13.577C22.1192 13.62 22.3732 13.643 22.6272 13.643C25.0372 13.643 26.9922 11.708 26.9922 9.321Z" fill="white"/>
</g>
<defs>
<clipPath id="clip0_301_870">
<rect width="32" height="32" fill="white"/>
</clipPath>
</defs>
</svg>
