<svg width="32" height="32" viewBox="0 0 32 32" fill="none" xmlns="http://www.w3.org/2000/svg">
<g clip-path="url(#clip0_301_858)">
<path d="M16 32C24.8366 32 32 24.8366 32 16C32 7.16344 24.8366 0 16 0C7.16344 0 0 7.16344 0 16C0 24.8366 7.16344 32 16 32Z" fill="#602A52"/>
<path fill-rule="evenodd" clip-rule="evenodd" d="M20.5819 16.312C20.3036 15.5359 19.807 14.8567 19.1519 14.356L19.1449 14.348C19.0755 14.2955 19.0044 14.2451 18.9319 14.197L18.9179 14.187C18.8464 14.1401 18.7737 14.0951 18.6999 14.052L18.6799 14.04C18.6075 13.998 18.5331 13.9597 18.4569 13.925L18.4349 13.913C18.357 13.8764 18.2783 13.8414 18.1989 13.808L18.1729 13.798C17.916 13.6914 17.6494 13.6096 17.3769 13.554C17.2199 13.8388 17.0179 14.0965 16.7789 14.317C17.3403 14.3618 17.8826 14.5412 18.3599 14.84L18.3869 14.856L18.5189 14.946L18.5789 14.988C18.6189 15.018 18.6559 15.048 18.6969 15.078L18.7639 15.132C18.7999 15.162 18.8329 15.192 18.8669 15.223L18.9349 15.288L19.0279 15.382L19.0959 15.455L19.1789 15.552L19.2439 15.633L19.3189 15.733C19.3439 15.766 19.3609 15.792 19.3809 15.821C19.4009 15.85 19.4269 15.888 19.4479 15.923L19.5059 16.019C19.5239 16.051 19.5459 16.087 19.5639 16.121C19.5839 16.154 19.5999 16.191 19.6179 16.227C19.6349 16.263 19.6519 16.293 19.6669 16.327C19.6856 16.3714 19.7036 16.4161 19.7209 16.461C19.8158 16.6978 19.8829 16.9448 19.9209 17.197L20.0299 17.601C20.0759 17.769 20.5009 19.257 21.4859 19.758C22.6149 20.337 24.1099 21.052 24.6979 21.335L16.9319 25.895V22.77C16.9319 22.277 17.9319 21.7 18.3949 21.497L18.4219 21.482C18.5169 21.435 18.6119 21.384 18.7019 21.33L18.7409 21.31C18.9412 21.1894 19.1318 21.0533 19.3109 20.903L19.3589 20.86L19.4139 20.811C19.4702 20.7604 19.5252 20.7084 19.5789 20.655L19.6069 20.628C19.6659 20.569 19.7249 20.513 19.7769 20.444L19.8259 20.388C19.8699 20.336 19.9119 20.283 19.9529 20.229L19.9889 20.184C20.0389 20.118 20.0849 20.05 20.1309 19.981L20.1469 19.961C20.2089 19.864 20.2639 19.767 20.3219 19.666C20.1041 19.4031 19.9175 19.1159 19.7659 18.81C19.7039 18.983 19.6259 19.151 19.5359 19.312C19.4979 19.382 19.4579 19.45 19.4179 19.516L19.3999 19.543C19.3622 19.5991 19.3228 19.6542 19.2819 19.708L19.2459 19.754C19.2052 19.8066 19.1625 19.8576 19.1179 19.907L19.0939 19.935C18.8046 20.251 18.459 20.5104 18.0749 20.7L18.0019 20.737C17.8049 20.824 16.0689 21.594 16.0689 22.765V25.891L8.2789 21.323C8.7799 21.017 10.2439 20.165 11.4479 19.79C11.9189 19.646 12.9189 20.263 13.4859 20.716L13.5199 20.746C13.5949 20.816 13.6739 20.883 13.7559 20.946L13.7839 20.971C13.9639 21.115 14.1559 21.244 14.3569 21.358L14.4919 21.431L14.5189 21.445C14.6499 21.511 14.7839 21.571 14.9209 21.624L14.9809 21.647L15.0209 21.663C15.2179 21.735 15.4209 21.791 15.6259 21.833C15.7872 21.5446 15.9954 21.2851 16.2419 21.065C15.9133 21.0407 15.5897 20.97 15.2809 20.855L15.2279 20.835L15.1259 20.794L15.0739 20.772L14.9749 20.726C14.7456 20.6148 14.5293 20.4786 14.3299 20.32L14.0199 20.044C13.7353 19.7989 13.4271 19.5825 13.0999 19.398C12.3299 18.968 11.6859 18.828 11.1919 18.98C10.1619 19.298 9.0019 19.916 8.2939 20.324L16.0719 6.60701V12.614C16.0719 12.827 15.7519 13.383 14.6829 13.855L14.6089 13.895C14.5049 13.945 14.4039 13.999 14.3049 14.057L14.2849 14.067C13.9557 14.2609 13.6538 14.4976 13.3869 14.771L13.3769 14.781C13.2757 14.8851 13.1799 14.9942 13.0899 15.108L13.0789 15.123C13.0354 15.1785 12.9931 15.2348 12.9519 15.292L12.9379 15.312C12.9008 15.366 12.8648 15.4206 12.8299 15.476L12.8179 15.493C12.7827 15.5498 12.749 15.6074 12.7169 15.666L12.6939 15.707C12.6649 15.763 12.6359 15.823 12.6069 15.875L12.5939 15.902C12.5681 15.9547 12.5438 16.008 12.5209 16.062L12.4959 16.122C12.4729 16.178 12.4519 16.238 12.4309 16.292L12.4109 16.352C12.3956 16.3949 12.3816 16.4383 12.3689 16.482C12.3619 16.506 12.3539 16.529 12.3479 16.554C12.2905 16.7548 12.2487 16.9598 12.2229 17.167L12.2129 17.26C12.2082 17.3022 12.2045 17.3446 12.2019 17.387C12.1999 17.43 12.2019 17.472 12.1949 17.514C12.1879 17.557 12.1949 17.566 12.1949 17.594V17.689C12.1949 17.899 12.2109 18.109 12.2429 18.318C12.5779 18.3997 12.9021 18.5206 13.2089 18.678C13.1147 18.3761 13.0642 18.0622 13.0589 17.746V17.689C13.0589 17.613 13.0589 17.538 13.0679 17.458V17.398C13.0679 17.333 13.0809 17.267 13.0899 17.202V17.174C13.1002 17.1017 13.1143 17.0299 13.1319 16.959L13.1439 16.904C13.1589 16.844 13.1739 16.786 13.1929 16.727L13.2049 16.689C13.2249 16.62 13.2499 16.553 13.2759 16.486L13.2959 16.441C13.3179 16.386 13.3419 16.331 13.3669 16.276L13.3859 16.234C13.4169 16.169 13.4509 16.106 13.4859 16.043L13.5049 16.012C13.5364 15.9578 13.5694 15.9044 13.6039 15.852L13.6289 15.815C13.6699 15.755 13.7119 15.699 13.7569 15.637L13.7649 15.627C13.8079 15.572 13.8529 15.519 13.8989 15.467L13.9239 15.437C14.1349 15.205 14.3769 15.002 14.6439 14.834L15.0119 14.664C15.2089 14.577 16.9369 13.786 16.9369 12.614V6.60701L24.7759 20.427C24.0759 20.09 22.8459 19.495 21.8859 19.007C21.3379 18.727 20.9639 17.74 20.8679 17.386L20.7619 16.971C20.7227 16.7483 20.6651 16.5292 20.5899 16.316L20.5819 16.312ZM25.8919 20.662L17.2519 5.43601C17.1756 5.30284 17.0653 5.1923 16.9323 5.1157C16.7993 5.0391 16.6484 4.99918 16.4949 5.00001C16.3418 4.99953 16.1912 5.03962 16.0586 5.11621C15.926 5.19279 15.816 5.30313 15.7399 5.43601L7.1099 20.663C7.00127 20.855 6.97289 21.0821 7.03096 21.2949C7.08902 21.5076 7.22882 21.6888 7.4199 21.799L16.0569 26.879C16.1916 26.9577 16.3449 26.9992 16.5009 26.9992C16.6569 26.9992 16.8102 26.9577 16.9449 26.879L25.5809 21.803C25.7719 21.693 25.9117 21.5121 25.9699 21.2995C26.0282 21.087 26.0001 20.86 25.8919 20.668L25.8939 20.662H25.8919Z" fill="white"/>
</g>
<defs>
<clipPath id="clip0_301_858">
<rect width="32" height="32" fill="white"/>
</clipPath>
</defs>
</svg>
