<svg width="32" height="32" viewBox="0 0 32 32" fill="none" xmlns="http://www.w3.org/2000/svg">
<g clip-path="url(#clip0_301_2325)">
<path d="M32 16C32 19.1645 31.0616 22.2579 29.3035 24.8891C27.5454 27.5203 25.0466 29.5711 22.1229 30.7821C19.1993 31.9931 15.9823 32.3099 12.8786 31.6926C9.77487 31.0752 6.92394 29.5514 4.6863 27.3137C2.44866 25.0761 0.924806 22.2251 0.307443 19.1214C-0.309921 16.0177 0.00693248 12.8007 1.21793 9.87707C2.42894 6.95345 4.4797 4.45459 7.11088 2.69649C9.74207 0.938384 12.8355 0 16 0C20.2435 0 24.3131 1.68571 27.3137 4.68629C30.3143 7.68687 32 11.7565 32 16Z" fill="#001B69"/>
<path d="M15.3323 22.176L13.9766 18.2763H9.36281L7.99117 22.176H6.3999L10.9468 9.54034H12.3854L16.9395 22.176H15.3323ZM13.4777 16.8567L12.2181 13.2073C12.1841 13.1045 12.142 12.9779 12.0915 12.8276C12.0464 12.6822 11.9984 12.5178 11.9461 12.3462C11.8937 12.1745 11.8443 11.9956 11.7934 11.8123C11.7424 11.6291 11.6959 11.44 11.6479 11.2611C11.6072 11.44 11.5621 11.6233 11.5112 11.8123C11.4603 12.0014 11.4108 12.1862 11.3657 12.3636C11.3206 12.5411 11.2639 12.6967 11.2203 12.8451C11.1766 12.9934 11.1359 13.1098 11.101 13.2073L9.87336 16.8567H13.4777Z" fill="white"/>
<path d="M25.6002 18.3374C25.6052 18.7123 25.5329 19.0841 25.3879 19.4298C25.2488 19.7547 25.0408 20.0455 24.7784 20.2822C24.4977 20.5375 24.1742 20.7413 23.8228 20.8844C23.4153 21.0494 22.9887 21.1623 22.553 21.2204V23.2H21.3893V21.2974C21.1071 21.2974 20.8225 21.2863 20.5355 21.264C20.2485 21.2417 19.9687 21.2014 19.6962 21.1433C19.4387 21.0947 19.1842 21.0311 18.934 20.9527C18.7179 20.8868 18.5085 20.8006 18.3086 20.6953V19.2145C18.4948 19.3057 18.7091 19.4027 18.9515 19.5054C19.2002 19.5985 19.4591 19.6814 19.7311 19.7556C20.0031 19.8298 20.278 19.8938 20.5602 19.9447C20.8343 19.9901 21.1115 20.0134 21.3893 20.0145V16.2705C20.941 16.1206 20.5036 15.9398 20.0802 15.7294C19.7451 15.5611 19.4372 15.3434 19.1668 15.0836C18.9266 14.8442 18.7397 14.5567 18.6184 14.24C18.4937 13.8836 18.4336 13.5077 18.441 13.1302C18.4358 12.7698 18.5052 12.4123 18.6446 12.08C18.7815 11.7634 18.9832 11.479 19.2366 11.2451C19.5098 10.9973 19.8251 10.8003 20.1675 10.6633C20.5557 10.5023 20.9645 10.3966 21.382 10.3491V8.79999H22.5457V10.3142C23.0711 10.3373 23.5929 10.4124 24.1035 10.5382C24.5454 10.6462 24.976 10.7962 25.3893 10.9862L24.8308 12.2342C24.4851 12.0799 24.1288 11.9506 23.7646 11.8473C23.3677 11.7265 22.9591 11.6484 22.5457 11.6145V15.2509C22.9924 15.4092 23.4294 15.5932 23.8548 15.8022C24.2045 15.9681 24.5271 16.1858 24.8119 16.448C25.0638 16.6742 25.2625 16.9533 25.3937 17.2654C25.5339 17.6053 25.6041 17.9699 25.6002 18.3374ZM24.1108 18.3374C24.113 18.1616 24.0839 17.9868 24.025 17.8211C23.97 17.6565 23.8774 17.5071 23.7544 17.3847C23.6179 17.2381 23.4576 17.1157 23.2802 17.0225C23.0464 16.8977 22.8033 16.7912 22.553 16.704V19.9273C23.078 19.8473 23.4664 19.6669 23.7166 19.3862C23.9801 19.1016 24.1216 18.7251 24.1108 18.3374ZM19.9275 13.1462C19.9255 13.335 19.9485 13.5233 19.9959 13.7062C20.0484 13.8698 20.1318 14.0219 20.2417 14.1542C20.37 14.2984 20.5214 14.4203 20.6897 14.5149C20.9107 14.6397 21.143 14.7434 21.3835 14.8247V11.6494C20.8822 11.7406 20.5127 11.9156 20.2751 12.1745C20.038 12.4413 19.9134 12.7895 19.9275 13.1462Z" fill="white"/>
</g>
<defs>
<clipPath id="clip0_301_2325">
<rect width="32" height="32" fill="white"/>
</clipPath>
</defs>
</svg>
