<svg width="32" height="32" viewBox="0 0 32 32" fill="none" xmlns="http://www.w3.org/2000/svg">
<g clip-path="url(#clip0_301_850)">
<path d="M16 32C24.8366 32 32 24.8366 32 16C32 7.16344 24.8366 0 16 0C7.16344 0 0 7.16344 0 16C0 24.8366 7.16344 32 16 32Z" fill="#00E6A0"/>
<path d="M23.0729 7.50013C23.1613 7.49818 23.2491 7.5142 23.3311 7.5472C23.4131 7.5802 23.4875 7.62951 23.5499 7.69213L23.5439 7.68613C23.6427 7.78458 23.7072 7.9122 23.7279 8.05013L23.7369 8.15413L23.7299 11.5711C23.7299 12.0201 23.5519 12.4511 23.2339 12.7681L18.9939 16.9951L23.5309 21.5181C23.6905 21.6741 23.8175 21.8601 23.9048 22.0654C23.9921 22.2707 24.0378 22.4913 24.0393 22.7144C24.0409 22.9375 23.9982 23.1587 23.9138 23.3652C23.8293 23.5717 23.7048 23.7595 23.5474 23.9176C23.39 24.0757 23.2029 24.2011 22.9967 24.2865C22.7906 24.3719 22.5696 24.4156 22.3465 24.415C22.1234 24.4145 21.9026 24.3698 21.6969 24.2835C21.4912 24.1972 21.3046 24.071 21.1479 23.9121L15.4129 18.1951C15.2547 18.0384 15.1292 17.8518 15.0435 17.6463C14.9579 17.4408 14.9137 17.2203 14.9137 16.9976C14.9137 16.775 14.9579 16.5545 15.0435 16.3489C15.1292 16.1434 15.2547 15.9569 15.4129 15.8001L20.4349 10.7881H11.9369V22.6771C11.9407 22.9038 11.8988 23.1289 11.8138 23.339C11.7288 23.5492 11.6024 23.7401 11.4422 23.9004C11.2819 24.0607 11.091 24.1871 10.8808 24.2721C10.6707 24.3571 10.4456 24.3989 10.2189 24.3951L10.0489 24.3891C9.62227 24.352 9.22545 24.1549 8.93813 23.8374C8.65081 23.5198 8.49426 23.1053 8.4999 22.6771V9.34713C8.4999 8.28113 9.2629 7.50013 10.2959 7.50013H23.0729Z" fill="white"/>
</g>
<defs>
<clipPath id="clip0_301_850">
<rect width="32" height="32" fill="white"/>
</clipPath>
</defs>
</svg>
