<svg width="32" height="32" viewBox="0 0 32 32" fill="none" xmlns="http://www.w3.org/2000/svg">
<g clip-path="url(#clip0_301_810)">
<path d="M16 32C24.8366 32 32 24.8366 32 16C32 7.16344 24.8366 0 16 0C7.16344 0 0 7.16344 0 16C0 24.8366 7.16344 32 16 32Z" fill="#00688C"/>
<path d="M26.9889 22.6711V9.99813L15.9849 3.66013L15.9699 3.66813L5.00391 10.0051V22.6751L15.9789 28.9971L15.9799 28.9981L26.9879 22.6721L26.9889 22.6711ZM22.1189 20.6451L20.2419 19.5691L16.0539 22.0001C16.0418 22.0072 16.028 22.011 16.0139 22.011C15.9998 22.011 15.986 22.0072 15.9739 22.0001L11.1689 19.2151L11.1669 14.3701L6.94591 11.9501L15.9439 6.67513C15.9475 6.67292 15.9517 6.67175 15.9559 6.67175C15.9601 6.67175 15.9643 6.67292 15.9679 6.67513L24.3249 11.4531L22.8469 12.3081L15.9719 8.35213L9.87491 11.9311L11.9899 13.1461L15.9759 10.8281L15.9779 10.8261L20.8479 13.6111L20.8459 18.2211L24.9969 20.5981L24.9959 20.6681L15.9799 25.9321L7.62191 21.1601L9.08491 20.3031L15.9659 24.2501L22.1189 20.6441V20.6451Z" fill="white"/>
<path d="M17.3047 15.1452V15.1112L17.3037 15.0892L17.3027 15.0772L17.3007 15.0522V15.0442L17.2977 15.0172V15.0102L17.2937 14.9822V14.9772L17.2897 14.9482V14.9442L17.2847 14.9142L17.2837 14.9122L17.2777 14.8822L17.2767 14.8792L17.2697 14.8492V14.8472C17.2678 14.8371 17.2654 14.8271 17.2627 14.8172V14.8152L17.2537 14.7852V14.7842L17.2447 14.7522C17.2393 14.7318 17.2327 14.7117 17.2247 14.6922V14.6912L17.2127 14.6612C17.209 14.6511 17.205 14.641 17.2007 14.6312L17.1877 14.6012L17.1747 14.5732L17.1607 14.5432L17.1467 14.5152L17.1307 14.4872C17.1252 14.4783 17.1199 14.4693 17.1147 14.4602V14.4592L17.0987 14.4332L17.0977 14.4322C17.0923 14.4237 17.0866 14.4153 17.0807 14.4072V14.4052L17.0637 14.3812C17.0637 14.3812 17.0637 14.3792 17.0617 14.3792L17.0447 14.3552L17.0427 14.3532C17.0367 14.3452 17.0327 14.3372 17.0257 14.3292L17.0247 14.3272L17.0057 14.3042L17.0037 14.3022L16.9857 14.2802L16.9837 14.2782L16.9637 14.2572C16.9628 14.2563 16.9622 14.2553 16.9617 14.2542L16.9427 14.2332C16.9418 14.2323 16.9412 14.2313 16.9407 14.2302L16.9217 14.2102C16.914 14.2025 16.9063 14.1949 16.8987 14.1872L16.8957 14.1842L16.8757 14.1642C16.868 14.1575 16.8603 14.1509 16.8527 14.1442L16.8497 14.1412C16.8429 14.1347 16.8359 14.1283 16.8287 14.1222L16.8257 14.1192C16.8189 14.1133 16.8119 14.1076 16.8047 14.1022L16.8017 14.1002L16.7797 14.0822L16.7767 14.0802L16.7537 14.0632L16.7507 14.0612L16.7277 14.0442L16.7247 14.0422L16.7017 14.0262L16.6987 14.0252L16.6747 14.0092L16.6727 14.0072L16.6477 13.9922H16.6457L16.6197 13.9762H16.6177L16.5907 13.9602H16.5897C16.2705 13.8254 15.9116 13.8193 15.588 13.9431C15.2644 14.0669 15.0012 14.3111 14.8536 14.6245C14.7059 14.9379 14.6852 15.2963 14.7957 15.6247C14.9063 15.953 15.1395 16.2259 15.4467 16.3862L14.8667 19.0382H17.0607L16.4757 16.3882C16.9777 16.1782 17.3047 15.6882 17.3047 15.1452Z" fill="white"/>
</g>
<defs>
<clipPath id="clip0_301_810">
<rect width="32" height="32" fill="white"/>
</clipPath>
</defs>
</svg>
