<svg width="32" height="32" viewBox="0 0 32 32" fill="none" xmlns="http://www.w3.org/2000/svg">
<g clip-path="url(#clip0_301_2321)">
<path d="M16 32C24.8366 32 32 24.8366 32 16C32 7.16344 24.8366 0 16 0C7.16344 0 0 7.16344 0 16C0 24.8366 7.16344 32 16 32Z" fill="#34318A"/>
<path d="M10.854 13.2639L14.464 15.1839L16.384 14.2239L11.795 11.7379V7.35994L20.618 11.9399L22.538 10.9799L11.238 5.05594C11.1091 4.98824 10.965 4.95498 10.8195 4.95937C10.674 4.96376 10.5321 5.00566 10.4076 5.08101C10.2831 5.15635 10.1801 5.26259 10.1087 5.38942C10.0373 5.51625 9.99984 5.65938 10 5.80494V11.8719C10.003 12.4589 10.332 12.9959 10.854 13.2639ZM24.611 12.2459C24.4862 12.1247 24.327 12.0449 24.1552 12.0176C23.9834 11.9902 23.8073 12.0165 23.651 12.0929L10.854 18.7359C10.329 19.0059 9.999 19.5469 10 20.1379V26.1949C9.99984 26.3405 10.0373 26.4836 10.1087 26.6105C10.1801 26.7373 10.2831 26.8435 10.4076 26.9189C10.5321 26.9942 10.674 27.0361 10.8195 27.0405C10.965 27.0449 11.1091 27.0116 11.238 26.9439L24.006 20.3199C24.539 20.0439 24.87 19.4899 24.861 18.8899V12.8419C24.861 12.731 24.8389 12.6211 24.796 12.5188C24.7531 12.4164 24.6902 12.3237 24.611 12.2459ZM23.075 18.7839L11.795 24.6399V20.2619L23.075 14.4059V18.7839Z" fill="white"/>
</g>
<defs>
<clipPath id="clip0_301_2321">
<rect width="32" height="32" fill="white"/>
</clipPath>
</defs>
</svg>
