<svg width="32" height="32" viewBox="0 0 32 32" fill="none" xmlns="http://www.w3.org/2000/svg">
<g clip-path="url(#clip0_301_798)">
<path d="M16 32C24.8366 32 32 24.8366 32 16C32 7.16344 24.8366 0 16 0C7.16344 0 0 7.16344 0 16C0 24.8366 7.16344 32 16 32Z" fill="#2B77B3"/>
<path d="M26.9999 16.0392C26.9529 22.1472 22.0029 27.0452 15.9229 26.9992C9.83788 26.9542 4.95088 21.9822 4.99988 15.8872C5.04988 9.85021 10.0139 4.96021 16.0499 5.00021C22.1299 5.04121 27.0439 9.99621 26.9999 16.0402V16.0392ZM5.79588 16.0042C5.80688 21.6242 10.3539 26.1612 15.9849 26.1742C21.6219 26.1842 26.2209 21.6162 26.2019 15.9902C26.1809 10.1302 21.3269 5.71021 15.7399 5.80621C10.3379 5.89821 5.78488 10.4902 5.79588 16.0042ZM18.6809 11.2282L18.2739 12.5302C17.5159 12.4052 16.8139 12.2562 16.1029 12.1862C15.6809 12.1452 15.2429 12.2552 15.0799 12.7302C14.9119 13.2172 14.8919 13.7362 15.2949 14.1122C15.7089 14.4972 16.1949 14.8022 16.6489 15.1442C17.0659 15.4582 17.5249 15.7322 17.8889 16.0992C18.8759 17.0952 19.0509 18.3032 18.6459 19.6052C18.4059 20.3772 17.8339 20.8652 17.1019 21.1612C15.9819 21.6152 14.0749 21.3912 13.0039 20.6712L13.4739 19.3072C14.1559 19.4872 14.7799 19.7032 15.4219 19.8052C16.0339 19.9022 16.6749 19.8082 16.9889 19.1832C17.3049 18.5532 17.2049 17.8902 16.7099 17.3842C16.3279 16.9942 15.8489 16.6972 15.4019 16.3722C15.1039 16.1562 14.7709 15.9862 14.4809 15.7602C13.9186 15.3303 13.5182 14.7228 13.3448 14.0366C13.1715 13.3503 13.2353 12.6256 13.5259 11.9802C13.654 11.672 13.8544 11.3992 14.1103 11.1849C14.3662 10.9707 14.67 10.8212 14.9959 10.7492C16.2509 10.4512 17.4679 10.5862 18.6809 11.2292V11.2282ZM10.6009 15.8182C10.6009 16.1528 10.4689 16.4739 10.2335 16.7117C9.99814 16.9495 9.67844 17.0848 9.34388 17.0882C8.64388 17.0912 8.04588 16.4812 8.06188 15.7842C8.07506 15.4498 8.21715 15.1336 8.45838 14.9017C8.69961 14.6697 9.02125 14.5402 9.35588 14.5402C10.0559 14.5502 10.6059 15.1152 10.6019 15.8182H10.6009ZM22.6939 14.5752C23.3919 14.5742 23.9119 15.0892 23.9209 15.7912C23.9248 15.9608 23.8946 16.1295 23.8321 16.2872C23.7696 16.445 23.6761 16.5886 23.5571 16.7095C23.4381 16.8304 23.2961 16.9263 23.1394 16.9913C22.9827 17.0564 22.8145 17.0893 22.6449 17.0882C22.31 17.0827 21.9909 16.9455 21.7565 16.7062C21.5222 16.467 21.3915 16.1451 21.3929 15.8102C21.3929 15.0782 21.9229 14.5752 22.6939 14.5752Z" fill="white"/>
</g>
<defs>
<clipPath id="clip0_301_798">
<rect width="32" height="32" fill="white"/>
</clipPath>
</defs>
</svg>
