<svg width="32" height="32" viewBox="0 0 32 32" fill="none" xmlns="http://www.w3.org/2000/svg">
<g clip-path="url(#clip0_301_782)">
<path d="M32 16.2196C32 19.3841 31.0616 22.4776 29.3035 25.1088C27.5454 27.7399 25.0466 29.7907 22.1229 31.0017C19.1993 32.2127 15.9823 32.5296 12.8786 31.9122C9.77487 31.2948 6.92394 29.771 4.6863 27.5333C2.44866 25.2957 0.924806 22.4448 0.307443 19.3411C-0.309921 16.2374 0.00693248 13.0203 1.21793 10.0967C2.42894 7.17308 4.4797 4.67422 7.11088 2.91612C9.74207 1.15802 12.8355 0.219635 16 0.219635C20.2435 0.219635 24.3131 1.90534 27.3137 4.90593C30.3143 7.90651 32 11.9762 32 16.2196Z" fill="#006AA8"/>
<path d="M14.7944 19.2815C14.8022 19.7702 14.6966 20.2542 14.486 20.6953C14.2864 21.1075 13.9918 21.4664 13.6264 21.7426C13.2157 22.0469 12.7506 22.2701 12.2562 22.4C11.6631 22.5535 11.0521 22.6274 10.4395 22.6196C9.82796 22.623 9.21727 22.5744 8.61401 22.4742C8.12553 22.4043 7.64949 22.2652 7.2002 22.0611V20.6153C7.39947 20.7011 7.62492 20.7884 7.87656 20.8742C8.1282 20.96 8.4031 21.0298 8.68383 21.0938C8.96456 21.1578 9.25401 21.2131 9.55656 21.2567C9.85083 21.2942 10.1472 21.3132 10.4438 21.3135C11.3806 21.3135 12.071 21.151 12.5151 20.8262C12.7358 20.6688 12.9135 20.4584 13.0316 20.2144C13.1498 19.9704 13.2048 19.7006 13.1915 19.4298C13.1971 19.1693 13.1527 18.91 13.0606 18.6662C12.9656 18.4326 12.8112 18.228 12.6126 18.0727C12.3543 17.8581 12.0674 17.6804 11.7602 17.5447C11.4043 17.3721 10.9539 17.1855 10.4089 16.9847C9.93841 16.8176 9.48296 16.6108 9.04747 16.3666C8.69527 16.1616 8.37603 15.9046 8.10056 15.6044C7.85569 15.3236 7.6675 14.9981 7.54638 14.6458C7.42447 14.2512 7.36556 13.8399 7.37183 13.4269C7.36381 12.9856 7.45999 12.5485 7.65256 12.1513C7.83699 11.7804 8.10545 11.4576 8.43656 11.2087C8.80024 10.9374 9.21178 10.7371 9.64965 10.6182C10.1585 10.4786 10.6842 10.4105 11.2118 10.416C11.8431 10.408 12.4733 10.4694 13.0911 10.5993C13.5998 10.7038 14.0968 10.8587 14.5747 11.0618L13.9929 12.3287C13.5691 12.1597 13.1323 12.0255 12.6867 11.9273C12.2005 11.806 11.7013 11.7445 11.2002 11.744C10.4865 11.744 9.93329 11.8987 9.54056 12.208C9.35164 12.3518 9.20013 12.5389 9.09886 12.7536C8.99758 12.9683 8.94952 13.2043 8.95874 13.4415C8.95259 13.7155 8.99748 13.9882 9.0911 14.2458C9.18726 14.4801 9.33666 14.6888 9.52747 14.8553C9.77092 15.0598 10.0398 15.2319 10.3275 15.3673C10.6659 15.5244 11.0814 15.6921 11.574 15.8706C12.051 16.0416 12.5169 16.2423 12.9689 16.4713C13.3378 16.6533 13.6779 16.8885 13.9784 17.1695C14.2428 17.4232 14.4497 17.7307 14.5849 18.0713C14.7325 18.4573 14.8037 18.8683 14.7944 19.2815Z" fill="white"/>
<path d="M18.9529 17.8516L20.1384 16.4713L22.7115 13.5389H24.5631L21.0431 17.3978L24.8002 22.4567H22.966L20.0162 18.3636L19.0548 19.0298V22.4567H17.4795V9.81964H19.0548V15.6189L18.9093 17.8516H18.9529Z" fill="white"/>
</g>
<defs>
<clipPath id="clip0_301_782">
<rect width="32" height="32" fill="white"/>
</clipPath>
</defs>
</svg>
