<svg width="32" height="32" viewBox="0 0 32 32" fill="none" xmlns="http://www.w3.org/2000/svg">
<g clip-path="url(#clip0_301_764)">
<path d="M16 32C24.8366 32 32 24.8366 32 16C32 7.16344 24.8366 0 16 0C7.16344 0 0 7.16344 0 16C0 24.8366 7.16344 32 16 32Z" fill="#F5342E"/>
<path d="M6.00102 16.1239C5.98962 15.0099 6.16089 13.9015 6.50802 12.8429C6.89994 11.6424 7.5158 10.5271 8.32302 9.55591C9.23886 8.44165 10.3896 7.54357 11.693 6.92591C12.5568 6.51494 13.478 6.23745 14.425 6.10291C14.9942 6.01867 15.57 5.98653 16.145 6.00691C17.2807 6.04844 18.4 6.29085 19.451 6.72291C19.467 6.72991 19.486 6.73691 19.488 6.75691C19.49 6.78291 19.467 6.79091 19.448 6.79891L19.088 6.93891C18.3037 7.24357 17.5372 7.59212 16.792 7.98291C15.965 8.41991 15.171 8.90991 14.434 9.49491C13.794 10.0039 13.209 10.5699 12.734 11.2479C12.414 11.7039 12.162 12.1939 12.024 12.7409C11.848 13.4329 11.891 14.1179 12.091 14.7969C12.238 15.2989 12.459 15.7689 12.703 16.2269C13.011 16.8069 13.36 17.3619 13.681 17.9339C13.973 18.4539 14.245 18.9839 14.425 19.5589C14.55 19.9599 14.625 20.3709 14.617 20.7929C14.6036 21.3402 14.4625 21.8768 14.205 22.3599C13.902 22.9439 13.487 23.4359 13.025 23.8899C12.598 24.3089 12.134 24.6779 11.655 25.0299C11.585 25.0819 11.53 25.0799 11.457 25.0419C10.7592 24.6873 10.1062 24.2505 9.51202 23.7409C8.79146 23.123 8.16278 22.4055 7.64502 21.6099C6.79495 20.3036 6.25643 18.8194 6.07102 17.2719C6.02154 16.8913 5.99816 16.5077 6.00102 16.1239Z" fill="white"/>
<path d="M12.0471 25.2406C12.0651 25.1976 12.1101 25.1966 12.1441 25.1846C12.8428 24.9292 13.5302 24.6436 14.2041 24.3286C14.9941 23.9566 15.7631 23.5446 16.4911 23.0636C17.0597 22.6941 17.5951 22.2759 18.0911 21.8136C18.5791 21.3536 19.0111 20.8496 19.3471 20.2696C19.6191 19.7996 19.8031 19.2986 19.8631 18.7576C19.9128 18.2656 19.8662 17.7687 19.7261 17.2946C19.5761 16.7656 19.3411 16.2726 19.0771 15.7916C18.7611 15.2146 18.4021 14.6616 18.0711 14.0936C17.7901 13.6106 17.5281 13.1186 17.3381 12.5916C17.1466 12.0852 17.0654 11.5438 17.1001 11.0036C17.1271 10.6336 17.2231 10.2776 17.3721 9.93557C17.5961 9.42157 17.9191 8.97257 18.2941 8.55857C18.8421 7.95157 19.4791 7.44857 20.1431 6.97457C20.2161 6.92157 20.2771 6.91557 20.3581 6.95657C21.0641 7.31057 21.7241 7.73257 22.3331 8.23357C22.9561 8.74657 23.5101 9.32357 23.9931 9.96657C25.1402 11.4845 25.8249 13.3011 25.9651 15.1986C25.9871 15.5136 26.0071 15.8286 25.9981 16.1446C25.9766 17.0642 25.8313 17.9767 25.5661 18.8576C25.0489 20.5516 24.0921 22.0784 22.7931 23.2826C21.3605 24.6108 19.5764 25.4994 17.6531 25.8426C16.9759 25.9615 16.2885 26.0131 15.6011 25.9966C14.4176 25.9664 13.2483 25.7312 12.1451 25.3016C12.1091 25.2856 12.0671 25.2816 12.0471 25.2416V25.2406Z" fill="white"/>
</g>
<defs>
<clipPath id="clip0_301_764">
<rect width="32" height="32" fill="white"/>
</clipPath>
</defs>
</svg>
