<svg width="32" height="32" viewBox="0 0 32 32" fill="none" xmlns="http://www.w3.org/2000/svg">
<g clip-path="url(#clip0_301_756)">
<path d="M16 32C24.8366 32 32 24.8366 32 16C32 7.16344 24.8366 0 16 0C7.16344 0 0 7.16344 0 16C0 24.8366 7.16344 32 16 32Z" fill="#FDA616"/>
<path d="M11.9209 22C12.0379 22.364 13.4859 23.864 14.9929 23.864C17.2269 23.864 18.5319 22.516 18.5319 20.566C18.5319 18.76 17.6279 17.728 15.3439 16.724C12.5829 15.606 10.8759 13.971 10.8759 11.247C10.8759 8.237 13.0599 6 16.3479 6C18.0799 6 19.8349 7.09 20.4169 7.818L19.0199 9.273C18.4679 8.929 17.8049 8.064 16.2729 8.064C13.9639 8.064 13.0849 9.641 13.0849 10.96C13.0849 12.767 14.1149 13.656 16.4479 14.688C19.3099 15.95 20.7659 17.527 20.7659 20.365C20.7659 23.348 18.8219 26 14.8309 26C13.1989 26 11.4559 24.91 10.4079 23.576L11.9209 22ZM13.7829 11.697C13.4339 10.97 13.6669 10.243 13.6669 10.243C22.5109 8.788 20.8819 17.393 20.8819 17.393C20.1839 16.061 19.4859 15.818 19.4859 15.818C19.6019 10.848 13.7829 11.697 13.7829 11.697ZM17.7399 19.576C18.0899 20.425 17.6859 21.308 17.6859 21.308C7.61592 22.606 10.3359 13.398 10.3329 13.398C10.8669 14.812 11.5309 15.143 11.5309 15.143C11.3409 20.909 17.7399 19.576 17.7399 19.576Z" fill="white"/>
</g>
<defs>
<clipPath id="clip0_301_756">
<rect width="32" height="32" fill="white"/>
</clipPath>
</defs>
</svg>
