<svg width="32" height="32" viewBox="0 0 32 32" fill="none" xmlns="http://www.w3.org/2000/svg">
<g clip-path="url(#clip0_301_736)">
<path d="M16 32C24.8366 32 32 24.8366 32 16C32 7.16344 24.8366 0 16 0C7.16344 0 0 7.16344 0 16C0 24.8366 7.16344 32 16 32Z" fill="#5B6DEE"/>
<path d="M13.3 15.0203C12.7421 15.0174 12.1851 15.0656 11.636 15.1643C12.088 10.9843 15.572 7.8183 19.72 7.8183C22.26 7.8183 24 9.0623 24 11.6363C24 14.2113 21.911 15.4553 18.864 15.4553C16.614 15.4553 15.55 15.0213 13.3 15.0213V15.0203ZM13.136 16.5453C10.089 16.5453 8 17.7903 8 20.3643C8 22.9383 9.74 24.1823 12.28 24.1823C16.428 24.1823 19.912 21.0173 20.364 16.8363C19.8149 16.935 19.2579 16.9832 18.7 16.9803C16.45 16.9803 15.385 16.5453 13.136 16.5453Z" fill="white"/>
</g>
<defs>
<clipPath id="clip0_301_736">
<rect width="32" height="32" fill="white"/>
</clipPath>
</defs>
</svg>
