<svg width="32" height="32" viewBox="0 0 32 32" fill="none" xmlns="http://www.w3.org/2000/svg">
<g clip-path="url(#clip0_301_2310)">
<path d="M16 32C24.8366 32 32 24.8366 32 16C32 7.16344 24.8366 0 16 0C7.16344 0 0 7.16344 0 16C0 24.8366 7.16344 32 16 32Z" fill="#3355B5"/>
<path d="M16 4C9.373 4 4 9.373 4 16C4 22.627 9.373 28 16 28C22.627 28 28 22.627 28 16C28 12.8174 26.7357 9.76515 24.4853 7.51472C22.2348 5.26428 19.1826 4 16 4ZM16 27.77C9.5 27.77 4.23 22.5 4.23 16C4.23 9.5 9.5 4.23 16 4.23C22.5 4.23 27.77 9.5 27.77 16C27.77 19.1216 26.53 22.1153 24.3226 24.3226C22.1153 26.53 19.1216 27.77 16 27.77Z" fill="white"/>
<path fill-rule="evenodd" clip-rule="evenodd" d="M19.2899 13.5L19.2599 13.39L19.2299 13.28L19.1999 13.16L19.1599 13.06L19.1299 12.95L19.0899 12.85L19.0399 12.74L18.9999 12.64L18.9499 12.55L18.8999 12.45L18.8499 12.36L18.7899 12.27L18.7399 12.19L18.6799 12.1L18.6199 12.03L18.5499 11.95L18.4899 11.88L18.4299 11.81L18.3599 11.75L18.2899 11.69L18.2199 11.63L18.1499 11.58L18.0699 11.53L17.9999 11.49L17.9199 11.44L17.8499 11.41L17.7699 11.37L17.6899 11.34L17.6099 11.31L17.5199 11.29L17.4399 11.27L17.3599 11.25L17.2699 11.24L17.1799 11.23L17.0999 11.22H16.8299L16.7399 11.23L16.6499 11.24L16.5499 11.25L16.4599 11.27L16.3699 11.29L16.2799 11.31L16.1799 11.34L16.0899 11.37L15.9899 11.4L15.8899 11.44L15.7999 11.48L15.6999 11.53L15.6099 11.57L15.5099 11.62L15.4099 11.68L15.3199 11.73L15.2199 11.79L15.1199 11.86L15.0299 11.92L14.9299 11.99L14.8299 12.07L14.7299 12.14L14.6399 12.22L14.5399 12.3L14.4499 12.39L14.3499 12.48L14.2499 12.57L14.1599 12.67L14.0599 12.77L13.9699 12.87L13.8799 12.97L13.7799 13.08L13.6899 13.19L13.5999 13.3L13.5099 13.42L13.4199 13.54L13.3299 13.67L13.2099 13.84L13.0899 14.02L12.9699 14.21L12.8599 14.39L12.7499 14.59L12.6399 14.78L12.5399 14.97L12.4399 15.17L12.3499 15.37L12.2599 15.57L12.1799 15.77L12.1099 15.93L19.2999 13.58L19.2899 13.5ZM12.7999 17.01L19.1699 16.96L19.1999 16.82L19.2299 16.68L19.2599 16.54L19.2899 16.39L19.3099 16.25L19.3399 16.11L19.3599 15.97L19.3699 15.83L19.3899 15.69L19.3999 15.55L19.4099 15.42L19.4199 15.28L19.4299 15.14V14.85L12.7999 17.01Z" fill="white"/>
<path d="M16.0001 4.56006C9.68206 4.56006 4.56006 9.68206 4.56006 16.0001C4.56006 22.3181 9.68206 27.4401 16.0001 27.4401C22.3181 27.4401 27.4401 22.3181 27.4401 16.0001C27.4401 14.4977 27.1442 13.0101 26.5692 11.6222C25.9943 10.2342 25.1517 8.97306 24.0894 7.91076C23.0271 6.84845 21.7659 6.00579 20.378 5.43088C18.99 4.85596 17.5024 4.56006 16.0001 4.56006ZM22.4801 16.9201L22.2801 18.1001H20.4901L20.4301 18.3001L20.3201 18.6001L20.2101 18.9001L20.0901 19.2001L20.0001 19.5001L19.8701 19.7901L19.7301 20.0801L19.5901 20.3701L19.4401 20.6501L19.2901 20.9301L19.1301 21.2001L18.9701 21.4701L18.8001 21.7401L18.6001 22.0001L18.5101 22.1301L18.4201 22.2601L17.4901 20.7001L17.5801 20.5701L17.6701 20.4401L17.7501 20.3101L17.8301 20.1801L17.9101 20.0501L17.9901 19.9201L18.0701 19.7901L18.1401 19.6601L18.2101 19.5201L18.2801 19.3801L18.3501 19.2401L18.4201 19.1001L18.4801 18.9601L18.5401 18.8201L18.6001 18.6801L18.6601 18.5401L18.7201 18.4001L18.7701 18.2601V18.1401L11.5001 18.2001V20.0501L9.64006 21.3401V18.2001H9.10006L8.90006 18.2701L8.56006 17.0801L10.2401 16.5301V16.4001L10.3101 16.1901L10.4101 16.0001L10.4801 15.8001L10.5601 15.6001L10.6401 15.4001L10.7201 15.2001L10.8001 15.0001L10.8901 14.8001L10.9801 14.6001L11.0701 14.4001L11.1601 14.2101L11.2601 14.0201L11.3601 13.8301L11.4601 13.6401L11.5601 13.4501L11.6701 13.2601L11.7801 13.0801L11.8901 12.9001L12.0001 12.7101L12.1101 12.5301L12.2301 12.3601L12.3501 12.1901L12.4601 12.0001L12.5801 11.8301L12.7001 11.6701L12.8301 11.5101L13.0001 11.3701L13.1301 11.2201L13.2601 11.0701L13.3901 10.9201L13.5301 10.7801L13.6701 10.6401L13.8101 10.5001L13.9501 10.3701L14.0901 10.2401L14.2301 10.1101L14.3401 10.0001L14.4901 9.88006L14.6401 9.77006L14.7901 9.66006L14.9401 9.55006L15.0901 9.45006L15.2401 9.36006L15.3901 9.27006L15.5401 9.19006L15.6901 9.11006L15.8201 9.00006L16.0001 8.95006L16.1401 8.89006L16.2801 8.83006L16.4201 8.78006H18.8301L18.9401 8.83006L19.0501 8.88006L19.1601 8.94006L19.2701 9.00006L19.3701 9.07006L19.4701 9.14006L19.5701 9.22006L19.6701 9.30006L19.7601 9.39006L19.8501 9.48006L19.9401 9.58006L20.0301 9.68006L20.1101 9.79006L20.1901 9.90006L20.2701 10.0101L20.3501 10.1301L20.4201 10.2501L20.4901 10.3801L20.5601 10.5101L20.6201 10.6501L20.6801 10.7901L20.7401 10.9301L20.8001 11.0801L20.8501 11.2301V13.0001L21.8501 12.6801L22.1901 13.8701L20.9101 14.2901V15.9201L20.8601 16.2201L20.8001 16.5201L20.7301 16.8201V16.9501L22.4801 16.9201Z" fill="white"/>
</g>
<defs>
<clipPath id="clip0_301_2310">
<rect width="32" height="32" fill="white"/>
</clipPath>
</defs>
</svg>
