<svg width="32" height="32" viewBox="0 0 32 32" fill="none" xmlns="http://www.w3.org/2000/svg">
<g clip-path="url(#clip0_301_704)">
<path d="M16 32C24.8366 32 32 24.8366 32 16C32 7.16344 24.8366 0 16 0C7.16344 0 0 7.16344 0 16C0 24.8366 7.16344 32 16 32Z" fill="#01AEF0"/>
<path fill-rule="evenodd" clip-rule="evenodd" d="M21.0692 18.8899C21.0562 20.9639 19.8582 22.7299 17.9472 23.4549C17.4992 23.6249 17.0332 23.7499 16.5692 23.8659C16.2922 23.9359 16.1412 24.0729 16.1192 24.3759C16.0912 24.7579 16.0522 25.1389 15.9992 25.5159C15.9352 25.9619 15.7822 26.0639 15.3722 25.9659C14.6662 25.7979 14.5902 25.6839 14.6842 24.9429C14.6922 24.8799 14.7012 24.8169 14.7082 24.7529C14.7782 24.1459 14.6922 24.0589 14.1112 24.0879C13.8502 24.1009 13.7412 24.2299 13.7162 24.4859C13.6822 24.8539 13.6462 25.2229 13.5862 25.5859C13.5262 25.9579 13.3702 26.0499 13.0122 25.9719C12.2482 25.8069 12.1922 25.7219 12.2922 24.9139C12.4182 23.9109 12.4152 23.9219 11.4892 23.6429C11.0792 23.5189 10.6812 23.3469 10.2802 23.1879C10.0362 23.0919 9.95617 22.9099 10.0222 22.6389C10.1062 22.2939 10.1642 21.9409 10.2362 21.5919C10.3602 20.9969 10.6482 20.8169 11.1982 21.0329C12.1722 21.4159 13.1722 21.6519 14.2132 21.6769C15.1522 21.6999 16.0812 21.6379 16.9382 21.1769C17.5042 20.8719 17.9202 20.4249 18.1292 19.7839C18.4392 18.8319 18.1612 18.0619 17.2692 17.6789C16.5342 17.3639 15.7452 17.1889 15.0042 16.8869C14.3462 16.6189 13.6622 16.3509 13.0942 15.9299C11.8172 14.9859 11.5942 13.5899 11.8742 12.0989C12.1922 10.4179 13.2212 9.32787 14.7482 8.74887C15.1552 8.59587 15.3392 8.38187 15.3462 7.92487C15.3522 7.42987 15.4312 6.93487 15.4912 6.44187C15.5372 6.06287 15.6852 5.95687 16.0392 6.01487C16.7912 6.13787 16.8812 6.25687 16.8072 7.03787C16.7782 7.34287 16.7532 7.64787 16.7172 7.95087C16.6872 8.20587 16.7682 8.32287 17.0352 8.33087C17.6442 8.34887 17.6702 8.33787 17.7422 7.70787C17.7882 7.30287 17.8222 6.89687 17.8772 6.49287C17.9372 6.04487 18.0822 5.94287 18.4952 6.02687C19.1902 6.16987 19.2672 6.27587 19.1992 6.99987C19.1692 7.31687 19.1542 7.63687 19.0992 7.94987C19.0362 8.30987 19.1462 8.47687 19.5042 8.55987C20.1852 8.71787 20.8592 8.91787 21.5282 9.12587C22.0312 9.28187 22.0512 9.33887 21.9542 9.86187C21.8972 10.1749 21.8402 10.4889 21.7662 10.7979C21.6282 11.3799 21.3382 11.5529 20.7842 11.3669C19.8362 11.0469 18.8842 10.7579 17.8792 10.7149C16.9992 10.6779 16.1312 10.6909 15.3672 11.2439C14.2912 12.0219 14.2852 13.6039 15.4292 14.2699C16.1572 14.6939 16.9982 14.9099 17.7872 15.2219C18.2682 15.4119 18.7622 15.5759 19.2242 15.8059C20.4622 16.4239 21.0832 17.4569 21.0692 18.8909" fill="white"/>
</g>
<defs>
<clipPath id="clip0_301_704">
<rect width="32" height="32" fill="white"/>
</clipPath>
</defs>
</svg>
