<svg width="32" height="32" viewBox="0 0 32 32" fill="none" xmlns="http://www.w3.org/2000/svg">
<g clip-path="url(#clip0_301_700)">
<path d="M16 32C24.8366 32 32 24.8366 32 16C32 7.16344 24.8366 0 16 0C7.16344 0 0 7.16344 0 16C0 24.8366 7.16344 32 16 32Z" fill="#4BA2F2"/>
<path d="M9.87001 8.22915C10.086 8.26615 9.54801 9.69915 9.84801 11.3362C10.108 12.7392 13.355 18.1722 13.221 20.0362C13.117 21.2062 10.451 23.9512 10.17 23.7682C9.86301 23.6832 10.98 21.8182 10.566 20.2642C10.084 18.4522 7.22601 13.7682 7.22901 11.7002C7.22901 10.1872 9.67701 8.13115 9.86901 8.22915H9.87001ZM15.979 6.08915C16.253 6.13615 15.569 7.96515 15.951 10.0482C16.281 11.8402 20.424 18.7682 20.252 21.1432C20.118 22.6372 16.72 26.1342 16.36 25.9032C15.97 25.7962 17.394 23.4172 16.866 21.4352C16.253 19.1272 12.608 13.1532 12.611 10.5162C12.611 8.58515 15.733 5.96615 15.979 6.09015V6.08915ZM22.284 8.22915C22.5 8.26615 21.963 9.69915 22.262 11.3362C22.522 12.7392 25.769 18.1722 25.636 20.0362C25.533 21.2062 22.866 23.9512 22.584 23.7682C22.278 23.6832 23.394 21.8182 22.98 20.2642C22.499 18.4522 19.64 13.7682 19.643 11.7002C19.643 10.1872 22.093 8.13115 22.284 8.22915Z" fill="white"/>
</g>
<defs>
<clipPath id="clip0_301_700">
<rect width="32" height="32" fill="white"/>
</clipPath>
</defs>
</svg>
