<svg width="32" height="32" viewBox="0 0 32 32" fill="none" xmlns="http://www.w3.org/2000/svg">
<g clip-path="url(#clip0_301_696)">
<path d="M16 32C24.8366 32 32 24.8366 32 16C32 7.16344 24.8366 0 16 0C7.16344 0 0 7.16344 0 16C0 24.8366 7.16344 32 16 32Z" fill="#2683FF"/>
<path d="M24.9772 18.971C25.3968 19.2227 25.7018 19.6281 25.8275 20.101C25.9531 20.5739 25.8895 21.0772 25.6502 21.504C25.1362 22.406 23.9682 22.726 23.0492 22.222C22.9592 22.173 22.8812 22.115 22.8012 22.057L17.8752 24.841C17.8872 24.931 17.8942 25.022 17.8952 25.113C17.8952 25.22 17.8952 25.317 17.8752 25.423C17.7072 26.443 16.7282 27.141 15.6892 26.976C14.6512 26.811 13.9392 25.85 14.1072 24.832L9.1502 22.028C9.07344 22.083 8.99437 22.1347 8.9132 22.183C8.8332 22.222 8.7542 22.27 8.6652 22.299C8.19789 22.4863 7.67572 22.4824 7.21124 22.2882C6.74677 22.094 6.37719 21.7251 6.1822 21.261C5.7872 20.301 6.2622 19.214 7.2412 18.826V13.218C7.15131 13.189 7.06507 13.1498 6.9842 13.101C6.91003 13.055 6.83732 13.0066 6.7662 12.956C6.4967 12.7602 6.28474 12.4956 6.15245 12.1899C6.02017 11.8841 5.97242 11.5485 6.0142 11.218C6.05846 10.8867 6.19019 10.5732 6.39583 10.3098C6.60147 10.0463 6.87359 9.84239 7.1842 9.719C7.49697 9.5929 7.83717 9.55038 8.17136 9.59561C8.50555 9.64085 8.8222 9.77229 9.0902 9.977L14.0962 7.134C14.0862 7.047 14.0762 6.97 14.0762 6.882C14.0762 5.854 14.9562 5 16.0052 5C17.0532 5 17.9132 5.834 17.9142 6.872C17.9142 6.96 17.9042 7.037 17.8942 7.125L22.9392 9.987C23.1584 9.82634 23.4091 9.71365 23.6748 9.65626C23.9404 9.59887 24.2152 9.59807 24.4813 9.65392C24.7473 9.70976 24.9985 9.821 25.2187 9.98038C25.4389 10.1398 25.6231 10.3437 25.7592 10.579C26.2722 11.481 25.9362 12.626 25.0162 13.131C24.9272 13.169 24.8382 13.218 24.7492 13.247V18.865C24.8282 18.895 24.9042 18.93 24.9762 18.971H24.9772ZM25.3242 21.319C25.4219 21.1577 25.4864 20.9786 25.5139 20.792C25.5414 20.6055 25.5313 20.4153 25.4842 20.2327C25.4372 20.0501 25.3541 19.8788 25.2399 19.7287C25.1257 19.5787 24.9827 19.453 24.8192 19.359C24.5498 19.2037 24.2382 19.138 23.929 19.1712C23.6199 19.2045 23.3294 19.335 23.0992 19.544L20.8332 18.254C21.1044 17.7061 21.1656 17.078 21.0053 16.488C20.845 15.8981 20.4743 15.3873 19.9632 15.052C19.8995 14.8379 19.8165 14.63 19.7152 14.431L23.1382 12.529C23.4942 12.859 23.9952 12.994 24.4732 12.889C24.6594 12.8488 24.8357 12.772 24.992 12.6631C25.1483 12.5542 25.2813 12.4153 25.3835 12.2546C25.4857 12.0938 25.5549 11.9144 25.5871 11.7266C25.6193 11.5389 25.6139 11.3466 25.5712 11.161C25.3932 10.385 24.6012 9.91 23.8112 10.084C23.625 10.1241 23.4487 10.2007 23.2924 10.3095C23.1361 10.4183 23.0029 10.5571 22.9007 10.7178C22.7984 10.8784 22.7291 11.0578 22.6968 11.2455C22.6644 11.4331 22.6697 11.6254 22.7122 11.811L19.2502 13.742C18.5782 12.956 16.4412 12.432 16.4412 12.432V8.153C16.655 8.09154 16.8501 7.97782 17.009 7.82209C17.1679 7.66636 17.2855 7.47354 17.3512 7.261C17.4027 7.09162 17.42 6.91367 17.402 6.73754C17.384 6.56141 17.3311 6.39062 17.2464 6.23516C17.1617 6.07969 17.0469 5.94266 16.9086 5.83206C16.7704 5.72146 16.6115 5.63952 16.4412 5.591C15.7192 5.378 14.9572 5.766 14.7392 6.475C14.6878 6.64432 14.6707 6.82217 14.6887 6.99819C14.7068 7.17421 14.7597 7.34487 14.8444 7.50022C14.9291 7.65557 15.0439 7.7925 15.1821 7.90303C15.3202 8.01356 15.479 8.09548 15.6492 8.144V12.51C15.6492 12.51 14.4832 12.888 14.0282 13.256C13.5449 13.2671 13.0707 13.3904 12.6432 13.616L9.3882 11.782C9.44304 11.5529 9.43917 11.3136 9.37694 11.0863C9.31471 10.8591 9.19613 10.6512 9.0322 10.482C8.76712 10.2025 8.40264 10.0387 8.01765 10.0259C7.63266 10.0132 7.25815 10.1526 6.9752 10.414C6.83507 10.5411 6.72186 10.695 6.64226 10.8667C6.56266 11.0383 6.51829 11.2241 6.51176 11.4132C6.50523 11.6023 6.53669 11.7908 6.60427 11.9675C6.67184 12.1442 6.77417 12.3055 6.9052 12.442C7.17044 12.7215 7.5351 12.8854 7.92025 12.8981C8.3054 12.9109 8.68007 12.7714 8.9632 12.51L11.9012 14.159C11.3859 14.6602 11.0683 15.3302 11.0066 16.0464C10.9449 16.7626 11.1432 17.4771 11.5652 18.059L8.9832 19.524C8.80423 19.3609 8.58823 19.2439 8.35387 19.1831C8.11951 19.1223 7.87387 19.1195 7.6382 19.175C7.45209 19.2165 7.27608 19.2945 7.12037 19.4046C6.96467 19.5146 6.83237 19.6545 6.73115 19.8161C6.62994 19.9777 6.56182 20.1578 6.53076 20.3459C6.49969 20.534 6.5063 20.7264 6.5502 20.912C6.7392 21.686 7.5312 22.163 8.3202 21.978C8.50619 21.9365 8.68211 21.8585 8.83774 21.7485C8.99336 21.6385 9.12561 21.4987 9.22682 21.3373C9.32802 21.1758 9.39616 20.9958 9.4273 20.8078C9.45843 20.6198 9.45194 20.4275 9.4082 20.242L12.1682 18.68C12.8782 19.243 13.8052 19.467 14.7002 19.291C14.9762 19.417 15.2602 19.524 15.5502 19.611V23.687C15.3541 23.7478 15.1719 23.8467 15.0142 23.9782C14.8565 24.1097 14.7263 24.271 14.6312 24.453C14.5413 24.6299 14.4876 24.823 14.4734 25.021C14.4591 25.2189 14.4846 25.4177 14.5482 25.6057C14.6118 25.7937 14.7123 25.967 14.8439 26.1156C14.9754 26.2642 15.1353 26.385 15.3142 26.471C15.3742 26.501 15.4332 26.529 15.5022 26.549C15.5122 26.549 15.5222 26.559 15.5322 26.559C16.3422 26.801 17.2042 26.364 17.4512 25.569C17.5103 25.3791 17.531 25.1793 17.5121 24.9813C17.4932 24.7833 17.435 24.591 17.341 24.4158C17.2469 24.2405 17.119 24.0857 16.9645 23.9604C16.81 23.8351 16.6321 23.7418 16.4412 23.686V19.69C16.4412 19.69 17.1832 19.622 17.5292 19.515C18.4942 19.895 19.5982 19.67 20.3292 18.943L22.6432 20.273C22.5721 20.5722 22.6003 20.8864 22.7235 21.1682C22.8467 21.45 23.0583 21.684 23.3262 21.835C23.6609 22.0256 24.0566 22.0784 24.4295 21.9823C24.8025 21.8862 25.1234 21.6486 25.3242 21.32V21.319ZM7.9842 19.961C8.2042 19.962 8.4062 20.076 8.5182 20.261C8.56867 20.3538 8.59579 20.4574 8.5972 20.563C8.59535 20.7239 8.52979 20.8775 8.41489 20.9902C8.29998 21.1028 8.14511 21.1653 7.9842 21.164C7.82311 21.1656 7.66798 21.1032 7.55286 20.9905C7.43774 20.8778 7.37204 20.7241 7.3702 20.563C7.3702 20.23 7.6452 19.961 7.9842 19.961ZM16.6492 6.873C16.6466 7.03383 16.5806 7.18713 16.4657 7.29965C16.3507 7.41216 16.196 7.47481 16.0352 7.474C15.8743 7.47533 15.7194 7.41282 15.6045 7.30017C15.4896 7.18752 15.424 7.03391 15.4222 6.873C15.4222 6.54 15.6972 6.271 16.0352 6.271C16.3752 6.271 16.6492 6.541 16.6492 6.873ZM24.1272 12.093C23.9666 12.0928 23.8125 12.0296 23.6979 11.9171C23.5833 11.8045 23.5173 11.6516 23.5142 11.491C23.5142 11.159 23.7892 10.889 24.1272 10.889C24.4672 10.889 24.7412 11.159 24.7412 11.491C24.7393 11.6521 24.6737 11.8058 24.5585 11.9185C24.4434 12.0312 24.2883 12.0936 24.1272 12.092V12.093ZM8.2702 10.937C8.33971 10.9745 8.40096 11.0256 8.45028 11.0873C8.4996 11.149 8.53599 11.22 8.55727 11.2961C8.57855 11.3721 8.58429 11.4517 8.57414 11.5301C8.56399 11.6084 8.53816 11.6839 8.4982 11.752C8.41727 11.8914 8.28443 11.9932 8.12871 12.035C7.97299 12.0768 7.80706 12.0552 7.6672 11.975C7.59748 11.9377 7.53603 11.8867 7.48654 11.825C7.43706 11.7633 7.40057 11.6923 7.37927 11.6162C7.35797 11.54 7.35229 11.4603 7.36259 11.382C7.37289 11.3036 7.39895 11.2281 7.4392 11.16C7.52012 11.0206 7.65296 10.9188 7.80868 10.877C7.9644 10.8352 8.13033 10.8568 8.2702 10.937ZM24.3742 20.077C24.4436 20.1145 24.5047 20.1656 24.5539 20.2272C24.6032 20.2888 24.6395 20.3597 24.6608 20.4357C24.682 20.5116 24.6878 20.5911 24.6778 20.6693C24.6677 20.7475 24.642 20.8229 24.6022 20.891C24.5455 20.982 24.4667 21.0573 24.3732 21.11C24.2797 21.1626 24.1745 21.1908 24.0672 21.192C23.9593 21.1938 23.8528 21.1672 23.7583 21.1149C23.6639 21.0626 23.5849 20.9865 23.5292 20.894C23.4744 20.8022 23.4455 20.6974 23.4455 20.5905C23.4455 20.4836 23.4744 20.3788 23.5292 20.287C23.5849 20.1945 23.6639 20.1184 23.7583 20.0661C23.8528 20.0138 23.9593 19.9872 24.0672 19.989C24.1751 19.9925 24.2805 20.0223 24.3742 20.076V20.077ZM15.4222 25.092C15.4232 25.0844 15.4267 25.0773 15.4322 25.072C15.4592 24.9148 15.5468 24.7745 15.6763 24.6814C15.8057 24.5882 15.9666 24.5497 16.1242 24.574C16.2818 24.5951 16.4246 24.678 16.5212 24.8044C16.6178 24.9308 16.6602 25.0903 16.6392 25.248C16.6095 25.3937 16.5302 25.5247 16.4148 25.6184C16.2993 25.7121 16.1549 25.7629 16.0062 25.762C15.9231 25.7584 15.8417 25.738 15.7667 25.702C15.6918 25.6659 15.625 25.615 15.5704 25.5523C15.5158 25.4897 15.4745 25.4165 15.449 25.3374C15.4235 25.2583 15.4144 25.1748 15.4222 25.092ZM18.9442 15.807C19.2383 15.8974 19.4954 16.0804 19.6772 16.3287C19.859 16.577 19.9558 16.8773 19.9532 17.185C19.9532 17.234 19.9432 17.283 19.9432 17.331C19.9332 17.37 19.9332 17.409 19.9232 17.447V17.477C19.9032 17.564 19.8832 17.651 19.8432 17.738C19.7335 18.0054 19.5438 18.2324 19.3002 18.388C19.2402 18.418 19.1902 18.447 19.1322 18.476L19.1022 18.486C18.9863 18.5398 18.8629 18.5759 18.7362 18.593L18.6862 18.602C18.6172 18.602 18.5582 18.612 18.4892 18.612C18.1662 18.612 17.8532 18.506 17.5992 18.311L17.3312 18.427C17.2492 18.467 17.1632 18.496 17.0742 18.515H17.0642C16.4521 18.6788 15.8011 18.613 15.2342 18.33H15.2242C15.1652 18.301 15.1062 18.272 15.0562 18.243L15.0362 18.233C14.9772 18.195 14.9282 18.156 14.8682 18.117C14.6284 18.2221 14.369 18.2749 14.1072 18.272C14.0272 18.272 13.9582 18.272 13.8892 18.262L13.8492 18.252L13.6712 18.224L13.6512 18.214C13.5878 18.2022 13.5253 18.1858 13.4642 18.165C13.3047 18.1121 13.152 18.0406 13.0092 17.952C12.7113 17.7677 12.4765 17.497 12.3362 17.176C12.3362 17.156 12.3262 17.146 12.3162 17.127C12.3046 17.094 12.2912 17.0616 12.2762 17.03C12.2644 17.0082 12.2544 16.9854 12.2462 16.962C12.2362 16.933 12.2172 16.904 12.2172 16.875C12.2152 16.8451 12.2085 16.8157 12.1972 16.788C12.1872 16.758 12.1872 16.748 12.1772 16.71C12.1672 16.671 12.1672 16.633 12.1582 16.594C12.1582 16.564 12.1482 16.545 12.1482 16.526C12.1399 16.4647 12.1366 16.4028 12.1382 16.341C12.137 16.2665 12.1404 16.1921 12.1482 16.118C12.1482 16.089 12.1582 16.07 12.1582 16.05C12.1682 15.992 12.1782 15.944 12.1882 15.895C12.1982 15.875 12.1982 15.847 12.2082 15.827C12.22 15.774 12.2364 15.7222 12.2572 15.672C12.2672 15.652 12.2672 15.643 12.2772 15.624C12.299 15.5637 12.3254 15.5052 12.3562 15.449L12.3662 15.429C12.5286 15.1313 12.7648 14.8804 13.0522 14.7003C13.3396 14.5203 13.6685 14.4172 14.0072 14.401C14.0372 14.391 14.0672 14.391 14.1072 14.391C14.2262 14.391 14.3452 14.401 14.4632 14.421C14.5132 14.361 14.5622 14.313 14.6212 14.255L14.6712 14.207C14.7302 14.158 14.7792 14.11 14.8392 14.071L14.8692 14.051C14.9082 14.022 14.9772 13.974 15.0072 13.954C15.0372 13.935 15.0862 13.896 15.1162 13.886C15.151 13.874 15.1842 13.8579 15.2152 13.838C15.2742 13.808 15.3732 13.76 15.4322 13.741L15.4822 13.702C15.8783 13.5481 16.3073 13.4982 16.7282 13.557H16.7382C16.8182 13.565 16.8972 13.577 16.9752 13.595H16.9852C17.0652 13.605 17.1342 13.635 17.2132 13.654L17.2232 13.664C17.3022 13.692 17.3712 13.721 17.4402 13.751L17.4602 13.761C17.5282 13.789 17.5942 13.821 17.6582 13.857L17.6682 13.867C17.7272 13.897 17.7962 13.945 17.8562 13.983L17.8662 13.993C17.9352 14.032 17.9942 14.08 18.0532 14.129L18.0632 14.139C18.394 14.417 18.6492 14.774 18.8052 15.177V15.187C18.8252 15.245 18.8452 15.313 18.8652 15.371C18.8652 15.391 18.8752 15.41 18.8752 15.429C18.8912 15.479 18.9052 15.532 18.9142 15.584L18.9442 15.807Z" fill="white"/>
</g>
<defs>
<clipPath id="clip0_301_696">
<rect width="32" height="32" fill="white"/>
</clipPath>
</defs>
</svg>
