<svg width="32" height="32" viewBox="0 0 32 32" fill="none" xmlns="http://www.w3.org/2000/svg">
<g clip-path="url(#clip0_301_688)">
<path d="M16 32C24.8366 32 32 24.8366 32 16C32 7.16344 24.8366 0 16 0C7.16344 0 0 7.16344 0 16C0 24.8366 7.16344 32 16 32Z" fill="#2DC4E7"/>
<path d="M5.15516 9.03575C6.22616 9.03575 7.33316 8.96375 8.40516 9.05975C8.88116 9.59475 8.98816 10.3447 9.35716 10.9637C14.1672 10.9877 19.0002 10.9637 23.8102 10.9637C24.1672 10.9877 24.6072 10.9997 24.7862 11.3567C25.0002 11.7497 24.8462 12.2137 24.6432 12.5707C23.6672 14.2257 22.7382 15.9047 21.7862 17.5707C21.4292 18.1667 21.1902 18.8327 20.6552 19.2977C20.2152 19.6667 19.6072 19.6897 19.0482 19.6897H12.3802C12.0232 19.6897 11.6422 19.6547 11.4282 19.3687C10.7382 18.5947 10.3682 17.6067 9.91616 16.7017C9.1334 15.1346 8.36735 13.5592 7.61816 11.9757C7.46316 11.6187 7.27316 11.2977 7.09416 10.9637C6.46416 10.9637 5.83216 10.9637 5.21416 10.9397C5.09416 10.3097 5.09416 9.66675 5.15416 9.03575H5.15516ZM12.6672 20.9757C13.1516 20.8607 13.6553 20.8525 14.1432 20.9517C14.6902 21.0717 15.1672 21.4877 15.2982 22.0357C15.4402 22.6657 15.4402 23.3457 15.1902 23.9517C14.9522 24.4997 14.3572 24.7617 13.7982 24.8097C13.1552 24.8567 12.4172 24.8097 11.9402 24.3327C11.4292 23.7617 11.4292 22.9287 11.5362 22.2137C11.6072 21.6187 12.0832 21.1067 12.6662 20.9757H12.6672ZM18.6192 20.9757C19.2142 20.8457 19.8572 20.8567 20.4292 21.0707C20.9762 21.2977 21.2622 21.8927 21.3092 22.4517C21.3812 23.1067 21.3092 23.8567 20.8332 24.3567C20.3932 24.7737 19.7502 24.8327 19.1672 24.8207C18.5952 24.7977 17.9772 24.5827 17.6792 24.0477C17.3952 23.4675 17.3193 22.8073 17.4642 22.1777C17.5842 21.5947 18.0362 21.1077 18.6192 20.9757Z" fill="white"/>
</g>
<defs>
<clipPath id="clip0_301_688">
<rect width="32" height="32" fill="white"/>
</clipPath>
</defs>
</svg>
