<svg width="32" height="32" viewBox="0 0 32 32" fill="none" xmlns="http://www.w3.org/2000/svg">
<g clip-path="url(#clip0_301_684)">
<path d="M16 32C24.8366 32 32 24.8366 32 16C32 7.16344 24.8366 0 16 0C7.16344 0 0 7.16344 0 16C0 24.8366 7.16344 32 16 32Z" fill="#1387C9"/>
<path d="M16.0529 18.3733L25.6469 12.7893L16.0529 7.10529L6.55489 12.7893L16.0529 18.3733ZM6.04689 15.4533C6.04669 15.5861 6.0813 15.7167 6.14727 15.8319C6.21325 15.9472 6.30828 16.0432 6.42289 16.1103L16.0499 21.7183L25.8349 15.9303C25.9472 15.8653 26.0747 15.8311 26.2045 15.831C26.3343 15.8309 26.4619 15.8651 26.5743 15.9299C26.6867 15.9948 26.78 16.0882 26.8449 16.2006C26.9098 16.313 26.9439 16.4405 26.9439 16.5703V19.1963C26.9438 19.3246 26.9106 19.4507 26.8473 19.5623C26.784 19.674 26.6929 19.7673 26.5829 19.8333L16.4259 25.8963C16.3132 25.9636 16.1845 25.9994 16.0533 26C15.9221 26.0005 15.7931 25.9657 15.6799 25.8993L5.25989 19.7733C5.13982 19.7022 5.05262 19.5866 5.01724 19.4516C4.98186 19.3166 5.00113 19.1732 5.07089 19.0523C5.10516 18.9925 5.15094 18.9402 5.20559 18.8982C5.26023 18.8562 5.32265 18.8255 5.38924 18.8079C5.45583 18.7902 5.52526 18.7859 5.59352 18.7953C5.66177 18.8046 5.7275 18.8274 5.78689 18.8623L16.0499 24.8953L25.8969 19.0173V17.1173L16.4239 22.7203C16.3117 22.7869 16.1838 22.8222 16.0533 22.8228C15.9228 22.8233 15.7946 22.789 15.6819 22.7233L5.89889 17.0233C5.62483 16.8631 5.39758 16.6338 5.23983 16.3583C5.08208 16.0828 4.99935 15.7708 4.99989 15.4533V12.9803C4.99957 12.8693 5.02852 12.7602 5.08382 12.664C5.13911 12.5678 5.2188 12.4879 5.31485 12.4323C5.4109 12.3767 5.5199 12.3475 5.63087 12.3475C5.74184 12.3475 5.85084 12.3767 5.94689 12.4323L6.55489 12.7893L5.79089 13.2463C5.71783 13.2905 5.63503 13.316 5.54978 13.3206C5.46453 13.3253 5.37945 13.3089 5.30202 13.2729C5.22458 13.237 5.15717 13.1826 5.10571 13.1144C5.05425 13.0463 5.02031 12.9666 5.00689 12.8823C4.98917 12.7773 5.00354 12.6694 5.04815 12.5727C5.09275 12.476 5.16551 12.395 5.25689 12.3403L15.6759 6.10429C15.7891 6.03635 15.9186 6.00029 16.0506 5.99994C16.1826 5.99959 16.3123 6.03496 16.4259 6.10229L26.6369 12.1523C26.748 12.2185 26.8399 12.3126 26.9035 12.4251C26.9671 12.5377 27.0004 12.6649 26.9999 12.7942C26.9993 12.9235 26.9651 13.0505 26.9006 13.1626C26.8361 13.2746 26.7435 13.3679 26.6319 13.4333L16.4199 19.3773C16.3076 19.4429 16.1798 19.4774 16.0498 19.4772C15.9197 19.477 15.792 19.4422 15.6799 19.3763L5.41989 13.3433C5.47415 13.3752 5.53495 13.3943 5.5977 13.3993C5.66044 13.4042 5.72349 13.3948 5.78207 13.3718C5.84064 13.3488 5.89322 13.3127 5.9358 13.2664C5.97839 13.22 6.00988 13.1646 6.02789 13.1043C6.04069 13.0642 6.04743 13.0224 6.04789 12.9803V15.4543L6.04689 15.4533Z" fill="white"/>
</g>
<defs>
<clipPath id="clip0_301_684">
<rect width="32" height="32" fill="white"/>
</clipPath>
</defs>
</svg>
