<svg width="32" height="32" viewBox="0 0 32 32" fill="none" xmlns="http://www.w3.org/2000/svg">
<g clip-path="url(#clip0_301_676)">
<path d="M16 32C24.8366 32 32 24.8366 32 16C32 7.16344 24.8366 0 16 0C7.16344 0 0 7.16344 0 16C0 24.8366 7.16344 32 16 32Z" fill="#E53431"/>
<path d="M12.117 5.3144C12.16 5.28127 12.2128 5.26365 12.267 5.2644C12.3211 5.2644 12.3738 5.28195 12.417 5.3144L13.674 6.2564C13.7003 6.27617 13.7224 6.30091 13.7391 6.32922C13.7558 6.35753 13.7668 6.38886 13.7714 6.4214C13.776 6.45395 13.7741 6.48708 13.7659 6.51891C13.7577 6.55074 13.7433 6.58064 13.7235 6.6069C13.7038 6.63317 13.679 6.65528 13.6507 6.67198C13.6224 6.68869 13.5911 6.69965 13.5585 6.70424C13.526 6.70884 13.4929 6.70698 13.461 6.69877C13.4292 6.69057 13.3993 6.67617 13.373 6.6564L12.267 5.8294L8.67004 8.5264L24.47 20.3804C24.5013 20.4039 24.5267 20.4343 24.5441 20.4693C24.5616 20.5043 24.5707 20.5428 24.5707 20.5819C24.5707 20.621 24.5616 20.6596 24.5441 20.6945C24.5267 20.7295 24.5013 20.7599 24.47 20.7834L23.309 21.6534C23.2557 21.6932 23.1888 21.7102 23.123 21.7006C23.0571 21.691 22.9978 21.6557 22.958 21.6024C22.9183 21.5491 22.9013 21.4822 22.9108 21.4163C22.9204 21.3505 22.9557 21.2912 23.009 21.2514L23.902 20.5814L8.10104 8.7294C8.06962 8.70637 8.04407 8.67626 8.02646 8.64151C8.00885 8.60677 7.99968 8.56836 7.99968 8.5294C7.99968 8.49045 8.00885 8.45204 8.02646 8.41729C8.04407 8.38255 8.06962 8.35244 8.10104 8.3294L12.117 5.3154V5.3144ZM16.134 5.3144C16.1769 5.28119 16.2295 5.263 16.2837 5.26264C16.3379 5.26228 16.3907 5.27977 16.434 5.3124L24.469 11.3394C24.5113 11.3706 24.5424 11.4146 24.5579 11.4648C24.5734 11.515 24.5724 11.5688 24.555 11.6184C24.5388 11.6684 24.5071 11.712 24.4645 11.7429C24.4219 11.7738 24.3706 11.7904 24.318 11.7904H20.301C20.247 11.7901 20.1945 11.7725 20.151 11.7404L14.878 7.7864C14.8516 7.76664 14.8294 7.74187 14.8126 7.71351C14.7957 7.68515 14.7847 7.65375 14.78 7.62111C14.7753 7.58847 14.7771 7.55523 14.7852 7.52328C14.7934 7.49133 14.8078 7.4613 14.8275 7.4349C14.8473 7.40851 14.8721 7.38626 14.9004 7.36944C14.9288 7.35262 14.9602 7.34155 14.9928 7.33686C15.0255 7.33217 15.0587 7.33395 15.0907 7.34211C15.1226 7.35027 15.1526 7.36464 15.179 7.3844L20.386 11.2884H23.565L16.285 5.8284L11.245 9.6084C11.2186 9.62817 11.1886 9.64254 11.1567 9.6507C11.1247 9.65886 11.0915 9.66064 11.0588 9.65595C10.9929 9.64648 10.9335 9.61121 10.8935 9.5579C10.8536 9.5046 10.8365 9.43761 10.846 9.3717C10.8555 9.30578 10.8907 9.24632 10.944 9.2064L16.134 5.3144ZM9.21004 10.5094C9.2636 10.477 9.32729 10.4658 9.38871 10.4778C9.45013 10.4898 9.50489 10.5242 9.54232 10.5744C9.57975 10.6245 9.59718 10.6868 9.59121 10.7491C9.58524 10.8114 9.55631 10.8693 9.51004 10.9114L8.66904 11.5414L24.47 23.3954C24.5015 23.4186 24.527 23.4489 24.5446 23.4839C24.5622 23.5188 24.5714 23.5573 24.5714 23.5964C24.5714 23.6355 24.5622 23.674 24.5446 23.709C24.527 23.7439 24.5015 23.7742 24.47 23.7974L20.453 26.8104C20.4096 26.8424 20.357 26.8597 20.303 26.8597C20.2491 26.8597 20.1965 26.8424 20.153 26.8104L18.99 25.9384C18.9367 25.8982 18.9016 25.8385 18.8923 25.7724C18.883 25.7063 18.9004 25.6392 18.9405 25.5859C18.9807 25.5326 19.0404 25.4974 19.1065 25.4881C19.1726 25.4789 19.2397 25.4962 19.293 25.5364L20.303 26.2934L23.903 23.5934L8.09804 11.7424C8.06714 11.7188 8.04211 11.6884 8.02488 11.6535C8.00765 11.6187 7.99868 11.5803 7.99868 11.5414C7.99868 11.5025 8.00765 11.4642 8.02488 11.4293C8.04211 11.3944 8.06714 11.364 8.09804 11.3404L9.20804 10.5104L9.21004 10.5094ZM8.25104 20.3284V20.3304H12.266C12.3202 20.3296 12.3731 20.3473 12.416 20.3804L17.632 24.2914C17.6584 24.3111 17.6807 24.3358 17.6975 24.3641C17.7144 24.3924 17.7255 24.4237 17.7302 24.4563C17.735 24.4889 17.7332 24.5221 17.7251 24.5541C17.717 24.586 17.7027 24.616 17.683 24.6424C17.6633 24.6688 17.6386 24.6911 17.6103 24.7079C17.582 24.7248 17.5507 24.7359 17.5181 24.7406C17.4855 24.7453 17.4523 24.7436 17.4204 24.7355C17.3884 24.7274 17.3584 24.7131 17.332 24.6934L12.186 20.8324H9.00504L16.286 26.2924L21.316 22.5204C21.3424 22.5006 21.3725 22.4861 21.4044 22.4779C21.4364 22.4697 21.4697 22.4679 21.5024 22.4725C21.5351 22.4771 21.5665 22.4882 21.595 22.505C21.6234 22.5218 21.6482 22.544 21.668 22.5704C21.6879 22.5968 21.7023 22.6268 21.7105 22.6588C21.7187 22.6908 21.7206 22.7241 21.7159 22.7568C21.7113 22.7894 21.7003 22.8209 21.6835 22.8493C21.6667 22.8777 21.6444 22.9026 21.618 22.9224L16.437 26.8064C16.3938 26.8389 16.3411 26.8564 16.287 26.8564C16.2326 26.8569 16.1794 26.8393 16.136 26.8064L8.09904 20.7814C8.05948 20.7809 8.0206 20.7711 7.98556 20.7527C7.95053 20.7344 7.92033 20.708 7.89742 20.6757C7.87452 20.6435 7.85957 20.6063 7.85378 20.5672C7.84799 20.528 7.85153 20.4881 7.86411 20.4506C7.8767 20.4131 7.89797 20.3791 7.92619 20.3514C7.95441 20.3236 7.98878 20.303 8.0265 20.2911C8.06422 20.2792 8.10422 20.2763 8.14324 20.2828C8.18226 20.2893 8.2192 20.3049 8.25104 20.3284Z" fill="white"/>
</g>
<defs>
<clipPath id="clip0_301_676">
<rect width="32" height="32" fill="white"/>
</clipPath>
</defs>
</svg>
