<svg width="32" height="32" viewBox="0 0 32 32" fill="none" xmlns="http://www.w3.org/2000/svg">
<g clip-path="url(#clip0_301_659)">
<circle cx="110" cy="110" r="110" fill="white"/>
<path d="M9.32516 6.7948L26.9106 18.8021L22.5615 25.2312L4.97607 13.1293L9.32516 6.7948Z" fill="url(#paint0_linear_301_659)"/>
<path d="M26.911 18.8024C25.3982 20.9769 20.2928 20.126 15.471 16.7224C10.5546 13.4133 7.90732 8.96966 9.3255 6.79511C10.8382 4.62057 15.9437 5.47148 20.7655 8.87511C25.6819 12.0897 28.3291 16.6278 26.911 18.8024Z" fill="url(#paint1_linear_301_659)"/>
<path d="M22.5622 25.1366C21.0495 27.3112 15.944 26.4603 11.1222 23.0566C6.30041 19.653 3.55859 15.3039 5.07131 13.0348C6.58404 10.8603 11.6895 11.7112 16.5113 15.1148C21.3331 18.5184 23.9804 22.9621 22.5622 25.1366Z" fill="url(#paint2_linear_301_659)"/>
<path d="M26.9115 18.8024L22.5624 25.2315C21.0496 27.406 15.9442 26.4606 11.1224 23.1515C10.1769 22.4897 9.32601 21.8278 8.4751 21.0715C9.13692 20.9769 9.98782 20.5988 10.8387 19.6533C12.3515 18.046 13.1078 17.6678 13.7696 17.7624C14.4315 17.7624 15.1878 18.4242 16.4169 20.0315C17.646 21.6388 19.3478 22.1115 20.3878 21.2606C20.4824 21.166 20.5769 21.166 20.6715 21.0715C21.5224 20.4097 21.806 20.126 23.4133 17.1006C23.7915 16.3442 25.1151 15.1151 26.9115 15.6824C27.3842 16.9115 27.3842 17.9515 26.9115 18.8024Z" fill="#0E0F23"/>
<path fill-rule="evenodd" clip-rule="evenodd" d="M26.249 18.424C24.9254 20.3149 20.2927 19.3695 15.849 16.2495C11.3109 13.1295 8.66359 9.15857 9.98723 7.26766C11.3109 5.37675 15.9436 6.32221 20.3872 9.44221C24.8309 12.5622 27.4781 16.5331 26.249 18.424ZM22.089 15.5877C21.4272 16.5331 19.1581 16.0604 16.889 14.5477C14.7145 13.0349 13.3909 11.0495 14.0527 10.104C14.7145 9.15857 16.9836 9.6313 19.2527 11.144C21.4272 12.6568 22.7509 14.6422 22.089 15.5877Z" fill="white"/>
<path d="M8.94752 8.96983C8.94752 8.87528 8.85297 8.78074 8.75843 8.87528C8.66388 8.96983 8.56934 8.96983 8.56934 9.06437C8.66388 9.34801 8.75843 9.5371 8.75843 9.72619C8.75843 9.82074 8.85297 9.91528 8.94752 9.82074C9.04206 9.82074 9.13661 9.72619 9.04206 9.63165C9.04206 9.44256 9.04206 9.25346 8.94752 8.96983Z" fill="white"/>
<path d="M9.42035 10.4822C9.42035 10.3877 9.32581 10.2931 9.23126 10.3877C9.13672 10.4822 9.13672 10.4822 9.13672 10.5768C10.1767 12.9404 12.3513 15.4931 15.1876 17.384C15.2822 17.4786 15.3767 17.384 15.4713 17.384C15.5658 17.2895 15.4713 17.1949 15.4713 17.1004C12.5404 15.2095 10.4604 12.7513 9.42035 10.4822Z" fill="white"/>
<path d="M20.861 19.7477C20.7664 19.7477 20.6719 19.7477 20.6719 19.8422C20.6719 19.9368 20.6719 20.0313 20.7664 20.0313C21.0501 20.1259 21.4282 20.2204 21.7119 20.315C21.8064 20.315 21.901 20.315 21.901 20.2204C21.901 20.1259 21.901 20.0313 21.8064 20.0313C21.5228 19.9368 21.1446 19.8422 20.861 19.7477Z" fill="white"/>
<path d="M22.5621 20.1262C22.4676 20.1262 22.373 20.2207 22.373 20.3153C22.373 20.4098 22.4676 20.5043 22.5621 20.5043C23.3185 20.5989 24.1694 20.6934 24.8312 20.5989C24.9258 20.5989 25.0203 20.5043 25.0203 20.4098C25.0203 20.3153 24.9258 20.2207 24.8312 20.2207C24.0749 20.3153 23.3185 20.2207 22.5621 20.1262Z" fill="white"/>
</g>
<defs>
<linearGradient id="paint0_linear_301_659" x1="12.7706" y1="5.08759" x2="16.258" y2="17.0629" gradientUnits="userSpaceOnUse">
<stop stop-color="#03B8FF"/>
<stop offset="1" stop-color="#FA52A0"/>
</linearGradient>
<linearGradient id="paint1_linear_301_659" x1="15.6428" y1="4.25146" x2="19.1303" y2="16.2269" gradientUnits="userSpaceOnUse">
<stop stop-color="#03B8FF"/>
<stop offset="1" stop-color="#FA52A0"/>
</linearGradient>
<linearGradient id="paint2_linear_301_659" x1="9.90826" y1="5.92129" x2="13.3958" y2="17.8967" gradientUnits="userSpaceOnUse">
<stop stop-color="#03B8FF"/>
<stop offset="1" stop-color="#FA52A0"/>
</linearGradient>
<clipPath id="clip0_301_659">
<rect width="32" height="32" fill="white"/>
</clipPath>
</defs>
</svg>
