<svg width="32" height="32" viewBox="0 0 32 32" fill="none" xmlns="http://www.w3.org/2000/svg">
<g clip-path="url(#clip0_301_655)">
<path d="M16 32C24.8366 32 32 24.8366 32 16C32 7.16344 24.8366 0 16 0C7.16344 0 0 7.16344 0 16C0 24.8366 7.16344 32 16 32Z" fill="#0082C6"/>
<path d="M18.046 15.1028C18.0251 15.0986 18.0034 15.1002 17.9833 15.1074C17.9632 15.1146 17.9454 15.1272 17.932 15.1438C17.9228 15.1554 17.9161 15.1687 17.9122 15.183C17.9084 15.1973 17.9075 15.2122 17.9097 15.2268C17.9118 15.2414 17.917 15.2554 17.9248 15.268C17.9326 15.2806 17.9429 15.2914 17.955 15.2998C22.334 18.4778 16.101 25.7538 4 18.0108C14.26 27.6658 28.547 17.0008 18.046 15.1028ZM12.202 10.8548C3.116 13.7618 13.525 20.6178 14.428 17.1548C14.432 17.1403 14.433 17.1252 14.431 17.1104C14.4289 17.0955 14.4239 17.0812 14.4161 17.0684C14.4083 17.0555 14.398 17.0444 14.3858 17.0357C14.3735 17.027 14.3597 17.0209 14.345 17.0178C14.324 17.0123 14.3018 17.0127 14.281 17.0188C12.944 17.4538 5.58 15.3948 12.201 10.8548H12.202ZM28 12.6018C20.133 6.9918 5.372 11.6178 12.987 15.5788C13.0142 15.5926 13.0457 15.5954 13.0749 15.5866C13.1041 15.5779 13.1288 15.5583 13.144 15.5318C13.152 15.5168 13.1565 15.5002 13.157 15.4832C13.1575 15.4662 13.1541 15.4493 13.147 15.4338C10.05 8.8898 25.781 10.8798 28 12.6018ZM21.472 20.7528C25.631 18.8628 22.249 12.3918 16.748 13.6408C16.7185 13.6475 16.6875 13.6423 16.6617 13.6264C16.6359 13.6105 16.6174 13.5852 16.61 13.5558C16.6053 13.5356 16.6065 13.5144 16.6136 13.4948C16.6207 13.4753 16.6334 13.4583 16.65 13.4458C20.93 10.2298 28.964 17.7378 21.472 20.7528Z" fill="white"/>
</g>
<defs>
<clipPath id="clip0_301_655">
<rect width="32" height="32" fill="white"/>
</clipPath>
</defs>
</svg>
