<svg width="32" height="32" viewBox="0 0 32 32" fill="none" xmlns="http://www.w3.org/2000/svg">
<g clip-path="url(#clip0_301_2299)">
<path d="M16 32C24.8366 32 32 24.8366 32 16C32 7.16344 24.8366 0 16 0C7.16344 0 0 7.16344 0 16C0 24.8366 7.16344 32 16 32Z" fill="#1E1E1E"/>
<path d="M16.092 23.1959C10.518 23.1959 6 21.5859 6 19.4279C6 18.3019 7.23 17.2879 9.2 16.5719C10.738 17.5589 13.317 18.0649 16.242 18.0649C19.098 18.0649 21.622 17.4479 23.172 16.5029C25.031 17.2099 26.185 18.1969 26.185 19.2849C26.185 21.4459 21.667 23.1959 16.092 23.1959Z" fill="white"/>
<path d="M16.152 17.5801C11.926 17.5801 8.5 16.2551 8.5 14.6201C8.5 13.7141 9.556 12.9021 11.212 12.3611C12.394 12.9781 14.165 13.3721 16.152 13.3721C18.139 13.3721 19.91 12.9781 21.092 12.3621C22.751 12.9051 23.804 13.7141 23.804 14.6201C23.807 16.2551 20.38 17.5801 16.152 17.5801Z" fill="white"/>
<path d="M16.124 12.88C12.857 12.88 10.208 11.786 10.208 10.44C10.208 9.095 12.858 8 16.124 8C19.39 8 22.04 9.095 22.04 10.44C22.04 11.786 19.39 12.88 16.124 12.88Z" fill="white"/>
</g>
<defs>
<clipPath id="clip0_301_2299">
<rect width="32" height="32" fill="white"/>
</clipPath>
</defs>
</svg>
