<svg width="32" height="32" viewBox="0 0 32 32" fill="none" xmlns="http://www.w3.org/2000/svg">
<g clip-path="url(#clip0_301_625)">
<path d="M16 32C24.8366 32 32 24.8366 32 16C32 7.16344 24.8366 0 16 0C7.16344 0 0 7.16344 0 16C0 24.8366 7.16344 32 16 32Z" fill="#434247"/>
<path d="M15.9999 4C12.8408 4 9.81102 5.25496 7.57718 7.4888C5.34334 9.72264 4.08838 12.7524 4.08838 15.9115C4.08838 19.0706 5.34334 22.1004 7.57718 24.3342C9.81102 26.568 12.8408 27.823 15.9999 27.823C22.5789 27.823 27.9109 22.49 27.9109 15.911C27.9109 9.333 22.5799 4 15.9999 4ZM15.9999 27.341C9.68188 27.341 4.55988 22.219 4.55988 15.901C4.55988 9.585 9.68288 4.463 15.9999 4.463C22.3169 4.463 27.4399 9.585 27.4399 15.903C27.4399 22.22 22.3179 27.342 15.9999 27.342" fill="white"/>
<path d="M17.3077 17.0817H20.3277V21.5377C20.3277 21.9797 19.8747 22.2157 19.4427 22.4427C19.0197 22.6687 18.3307 22.6197 17.1697 22.6197H15.7537C13.5797 22.6687 12.9697 22.5017 12.4487 22.2747C11.9277 22.0387 11.6617 21.7047 11.6617 21.2717V17.0817H10.0977V21.8027C10.0977 22.0587 10.2257 22.3537 10.4227 22.6197C10.6487 22.9247 10.6197 23.0127 11.1107 23.2587C11.5537 23.4847 11.9967 23.6617 12.7927 23.7607C13.4127 23.8387 13.3047 23.8197 14.4067 23.8387H17.0227C18.9897 23.7997 19.3927 23.9377 20.5627 23.3477C21.5177 22.8747 21.8427 22.3247 21.9107 21.9697V15.5477H17.3177V17.0817H17.3077ZM13.2357 7.99269C12.4387 8.04269 11.7797 8.28869 11.2687 8.48469C10.7477 8.68169 10.6387 8.91769 10.4227 9.17369C10.2227 9.40569 10.1107 9.70269 10.1077 10.0097V15.2427H11.6817V10.5097C11.6817 10.1067 11.9277 9.78269 12.4097 9.54669C12.9017 9.30069 13.6197 9.18269 14.2887 9.18269H17.3567C18.5267 9.18269 19.1567 9.16269 19.5207 9.37869C19.8947 9.61469 20.3377 9.82169 20.3377 10.2647V11.5137H21.9107V9.83269C21.8817 9.61569 21.6457 8.99669 20.5337 8.47469C19.5307 8.00269 19.2067 7.97369 17.6327 7.97369" fill="white"/>
</g>
<defs>
<clipPath id="clip0_301_625">
<rect width="32" height="32" fill="white"/>
</clipPath>
</defs>
</svg>
