<svg width="32" height="32" viewBox="0 0 32 32" fill="none" xmlns="http://www.w3.org/2000/svg">
<g clip-path="url(#clip0_301_612)">
<path d="M16 32C24.8366 32 32 24.8366 32 16C32 7.16344 24.8366 0 16 0C7.16344 0 0 7.16344 0 16C0 24.8366 7.16344 32 16 32Z" fill="#49BF87"/>
<path d="M7.38273 8.87648L6.39986 9.98516L10.2921 11.0202L11.7747 14.7304L12.7609 13.618L11.3733 9.80052L7.38273 8.87648Z" fill="white"/>
<path d="M13.2504 8.22456L12.2675 9.33324L16.1598 10.3683L17.6424 14.0785L18.6286 12.9661L17.241 9.1486L13.2504 8.22456Z" fill="white"/>
<path d="M18.7919 7.57258L17.809 8.68127L21.7013 9.71628L23.1839 13.4265L24.1701 12.3141L22.7825 8.49663L18.7919 7.57258Z" fill="white"/>
<path d="M18.7919 13.1141L17.809 14.2228L21.7013 15.2578L23.1839 18.9681L24.1701 17.8556L22.7825 14.0382L18.7919 13.1141Z" fill="white"/>
<path d="M18.7919 19.9597L17.809 21.0684L21.7013 22.1034L23.1839 25.8136L24.1701 24.7012L22.7825 20.8837L18.7919 19.9597Z" fill="white"/>
</g>
<defs>
<clipPath id="clip0_301_612">
<rect width="32" height="32" fill="white"/>
</clipPath>
</defs>
</svg>
