<svg width="32" height="32" viewBox="0 0 32 32" fill="none" xmlns="http://www.w3.org/2000/svg">
<g clip-path="url(#clip0_301_582)">
<path d="M16 32C24.8366 32 32 24.8366 32 16C32 7.16344 24.8366 0 16 0C7.16344 0 0 7.16344 0 16C0 24.8366 7.16344 32 16 32Z" fill="#1A1F36"/>
<path d="M18.525 14.4642C18.6664 14.4645 18.8025 14.4102 18.9047 14.3125C19.007 14.2149 19.0675 14.0815 19.0737 13.9402C19.0799 13.799 19.0313 13.6608 18.938 13.5545C18.8447 13.4483 18.7139 13.3823 18.573 13.3702H14.733V12.4102C14.6954 12.2774 14.6155 12.1605 14.5054 12.0773C14.3953 11.994 14.261 11.949 14.123 11.949C13.985 11.949 13.8508 11.994 13.7407 12.0773C13.6306 12.1605 13.5506 12.2774 13.513 12.4102V13.3702H12.486C12.341 13.3702 12.2018 13.4278 12.0992 13.5304C11.9967 13.633 11.939 13.7721 11.939 13.9172C11.939 14.0623 11.9967 14.2014 12.0992 14.304C12.2018 14.4066 12.341 14.4642 12.486 14.4642H13.514V17.8042C13.5188 18.6446 13.8553 19.4491 14.4503 20.0426C15.0453 20.6361 15.8506 20.9706 16.691 20.9732C17.3917 20.9625 18.0683 20.7155 18.611 20.2722L18.841 20.0802C18.915 20.0283 18.9773 19.9614 19.0237 19.8839C19.0701 19.8063 19.0996 19.7198 19.1104 19.6301C19.1211 19.5403 19.1128 19.4493 19.086 19.363C19.0592 19.2767 19.0145 19.197 18.9549 19.1291C18.8952 19.0612 18.8219 19.0067 18.7397 18.9691C18.6575 18.9314 18.5683 18.9115 18.4779 18.9107C18.3876 18.9099 18.298 18.9281 18.2151 18.9642C18.1323 19.0003 18.058 19.0534 17.997 19.1202L17.824 19.2642C17.5492 19.4917 17.2141 19.6346 16.8596 19.6754C16.5052 19.7163 16.1464 19.6533 15.827 19.4942C15.5004 19.3385 15.2244 19.0937 15.0308 18.788C14.8372 18.4823 14.734 18.128 14.733 17.7662V14.4642H18.525ZM24.765 18.1892C24.7777 18.1273 24.7781 18.0636 24.7661 18.0016C24.7541 17.9396 24.73 17.8805 24.6952 17.8279C24.6604 17.7752 24.6155 17.7299 24.5631 17.6946C24.5107 17.6593 24.4519 17.6347 24.39 17.6222H24.15C24.0433 17.6218 23.9396 17.6577 23.856 17.724C23.7724 17.7904 23.7139 17.8832 23.69 17.9872C23.4571 19.0063 23.0133 19.9653 22.3873 20.8025C21.7612 21.6398 20.9668 22.3366 20.0552 22.8483C19.1436 23.3599 18.1349 23.675 17.0942 23.7733C16.0534 23.8716 15.0036 23.7508 14.0123 23.4188C13.0211 23.0868 12.1103 22.5509 11.3386 21.8457C10.567 21.1404 9.95155 20.2814 9.53196 19.3239C9.11237 18.3664 8.89792 17.3317 8.90241 16.2863C8.9069 15.2409 9.13023 14.208 9.55803 13.2542C9.90214 12.4235 10.4065 11.6687 11.0424 11.033C11.6783 10.3973 12.4332 9.89308 13.264 9.5492C14.8849 8.82556 16.7089 8.69647 18.4155 9.18462C20.1221 9.67277 21.602 10.7469 22.595 12.2182C22.6653 12.3208 22.7727 12.392 22.8945 12.417C23.0163 12.442 23.143 12.4188 23.248 12.3522L23.334 12.2942C23.4494 12.2213 23.5313 12.1058 23.562 11.9729C23.5927 11.84 23.5697 11.7003 23.498 11.5842C22.4148 9.98973 20.8294 8.80331 18.9942 8.21367C17.159 7.62404 15.1793 7.66505 13.37 8.3302C12.2223 8.72465 11.1778 9.37192 10.3138 10.2242C9.44972 11.0765 8.78819 12.112 8.37803 13.2542C7.95176 14.3568 7.75791 15.5357 7.80861 16.7168C7.85932 17.8979 8.1535 19.0557 8.6727 20.1178C9.19191 21.1799 9.92493 22.1232 10.8258 22.8887C11.7267 23.6541 12.776 24.2252 13.908 24.5661C15.04 24.907 16.2301 25.0104 17.4039 24.8697C18.5777 24.729 19.7098 24.3473 20.7291 23.7486C21.7485 23.1499 22.6331 22.347 23.3276 21.3904C24.0221 20.4337 24.5115 19.3439 24.765 18.1892ZM16.874 4.9502H15.914C14.1794 5.02308 12.4841 5.48972 10.9565 6.31478C9.4289 7.13984 8.10907 8.30167 7.09696 9.71231C6.08485 11.1229 5.40699 12.7454 5.11472 14.4568C4.82245 16.1682 4.92344 17.9236 5.41003 19.5902C5.45207 19.729 5.54754 19.8455 5.67544 19.9139C5.80334 19.9824 5.95319 19.9972 6.09203 19.9552H6.16903C6.2851 19.8991 6.37764 19.8039 6.43033 19.6862C6.48303 19.5686 6.49248 19.4361 6.45703 19.3122C5.821 17.1338 5.91863 14.8068 6.73487 12.6893C7.55112 10.5718 9.04073 8.78138 10.9744 7.59357C12.908 6.40575 15.1785 5.88644 17.4362 6.11558C19.694 6.34472 21.8138 7.30961 23.4694 8.86171C25.1249 10.4138 26.2244 12.467 26.5986 14.7053C26.9728 16.9436 26.6009 19.2428 25.5402 21.249C24.4794 23.2552 22.7887 24.8571 20.7282 25.8081C18.6678 26.7591 16.3519 27.0065 14.137 26.5122C14.0412 26.4919 13.9416 26.4991 13.8497 26.5331C13.7579 26.5671 13.6775 26.6264 13.618 26.7042C13.5586 26.7783 13.5191 26.8663 13.5033 26.9599C13.4875 27.0535 13.4958 27.1496 13.5276 27.2391C13.5594 27.3285 13.6135 27.4084 13.6848 27.4711C13.7561 27.5338 13.8422 27.5772 13.935 27.5972C15.4613 27.8768 17.0286 27.8429 18.5414 27.4974C20.0542 27.1519 21.4808 26.5021 22.7344 25.5876C23.988 24.6731 25.0423 23.5129 25.8332 22.1779C26.624 20.8428 27.1348 19.3607 27.3345 17.8219C27.5342 16.2831 27.4186 14.7197 26.9947 13.227C26.5709 11.7343 25.8476 10.3435 24.8689 9.13928C23.8903 7.93506 22.6768 6.94265 21.3023 6.22246C19.9279 5.50228 18.4212 5.06941 16.874 4.9502Z" fill="white"/>
</g>
<defs>
<clipPath id="clip0_301_582">
<rect width="32" height="32" fill="white"/>
</clipPath>
</defs>
</svg>
