<svg width="32" height="32" viewBox="0 0 32 32" fill="none" xmlns="http://www.w3.org/2000/svg">
<g clip-path="url(#clip0_301_575)">
<path d="M16 32C24.8366 32 32 24.8366 32 16C32 7.16344 24.8366 0 16 0C7.16344 0 0 7.16344 0 16C0 24.8366 7.16344 32 16 32Z" fill="#3058A6"/>
<path d="M15.9949 27.2283C9.79688 27.2283 4.77188 22.2033 4.77188 16.0053C4.77188 9.80732 9.79688 4.78232 15.9949 4.78232C22.1929 4.78232 27.2179 9.80732 27.2179 16.0053C27.2179 22.2033 22.1929 27.2283 15.9949 27.2283ZM15.9949 4.06732C9.41188 4.06732 4.05688 9.42232 4.05688 16.0053C4.05688 22.5883 9.41188 27.9433 15.9949 27.9433C22.5779 27.9433 27.9329 22.5883 27.9329 16.0053C27.9329 9.42232 22.5779 4.06732 15.9949 4.06732Z" fill="white"/>
<path fill-rule="evenodd" clip-rule="evenodd" d="M20.199 20.2755L19.576 22.9745L19.426 23.6275H18.756L15.311 23.6255H15.297C13.916 23.6025 12.832 23.2355 12.121 22.5875C12.735 23.6705 14.039 24.2975 15.859 24.3275H15.873L19.317 24.3295H19.987L20.138 23.6765L20.761 20.9775L20.275 19.9465L20.199 20.2755ZM19.116 8.70452L18.624 7.68152L18.554 8.00152L18.087 10.1285H18.803L19.116 8.70452ZM21.603 11.1655L20.983 13.7905L20.829 14.4385H17.096L16.148 18.7665C16.128 18.8905 16.116 19.0165 16.116 19.0865C16.116 19.1475 16.123 19.1865 16.129 19.2055C16.2002 19.2322 16.2759 19.2451 16.352 19.2435H16.76L17.658 15.1415H21.391L21.544 14.4925L22.164 11.8675L21.682 10.8315L21.602 11.1655H21.603ZM12.341 14.4385H9.73999L10.636 15.1415H12.188L12.341 14.4385Z" fill="white"/>
<path fill-rule="evenodd" clip-rule="evenodd" d="M16.434 20.0862H16.339C15.615 20.0672 15.273 19.6902 15.273 19.0862C15.273 18.9422 15.297 18.7512 15.321 18.6082L16.419 13.5962H20.163L20.783 10.9712H17.039L17.731 7.82123H14.677L13.984 10.9712H10.67L10.074 13.5962H13.388L12.098 19.4912C12.028 19.7772 12.003 20.1112 12.003 20.2782C12.003 21.9602 13.33 22.7502 15.311 22.7832L18.755 22.7842L19.378 20.0862H16.434Z" fill="white"/>
</g>
<defs>
<clipPath id="clip0_301_575">
<rect width="32" height="32" fill="white"/>
</clipPath>
</defs>
</svg>
