<svg width="32" height="32" viewBox="0 0 32 32" fill="none" xmlns="http://www.w3.org/2000/svg">
<g clip-path="url(#clip0_301_571)">
<path d="M16 32C24.8366 32 32 24.8366 32 16C32 7.16344 24.8366 0 16 0C7.16344 0 0 7.16344 0 16C0 24.8366 7.16344 32 16 32Z" fill="#30C0F2"/>
<path d="M10.1229 7H21.8969C21.8969 7 22.2089 8.554 23.8769 8.658C23.8769 8.658 29.3989 21.508 15.9579 27C15.9579 27 3.55886 23.062 7.93486 8.762C7.93486 8.762 9.81086 8.658 10.1229 7ZM21.2729 8.023H10.7529L10.7389 8.247C10.6509 8.736 10.4059 9.077 10.0469 9.307C9.82438 9.44728 9.57506 9.53958 9.31486 9.578L9.13086 9.596L9.07886 9.774C8.10986 13.084 8.07686 15.944 8.83986 18.384C9.46586 20.384 10.5989 22.024 12.0919 23.334C12.8798 24.025 13.7517 24.6139 14.6869 25.087C14.9969 25.244 15.2869 25.373 15.5459 25.477C15.7029 25.54 15.8179 25.581 15.8809 25.602L15.9789 25.632L16.0739 25.592C19.7799 24.008 22.0219 21.614 23.0259 18.632C23.8559 16.172 23.7819 13.553 23.1629 11.073C23.0439 10.5972 22.9003 10.1279 22.7329 9.667C22.7194 9.63048 22.7054 9.59414 22.6909 9.558L22.6269 9.4L22.4559 9.389C21.9699 9.357 21.6609 9.159 21.4699 8.841C21.3682 8.67002 21.305 8.4789 21.2849 8.281L21.2729 8.023ZM11.2279 8.568C17.5949 8.569 20.7779 8.57 20.7779 8.571C20.8219 8.758 20.8929 8.944 20.9979 9.121C21.2539 9.546 21.6649 9.833 22.2409 9.915C22.392 10.3383 22.5221 10.7689 22.6309 11.205C23.2269 13.593 23.2969 16.111 22.5059 18.459C21.5609 21.266 19.4599 23.526 15.9549 25.049C15.6073 24.918 15.2671 24.7681 14.9359 24.6C14.0419 24.1483 13.2084 23.5859 12.4549 22.926C11.0339 21.678 9.95786 20.122 9.36386 18.223C8.64586 15.928 8.66486 13.23 9.55786 10.089C9.83576 10.0255 10.1011 9.91602 10.3429 9.765C10.7788 9.49246 11.0951 9.06467 11.2279 8.568ZM18.5879 14.15H18.2849C18.3149 13.542 18.1799 12.218 16.5349 11.85C16.0569 11.7357 15.5564 11.7586 15.0909 11.916C14.4489 12.144 13.6829 12.717 13.6539 14.15H13.4309C13.2036 14.15 12.9856 14.2399 12.8245 14.4001C12.6634 14.5603 12.5722 14.7778 12.5709 15.005V18.58C12.5722 18.8072 12.6634 19.0247 12.8245 19.1849C12.9856 19.3451 13.2036 19.435 13.4309 19.435H18.5889C18.8161 19.435 19.0341 19.3451 19.1952 19.1849C19.3564 19.0247 19.4475 18.8072 19.4489 18.58V15.005C19.4475 14.7778 19.3564 14.5603 19.1952 14.4001C19.0341 14.2399 18.8161 14.15 18.5889 14.15H18.5879ZM16.5829 18.192H15.4369L15.7399 16.685C15.5974 16.6236 15.4805 16.5148 15.409 16.377C15.3375 16.2393 15.3158 16.0811 15.3476 15.9292C15.3793 15.7773 15.4626 15.6411 15.5833 15.5435C15.704 15.446 15.8547 15.3932 16.0099 15.394C16.1015 15.3545 16.2007 15.3359 16.3004 15.3394C16.4001 15.343 16.4978 15.3687 16.5864 15.4147C16.6749 15.4606 16.7521 15.5257 16.8124 15.6052C16.8727 15.6847 16.9146 15.7766 16.9351 15.8742C16.9555 15.9719 16.9539 16.0729 16.9305 16.1699C16.9071 16.2668 16.8625 16.3574 16.7998 16.435C16.737 16.5126 16.6579 16.5753 16.568 16.6185C16.478 16.6618 16.3796 16.6845 16.2799 16.685L16.5829 18.192ZM14.3949 14.15C14.4229 13.682 14.6209 12.574 15.8539 12.492C15.8539 12.492 17.4799 12.403 17.4509 14.15H14.3949Z" fill="white"/>
</g>
<defs>
<clipPath id="clip0_301_571">
<rect width="32" height="32" fill="white"/>
</clipPath>
</defs>
</svg>
