<svg width="32" height="32" viewBox="0 0 32 32" fill="none" xmlns="http://www.w3.org/2000/svg">
<g clip-path="url(#clip0_301_565)">
<path d="M16 32C24.8366 32 32 24.8366 32 16C32 7.16344 24.8366 0 16 0C7.16344 0 0 7.16344 0 16C0 24.8366 7.16344 32 16 32Z" fill="#00843D"/>
<path d="M16.0061 5.60011C16.4001 5.60011 16.7871 5.70311 17.1281 5.90011L24.2881 10.0341C24.6294 10.2313 24.9128 10.5148 25.1097 10.8563C25.3067 11.1977 25.4103 11.5849 25.4101 11.9791V20.4131C25.4101 21.2151 24.9831 21.9561 24.2881 22.3571L17.1271 26.4921C16.7858 26.6891 16.3987 26.7929 16.0046 26.7929C15.6105 26.7929 15.2234 26.6891 14.8821 26.4921L7.72011 22.3571C7.37883 22.1601 7.09541 21.8767 6.89829 21.5355C6.70117 21.1943 6.5973 20.8072 6.59711 20.4131V11.9791C6.59711 11.1771 7.02511 10.4361 7.72011 10.0341L14.8801 5.90011C15.2221 5.70311 15.6101 5.59911 16.0031 5.59911H16.0051L16.0061 5.60011ZM16.0041 4.03911C15.3364 4.0395 14.6805 4.21537 14.1021 4.54911L6.94011 8.68211C6.36222 9.01692 5.88232 9.49754 5.54838 10.0759C5.21443 10.6543 5.03814 11.3102 5.03711 11.9781V20.4121C5.03814 21.08 5.21443 21.7359 5.54838 22.3143C5.88232 22.8927 6.36222 23.3733 6.94011 23.7081L14.1001 27.8421C15.2781 28.5221 16.7291 28.5221 17.9061 27.8421L25.0671 23.7081C25.645 23.3733 26.1249 22.8927 26.4588 22.3143C26.7928 21.7359 26.9691 21.08 26.9701 20.4121V11.9781C26.9691 11.3102 26.7928 10.6543 26.4588 10.0759C26.1249 9.49754 25.645 9.01692 25.0671 8.68211L17.9071 4.54711C17.3282 4.21304 16.6715 4.03715 16.0031 4.03711L16.0041 4.03911Z" fill="white"/>
<path d="M15.127 17.5205C15.0447 17.5206 14.9639 17.4991 14.8926 17.458C14.8213 17.4169 14.7621 17.3578 14.721 17.2865L13.86 15.7935C13.8189 15.7224 13.7973 15.6417 13.7973 15.5595C13.7973 15.4774 13.8189 15.3967 13.86 15.3255L14.721 13.8325C14.7621 13.7613 14.8213 13.7021 14.8926 13.661C14.9639 13.62 15.0447 13.5984 15.127 13.5985H16.885C16.967 13.5988 17.0476 13.6205 17.1187 13.6616C17.1897 13.7026 17.2488 13.7615 17.29 13.8325L18.152 15.3255C18.1931 15.3967 18.2147 15.4774 18.2147 15.5595C18.2147 15.6417 18.1931 15.7224 18.152 15.7935L17.29 17.2865C17.2489 17.3576 17.1899 17.4167 17.1188 17.4577C17.0477 17.4988 16.9671 17.5205 16.885 17.5205H15.127ZM12.778 15.1695C12.8602 15.1694 12.941 15.1478 13.0122 15.1067C13.0835 15.0657 13.1427 15.0066 13.184 14.9355L14.045 13.4425C14.0861 13.3714 14.1077 13.2907 14.1077 13.2085C14.1077 13.1264 14.0861 13.0457 14.045 12.9745L12.971 11.1135L10.874 12.2575C10.7988 12.2987 10.7364 12.3597 10.6935 12.434C10.6507 12.5082 10.629 12.5928 10.631 12.6785C10.648 13.5165 10.746 14.3505 10.922 15.1695H12.778ZM19.233 15.1695C19.1509 15.1695 19.0702 15.1478 18.9991 15.1067C18.9281 15.0657 18.869 15.0066 18.828 14.9355L17.966 13.4425C17.9249 13.3714 17.9033 13.2907 17.9033 13.2085C17.9033 13.1264 17.9249 13.0457 17.966 12.9745L19.04 11.1135L21.136 12.2575C21.2112 12.2985 21.2737 12.3593 21.3167 12.4334C21.3598 12.5074 21.3816 12.5919 21.38 12.6775C21.3629 13.5155 21.2658 14.35 21.09 15.1695H19.233ZM16.23 9.57851C16.1613 9.54105 16.0842 9.52142 16.006 9.52142C15.9277 9.52142 15.8507 9.54105 15.782 9.57851L13.656 10.7385L14.722 12.5845C14.763 12.6556 14.8221 12.7147 14.8931 12.7557C14.9642 12.7968 15.0449 12.8185 15.127 12.8185H16.885C16.9671 12.8186 17.0478 12.797 17.1189 12.7559C17.19 12.7148 17.249 12.6557 17.29 12.5845L18.356 10.7395L16.23 9.57951V9.57851ZM11.116 15.9495C11.5171 17.3763 12.1579 18.7246 13.011 19.9365L14.046 18.1445C14.0871 18.0734 14.1087 17.9927 14.1087 17.9105C14.1087 17.8284 14.0871 17.7477 14.046 17.6765L13.184 16.1835C13.1429 16.1124 13.0839 16.0534 13.0128 16.0123C12.9417 15.9712 12.8611 15.9496 12.779 15.9495H11.116ZM20.894 15.9495C20.4932 17.3763 19.8527 18.7245 19 19.9365L17.965 18.1445C17.9239 18.0734 17.9023 17.9927 17.9023 17.9105C17.9023 17.8284 17.9239 17.7477 17.965 17.6765L18.828 16.1835C18.869 16.1124 18.9281 16.0534 18.9991 16.0123C19.0702 15.9712 19.1509 15.9496 19.233 15.9495H20.895H20.894ZM15.127 18.3005C15.0447 18.3004 14.9639 18.322 14.8926 18.363C14.8213 18.4041 14.7621 18.4633 14.721 18.5345L13.521 20.6145C14.1672 21.4175 14.9053 22.1421 15.72 22.7735C15.8021 22.8367 15.9029 22.8709 16.0065 22.8709C16.1101 22.8709 16.2108 22.8367 16.293 22.7735C17.1074 22.1417 17.8451 21.4168 18.491 20.6135L17.291 18.5345C17.2499 18.4634 17.1909 18.4044 17.1198 18.3633C17.0487 18.3222 16.9681 18.3006 16.886 18.3005H15.126H15.127Z" fill="white"/>
</g>
<defs>
<clipPath id="clip0_301_565">
<rect width="32" height="32" fill="white"/>
</clipPath>
</defs>
</svg>
