<svg width="32" height="32" viewBox="0 0 32 32" fill="none" xmlns="http://www.w3.org/2000/svg">
<g clip-path="url(#clip0_301_531)">
<path d="M16 32C24.8366 32 32 24.8366 32 16C32 7.16344 24.8366 0 16 0C7.16344 0 0 7.16344 0 16C0 24.8366 7.16344 32 16 32Z" fill="#FF007A"/>
<path d="M12.2608 5.76681C11.9758 5.72281 11.9638 5.71681 12.0978 5.69681C12.3548 5.65681 12.9628 5.71181 13.3818 5.81081C14.3588 6.04381 15.2478 6.63881 16.1978 7.69581L16.4498 7.97581L16.8098 7.91881C18.3298 7.67381 19.8768 7.86881 21.1698 8.46581C21.5258 8.62981 22.0868 8.95681 22.1568 9.04181C22.1798 9.06781 22.2208 9.24081 22.2478 9.42481C22.3438 10.0618 22.2958 10.5498 22.1018 10.9148C21.9958 11.1128 21.9898 11.1748 22.0608 11.3448C22.0945 11.415 22.1472 11.4744 22.213 11.5161C22.2787 11.5578 22.3549 11.5802 22.4328 11.5808C22.7548 11.5808 23.1008 11.0608 23.2608 10.3378L23.3248 10.0508L23.4508 10.1938C24.1428 10.9778 24.6858 12.0468 24.7788 12.8068L24.8038 13.0058L24.6868 12.8258C24.4868 12.5158 24.2868 12.3038 24.0288 12.1328C23.5648 11.8258 23.0738 11.7218 21.7738 11.6528C20.5998 11.5908 19.9348 11.4908 19.2768 11.2758C18.1558 10.9108 17.5908 10.4238 16.2588 8.67681C15.6678 7.90081 15.3018 7.47181 14.9388 7.12681C14.1118 6.34081 13.2998 5.92881 12.2608 5.76681Z" fill="white"/>
<path d="M22.4217 7.49972C22.4517 6.97972 22.5217 6.63672 22.6637 6.32372C22.7197 6.19972 22.7727 6.09772 22.7807 6.09772C22.7718 6.16791 22.7533 6.23656 22.7257 6.30172C22.6227 6.60572 22.6057 7.02172 22.6767 7.50472C22.7667 8.11872 22.8187 8.20672 23.4667 8.86972C23.7717 9.18072 24.1257 9.57272 24.2537 9.74172L24.4867 10.0477L24.2537 9.82872C23.9687 9.56172 23.3127 9.03872 23.1677 8.96472C23.0707 8.91472 23.0557 8.91572 22.9957 8.97472C22.9407 9.03072 22.9287 9.11272 22.9217 9.50372C22.9097 10.1117 22.8267 10.5037 22.6257 10.8937C22.5177 11.1037 22.5007 11.0597 22.5987 10.8207C22.6717 10.6427 22.6787 10.5647 22.6787 9.97572C22.6787 8.79172 22.5377 8.50772 21.7127 8.01972C21.4645 7.87567 21.2095 7.74352 20.9487 7.62372C20.8199 7.57203 20.6949 7.51121 20.5747 7.44172C20.5977 7.41872 21.4017 7.65272 21.7247 7.77772C22.2067 7.96272 22.2857 7.98672 22.3447 7.96372C22.3837 7.94872 22.4027 7.83472 22.4217 7.49972ZM12.8147 9.52472C12.2357 8.72772 11.8777 7.50472 11.9547 6.59072L11.9787 6.30772L12.1107 6.33172C12.3587 6.37672 12.7857 6.53572 12.9857 6.65772C13.5337 6.99072 13.7717 7.42972 14.0127 8.55572C14.0837 8.88572 14.1767 9.25872 14.2197 9.38572C14.2877 9.58872 14.5477 10.0637 14.7597 10.3727C14.9117 10.5947 14.8097 10.6997 14.4737 10.6697C13.9597 10.6227 13.2637 10.1427 12.8147 9.52472ZM21.7197 15.4597C19.0127 14.3697 18.0597 13.4237 18.0597 11.8277C18.0597 11.5927 18.0677 11.4007 18.0767 11.4007C18.0867 11.4007 18.1917 11.4777 18.3097 11.5727C18.8587 12.0127 19.4737 12.2007 21.1747 12.4487C22.1757 12.5957 22.7397 12.7137 23.2597 12.8857C24.9117 13.4337 25.9337 14.5457 26.1777 16.0597C26.2477 16.4997 26.2067 17.3247 26.0917 17.7597C26.0017 18.1037 25.7247 18.7227 25.6517 18.7467C25.6317 18.7527 25.6117 18.6757 25.6057 18.5687C25.5777 18.0007 25.2907 17.4467 24.8077 17.0317C24.2587 16.5607 23.5217 16.1847 21.7187 15.4597H21.7197ZM19.8197 15.9117C19.7877 15.7186 19.744 15.5275 19.6887 15.3397L19.6187 15.1337L19.7477 15.2777C19.9247 15.4777 20.0657 15.7317 20.1837 16.0717C20.2747 16.3307 20.2847 16.4077 20.2837 16.8287C20.2837 17.2427 20.2727 17.3287 20.1887 17.5627C20.0719 17.9058 19.8764 18.2168 19.6177 18.4707C19.1227 18.9747 18.4877 19.2527 17.5697 19.3687C17.4097 19.3887 16.9457 19.4227 16.5367 19.4437C15.5067 19.4977 14.8297 19.6077 14.2207 19.8217C14.1658 19.8463 14.1068 19.8606 14.0467 19.8637C14.0227 19.8387 14.4367 19.5917 14.7797 19.4267C15.2627 19.1937 15.7427 19.0667 16.8197 18.8877C17.3517 18.7987 17.9017 18.6917 18.0407 18.6487C19.3587 18.2447 20.0357 17.2027 19.8187 15.9117H19.8197Z" fill="white"/>
<path d="M21.0597 18.1157C20.6997 17.3427 20.6177 16.5957 20.8147 15.8997C20.8357 15.8257 20.8697 15.7647 20.8897 15.7647C20.9574 15.7892 21.0211 15.8236 21.0787 15.8667C21.2447 15.9787 21.5767 16.1667 22.4617 16.6487C23.5667 17.2517 24.1967 17.7187 24.6257 18.2507C25.0007 18.7177 25.2327 19.2497 25.3447 19.8977C25.4077 20.2647 25.3707 21.1477 25.2767 21.5177C24.9797 22.6837 24.2887 23.5997 23.3047 24.1337C23.2119 24.1874 23.1157 24.2352 23.0167 24.2767C23.0027 24.2767 23.0547 24.1437 23.1337 23.9797C23.4637 23.2877 23.5027 22.6137 23.2517 21.8637C23.0987 21.4047 22.7857 20.8437 22.1547 19.8977C21.4207 18.7977 21.2407 18.5037 21.0597 18.1157ZM10.8927 22.2867C11.8977 21.4387 13.1467 20.8367 14.2857 20.6517C14.7757 20.5717 15.5938 20.6037 16.0477 20.7197C16.7757 20.9057 17.4277 21.3237 17.7667 21.8207C18.0967 22.3067 18.2397 22.7307 18.3867 23.6727C18.4467 24.0447 18.5097 24.4177 18.5287 24.5027C18.6387 24.9907 18.8558 25.3817 19.1237 25.5777C19.5487 25.8887 20.2817 25.9077 21.0017 25.6277C21.077 25.5932 21.1563 25.5683 21.2378 25.5537C21.2638 25.5797 20.9017 25.8227 20.6457 25.9507C20.3437 26.1124 20.0053 26.1943 19.6627 26.1887C19.0027 26.1887 18.4547 25.8537 17.9977 25.1687C17.9077 25.0337 17.7057 24.6307 17.5477 24.2717C17.0657 23.1717 16.8277 22.8357 16.2677 22.4687C15.7787 22.1487 15.1497 22.0917 14.6767 22.3237C14.0547 22.6287 13.8817 23.4237 14.3267 23.9267C14.5037 24.1267 14.8337 24.2997 15.1037 24.3327C15.2215 24.3483 15.3413 24.3385 15.4549 24.3038C15.5686 24.2691 15.6735 24.2105 15.7625 24.1318C15.8515 24.0531 15.9226 23.9562 15.9709 23.8477C16.0193 23.7392 16.0438 23.6215 16.0427 23.5027C16.0427 23.1707 15.9147 22.9827 15.5947 22.8377C15.1577 22.6407 14.6877 22.8707 14.6897 23.2817C14.6907 23.4567 14.7667 23.5667 14.9427 23.6467C15.0557 23.6967 15.0577 23.7017 14.9657 23.6827C14.5647 23.5987 14.4707 23.1157 14.7937 22.7947C15.1807 22.4087 15.9817 22.5787 16.2567 23.1047C16.3727 23.3257 16.3857 23.7667 16.2847 24.0327C16.0597 24.6277 15.4017 24.9397 14.7347 24.7697C14.2807 24.6537 14.0957 24.5287 13.5487 23.9647C12.5977 22.9847 12.2288 22.7947 10.8568 22.5807L10.5938 22.5397L10.8938 22.2867H10.8927Z" fill="white"/>
<path fill-rule="evenodd" clip-rule="evenodd" d="M6.1958 3.34961L6.2918 3.46661C9.9998 8.00661 11.9158 10.3626 12.0378 10.5306C12.2378 10.8086 12.1628 11.0576 11.8188 11.2536C11.6278 11.3626 11.2338 11.4726 11.0378 11.4726C10.8148 11.4726 10.5638 11.3656 10.3808 11.1926C10.2518 11.0696 9.7308 10.2916 8.5278 8.42461C7.96445 7.5422 7.39377 6.66451 6.8158 5.79161C6.7668 5.74561 6.7678 5.74661 8.4338 8.72761C9.4798 10.5996 9.8338 11.2606 9.8338 11.3496C9.8338 11.5296 9.7838 11.6236 9.5618 11.8716C9.1918 12.2846 9.0268 12.7486 8.9068 13.7086C8.7728 14.7856 8.3968 15.5456 7.3528 16.8466C6.7428 17.6086 6.6428 17.7486 6.4878 18.0556C6.2938 18.4416 6.2408 18.6586 6.2188 19.1466C6.1958 19.6626 6.2408 19.9966 6.3988 20.4896C6.5368 20.9216 6.6808 21.2076 7.0488 21.7776C7.3668 22.2706 7.5498 22.6366 7.5498 22.7796C7.5498 22.8936 7.5718 22.8936 8.0648 22.7826C9.2438 22.5166 10.2008 22.0476 10.7398 21.4736C11.0728 21.1186 11.1508 20.9226 11.1538 20.4356C11.1548 20.1176 11.1438 20.0506 11.0578 19.8676C10.9178 19.5696 10.6628 19.3216 10.1008 18.9376C9.3638 18.4336 9.0498 18.0276 8.9628 17.4706C8.8908 17.0136 8.9738 16.6906 9.3818 15.8366C9.8028 14.9526 9.9078 14.5766 9.9788 13.6856C10.0238 13.1096 10.0868 12.8826 10.2528 12.7006C10.4248 12.5106 10.5808 12.4456 11.0078 12.3876C11.7038 12.2926 12.1468 12.1126 12.5108 11.7776C12.8268 11.4856 12.9588 11.2046 12.9788 10.7826L12.9948 10.4626L12.8178 10.2566C12.5638 9.96061 10.4628 7.64261 6.5138 3.30061L6.4078 3.18561L6.1958 3.35061V3.34961ZM7.9098 19.7316C7.97957 19.6081 8.0004 19.4629 7.96818 19.3247C7.93595 19.1865 7.85302 19.0655 7.7358 18.9856C7.5078 18.8336 7.1528 18.9056 7.1528 19.1036C7.1528 19.1636 7.1858 19.2076 7.2608 19.2466C7.3878 19.3116 7.3968 19.3856 7.2978 19.5346C7.1968 19.6866 7.2048 19.8206 7.3208 19.9116C7.5068 20.0576 7.7708 19.9766 7.9108 19.7316H7.9098ZM13.4338 12.5556C13.1068 12.6556 12.7898 13.0026 12.6908 13.3656C12.6308 13.5866 12.6648 13.9756 12.7548 14.0956C12.8998 14.2896 13.0408 14.3406 13.4208 14.3376C14.1648 14.3326 14.8108 14.0136 14.8868 13.6146C14.9488 13.2876 14.6638 12.8346 14.2728 12.6346C14.0708 12.5326 13.6418 12.4916 13.4338 12.5556ZM14.3038 13.2356C14.4188 13.0726 14.3678 12.8956 14.1738 12.7776C13.8018 12.5506 13.2398 12.7376 13.2398 13.0896C13.2398 13.2636 13.5328 13.4546 13.8008 13.4546C13.9808 13.4546 14.2248 13.3476 14.3038 13.2356Z" fill="white"/>
</g>
<defs>
<clipPath id="clip0_301_531">
<rect width="32" height="32" fill="white"/>
</clipPath>
</defs>
</svg>
