<svg width="32" height="32" viewBox="0 0 32 32" fill="none" xmlns="http://www.w3.org/2000/svg">
<g clip-path="url(#clip0_301_519)">
<circle cx="16" cy="16" r="16" fill="white"/>
<path d="M13.9877 10.1115C13.7556 10.0784 13.7445 10.0673 13.8551 10.0562C14.0651 10.0231 14.5515 10.0673 14.8942 10.1447C15.6901 10.3326 16.4087 10.819 17.1715 11.6702L17.3705 11.9024L17.6579 11.8582C18.885 11.6592 20.1452 11.814 21.1954 12.3004C21.4828 12.433 21.9361 12.6983 21.9914 12.7647C22.0135 12.7868 22.0466 12.9305 22.0687 13.0742C22.1461 13.5938 22.113 13.9807 21.9471 14.2792C21.8587 14.445 21.8587 14.4892 21.914 14.6329C21.9582 14.7435 22.0908 14.8208 22.2125 14.8208C22.4778 14.8208 22.7541 14.4008 22.8868 13.8149L22.9421 13.5827L23.0416 13.6933C23.6053 14.3234 24.0475 15.1967 24.1139 15.8158L24.136 15.9816L24.0365 15.8379C23.8707 15.5836 23.7159 15.4178 23.5059 15.2741C23.13 15.0198 22.732 14.9424 21.6818 14.8872C20.7311 14.8319 20.1894 14.7545 19.6588 14.5776C18.7523 14.2792 18.288 13.8922 17.2157 12.4662C16.7404 11.8361 16.4419 11.4934 16.1434 11.2059C15.4912 10.5758 14.8389 10.2442 13.9877 10.1115Z" fill="#FF007A"/>
<path d="M22.2235 11.5155C22.2456 11.0954 22.3009 10.819 22.4225 10.5648C22.4667 10.4653 22.5109 10.3768 22.522 10.3768C22.533 10.3768 22.5109 10.4542 22.4778 10.5427C22.3893 10.7859 22.3783 11.1286 22.4335 11.5155C22.5109 12.0129 22.5441 12.0793 23.0747 12.6209C23.3179 12.8752 23.6053 13.1958 23.7159 13.3284L23.9038 13.5717L23.7159 13.3948C23.4837 13.1737 22.9531 12.7536 22.8315 12.6983C22.7541 12.6541 22.7431 12.6541 22.6878 12.7094C22.6436 12.7536 22.6325 12.8199 22.6325 13.1405C22.6215 13.638 22.5551 13.9475 22.3893 14.2681C22.3009 14.4339 22.2898 14.4008 22.3672 14.2128C22.4225 14.0691 22.4335 14.0028 22.4335 13.5274C22.4335 12.5657 22.323 12.3335 21.6487 11.9466C21.4828 11.8471 21.1954 11.7034 21.0296 11.626C20.8527 11.5486 20.7201 11.4823 20.7311 11.4823C20.7532 11.4602 21.4055 11.6481 21.6597 11.7587C22.0466 11.9134 22.113 11.9245 22.1572 11.9134C22.1903 11.8803 22.2124 11.7918 22.2235 11.5155Z" fill="#FF007A"/>
<path d="M14.4405 13.1626C13.9762 12.5215 13.6777 11.5265 13.7441 10.7859L13.7662 10.5537L13.8767 10.5758C14.0757 10.609 14.4184 10.7416 14.5842 10.8411C15.0264 11.1064 15.2254 11.4713 15.4133 12.3777C15.4686 12.6431 15.546 12.9526 15.5792 13.0521C15.6344 13.2179 15.8445 13.6048 16.0213 13.848C16.1429 14.0249 16.0656 14.1133 15.7892 14.0912C15.3691 14.047 14.8053 13.6601 14.4405 13.1626Z" fill="#FF007A"/>
<path d="M21.6594 17.9714C19.4706 17.0871 18.6968 16.3243 18.6968 15.0309C18.6968 14.8429 18.7078 14.6882 18.7078 14.6882C18.7189 14.6882 18.7963 14.7545 18.8958 14.8319C19.338 15.1856 19.8354 15.3404 21.2173 15.5394C22.0243 15.661 22.4886 15.7494 22.9086 15.8931C24.2463 16.3353 25.0754 17.2418 25.2744 18.4689C25.3296 18.8226 25.2965 19.497 25.208 19.8507C25.1306 20.1271 24.9095 20.6356 24.8543 20.6467C24.8432 20.6467 24.8211 20.5914 24.8211 20.503C24.799 20.0387 24.5668 19.5965 24.1799 19.2538C23.7156 18.8558 23.1187 18.5573 21.6594 17.9714Z" fill="#FF007A"/>
<path d="M20.1119 18.3363C20.0898 18.1705 20.0345 17.9604 20.0013 17.872L19.9461 17.7062L20.0456 17.8278C20.1893 17.9936 20.2998 18.1926 20.3993 18.469C20.4767 18.679 20.4767 18.7453 20.4767 19.088C20.4767 19.4197 20.4656 19.497 20.3993 19.685C20.2888 19.9835 20.1561 20.1935 19.935 20.4256C19.537 20.8347 19.0175 21.0558 18.2768 21.1553C18.1441 21.1663 17.7683 21.1995 17.4366 21.2216C16.6075 21.2658 16.0548 21.3542 15.5573 21.5311C15.491 21.5532 15.4247 21.5753 15.4136 21.5643C15.3915 21.5422 15.7342 21.3432 16.0106 21.2105C16.3975 21.0226 16.7955 20.9231 17.6688 20.7683C18.0999 20.702 18.5421 20.6136 18.6527 20.5694C19.7471 20.2267 20.2888 19.3754 20.1119 18.3363Z" fill="#FF007A"/>
<path d="M21.1181 20.1161C20.8307 19.486 20.7644 18.889 20.9191 18.3252C20.9413 18.2699 20.9634 18.2147 20.9855 18.2147C21.0076 18.2147 21.0739 18.2478 21.1402 18.292C21.2729 18.3805 21.5493 18.5352 22.2568 18.9222C23.1522 19.4086 23.6607 19.7844 24.0145 20.2156C24.324 20.5914 24.5119 21.0226 24.6004 21.5532C24.6556 21.8517 24.6225 22.5702 24.5451 22.8687C24.3019 23.8084 23.7492 24.5601 22.9422 24.9912C22.8206 25.0575 22.7211 25.1018 22.71 25.1018C22.699 25.1018 22.7432 24.9912 22.8095 24.8586C23.0748 24.2948 23.108 23.7531 22.909 23.1451C22.7874 22.7692 22.5331 22.316 22.0246 21.5532C21.4166 20.6688 21.2729 20.4367 21.1181 20.1161Z" fill="#FF007A"/>
<path d="M12.8821 23.4988C13.7001 22.8134 14.7061 22.327 15.6347 22.1723C16.0327 22.1059 16.6959 22.128 17.0607 22.2275C17.6466 22.3823 18.1773 22.7139 18.4536 23.123C18.719 23.5209 18.8406 23.8636 18.9622 24.6264C19.0064 24.9249 19.0617 25.2344 19.0727 25.3007C19.1611 25.6987 19.338 26.0082 19.5591 26.1741C19.9018 26.4283 20.4988 26.4394 21.0847 26.2183C21.1842 26.1851 21.2726 26.152 21.2726 26.163C21.2947 26.1851 20.9962 26.3841 20.7972 26.4836C20.5209 26.6273 20.2998 26.6715 20.0013 26.6715C19.4707 26.6715 19.0174 26.3952 18.6526 25.8424C18.5752 25.7319 18.4205 25.4113 18.2878 25.1128C17.9009 24.2174 17.7019 23.9521 17.2487 23.6536C16.8507 23.3993 16.3422 23.3441 15.9553 23.532C15.4468 23.7752 15.3141 24.4274 15.6678 24.8254C15.8116 24.9912 16.0769 25.1239 16.298 25.157C16.707 25.2123 17.0607 24.8917 17.0607 24.4827C17.0607 24.2174 16.9613 24.0626 16.6959 23.941C16.3422 23.7862 15.9553 23.9631 15.9663 24.3058C15.9663 24.4495 16.0327 24.538 16.1764 24.6043C16.2648 24.6485 16.2648 24.6485 16.1985 24.6375C15.8779 24.5711 15.8005 24.1732 16.0548 23.9189C16.3643 23.6094 17.0165 23.742 17.2376 24.1732C17.3261 24.35 17.3371 24.7038 17.2597 24.9249C17.0718 25.4113 16.5412 25.6656 15.9995 25.5218C15.6347 25.4223 15.4799 25.3229 15.0377 24.8696C14.2639 24.0737 13.9654 23.9189 12.8599 23.7531L12.6499 23.7199L12.8821 23.4988Z" fill="#FF007A"/>
<path fill-rule="evenodd" clip-rule="evenodd" d="M7.06727 5.71174C9.64303 8.84024 13.6117 13.7043 13.8107 13.9696C13.9765 14.1907 13.9102 14.4008 13.6338 14.5555C13.479 14.644 13.1584 14.7324 13.0037 14.7324C12.8268 14.7324 12.6168 14.644 12.473 14.5003C12.3735 14.4008 11.9424 13.7707 10.9696 12.2562C10.2289 11.0954 9.59881 10.1336 9.58775 10.1226C9.54353 10.1005 9.54353 10.1005 10.8922 12.5104C11.7434 14.0249 12.0198 14.5666 12.0198 14.6329C12.0198 14.7766 11.9756 14.854 11.7987 15.053C11.5002 15.3846 11.3676 15.7605 11.2681 16.5454C11.1575 17.4187 10.859 18.0378 10.0078 19.088C9.51037 19.7071 9.43299 19.8176 9.31138 20.0719C9.15662 20.3814 9.1124 20.5583 9.09029 20.9562C9.06818 21.3763 9.1124 21.6416 9.234 22.0396C9.34455 22.3934 9.46615 22.6255 9.76463 23.0787C10.0189 23.4767 10.1737 23.7752 10.1737 23.8857C10.1737 23.9742 10.1958 23.9742 10.5937 23.8857C11.5444 23.6646 12.3293 23.2888 12.7605 22.8245C13.0258 22.5371 13.0921 22.3823 13.0921 21.9843C13.0921 21.7301 13.0811 21.6748 13.0147 21.52C12.9042 21.2768 12.6941 21.0778 12.2409 20.7683C11.6439 20.3593 11.3897 20.0276 11.3233 19.5855C11.2681 19.2096 11.3344 18.9553 11.666 18.2589C12.0087 17.5403 12.0972 17.2418 12.1525 16.5122C12.1856 16.0479 12.2409 15.86 12.3735 15.7163C12.5173 15.5615 12.6389 15.5062 12.9816 15.462C13.5454 15.3846 13.9102 15.2409 14.1976 14.9646C14.4518 14.7324 14.5624 14.5003 14.5734 14.1576L14.5845 13.9033L14.4408 13.7485C13.9212 13.1516 6.72457 5.23639 6.69141 5.23639C6.68035 5.23639 6.85723 5.44643 7.06727 5.71174ZM10.4611 21.4316C10.5827 21.2216 10.5164 20.9562 10.3174 20.8236C10.1294 20.702 9.84201 20.7573 9.84201 20.9231C9.84201 20.9673 9.86412 21.0115 9.93045 21.0336C10.0299 21.0889 10.041 21.1442 9.96361 21.2658C9.88623 21.3874 9.88623 21.4979 9.98572 21.5753C10.1405 21.6969 10.3505 21.6306 10.4611 21.4316Z" fill="#FF007A"/>
<path fill-rule="evenodd" clip-rule="evenodd" d="M14.9383 15.6168C14.673 15.6942 14.4188 15.9816 14.3414 16.269C14.2972 16.4459 14.3193 16.7665 14.3967 16.866C14.5183 17.0208 14.6288 17.065 14.9383 17.065C15.5464 17.065 16.0659 16.7997 16.1212 16.4791C16.1765 16.2138 15.9443 15.849 15.6237 15.6831C15.4579 15.5947 15.1152 15.5615 14.9383 15.6168ZM15.6458 16.1695C15.7343 16.0369 15.7011 15.8932 15.5353 15.7937C15.2368 15.6058 14.7836 15.7605 14.7836 16.0479C14.7836 16.1917 15.0157 16.3464 15.2368 16.3464C15.3805 16.3464 15.5795 16.258 15.6458 16.1695Z" fill="#FF007A"/>
</g>
<defs>
<clipPath id="clip0_301_519">
<rect width="32" height="32" fill="white"/>
</clipPath>
</defs>
</svg>
