<svg width="32" height="32" viewBox="0 0 32 32" fill="none" xmlns="http://www.w3.org/2000/svg">
<g clip-path="url(#clip0_301_424)">
<g opacity="0.98">
<path opacity="0.98" d="M16 32C12.8355 32 9.74207 31.0616 7.11088 29.3035C4.4797 27.5454 2.42894 25.0466 1.21793 22.1229C0.0069325 19.1993 -0.309921 15.9823 0.307443 12.8786C0.924806 9.77487 2.44866 6.92394 4.6863 4.6863C6.92394 2.44866 9.77487 0.924806 12.8786 0.307443C15.9823 -0.309921 19.1993 0.0069325 22.1229 1.21793C25.0466 2.42894 27.5454 4.4797 29.3035 7.11088C31.0616 9.74207 32 12.8355 32 16C32 20.2435 30.3143 24.3131 27.3137 27.3137C24.3131 30.3143 20.2435 32 16 32Z" fill="#112451"/>
</g>
<path d="M16.6499 18.2497C16.6499 18.2497 14.5499 19.3497 14.6499 21.0797C14.7499 22.8097 17.0699 25.4397 18.4699 24.9197C19.8699 24.3997 23.7699 22.1397 24.1699 19.9197C24.5699 17.6997 20.6899 16.5997 20.6899 16.5997L16.6499 18.2497Z" fill="#2844AD"/>
<path d="M22.07 8.82018C20.7875 7.77632 19.2373 7.11404 17.5964 6.90893C15.9555 6.70382 14.2901 6.96414 12.79 7.66018L10.52 10.9002C10.6287 11.2645 10.8264 11.5961 11.0952 11.865C11.3641 12.1338 11.6957 12.3315 12.06 12.4402C13.36 12.8702 18.99 10.7002 18.99 10.7002L22.07 8.82018Z" fill="#2844AD"/>
<path d="M7.27979 11.9998C7.27979 11.9998 9.17979 8.50982 11.7198 7.69982C14.2598 6.88982 13.8998 9.42982 11.7198 10.4598C9.53978 11.4898 8.16979 12.0798 7.27979 11.9998Z" fill="#5493F7"/>
<path d="M6.91982 13.0801C6.91982 13.0801 3.99982 21.2701 11.9998 25.0001C11.9998 25.0001 12.6198 21.7301 11.4898 19.6601C10.6514 18.004 9.63903 16.4418 8.46982 15.0001C7.9121 14.3943 7.39434 13.753 6.91982 13.0801Z" fill="#5493F7"/>
<path d="M24.44 21C24.44 21 22.35 25 19.33 25C19.2528 24.9757 19.1815 24.9356 19.1208 24.8822C19.06 24.8287 19.0111 24.7632 18.9772 24.6897C18.9433 24.6163 18.9251 24.5365 18.9239 24.4556C18.9226 24.3747 18.9383 24.2945 18.97 24.22C19.16 23.64 21.05 21.58 24.44 21Z" fill="#5493F7"/>
<path d="M22.1398 8.88038C23.308 9.7722 24.2217 10.9549 24.7898 12.3104C25.7154 14.5311 25.8496 17.0025 25.1698 19.3104C24.6598 20.6604 23.8698 20.3104 22.1698 19.9504C20.4698 19.5904 13.9998 17.7704 12.3298 15.5504C10.6598 13.3304 11.9498 11.5504 14.1098 10.4004C16.2698 9.25038 20.7098 8.00038 22.1398 8.88038Z" fill="#5493F7"/>
<path d="M13.15 22.6903L13 19.1103L17.84 18.8203C17.84 18.9803 17.84 19.1403 17.84 19.3003C17.84 19.4603 17.84 19.6403 17.84 19.8103C17.84 19.9803 17.84 20.1603 17.84 20.3303C17.84 20.5003 17.84 20.6703 17.84 20.8403C17.84 21.0103 17.84 21.1903 17.84 21.3603C17.84 21.5303 17.84 21.7102 17.84 21.8802C17.84 22.0502 17.84 22.2003 17.84 22.3503C17.84 22.3503 17.84 22.5003 17.84 22.3503L13.14 22.6302C13.14 22.6302 13.18 22.7103 13.15 22.6903Z" fill="#3C3B6E"/>
<path d="M25.4198 24.5398C25.4198 24.6998 25.4198 24.8698 25.4198 25.0298C25.4198 25.0298 25.4198 25.1898 25.4198 25.0298L13.3198 25.7598C13.3198 25.7598 13.3198 25.4398 13.3198 25.2798H13.3998L25.3998 24.5598C25.3998 24.5598 25.3898 24.5198 25.4198 24.5398Z" fill="#B12234"/>
<path d="M25.42 24.5402H25.37L13.29 25.2702V24.7502H13.37L25.37 24.0302C25.3959 24.0211 25.4242 24.0211 25.45 24.0302L25.42 24.5402Z" fill="#FEFEFE"/>
<path d="M25.3602 23V23.52H25.3002L13.3002 24.25C13.2743 24.2592 13.2461 24.2592 13.2202 24.25V23.73H13.3102L25.3102 23C25.3102 23 25.3402 23 25.3602 23Z" fill="#FEFEFE"/>
<path d="M25.3598 23.0002L13.2598 23.7302V23.2202L25.2598 22.4902C25.2598 22.4902 25.3198 22.4902 25.3498 22.4902L25.3598 23.0002Z" fill="#B12234"/>
<path d="M25.35 22.4698H25.3L13.21 23.1998V22.6798L18 22.3998H18.12L25.27 21.9698C25.27 21.9698 25.32 21.9698 25.35 21.9698V22.4698Z" fill="#FEFEFE"/>
<path d="M13.21 24.2398L25.3 23.5098V24.0198L13.21 24.7498V24.2398Z" fill="#B12234"/>
<path d="M17.9199 19.2998V18.7798L25.1899 18.3398C25.1899 18.3398 25.1899 18.6698 25.1899 18.8298H25.0999L17.9999 19.2998C17.9999 19.2998 17.9399 19.3198 17.9199 19.2998Z" fill="#B12234"/>
<path d="M17.9199 19.3003L18.7999 19.2403L25.1699 18.8603V19.3703L17.9999 19.8203C17.9889 19.8301 17.9747 19.8356 17.9599 19.8356C17.9452 19.8356 17.9309 19.8301 17.9199 19.8203V19.3003Z" fill="#FEFEFE"/>
<path d="M18 21.8799V21.3599H18.08L25.22 20.9199C25.22 20.9199 25.28 20.9199 25.3 20.9199V21.4399L18.14 21.8699C18.14 21.8699 18 21.8999 18 21.8799Z" fill="#FEFEFE"/>
<path d="M25.29 20.9202L18 21.3602V20.8402H18.08L25.22 20.4102C25.22 20.4102 25.28 20.4102 25.3 20.4102L25.29 20.9202Z" fill="#B12234"/>
<path d="M25.27 20.4003L23.81 20.4903L18 20.8403V20.3303L25.17 19.9003H25.24L25.27 20.4003Z" fill="#FEFEFE"/>
<path d="M18 21.8804L25.25 21.4404V21.9504L18.02 22.3804L18 21.8804Z" fill="#B12234"/>
<path d="M25.26 19.8801H25.21L18 20.3301V19.8101L20.24 19.6801L25.24 19.3701L25.26 19.8801Z" fill="#B12234"/>
<path d="M16.6601 21.56V21.44C16.6601 21.44 16.6601 21.44 16.6601 21.39C16.629 21.3767 16.6015 21.3561 16.5801 21.33H16.6901V21.21C16.6901 21.21 16.6901 21.27 16.6901 21.3C16.6901 21.33 16.6901 21.35 16.7601 21.3H16.8401L16.7601 21.37C16.7574 21.4066 16.7574 21.4433 16.7601 21.48L16.6601 21.42V21.56Z" fill="#FDFDFD"/>
<path d="M14.1598 21.4799H14.2498C14.2498 21.4799 14.2498 21.4799 14.2998 21.4799C14.2921 21.447 14.2921 21.4128 14.2998 21.3799C14.2998 21.3799 14.2998 21.4499 14.2998 21.4899C14.2998 21.4899 14.2998 21.5299 14.2998 21.4899H14.4198C14.4198 21.4899 14.4198 21.5399 14.3398 21.5499C14.2598 21.5599 14.3398 21.5499 14.3398 21.6299C14.3428 21.6598 14.3428 21.69 14.3398 21.7199L14.2498 21.6599C14.2244 21.6886 14.1939 21.7123 14.1598 21.7299C14.1643 21.6934 14.1643 21.6564 14.1598 21.6199C14.1598 21.6199 14.1598 21.6199 14.1598 21.5699L14.0698 21.5099L14.1598 21.4799Z" fill="#FDFDFD"/>
<path d="M15.6299 20.5302L15.5399 20.4702L15.4499 20.5502C15.4475 20.5102 15.4475 20.4701 15.4499 20.4302L15.3599 20.3602H15.4699C15.467 20.3202 15.467 20.2801 15.4699 20.2402V20.3302C15.4699 20.3302 15.4699 20.3302 15.5299 20.3302H15.6199L15.5399 20.4002C15.5363 20.408 15.5344 20.4165 15.5344 20.4252C15.5344 20.4338 15.5363 20.4423 15.5399 20.4502C15.5741 20.4716 15.6046 20.4986 15.6299 20.5302Z" fill="#FDFDFD"/>
<path d="M16.87 19.1497L16.8 19.1997C16.7938 19.2043 16.7888 19.2104 16.7853 19.2173C16.7818 19.2243 16.78 19.2319 16.78 19.2397C16.78 19.2474 16.7818 19.2551 16.7853 19.262C16.7888 19.269 16.7938 19.275 16.8 19.2797V19.3697L16.7 19.3097L16.61 19.3897V19.2697L16.52 19.1997H16.62C16.62 19.1997 16.62 19.1997 16.67 19.1997C16.6654 19.1665 16.6654 19.1328 16.67 19.0997C16.67 19.0997 16.67 19.0997 16.67 19.1597C16.67 19.2197 16.67 19.2297 16.76 19.2197H16.83L16.87 19.1497Z" fill="#FDFDFD"/>
<path d="M13.7098 20.4196H13.8198V20.3096C13.8239 20.3462 13.8239 20.3831 13.8198 20.4196H13.9298C13.9076 20.445 13.8804 20.4655 13.8498 20.4796V20.5496V20.6496L13.7598 20.5896C13.7598 20.5896 13.7598 20.5896 13.7098 20.5896L13.6198 20.6596C13.614 20.6265 13.614 20.5927 13.6198 20.5596C13.6198 20.5596 13.6198 20.5096 13.6198 20.4896H13.5498L13.7098 20.4196Z" fill="#FDFDFD"/>
<path d="M16.5001 20.2602L16.4101 20.3302C16.4174 20.3665 16.4174 20.4039 16.4101 20.4402L16.3201 20.3802C16.3201 20.3802 16.3201 20.3802 16.2701 20.3802C16.2448 20.4117 16.2144 20.4387 16.1801 20.4602C16.1801 20.4102 16.1801 20.3702 16.1801 20.3402C16.1801 20.3102 16.1801 20.3402 16.1801 20.3402C16.1491 20.3224 16.1219 20.2986 16.1001 20.2702H16.2001C16.1962 20.2336 16.1962 20.1967 16.2001 20.1602V20.2402C16.2001 20.3002 16.2001 20.3002 16.2701 20.2902H16.3501L16.5001 20.2602Z" fill="#FDFDFD"/>
<path d="M17.5698 21.1299C17.5725 21.1665 17.5725 21.2033 17.5698 21.2399H17.6798L17.5998 21.2999C17.5998 21.2999 17.5998 21.2999 17.5998 21.3599C17.6099 21.3925 17.6099 21.4273 17.5998 21.4599L17.5098 21.3999C17.4865 21.4307 17.4555 21.4549 17.4198 21.4699V21.3699C17.4198 21.3699 17.4198 21.3699 17.4198 21.3099C17.3887 21.2966 17.3613 21.276 17.3398 21.2499H17.4498L17.5698 21.1299Z" fill="#FDFDFE"/>
<path d="M15.0002 21.4303H15.1002C15.0957 21.3937 15.0957 21.3568 15.1002 21.3203V21.4203H15.1602H15.2502L15.1702 21.4903C15.1702 21.4903 15.1702 21.4903 15.1702 21.5403C15.1726 21.5769 15.1726 21.6136 15.1702 21.6503L15.0802 21.5903L14.9902 21.6703V21.5503C14.9938 21.5424 14.9956 21.5339 14.9956 21.5253C14.9956 21.5166 14.9938 21.5081 14.9902 21.5003H14.9102L15.0002 21.4303Z" fill="#FDFDFE"/>
<path d="M13.4402 19.21C13.4385 19.2433 13.4385 19.2766 13.4402 19.31H13.5402L13.4702 19.37C13.4702 19.37 13.4702 19.37 13.4702 19.44C13.4718 19.4733 13.4718 19.5067 13.4702 19.54L13.3702 19.47L13.2802 19.53V19.43L13.1802 19.37H13.2902C13.2902 19.37 13.2902 19.37 13.3402 19.37C13.3639 19.3112 13.3977 19.257 13.4402 19.21Z" fill="#FDFDFD"/>
<path d="M15.1802 19.4702L15.0902 19.4102L15.0002 19.4902C14.9978 19.4502 14.9978 19.4102 15.0002 19.3702L14.9102 19.3002H15.0002V19.2002C15.0043 19.2367 15.0043 19.2736 15.0002 19.3102H15.1102L15.0202 19.3802C15.0202 19.3802 15.0202 19.3802 15.0202 19.4302C15.0762 19.4278 15.1318 19.4417 15.1802 19.4702Z" fill="#FDFDFD"/>
<path d="M15.8701 19.0596C15.8727 19.0963 15.8727 19.133 15.8701 19.1696H15.9801L15.8901 19.2496C15.8901 19.2496 15.8901 19.3196 15.8901 19.3596L15.8101 19.2996C15.8101 19.2996 15.7601 19.2996 15.7401 19.2996L15.6701 19.3596C15.6645 19.3265 15.6645 19.2927 15.6701 19.2596V19.1996L15.5801 19.1396H15.7001L15.8701 19.0596Z" fill="#FDFDFD"/>
<path d="M17.4398 19.15C17.432 19.1138 17.432 19.0763 17.4398 19.04C17.4342 19.0765 17.4342 19.1136 17.4398 19.15Z" fill="#FDFDFD"/>
<path d="M15.85 21.5896V21.4896L15.75 21.4196H15.86V21.3096C15.86 21.3096 15.86 21.3896 15.86 21.4196C15.86 21.4196 15.86 21.4496 15.86 21.4196H15.98L15.89 21.4996C15.8873 21.5363 15.8873 21.573 15.89 21.6096L15.79 21.5496L15.71 21.6196L15.85 21.5896Z" fill="#FDFDFD"/>
<path d="M14.6902 20.2198C14.6902 20.3098 14.6902 20.3098 14.8202 20.3098L14.7402 20.3798C14.7458 20.4162 14.7458 20.4533 14.7402 20.4898L14.6502 20.4298C14.6502 20.4298 14.6502 20.4298 14.6002 20.4298L14.5202 20.4998C14.5145 20.4633 14.5145 20.4262 14.5202 20.3898L14.4302 20.3198H14.5302L14.6902 20.2198Z" fill="#FDFDFD"/>
<path d="M13.3601 22.2499H13.4801V22.1299C13.4784 22.1632 13.4784 22.1966 13.4801 22.2299H13.5901L13.5001 22.3099C13.4974 22.3465 13.4974 22.3833 13.5001 22.4199L13.4001 22.3599L13.3101 22.4299V22.3199L13.3601 22.2499Z" fill="#FDFDFE"/>
<path d="M15.8798 22.32C15.8798 22.32 15.8798 22.25 15.8798 22.22C15.8798 22.19 15.8798 22.22 15.8798 22.22L15.7798 22.15H15.8998L15.9998 22C16.0039 22.0366 16.0039 22.0735 15.9998 22.11C16.0324 22.1 16.0672 22.1 16.0998 22.11L16.0098 22.18C16.0139 22.2166 16.0139 22.2535 16.0098 22.29L15.9998 22.25C15.9998 22.25 15.9998 22.25 15.9498 22.25L15.8698 22.31L15.8798 22.32Z" fill="#FDFDFE"/>
<path d="M17.5999 21.8497C17.5999 21.8497 17.5999 21.9297 17.5999 21.9697C17.5999 21.9697 17.5999 22.0097 17.5999 21.9697H17.7199L17.6299 22.0497C17.6299 22.0497 17.6299 22.0497 17.6299 22.0997V22.2097L17.5299 22.1397L17.4399 22.2197V22.0997L17.4199 21.9997H17.5299C17.5472 21.9471 17.5707 21.8967 17.5999 21.8497Z" fill="#FDFDFE"/>
<path d="M14.4701 19.9999C14.4358 20.0213 14.4054 20.0484 14.3801 20.0799C14.3842 20.1164 14.3842 20.1533 14.3801 20.1899L14.2801 20.1299L14.1801 20.2099C14.1835 20.17 14.1835 20.1298 14.1801 20.0899L14.0801 20.0199C14.1166 20.0149 14.1536 20.0149 14.1901 20.0199C14.1901 20.0199 14.1901 20.0199 14.2401 19.9699C14.2354 19.9401 14.2354 19.9097 14.2401 19.8799C14.2481 19.9127 14.2481 19.947 14.2401 19.9799L14.4701 19.9999Z" fill="#FEFEFE"/>
<path d="M16.8398 20.0996L16.7398 20.0296L16.6498 20.1096V19.9896L16.5498 19.9196H16.6298C16.6898 19.9196 16.6898 19.9196 16.7098 19.8496V19.7696V19.8896H16.8198L16.7298 19.9696L16.8398 20.0996Z" fill="#FEFEFE"/>
<path d="M14 21.3498V21.2898C14 21.2898 14 21.2898 13.94 21.2898L13.86 21.3598C13.86 21.3098 13.86 21.2798 13.86 21.2398C13.86 21.1998 13.86 21.2398 13.86 21.2398L13.77 21.1698H13.88C13.871 21.1303 13.871 21.0893 13.88 21.0498C13.88 21.0498 13.88 21.1298 13.88 21.1598H14L13.9 21.2398C13.9356 21.2743 13.9691 21.3111 14 21.3498Z" fill="#FEFEFE"/>
<path d="M16.1598 20.9999H16.2798V20.8799C16.2825 20.9165 16.2825 20.9533 16.2798 20.9899H16.3898L16.2998 21.0699C16.297 21.1098 16.297 21.1499 16.2998 21.1899L16.2098 21.1199C16.2098 21.1199 16.2098 21.1199 16.1598 21.1199L16.0698 21.1899V21.0799C16.0698 21.0799 16.0698 21.0799 16.0698 21.0299L16.1598 20.9999Z" fill="#FEFEFE"/>
<path d="M14.8999 19.9997H14.9999C14.9999 19.9997 15.0499 19.9997 15.0599 19.9497V19.8497C15.0599 19.8497 15.0599 19.9297 15.0599 19.9697C15.0599 19.9697 15.0599 20.0097 15.0599 19.9697H15.1799L15.0899 20.0497C15.094 20.0862 15.094 20.1231 15.0899 20.1597L14.9999 20.0997C14.9746 20.1312 14.9442 20.1582 14.9099 20.1797C14.9099 20.1297 14.9099 20.0997 14.9099 20.0597C14.9099 20.0197 14.9099 20.0597 14.9099 20.0597L14.8999 19.9997Z" fill="#FEFEFE"/>
<path d="M14.1702 22.1998H14.2702C14.2702 22.1998 14.3202 22.1998 14.3302 22.1498C14.3264 22.1166 14.3264 22.083 14.3302 22.0498C14.3328 22.0864 14.3328 22.1232 14.3302 22.1598H14.4402L14.3502 22.2398C14.3475 22.2764 14.3475 22.3132 14.3502 22.3498L14.2502 22.2898L14.1602 22.3698V22.2598C14.1602 22.2598 14.1602 22.2598 14.1602 22.1998H14.1702Z" fill="#FDFDFE"/>
<path d="M16.9101 22.2704L16.8201 22.2004L16.7201 22.2804C16.7201 22.2804 16.7201 22.2004 16.7201 22.1704C16.7201 22.1404 16.7201 22.1704 16.7201 22.1204L16.6201 22.0504H16.7401C16.7312 22.0142 16.7312 21.9765 16.7401 21.9404V22.0104C16.7401 22.0704 16.7401 22.0704 16.8301 22.0704H17.0001L16.9101 22.1504C16.9101 22.1504 16.9101 22.1504 16.9101 22.2004C16.9111 22.2237 16.9111 22.247 16.9101 22.2704Z" fill="#FDFDFE"/>
<path d="M14.54 21.0904H14.64C14.64 21.0904 14.64 21.0904 14.64 21.0404V20.9404C14.64 20.9404 14.64 21.0204 14.64 21.0604C14.64 21.0604 14.64 21.1004 14.64 21.0604H14.76L14.67 21.1404C14.6673 21.177 14.6673 21.2137 14.67 21.2504L14.57 21.1904C14.5419 21.2161 14.5118 21.2395 14.48 21.2604V21.1504L14.54 21.0904Z" fill="#FEFEFE"/>
<path d="M15.3498 20.9999H15.4698C15.4698 20.9999 15.4698 20.9299 15.4698 20.8799V20.9899H15.5798L15.4898 21.0699V21.1699L15.3998 21.1199H15.3398L15.2598 21.1899C15.2598 21.1399 15.2598 21.1099 15.2598 21.0699C15.2598 21.0299 15.2598 21.0699 15.2598 21.0699L15.3498 20.9999Z" fill="#FEFEFE"/>
<path d="M17.28 21.1599L17.19 21.0899C17.19 21.0899 17.19 21.0899 17.14 21.0899L17.05 21.1599C17.0475 21.1233 17.0475 21.0865 17.05 21.0499L17 20.9999H17.12C17.12 20.9999 17.12 20.9299 17.12 20.8799V20.9699C17.12 20.9699 17.12 21.0299 17.18 21.0199H17.27L17.19 21.0899C17.19 21.0899 17.19 21.0899 17.19 21.1499L17.28 21.1599Z" fill="#FEFEFE"/>
<path d="M16.0902 19.91L16.0002 20V20.12L15.9102 20.05H15.8502L15.7702 20.12C15.7644 20.0836 15.7644 20.0465 15.7702 20.01C15.7702 20.01 15.7702 20.01 15.7702 19.96L15.6802 19.9H15.7802V19.79C15.7802 19.79 15.7802 19.87 15.7802 19.9L16.0902 19.91Z" fill="#FEFEFE"/>
<path d="M13.37 20.2998C13.3653 20.2633 13.3653 20.2263 13.37 20.1898L13.27 20.1198H13.36C13.41 20.1198 13.41 20.1198 13.43 20.0498C13.4274 20.0232 13.4274 19.9964 13.43 19.9698V20.0798H13.55L13.45 20.1598C13.4557 20.1962 13.4557 20.2333 13.45 20.2698L13.36 20.2098C13.36 20.2098 13.36 20.2098 13.31 20.2098C13.3359 20.2354 13.3563 20.266 13.37 20.2998Z" fill="#FEFEFE"/>
<path d="M15.7398 21.7497C15.7398 21.7497 15.6498 21.7997 15.6398 21.8397C15.6368 21.883 15.6368 21.9265 15.6398 21.9697L15.5498 21.8997C15.5498 21.8997 15.5498 21.8997 15.4998 21.8997L15.4098 21.9697C15.4098 21.9697 15.4098 21.8897 15.4098 21.8497C15.4098 21.8097 15.4098 21.8497 15.4098 21.8497L15.3198 21.7897H15.4298V21.6797C15.4338 21.713 15.4338 21.7465 15.4298 21.7797C15.4298 21.7797 15.4298 21.7797 15.4798 21.7797L15.7398 21.7497Z" fill="#FEFEFE"/>
<path d="M14.1201 20.7597H14.2301V20.6397C14.233 20.6797 14.233 20.7198 14.2301 20.7597H14.3501L14.2601 20.8397C14.2573 20.8797 14.2573 20.9198 14.2601 20.9597L14.1701 20.8897C14.1701 20.8897 14.1701 20.8897 14.1201 20.8897L14.2001 20.9997V20.8797L14.1201 20.7597Z" fill="#FEFEFE"/>
<path d="M14.85 19.6301L14.77 19.7001C14.77 19.7001 14.77 19.7001 14.77 19.7501V19.8601L14.67 19.7901L14.59 19.8601V19.7401L14.5 19.6801H14.61C14.61 19.6801 14.61 19.6101 14.61 19.5601C14.61 19.5101 14.61 19.6401 14.61 19.6801C14.61 19.6801 14.61 19.7201 14.61 19.6801H14.72L14.85 19.6301Z" fill="#FEFEFE"/>
<path d="M17.2799 19.4897L17.2099 19.5497C17.2099 19.5497 17.2099 19.5497 17.2099 19.6097C17.2155 19.6428 17.2155 19.6766 17.2099 19.7097L17.1199 19.6497C17.1199 19.6497 17.1199 19.6497 17.0699 19.6497L16.9799 19.7297C16.9775 19.6897 16.9775 19.6497 16.9799 19.6097V19.5597L16.8999 19.4997H16.9999V19.3897C17.004 19.4263 17.004 19.4632 16.9999 19.4997H17.0999L17.2799 19.4897Z" fill="#FEFEFE"/>
<path d="M13.3898 20.9998C13.3898 20.9498 13.3898 20.9198 13.3898 20.8798C13.3898 20.8398 13.3898 20.8798 13.3898 20.8798L13.2998 20.8198H13.4098C13.4098 20.8198 13.4098 20.7498 13.4098 20.6998C13.4098 20.6498 13.4098 20.7798 13.4098 20.8098C13.4098 20.8098 13.4098 20.8398 13.4098 20.8098H13.5098C13.5098 20.8098 13.5098 20.8098 13.4598 20.8698C13.4098 20.9298 13.4598 20.8698 13.4598 20.9698V21.0498L13.3598 20.9798L13.3898 20.9998Z" fill="#FEFEFE"/>
<path d="M15.82 20.8798V20.7698C15.82 20.7698 15.82 20.7698 15.82 20.7198C15.7858 20.7069 15.755 20.6864 15.73 20.6598H15.83C15.8325 20.6232 15.8325 20.5864 15.83 20.5498V20.6698H15.95L15.85 20.7498C15.85 20.7498 15.85 20.8198 15.85 20.8698L16 20.7998L15.82 20.8798Z" fill="#FEFEFE"/>
<path d="M17.0001 21.6703H17.0901V21.5703C17.0901 21.5703 17.0901 21.6403 17.0901 21.6803C17.0901 21.6803 17.0901 21.7203 17.0901 21.6803H17.1901C17.1749 21.7081 17.15 21.7295 17.1201 21.7403C17.1201 21.7403 17.1201 21.7403 17.1201 21.8103C17.1218 21.8436 17.1218 21.8769 17.1201 21.9103L17.0401 21.8603C17.0401 21.8603 16.9901 21.8603 16.9601 21.8603L16.8901 21.9203C16.8843 21.8872 16.8843 21.8533 16.8901 21.8203V21.7603L17.0001 21.6803V21.6703Z" fill="#FEFEFE"/>
<path d="M16.5499 21.7003L16.4699 21.7703C16.4699 21.7703 16.4699 21.7703 16.4699 21.8203C16.4672 21.8569 16.4672 21.8937 16.4699 21.9303L16.3799 21.8703C16.3799 21.8703 16.3799 21.8703 16.3199 21.8703L16.2399 21.9403V21.8203C16.207 21.8051 16.1766 21.7849 16.1499 21.7603H16.2599C16.2566 21.7237 16.2566 21.6869 16.2599 21.6503C16.2643 21.6835 16.2643 21.7171 16.2599 21.7503H16.3199L16.5499 21.7003Z" fill="#FEFEFE"/>
<path d="M14.94 21.7902L14.85 21.8702C14.85 21.8702 14.85 21.8702 14.85 21.9202C14.8573 21.9565 14.8573 21.9939 14.85 22.0302L14.79 22.0002C14.79 22.0002 14.79 22.0002 14.73 22.0002L14.64 22.0702V21.9602C14.64 21.9602 14.64 21.9602 14.64 21.9102L14.54 21.8502H14.65C14.6525 21.8135 14.6525 21.7768 14.65 21.7402C14.6542 21.7767 14.6542 21.8136 14.65 21.8502C14.65 21.8502 14.65 21.8502 14.7 21.8502L14.94 21.7902Z" fill="#FEFEFE"/>
<path d="M13.9301 21.71C13.9329 21.7499 13.9329 21.79 13.9301 21.83H14.0401L13.9501 21.91C13.953 21.9499 13.953 21.99 13.9501 22.03L14.0001 22C13.9748 22.0315 13.9443 22.0585 13.9101 22.08C13.9101 22.03 13.9101 22 13.9101 21.96C13.9101 21.92 13.9101 21.96 13.9101 21.96L13.8101 21.9H13.9301C13.9301 21.9 13.9201 21.76 13.9301 21.71Z" fill="#FEFEFE"/>
<path d="M15.4201 19.6002C15.4167 19.5636 15.4167 19.5268 15.4201 19.4902C15.4242 19.5267 15.4242 19.5636 15.4201 19.6002Z" fill="#FEFEFE"/>
<path d="M16.2898 19.3897C16.2927 19.4297 16.2927 19.4698 16.2898 19.5097H16.3998L16.3198 19.5797C16.3198 19.5797 16.3198 19.6497 16.3198 19.6897L16.2298 19.6297L16.1398 19.6997C16.134 19.6666 16.134 19.6328 16.1398 19.5997C16.1398 19.5997 16.1398 19.5497 16.1398 19.5297L16.0698 19.4797H16.1698C16.1698 19.4797 16.2798 19.4397 16.2898 19.3897Z" fill="#FEFEFE"/>
<path d="M14.9402 20.7098H15.0502V20.5898C15.0502 20.5898 15.0502 20.6398 15.0502 20.6698C15.0512 20.6789 15.0542 20.6876 15.059 20.6953C15.0638 20.703 15.0703 20.7095 15.078 20.7143C15.0857 20.7191 15.0944 20.7221 15.1035 20.7231C15.1125 20.724 15.1216 20.7229 15.1302 20.7198C15.1302 20.7198 15.1302 20.7198 15.2002 20.7198L15.1202 20.7898C15.1232 20.8264 15.1232 20.8632 15.1202 20.8998L15.0202 20.8298L14.9302 20.9098V20.7898L14.9402 20.7098Z" fill="#FEFEFE"/>
<path d="M17.7301 20.5502L17.6501 20.6102C17.6501 20.6102 17.6501 20.6102 17.6501 20.6602V20.7702L17.5601 20.7102L17.4801 20.7802C17.4743 20.7438 17.4743 20.7066 17.4801 20.6702C17.4837 20.6624 17.4856 20.6538 17.4856 20.6452C17.4856 20.6366 17.4837 20.628 17.4801 20.6202C17.446 20.6073 17.4152 20.5868 17.3901 20.5602H17.5001C17.4923 20.5239 17.4923 20.4864 17.5001 20.4502V20.5502C17.5001 20.5502 17.5001 20.5502 17.5501 20.5502H17.6501H17.7301Z" fill="#FEFEFE"/>
</g>
<defs>
<clipPath id="clip0_301_424">
<rect width="32" height="32" fill="white"/>
</clipPath>
</defs>
</svg>
