<svg width="32" height="32" viewBox="0 0 32 32" fill="none" xmlns="http://www.w3.org/2000/svg">
<g clip-path="url(#clip0_301_386)">
<path d="M16 32C24.8366 32 32 24.8366 32 16C32 7.16344 24.8366 0 16 0C7.16344 0 0 7.16344 0 16C0 24.8366 7.16344 32 16 32Z" fill="#FFB500"/>
<path d="M27.898 14.5271C27.6088 12.1964 26.6422 10.0018 25.118 8.2151C24.0515 6.96107 22.7356 5.9428 21.254 5.2251C19.2655 4.25403 17.0466 3.85352 14.844 4.0681C12.8015 4.26563 10.8438 4.98434 9.1587 6.1554C7.47356 7.32645 6.11736 8.91061 5.22003 10.7561C4.14932 12.9599 3.77805 15.4383 4.15603 17.8591C4.5177 20.172 5.5504 22.3278 7.12603 24.0591C9.37103 26.5611 12.717 28.0241 16.078 27.9851C17.7699 27.9743 19.4404 27.6055 20.9795 26.9029C22.5186 26.2003 23.8916 25.1798 25.0081 23.9086C26.1246 22.6374 26.9594 21.1442 27.4574 19.5272C27.9555 17.9103 28.1057 16.2062 27.898 14.5271ZM24.244 11.9371C24.1892 12.0135 24.1417 12.0949 24.102 12.1801L18.824 23.2981C18.571 23.8291 18.317 24.3661 18.029 24.8781C16.722 24.8681 15.415 24.8731 14.107 24.8731C12.024 20.5851 9.95103 16.2931 7.86303 12.0101C7.82003 11.9271 7.77603 11.8391 7.73203 11.7561C7.76603 11.7321 7.84403 11.6881 7.87803 11.6681C8.69303 10.6541 9.51803 9.6441 10.337 8.6291C10.439 8.4981 10.557 8.3711 10.673 8.2541C10.727 8.3411 10.78 8.4291 10.824 8.5271C11.278 9.5711 11.741 10.6201 12.204 11.6631C12.674 11.6631 13.141 11.6731 13.614 11.6431C13.785 11.8051 13.878 12.0201 13.946 12.2391C14.034 12.0151 14.068 11.7761 14.078 11.5321C14.229 10.1321 14.254 8.7171 14.405 7.3171C14.429 7.0151 14.883 7.0151 14.922 7.3071C15.068 8.6341 15.102 9.9761 15.21 11.3071C15.23 11.7071 15.244 12.1071 15.332 12.4971C15.532 12.2341 15.468 11.7711 15.834 11.6631C16.137 11.5611 16.478 11.7321 16.766 11.5511C17.161 11.3121 17.307 10.8441 17.556 10.4781C17.698 10.2391 18.024 10.0681 18.288 10.2051C18.551 10.3071 18.663 10.5901 18.8 10.8151C18.956 11.0731 19.098 11.3611 19.351 11.5321C19.576 11.6291 19.829 11.6441 20.073 11.6391C20.566 10.5271 21.073 9.4191 21.576 8.3121C22.454 9.4151 23.283 10.5521 24.161 11.6541C24.293 11.7121 24.317 11.8101 24.244 11.9371Z" fill="white"/>
<path d="M18.073 10.5415C17.678 10.9715 17.537 11.6635 16.946 11.8835C16.644 12.0295 16.278 11.9075 15.976 12.0205C15.712 12.5375 15.746 13.1465 15.546 13.6835C15.41 13.9375 15 13.8105 15 13.5325C14.83 12.0735 14.815 10.6005 14.659 9.14252C14.493 10.4545 14.449 11.7805 14.244 13.0825C14.244 13.4205 13.712 13.4735 13.664 13.1375C13.561 12.7575 13.537 12.3575 13.346 12.0005C13.016 11.9956 12.6859 11.9956 12.356 12.0005C13.6 14.8205 14.834 17.6395 16.078 20.4595C17.337 17.6395 18.639 14.8395 19.888 12.0155L19.893 12.0055C19.566 11.9655 19.21 11.9325 18.937 11.7275C18.557 11.4105 18.41 10.9025 18.073 10.5415Z" fill="white"/>
</g>
<defs>
<clipPath id="clip0_301_386">
<rect width="32" height="32" fill="white"/>
</clipPath>
</defs>
</svg>
