<svg width="32" height="32" viewBox="0 0 32 32" fill="none" xmlns="http://www.w3.org/2000/svg">
<g clip-path="url(#clip0_301_354)">
<path d="M16 32C24.8366 32 32 24.8366 32 16C32 7.16344 24.8366 0 16 0C7.16344 0 0 7.16344 0 16C0 24.8366 7.16344 32 16 32Z" fill="#201A2D"/>
<path d="M22.8182 9.58576L22.2182 10.1858C23.6499 11.7514 24.4438 13.7962 24.4438 15.9178C24.4438 18.0393 23.6499 20.0841 22.2182 21.6498L22.8182 22.2498C24.4104 20.5227 25.2944 18.2598 25.2944 15.9108C25.2944 13.5618 24.4104 11.2988 22.8182 9.57176V9.58576ZM10.2002 9.63776C11.7659 8.20606 13.8106 7.41211 15.9322 7.41211C18.0538 7.41211 20.0985 8.20606 21.6642 9.63776L22.2642 9.03776C20.5371 7.44556 18.2742 6.56158 15.9252 6.56158C13.5762 6.56158 11.3132 7.44556 9.58619 9.03776L10.2002 9.63776ZM9.63819 21.6558C8.20818 20.0904 7.41528 18.0469 7.41528 15.9268C7.41528 13.8066 8.20818 11.7631 9.63819 10.1978L9.03819 9.59776C7.44599 11.3248 6.56201 13.5878 6.56201 15.9368C6.56201 18.2858 7.44599 20.5487 9.03819 22.2758L9.63819 21.6558ZM21.6562 22.2098C20.0905 23.6415 18.0458 24.4354 15.9242 24.4354C13.8026 24.4354 11.7579 23.6415 10.1922 22.2098L9.59219 22.8098C11.3192 24.402 13.5822 25.2859 15.9312 25.2859C18.2802 25.2859 20.5431 24.402 22.2702 22.8098L21.6562 22.2098ZM19.7142 13.9238C19.5942 12.6718 18.5142 12.2518 17.1482 12.1238V10.3998H16.0922V12.0918H15.2482V10.3998H14.2002V12.1358H12.0582V13.2658C12.0582 13.2658 12.8382 13.2518 12.8262 13.2658C12.9668 13.2503 13.108 13.29 13.2199 13.3766C13.3318 13.4631 13.4058 13.5897 13.4262 13.7298V18.4818C13.4232 18.5311 13.4103 18.5794 13.3883 18.6237C13.3663 18.668 13.3357 18.7075 13.2982 18.7398C13.2614 18.7726 13.2183 18.7977 13.1716 18.8135C13.1248 18.8294 13.0754 18.8356 13.0262 18.8318C13.0402 18.8438 12.2582 18.8318 12.2582 18.8318L12.0582 20.0938H14.1802V21.8578H15.2362V20.1198H16.0802V21.8498H17.1382V20.1058C18.9222 19.9978 20.1662 19.5578 20.3222 17.8878C20.4482 16.5438 19.8162 15.9438 18.8062 15.7018C19.4202 15.3998 19.8002 14.8398 19.7142 13.9238ZM18.2342 17.6798C18.2342 18.9918 15.9862 18.8418 15.2702 18.8418V16.5138C15.9862 16.5158 18.2342 16.3098 18.2342 17.6798ZM17.7442 14.3998C17.7442 15.5998 15.8682 15.4538 15.2722 15.4538V13.3378C15.8682 13.3378 17.7442 13.1498 17.7442 14.3998Z" fill="white"/>
<path d="M15.924 26.852C9.89 26.851 5 21.959 5 15.925C5 9.892 9.892 5 15.925 5C21.959 5 26.851 9.89 26.852 15.924C26.8523 17.3592 26.5698 18.7803 26.0207 20.1063C25.4716 21.4322 24.6667 22.637 23.6518 23.6518C22.637 24.6667 21.4322 25.4716 20.1063 26.0207C18.7803 26.5698 17.3592 26.8523 15.924 26.852ZM15.924 5.852C10.365 5.856 5.862 10.365 5.864 15.924C5.866 21.483 10.374 25.988 15.932 25.988C21.491 25.988 25.998 21.483 26 15.924C26.0005 14.6008 25.7402 13.2906 25.234 12.0681C24.7278 10.8456 23.9855 9.73486 23.0497 8.79943C22.1139 7.864 21.0029 7.12221 19.7802 6.61647C18.5575 6.11072 17.2472 5.85095 15.924 5.852Z" fill="white"/>
</g>
<defs>
<clipPath id="clip0_301_354">
<rect width="32" height="32" fill="white"/>
</clipPath>
</defs>
</svg>
