<svg width="32" height="32" viewBox="0 0 32 32" fill="none" xmlns="http://www.w3.org/2000/svg">
<g clip-path="url(#clip0_301_337)">
<path d="M16 32C24.8366 32 32 24.8366 32 16C32 7.16344 24.8366 0 16 0C7.16344 0 0 7.16344 0 16C0 24.8366 7.16344 32 16 32Z" fill="#0DC9F7"/>
<path d="M18.9042 15.7388L15.8592 18.1028L14.6122 13.7778L7.38818 11.8428L16.8692 12.3298L18.9042 15.7388Z" fill="white" fill-opacity="0.305"/>
<path d="M8.27002 23.9931L24.586 11.3301L26 14.4761L24.145 13.9631L24.08 17.2271L8.27002 23.9931Z" fill="white" fill-opacity="0.7"/>
<path d="M22.796 17.78L18.049 9.619L6 9L15.183 11.461L17.673 19.951L22.796 17.78Z" fill="white"/>
</g>
<defs>
<clipPath id="clip0_301_337">
<rect width="32" height="32" fill="white"/>
</clipPath>
</defs>
</svg>
