<svg width="32" height="32" viewBox="0 0 32 32" fill="none" xmlns="http://www.w3.org/2000/svg">
<g clip-path="url(#clip0_301_333)">
<path d="M16 32C24.8366 32 32 24.8366 32 16C32 7.16344 24.8366 0 16 0C7.16344 0 0 7.16344 0 16C0 24.8366 7.16344 32 16 32Z" fill="#FFE600"/>
<path fill-rule="evenodd" clip-rule="evenodd" d="M3.99316 5.42459C4.78436 4.52692 5.67318 3.72027 6.64316 3.01959L11.0952 18.9376L13.0682 10.4996H16.8082L18.7802 18.9376L21.1172 10.4996H24.8662L24.9012 10.6496L28.9752 25.3636C28.2368 26.3853 27.3809 27.3167 26.4252 28.1386L22.9882 15.7286L21.0282 22.8066L20.9932 22.9566H16.8072L14.9382 16.0246L13.0682 22.9566H8.88216L8.84716 22.8066L3.99316 5.42459Z" fill="white"/>
</g>
<defs>
<clipPath id="clip0_301_333">
<rect width="32" height="32" fill="white"/>
</clipPath>
</defs>
</svg>
