<svg width="32" height="32" viewBox="0 0 32 32" fill="none" xmlns="http://www.w3.org/2000/svg">
<g clip-path="url(#clip0_301_328)">
<path d="M16 32C24.8366 32 32 24.8366 32 16C32 7.16344 24.8366 0 16 0C7.16344 0 0 7.16344 0 16C0 24.8366 7.16344 32 16 32Z" fill="#8200FF"/>
<path fill-rule="evenodd" clip-rule="evenodd" d="M18.414 13.1661L17.734 13.3331C17.12 13.4831 16.69 14.0231 16.69 14.6431V19.1811L14.443 19.7311C14.2669 19.7756 14.0805 19.7489 13.924 19.6568C13.7675 19.5647 13.6536 19.4146 13.607 19.2391C13.5935 19.1854 13.5868 19.1304 13.587 19.0751V11.5201C13.587 11.2101 13.802 10.9401 14.109 10.8641L17.557 10.0201C17.7331 9.97557 17.9195 10.0023 18.076 10.0944C18.2325 10.1865 18.3464 10.3365 18.393 10.5121C18.407 10.5651 18.413 10.6201 18.413 10.6751V13.1661H18.414ZM10.828 13.1241L9.976 13.3331C9.362 13.4831 8.931 14.0231 8.931 14.6431V19.2231L6.857 19.7311C6.68095 19.7756 6.49445 19.7489 6.33795 19.6568C6.18145 19.5647 6.06757 19.4146 6.021 19.2391C6.00717 19.1855 6.00012 19.1304 6 19.0751V11.5201C6 11.2101 6.215 10.9401 6.522 10.8641L9.971 10.0201C10.1471 9.97557 10.3335 10.0023 10.49 10.0944C10.6465 10.1865 10.7604 10.3365 10.807 10.5121C10.821 10.5651 10.827 10.6201 10.827 10.6751V13.1251L10.828 13.1241ZM21.695 10.8851L25.143 10.0411C25.3189 9.99653 25.5053 10.0231 25.6618 10.115C25.8182 10.2069 25.9322 10.3567 25.979 10.5321C25.9929 10.5856 26 10.6407 26 10.6961V18.2521C26 18.5621 25.785 18.8321 25.478 18.9071L22.029 19.7511C21.8531 19.7956 21.6667 19.769 21.5102 19.6771C21.3538 19.5852 21.2398 19.4354 21.193 19.2601C21.1795 19.2064 21.1728 19.1514 21.173 19.0961V11.5401C21.173 11.2301 21.388 10.9601 21.695 10.8851Z" fill="white"/>
<path opacity="0.504" fill-rule="evenodd" clip-rule="evenodd" d="M12.8971 13.3144V19.0754C12.8971 19.1854 12.9101 19.2954 12.9371 19.4034C13.0233 19.7267 13.2241 20.0078 13.5021 20.1941C13.78 20.3805 14.1162 20.4595 14.4481 20.4164V21.3554C14.4481 21.6654 14.2331 21.9354 13.9261 22.0104L10.4781 22.8544C10.302 22.8992 10.1154 22.8728 9.9587 22.7809C9.802 22.689 9.68788 22.5389 9.6411 22.3634C9.62761 22.3098 9.62089 22.2547 9.6211 22.1994V14.6434C9.6211 14.3334 9.8361 14.0634 10.1431 13.9884L12.8971 13.3144ZM20.4831 13.3564V19.0964C20.4831 19.2064 20.4971 19.3164 20.5231 19.4244C20.7091 20.1474 21.4581 20.5874 22.1971 20.4064L22.2071 20.4044V21.3544C22.2059 21.5063 22.1538 21.6535 22.0592 21.7724C21.9646 21.8913 21.8329 21.9751 21.6851 22.0104L18.2361 22.8544C18.0602 22.8989 17.8738 22.8724 17.7173 22.7805C17.5609 22.6886 17.4469 22.5387 17.4001 22.3634C17.3866 22.3098 17.3799 22.2547 17.3801 22.1994V14.6434C17.3801 14.3334 17.5951 14.0634 17.9021 13.9884L20.4821 13.3564H20.4831Z" fill="white"/>
</g>
<defs>
<clipPath id="clip0_301_328">
<rect width="32" height="32" fill="white"/>
</clipPath>
</defs>
</svg>
