<svg width="32" height="32" viewBox="0 0 32 32" fill="none" xmlns="http://www.w3.org/2000/svg">
<g clip-path="url(#clip0_301_321)">
<path d="M16 32C24.8366 32 32 24.8366 32 16C32 7.16344 24.8366 0 16 0C7.16344 0 0 7.16344 0 16C0 24.8366 7.16344 32 16 32Z" fill="#3B5998"/>
<path fill-rule="evenodd" clip-rule="evenodd" d="M14.1157 6.00983H15.9957V11.8918L14.1157 9.92883V6.00983Z" fill="white"/>
<path fill-rule="evenodd" clip-rule="evenodd" d="M6.01077 7.99319H10.9598C12.6368 9.74819 14.3208 11.5002 15.9978 13.2592C16.9688 12.2502 17.9368 11.2342 18.9038 10.2222C19.6188 9.48119 20.3308 8.73619 21.0438 7.99219H25.9808C23.6768 10.3222 21.3758 12.6542 19.0708 14.9822C18.8288 15.2252 18.5858 15.4702 18.3488 15.7162C18.4068 15.7782 18.4688 15.8392 18.5208 15.9052L25.2918 22.7512L25.9828 23.4472H22.1528C22.0538 23.4472 21.9548 23.4532 21.8578 23.4402C21.5848 23.4322 21.3108 23.4442 21.0378 23.4342C20.5428 22.9232 20.0538 22.4052 19.5588 21.8922C18.5858 20.8802 17.6168 19.8622 16.6438 18.8482C16.4278 18.6242 16.2168 18.3942 15.9958 18.1762C15.5258 18.6762 15.0438 19.1692 14.5708 19.6692L11.8938 22.4632C11.5818 22.7882 11.2738 23.1152 10.9598 23.4342C10.6898 23.4422 10.4178 23.4342 10.1458 23.4382C9.99076 23.4572 9.83376 23.4442 9.67876 23.4482H6.00977L13.2778 16.0982C13.4028 15.9722 13.5268 15.8452 13.6478 15.7162L6.00977 7.99319H6.01077Z" fill="white"/>
<path fill-rule="evenodd" clip-rule="evenodd" d="M15.9996 19.5312C16.6256 20.1943 17.2596 20.8502 17.8876 21.5112C17.8916 22.8182 17.8876 24.1233 17.8876 25.4313H15.9976C15.9976 23.4643 15.9976 21.4983 16.0016 19.5312H15.9996Z" fill="white"/>
</g>
<defs>
<clipPath id="clip0_301_321">
<rect width="32" height="32" fill="white"/>
</clipPath>
</defs>
</svg>
