<svg width="32" height="32" viewBox="0 0 32 32" fill="none" xmlns="http://www.w3.org/2000/svg">
<g clip-path="url(#clip0_301_313)">
<path d="M16 32C24.8366 32 32 24.8366 32 16C32 7.16344 24.8366 0 16 0C7.16344 0 0 7.16344 0 16C0 24.8366 7.16344 32 16 32Z" fill="#F7931A"/>
<path d="M25.9771 19.7541L25.4321 21.9371L23.9771 21.5751L24.5211 19.3911L22.3381 18.8471L22.7011 17.3921L24.8841 17.9361L25.4291 15.7531L26.8841 16.1161L26.3401 18.2991L28.5231 18.8431L28.1601 20.2991L25.9771 19.7541ZM20.6101 13.7601C20.4071 15.1101 19.6711 15.7661 18.6981 16.0001C20.0291 16.7031 20.7031 17.7871 20.0461 19.6771C19.2301 22.0241 17.3201 22.2321 14.7841 21.7571L14.1541 24.2791L12.6681 23.9091L13.2891 21.4191C12.8933 21.3211 12.4986 21.2188 12.1051 21.1121L11.4811 23.6121L9.99708 23.2421L10.6271 20.7141C10.2791 20.6251 9.92708 20.5311 9.56708 20.4411L7.63208 19.9581L8.38008 18.2161C8.38008 18.2161 9.47508 18.5071 9.46008 18.4861C9.88208 18.5891 10.0701 18.3081 10.1451 18.1211L11.1391 14.1331L11.2971 14.1721C11.2466 14.1519 11.1948 14.1352 11.1421 14.1221L11.8521 11.2751C11.8721 10.9521 11.7651 10.5461 11.1621 10.3951C11.1861 10.3801 10.0831 10.1271 10.0831 10.1271L10.4881 8.50307L12.5381 9.01507L12.5361 9.02207C12.8441 9.09907 13.1621 9.17207 13.4861 9.24507L14.1091 6.74707L15.5951 7.11707L14.9841 9.56707C15.3831 9.65707 15.7841 9.74907 16.1741 9.84707L16.7811 7.41407L18.2681 7.78407L17.6451 10.2831C19.5211 10.9331 20.8901 11.9161 20.6101 13.7601ZM17.1831 18.6451C17.6741 16.6751 14.4411 16.1851 13.4331 15.9331L12.6001 19.2801C13.6081 19.5301 16.7151 20.5331 17.1851 18.6441L17.1831 18.6451ZM17.6701 13.7491C18.1161 11.9561 15.4121 11.5721 14.5731 11.3631L13.8161 14.4001C14.6551 14.6101 17.2411 15.4671 17.6701 13.7491Z" fill="white"/>
</g>
<defs>
<clipPath id="clip0_301_313">
<rect width="32" height="32" fill="white"/>
</clipPath>
</defs>
</svg>
