<svg width="32" height="32" viewBox="0 0 32 32" fill="none" xmlns="http://www.w3.org/2000/svg">
<g clip-path="url(#clip0_301_2274)">
<path d="M16 32C24.8366 32 32 24.8366 32 16C32 7.16344 24.8366 0 16 0C7.16344 0 0 7.16344 0 16C0 24.8366 7.16344 32 16 32Z" fill="#004AB5"/>
<path d="M12.4828 7.79305C11.1632 8.29031 9.98318 9.099 9.04322 10.1503C8.10327 11.2016 7.43118 12.4644 7.08414 13.8313C6.73711 15.1981 6.7254 16.6286 7.05001 18.001C7.37462 19.3734 8.02594 20.647 8.94857 21.7135C9.87119 22.7801 11.0378 23.608 12.3491 24.1268C13.6605 24.6456 15.0777 24.8399 16.4803 24.6933C17.8829 24.5466 19.2293 24.0633 20.405 23.2845C21.5807 22.5057 22.5508 21.4544 23.2328 20.2201L15.5708 15.9851L18.6798 7.80005C16.6844 7.04254 14.481 7.04005 12.4839 7.79305H12.4828ZM13.0288 9.36605C14.6463 8.75618 16.4309 8.75832 18.0469 9.37205L15.5298 15.9991L21.7338 19.4291C21.1814 20.4283 20.3959 21.2793 19.4439 21.9097C18.492 22.5401 17.4018 22.9313 16.2663 23.0499C15.1307 23.1685 13.9832 23.0111 12.9216 22.591C11.8599 22.1709 10.9154 21.5006 10.1684 20.6371C9.42145 19.7736 8.8941 18.7424 8.63123 17.6313C8.36836 16.5203 8.37776 15.3621 8.65862 14.2554C8.93947 13.1488 9.48348 12.1263 10.2444 11.275C11.0053 10.4238 11.9605 9.76886 13.0288 9.36605ZM15.9648 4.98005C17.1558 5.02705 18.3308 5.26705 19.4448 5.69005L15.5298 15.9991L25.1808 21.3341C24.2313 23.0521 22.8403 24.4856 21.1515 25.4865C19.4628 26.4873 17.5375 27.0192 15.5745 27.0273C13.6115 27.0354 11.6819 26.5194 9.98493 25.5326C8.28799 24.5457 6.88522 23.1237 5.92148 21.4136C4.95774 19.7034 4.46796 17.767 4.50271 15.8042C4.53745 13.8415 5.09548 11.9236 6.11915 10.2486C7.14283 8.57361 8.59505 7.20222 10.3259 6.27604C12.0567 5.34986 14.0033 4.90247 15.9648 4.98005ZM23.4938 8.79205C23.7578 8.79205 24.0038 8.82305 24.2298 8.88705C24.8958 9.07005 25.3458 9.48405 25.5798 10.1281C25.7228 10.5191 25.7538 10.9031 25.6738 11.2801C25.6018 11.6541 25.4289 11.9901 25.1549 12.2901C25.6688 12.2671 26.1178 12.3821 26.5048 12.6321C26.8878 12.8741 27.1708 13.2451 27.3518 13.7431C27.6088 14.4491 27.5318 15.0941 27.1188 15.6781C26.7108 16.2521 25.9818 16.7311 24.9308 17.1131L20.7668 18.6291L17.8358 10.5761L21.7698 9.14405C22.4138 8.91005 22.9888 8.79205 23.4938 8.79205ZM22.8839 10.4581C22.6439 10.4581 22.3668 10.5161 22.0508 10.6311L20.1988 11.3051L20.8888 13.2041L22.7418 12.5291C23.2018 12.3621 23.5219 12.1551 23.6999 11.9071C23.8799 11.6591 23.9118 11.3781 23.7969 11.0641C23.6828 10.7501 23.4788 10.5591 23.1848 10.4921C23.0863 10.4683 22.9852 10.4569 22.8839 10.4581ZM24.4458 13.5801C24.1938 13.5831 23.8979 13.6461 23.5578 13.7701L21.3839 14.5611L22.1078 16.5511L24.2818 15.7601C24.7718 15.5811 25.1118 15.3671 25.2978 15.1161C25.4928 14.8631 25.5278 14.5681 25.4058 14.2301C25.2458 13.7931 24.9258 13.5761 24.4458 13.5801Z" fill="white"/>
</g>
<defs>
<clipPath id="clip0_301_2274">
<rect width="32" height="32" fill="white"/>
</clipPath>
</defs>
</svg>
