<svg width="32" height="32" viewBox="0 0 32 32" fill="none" xmlns="http://www.w3.org/2000/svg">
<g clip-path="url(#clip0_301_290)">
<path d="M16 32C24.8366 32 32 24.8366 32 16C32 7.16344 24.8366 0 16 0C7.16344 0 0 7.16344 0 16C0 24.8366 7.16344 32 16 32Z" fill="#FFCE47"/>
<path d="M22.1091 21.7382H9.89088C9.84997 21.7385 9.80941 21.7306 9.77161 21.7149C9.73385 21.6998 9.69966 21.6771 9.67124 21.648C9.64261 21.6192 9.61988 21.5851 9.60434 21.5476C9.58867 21.5098 9.58075 21.4693 9.58106 21.4284V10.6996C9.58145 9.84115 9.92275 9.01797 10.5299 8.41108C11.1371 7.80418 11.9604 7.46326 12.8189 7.46326H19.184C20.0422 7.46364 20.8651 7.80474 21.472 8.41159C22.0789 9.01844 22.4199 9.8414 22.4203 10.6996V21.4284C22.4208 21.4693 22.4128 21.5099 22.3971 21.5476C22.3653 21.624 22.3047 21.6846 22.2283 21.7163C22.1904 21.7316 22.1499 21.739 22.1091 21.7382ZM10.1992 21.12H21.7992V10.6996C21.7992 10.0052 21.5234 9.33929 21.0324 8.84829C20.5414 8.35728 19.8754 8.08144 19.1811 8.08144H12.8174C12.123 8.08144 11.4571 8.35728 10.9661 8.84829C10.4751 9.33929 10.1992 10.0052 10.1992 10.6996V21.12Z" fill="#32407B"/>
<path d="M12.7286 19.8182C12.4303 19.8188 12.141 19.716 11.91 19.5272C11.6791 19.3384 11.5208 19.0753 11.4622 18.7827C11.4035 18.4902 11.4482 18.1865 11.5885 17.9232C11.7289 17.66 11.9562 17.4535 12.2317 17.3392C12.5072 17.2248 12.8139 17.2096 13.0994 17.2961C13.3849 17.3826 13.6316 17.5655 13.7973 17.8135C13.963 18.0616 14.0376 18.3594 14.0082 18.6563C13.9788 18.9532 13.8474 19.2307 13.6363 19.4414C13.3956 19.6824 13.0692 19.8179 12.7286 19.8182ZM12.7286 17.8662C12.5967 17.8661 12.4676 17.9051 12.3577 17.9782C12.2484 18.052 12.1629 18.1561 12.1119 18.2778C12.0613 18.3998 12.0482 18.5341 12.0741 18.6636C12.1 18.7931 12.1638 18.9119 12.2574 19.0051C12.335 19.0821 12.4304 19.1389 12.5351 19.1704C12.6399 19.2018 12.7508 19.207 12.858 19.1855C12.9652 19.1639 13.0655 19.1163 13.15 19.0468C13.2344 18.9773 13.3005 18.8881 13.3423 18.7871C13.3841 18.686 13.4004 18.5762 13.3898 18.4673C13.3791 18.3585 13.3418 18.2539 13.2811 18.1629C13.2205 18.0719 13.1383 17.9972 13.042 17.9455C12.9456 17.8937 12.838 17.8665 12.7286 17.8662Z" fill="#32407B"/>
<path d="M19.2699 19.8182C18.9725 19.8182 18.6842 19.7151 18.4542 19.5264C18.2242 19.3378 18.0667 19.0752 18.0086 18.7834C17.9506 18.4916 17.9954 18.1888 18.1356 17.9264C18.2758 17.664 18.5026 17.4584 18.7775 17.3445C19.0523 17.2306 19.3581 17.2155 19.6428 17.3018C19.9275 17.3881 20.1734 17.5705 20.3387 17.8178C20.504 18.0651 20.5785 18.3621 20.5494 18.6582C20.5202 18.9542 20.3894 19.2311 20.179 19.4414C20.0597 19.5609 19.918 19.6557 19.762 19.7203C19.606 19.785 19.4388 19.8182 19.2699 19.8182ZM19.2699 17.8662C19.1385 17.8664 19.01 17.9053 18.9005 17.9782C18.7911 18.0516 18.7059 18.1558 18.6556 18.2775C18.6053 18.3993 18.5921 18.5332 18.6178 18.6625C18.6434 18.7917 18.7068 18.9105 18.7998 19.0038C18.8928 19.0971 19.0113 19.1608 19.1405 19.1869C19.2697 19.2125 19.4036 19.1992 19.5253 19.1487C19.647 19.0983 19.751 19.0128 19.8241 18.9032C19.8914 18.8029 19.9301 18.6862 19.9361 18.5655C19.9421 18.4449 19.9152 18.3249 19.8583 18.2184C19.8014 18.1118 19.7166 18.0228 19.6129 17.9607C19.5093 17.8987 19.3907 17.866 19.2699 17.8662Z" fill="#32407B"/>
<path d="M17.8575 9.74545H14.1412C14.1006 9.74549 14.0605 9.73754 14.0231 9.72207C13.9857 9.70659 13.9516 9.68389 13.923 9.65527C13.8943 9.62663 13.8715 9.59262 13.856 9.55518C13.8405 9.51774 13.8325 9.47761 13.8325 9.43709C13.8325 9.39656 13.8405 9.35643 13.856 9.31899C13.8715 9.28156 13.8943 9.24754 13.923 9.21891C13.9516 9.19028 13.9857 9.16758 14.0231 9.15211C14.0605 9.13663 14.1006 9.12869 14.1412 9.12872H17.8575C17.9397 9.12872 18.0185 9.16136 18.0766 9.21947C18.1347 9.27757 18.1673 9.35637 18.1673 9.43854C18.1673 9.52071 18.1347 9.59951 18.0766 9.65762C18.0185 9.71572 17.9397 9.74836 17.8575 9.74836V9.74545Z" fill="#32407B"/>
<path d="M21.9333 24.7098C21.8826 24.7105 21.8326 24.6985 21.7878 24.6749C21.7426 24.6535 21.7033 24.6216 21.6729 24.5818L19.7093 21.7789C19.6863 21.7455 19.6699 21.708 19.6613 21.6684C19.6533 21.6285 19.6533 21.5875 19.6613 21.5477C19.6677 21.5072 19.6825 21.4685 19.7049 21.4342C19.7267 21.4001 19.7548 21.3704 19.7878 21.3469C19.8212 21.3239 19.8587 21.3076 19.8984 21.2989C19.9381 21.2902 19.9793 21.2902 20.0191 21.2989C20.0588 21.3055 20.0969 21.3199 20.1311 21.3411C20.1656 21.363 20.1953 21.3917 20.2184 21.4255L22.1893 24.2255C22.2215 24.2719 22.2406 24.3262 22.2445 24.3826C22.25 24.4398 22.2392 24.4974 22.2135 24.5489C22.1878 24.6003 22.1481 24.6435 22.0991 24.6735C22.0509 24.7029 21.9955 24.7185 21.9391 24.7186L21.9333 24.7098Z" fill="#32407B"/>
<path d="M10.0671 24.7098C10.0102 24.7097 9.95438 24.6941 9.90564 24.6647C9.85727 24.6352 9.818 24.5929 9.79218 24.5425C9.76637 24.4923 9.75432 24.4361 9.75727 24.3796C9.76133 24.3226 9.78095 24.2677 9.814 24.2211L11.782 21.4225C11.805 21.3879 11.8346 21.3582 11.8693 21.3353C11.9034 21.3119 11.942 21.296 11.9827 21.2887C12.0234 21.2809 12.0653 21.2813 12.1058 21.2901C12.1463 21.2988 12.1846 21.3157 12.2184 21.3396C12.2522 21.3632 12.2809 21.3934 12.3027 21.4284C12.3247 21.4639 12.3395 21.5035 12.3464 21.5447C12.3543 21.5851 12.3543 21.6266 12.3464 21.6669C12.3373 21.7072 12.3195 21.7449 12.294 21.7774L10.3275 24.5818C10.2986 24.6224 10.2608 24.6557 10.2169 24.6793C10.1703 24.7019 10.1188 24.7124 10.0671 24.7098Z" fill="#32407B"/>
<path d="M10.5542 24.016C10.4977 24.0159 10.4424 24.0003 10.3942 23.9709C10.345 23.9419 10.3052 23.8996 10.2793 23.8487C10.2536 23.7984 10.2421 23.7421 10.2458 23.6858C10.25 23.6295 10.2691 23.5753 10.3011 23.5287L11.7818 21.4225C11.8048 21.3879 11.8345 21.3582 11.8691 21.3353C11.9038 21.313 11.9422 21.2972 11.9825 21.2887C12.0647 21.2751 12.149 21.2933 12.2182 21.3396C12.2517 21.3641 12.2803 21.3947 12.3025 21.4298C12.3243 21.465 12.3391 21.504 12.3462 21.5447C12.3584 21.6274 12.3375 21.7116 12.288 21.7789L10.8073 23.8851C10.7792 23.926 10.7411 23.959 10.6967 23.9811C10.6528 24.0042 10.6038 24.0162 10.5542 24.016Z" fill="#32407B"/>
<path d="M22.109 12.1135H9.89083C9.84916 12.1148 9.80764 12.1079 9.76865 12.0931C9.69295 12.0619 9.63241 12.0024 9.59992 11.9273C9.58379 11.8886 9.57539 11.8471 9.5752 11.8051C9.57539 11.7636 9.58379 11.7226 9.59992 11.6844C9.61649 11.6463 9.64019 11.6118 9.66974 11.5826C9.69978 11.5538 9.73543 11.5315 9.77447 11.5171C9.81103 11.5004 9.85065 11.4915 9.89083 11.4909H22.109C22.1508 11.4893 22.1925 11.4968 22.2312 11.5128C22.2699 11.527 22.3051 11.5493 22.3345 11.5782C22.3645 11.6073 22.3886 11.6419 22.4057 11.68C22.4214 11.7183 22.4293 11.7594 22.429 11.8008C22.4281 11.8445 22.4182 11.8875 22.3999 11.9273C22.3832 11.9652 22.3589 11.9993 22.3286 12.0277C22.2994 12.0571 22.2642 12.0799 22.2254 12.0946C22.1881 12.1081 22.1486 12.1145 22.109 12.1135Z" fill="#32407B"/>
<path d="M22.109 16.0335H9.89079C9.84904 16.0362 9.80721 16.0292 9.76861 16.0131C9.72957 15.9987 9.69392 15.9764 9.66388 15.9476C9.63433 15.9185 9.61063 15.8839 9.59406 15.8458C9.57793 15.8076 9.56953 15.7666 9.56934 15.7251C9.56953 15.6831 9.57793 15.6416 9.59406 15.6029C9.61009 15.5645 9.63387 15.5299 9.6639 15.5011C9.69393 15.4723 9.72958 15.45 9.76861 15.4356C9.8078 15.4219 9.84931 15.4159 9.89079 15.4182H22.109C22.1506 15.4169 22.1922 15.4238 22.2312 15.4385C22.2696 15.4532 22.3048 15.4754 22.3344 15.504C22.3644 15.5331 22.3886 15.5677 22.4057 15.6058C22.4214 15.6446 22.4293 15.6861 22.429 15.728C22.4293 15.7694 22.4214 15.8104 22.4057 15.8487C22.3886 15.8869 22.3644 15.9214 22.3344 15.9506C22.305 15.9794 22.2698 16.0017 22.2312 16.016C22.1923 16.0312 22.1505 16.0371 22.109 16.0335Z" fill="#32407B"/>
<path d="M12.7287 16.0335C12.6695 16.0335 12.6115 16.0168 12.5615 15.9851C12.5116 15.9534 12.4717 15.9081 12.4465 15.8546C12.4228 15.8002 12.4147 15.7402 12.4232 15.6815C12.4319 15.6228 12.4571 15.5678 12.4959 15.5229L13.9083 13.9142C13.9494 13.8708 14.0021 13.8401 14.0601 13.826C14.1182 13.8119 14.1791 13.8148 14.2355 13.8345C14.2919 13.8542 14.3414 13.8897 14.3781 13.9369C14.4148 13.9841 14.437 14.0408 14.4421 14.1004C14.4494 14.1802 14.4248 14.2597 14.3738 14.3215L12.9614 15.9316C12.9328 15.9652 12.8971 15.9921 12.8568 16.0102C12.8166 16.0283 12.7728 16.0372 12.7287 16.0364V16.0335Z" fill="#32407B"/>
<path d="M14.586 16.0335C14.5265 16.0345 14.4681 16.0172 14.4187 15.984C14.3684 15.9521 14.3286 15.9062 14.304 15.8519C14.2795 15.7977 14.2713 15.7374 14.2806 15.6786C14.2892 15.6199 14.3144 15.5649 14.3533 15.52L17.178 12.3011C17.205 12.2708 17.2376 12.2461 17.274 12.2284C17.3104 12.2105 17.3499 12.2001 17.3904 12.1978C17.4312 12.1947 17.4722 12.1996 17.5111 12.2124C17.5495 12.2261 17.585 12.2468 17.6158 12.2735C17.677 12.3278 17.7141 12.4042 17.7191 12.4858C17.7224 12.5262 17.7174 12.5667 17.7046 12.6051C17.6918 12.6439 17.671 12.6796 17.6435 12.7098L14.8187 15.9287C14.7901 15.962 14.7543 15.9884 14.714 16.0058C14.6739 16.0243 14.6302 16.0337 14.586 16.0335Z" fill="#32407B"/>
<path d="M20.4667 22.7258H11.5329C11.4912 22.7271 11.4497 22.7202 11.4107 22.7054C11.3716 22.6905 11.336 22.6678 11.306 22.6385C11.2763 22.6095 11.2525 22.5749 11.2362 22.5367C11.2199 22.4986 11.2115 22.4575 11.2114 22.416C11.2116 22.3745 11.22 22.3335 11.2362 22.2953C11.2532 22.2575 11.2769 22.223 11.306 22.1934C11.3363 22.1647 11.3719 22.142 11.4107 22.1265C11.4497 22.1118 11.4912 22.1049 11.5329 22.1062H20.4667C20.5469 22.1098 20.6227 22.1436 20.6791 22.2007C20.7208 22.2438 20.7491 22.2981 20.7605 22.3569C20.772 22.4158 20.7661 22.4767 20.7436 22.5323C20.7211 22.5879 20.683 22.6358 20.6339 22.6701C20.5847 22.7045 20.5266 22.7238 20.4667 22.7258Z" fill="#32407B"/>
<path d="M21.4441 24.016H10.554C10.4718 24.016 10.393 23.9834 10.3349 23.9253C10.2768 23.8672 10.2441 23.7883 10.2441 23.7062C10.2441 23.624 10.2768 23.5452 10.3349 23.4871C10.393 23.429 10.4718 23.3964 10.554 23.3964H21.4441C21.5261 23.3971 21.6044 23.43 21.6624 23.4879C21.7203 23.5459 21.7532 23.6242 21.754 23.7062C21.7539 23.747 21.7458 23.7875 21.7301 23.8251C21.7143 23.8628 21.6913 23.8971 21.6623 23.9258C21.6338 23.9546 21.5998 23.9774 21.5623 23.9928C21.5248 24.0083 21.4847 24.0162 21.4441 24.016Z" fill="#32407B"/>
</g>
<defs>
<clipPath id="clip0_301_290">
<rect width="32" height="32" fill="white"/>
</clipPath>
</defs>
</svg>
