<svg width="32" height="32" viewBox="0 0 32 32" fill="none" xmlns="http://www.w3.org/2000/svg">
<g clip-path="url(#clip0_301_278)">
<path d="M16 32C24.8366 32 32 24.8366 32 16C32 7.16344 24.8366 0 16 0C7.16344 0 0 7.16344 0 16C0 24.8366 7.16344 32 16 32Z" fill="#67B2E8"/>
<path fill-rule="evenodd" clip-rule="evenodd" d="M6.145 11.9538C6.05142 11.1846 6.003 10.4106 6 9.63577C7.31251 8.88815 8.70536 8.29136 10.152 7.85677C12.1817 7.24599 14.2949 6.95814 16.414 7.00377C16.982 7.01477 17.804 7.07777 18.428 7.14477C17.6362 7.56939 16.9498 8.16628 16.4193 8.89144C15.8889 9.61661 15.5279 10.4516 15.363 11.3348C15.303 11.6488 15.27 11.9748 15.259 12.3228C15.243 12.8588 15.191 13.2808 15.079 13.6758C14.8272 14.566 14.3088 15.3579 13.5936 15.9447C12.8784 16.5316 12.0006 16.8855 11.0783 16.9587C10.156 17.0318 9.23345 16.8209 8.43463 16.3541C7.63581 15.8873 6.99906 15.1872 6.61 14.3478C6.56601 14.2516 6.53249 14.1511 6.51 14.0478C6.35162 13.3567 6.22978 12.6577 6.145 11.9538ZM22.758 20.5138C22.52 20.8838 22.268 21.2438 22.006 21.5988C22.0141 20.5888 21.7628 19.5937 21.276 18.7088C20.7753 17.7766 20.0343 16.9952 19.13 16.4458L19.04 16.3908C18.99 16.3614 18.9403 16.3314 18.891 16.3008C17.754 15.5778 17.061 14.5658 16.817 13.2598C16.6052 12.1221 16.8381 10.9465 17.4675 9.97549C18.097 9.00445 19.075 8.31194 20.2 8.04077C21.02 7.84277 21.83 7.87077 22.637 8.12377C23.256 8.31877 23.882 8.57377 24.645 8.93077C25.085 9.13777 25.529 9.36777 26.001 9.63477C25.9945 11.0294 25.8431 12.4195 25.549 13.7828C25.0358 16.1774 24.0904 18.4583 22.759 20.5138H22.758ZM19.721 24.1868C18.5919 25.2628 17.3439 26.2065 16.001 26.9998C15.654 26.7998 15.3147 26.5866 14.984 26.3608C11.7765 24.2036 9.24881 21.1786 7.696 17.6388C8.43574 18.0738 9.26173 18.3418 10.116 18.4238C11.3719 18.5509 12.636 18.2805 13.73 17.6508C14.2559 17.3511 14.8355 17.1578 15.436 17.0818C16.5007 16.9473 17.5785 17.1959 18.4766 17.7833C19.3747 18.3707 20.0345 19.2585 20.338 20.2878C20.673 21.4088 20.575 22.5098 20.055 23.5948C20.011 23.6868 19.973 23.7608 19.883 23.9378L19.839 24.0248C19.8093 24.0852 19.7694 24.14 19.721 24.1868Z" fill="white"/>
</g>
<defs>
<clipPath id="clip0_301_278">
<rect width="32" height="32" fill="white"/>
</clipPath>
</defs>
</svg>
