<svg width="32" height="32" viewBox="0 0 32 32" fill="none" xmlns="http://www.w3.org/2000/svg">
<g clip-path="url(#clip0_301_270)">
<path d="M16 32.0335C19.1645 32.0335 22.2579 31.0951 24.8891 29.337C27.5203 27.5789 29.5711 25.08 30.7821 22.1564C31.9931 19.2328 32.3099 16.0157 31.6926 12.912C31.0752 9.80831 29.5514 6.95739 27.3137 4.71975C25.0761 2.48211 22.2251 0.958254 19.1214 0.34089C16.0177 -0.276474 12.8007 0.0403798 9.87707 1.25138C6.95345 2.46238 4.45459 4.51314 2.69649 7.14433C0.938384 9.77552 0 12.869 0 16.0335C0 20.2769 1.68571 24.3466 4.68629 27.3472C7.68687 30.3477 11.7565 32.0335 16 32.0335Z" fill="white"/>
<path d="M23.7093 8.96142L21.1246 10.2705L8.64602 16.6269C8.47026 15.2621 8.67673 13.8754 9.24244 12.621C9.80815 11.3666 10.7109 10.2939 11.8502 9.5222C12.9895 8.75052 14.3206 8.31018 15.6953 8.2502C17.07 8.19023 18.4344 8.51298 19.6366 9.18252L21.1129 8.43633L21.334 8.32433C19.9797 7.34115 18.3799 6.75143 16.7115 6.62032C15.043 6.4892 13.3708 6.8218 11.8795 7.58137C10.3882 8.34094 9.13589 9.49792 8.26084 10.9245C7.38579 12.3511 6.92208 13.9918 6.92093 15.6654C6.92093 15.8967 6.92966 16.1265 6.94711 16.3563C6.97175 16.6818 6.89972 17.0072 6.74006 17.2919C6.58039 17.5765 6.34021 17.8077 6.04966 17.9563L5.27002 18.3534V20.208L7.56675 19.0443L8.31002 18.6647L9.03729 18.2909L22.1966 11.5796L23.6758 10.8276L26.7304 9.26979V7.41815L23.7093 8.96142Z" fill="black"/>
<path d="M26.7304 11.1258L9.78929 19.7512L8.31147 20.5091L5.27002 22.0567V23.9098L8.29111 22.3694L10.8744 21.0603L23.366 14.6909C23.4079 15.0145 23.4288 15.3405 23.4286 15.6669C23.4266 16.9625 23.0861 18.2351 22.4409 19.3586C21.7956 20.4822 20.868 21.4176 19.75 22.0722C18.6319 22.7269 17.3622 23.078 16.0666 23.0908C14.7711 23.1037 13.4947 22.7778 12.3638 22.1454L12.2737 22.1934L10.6737 23.0109C12.0283 23.9943 13.6284 24.584 15.2973 24.715C16.9661 24.8459 18.6387 24.513 20.1301 23.7529C21.6215 22.9928 22.8738 21.8351 23.7485 20.4079C24.6233 18.9807 25.0864 17.3394 25.0867 15.6654C25.0867 15.4327 25.078 15.1985 25.0606 14.9687C25.0352 14.6433 25.1068 14.3177 25.2662 14.033C25.4257 13.7483 25.6659 13.5171 25.9566 13.3687L26.7377 12.9716L26.7304 11.1258Z" fill="black"/>
</g>
<defs>
<clipPath id="clip0_301_270">
<rect width="32" height="32" fill="white"/>
</clipPath>
</defs>
</svg>
