<svg width="32" height="32" viewBox="0 0 32 32" fill="none" xmlns="http://www.w3.org/2000/svg">
<g clip-path="url(#clip0_301_2270)">
<path d="M16 32C24.8366 32 32 24.8366 32 16C32 7.16344 24.8366 0 16 0C7.16344 0 0 7.16344 0 16C0 24.8366 7.16344 32 16 32Z" fill="#F7931C"/>
<path d="M7.3511 19.32C7.3431 16.308 9.4641 13.78 12.4981 13.211C12.7581 13.163 12.8321 13.076 12.8251 12.822C12.8086 12.1458 12.8086 11.4693 12.8251 10.793C12.8301 10.55 12.7531 10.405 12.5441 10.269C11.8151 9.79403 11.5171 8.93003 11.7841 8.15303C11.9125 7.75989 12.1672 7.42023 12.5087 7.18692C12.8502 6.9536 13.2592 6.83973 13.6721 6.86303C14.4421 6.89903 15.1471 7.47203 15.3551 8.23303C15.5651 8.99703 15.2731 9.82803 14.5951 10.259C14.3551 10.411 14.2801 10.564 14.2881 10.836C14.3081 11.512 14.3011 12.188 14.2921 12.865C14.2891 13.061 14.3181 13.166 14.5511 13.196C14.9941 13.255 15.4271 13.374 15.8371 13.55C15.9911 13.616 16.0741 13.576 16.1771 13.462C17.6121 11.881 19.0521 10.303 20.4951 8.72903C20.6441 8.56703 20.6011 8.45603 20.5331 8.28903C20.1811 7.42103 20.3871 6.48403 21.0511 5.86403C21.6571 5.29903 22.6591 5.13803 23.3831 5.48903C24.2351 5.90203 24.7031 6.69403 24.6451 7.62403C24.5671 8.86803 23.3571 9.80503 22.1291 9.55003C21.8801 9.49803 21.7361 9.55803 21.5751 9.73603C20.2394 11.2124 18.898 12.6838 17.5511 14.15C17.3881 14.327 17.3651 14.422 17.5681 14.598C19.7721 16.52 20.3721 19.416 19.1161 22.054C19.0211 22.254 19.0421 22.368 19.1961 22.514C19.5631 22.863 19.9181 23.224 20.2701 23.589C20.4101 23.734 20.5411 23.772 20.7491 23.719C21.5591 23.515 22.3991 23.879 22.8031 24.582C23.0033 24.9299 23.086 25.3331 23.039 25.7317C22.9919 26.1304 22.8177 26.5032 22.5421 26.795C21.9881 27.384 21.0831 27.555 20.3801 27.203C19.6121 26.819 19.1881 25.998 19.3701 25.155C19.4231 24.913 19.3671 24.775 19.2051 24.622C18.9069 24.34 18.6177 24.0485 18.3381 23.748C18.1751 23.572 18.0741 23.569 17.8881 23.744C15.9891 25.514 13.7871 25.972 11.3571 25.108C8.9411 24.251 7.3581 21.902 7.3511 19.321" fill="#FEFDFC"/>
</g>
<defs>
<clipPath id="clip0_301_2270">
<rect width="32" height="32" fill="white"/>
</clipPath>
</defs>
</svg>
