<svg width="32" height="32" viewBox="0 0 32 32" fill="none" xmlns="http://www.w3.org/2000/svg">
<g clip-path="url(#clip0_301_251)">
<path d="M16 32C24.8366 32 32 24.8366 32 16C32 7.16344 24.8366 0 16 0C7.16344 0 0 7.16344 0 16C0 24.8366 7.16344 32 16 32Z" fill="#FF6600"/>
<path d="M28 15.9998C28 22.6278 22.628 27.9998 16 27.9998C9.372 27.9998 4 22.6278 4 15.9998C4 13.3188 4.881 10.8438 6.362 8.84676L8.322 10.8068C7.28134 12.3385 6.7259 14.148 6.728 15.9998C6.728 21.1098 10.881 25.2618 15.991 25.2618C21.1 25.2618 25.253 21.1088 25.253 15.9998C25.2522 14.1481 24.697 12.3391 23.659 10.8058L25.619 8.84576C27.1697 10.9079 28.0057 13.4196 28 15.9998Z" fill="white"/>
<path d="M22.6368 16C22.635 17.7597 21.9351 19.4468 20.6908 20.691C19.4466 21.9353 17.7595 22.6352 15.9998 22.637C14.24 22.6354 12.5526 21.9357 11.3081 20.6914C10.0637 19.4471 9.36367 17.7599 9.36182 16C9.36182 14.847 9.66182 13.713 10.2338 12.71L15.9998 18.474L21.7658 12.708C22.3376 13.7109 22.6381 14.8456 22.6378 16" fill="white"/>
<path d="M23.8468 6.92504L15.9998 14.762L10.0188 8.79104L8.15283 6.92504C10.328 5.03203 13.1163 3.9927 15.9998 4.00004C18.9998 4.00004 21.7378 5.09704 23.8468 6.92504Z" fill="white"/>
</g>
<defs>
<clipPath id="clip0_301_251">
<rect width="32" height="32" fill="white"/>
</clipPath>
</defs>
</svg>
