<svg width="32" height="32" viewBox="0 0 32 32" fill="none" xmlns="http://www.w3.org/2000/svg">
<g clip-path="url(#clip0_301_243)">
<path d="M16 32C24.8366 32 32 24.8366 32 16C32 7.16344 24.8366 0 16 0C7.16344 0 0 7.16344 0 16C0 24.8366 7.16344 32 16 32Z" fill="#EC1076"/>
<path fill-rule="evenodd" clip-rule="evenodd" d="M21.0499 21C20.4479 21 19.7869 20.697 19.7869 19.788C19.7869 19.34 20.1369 17.963 20.8349 15.656C20.9779 15.3 21.0489 14.98 21.0489 14.697C21.0489 14.152 20.6289 13.607 19.8469 13.607C19.3929 13.607 18.4039 13.787 18.1039 14.757C17.9039 15.404 17.4429 17.121 16.7209 19.909C16.4409 20.636 15.9399 21 15.2189 21C14.1369 21 13.9559 20.212 13.9559 19.727C13.9559 19.535 14.2439 18.374 14.8209 16.247C15.0459 15.537 15.1579 15.02 15.1579 14.697C15.1579 14.212 14.7979 13.607 13.9559 13.607C13.1149 13.607 12.3329 14.212 11.9729 15.545C11.7329 16.435 11.3919 17.768 10.9509 19.545C10.7109 20.515 10.1689 21 9.3279 21C8.5659 21 8.1659 20.576 8.1259 19.727L9.5079 13.97H6.4429C6.25296 13.9766 6.06362 13.9452 5.88602 13.8775C5.70842 13.8099 5.54615 13.7074 5.40875 13.5761C5.27135 13.4448 5.16161 13.2873 5.08597 13.113C5.01034 12.9386 4.97034 12.7509 4.96834 12.5609C4.96634 12.3708 5.00237 12.1823 5.07432 12.0064C5.14626 11.8305 5.25267 11.6708 5.38727 11.5366C5.52188 11.4024 5.68196 11.2965 5.85809 11.2252C6.03423 11.1538 6.22287 11.1184 6.4129 11.121H11.5519C12.2729 11.121 12.7139 11.465 12.8739 12.151C13.5959 11.243 14.5569 11 15.3999 11C16.2429 11 17.3229 11.485 17.8039 12.576C18.4639 11.848 19.6069 11 21.2299 11C22.7319 11 23.9949 12.03 23.9949 13.848C23.9949 14.535 23.6539 15.97 22.9729 18.152L25.6099 18.134C26.3809 18.134 26.9999 18.776 26.9999 19.567C26.9999 20.358 26.3809 21 25.6169 21H21.0499Z" fill="white"/>
</g>
<defs>
<clipPath id="clip0_301_243">
<rect width="32" height="32" fill="white"/>
</clipPath>
</defs>
</svg>
