<svg width="32" height="32" viewBox="0 0 32 32" fill="none" xmlns="http://www.w3.org/2000/svg">
<g clip-path="url(#clip0_301_235)">
<path d="M16 32C24.8366 32 32 24.8366 32 16C32 7.16344 24.8366 0 16 0C7.16344 0 0 7.16344 0 16C0 24.8366 7.16344 32 16 32Z" fill="#4FA784"/>
<path fill-rule="evenodd" clip-rule="evenodd" d="M25.575 12.8462L17.465 10.5222L14.691 15.2472L11.469 11.5102L12.929 11.3222L14.434 13.0902L16.104 10.1312L8.75398 8.02416C8.65524 7.99489 8.55053 7.99217 8.45039 8.01626C8.35026 8.04035 8.25824 8.0904 8.18362 8.16138C8.10899 8.23236 8.05438 8.32175 8.02531 8.42055C7.99623 8.51935 7.9937 8.62407 8.01798 8.72416L11.274 21.8002L14.771 15.9122L17.993 19.6492L16.533 19.8372L15.029 18.0692L11.719 23.5862L12.209 25.5562C12.2345 25.6561 12.2857 25.7476 12.3576 25.8215C12.4294 25.8954 12.5194 25.9492 12.6186 25.9776C12.7177 26.0059 12.8226 26.0077 12.9226 25.9829C13.0227 25.9581 13.1146 25.9075 13.189 25.8362L25.819 13.8262C25.8936 13.7555 25.948 13.6663 25.9768 13.5677C26.0056 13.4691 26.0077 13.3646 25.9829 13.265C25.9581 13.1653 25.9073 13.074 25.8356 13.0004C25.7639 12.9268 25.674 12.8736 25.575 12.8462Z" fill="white"/>
</g>
<defs>
<clipPath id="clip0_301_235">
<rect width="32" height="32" fill="white"/>
</clipPath>
</defs>
</svg>
