<svg width="32" height="32" viewBox="0 0 32 32" fill="none" xmlns="http://www.w3.org/2000/svg">
<g clip-path="url(#clip0_301_218)">
<path d="M16 32C24.8366 32 32 24.8366 32 16C32 7.16344 24.8366 0 16 0C7.16344 0 0 7.16344 0 16C0 24.8366 7.16344 32 16 32Z" fill="white"/>
<path d="M16.0001 30.8814C24.2189 30.8814 30.8816 24.2188 30.8816 16C30.8816 7.78118 24.2189 1.11853 16.0001 1.11853C7.78131 1.11853 1.11865 7.78118 1.11865 16C1.11865 24.2188 7.78131 30.8814 16.0001 30.8814Z" fill="white"/>
<path d="M18.0815 25.712C16.6949 25.712 15.6835 25.3779 15.0473 24.7098C14.4567 24.1453 14.114 23.3696 14.0946 22.5527C14.0853 22.3048 14.1404 22.0588 14.2546 21.8386C14.3637 21.6494 14.5208 21.4924 14.7099 21.3833C14.9302 21.2735 15.1729 21.2164 15.419 21.2164C15.6651 21.2164 15.9078 21.2735 16.1281 21.3833C16.3167 21.4921 16.4728 21.6493 16.5804 21.8386C16.6999 22.0573 16.7596 22.3036 16.7535 22.5527C16.7656 22.8496 16.6803 23.1423 16.5106 23.3862C16.3672 23.5861 16.1632 23.7346 15.9288 23.8095C16.1568 24.099 16.479 24.2997 16.8393 24.3767C17.2431 24.4936 17.6612 24.5538 18.0815 24.5556C18.6372 24.5598 19.1814 24.3972 19.6437 24.0887C20.1231 23.7499 20.4803 23.2652 20.6619 22.7069C20.8934 22.0428 21.0066 21.3432 20.9964 20.64C21.014 19.9071 20.8901 19.1776 20.6313 18.4916C20.4366 17.9429 20.0665 17.4736 19.5783 17.1564C19.1249 16.8684 18.5982 16.7169 18.0612 16.72C17.5951 16.7599 17.1458 16.9127 16.7521 17.1651L15.7775 17.6538V17.1636L20.1572 11.2887H14.0946V17.3862C14.0774 17.8258 14.1935 18.2603 14.4277 18.6327C14.5411 18.7949 14.6944 18.925 14.8727 19.0106C15.0511 19.0962 15.2485 19.1344 15.4459 19.1215C15.8112 19.1138 16.1644 18.9895 16.4539 18.7666C16.7818 18.5248 17.067 18.2298 17.2975 17.8938C17.318 17.8353 17.3561 17.7845 17.4066 17.7484C17.4472 17.7138 17.4988 17.6947 17.5521 17.6946C17.6596 17.7022 17.7617 17.7446 17.843 17.8153C17.9449 17.9285 18 18.0761 17.9972 18.2284C17.9858 18.3303 17.9679 18.4313 17.9433 18.5309C17.7279 19.0532 17.3663 19.5022 16.9019 19.824C16.4725 20.1144 15.9657 20.269 15.4473 20.2676C14.1334 20.2676 13.2233 20.0087 12.7172 19.4909C12.4565 19.2047 12.2556 18.8692 12.1262 18.5043C11.9968 18.1394 11.9416 17.7524 11.9637 17.3658V11.2931H8.8728V10.1615H11.9695V7.57819L11.2597 6.86691V6.2851H13.3193L14.0946 6.69091V10.1615L22.1092 10.1367L22.9077 10.9382L17.9913 15.8836C18.2882 15.7643 18.6008 15.6888 18.9193 15.6596C19.5504 15.6876 20.1661 15.8629 20.7172 16.1716C21.3542 16.4753 21.8912 16.9547 22.2648 17.5535C22.5989 18.061 22.8357 18.6262 22.963 19.2204C23.0669 19.6886 23.1224 20.1663 23.1288 20.6458C23.1329 21.5622 22.9254 22.4672 22.5223 23.2902C22.1402 24.0868 21.4978 24.7292 20.7012 25.1113C19.8858 25.5105 18.9893 25.716 18.0815 25.712Z" fill="#2C7DF7"/>
</g>
<defs>
<clipPath id="clip0_301_218">
<rect width="32" height="32" fill="white"/>
</clipPath>
</defs>
</svg>
