<svg width="32" height="32" viewBox="0 0 32 32" fill="none" xmlns="http://www.w3.org/2000/svg">
<g clip-path="url(#clip0_301_2263)">
<path d="M32.0684 16C32.0684 19.1645 31.13 22.2579 29.3719 24.8891C27.6138 27.5203 25.1149 29.5711 22.1913 30.7821C19.2677 31.9931 16.0506 32.3099 12.9469 31.6926C9.84323 31.0752 6.9923 29.5514 4.75466 27.3137C2.51702 25.0761 0.993166 22.2251 0.375802 19.1214C-0.241561 16.0177 0.0752919 12.8007 1.28629 9.87707C2.4973 6.95345 4.54806 4.45459 7.17924 2.69649C9.81043 0.938384 12.9039 0 16.0684 0C20.3118 0 24.3815 1.68571 27.3821 4.68629C30.3827 7.68687 32.0684 11.7565 32.0684 16Z" fill="#43A047"/>
<path fill-rule="evenodd" clip-rule="evenodd" d="M11.4271 7.3062L15.1042 8.29092L15.9275 5.2262L17.766 5.72511L16.9748 8.66183L18.473 9.06474L19.2628 6.09747L21.1333 6.59638L20.3275 9.58111C20.3275 9.58111 23.382 10.2575 24.102 12.7418C24.822 15.2262 22.5239 16.5324 21.8184 16.5818C21.8184 16.5818 24.4962 18.0495 23.577 20.9367C22.6577 23.824 19.8344 24.3404 16.8671 23.6786L16.0599 26.7753L14.1893 26.2764L15.0126 23.2218L13.5275 22.8233L12.7013 25.8909L10.8468 25.392L11.6686 22.3375L7.89404 21.3193L8.84677 19.2073C8.84677 19.2073 9.91004 19.4982 10.3144 19.5942C10.7188 19.6902 10.9748 19.2713 11.0882 18.8524C11.2017 18.4335 12.9108 11.4909 13.0722 10.9193C13.2337 10.3477 13.1682 9.90111 12.4904 9.72511C11.8126 9.54911 10.8904 9.2742 10.8904 9.2742L11.4271 7.3062ZM15.1362 16.5004L14.118 20.5484C14.118 20.5484 19.1653 22.3709 19.8111 19.8066C20.457 17.2422 15.1362 16.5004 15.1362 16.5004ZM15.6046 14.5804L16.6039 10.8713C16.6039 10.8713 20.9268 11.6451 20.3944 13.7091C19.862 15.7731 17.3093 14.9818 15.6046 14.5804Z" fill="white"/>
</g>
<defs>
<clipPath id="clip0_301_2263">
<rect width="32" height="32" fill="white"/>
</clipPath>
</defs>
</svg>
