<svg width="32" height="32" viewBox="0 0 32 32" fill="none" xmlns="http://www.w3.org/2000/svg">
<g clip-path="url(#clip0_301_168)">
<path d="M16 32C24.8366 32 32 24.8366 32 16C32 7.16344 24.8366 0 16 0C7.16344 0 0 7.16344 0 16C0 24.8366 7.16344 32 16 32Z" fill="#00EAAB"/>
<path d="M24.7999 9.5683L23.0199 12.3383C23.5878 13.4512 23.8813 14.6839 23.8759 15.9333C23.8759 20.3333 20.3159 23.8763 15.9329 23.8763C14.6891 23.8819 13.4623 23.5883 12.3559 23.0203L9.56787 24.8173C11.3649 26.0933 13.5479 26.8663 15.9159 26.8663C21.9449 26.8663 26.8489 21.9793 26.8489 15.9333C26.8489 13.5483 26.0929 11.3653 24.7999 9.5683Z" fill="white"/>
<path d="M15.9329 21.3904C17.2134 21.3904 18.4536 20.942 19.4381 20.1231C20.4227 19.3043 21.0895 18.1666 21.3229 16.9074C19.6135 16.5353 17.8449 16.527 16.1321 16.8829C14.4193 17.2388 12.8005 17.9511 11.3809 18.9734C11.8817 19.7203 12.5593 20.3318 13.3534 20.7536C14.1476 21.1755 15.0336 21.3945 15.9329 21.3914V21.3904Z" fill="white"/>
<path d="M18.62 15.63C19.577 15.63 20.5 15.731 21.408 15.933C21.4075 14.4766 20.8287 13.08 19.7989 12.0502C18.769 11.0203 17.3724 10.4416 15.916 10.441C15.1334 10.4417 14.36 10.6099 13.6478 10.9345C12.9356 11.2591 12.3013 11.7324 11.7874 12.3227C11.2735 12.9129 10.892 13.6064 10.6685 14.3565C10.4451 15.1065 10.3849 15.8958 10.492 16.671C9.11501 17.73 8.46 18.553 8.426 18.586C8.12905 17.7388 7.97594 16.8478 7.973 15.95C7.973 11.55 11.533 8.00603 15.916 8.00603C17.209 8.00603 18.418 8.30803 19.493 8.86303L22.264 7.06603C20.4285 5.7188 18.2098 4.99478 15.933 5.00003C14.4969 4.99871 13.0746 5.28061 11.7476 5.82957C10.4205 6.37854 9.21476 7.18381 8.19927 8.1993C7.18379 9.21478 6.37852 10.4205 5.82955 11.7476C5.28058 13.0746 4.99869 14.4969 5 15.933C5 18.368 5.79 20.602 7.133 22.415C7.653 21.475 8.275 20.618 8.997 19.845C8.997 19.845 10.072 18.721 10.895 18.15C13.1359 16.5088 15.8423 15.6259 18.62 15.63Z" fill="white"/>
</g>
<defs>
<clipPath id="clip0_301_168">
<rect width="32" height="32" fill="white"/>
</clipPath>
</defs>
</svg>
