<svg width="32" height="32" viewBox="0 0 32 32" fill="none" xmlns="http://www.w3.org/2000/svg">
<g clip-path="url(#clip0_301_161)">
<path d="M16 32C24.8366 32 32 24.8366 32 16C32 7.16344 24.8366 0 16 0C7.16344 0 0 7.16344 0 16C0 24.8366 7.16344 32 16 32Z" fill="#07BC9C"/>
<path fill-rule="evenodd" clip-rule="evenodd" d="M23.8969 6.695C23.3279 6.553 22.0019 6.572 21.5949 7.131C22.0019 7.358 22.2859 7.708 22.7029 7.718C23.1199 7.728 23.6029 7.329 24.1329 7.557C23.9059 7.557 22.8829 7.747 22.8169 8.059C22.9599 8.294 23.1319 8.51 23.3279 8.703C23.5939 8.921 23.6219 8.997 24.0199 8.779C24.5071 8.47144 24.8747 8.00683 25.0619 7.462C25.0619 7.178 25.1469 7.367 24.9389 7.131C24.6332 6.90139 24.2751 6.75154 23.8969 6.695ZM18.5539 7.197C19.3233 6.78657 20.2173 6.67509 21.0639 6.884C20.982 5.97163 20.5554 5.1248 19.8709 4.516C20.6909 5.026 21.2679 5.846 21.4709 6.789C21.9359 6.714 22.4189 6.534 22.8639 6.467C22.7837 5.56012 22.3843 4.7111 21.7369 4.071C21.4239 3.777 20.5429 3 20.0399 3C19.5369 3 18.8839 4.137 18.6949 4.601C18.3708 5.42879 18.321 6.33879 18.5529 7.197H18.5539Z" fill="white"/>
<path fill-rule="evenodd" clip-rule="evenodd" d="M18.4298 8.68415C18.2598 8.27715 19.0078 8.11615 19.2358 8.14415C19.6428 8.26415 20.0158 8.47815 20.3258 8.76915C20.9218 9.21515 22.0958 10.5322 22.9588 10.2192C23.8208 9.90615 22.7978 8.38115 22.3238 7.98315C21.9365 7.61804 21.4693 7.34837 20.9594 7.19559C20.4496 7.04282 19.9111 7.01117 19.3868 7.10315C18.9088 7.24615 18.5168 7.59315 18.3168 8.04915C18.2598 8.25815 18.0518 8.68415 18.4308 8.68415H18.4298Z" fill="white"/>
<path d="M22.3899 14.3677C21.8599 14.0457 21.6699 13.0977 21.3389 12.5777C20.8839 11.8477 20.2209 11.2517 19.8229 10.4937C19.4249 9.73571 19.3779 9.15771 18.6959 8.79771C18.4345 8.65995 18.1434 8.58795 17.8479 8.58795C17.5524 8.58795 17.2614 8.65995 16.9999 8.79771C16.1529 9.18171 15.2619 9.46171 14.3469 9.63171C13.9413 9.72779 13.5427 9.85141 13.1539 10.0017C12.8294 10.184 12.4902 10.3389 12.1399 10.4647C11.2679 10.5877 9.65792 9.51771 9.80992 11.1747C9.80992 11.4787 10.1219 11.6397 10.0269 12.0277C9.93292 12.4167 9.51592 12.7577 9.31692 13.0607C8.90828 13.7463 8.58966 14.4817 8.36892 15.2487C7.83056 16.986 7.93491 18.859 8.66292 20.5257C9.01292 21.3457 9.47992 22.1117 10.0459 22.7997C10.3229 23.1227 10.5659 23.4717 10.7759 23.8417C10.9359 24.2797 11.1359 24.7017 11.3729 25.1017C11.5778 25.3591 11.8499 25.5547 12.1592 25.6668C12.4685 25.7789 12.8027 25.8031 13.1249 25.7367C13.456 25.623 13.7739 25.4738 14.0729 25.2917C14.5837 25.0886 15.1184 24.9515 15.6639 24.8837C17.6544 24.5717 19.47 23.5648 20.7889 22.0417C21.4138 21.2877 21.8985 20.4277 22.2199 19.5027C22.4067 18.9868 22.543 18.454 22.6269 17.9117C22.6749 17.5707 22.5709 16.7077 22.8169 16.4817C22.9769 16.3287 23.3569 16.2917 23.4709 16.1487C23.5573 15.9605 23.6236 15.7638 23.6689 15.5617C23.8489 15.0027 22.7979 14.5577 22.3909 14.3677H22.3899ZM23.1099 15.7227C22.9679 16.0447 22.4099 16.2347 22.1629 16.5757C21.8088 17.2146 21.3364 17.7803 20.7709 18.2427C20.2012 18.5396 19.5458 18.6282 18.9177 18.4933C18.2896 18.3584 17.7284 18.0084 17.3309 17.5037C16.9115 16.9797 16.6842 16.3279 16.6869 15.6567C16.6869 15.1357 17.2559 13.8277 16.6869 13.5437C16.1189 13.2597 15.8539 14.1787 15.6359 14.4917C15.2546 15.1247 14.6749 15.614 13.9869 15.8837C13.4516 16.0649 12.8771 16.0972 12.3249 15.977C11.7727 15.8569 11.2636 15.5889 10.8519 15.2017C10.5767 14.8101 10.3936 14.3612 10.3164 13.8888C10.2391 13.4164 10.2697 12.9326 10.4059 12.4737C10.4186 12.0062 10.3773 11.5388 10.2829 11.0807C10.2829 10.3987 10.8799 10.6447 11.3629 10.7397C12.5603 10.953 13.6978 11.4216 14.6979 12.1137C15.6372 12.894 16.7635 13.4161 17.9659 13.6287C18.7709 13.7047 19.5689 13.8407 20.3539 14.0367C20.7419 14.1507 21.1019 14.3397 21.4809 14.4727C21.8809 14.6027 22.2689 14.7697 22.6369 14.9747C22.8929 15.0877 23.2619 15.3147 23.1199 15.6847L23.1099 15.7227Z" fill="white"/>
</g>
<defs>
<clipPath id="clip0_301_161">
<rect width="32" height="32" fill="white"/>
</clipPath>
</defs>
</svg>
