<svg width="32" height="32" viewBox="0 0 32 32" fill="none" xmlns="http://www.w3.org/2000/svg">
<g clip-path="url(#clip0_301_2255)">
<path d="M16 32C24.8366 32 32 24.8366 32 16C32 7.16344 24.8366 0 16 0C7.16344 0 0 7.16344 0 16C0 24.8366 7.16344 32 16 32Z" fill="#3F43AD"/>
<path d="M11.9401 7.4361C11.7168 7.44918 11.5069 7.54712 11.3534 7.70987C11.1999 7.87262 11.1144 8.08788 11.1144 8.3116C11.1144 8.53532 11.1999 8.75058 11.3534 8.91334C11.5069 9.07609 11.7168 9.17402 11.9401 9.1871C12.1635 9.17402 12.3734 9.07609 12.5269 8.91334C12.6804 8.75058 12.7659 8.53532 12.7659 8.3116C12.7659 8.08788 12.6804 7.87262 12.5269 7.70987C12.3734 7.54712 12.1635 7.44918 11.9401 7.4361ZM15.9901 5.0061C15.7651 5.01686 15.5527 5.11385 15.3973 5.27695C15.2418 5.44006 15.155 5.65676 15.155 5.8821C15.155 6.10745 15.2418 6.32415 15.3973 6.48725C15.5527 6.65036 15.7651 6.74734 15.9901 6.7581C16.2152 6.74734 16.4275 6.65036 16.583 6.48725C16.7385 6.32415 16.8253 6.10745 16.8253 5.8821C16.8253 5.65676 16.7385 5.44006 16.583 5.27695C16.4275 5.11385 16.2152 5.01686 15.9901 5.0061ZM15.9901 14.7251C15.7668 14.7382 15.5569 14.8361 15.4034 14.9989C15.2499 15.1616 15.1644 15.3769 15.1644 15.6006C15.1644 15.8243 15.2499 16.0396 15.4034 16.2023C15.5569 16.3651 15.7668 16.463 15.9901 16.4761C16.2135 16.463 16.4234 16.3651 16.5769 16.2023C16.7304 16.0396 16.8159 15.8243 16.8159 15.6006C16.8159 15.3769 16.7304 15.1616 16.5769 14.9989C16.4234 14.8361 16.2135 14.7382 15.9901 14.7251ZM20.0391 12.2951C19.924 12.2952 19.8101 12.318 19.7038 12.3622C19.5975 12.4064 19.501 12.471 19.4197 12.5525C19.3384 12.634 19.2739 12.7307 19.23 12.8371C19.1861 12.9435 19.1635 13.0575 19.1636 13.1726C19.1638 13.2877 19.1866 13.4017 19.2308 13.5079C19.2749 13.6142 19.3396 13.7108 19.4211 13.7921C19.5026 13.8734 19.5993 13.9378 19.7057 13.9818C19.812 14.0257 19.926 14.0482 20.0411 14.0481C20.2736 14.0478 20.4964 13.9552 20.6606 13.7907C20.8248 13.6261 20.9169 13.4031 20.9166 13.1706C20.9164 12.9381 20.8238 12.7153 20.6592 12.5511C20.4947 12.3869 20.2716 12.2948 20.0391 12.2951ZM24.0881 9.8661C23.9706 9.86227 23.8534 9.88213 23.7436 9.92452C23.6339 9.96691 23.5338 10.0309 23.4493 10.1128C23.3648 10.1947 23.2976 10.2927 23.2518 10.4011C23.206 10.5095 23.1824 10.626 23.1826 10.7436C23.1827 10.8613 23.2065 10.9777 23.2526 11.086C23.2986 11.1943 23.366 11.2922 23.4507 11.3738C23.5354 11.4555 23.6356 11.5193 23.7455 11.5615C23.8553 11.6036 23.9726 11.6232 24.0901 11.6191C24.3175 11.6112 24.5328 11.5152 24.6908 11.3515C24.8487 11.1878 24.9368 10.9691 24.9366 10.7416C24.9363 10.5142 24.8477 10.2957 24.6894 10.1323C24.5311 9.96898 24.3155 9.87352 24.0881 9.8661ZM11.9401 17.1551C11.7168 17.1682 11.5069 17.2661 11.3534 17.4289C11.1999 17.5916 11.1144 17.8069 11.1144 18.0306C11.1144 18.2543 11.1999 18.4696 11.3534 18.6323C11.5069 18.7951 11.7168 18.893 11.9401 18.9061C12.1635 18.893 12.3734 18.7951 12.5269 18.6323C12.6804 18.4696 12.7659 18.2543 12.7659 18.0306C12.7659 17.8069 12.6804 17.5916 12.5269 17.4289C12.3734 17.2661 12.1635 17.1682 11.9401 17.1551ZM7.89015 9.8661C7.77511 9.86623 7.66123 9.88902 7.55499 9.93317C7.44876 9.97731 7.35227 10.0419 7.27102 10.1234C7.18976 10.2048 7.12535 10.3015 7.08145 10.4078C7.03755 10.5141 7.01502 10.6281 7.01515 10.7431C7.01528 10.8581 7.03807 10.972 7.08221 11.0783C7.12636 11.1845 7.19099 11.281 7.27243 11.3622C7.35387 11.4435 7.45051 11.5079 7.55684 11.5518C7.66317 11.5957 7.77711 11.6182 7.89215 11.6181C8.12448 11.6178 8.34719 11.5253 8.51128 11.3608C8.67538 11.1964 8.76741 10.9734 8.76715 10.7411C8.76688 10.5088 8.67434 10.2861 8.50987 10.122C8.3454 9.95788 8.12248 9.86584 7.89015 9.8661ZM7.89015 19.5841C7.77505 19.5842 7.66109 19.607 7.5548 19.6512C7.44851 19.6954 7.35196 19.76 7.27066 19.8415C7.10647 20.0061 7.01438 20.2291 7.01465 20.4616C7.01491 20.6941 7.10751 20.9169 7.27208 21.0811C7.43664 21.2453 7.65969 21.3374 7.89215 21.3371C8.12461 21.3368 8.34745 21.2442 8.51163 21.0797C8.67582 20.9151 8.76791 20.6921 8.76765 20.4596C8.76738 20.2271 8.67478 20.0043 8.51022 19.8401C8.34566 19.6759 8.12261 19.5838 7.89015 19.5841ZM7.89015 14.7251C7.66681 14.7382 7.45692 14.8361 7.30342 14.9989C7.14992 15.1616 7.06442 15.3769 7.06442 15.6006C7.06442 15.8243 7.14992 16.0396 7.30342 16.2023C7.45692 16.3651 7.66681 16.463 7.89015 16.4761C8.11349 16.463 8.32338 16.3651 8.47688 16.2023C8.63038 16.0396 8.71588 15.8243 8.71588 15.6006C8.71588 15.3769 8.63038 15.1616 8.47688 14.9989C8.32338 14.8361 8.11349 14.7382 7.89015 14.7251ZM15.9901 9.8661C15.8726 9.86213 15.7554 9.88186 15.6456 9.92412C15.5357 9.96638 15.4356 10.0303 15.351 10.1121C15.2664 10.1939 15.1991 10.2918 15.1532 10.4002C15.1072 10.5085 15.0835 10.6249 15.0835 10.7426C15.0835 10.8603 15.1072 10.9767 15.1532 11.085C15.1991 11.1934 15.2664 11.2913 15.351 11.3731C15.4356 11.4549 15.5357 11.5188 15.6456 11.5611C15.7554 11.6033 15.8726 11.6231 15.9901 11.6191C16.2175 11.6114 16.4329 11.5157 16.5911 11.3522C16.7492 11.1886 16.8375 10.9701 16.8375 10.7426C16.8375 10.5151 16.7492 10.2966 16.5911 10.133C16.4329 9.96949 16.2175 9.87378 15.9901 9.8661ZM20.0391 7.4361C19.9216 7.43227 19.8044 7.45213 19.6946 7.49452C19.5849 7.53691 19.4848 7.60095 19.4003 7.68282C19.3158 7.7647 19.2486 7.86275 19.2028 7.97112C19.157 8.07949 19.1334 8.19598 19.1336 8.31364C19.1337 8.4313 19.1575 8.54773 19.2036 8.656C19.2496 8.76426 19.317 8.86215 19.4017 8.94384C19.4864 9.02553 19.5866 9.08934 19.6965 9.13147C19.8063 9.17361 19.9236 9.19321 20.0411 9.1891C20.2685 9.18117 20.4838 9.08522 20.6418 8.9215C20.7997 8.75778 20.8878 8.53911 20.8876 8.31164C20.8873 8.08417 20.7987 7.86569 20.6404 7.70234C20.4821 7.53898 20.2665 7.44352 20.0391 7.4361ZM20.0391 17.1551C19.9241 17.1552 19.8102 17.1779 19.704 17.222C19.5977 17.2661 19.5012 17.3306 19.4199 17.412C19.3386 17.4934 19.2741 17.59 19.2301 17.6963C19.1862 17.8026 19.1636 17.9166 19.1636 18.0316C19.1637 18.1466 19.1864 18.2605 19.2305 18.3668C19.2746 18.4731 19.3392 18.5696 19.4206 18.6509C19.502 18.7322 19.5986 18.7966 19.7049 18.8406C19.8112 18.8846 19.9251 18.9072 20.0401 18.9071C20.2725 18.907 20.4952 18.8145 20.6594 18.6502C20.8236 18.4858 20.9158 18.2629 20.9156 18.0306C20.9155 17.7983 20.8231 17.5755 20.6587 17.4113C20.4943 17.2471 20.2715 17.155 20.0391 17.1551ZM24.0881 14.7251C23.8648 14.7382 23.6549 14.8361 23.5014 14.9989C23.3479 15.1616 23.2624 15.3769 23.2624 15.6006C23.2624 15.8243 23.3479 16.0396 23.5014 16.2023C23.6549 16.3651 23.8648 16.463 24.0881 16.4761C24.3115 16.463 24.5214 16.3651 24.6749 16.2023C24.8284 16.0396 24.9139 15.8243 24.9139 15.6006C24.9139 15.3769 24.8284 15.1616 24.6749 14.9989C24.5214 14.8361 24.3115 14.7382 24.0881 14.7251ZM20.0391 22.0141C19.924 22.0142 19.8101 22.0369 19.7038 22.081C19.5974 22.1251 19.5009 22.1897 19.4195 22.2712C19.3382 22.3526 19.2737 22.4493 19.2297 22.5556C19.1857 22.662 19.1631 22.776 19.1631 22.8911C19.1632 23.0062 19.186 23.1202 19.2301 23.2265C19.2742 23.3328 19.3388 23.4294 19.4202 23.5107C19.5017 23.5921 19.5983 23.6566 19.7047 23.7006C19.8111 23.7446 19.925 23.7672 20.0401 23.7671C20.2726 23.767 20.4955 23.6745 20.6598 23.51C20.8241 23.3456 20.9163 23.1226 20.9161 22.8901C20.916 22.6576 20.8235 22.4347 20.6591 22.2705C20.4946 22.1062 20.2716 22.014 20.0391 22.0141ZM24.0881 19.5841C23.8631 19.5949 23.6507 19.6918 23.4953 19.855C23.3398 20.0181 23.253 20.2348 23.253 20.4601C23.253 20.6854 23.3398 20.9021 23.4953 21.0653C23.6507 21.2284 23.8631 21.3253 24.0881 21.3361C24.3132 21.3253 24.5255 21.2284 24.681 21.0653C24.8365 20.9021 24.9233 20.6854 24.9233 20.4601C24.9233 20.2348 24.8365 20.0181 24.681 19.855C24.5255 19.6918 24.3132 19.5949 24.0881 19.5841ZM15.9901 24.4441C15.7668 24.4572 15.5569 24.5551 15.4034 24.7179C15.2499 24.8806 15.1644 25.0959 15.1644 25.3196C15.1644 25.5433 15.2499 25.7586 15.4034 25.9213C15.5569 26.0841 15.7668 26.182 15.9901 26.1951C16.2222 26.1948 16.4447 26.1026 16.6089 25.9386C16.7731 25.7746 16.8656 25.5522 16.8661 25.3201C16.8659 25.0879 16.7735 24.8652 16.6093 24.701C16.4451 24.5367 16.2224 24.4444 15.9901 24.4441ZM15.9901 19.5841C15.875 19.5842 15.761 19.6069 15.6546 19.6511C15.5482 19.6952 15.4516 19.7598 15.3702 19.8413C15.2888 19.9228 15.2242 20.0195 15.1802 20.1259C15.1362 20.2324 15.1136 20.3464 15.1136 20.4616C15.1137 20.5768 15.1365 20.6908 15.1806 20.7972C15.2247 20.9036 15.2894 21.0002 15.3709 21.0816C15.4524 21.163 15.5491 21.2275 15.6555 21.2715C15.7619 21.3155 15.876 21.3382 15.9911 21.3381C16.2237 21.338 16.4468 21.2454 16.6111 21.0809C16.7755 20.9163 16.8678 20.6932 16.8676 20.4606C16.8675 20.228 16.775 20.005 16.6104 19.8406C16.4459 19.6762 16.2227 19.584 15.9901 19.5841ZM11.9401 12.2951C11.7168 12.3082 11.5069 12.4061 11.3534 12.5689C11.1999 12.7316 11.1144 12.9469 11.1144 13.1706C11.1144 13.3943 11.1999 13.6096 11.3534 13.7723C11.5069 13.9351 11.7168 14.033 11.9401 14.0461C12.162 14.0311 12.3698 13.9324 12.5217 13.7699C12.6735 13.6075 12.758 13.3934 12.758 13.1711C12.758 12.9488 12.6735 12.7347 12.5217 12.5723C12.3698 12.4098 12.162 12.3111 11.9401 12.2961V12.2951ZM11.9401 22.0141C11.7168 22.0272 11.5069 22.1251 11.3534 22.2879C11.1999 22.4506 11.1144 22.6659 11.1144 22.8896C11.1144 23.1133 11.1999 23.3286 11.3534 23.4913C11.5069 23.6541 11.7168 23.752 11.9401 23.7651C12.1635 23.752 12.3734 23.6541 12.5269 23.4913C12.6804 23.3286 12.7659 23.1133 12.7659 22.8896C12.7659 22.6659 12.6804 22.4506 12.5269 22.2879C12.3734 22.1251 12.1635 22.0272 11.9401 22.0141Z" fill="white"/>
</g>
<defs>
<clipPath id="clip0_301_2255">
<rect width="32" height="32" fill="white"/>
</clipPath>
</defs>
</svg>
