<svg width="32" height="32" viewBox="0 0 32 32" fill="none" xmlns="http://www.w3.org/2000/svg">
<g clip-path="url(#clip0_301_2251)">
<path d="M15.999 31.998C24.835 31.998 31.998 24.835 31.998 15.999C31.998 7.163 24.835 0 15.999 0C7.163 0 0 7.163 0 15.999C0 24.835 7.163 31.998 15.999 31.998Z" fill="#F04086"/>
<path d="M23.4372 16.7539C22.8072 16.0579 21.9012 15.6259 20.7172 15.4579V15.4329C21.7542 15.2649 22.5692 14.8399 23.1232 14.1599C23.6854 13.4855 23.9908 12.6339 23.9852 11.7559C23.9852 10.2949 23.5152 9.30189 22.5412 8.52089C21.5672 7.74089 20.1052 7.48389 18.1242 7.48389H10.6432V14.4469H6.34717V17.1139H18.0742C18.9972 17.1139 19.6902 17.1789 20.1482 17.5479C20.6062 17.9169 20.8402 18.3939 20.8402 19.0989C20.8402 19.8039 20.6092 20.4059 20.1482 20.7839C19.6882 21.1609 18.9942 21.4099 18.0742 21.4099H14.0502V19.3359H10.6432V24.0769H18.3702C20.3352 24.0769 21.8372 23.5639 22.8792 22.7669C23.9202 21.9699 24.4092 20.7929 24.4092 19.3479C24.4221 18.3919 24.0752 17.466 23.4372 16.7539ZM17.6442 14.4399H14.0502V10.1439H17.6442C19.4922 10.1439 20.4142 10.8649 20.4142 12.2919C20.4142 13.7189 19.4922 14.4399 17.6442 14.4399Z" fill="white"/>
</g>
<defs>
<clipPath id="clip0_301_2251">
<rect width="32" height="32" fill="white"/>
</clipPath>
</defs>
</svg>
