<svg width="32" height="32" viewBox="0 0 32 32" fill="none" xmlns="http://www.w3.org/2000/svg">
<g clip-path="url(#clip0_301_2239)">
<path d="M16 32C24.8366 32 32 24.8366 32 16C32 7.16344 24.8366 0 16 0C7.16344 0 0 7.16344 0 16C0 24.8366 7.16344 32 16 32Z" fill="#E54C40"/>
<path d="M9.32814 8.61708C9.30814 8.47008 9.44614 8.38208 9.52514 8.28208C10.5192 7.2985 11.5086 6.31016 12.4931 5.31708C12.4791 8.03308 12.5011 10.7491 12.4821 13.4651C14.5311 12.3351 17.1121 12.2851 19.2181 13.2971C19.2161 13.4721 19.2161 13.6461 19.2161 13.8221C17.5351 12.9181 15.4681 12.8021 13.6751 13.4321C11.6121 14.1421 9.96814 15.8891 9.32514 17.9681C9.32814 14.8501 9.32414 11.7341 9.32814 8.61708ZM22.7181 20.2791C22.6556 21.9322 21.9792 23.5027 20.8211 24.6841C19.7322 25.8033 18.2864 26.5068 16.7338 26.673C15.1811 26.8391 13.6192 26.4575 12.3181 25.5941C10.8381 24.6201 9.76814 23.0401 9.44014 21.2981C9.15514 19.9181 9.34814 18.4531 9.94114 17.1781C10.615 15.7441 11.7718 14.5929 13.2091 13.9261C15.0931 13.0381 17.3891 13.1131 19.2131 14.1181C19.2021 15.6121 19.2031 17.1061 19.2141 18.6001C18.9161 17.9831 18.4741 17.4311 17.8891 17.0651C16.7321 16.3181 15.1241 16.3531 14.0071 17.1631C12.7771 18.0091 12.2221 19.6871 12.7111 21.0981C13.1481 22.4891 14.5311 23.5101 15.9931 23.4941C17.3991 23.5291 18.7561 22.6101 19.2591 21.2991C19.5791 20.5561 19.4991 19.7351 19.5061 18.9491C19.5121 14.8941 19.4961 10.8391 19.4981 6.78508C19.4991 6.27508 19.5081 5.76508 19.4781 5.25708C20.5681 6.33108 21.6481 7.41808 22.7281 8.50308C22.7061 12.4281 22.7281 16.3531 22.7181 20.2801V20.2791Z" fill="white"/>
</g>
<defs>
<clipPath id="clip0_301_2239">
<rect width="32" height="32" fill="white"/>
</clipPath>
</defs>
</svg>
