<svg width="32" height="32" viewBox="0 0 32 32" fill="none" xmlns="http://www.w3.org/2000/svg">
<g clip-path="url(#clip0_301_2231)">
<path d="M16 32C24.8366 32 32 24.8366 32 16C32 7.16344 24.8366 0 16 0C7.16344 0 0 7.16344 0 16C0 24.8366 7.16344 32 16 32Z" fill="#13A0F6"/>
<path fill-rule="evenodd" clip-rule="evenodd" d="M8.29718 11.568C7.90576 11.3627 7.57797 11.0541 7.34935 10.6759C7.12073 10.2976 6.99998 9.86396 7.00018 9.42196C6.82926 9.09788 6.73429 8.73917 6.72245 8.37297C6.71061 8.00678 6.78222 7.64269 6.93185 7.30824C7.08147 6.9738 7.30521 6.67777 7.58612 6.44255C7.86703 6.20733 8.19776 6.03908 8.55329 5.95053C8.90881 5.86198 9.27982 5.85545 9.63824 5.93143C9.99667 6.00742 10.3331 6.16393 10.6221 6.38912C10.9111 6.61431 11.1452 6.90228 11.3065 7.23125C11.4678 7.56022 11.5521 7.92157 11.5532 8.28796C12.9186 7.48946 14.4724 7.06969 16.0542 7.07196C20.9942 7.07196 25.0002 11.086 25.0002 16.036C25.0002 20.986 20.9952 25 16.0542 25C11.1132 25 7.10818 20.987 7.10818 16.036C7.10588 14.4681 7.51592 12.9273 8.29718 11.568ZM16.0542 20.446C18.4842 20.446 20.4542 18.472 20.4542 16.036C20.4542 13.6 18.4842 11.626 16.0542 11.626C13.6242 11.626 11.6542 13.601 11.6542 16.036C11.6542 18.471 13.6242 20.446 16.0542 20.446Z" fill="white"/>
</g>
<defs>
<clipPath id="clip0_301_2231">
<rect width="32" height="32" fill="white"/>
</clipPath>
</defs>
</svg>
