<svg width="32" height="32" viewBox="0 0 32 32" fill="none" xmlns="http://www.w3.org/2000/svg">
<g clip-path="url(#clip0_301_2169)">
<path d="M16 32C24.8366 32 32 24.8366 32 16C32 7.16344 24.8366 0 16 0C7.16344 0 0 7.16344 0 16C0 24.8366 7.16344 32 16 32Z" fill="#EAB304"/>
<path d="M22.15 14.5699L22.22 14.4299C22.22 14.3599 22.22 14.2899 22.36 14.3399C22.3708 14.277 22.3708 14.2128 22.36 14.1499C22.3937 14.0596 22.3937 13.9602 22.36 13.8699C22.2182 13.524 22.1936 13.1411 22.29 12.7799C22.3011 12.7339 22.3011 12.6859 22.29 12.6399L22.36 12.5699C22.3884 12.5956 22.4121 12.6261 22.43 12.6599C22.4411 12.7059 22.4411 12.7539 22.43 12.7999V12.8699C22.43 12.9399 22.55 12.7999 22.6 12.7499C22.6618 12.7022 22.7289 12.6619 22.8 12.6299C22.8133 12.447 22.7895 12.2633 22.73 12.0899C22.6186 11.7135 22.6434 11.3098 22.8 10.9499C22.8 11.0199 22.89 11.0699 22.89 11.1399C22.907 11.3999 23.017 11.6449 23.2 11.8299C23.403 12.0629 23.556 12.3349 23.65 12.6299C23.65 12.6299 23.65 12.7199 23.72 12.7199C24.008 12.8029 24.27 12.9569 24.48 13.1699C24.722 13.3879 24.952 13.6179 25.17 13.8599C25.2078 13.9011 25.2382 13.9484 25.26 13.9999H25.33C25.3417 13.78 25.3417 13.5597 25.33 13.3399C25.33 13.1499 25.42 12.9599 25.61 12.9899H25.7C25.7043 12.9055 25.7358 12.8247 25.7899 12.7598C25.844 12.6949 25.9178 12.6493 26 12.6299C26.0351 12.6907 26.0536 12.7597 26.0536 12.8299C26.0536 12.9001 26.0351 12.9691 26 13.0299C26.14 13.1999 26.17 13.2899 26 13.4799C25.83 13.6699 25.91 13.6899 26 13.8799C26.0195 13.7697 26.0602 13.6644 26.12 13.5699C26.17 13.4699 26.19 13.3099 26.31 13.2599C26.3488 13.2462 26.3912 13.2462 26.43 13.2599C26.5456 13.2828 26.6645 13.2828 26.78 13.2599C26.853 13.2539 26.926 13.2709 26.9888 13.3086C27.0516 13.3463 27.101 13.4027 27.13 13.4699L26.8 13.6299C26.87 13.7699 26.8 13.8199 26.66 13.9099C26.5903 13.9739 26.5267 14.0442 26.47 14.1199C26.5983 14.0971 26.7252 14.0671 26.85 14.0299C26.9349 14.0083 27.0248 14.0176 27.1035 14.056C27.1823 14.0945 27.2448 14.1596 27.28 14.2399C27.3068 14.2964 27.3482 14.3448 27.4 14.3799C27.4969 14.464 27.5578 14.5821 27.57 14.7099C27.5776 14.7394 27.5776 14.7704 27.57 14.7999L27.38 14.6599C27.3558 14.6367 27.3236 14.6237 27.29 14.6237C27.2565 14.6237 27.2242 14.6367 27.2 14.6599C27.1665 14.6923 27.1216 14.7104 27.075 14.7104C27.0284 14.7104 26.9836 14.6923 26.95 14.6599C26.882 14.6194 26.8042 14.598 26.725 14.598C26.6458 14.598 26.5681 14.6194 26.5 14.6599C26.3939 14.7297 26.2837 14.7931 26.17 14.8499C26.3013 14.8675 26.4266 14.9156 26.536 14.9903C26.6453 15.0649 26.7358 15.1641 26.8 15.2799C26.87 15.4199 26.97 15.5599 27.04 15.7099C27.0674 15.7696 27.0702 15.8377 27.0477 15.8995C27.0252 15.9613 26.9794 16.0117 26.92 16.0399H26.87V15.9899C26.87 15.8699 26.8 15.8499 26.68 15.8699C26.6472 15.8807 26.6125 15.8849 26.5781 15.8822C26.5436 15.8795 26.5101 15.87 26.4793 15.8542C26.4486 15.8383 26.4213 15.8165 26.3991 15.79C26.3769 15.7636 26.3602 15.7329 26.35 15.6999C26.234 15.4669 26.0391 15.2827 25.8 15.1799L25.59 15.0899C25.5743 15.1809 25.5439 15.2687 25.5 15.3499C25.4671 15.4022 25.4267 15.4494 25.38 15.4899C25.24 15.6099 25.24 15.6299 25.38 15.7999C25.52 15.9699 25.45 15.8899 25.5 15.9699C25.4248 15.9742 25.3495 15.9611 25.2801 15.9317C25.2108 15.9022 25.1491 15.8571 25.1 15.7999C24.9758 15.6601 24.8746 15.5014 24.8 15.3299C24.7711 15.2499 24.7691 15.1626 24.7944 15.0813C24.8196 15.0001 24.8708 14.9294 24.94 14.8799C25.0102 14.8104 25.0677 14.7292 25.11 14.6399L24.4 14.4499C24.4114 14.5596 24.4114 14.6702 24.4 14.7799C24.424 15.1829 24.424 15.5869 24.4 15.9899C24.3759 16.5888 24.2819 17.1828 24.12 17.7599C24.0029 18.2043 23.8352 18.6338 23.62 19.0399C23.4396 19.4059 23.2358 19.76 23.01 20.0999C22.8171 20.3823 22.6032 20.6497 22.37 20.8999C22.134 21.1767 21.8729 21.4311 21.59 21.6599C21.28 21.9199 20.95 22.1299 20.59 22.3499C20.1053 22.6575 19.5803 22.8965 19.03 23.0599C18.6588 23.1688 18.2815 23.2556 17.9 23.3199C17.6885 23.3615 17.4748 23.3915 17.26 23.4099C17.1943 23.4307 17.1346 23.467 17.0859 23.5157C17.0371 23.5645 17.0008 23.6242 16.98 23.6899C16.9507 23.8483 16.8894 23.9992 16.8001 24.1332C16.7107 24.2673 16.595 24.3819 16.46 24.4699C16.34 24.5599 16.2 24.6399 16.06 24.7299L16.13 24.5199C16.1421 24.4742 16.142 24.4262 16.1297 24.3805C16.1175 24.3349 16.0934 24.2933 16.06 24.2599C15.99 24.1899 15.89 24.2599 15.8 24.2599C15.71 24.2599 15.63 24.3799 15.61 24.5199C15.5908 24.6482 15.5394 24.7695 15.4608 24.8727C15.3821 24.9758 15.2786 25.0574 15.16 25.1099H15.04C15.0714 25.0256 15.0948 24.9385 15.11 24.8499C15.11 24.7799 15.04 24.7099 14.99 24.6399C14.94 24.5699 14.9 24.6399 14.85 24.6399L14.42 24.8499L14.28 24.9199L14.66 25.0899C14.8657 25.1884 15.0315 25.3542 15.13 25.5599C15.1706 25.6149 15.1925 25.6815 15.1925 25.7499C15.1925 25.8183 15.1706 25.8849 15.13 25.9399C15.1184 25.9577 15.1122 25.9786 15.1122 25.9999C15.1122 26.0212 15.1184 26.042 15.13 26.0599C15.1626 26.1783 15.1715 26.302 15.156 26.4239C15.1406 26.5457 15.1012 26.6633 15.04 26.7699C15.04 26.8399 14.92 26.9099 14.87 26.9799L14.8 26.4999C14.8 26.476 14.7905 26.4531 14.7737 26.4362C14.7568 26.4194 14.7339 26.4099 14.71 26.4099C14.5688 26.4161 14.4288 26.3817 14.3065 26.3108C14.1842 26.2399 14.0848 26.1355 14.02 26.0099L13.95 25.9199C13.8262 26.0971 13.6408 26.2219 13.43 26.2699C13.2871 26.3346 13.1602 26.43 13.0582 26.5492C12.9562 26.6684 12.8818 26.8086 12.84 26.9599C12.8057 27.1333 12.7485 27.3015 12.67 27.4599C12.6274 27.5688 12.5441 27.6568 12.4377 27.7054C12.3313 27.7539 12.2102 27.7591 12.1 27.7199V28.0999C12.0459 28.086 11.995 28.0614 11.9505 28.0276C11.906 27.9938 11.8686 27.9514 11.8407 27.903C11.8127 27.8545 11.7947 27.801 11.7878 27.7455C11.7808 27.69 11.7849 27.6337 11.8 27.5799C11.8122 27.5239 11.8122 27.4659 11.8 27.4099C11.7304 27.2741 11.7134 27.1174 11.7521 26.9697C11.7909 26.8221 11.8827 26.694 12.01 26.6099C12.2058 26.4672 12.3751 26.2911 12.51 26.0899C12.517 26.0671 12.517 26.0427 12.51 26.0199L11.8 25.9299C11.7131 25.906 11.6222 25.8998 11.5329 25.9119C11.4435 25.9239 11.3575 25.9538 11.28 25.9999L11.14 26.1799C10.93 26.4199 10.83 26.4399 10.55 26.2999C10.4397 26.4939 10.3975 26.7191 10.43 26.9399C10.3241 26.8367 10.251 26.7045 10.22 26.5599C10.2078 26.4804 10.2078 26.3994 10.22 26.3199V26.1799C10.1971 26.1118 10.1971 26.038 10.22 25.9699C10.3038 25.7773 10.4574 25.6237 10.65 25.5399C10.8624 25.4007 11.1068 25.3181 11.36 25.2999C11.55 25.2879 11.74 25.2879 11.93 25.2999H12.07C12.0276 25.1961 11.9638 25.1025 11.8828 25.0249C11.8019 24.9474 11.7055 24.8878 11.6 24.8499L11.06 24.6399C11.0004 24.6485 10.9398 24.6335 10.8912 24.598C10.8426 24.5625 10.8099 24.5093 10.8 24.4499C10.8 24.426 10.7905 24.4031 10.7737 24.3862C10.7568 24.3694 10.7339 24.3599 10.71 24.3599C10.543 24.3594 10.3795 24.4081 10.24 24.4999C10.31 24.2899 10.41 24.0699 10.64 24.0299C10.743 24.0179 10.847 24.0179 10.95 24.0299H11.04C11.18 23.8199 11.39 23.8599 11.58 23.9599C11.857 24.0919 12.087 24.3039 12.24 24.5699C12.2749 24.6389 12.3242 24.6996 12.3846 24.7479C12.445 24.7962 12.515 24.831 12.59 24.8499C12.6033 24.667 12.5795 24.4833 12.52 24.3099C12.5165 24.2294 12.4874 24.1521 12.4371 24.0892C12.3868 24.0263 12.3178 23.981 12.24 23.9599C12 23.8899 11.93 23.7199 12.05 23.4599C11.971 23.3897 11.8748 23.3416 11.7712 23.3205C11.6675 23.2994 11.5602 23.3061 11.46 23.3399C11.53 23.1499 11.81 23.0799 12 23.0999C12.1717 23.2025 12.3703 23.2513 12.57 23.2399C12.637 23.2525 12.7001 23.2808 12.754 23.3225C12.8079 23.3642 12.8511 23.4182 12.88 23.4799L13.02 23.7599C13.14 23.9699 13.23 24.2099 13.33 24.4199C13.47 24.0199 13.64 23.5899 13.8 23.1399L13.56 23.0499L12.87 22.7699C12.3436 22.5422 11.8439 22.2571 11.38 21.9199C11.2988 21.876 11.211 21.8456 11.12 21.8299C11.05 21.8299 10.95 21.9199 11 21.9999C11.05 22.0799 11.12 22.0899 11.17 22.1699C11.22 22.2499 11.17 22.2399 11.26 22.2899H11.14C10.9775 22.2936 10.8178 22.2477 10.682 22.1584C10.5463 22.0691 10.4409 21.9406 10.38 21.7899C10.2327 21.493 10.1444 21.1704 10.12 20.8399C10.1247 20.8288 10.1271 20.8169 10.1271 20.8049C10.1271 20.7929 10.1247 20.781 10.12 20.7699L9.48001 20.0599C9.43208 20.182 9.43208 20.3178 9.48001 20.4399L9.55001 20.5799V20.7499H9.36001C9.252 20.6317 9.16416 20.4966 9.10002 20.3499C9.01002 19.9999 8.96002 19.6399 8.89002 19.2899C8.87281 19.1146 8.84273 18.9408 8.80001 18.7699C8.7482 18.5697 8.68476 18.3727 8.61001 18.1799V18.7299C8.61001 18.7799 8.49002 18.7299 8.47002 18.6399C8.36149 18.4535 8.29653 18.2449 8.28001 18.0299C8.2683 17.5251 8.33924 17.0218 8.49001 16.5399C8.53586 16.3632 8.59264 16.1895 8.66001 16.0199C8.63706 16.0769 8.60681 16.1307 8.57001 16.1799L8.48001 16.2699V16.1499C8.47711 15.925 8.53591 15.7037 8.65001 15.5099C8.82001 15.1299 9.03001 14.7499 9.22002 14.3799C9.29851 14.2478 9.38535 14.1209 9.48001 13.9999L9.31002 14.1799L9.19001 14.2499V14.1799C9.25437 14.0728 9.32447 13.9694 9.40001 13.8699C9.62497 13.5974 9.88761 13.3583 10.18 13.1599C10.248 13.1363 10.322 13.1363 10.39 13.1599L11.39 13.3699L11.74 13.4599C11.6448 13.5579 11.5639 13.6691 11.5 13.7899C11.4693 13.8503 11.4533 13.9171 11.4533 13.9849C11.4533 14.0527 11.4693 14.1195 11.5 14.1799C11.5172 14.2049 11.5264 14.2345 11.5264 14.2649C11.5264 14.2952 11.5172 14.3249 11.5 14.3499C11.2724 14.546 11.0797 14.7793 10.93 15.0399V15.1299C10.93 15.1299 11.26 15.4599 11.43 15.6499C11.44 15.6799 11.44 15.7099 11.43 15.7399C11.3544 15.8688 11.3146 16.0155 11.3146 16.1649C11.3146 16.3143 11.3544 16.461 11.43 16.5899C11.4415 16.6345 11.4619 16.6763 11.49 16.7127C11.5181 16.7492 11.5534 16.7796 11.5936 16.802C11.6338 16.8245 11.6781 16.8385 11.7239 16.8433C11.7697 16.8481 11.816 16.8435 11.86 16.8299C11.8516 17.0242 11.9118 17.2154 12.03 17.3699C12.1 17.4399 12.2 17.4899 12.27 17.5599C12.3121 17.5892 12.3436 17.6313 12.36 17.6799C12.4157 17.8581 12.5201 18.0172 12.6615 18.1392C12.8028 18.2611 12.9755 18.341 13.16 18.3699C13.448 18.4099 13.74 18.3499 13.99 18.1999C14.08 18.1999 14.11 18.1299 14.13 18.1999C14.186 18.5489 14.298 18.8859 14.46 19.1999C14.667 19.5659 14.923 19.9019 15.22 20.1999C15.487 20.4549 15.814 20.6399 16.17 20.7399C16.61 20.8389 17.07 20.7149 17.4 20.4099C17.6073 20.2001 17.7825 19.9608 17.92 19.6999L18.35 19.0099C18.5393 18.7492 18.7811 18.5311 19.06 18.3699C19.1063 18.3343 19.1599 18.3095 19.2171 18.2974C19.2742 18.2852 19.3333 18.2861 19.39 18.2999L19.32 18.4399C19.2669 18.5254 19.2387 18.6242 19.2387 18.7249C19.2387 18.8256 19.2669 18.9243 19.32 19.0099C19.39 19.0999 19.44 19.0999 19.49 19.0099C19.54 18.9199 19.63 18.7499 19.82 18.7699C20.01 18.7899 20.01 18.6499 20.03 18.5299C20.0498 18.0091 20.2049 17.5025 20.48 17.0599C20.5314 17.0071 20.5884 16.9601 20.65 16.9199V17.2999C20.669 17.4059 20.7 17.5099 20.74 17.6099L20.8 17.4799C20.8171 17.4439 20.844 17.4136 20.8776 17.3923C20.9112 17.3711 20.9502 17.3598 20.99 17.3599C21.0371 17.3516 21.0797 17.3268 21.11 17.2899C21.176 17.2124 21.2215 17.1197 21.2424 17.0201C21.2634 16.9206 21.2591 16.8174 21.23 16.7199C21.2063 16.5708 21.2063 16.4189 21.23 16.2699C21.2295 16.0808 21.2777 15.8949 21.37 15.7299C21.3918 15.6784 21.4222 15.6311 21.46 15.5899H21.53V15.9199C21.5224 15.9494 21.5224 15.9804 21.53 16.0099H21.62L21.8 15.8899C21.8681 15.7681 21.8994 15.6291 21.89 15.4899C21.8762 15.4105 21.8762 15.3293 21.89 15.2499V14.4299C21.89 14.3199 21.89 14.3099 21.96 14.2399L22.07 14.1799V14.6199C22.0774 14.605 22.0888 14.5924 22.1029 14.5836C22.1171 14.5747 22.1334 14.57 22.15 14.5699ZM9.86001 10.0099L10.45 9.41989C10.4841 9.38276 10.5248 9.35225 10.57 9.32989C10.64 9.25989 10.57 9.18988 10.57 9.11988C10.57 9.04989 10.48 9.11988 10.4 9.11988H10.31V8.99989C10.3349 8.91796 10.3773 8.84243 10.4343 8.77854C10.4913 8.71465 10.5615 8.66392 10.64 8.62989C10.8985 8.53673 11.1815 8.53673 11.44 8.62989C11.4618 8.6405 11.4858 8.64601 11.51 8.64601C11.5343 8.64601 11.5582 8.6405 11.58 8.62989L12.15 8.31988C12.24 8.31988 12.22 8.22989 12.15 8.17989C12.08 8.12989 11.98 8.05989 11.89 8.17989C11.8605 8.18751 11.8295 8.18751 11.8 8.17989C11.8 8.00989 11.97 7.86989 12.13 7.79989C12.4 7.71689 12.69 7.71689 12.96 7.79989H13C13.07 7.79989 13.28 7.88989 13.45 7.79989L13.8 7.67989C13.89 7.67989 13.89 7.60989 13.8 7.55989C13.71 7.50989 13.68 7.41989 13.59 7.48989C13.5 7.55989 13.59 7.48989 13.5 7.48989C13.481 7.46952 13.4705 7.44272 13.4705 7.41489C13.4705 7.38705 13.481 7.36025 13.5 7.33989C13.6744 7.20837 13.8935 7.15089 14.11 7.17989C14.3068 7.19506 14.4947 7.26813 14.65 7.38989H14.72C14.7537 7.42938 14.7978 7.45871 14.8472 7.47461C14.8967 7.4905 14.9496 7.49233 15 7.47989C15.0574 7.44552 15.1231 7.42738 15.19 7.42738C15.2569 7.42738 15.3226 7.44552 15.38 7.47989H15.45V7.38989C15.4341 7.32828 15.3978 7.27392 15.3469 7.23575C15.296 7.19757 15.2336 7.17787 15.17 7.17989H15.1C15.2188 7.08718 15.3598 7.02731 15.509 7.00625C15.6581 6.98519 15.8102 7.00368 15.95 7.05989C16.156 7.14389 16.336 7.28189 16.47 7.45989C16.5225 7.49226 16.5799 7.5159 16.64 7.52989C16.7767 7.52562 16.9129 7.54944 17.04 7.59989C17.16 7.66989 17.11 7.59989 17.13 7.68989C17.1452 7.65773 17.1539 7.62288 17.1556 7.58736C17.1573 7.55183 17.1519 7.51632 17.1398 7.48287C17.1277 7.44942 17.1092 7.41868 17.0852 7.39243C17.0612 7.36618 17.0322 7.34492 17 7.32989H16.8V7.17989C16.909 7.15858 17.021 7.15858 17.13 7.17989C17.446 7.21689 17.73 7.38789 17.91 7.64989C17.98 7.76989 18.038 7.89688 18.08 8.02988C18.1651 8.01943 18.2514 8.03147 18.3304 8.06481C18.4093 8.09815 18.4782 8.15162 18.53 8.21989H18.6C18.6415 8.21148 18.6818 8.19805 18.72 8.17989C18.7178 8.10191 18.6917 8.0265 18.6452 7.96389C18.5987 7.90127 18.534 7.85449 18.46 7.82989H18.39C18.48 7.82989 18.56 7.75989 18.65 7.82989C18.8 7.84389 18.945 7.88489 19.08 7.94989C19.436 8.09488 19.702 8.39889 19.8 8.76989C19.97 8.85989 20.08 8.95988 20.2 9.02988H20.34V8.81988C20.3252 8.74848 20.2941 8.68149 20.2489 8.62422C20.2038 8.56694 20.146 8.52095 20.08 8.48988L19.99 8.41989C20.0994 8.39534 20.2134 8.39998 20.3204 8.43332C20.4275 8.46667 20.5239 8.52755 20.6 8.60988C20.785 8.76588 20.923 8.96988 21 9.19988C21.0081 9.23734 21.025 9.27232 21.0494 9.30189C21.0737 9.33147 21.1048 9.35478 21.14 9.36988C21.216 9.42688 21.286 9.48989 21.35 9.55989C21.44 9.29989 21.23 9.15989 21.16 8.96989C21.2363 8.97149 21.3114 8.98925 21.3804 9.022C21.4493 9.05475 21.5106 9.10174 21.56 9.15988C21.7 9.30588 21.826 9.46289 21.94 9.62989C22.012 9.75189 22.092 9.86888 22.18 9.97988C22.252 10.1139 22.299 10.2599 22.32 10.4099C22.3341 10.7489 22.2867 11.0877 22.18 11.4099C22.1679 11.6297 22.1679 11.8501 22.18 12.0699C22.19 12.0999 22.19 12.1299 22.18 12.1599C22.0917 12.2327 22.0188 12.3223 21.9655 12.4236C21.9123 12.5249 21.8798 12.6359 21.87 12.7499C21.8225 13.048 21.8225 13.3518 21.87 13.6499V13.7199C21.7325 13.8105 21.6194 13.9336 21.5409 14.0784C21.4624 14.2232 21.4209 14.3852 21.42 14.5499V15.0699C21.276 15.0991 21.1424 15.1665 21.0333 15.265C20.9243 15.3635 20.8437 15.4895 20.8 15.6299C20.73 15.7699 20.71 15.9399 20.63 16.0799C20.55 16.2199 20.54 16.1699 20.49 16.2199V16.0299C20.5497 15.717 20.5732 15.3982 20.56 15.0799C20.5698 14.6101 20.4812 14.1434 20.3 13.7099V13.5399C20.4567 13.3801 20.5553 13.1723 20.58 12.9499C20.6051 12.617 20.6051 12.2827 20.58 11.9499C20.5842 11.7138 20.4984 11.485 20.34 11.3099C20.2587 11.2265 20.1542 11.1694 20.04 11.1462C19.9259 11.1231 19.8074 11.1348 19.7 11.1799C19.5605 11.2389 19.4415 11.3377 19.3579 11.464C19.2743 11.5903 19.2298 11.7384 19.23 11.8899V12.2399C18.8765 11.8854 18.4499 11.6124 17.98 11.4399C17.7103 11.3449 17.4325 11.2746 17.15 11.2299H16.54C16.1457 11.2313 15.7542 11.2955 15.38 11.4199C15.17 11.4899 14.98 11.5899 14.77 11.6599C14.7484 11.6713 14.7244 11.6772 14.7 11.6772C14.6756 11.6772 14.6516 11.6713 14.63 11.6599C14.1814 11.3892 13.6965 11.1838 13.19 11.0499C12.9514 10.9853 12.7068 10.9451 12.46 10.9299C11.96 10.8299 11.46 10.7599 11.04 10.6299C10.664 10.5401 10.3057 10.388 9.98001 10.1799C9.95762 10.1126 9.91588 10.0535 9.86001 10.0099ZM19.31 14.7099C19.31 14.8799 19 14.9199 18.67 14.8299V15.1799C18.675 15.2197 18.675 15.26 18.67 15.2999H18.53C18.4309 15.2196 18.3374 15.1328 18.25 15.0399C18.1913 15.0652 18.1392 15.1036 18.0976 15.1521C18.056 15.2007 18.0261 15.258 18.01 15.3199C17.94 15.5099 17.84 15.5299 17.7 15.3199C17.6484 15.2674 17.5914 15.2205 17.53 15.1799C17.4659 15.2711 17.3957 15.358 17.32 15.4399C17.3026 15.4604 17.2812 15.4771 17.2571 15.4891C17.2331 15.5012 17.2069 15.5082 17.18 15.5099C17.1442 15.4746 17.1138 15.4342 17.09 15.3899C17.0798 15.3203 17.0798 15.2495 17.09 15.1799C16.97 15.4899 16.83 15.7499 16.48 15.8199C16.4672 15.6892 16.4915 15.5575 16.55 15.4399C16.62 15.3199 16.55 15.4399 16.55 15.3699C16.3939 15.5198 16.3009 15.7237 16.29 15.9399C16.306 16.3729 16.418 16.7969 16.62 17.1799C16.76 17.5299 16.93 17.8699 17.07 18.1799C17.198 18.4969 17.256 18.8379 17.24 19.1799C17.2561 19.3537 17.2213 19.5285 17.1397 19.6829C17.0582 19.8374 16.9335 19.9647 16.7809 20.0495C16.6283 20.1343 16.4543 20.1729 16.2801 20.1605C16.1059 20.1481 15.9391 20.0854 15.8 19.9799C15.5714 19.8382 15.3714 19.655 15.21 19.4399C15.07 19.2499 14.93 19.0599 14.81 18.8699C14.7429 18.7309 14.6861 18.5872 14.64 18.4399V18.2999C14.6959 18.2965 14.7514 18.3112 14.7982 18.3418C14.845 18.3724 14.8807 18.4173 14.9 18.4699C14.95 18.5499 15.16 18.8699 15.3 19.0599C15.415 19.2899 15.588 19.4859 15.8 19.6299C15.8703 19.6595 15.9457 19.6749 16.0219 19.6754C16.0981 19.6758 16.1737 19.6612 16.2443 19.6324C16.3149 19.6036 16.3791 19.5612 16.4333 19.5076C16.4874 19.454 16.5305 19.3902 16.56 19.3199V19.2499C16.6021 19.1254 16.6177 18.9934 16.6056 18.8625C16.5936 18.7316 16.5542 18.6046 16.49 18.4899C16.32 18.1099 16.11 17.7299 15.92 17.3599C15.7001 16.9611 15.5481 16.5285 15.47 16.0799C15.4582 15.9702 15.4582 15.8596 15.47 15.7499C15.32 15.7619 15.17 15.7619 15.02 15.7499L14.57 15.6299L14.36 15.7699C14.3694 15.7237 14.3694 15.6761 14.36 15.6299C14.3621 15.5383 14.3389 15.4478 14.2931 15.3685C14.2472 15.2891 14.1804 15.2239 14.1 15.1799C14.0496 15.1799 14.0013 15.1999 13.9657 15.2355C13.93 15.2712 13.91 15.3195 13.91 15.3699C13.9027 15.4719 13.923 15.574 13.9687 15.6655C14.0145 15.757 14.084 15.8345 14.17 15.8899L14.57 16.1699C14.71 16.2599 14.69 16.2599 14.76 16.1699C14.7697 16.1237 14.7697 16.076 14.76 16.0299C14.95 16.0299 15.02 16.1499 15.04 16.3399C15.086 16.5799 15.15 16.8179 15.23 17.0499C15.2344 17.1002 15.2287 17.1509 15.2132 17.1989C15.1977 17.247 15.1729 17.2915 15.14 17.3299C15.0165 17.4855 14.8545 17.6062 14.67 17.6799C14.5188 17.7385 14.3512 17.7385 14.2 17.6799C14.2873 17.5931 14.3809 17.5129 14.48 17.4399C14.522 17.3972 14.5523 17.3444 14.5681 17.2866C14.5838 17.2288 14.5845 17.168 14.57 17.1099C14.5628 17.0911 14.5507 17.0747 14.5348 17.0623C14.5189 17.05 14.5 17.0422 14.48 17.0399C14.387 17.0284 14.293 17.0284 14.2 17.0399C14.1277 17.0451 14.0599 17.0772 14.01 17.1299C13.8461 17.26 13.6722 17.377 13.49 17.4799C13.3416 17.5569 13.1725 17.5849 13.0072 17.5597C12.8419 17.5346 12.6888 17.4576 12.57 17.3399C12.4846 17.2442 12.4199 17.1318 12.38 17.0099L12.31 16.8699C12.2748 16.9057 12.2343 16.9361 12.19 16.9599C12.14 16.9599 12.12 16.8399 12.19 16.8199C12.219 16.6899 12.26 16.5629 12.31 16.4399C12.3214 16.4183 12.3273 16.3943 12.3273 16.3699C12.3273 16.3455 12.3214 16.3215 12.31 16.2999C12.23 16.1887 12.1234 16.0993 12 16.0399C11.91 15.9699 11.83 16.0399 11.76 16.0399H11.64C11.6424 15.9999 11.6424 15.9598 11.64 15.9199C11.6569 15.8146 11.7035 15.7163 11.7744 15.6366C11.8453 15.5568 11.9374 15.499 12.04 15.4699H12.16C11.8733 15.3605 11.614 15.1898 11.4 14.9699C11.33 14.8999 11.31 14.8499 11.4 14.7799C11.49 14.7099 11.66 14.5499 11.8 14.4499C12.0685 14.3545 12.3616 14.3545 12.63 14.4499C12.877 14.5319 13.103 14.6679 13.29 14.8499L13.36 14.9199C13.3036 14.7486 13.2083 14.5927 13.0817 14.4644C12.9551 14.336 12.8005 14.2386 12.63 14.1799C12.3254 14.0665 12.0048 14.0024 11.68 13.9899C11.6961 13.9293 11.7291 13.8746 11.7751 13.8321C11.8212 13.7896 11.8784 13.7611 11.94 13.7499L12.48 13.6499C12.672 13.6072 12.8506 13.5179 13 13.3899C12.9035 13.3103 12.7997 13.24 12.69 13.1799C12.41 13.0599 12.12 12.9199 11.84 12.8299C11.5856 12.7176 11.316 12.6435 11.04 12.6099C10.6546 12.5561 10.2759 12.4622 9.91001 12.3299C9.46845 12.2093 9.0472 12.024 8.66001 11.7799C8.26002 11.5199 7.92001 11.1799 7.66001 10.7799C7.5994 10.6763 7.55235 10.5654 7.52001 10.4499V10.3299H7.64001L7.80001 10.4199C8.06001 10.6299 8.30002 10.8899 8.56002 11.0799C8.87896 11.3114 9.23851 11.481 9.62001 11.5799C9.93001 11.6499 10.23 11.7199 10.54 11.7699C10.85 11.8199 11.06 11.7699 11.32 11.8399L11.89 11.9099C12.107 11.9249 12.322 11.9649 12.53 12.0299C12.86 12.1499 13.17 12.2899 13.48 12.4099C13.4979 12.4215 13.5187 12.4277 13.54 12.4277C13.5613 12.4277 13.5822 12.4215 13.6 12.4099C13.73 12.3809 13.857 12.3399 13.98 12.2899V12.1799C13.7494 12.0512 13.5125 11.9344 13.27 11.8299C12.8153 11.6511 12.3369 11.5399 11.85 11.4999L11.19 11.4299C10.8283 11.37 10.4708 11.2865 10.12 11.1799C9.75687 11.0477 9.41875 10.855 9.12001 10.6099C8.86856 10.4158 8.68058 10.1512 8.58001 9.84989V9.63989C8.60693 9.62861 8.63583 9.6228 8.66501 9.6228C8.6942 9.6228 8.7231 9.62861 8.75001 9.63989L9.01002 9.91989C9.15002 10.0599 9.29001 10.1999 9.46001 10.3499C9.85601 10.6599 10.312 10.8849 10.8 11.0099C11.08 11.0799 11.37 11.1299 11.65 11.1799C12.1 11.2499 12.57 11.3199 13.02 11.4199C13.5535 11.5156 14.0512 11.754 14.46 12.1099C14.63 12.2499 14.77 12.1799 14.93 12.1099C15.0147 12.0939 15.1024 12.1056 15.1799 12.1435C15.2574 12.1813 15.3206 12.2432 15.36 12.3199C15.48 12.6429 15.48 12.9969 15.36 13.3199C15.3492 13.3797 15.3568 13.4413 15.3818 13.4966C15.4068 13.552 15.448 13.5985 15.5 13.6299H15.62C15.7596 13.5727 15.9119 13.5536 16.0613 13.5747C16.2107 13.5958 16.3517 13.6563 16.47 13.7499C16.5071 13.7791 16.5528 13.795 16.6 13.795C16.6472 13.795 16.693 13.7791 16.73 13.7499C16.9261 13.6582 17.1165 13.5547 17.3 13.4399C17.49 13.3199 17.39 13.2699 17.44 13.1799C17.5082 13.0414 17.6184 12.9282 17.755 12.8563C17.8915 12.7844 18.0473 12.7577 18.2 12.7799C18.415 12.7799 18.63 12.8029 18.84 12.8499C19.0103 12.8957 19.1897 12.8957 19.36 12.8499C19.4673 12.837 19.5678 12.7903 19.6469 12.7166C19.726 12.643 19.7796 12.546 19.8 12.4399V11.7999C19.8 11.7299 19.8 11.6599 19.92 11.6599C20.04 11.6599 20.01 11.7499 20.01 11.8299C20.082 12.1599 20.082 12.4999 20.01 12.8299C19.9901 12.9725 19.915 13.1016 19.801 13.1895C19.6869 13.2773 19.543 13.317 19.4 13.2999H18.55C18.4349 13.2926 18.3211 13.327 18.2292 13.3968C18.1374 13.4665 18.0738 13.567 18.05 13.6799C18.039 13.7259 18.039 13.7739 18.05 13.8199C18.12 13.9599 18.17 14.0799 18.38 14.0599C18.492 14.0699 18.58 14.1579 18.59 14.2699C18.6118 14.3897 18.6727 14.4988 18.7632 14.5802C18.8537 14.6617 18.9686 14.7108 19.09 14.7199L19.31 14.7099ZM13.74 14.0199C13.86 14.1429 13.987 14.2599 14.12 14.3699C14.1877 14.421 14.2702 14.4486 14.355 14.4486C14.4398 14.4486 14.5223 14.421 14.59 14.3699C14.7221 14.2914 14.849 14.2045 14.97 14.1099V14.0399C14.9587 13.9946 14.9376 13.9523 14.9083 13.9161C14.8789 13.8798 14.842 13.8504 14.8 13.8299C14.7148 13.8074 14.6252 13.8074 14.54 13.8299L14.37 13.8999C14.1997 13.9457 14.0203 13.9457 13.85 13.8999L13.74 14.0199ZM17 14.3499C17.0408 14.3835 17.0887 14.4074 17.14 14.4199C17.315 14.4533 17.4736 14.5449 17.59 14.6799C17.706 14.6909 17.824 14.6909 17.94 14.6799C18.01 14.6799 18.06 14.6099 18.13 14.5899C18.0728 14.5207 18.0092 14.4571 17.94 14.3999C17.642 14.2744 17.3096 14.2567 17 14.3499ZM4.54001 17.4299C4.66508 17.5636 4.82448 17.6605 5.00082 17.7099C5.17716 17.7592 5.36367 17.7592 5.54001 17.7099C5.59886 17.6925 5.65291 17.6618 5.698 17.6202C5.74308 17.5786 5.77799 17.5271 5.80002 17.4699C5.42513 17.5565 5.03165 17.5069 4.69002 17.3299C4.52842 17.2377 4.38797 17.1126 4.27773 16.9628C4.16749 16.8129 4.08991 16.6416 4.05002 16.4599C3.97513 16.1936 3.98712 15.9104 4.08424 15.6515C4.18135 15.3925 4.35853 15.1712 4.59002 15.0199C4.48674 15.3514 4.51931 15.7104 4.68057 16.0179C4.84183 16.3254 5.11858 16.5563 5.45001 16.6599H5.59002C5.88815 16.7219 6.19846 16.6828 6.47191 16.5488C6.74535 16.4148 6.96636 16.1935 7.10001 15.9199C6.99523 16.0009 6.89507 16.0877 6.80001 16.1799C6.36302 16.4799 5.78701 16.4799 5.35001 16.1799C5.23149 16.1016 5.13341 15.9962 5.06397 15.8723C4.99453 15.7484 4.95574 15.6097 4.95084 15.4678C4.94595 15.3259 4.97509 15.1848 5.03584 15.0564C5.09658 14.9281 5.18716 14.8161 5.30002 14.7299C5.31346 14.8134 5.34563 14.8927 5.39413 14.962C5.44262 15.0313 5.50617 15.0887 5.58001 15.1299C5.72681 15.2108 5.88541 15.2682 6.05001 15.2999C6.22931 15.3286 6.41283 15.3156 6.58628 15.2619C6.75972 15.2081 6.91842 15.115 7.05001 14.9899C7.1948 14.8412 7.30717 14.6642 7.38001 14.4699C7.57001 14.0199 7.71001 13.5499 7.92001 13.0999C8.05598 12.8256 8.20618 12.5585 8.37001 12.2999C8.37001 12.2299 8.46002 12.2999 8.51002 12.2999L9.03001 12.5799L9.36001 12.7199L9.22002 12.8399C8.90668 13.1739 8.63779 13.547 8.42001 13.9499C8.25002 14.2599 8.09001 14.5399 7.95001 14.8499C7.81001 15.1599 7.67002 15.5599 7.55001 15.9099L7.27001 16.7099C7.20001 16.9199 7.10002 17.1099 7.01002 17.3199C6.87596 17.6239 6.64348 17.874 6.35001 18.0299C6.17761 18.1137 5.99109 18.1645 5.80002 18.1799C5.61076 18.2037 5.41927 18.2037 5.23002 18.1799C5.07685 18.1681 4.93083 18.1102 4.81123 18.0138C4.69162 17.9174 4.60403 17.7871 4.56001 17.6399C4.57387 17.5694 4.56692 17.4965 4.54001 17.4299ZM18.61 16.6299C18.622 16.7399 18.622 16.8499 18.61 16.9599C18.61 17.0999 18.52 17.0999 18.4 17.0299L18.12 16.8899H18C18.0405 16.9706 18.0616 17.0596 18.0616 17.1499C18.0616 17.2402 18.0405 17.3292 18 17.4099C17.9836 17.4585 17.9521 17.5005 17.91 17.5299H17.8L17.73 17.3199C17.7058 17.2645 17.6608 17.2208 17.6046 17.1983C17.5485 17.1759 17.4858 17.1764 17.43 17.1999C17.3373 17.2252 17.2495 17.2658 17.17 17.3199H17.03C16.8573 16.9892 16.7455 16.6302 16.7 16.2599L16.8 16.3799C16.8819 16.4423 16.982 16.4762 17.085 16.4762C17.188 16.4762 17.2881 16.4423 17.37 16.3799C17.3941 16.3282 17.4066 16.2719 17.4066 16.2149C17.4066 16.1579 17.3941 16.1015 17.37 16.0499C17.37 15.9799 17.3 15.9299 17.28 15.8599C17.42 15.8599 17.42 15.7399 17.78 16.1699L18.04 16.0299C18.13 16.0299 18.04 15.8899 18.04 15.8399V15.6299L18.21 15.6999C18.2586 15.7163 18.3007 15.7478 18.33 15.7899C18.4793 15.9582 18.647 16.1091 18.83 16.2399C18.8856 16.2859 18.9299 16.3441 18.9594 16.41C18.9889 16.4759 19.0028 16.5477 19 16.6199V16.7099H18.93C18.68 16.6299 18.68 16.6299 18.61 16.6299ZM6.80001 15.0399C6.60707 14.9262 6.38282 14.8771 6.16001 14.8999C6.06704 14.9114 5.97299 14.9114 5.88002 14.8999C5.82178 14.8902 5.7666 14.8671 5.71885 14.8324C5.6711 14.7977 5.63209 14.7523 5.60491 14.6999C5.57774 14.6475 5.56315 14.5895 5.5623 14.5305C5.56145 14.4715 5.57436 14.4131 5.60001 14.3599C5.69001 14.3599 5.77002 14.4799 5.86002 14.5299C5.95002 14.5799 5.98002 14.5299 5.98002 14.4599C5.97683 14.4015 5.99136 14.3435 6.0217 14.2936C6.05203 14.2436 6.09676 14.204 6.15001 14.1799C6.2262 14.1531 6.30817 14.1474 6.38735 14.1632C6.46652 14.179 6.53998 14.2159 6.60001 14.2699C6.80201 14.4699 6.88002 14.7659 6.80001 15.0399Z" fill="white"/>
</g>
<defs>
<clipPath id="clip0_301_2169">
<rect width="32" height="32" fill="white"/>
</clipPath>
</defs>
</svg>
