<svg width="32" height="32" viewBox="0 0 32 32" fill="none" xmlns="http://www.w3.org/2000/svg">
<g clip-path="url(#clip0_301_2155)">
<path d="M16 32C24.8366 32 32 24.8366 32 16C32 7.16344 24.8366 0 16 0C7.16344 0 0 7.16344 0 16C0 24.8366 7.16344 32 16 32Z" fill="#4700C2"/>
<path fill-rule="evenodd" clip-rule="evenodd" d="M13.6822 14.51C13.3722 14.712 13.0172 14.926 12.6492 15.15V17.171C12.9832 17.002 13.3272 16.831 13.6822 16.662V14.509V14.51ZM8.51522 18.247C8.60909 18.429 8.77084 18.5667 8.96547 18.6303C9.16011 18.6939 9.37197 18.6784 9.55522 18.587L10.5212 18.1C10.5272 17.288 10.5312 16.671 10.5312 16.426V16.361C9.71122 16.769 9.08922 17.082 8.85022 17.201C8.66715 17.2953 8.52904 17.4585 8.46622 17.6546C8.40341 17.8508 8.42103 18.0638 8.51522 18.247ZM13.9742 18.042C13.9738 18.1433 13.9934 18.2438 14.032 18.3376C14.0705 18.4313 14.1271 18.5166 14.1987 18.5884C14.2702 18.6602 14.3552 18.7172 14.4489 18.7561C14.5425 18.795 14.6428 18.815 14.7442 18.815H14.7532C14.9581 18.8147 15.1544 18.7331 15.2992 18.5882C15.4439 18.4433 15.5252 18.2468 15.5252 18.042V11.639C15.5251 11.5289 15.5016 11.4202 15.4562 11.3199C15.4107 11.2197 15.3445 11.1303 15.2617 11.0577C15.179 10.9851 15.0818 10.931 14.9765 10.899C14.8712 10.867 14.7603 10.8577 14.6512 10.872C14.4649 10.8949 14.2935 10.9854 14.1693 11.1261C14.0451 11.2669 13.9768 11.4483 13.9772 11.636V14.834C13.9742 15.908 13.9742 16.974 13.9742 18.042Z" fill="white"/>
<path fill-rule="evenodd" clip-rule="evenodd" d="M24.985 13.083C24.936 12.709 24.688 12.501 24.311 12.403C24.011 12.326 23.701 12.311 23.385 12.308C22.649 12.305 21.919 12.424 21.195 12.565C20.149 12.768 19.115 13.028 18.098 13.345C17.791 13.439 17.488 13.537 17.181 13.635L17.178 13.623L17.233 13.577C17.825 13.071 18.413 12.565 19.009 12.065C20.315 10.961 21.493 9.75003 22.587 8.47203C22.885 8.12503 23.142 7.75403 23.274 7.33103C23.474 6.69603 23.25 6.30103 22.606 6.12303C22.3331 6.05698 22.0528 6.02607 21.772 6.03103C21.158 6.02803 20.552 6.12903 19.953 6.25103C19.328 6.38103 18.423 6.61103 17.81 6.79703C16.829 7.09703 15.617 7.61303 14.535 8.05103C13.983 8.26603 13.395 8.54203 12.845 8.75703L10.766 9.60303C8.00602 10.79 7.20302 9.93703 7.20302 9.93703C7.20302 9.94103 7.20402 9.94403 7.20602 9.94703C7.20078 9.93935 7.19674 9.93092 7.19402 9.92203C6.65702 10.98 7.10402 12.902 10.208 11.529C10.696 11.339 11.192 11.133 11.677 10.946C12.612 10.581 13.538 10.13 14.477 9.76903C15.1229 9.50334 15.774 9.25062 16.43 9.01103L17.022 8.78103C17.629 8.58103 18.236 8.38303 18.855 8.22903C19.53 8.05503 20.119 7.95003 20.475 7.99603C20.511 7.99903 20.548 8.00203 20.582 8.00903C20.744 8.03003 20.83 8.11603 20.815 8.22903C20.809 8.40403 20.527 8.98403 17.96 11.121C17.773 11.281 17.586 11.443 17.399 11.602C17.111 11.851 16.832 12.096 16.549 12.342L16.313 12.55L16.31 12.553L16.2 12.651C16.1914 12.6601 16.182 12.6685 16.172 12.676L16.145 12.7L15.93 12.863C15.9154 12.8771 15.9 12.8905 15.884 12.903V15.616C16.792 15.306 21.21 13.832 21.686 14.264C21.723 14.314 22.284 14.663 17.147 18.177C16.945 18.33 16.749 18.483 16.547 18.637L15.804 19.204C14.875 19.876 13.952 20.55 13.024 21.222L12.621 21.513C12.615 22.246 12.612 22.948 12.609 23.593L22.409 16.361C23.0067 15.8574 23.5731 15.3177 24.105 14.745C24.405 14.424 24.675 14.083 24.853 13.694C24.945 13.491 25.013 13.295 24.985 13.084V13.083ZM9.01802 24.205C8.89171 24.3625 8.82729 24.5607 8.83686 24.7624C8.84644 24.964 8.92936 25.1552 9.07002 25.3C9.19839 25.4361 9.36939 25.5243 9.5547 25.5499C9.74001 25.5756 9.92852 25.5371 10.089 25.441L10.481 25.153C10.484 24.564 10.491 23.847 10.496 23.073L9.17202 24.055C9.11482 24.0986 9.06311 24.149 9.01802 24.205Z" fill="white"/>
<path fill-rule="evenodd" clip-rule="evenodd" d="M12.3642 12.9451C12.3156 12.7635 12.2025 12.6058 12.046 12.5014C11.8896 12.3971 11.7006 12.3533 11.5142 12.3781C11.3279 12.4011 11.1565 12.4915 11.0323 12.6323C10.9081 12.7731 10.8398 12.9544 10.8402 13.1421V16.3401C10.8402 16.9871 10.8122 20.1981 10.7882 22.8621C10.7822 23.6261 10.7752 24.3431 10.7722 24.9421C10.7662 25.7021 10.7632 26.2721 10.7632 26.5051C10.7628 26.6065 10.7824 26.707 10.8209 26.8007C10.8595 26.8945 10.9161 26.9797 10.9877 27.0515C11.0592 27.1234 11.1442 27.1804 11.2378 27.2192C11.3314 27.2581 11.4318 27.2781 11.5332 27.2781H11.5422C11.7472 27.2781 11.9438 27.1967 12.0888 27.0517C12.2337 26.9068 12.3152 26.7101 12.3152 26.5051C12.3152 25.9691 12.3212 24.9901 12.3272 23.7911C12.3302 23.1511 12.3372 22.4451 12.3392 21.7121C12.3612 18.3791 12.3912 14.4521 12.3892 13.1421C12.3885 13.0757 12.3801 13.0096 12.3642 12.9451Z" fill="white"/>
</g>
<defs>
<clipPath id="clip0_301_2155">
<rect width="32" height="32" fill="white"/>
</clipPath>
</defs>
</svg>
