<svg width="32" height="32" viewBox="0 0 32 32" fill="none" xmlns="http://www.w3.org/2000/svg">
<g clip-path="url(#clip0_301_2141)">
<path d="M16 32C24.8366 32 32 24.8366 32 16C32 7.16344 24.8366 0 16 0C7.16344 0 0 7.16344 0 16C0 24.8366 7.16344 32 16 32Z" fill="#00AAFF"/>
<path d="M15.9619 4.93994C9.87394 4.93994 4.93994 9.87394 4.93994 15.9619C4.93994 22.0489 9.87394 26.9849 15.9619 26.9849C22.0489 26.9849 26.9849 22.0489 26.9849 15.9619C26.9849 9.87394 22.0489 4.93994 15.9619 4.93994ZM15.9969 6.68594C16.8789 6.68567 17.7479 6.89839 18.53 7.30601C19.3121 7.71363 19.9842 8.3041 20.4892 9.0272C20.9941 9.75031 21.317 10.5847 21.4303 11.4593C21.5436 12.334 21.444 13.223 21.1399 14.0509C20.6664 13.9678 20.181 13.9809 19.7126 14.0895C19.2443 14.1981 18.8026 14.3999 18.4139 14.6829C18.7539 14.3579 19.0244 13.9672 19.209 13.5345C19.3936 13.1019 19.4885 12.6363 19.4879 12.1659C19.4877 11.2393 19.1197 10.3507 18.4648 9.69525C17.8098 9.03976 16.9215 8.671 15.9949 8.66994C15.1301 8.67064 14.2963 8.99194 13.6546 9.57173C13.013 10.1515 12.609 10.9486 12.5209 11.8089C11.864 11.6916 11.1921 11.6848 10.5329 11.7889C10.6279 10.4045 11.2449 9.10762 12.2591 8.16041C13.2733 7.21321 14.6092 6.68623 15.9969 6.68594ZM18.0119 16.9779L16.0739 15.8179C16.0108 15.7798 15.9383 15.76 15.8645 15.7605C15.7908 15.761 15.7186 15.7819 15.6559 15.8209L13.9559 16.8709C13.8895 16.9115 13.8363 16.9706 13.8029 17.0409C13.7695 17.1112 13.7573 17.1898 13.7679 17.2669C13.8126 17.5903 13.789 17.9194 13.6985 18.233C13.608 18.5466 13.4527 18.8377 13.2425 19.0875C13.0324 19.3372 12.7722 19.5401 12.4788 19.683C12.1853 19.8259 11.8651 19.9056 11.5389 19.9169C11.2275 19.9267 10.9174 19.8738 10.6268 19.7612C10.3363 19.6487 10.0714 19.4789 9.84786 19.2619C9.62431 19.0449 9.44671 18.7851 9.32561 18.498C9.20451 18.211 9.14239 17.9025 9.14294 17.5909C9.14645 16.9824 9.3873 16.3992 9.81425 15.9656C10.2412 15.5319 10.8205 15.282 11.4289 15.2689C11.7631 15.2633 12.0945 15.3299 12.4005 15.4641C12.7065 15.5984 12.9799 15.7972 13.2019 16.0469C13.3259 16.1869 13.5319 16.2169 13.6939 16.1269L15.3319 15.2079C15.3941 15.1727 15.4459 15.1217 15.4821 15.0601C15.5183 14.9985 15.5375 14.9284 15.5379 14.8569V14.7569C15.5374 14.6724 15.5104 14.5902 15.4607 14.5219C15.411 14.4535 15.3412 14.4025 15.2609 14.3759C14.7282 14.1983 14.2778 13.8339 13.9927 13.35C13.7077 12.8661 13.6074 12.2955 13.7102 11.7434C13.8131 11.1913 14.1122 10.6951 14.5523 10.3463C14.9925 9.99759 15.544 9.81985 16.1049 9.84594C16.6714 9.87517 17.2078 10.1098 17.6138 10.5058C18.0199 10.9019 18.2677 11.4324 18.3109 11.9979C18.3512 12.54 18.1999 13.079 17.8836 13.521C17.5673 13.963 17.106 14.2801 16.5799 14.4169C16.4926 14.4385 16.4149 14.4885 16.3591 14.5591C16.3033 14.6298 16.2727 14.717 16.2719 14.8069V14.8239C16.2719 14.9639 16.3459 15.0929 16.4639 15.1669L18.1849 16.2249C18.2677 16.2764 18.3665 16.2958 18.4626 16.2796C18.5587 16.2634 18.6456 16.2127 18.7069 16.1369C18.9307 15.8578 19.2158 15.634 19.5401 15.4831C19.8645 15.3322 20.2193 15.2582 20.5769 15.2669C21.1936 15.2907 21.7755 15.5584 22.1948 16.0112C22.614 16.464 22.8362 17.0648 22.8124 17.6814C22.7887 18.2981 22.521 18.88 22.0682 19.2992C21.6154 19.7185 21.0146 19.9407 20.3979 19.9169C20.0839 19.8998 19.7765 19.8193 19.4943 19.6803C19.2122 19.5413 18.9611 19.3466 18.7561 19.108C18.5511 18.8694 18.3966 18.5918 18.3017 18.2919C18.2068 17.992 18.1735 17.676 18.2039 17.3629C18.2119 17.2871 18.1981 17.2106 18.1641 17.1424C18.1301 17.0742 18.0773 17.0172 18.0119 16.9779ZM11.4649 23.0109C10.7528 23.0112 10.0476 22.8711 9.38957 22.5988C8.73157 22.3264 8.13368 21.927 7.63007 21.4235C7.12646 20.92 6.72699 20.3222 6.45449 19.6642C6.182 19.0063 6.04181 18.3011 6.04194 17.5889C6.04142 16.7887 6.2181 15.9982 6.55927 15.2743C6.90045 14.5504 7.39767 13.911 8.01523 13.4021C8.63279 12.8931 9.35538 12.5272 10.1311 12.3306C10.9069 12.134 11.7165 12.1116 12.5019 12.2649C12.5279 13.1817 12.9137 14.0514 13.5759 14.6859C12.9641 14.2389 12.2257 13.9986 11.4679 13.9999C10.5263 14.0157 9.62859 14.4007 8.96825 15.0722C8.30791 15.7437 7.93786 16.6477 7.93786 17.5894C7.93786 18.5312 8.30791 19.4352 8.96825 20.1067C9.62859 20.7781 10.5263 21.1632 11.4679 21.1789C12.1855 21.1788 12.8864 20.9634 13.4801 20.5605C14.0738 20.1575 14.5329 19.5857 14.7979 18.9189C14.9689 19.6649 15.2849 20.3539 15.7109 20.9619C15.2038 21.6019 14.5584 22.1188 13.823 22.4738C13.0877 22.8289 12.2815 23.0128 11.4649 23.0119V23.0109ZM20.5209 23.0109C19.1465 23.0108 17.8234 22.489 16.819 21.5508C15.8145 20.6127 15.2037 19.3282 15.1099 17.9569C15.7204 18.0499 16.3417 18.0462 16.9509 17.9459C17.0156 18.595 17.2559 19.2141 17.646 19.7369C18.0361 20.2596 18.5612 20.6662 19.165 20.913C19.7688 21.1597 20.4283 21.2374 21.0729 21.1375C21.7174 21.0376 22.3226 20.7641 22.8234 20.3462C23.3242 19.9282 23.7016 19.3818 23.9153 18.7655C24.1289 18.1493 24.1705 17.4864 24.0358 16.8483C23.9011 16.2101 23.595 15.6207 23.1505 15.1433C22.706 14.666 22.1399 14.3188 21.5129 14.1389C21.7211 13.5581 21.8352 12.9478 21.8509 12.3309C23.1309 12.6571 24.2478 13.4391 24.9921 14.5302C25.7365 15.6213 26.0571 16.9465 25.8939 18.2572C25.7307 19.5679 25.0948 20.774 24.1056 21.6492C23.1164 22.5245 21.8418 23.0086 20.5209 23.0109Z" fill="white"/>
<path d="M16 3C8.821 3 3 8.821 3 16C3 23.179 8.821 29 16 29C23.179 29 29 23.179 29 16C29 8.821 23.179 3 16 3ZM15.962 28.022C9.302 28.022 3.904 22.624 3.904 15.964C3.904 9.304 9.302 3.907 15.962 3.907C22.621 3.907 28.019 9.305 28.019 15.964C28.019 22.624 22.621 28.022 15.962 28.022Z" fill="white"/>
</g>
<defs>
<clipPath id="clip0_301_2141">
<rect width="32" height="32" fill="white"/>
</clipPath>
</defs>
</svg>
