<svg width="32" height="32" viewBox="0 0 32 32" fill="none" xmlns="http://www.w3.org/2000/svg">
<g clip-path="url(#clip0_301_2117)">
<path d="M16 32C24.8366 32 32 24.8366 32 16C32 7.16344 24.8366 0 16 0C7.16344 0 0 7.16344 0 16C0 24.8366 7.16344 32 16 32Z" fill="#FB2EA3"/>
<path d="M22.6321 14.02C22.4051 15.555 21.5541 16.298 20.4251 16.558C21.9751 17.365 22.7651 18.604 22.0131 20.75C21.0801 23.416 18.8641 23.64 15.9171 23.083L15.2001 25.95L13.4721 25.519L14.1781 22.691C13.7175 22.5766 13.2581 22.4573 12.8001 22.333L12.0921 25.175L10.3651 24.745L11.0811 21.872C10.6771 21.769 10.2671 21.659 9.84812 21.554L7.59912 20.994L8.45712 19.014C8.45712 19.014 9.73112 19.354 9.71312 19.328C10.2031 19.449 10.4201 19.13 10.5061 18.918L11.6361 14.386L11.8191 14.431C11.7604 14.4081 11.7003 14.389 11.6391 14.374L12.4451 11.139C12.4661 10.771 12.3401 10.309 11.6401 10.133C11.6671 10.115 10.3841 9.821 10.3841 9.821L10.8441 7.975L13.2281 8.57L13.2261 8.58C13.5841 8.668 13.9541 8.753 14.3301 8.839L15.0391 6L16.7671 6.43L16.0731 9.214C16.5361 9.32 17.0031 9.426 17.4571 9.54L18.1471 6.775L19.8751 7.205L19.1671 10.045C21.3501 10.797 22.9461 11.924 22.6321 14.02ZM18.6821 19.558C19.2421 17.32 15.4841 16.741 14.3121 16.448L13.3631 20.253C14.5351 20.544 18.1491 21.705 18.6831 19.558H18.6821ZM19.2171 13.989C19.7251 11.952 16.5831 11.499 15.6071 11.255L14.7471 14.706C15.7221 14.95 18.7301 15.942 19.2171 13.989ZM24.2471 21.618C24.1633 21.6068 24.0781 21.6122 23.9965 21.634C23.9148 21.6558 23.8382 21.6935 23.7711 21.745C23.6412 21.8564 23.553 22.0088 23.5211 22.177C23.5006 22.2705 23.4939 22.3665 23.5011 22.462C23.5097 22.5708 23.5447 22.6758 23.6031 22.768C23.6631 22.868 23.7591 22.962 23.8891 23.05C24.0191 23.137 24.1991 23.207 24.4291 23.26C24.5531 23.29 24.6811 23.304 24.8121 23.303C24.9441 23.303 25.0661 23.282 25.1781 23.24C25.2966 23.1982 25.4021 23.1264 25.4845 23.0315C25.5669 22.9367 25.6233 22.8221 25.6481 22.699C25.6717 22.6112 25.6777 22.5196 25.6657 22.4295C25.6537 22.3394 25.6239 22.2525 25.5781 22.174C25.4861 22.02 25.3351 21.902 25.1241 21.82L25.2781 21.154C25.6581 21.307 25.9241 21.526 26.0781 21.809C26.2321 22.093 26.2641 22.43 26.1741 22.82C26.1286 23.0363 26.0383 23.2407 25.9091 23.42C25.7931 23.5782 25.6443 23.7096 25.473 23.8051C25.3016 23.9007 25.1117 23.9583 24.9161 23.974C24.701 23.9935 24.4841 23.9776 24.2741 23.927C24.0581 23.8788 23.8507 23.7979 23.6591 23.687C23.4825 23.5858 23.3284 23.4497 23.2061 23.287C23.0872 23.1253 23.0059 22.9391 22.9681 22.742C22.9278 22.5158 22.9363 22.2836 22.9931 22.061C23.0314 21.892 23.093 21.7291 23.1761 21.577C23.2571 21.429 23.3561 21.304 23.4751 21.202C23.5931 21.1 23.7291 21.026 23.8831 20.98C24.0381 20.933 24.2101 20.924 24.4011 20.951L24.2471 21.618ZM26.9391 19.505C26.892 19.7273 26.8005 19.9379 26.6701 20.124C26.5471 20.294 26.4001 20.428 26.2301 20.527C26.0542 20.6269 25.8594 20.6889 25.6581 20.709C25.4348 20.7313 25.2093 20.7158 24.9911 20.663C24.7738 20.615 24.5662 20.5305 24.3771 20.413C24.2052 20.3068 24.0574 20.1657 23.9431 19.999C23.831 19.8315 23.756 19.6419 23.7231 19.443C23.6879 19.2189 23.6981 18.99 23.7531 18.77C23.8003 18.5477 23.8917 18.3371 24.0221 18.151C24.1461 17.981 24.2921 17.846 24.4631 17.748C24.639 17.6481 24.8338 17.5861 25.0351 17.566C25.2451 17.543 25.4651 17.558 25.6951 17.611C25.9144 17.659 26.1239 17.7435 26.3151 17.861C26.4951 17.975 26.6391 18.113 26.7491 18.276C26.8591 18.439 26.9321 18.624 26.9691 18.831C27.0045 19.0554 26.9943 19.2846 26.9391 19.505ZM24.3151 16.707L24.4601 16.082L25.0441 16.217L25.0471 16.205C24.9656 16.163 24.8932 16.1052 24.8341 16.035C24.6984 15.8772 24.6085 15.6853 24.5741 15.48C24.5574 15.3763 24.5608 15.2704 24.5841 15.168C24.6022 15.0836 24.6277 15.001 24.6601 14.921L25.3031 15.069C25.2844 15.1149 25.2667 15.1613 25.2501 15.208C25.2333 15.2541 25.2193 15.3012 25.2081 15.349C25.1805 15.4587 25.178 15.5733 25.2009 15.6841C25.2237 15.7949 25.2713 15.8992 25.3401 15.989C25.418 16.0896 25.5144 16.1745 25.6241 16.239C25.7431 16.312 25.8861 16.368 26.0541 16.407L27.4921 16.739L27.3381 17.405L24.3151 16.707ZM26.5951 14.517C26.7111 14.545 26.8281 14.554 26.9451 14.547C27.0562 14.54 27.1649 14.5115 27.2651 14.463C27.3645 14.4143 27.4517 14.3439 27.5201 14.257C27.5974 14.1552 27.6507 14.0373 27.6761 13.912C27.7225 13.7476 27.7166 13.5729 27.6591 13.412C27.5942 13.2639 27.4839 13.1403 27.3441 13.059L27.4891 12.428C27.706 12.5266 27.8914 12.6833 28.0247 12.8809C28.1579 13.0784 28.2339 13.3089 28.2441 13.547C28.2541 13.707 28.2401 13.869 28.2031 14.033C28.1481 14.271 28.0601 14.473 27.9401 14.638C27.8248 14.8 27.6749 14.9343 27.5012 15.0311C27.3276 15.128 27.1345 15.185 26.9361 15.198C26.4981 15.233 26.0601 15.1295 25.6841 14.902C25.5122 14.7945 25.3622 14.6554 25.2421 14.492C25.1252 14.3307 25.0431 14.1468 25.0011 13.952C24.9561 13.754 24.9611 13.542 25.0121 13.315C25.0598 13.0917 25.1618 12.8835 25.3091 12.709C25.4471 12.5472 25.6188 12.4175 25.8121 12.329C26.0098 12.2415 26.2229 12.1939 26.4391 12.189C26.6651 12.181 26.8871 12.217 27.1071 12.296L26.5941 14.518L26.5951 14.517ZM26.4131 19.384C26.4461 19.2559 26.4461 19.1215 26.4133 18.9934C26.3804 18.8652 26.3157 18.7474 26.2251 18.651C26.1377 18.5556 26.0341 18.4764 25.9191 18.417C25.6805 18.2915 25.4136 18.2295 25.1441 18.237C25.0148 18.2395 24.887 18.2656 24.7671 18.314C24.644 18.3615 24.5348 18.4392 24.4497 18.5401C24.3646 18.641 24.3062 18.7616 24.2801 18.891C24.2468 19.0186 24.2462 19.1526 24.2784 19.2806C24.3105 19.4085 24.3744 19.5263 24.4641 19.623C24.5471 19.717 24.6491 19.794 24.7701 19.857C25.0089 19.982 25.2757 20.044 25.5451 20.037C25.6747 20.0338 25.8026 20.0077 25.9231 19.96C26.0467 19.913 26.1564 19.8356 26.2421 19.7349C26.3277 19.6342 26.3866 19.5135 26.4131 19.384ZM26.5151 12.861C26.4092 12.8444 26.3014 12.8434 26.1951 12.858C26.094 12.8693 25.9961 12.9005 25.907 12.9497C25.8179 12.999 25.7395 13.0654 25.6761 13.145C25.6105 13.2336 25.5635 13.3346 25.5377 13.4418C25.5119 13.549 25.508 13.6602 25.5261 13.769C25.5461 13.874 25.5831 13.969 25.6391 14.054C25.7626 14.2329 25.946 14.3616 26.1561 14.417L26.5151 12.861Z" fill="white"/>
</g>
<defs>
<clipPath id="clip0_301_2117">
<rect width="32" height="32" fill="white"/>
</clipPath>
</defs>
</svg>
