<svg width="32" height="32" viewBox="0 0 32 32" fill="none" xmlns="http://www.w3.org/2000/svg">
<g clip-path="url(#clip0_301_2103)">
<path d="M16 32C24.8366 32 32 24.8366 32 16C32 7.16344 24.8366 0 16 0C7.16344 0 0 7.16344 0 16C0 24.8366 7.16344 32 16 32Z" fill="#FBB413"/>
<path d="M16.0172 21.8041C16.6809 21.8344 17.3433 21.7197 17.9582 21.4681C18.2022 21.3811 18.4352 21.2661 18.6532 21.1261C18.6725 21.109 18.6952 21.0962 18.7198 21.0886C18.7444 21.081 18.7703 21.0787 18.7959 21.0819C18.8215 21.0851 18.846 21.0938 18.868 21.1072C18.8899 21.1207 18.9088 21.1387 18.9232 21.1601L20.5022 22.7851C20.6152 22.9031 20.6112 22.9411 20.4762 23.0341C19.9278 23.41 19.3319 23.7117 18.7042 23.9311C17.9273 24.1967 17.1157 24.347 16.2952 24.3771C15.2506 24.4309 14.2051 24.2881 13.2132 23.9561C12.3592 23.6601 11.565 23.2137 10.8682 22.6381C10.2389 22.1175 9.68614 21.5109 9.2262 20.8361C8.96642 20.4681 8.74209 20.0763 8.5562 19.6661C8.41581 19.3416 8.28936 19.0113 8.1772 18.6761C7.99091 18.0608 7.87254 17.4271 7.8242 16.7861C7.77207 16.3154 7.77879 15.8401 7.8442 15.3711C7.8942 14.9071 7.9762 14.4471 8.0892 13.9941C8.27807 13.3017 8.55252 12.6355 8.9062 12.0111C9.66604 10.696 10.781 9.62168 12.1232 8.91106C12.6325 8.63496 13.1704 8.415 13.7272 8.25506C14.1789 8.11982 14.6428 8.02938 15.1122 7.98506C15.4737 7.93967 15.839 7.93129 16.2022 7.96006C16.2672 7.96406 16.3322 7.96406 16.3962 7.96006C16.9912 7.97528 17.5816 8.06875 18.1522 8.23806C18.6392 8.36806 19.1102 8.55206 19.5542 8.79006C20.0232 9.02206 20.4642 9.30406 20.8722 9.63206C20.9522 9.70306 21.0152 9.67006 21.0782 9.60206L22.0512 8.57506L23.4532 7.08506C23.6172 6.90806 23.6592 6.90306 23.8362 7.06306C24.3762 7.55006 24.8762 8.08106 25.3262 8.65106C25.8981 9.36128 26.3857 10.1355 26.7792 10.9581C27.0942 11.6381 27.3532 12.3421 27.5542 13.0631C27.7232 13.6571 27.7772 14.2631 27.9082 14.8571C27.9095 14.8684 27.9095 14.8798 27.9082 14.8911C27.9082 15.4421 28.0302 15.9941 27.9712 16.5451C27.9042 17.1731 27.8702 17.8091 27.7392 18.4281C27.6282 18.9481 27.4872 19.4601 27.3192 19.9641C26.9059 21.2146 26.2867 22.3874 25.4872 23.4341C25.3652 23.5941 25.3272 23.5981 25.1872 23.4341C24.7252 22.9661 24.2622 22.4911 23.7942 22.0281C23.6972 21.9311 23.7102 21.8551 23.7942 21.7501C24.2872 21.059 24.6866 20.3058 24.9822 19.5101C25.2472 18.7631 25.4292 17.9891 25.5252 17.2021C25.5832 16.5991 25.5952 15.9921 25.5632 15.3881C25.549 15.044 25.5079 14.7016 25.4402 14.3641C25.1851 12.9779 24.6241 11.6661 23.7982 10.5241C23.7102 10.3981 23.6002 10.2841 23.5202 10.1501C23.4402 10.0151 23.4322 10.0531 23.3562 10.1291C22.9102 10.5791 22.4512 11.0171 22.0172 11.4761C21.8662 11.6361 21.6932 11.7621 21.5502 11.9261C21.4072 12.0911 21.2342 12.2461 21.0742 12.4061L20.5862 12.8951C20.5102 12.9711 20.4512 12.9411 20.4002 12.8701C19.987 12.2647 19.4557 11.749 18.8382 11.3541C18.2415 10.9698 17.5724 10.7118 16.8722 10.5961C16.3259 10.5121 15.7705 10.505 15.2222 10.5751C14.5482 10.6471 13.8954 10.8531 13.3022 11.1811C12.6654 11.5308 12.1064 12.0064 11.6592 12.5791C11.27 13.0721 10.9695 13.629 10.7712 14.2251C10.548 14.9314 10.4468 15.6707 10.4722 16.4111C10.4632 17.7394 10.9565 19.022 11.8532 20.0021C12.3918 20.5978 13.0525 21.0705 13.7902 21.3881C14.4902 21.6961 15.2532 21.8391 16.0172 21.8041Z" fill="white"/>
<path d="M25.0372 23.711L20.7772 19.374C20.6842 19.277 20.6072 19.274 20.5322 19.374C20.2312 19.8129 19.8665 20.2045 19.4502 20.536C19.3492 20.616 19.3492 20.679 19.4502 20.772C19.8332 21.155 20.2122 21.547 20.5912 21.93C21.0842 22.431 21.5762 22.932 22.0732 23.433C22.1612 23.521 22.1572 23.563 22.0732 23.639C21.8752 23.787 21.6812 23.939 21.4752 24.06C20.3953 24.8054 19.1697 25.3136 17.8792 25.551C17.3777 25.6647 16.8654 25.724 16.3512 25.728H16.1452C15.7812 25.753 15.4152 25.742 15.0552 25.694C14.6332 25.631 14.2372 25.58 13.8372 25.492C13.3303 25.3765 12.8344 25.2172 12.3552 25.016C11.541 24.6769 10.7772 24.2277 10.0852 23.681C9.40173 23.143 8.79185 22.5177 8.27116 21.821C7.72225 21.0911 7.28512 20.2836 6.97416 19.425C6.63345 18.5843 6.43964 17.6913 6.40116 16.785C6.39398 16.6894 6.39398 16.5935 6.40116 16.498V15.505C6.37819 15.3979 6.37819 15.2871 6.40116 15.18C6.40116 15.1 6.43516 15.025 6.44816 14.945C6.49016 14.572 6.55616 14.202 6.64616 13.837C6.76116 13.347 6.91416 12.867 7.10516 12.401C7.95279 10.3252 9.49448 8.60782 11.4672 7.54197C12.634 6.89424 13.9266 6.50543 15.2572 6.40197H15.5002C16.8854 6.31406 18.273 6.53258 19.5642 7.04197L19.9262 7.19297C20.4781 7.4377 21.0067 7.73226 21.5052 8.07297C21.5231 8.08934 21.5442 8.10176 21.5672 8.10943C21.5902 8.1171 21.6146 8.11985 21.6387 8.11749C21.6629 8.11513 21.6862 8.10773 21.7073 8.09575C21.7284 8.08377 21.7468 8.06749 21.7612 8.04797C22.2082 7.53797 22.6792 7.05397 23.1472 6.56597C23.2352 6.47297 23.2392 6.38897 23.1472 6.31297C21.6038 5.1907 19.8155 4.45169 17.9302 4.15697C17.3893 4.07102 16.8435 4.01891 16.2962 4.00097C15.4481 3.98755 14.6011 4.06669 13.7702 4.23697C13.2394 4.34245 12.7163 4.48309 12.2042 4.65797C11.2922 4.96297 10.4222 5.38097 9.61416 5.89997C8.64416 6.51997 7.76716 7.27197 7.00816 8.13597C5.9944 9.28645 5.21241 10.6219 4.70516 12.069C4.49316 12.681 4.32516 13.307 4.20416 13.943C4.11116 14.5 4.04816 15.063 4.01416 15.627C3.97983 16.2329 4.00797 16.8408 4.09816 17.441C4.16416 18.038 4.27816 18.628 4.43916 19.206C4.55316 19.597 4.66716 19.989 4.81416 20.368C5.10816 21.128 5.47716 21.858 5.91716 22.545C6.4645 23.3901 7.11037 24.1673 7.84116 24.86C8.31416 25.296 8.82116 25.693 9.35716 26.048C10.0752 26.539 10.8472 26.948 11.6572 27.265C12.4632 27.585 13.3042 27.813 14.1612 27.947C14.8042 28.043 15.4532 28.099 16.1032 28.115C16.5232 28.115 16.9452 28.048 17.3402 28.039C17.6402 28.017 17.9372 27.972 18.2292 27.905C18.5532 27.85 18.8732 27.765 19.1932 27.681C20.3899 27.3679 21.5275 26.8616 22.5612 26.182C23.4982 25.582 24.3482 24.857 25.0882 24.027C25.2102 23.887 25.2062 23.863 25.0382 23.711H25.0372Z" fill="white"/>
</g>
<defs>
<clipPath id="clip0_301_2103">
<rect width="32" height="32" fill="white"/>
</clipPath>
</defs>
</svg>
