<svg width="32" height="32" viewBox="0 0 32 32" fill="none" xmlns="http://www.w3.org/2000/svg">
<g clip-path="url(#clip0_301_2097)">
<path d="M16 32C24.8366 32 32 24.8366 32 16C32 7.16344 24.8366 0 16 0C7.16344 0 0 7.16344 0 16C0 24.8366 7.16344 32 16 32Z" fill="#36B0F3"/>
<path fill-rule="evenodd" clip-rule="evenodd" d="M14.0898 4.2611C14.8898 4.1011 15.7048 4.0321 16.5198 4.0551C17.0278 4.0551 17.5358 4.1011 18.0368 4.1921C19.0118 4.3261 19.9518 4.6361 20.8688 4.9841C21.5358 5.2821 22.2348 5.5621 22.7768 6.0681C22.9278 6.1781 22.8468 6.3981 22.7128 6.4851C22.4028 6.6841 22.0298 6.7411 21.6758 6.8191C20.0798 7.0931 18.4558 7.2161 16.8878 7.6411C16.1848 7.7991 15.5088 8.0571 14.8398 8.3241C13.5968 8.8801 12.4538 9.6971 11.6268 10.7891C11.4688 11.0201 11.3167 11.2552 11.1708 11.4941C11.0398 11.7491 10.9078 12.0041 10.8008 12.2711C10.7208 12.4621 10.6468 12.6551 10.5768 12.8491C10.4358 13.2621 10.3668 13.6931 10.2618 14.1171C10.2288 14.3951 10.2098 14.6751 10.1518 14.9501C10.1148 15.5801 10.1328 16.2101 10.1378 16.8401C10.1378 17.0501 10.1948 17.2561 10.1978 17.4671C10.2008 17.6611 10.2278 17.8541 10.2798 18.0411C10.3798 18.5661 10.5018 19.0981 10.7248 19.5891C11.0138 20.2861 11.4638 20.9391 12.1038 21.3541C12.6348 21.7481 13.2918 21.9161 13.9358 22.0161C14.7958 22.1281 15.6688 22.0261 16.5158 21.8721C16.9588 21.7921 17.3988 21.6921 17.8358 21.5751C18.1128 21.4971 18.3978 21.4451 18.6718 21.3521C18.7769 21.334 18.8832 21.3239 18.9898 21.3221C18.6468 21.6281 18.3018 21.9321 17.9138 22.1791C16.5918 23.0311 15.0548 23.4751 13.5218 23.7611C12.8288 23.9031 12.1238 23.9871 11.4258 24.1071C10.6308 24.2221 9.8068 24.3171 9.0898 24.7071C8.8758 24.8571 8.7098 25.0611 8.5608 25.2731C8.5158 25.3651 8.4308 25.2731 8.3808 25.2401C8.2178 25.0531 8.0088 24.9161 7.8318 24.7431C7.64299 24.5613 7.45762 24.3759 7.2758 24.1871C6.9848 23.8481 6.6858 23.5141 6.4288 23.1491C5.9168 22.4551 5.4638 21.7121 5.1318 20.9161L5.0738 20.8901C5.0318 20.6611 4.9158 20.4591 4.8388 20.2421C4.65723 19.7666 4.51018 19.2787 4.3988 18.7821C4.35483 18.6304 4.32042 18.4761 4.2958 18.3201C4.24208 18.1446 4.20984 17.9633 4.1998 17.7801C4.1018 17.3501 4.1198 16.9061 4.0578 16.4721C4.0578 16.1101 4.0338 15.7451 4.0778 15.3841C4.1258 15.0841 4.1058 14.7771 4.1678 14.4781C4.2288 14.2351 4.2168 13.9811 4.2938 13.7421C4.38987 13.2073 4.53036 12.6815 4.7138 12.1701C4.7858 11.9821 4.8508 11.7921 4.9178 11.6031C4.9578 11.5161 4.9908 11.4271 5.0178 11.3361L5.0708 11.2731C5.13489 11.0853 5.21764 10.9044 5.3178 10.7331C5.41738 10.5246 5.52581 10.3204 5.6428 10.1211C5.6768 10.0501 5.7148 9.9811 5.7548 9.9111C6.3848 8.9241 7.1208 7.9891 8.0068 7.2171C9.1059 6.23874 10.368 5.46063 11.7358 4.9181C12.4963 4.61916 13.2854 4.399 14.0908 4.2611H14.0898Z" fill="white"/>
<path fill-rule="evenodd" clip-rule="evenodd" d="M23.2409 7.39015C23.4609 7.26215 23.6119 7.05515 23.7639 6.85815C24.9642 7.88441 25.9502 9.13744 26.6654 10.5454C27.3806 11.9535 27.8109 13.4887 27.9317 15.0634C28.0524 16.638 27.8613 18.2209 27.3692 19.7215C26.8771 21.2221 26.0937 22.6109 25.0639 23.8082C23.2269 25.9662 20.5889 27.4322 17.7779 27.8212C16.4849 28.0112 15.1679 27.9612 13.8759 27.7842C12.8859 27.6442 11.9179 27.3742 10.9989 26.9792C10.4989 26.7592 10.0019 26.5012 9.61089 26.1112C9.50989 26.0232 9.44589 25.8772 9.51289 25.7502C9.61289 25.5952 9.79289 25.5182 9.96289 25.4632C10.4479 25.3232 10.9469 25.2412 11.4459 25.1642C12.3479 25.0072 13.2589 24.9062 14.1539 24.7092C15.6409 24.3882 17.1279 23.9332 18.4139 23.0992C19.2879 22.5412 20.0579 21.8152 20.6249 20.9452C21.4389 19.7172 21.8149 18.2462 21.9049 16.7882C21.9499 15.7032 21.9249 14.6082 21.6979 13.5422C21.4909 12.6222 21.1279 11.6952 20.4409 11.0252C19.9159 10.4862 19.2009 10.1512 18.4629 10.0232C17.2379 9.79415 15.9869 10.0152 14.7869 10.2852C14.2249 10.4182 13.6709 10.5852 13.1029 10.6952C13.9109 9.93415 14.8999 9.39015 15.9389 9.01815C16.5359 8.79715 17.1559 8.65015 17.7729 8.50515C19.1249 8.20115 20.5089 8.08515 21.8729 7.85115C22.3489 7.75115 22.8329 7.65515 23.2409 7.39015Z" fill="white"/>
</g>
<defs>
<clipPath id="clip0_301_2097">
<rect width="32" height="32" fill="white"/>
</clipPath>
</defs>
</svg>
