<svg width="32" height="32" viewBox="0 0 32 32" fill="none" xmlns="http://www.w3.org/2000/svg">
<g clip-path="url(#clip0_301_2085)">
<path d="M16 32C24.8366 32 32 24.8366 32 16C32 7.16344 24.8366 0 16 0C7.16344 0 0 7.16344 0 16C0 24.8366 7.16344 32 16 32Z" fill="#3089F2"/>
<path d="M21.6268 17.8781C21.2048 18.2411 20.8268 18.5641 20.4528 18.8911C20.4108 18.9281 20.3688 18.9941 20.3688 19.0471C20.3628 19.6851 20.3648 20.3221 20.3648 20.9821C21.3258 20.5761 21.8278 19.3421 21.6268 17.8781ZM20.4688 13.9811C21.5398 13.3431 21.6668 13.1221 21.6708 11.8561C21.6708 11.7561 21.6738 11.6571 21.6698 11.5581C21.6238 10.3951 20.8278 9.36809 19.7258 9.12209C18.7358 8.90209 17.7378 8.71909 16.7378 8.55009C16.2288 8.46309 15.7078 8.38909 15.1948 8.40609C14.5738 8.42609 14.0668 8.75209 13.5998 9.28409C14.7318 9.49509 15.7828 9.71209 16.8408 9.88409C18.2938 10.1201 19.4028 10.8491 20.0088 12.2381C20.2438 12.7771 20.3188 13.3881 20.4688 13.9811ZM11.6458 10.9731C10.7858 11.5071 10.3618 12.2311 10.3488 13.1311C10.3194 15.561 10.3171 17.9911 10.3418 20.4211C10.3518 21.5981 11.1288 22.6071 12.2508 22.8811C13.2108 23.1151 14.1928 23.2591 15.1648 23.4471C15.7808 23.5671 16.3908 23.7491 17.0268 23.5911C17.5468 23.4611 18.0108 23.2421 18.3768 22.7281C17.2108 22.5091 16.1158 22.2681 15.0098 22.1041C13.1168 21.8231 11.6488 20.1461 11.6468 18.1941C11.6438 15.9621 11.6458 13.7311 11.6458 11.4991V10.9731ZM12.9838 10.6221C12.9718 10.8691 12.9538 11.0531 12.9538 11.2371C12.9508 13.4831 12.9508 15.7291 12.9538 17.9751C12.9568 19.4511 13.8488 20.5111 15.2658 20.7591C16.2898 20.9391 17.3098 21.1391 18.3318 21.3291C18.4028 21.3421 18.4748 21.3491 18.5468 21.3571C19.0318 21.4111 19.0488 21.4021 19.0518 20.9161C19.0568 20.1711 19.0318 19.4261 19.0668 18.6831C19.0768 18.4631 19.1878 18.1861 19.3468 18.0451C20.1578 17.3221 20.9998 16.6351 21.8308 15.9351C22.0568 15.7451 22.2888 15.6151 22.5928 15.7621C22.9138 15.9171 22.9978 16.1851 22.9928 16.5221C22.9808 17.3661 22.9988 18.2111 22.9728 19.0531C22.9238 20.5751 21.8198 22.0731 20.4028 22.5531C20.2827 22.59 20.1713 22.6506 20.0751 22.7313C19.9789 22.812 19.8999 22.9113 19.8428 23.0231C18.9698 24.5731 17.4738 25.1711 15.8708 24.9591C14.5568 24.7841 13.2528 24.5071 11.9548 24.2291C10.2828 23.8711 9.04776 22.3151 9.02076 20.4531C8.98476 17.9471 8.99676 15.4401 9.03976 12.9351C9.06576 11.3691 10.2298 9.91509 11.7058 9.43509C11.87 9.37432 12.0089 9.25978 12.0998 9.11009C13.0898 7.39209 14.6978 6.69509 16.6088 7.12309C17.6688 7.36009 18.7478 7.51609 19.8138 7.73309C21.7058 8.11909 22.9698 9.68109 22.9948 11.6471C23.0018 12.2061 23.0058 12.7651 22.9748 13.3221C22.9658 13.4991 22.8878 13.7251 22.7618 13.8361C21.8548 14.6361 20.9368 15.4241 19.9958 16.1821C19.8508 16.2991 19.5258 16.3261 19.3638 16.2391C19.2048 16.1531 19.0708 15.8741 19.0598 15.6721C19.0208 15.0051 19.0948 14.3281 19.0298 13.6651C18.8998 12.3361 17.9948 11.4581 16.6308 11.2311C15.5468 11.0511 14.4648 10.8561 13.3818 10.6701C13.2658 10.6501 13.1478 10.6411 12.9838 10.6221Z" fill="white"/>
</g>
<defs>
<clipPath id="clip0_301_2085">
<rect width="32" height="32" fill="white"/>
</clipPath>
</defs>
</svg>
