<svg width="32" height="32" viewBox="0 0 32 32" fill="none" xmlns="http://www.w3.org/2000/svg">
<g clip-path="url(#clip0_301_2444)">
<path d="M16 32C24.8366 32 32 24.8366 32 16C32 7.16344 24.8366 0 16 0C7.16344 0 0 7.16344 0 16C0 24.8366 7.16344 32 16 32Z" fill="#0D1E30"/>
<g filter="url(#filter0_d_301_2444)">
<path d="M15.725 6.05995C16.204 5.81295 16.789 6.38395 16.535 6.85495C16.386 7.23895 15.825 7.34095 15.539 7.04795C15.236 6.76795 15.335 6.21195 15.725 6.05895V6.05995ZM10.57 6.60595C10.861 6.48795 11.23 6.74995 11.2 7.06295C11.23 7.40095 10.81 7.65095 10.513 7.48995C10.12 7.33995 10.165 6.71195 10.57 6.60595ZM21.128 7.49895C20.673 7.44495 20.601 6.74095 21.038 6.59895C21.378 6.43695 21.69 6.74195 21.74 7.05895C21.668 7.32895 21.438 7.57695 21.128 7.49895ZM11.743 8.76395C12.23 8.46095 12.924 8.91195 12.849 9.46895C12.824 10.0299 12.066 10.3559 11.638 9.97595C11.224 9.67795 11.287 8.99395 11.743 8.76395ZM19.173 9.08595C19.39 8.53595 20.27 8.51795 20.517 9.05395C20.762 9.47095 20.461 9.98795 20.026 10.1299C19.449 10.2359 18.902 9.62195 19.173 9.08595ZM15.104 10.0989C15.099 9.62495 15.537 9.27295 15.994 9.23995C16.298 9.29995 16.628 9.42695 16.758 9.72795C17.001 10.1439 16.785 10.7149 16.348 10.9059C16.148 11.0159 15.91 10.9749 15.692 10.9619C15.359 10.8019 15.078 10.4849 15.104 10.0989ZM7.43804 10.7889C7.88304 10.5189 8.48304 11.0089 8.31404 11.4849C8.22204 11.8959 7.66004 12.0629 7.33904 11.8009C6.99604 11.5549 7.05004 10.9639 7.43904 10.7879L7.43804 10.7889ZM23.9 10.7869C24.277 10.4989 24.9 10.8299 24.854 11.2979C24.88 11.7249 24.341 12.0479 23.967 11.8279C23.555 11.6449 23.512 11.0209 23.9 10.7879V10.7869ZM17.26 11.6379C17.882 11.4179 18.622 11.6809 18.976 12.2279C19.444 12.8949 19.196 13.9109 18.469 14.2939C17.717 14.7469 16.618 14.3639 16.339 13.5359C16.024 12.7959 16.484 11.8699 17.259 11.6379H17.26ZM13.607 11.7109C14.297 11.3909 15.226 11.6589 15.559 12.3529C15.951 13.0289 15.648 13.9699 14.947 14.3189C14.245 14.7119 13.254 14.4139 12.915 13.6889C12.534 12.9869 12.872 12.0339 13.607 11.7109ZM9.95004 12.9399C10.003 12.5029 10.422 12.2179 10.845 12.1879C11.0656 12.2112 11.2718 12.3087 11.4299 12.4644C11.5879 12.62 11.6884 12.8247 11.715 13.0449C11.685 13.4949 11.332 13.9329 10.848 13.9309C10.315 13.9759 9.84804 13.4539 9.95004 12.9399ZM20.752 12.2839C21.299 11.9709 22.058 12.4259 22.034 13.0439C22.071 13.6989 21.231 14.1599 20.687 13.7759C20.121 13.4559 20.165 12.5559 20.752 12.2839ZM12.122 14.5909C12.76 14.4179 13.492 14.7139 13.805 15.2919C14.148 15.8739 14.008 16.6819 13.475 17.11C12.79 17.736 11.529 17.4839 11.165 16.6299C10.746 15.8469 11.255 14.7969 12.121 14.5899L12.122 14.5909ZM19.049 14.5879C19.67 14.4129 20.4 14.6479 20.734 15.2049C21.176 15.8419 20.965 16.7929 20.308 17.2029C19.618 17.6799 18.552 17.4299 18.172 16.6839C17.712 15.9129 18.175 14.8229 19.049 14.5879ZM8.00904 15.3139C8.56104 15.1089 9.17304 15.7079 8.94904 16.2469C8.81304 16.7369 8.11004 16.9189 7.74704 16.5569C7.32204 16.2169 7.47904 15.4619 8.00904 15.3139ZM22.978 16.096C22.9677 15.8758 23.0446 15.6605 23.1922 15.4968C23.3398 15.3331 23.546 15.2344 23.766 15.2219C24.144 15.2819 24.512 15.582 24.482 15.9869C24.517 16.5219 23.862 16.885 23.398 16.634C23.181 16.525 23.07 16.306 22.978 16.096ZM5.29404 15.5799C5.62604 15.4369 6.03704 15.7199 5.96104 16.0829C5.94304 16.4939 5.32604 16.6529 5.10004 16.3089C4.90004 16.0699 5.02004 15.7029 5.29404 15.5789V15.5799ZM26.243 15.5709C26.477 15.4079 26.853 15.5249 26.945 15.7939C27.102 16.0879 26.814 16.4899 26.478 16.4409C26.006 16.4829 25.854 15.7759 26.243 15.5709ZM13.926 17.544C14.8 17.321 15.74 18.0379 15.746 18.9239C15.802 19.8189 14.876 20.6119 13.982 20.4059C13.29 20.2959 12.747 19.6399 12.77 18.9529C12.768 18.2949 13.272 17.683 13.926 17.544ZM17.388 17.5429C18.275 17.2989 19.243 18.0289 19.229 18.9349C19.276 19.8129 18.379 20.58 17.503 20.405C16.678 20.301 16.07 19.4099 16.3 18.6219C16.416 18.0979 16.862 17.6719 17.388 17.5419V17.5429ZM10.712 18.0879C11.326 17.9849 11.902 18.6579 11.653 19.2319C11.471 19.844 10.567 20.0089 10.167 19.5099C9.69904 19.03 10.049 18.1539 10.712 18.0879ZM20.866 18.1149C21.414 17.8889 22.086 18.3549 22.044 18.9399C22.066 19.5829 21.236 20.0269 20.701 19.6509C20.094 19.3139 20.205 18.3209 20.866 18.1149ZM23.704 20.915C23.49 20.522 23.879 20.0009 24.324 20.0739C24.544 20.0699 24.699 20.2409 24.84 20.3849C24.869 20.6179 24.918 20.896 24.721 21.075C24.454 21.408 23.849 21.313 23.704 20.915ZM7.43604 20.183C7.85104 19.912 8.44804 20.3169 8.35404 20.7929C8.30404 21.2159 7.76404 21.4569 7.40904 21.2169C7.02704 20.9999 7.04104 20.3809 7.43604 20.183ZM15.629 21.0659C16.172 20.8309 16.864 21.2959 16.812 21.884C16.852 22.534 15.997 22.9839 15.466 22.594C14.876 22.259 14.975 21.2729 15.629 21.0659ZM11.835 21.9369C12.297 21.6979 12.917 22.111 12.875 22.621C12.889 23.0389 12.475 23.395 12.055 23.333C11.708 23.326 11.482 23.019 11.37 22.728C11.376 22.411 11.509 22.0579 11.835 21.9379V21.9369ZM19.521 21.9449C19.997 21.6549 20.673 22.0709 20.628 22.615C20.64 23.1849 19.876 23.549 19.433 23.1749C19.005 22.882 19.057 22.1779 19.521 21.9449ZM20.858 25.195C20.646 24.881 20.895 24.502 21.238 24.43C21.515 24.485 21.808 24.69 21.749 25.004C21.709 25.431 21.075 25.5609 20.858 25.1959V25.195ZM10.247 24.922C10.331 24.672 10.535 24.4249 10.834 24.49C11.269 24.52 11.398 25.166 11.017 25.365C10.675 25.5919 10.277 25.281 10.247 24.922ZM15.367 25.209C15.45 24.8389 15.935 24.66 16.255 24.856C16.467 24.946 16.529 25.1779 16.583 25.3759C16.5545 25.4788 16.5278 25.5821 16.503 25.686C16.372 25.838 16.203 25.9909 15.985 25.986C15.58 26.033 15.214 25.5819 15.366 25.209H15.367Z" fill="black"/>
</g>
<path d="M15.725 6.05995C16.204 5.81295 16.789 6.38395 16.535 6.85495C16.386 7.23895 15.825 7.34095 15.539 7.04795C15.236 6.76795 15.335 6.21195 15.725 6.05895V6.05995ZM10.57 6.60595C10.861 6.48795 11.23 6.74995 11.2 7.06295C11.23 7.40095 10.81 7.65095 10.513 7.48995C10.12 7.33995 10.165 6.71195 10.57 6.60595ZM21.128 7.49895C20.673 7.44495 20.601 6.74095 21.038 6.59895C21.378 6.43695 21.69 6.74195 21.74 7.05895C21.668 7.32895 21.438 7.57695 21.128 7.49895ZM11.743 8.76395C12.23 8.46095 12.924 8.91195 12.849 9.46895C12.824 10.0299 12.066 10.3559 11.638 9.97595C11.224 9.67795 11.287 8.99395 11.743 8.76395ZM19.173 9.08595C19.39 8.53595 20.27 8.51795 20.517 9.05395C20.762 9.47095 20.461 9.98795 20.026 10.1299C19.449 10.2359 18.902 9.62195 19.173 9.08595ZM15.104 10.0989C15.099 9.62495 15.537 9.27295 15.994 9.23995C16.298 9.29995 16.628 9.42695 16.758 9.72795C17.001 10.1439 16.785 10.7149 16.348 10.9059C16.148 11.0159 15.91 10.9749 15.692 10.9619C15.359 10.8019 15.078 10.4849 15.104 10.0989ZM7.43804 10.7889C7.88304 10.5189 8.48304 11.0089 8.31404 11.4849C8.22204 11.8959 7.66004 12.0629 7.33904 11.8009C6.99604 11.5549 7.05004 10.9639 7.43904 10.7879L7.43804 10.7889ZM23.9 10.7869C24.277 10.4989 24.9 10.8299 24.854 11.2979C24.88 11.7249 24.341 12.0479 23.967 11.8279C23.555 11.6449 23.512 11.0209 23.9 10.7879V10.7869ZM17.26 11.6379C17.882 11.4179 18.622 11.6809 18.976 12.2279C19.444 12.8949 19.196 13.9109 18.469 14.2939C17.717 14.7469 16.618 14.3639 16.339 13.5359C16.024 12.7959 16.484 11.8699 17.259 11.6379H17.26ZM13.607 11.7109C14.297 11.3909 15.226 11.6589 15.559 12.3529C15.951 13.0289 15.648 13.9699 14.947 14.3189C14.245 14.7119 13.254 14.4139 12.915 13.6889C12.534 12.9869 12.872 12.0339 13.607 11.7109ZM9.95004 12.9399C10.003 12.5029 10.422 12.2179 10.845 12.1879C11.0656 12.2112 11.2718 12.3087 11.4299 12.4644C11.5879 12.62 11.6884 12.8247 11.715 13.0449C11.685 13.4949 11.332 13.9329 10.848 13.9309C10.315 13.9759 9.84804 13.4539 9.95004 12.9399ZM20.752 12.2839C21.299 11.9709 22.058 12.4259 22.034 13.0439C22.071 13.6989 21.231 14.1599 20.687 13.7759C20.121 13.4559 20.165 12.5559 20.752 12.2839ZM12.122 14.5909C12.76 14.4179 13.492 14.7139 13.805 15.2919C14.148 15.8739 14.008 16.6819 13.475 17.11C12.79 17.736 11.529 17.4839 11.165 16.6299C10.746 15.8469 11.255 14.7969 12.121 14.5899L12.122 14.5909ZM19.049 14.5879C19.67 14.4129 20.4 14.6479 20.734 15.2049C21.176 15.8419 20.965 16.7929 20.308 17.2029C19.618 17.6799 18.552 17.4299 18.172 16.6839C17.712 15.9129 18.175 14.8229 19.049 14.5879ZM8.00904 15.3139C8.56104 15.1089 9.17304 15.7079 8.94904 16.2469C8.81304 16.7369 8.11004 16.9189 7.74704 16.5569C7.32204 16.2169 7.47904 15.4619 8.00904 15.3139ZM22.978 16.096C22.9677 15.8758 23.0446 15.6605 23.1922 15.4968C23.3398 15.3331 23.546 15.2344 23.766 15.2219C24.144 15.2819 24.512 15.582 24.482 15.9869C24.517 16.5219 23.862 16.885 23.398 16.634C23.181 16.525 23.07 16.306 22.978 16.096ZM5.29404 15.5799C5.62604 15.4369 6.03704 15.7199 5.96104 16.0829C5.94304 16.4939 5.32604 16.6529 5.10004 16.3089C4.90004 16.0699 5.02004 15.7029 5.29404 15.5789V15.5799ZM26.243 15.5709C26.477 15.4079 26.853 15.5249 26.945 15.7939C27.102 16.0879 26.814 16.4899 26.478 16.4409C26.006 16.4829 25.854 15.7759 26.243 15.5709ZM13.926 17.544C14.8 17.321 15.74 18.0379 15.746 18.9239C15.802 19.8189 14.876 20.6119 13.982 20.4059C13.29 20.2959 12.747 19.6399 12.77 18.9529C12.768 18.2949 13.272 17.683 13.926 17.544ZM17.388 17.5429C18.275 17.2989 19.243 18.0289 19.229 18.9349C19.276 19.8129 18.379 20.58 17.503 20.405C16.678 20.301 16.07 19.4099 16.3 18.6219C16.416 18.0979 16.862 17.6719 17.388 17.5419V17.5429ZM10.712 18.0879C11.326 17.9849 11.902 18.6579 11.653 19.2319C11.471 19.844 10.567 20.0089 10.167 19.5099C9.69904 19.03 10.049 18.1539 10.712 18.0879ZM20.866 18.1149C21.414 17.8889 22.086 18.3549 22.044 18.9399C22.066 19.5829 21.236 20.0269 20.701 19.6509C20.094 19.3139 20.205 18.3209 20.866 18.1149ZM23.704 20.915C23.49 20.522 23.879 20.0009 24.324 20.0739C24.544 20.0699 24.699 20.2409 24.84 20.3849C24.869 20.6179 24.918 20.896 24.721 21.075C24.454 21.408 23.849 21.313 23.704 20.915ZM7.43604 20.183C7.85104 19.912 8.44804 20.3169 8.35404 20.7929C8.30404 21.2159 7.76404 21.4569 7.40904 21.2169C7.02704 20.9999 7.04104 20.3809 7.43604 20.183ZM15.629 21.0659C16.172 20.8309 16.864 21.2959 16.812 21.884C16.852 22.534 15.997 22.9839 15.466 22.594C14.876 22.259 14.975 21.2729 15.629 21.0659ZM11.835 21.9369C12.297 21.6979 12.917 22.111 12.875 22.621C12.889 23.0389 12.475 23.395 12.055 23.333C11.708 23.326 11.482 23.019 11.37 22.728C11.376 22.411 11.509 22.0579 11.835 21.9379V21.9369ZM19.521 21.9449C19.997 21.6549 20.673 22.0709 20.628 22.615C20.64 23.1849 19.876 23.549 19.433 23.1749C19.005 22.882 19.057 22.1779 19.521 21.9449ZM20.858 25.195C20.646 24.881 20.895 24.502 21.238 24.43C21.515 24.485 21.808 24.69 21.749 25.004C21.709 25.431 21.075 25.5609 20.858 25.1959V25.195ZM10.247 24.922C10.331 24.672 10.535 24.4249 10.834 24.49C11.269 24.52 11.398 25.166 11.017 25.365C10.675 25.5919 10.277 25.281 10.247 24.922ZM15.367 25.209C15.45 24.8389 15.935 24.66 16.255 24.856C16.467 24.946 16.529 25.1779 16.583 25.3759C16.5545 25.4788 16.5278 25.5821 16.503 25.686C16.372 25.838 16.203 25.9909 15.985 25.986C15.58 26.033 15.214 25.5819 15.366 25.209H15.367Z" fill="white"/>
</g>
<defs>
<filter id="filter0_d_301_2444" x="4.00049" y="5.50037" width="23.9888" height="21.989" filterUnits="userSpaceOnUse" color-interpolation-filters="sRGB">
<feFlood flood-opacity="0" result="BackgroundImageFix"/>
<feColorMatrix in="SourceAlpha" type="matrix" values="0 0 0 0 0 0 0 0 0 0 0 0 0 0 0 0 0 0 127 0" result="hardAlpha"/>
<feOffset dy="0.5"/>
<feGaussianBlur stdDeviation="0.5"/>
<feColorMatrix type="matrix" values="0 0 0 0 0 0 0 0 0 0 0 0 0 0 0 0 0 0 0.204257 0"/>
<feBlend mode="normal" in2="BackgroundImageFix" result="effect1_dropShadow_301_2444"/>
<feBlend mode="normal" in="SourceGraphic" in2="effect1_dropShadow_301_2444" result="shape"/>
</filter>
<clipPath id="clip0_301_2444">
<rect width="32" height="32" fill="white"/>
</clipPath>
</defs>
</svg>
