<svg width="32" height="32" viewBox="0 0 32 32" fill="none" xmlns="http://www.w3.org/2000/svg">
<g clip-path="url(#clip0_301_2071)">
<path d="M16 32C24.8366 32 32 24.8366 32 16C32 7.16344 24.8366 0 16 0C7.16344 0 0 7.16344 0 16C0 24.8366 7.16344 32 16 32Z" fill="#598182"/>
<path fill-rule="evenodd" clip-rule="evenodd" d="M13.5481 25.4081C14.3935 24.3157 15.2388 23.2234 16.0841 22.1311C17.0331 22.2791 17.9681 22.1951 18.8621 21.8071C19.1851 21.6671 19.4741 21.4491 19.7781 21.2651C19.8211 21.2391 19.8611 21.2051 19.8941 21.1801L22.9661 24.2181C22.7111 24.3881 22.4581 24.5721 22.1891 24.7301C21.1484 25.3334 20.0011 25.7306 18.8101 25.9001C18.1073 25.9986 17.3963 26.0254 16.6881 25.9801C15.6206 25.931 14.5644 25.7386 13.5481 25.4081ZM12.5821 25.0321C12.2408 24.8795 11.9083 24.7079 11.5861 24.5181C9.93991 23.5641 8.64041 22.1105 7.87613 20.3681C7.47272 19.4593 7.20746 18.4953 7.08913 17.5081C6.99628 16.7424 6.97552 15.9696 7.02713 15.2001C7.15013 13.2251 7.75113 11.4101 8.96213 9.81305C10.0801 8.33905 11.5481 7.33005 13.2851 6.68305C14.1092 6.3703 14.9722 6.17179 15.8501 6.09305C16.5131 6.03605 17.1831 5.97905 17.8461 6.00805C18.2561 6.02505 18.6591 6.06505 19.0561 6.12805C18.1988 7.37273 17.3415 8.61739 16.4841 9.86205C15.6264 9.93393 14.7991 10.214 14.0741 10.6781C12.7441 11.5221 11.9481 12.7381 11.5741 14.2381C11.4154 14.8701 11.3428 15.5206 11.3581 16.1721C11.3671 16.5141 11.3961 16.8491 11.4471 17.1761L11.1391 17.6231C10.8911 17.9831 11.1961 18.4591 11.6371 18.4011L11.7491 18.3871C12.0071 19.1161 12.3981 19.7971 12.9391 20.4221C13.2751 20.8081 13.6501 21.1321 14.0631 21.3921L12.6181 24.8831C12.5983 24.9308 12.5861 24.9815 12.5821 25.0331V25.0321ZM20.0251 6.33405C20.9154 6.57125 21.7593 6.957 22.5211 7.47505C22.6591 7.56905 22.7851 7.68005 22.9171 7.78305C22.9421 7.80205 22.9681 7.81905 23.0001 7.84105C22.9581 7.88905 22.9341 7.92105 22.9051 7.94905C21.9941 8.84705 21.0811 9.74205 20.1731 10.6431C20.0731 10.7431 20.0101 10.7591 19.8891 10.6731C19.5226 10.4125 19.1173 10.2114 18.6881 10.0771L19.9711 6.70205L20.0051 6.61505C20.0393 6.52539 20.0462 6.42765 20.0251 6.33405ZM16.3211 17.2821L11.5681 17.9031L19.4761 6.42005L19.5201 6.44005L16.4651 14.4711L22.0401 13.5911L13.1411 25.1011L13.0981 25.0711L16.3211 17.2821Z" fill="white"/>
</g>
<defs>
<clipPath id="clip0_301_2071">
<rect width="32" height="32" fill="white"/>
</clipPath>
</defs>
</svg>
