<svg width="32" height="32" viewBox="0 0 32 32" fill="none" xmlns="http://www.w3.org/2000/svg">
<g clip-path="url(#clip0_301_2053)">
<path d="M16 32C24.8366 32 32 24.8366 32 16C32 7.16344 24.8366 0 16 0C7.16344 0 0 7.16344 0 16C0 24.8366 7.16344 32 16 32Z" fill="#2FD2E5"/>
<path d="M16.57 4.00708C13.868 3.91321 11.2158 4.75102 9.058 6.38008C8.84879 6.53732 8.67717 6.73912 8.55557 6.97086C8.43396 7.2026 8.36541 7.45849 8.35488 7.71999C8.34435 7.98148 8.39211 8.24205 8.49469 8.48282C8.59727 8.72359 8.75211 8.93853 8.948 9.11208C9.57 9.70008 10.528 9.74608 11.204 9.22108C12.8593 7.93287 14.9372 7.31173 17.0279 7.48019C19.1186 7.64864 21.0703 8.59446 22.498 10.1311C23.088 10.7411 23.106 11.7021 22.54 12.3341C22.3977 12.4867 22.2268 12.6097 22.037 12.6962C21.8472 12.7827 21.6421 12.831 21.4337 12.8382C21.2252 12.8454 21.0173 12.8115 20.8219 12.7384C20.6266 12.6653 20.4475 12.5544 20.295 12.4121L20.218 12.3341C19.5061 11.5534 18.5748 11.0063 17.5463 10.7646C16.5178 10.5228 15.4402 10.5977 14.4551 10.9795C13.4699 11.3612 12.6233 12.0319 12.0262 12.9036C11.4292 13.7752 11.1097 14.8071 11.1097 15.8636C11.1097 16.9201 11.4292 17.9519 12.0262 18.8236C12.6233 19.6952 13.4699 20.366 14.4551 20.7477C15.4402 21.1295 16.5178 21.2044 17.5463 20.9626C18.5748 20.7209 19.5061 20.1737 20.218 19.3931C20.4461 19.1379 20.7519 18.965 21.0881 18.9012C21.4244 18.8373 21.7723 18.8862 22.078 19.0401C22.2955 19.1492 22.4848 19.307 22.6311 19.5014C22.7775 19.6958 22.8769 19.9213 22.9217 20.1605C22.9664 20.3996 22.9552 20.6459 22.889 20.88C22.8228 21.1141 22.7034 21.3298 22.54 21.5101C21.1182 23.0665 19.164 24.0325 17.064 24.2169C14.964 24.4014 12.8713 23.7908 11.2 22.5061C10.8693 22.2541 10.4602 22.127 10.0449 22.1471C9.62966 22.1672 9.23481 22.3333 8.93 22.6161C8.73541 22.7944 8.58275 23.0136 8.48302 23.258C8.38328 23.5023 8.33894 23.7658 8.35319 24.0293C8.36744 24.2928 8.43992 24.55 8.56542 24.7821C8.69092 25.0143 8.86632 25.2158 9.079 25.3721C10.5707 26.4783 12.3014 27.2185 14.1317 27.5331C15.962 27.8476 17.8405 27.7276 19.6159 27.1828C21.3913 26.638 23.0138 25.6836 24.3526 24.3966C25.6915 23.1096 26.7091 21.526 27.3235 19.7735C27.9379 18.021 28.1319 16.1486 27.8898 14.3073C27.6478 12.4661 26.9764 10.7075 25.9299 9.17332C24.8833 7.63918 23.4909 6.37243 21.8649 5.47522C20.239 4.57802 18.4249 4.07546 16.569 4.00808L16.57 4.00708ZM16.35 18.7951C15.9648 18.7936 15.5837 18.7163 15.2284 18.5676C14.8731 18.4189 14.5506 18.2016 14.2793 17.9282C14.0079 17.6549 13.7931 17.3307 13.6471 16.9743C13.501 16.6179 13.4266 16.2362 13.428 15.8511C13.4294 15.4659 13.5067 15.0848 13.6555 14.7295C13.8042 14.3742 14.0215 14.0517 14.2948 13.7804C14.5682 13.509 14.8924 13.2942 15.2488 13.1481C15.6052 13.0021 15.9868 12.9276 16.372 12.9291C17.1499 12.9319 17.8948 13.2435 18.4429 13.7956C18.9909 14.3476 19.2973 15.0947 19.2945 15.8726C19.2917 16.6505 18.98 17.3954 18.428 17.9434C17.876 18.4915 17.1289 18.7979 16.351 18.7951H16.35Z" fill="white"/>
</g>
<defs>
<clipPath id="clip0_301_2053">
<rect width="32" height="32" fill="white"/>
</clipPath>
</defs>
</svg>
